<svg viewBox="0 0 16 16" xmlns="http://www.w3.org/2000/svg">
  <g stroke="none">
    <path opacity="0.25"
      d="M16 8C16 12.4183 12.4183 16 8 16C3.58172 16 0 12.4183 0 8C0 3.58172 3.58172 0 8 0C12.4183 0 16 3.58172 16 8ZM2 8C2 11.3137 4.68629 14 8 14C11.3137 14 14 11.3137 14 8C14 4.68629 11.3137 2 8 2C4.68629 2 2 4.68629 2 8Z"
      fill="#C2C2C8" />
    <path
      d="M8 1C8 0.447715 8.44945 -0.00644335 8.99743 0.0624139C10.3309 0.22997 11.6064 0.731625 12.7023 1.52786C14.0691 2.52089 15.0864 3.92112 15.6084 5.52786C16.1305 7.13461 16.1305 8.86539 15.6084 10.4721C15.1898 11.7605 14.4528 12.916 13.4725 13.8354C13.0697 14.2132 12.4391 14.1099 12.1145 13.6631C11.7899 13.2163 11.8964 12.596 12.2831 12.2018C12.9295 11.5429 13.4184 10.7404 13.7063 9.8541C14.0979 8.64904 14.0979 7.35096 13.7063 6.1459C13.3148 4.94084 12.5518 3.89067 11.5267 3.1459C10.7728 2.59814 9.90555 2.23626 8.9954 2.08314C8.45077 1.99151 8 1.55228 8 1Z"
      fill="#AEAEB2" />
  </g>
</svg>
