<svg width="24" height="24" viewBox="0 0 24 24" fill="none" xmlns="http://www.w3.org/2000/svg">
<path fill-rule="evenodd" clip-rule="evenodd" d="M1.74525 14.722C1.18425 13.519 1.12425 12.141 1.57825 10.893C2.03225 9.64497 2.96425 8.62797 4.16825 8.06697L7.89625 6.32797C8.54925 6.02397 9.14825 5.61597 9.67125 5.12097L13.1462 1.83097C13.4452 1.54797 13.8623 1.42497 14.2673 1.50197C14.6722 1.57997 15.0152 1.84697 15.1902 2.21997L19.9643 12.459C20.1383 12.833 20.1222 13.268 19.9212 13.627C19.7202 13.987 19.3582 14.228 18.9492 14.275L14.1952 14.822C13.4792 14.905 12.7822 15.102 12.1292 15.406L8.40125 17.145C5.89425 18.314 2.91425 17.229 1.74525 14.722ZM21.4042 4.72797C21.7802 4.55297 22.2262 4.71497 22.4012 5.08997C22.5762 5.46497 22.4132 5.91197 22.0382 6.08697L20.5912 6.76197C20.2162 6.93697 19.7692 6.77397 19.5942 6.39897C19.4193 6.02397 19.5823 5.57697 19.9573 5.40197L21.4042 4.72797ZM17.9023 3.75497C17.6952 4.11397 17.2363 4.23697 16.8773 4.02997C16.5193 3.82297 16.3963 3.36397 16.6033 3.00497L17.4012 1.62197C17.6082 1.26397 18.0673 1.14097 18.4263 1.34797C18.7843 1.55497 18.9073 2.01397 18.7003 2.37197L17.9023 3.75497ZM20.2712 10.872C19.8643 10.801 19.5912 10.411 19.6632 10.004C19.7353 9.59597 20.1242 9.32297 20.5322 9.39497L22.1042 9.67297C22.5122 9.74397 22.7852 10.134 22.7132 10.541C22.6412 10.949 22.2523 11.222 21.8442 11.15L20.2712 10.872ZM11.6742 16.722L12.4392 18.363C12.4683 18.425 12.5023 18.485 12.5413 18.542L14.2802 21.075C14.4253 21.287 14.4522 21.559 14.3512 21.795C14.2492 22.031 14.0332 22.199 13.7793 22.24L10.6982 22.731C9.92625 22.854 9.16625 22.45 8.83625 21.742L7.33525 18.523C7.83825 18.433 8.33825 18.277 8.82325 18.051L11.6742 16.722Z" />
</svg>
