<svg width="14" height="14" viewBox="0 0 14 14" fill="none" xmlns="http://www.w3.org/2000/svg">
<path d="M0 7C1.68837e-07 3.13746 3.13746 -1.68837e-07 7 0C10.8625 1.68837e-07 14 3.13746 14 7C14 10.8625 10.8625 14 7 14C3.13746 14 -1.68837e-07 10.8625 0 7ZM4.12682 4.77735C4.12682 4.96031 4.19458 5.11617 4.31655 5.24492L6.08519 7L4.31655 8.76863C4.19458 8.88383 4.12682 9.04647 4.12682 9.22943C4.12682 9.58858 4.41142 9.87319 4.77735 9.87319C4.94676 9.87319 5.10261 9.80542 5.22459 9.68345L6.99322 7.91481L8.76863 9.69022C8.89739 9.81897 9.04647 9.87319 9.21588 9.87319C9.57502 9.87319 9.85286 9.59535 9.85286 9.24298C9.85286 9.06002 9.79187 8.91772 9.66312 8.78896L7.88771 7L9.65634 5.22459C9.77832 5.10261 9.8393 4.96031 9.8393 4.77735C9.8393 4.4182 9.56825 4.14037 9.2091 4.14037C9.03969 4.14037 8.88383 4.20813 8.76186 4.33011L6.99322 6.09874L5.21781 4.33011C5.09584 4.20813 4.93998 4.14037 4.77735 4.14037C4.41142 4.14037 4.12682 4.4182 4.12682 4.77735Z" />
</svg>
