<svg width="14" height="14" viewBox="0 0 14 14" fill="none" xmlns="http://www.w3.org/2000/svg">
<path d="M7 14C3.13746 14 0 10.8625 0 7C0 3.13746 3.13746 0 7 0C10.8625 0 14 3.13746 14 7C14 10.8625 10.8625 14 7 14ZM6.24782 10.3475C6.49855 10.3475 6.71539 10.2188 6.87125 9.98838L10.0426 5.04163C10.1375 4.89255 10.2188 4.72314 10.2188 4.56728C10.2188 4.21491 9.91384 3.97773 9.57502 3.97773C9.35818 3.97773 9.16844 4.09293 9.02614 4.33011L6.22072 8.81607L4.91288 7.15586C4.74347 6.93901 4.58083 6.8577 4.37076 6.8577C4.01839 6.8577 3.74734 7.1423 3.74734 7.4879C3.74734 7.65731 3.80833 7.81994 3.9303 7.96902L5.59051 9.98838C5.78025 10.2323 5.99032 10.3475 6.24782 10.3475Z" />
</svg>
