<svg height="32" viewBox="0 0 64 64" width="32" xmlns="http://www.w3.org/2000/svg"><g id="Exchange-Browser-Money-Transfer-Online"><g fill="#bddbff"><path d="m61 19v6h-6v-2a1 1 0 0 0 -1-1h-5v-5h10a2.006 2.006 0 0 1 2 2z"/><path d="m54 42h-15v4h15a1 1 0 0 0 1-1v-4a1 1 0 0 1 -1 1z"/><path d="m49 38.4a6.882 6.882 0 0 0 -1 3.6h6a1 1 0 0 0 1-1v-6a6.977 6.977 0 0 0 -6 3.4z"/><path d="m54 22h-6a6.882 6.882 0 0 0 1 3.6 6.977 6.977 0 0 0 6 3.4v-6a1 1 0 0 0 -1-1z"/><path d="m49 5v6h-46v-6a2.006 2.006 0 0 1 2-2h42a2.006 2.006 0 0 1 2 2z"/><path d="m54 46h-15v4h15a1 1 0 0 0 1-1v-4a1 1 0 0 1 -1 1z"/><circle cx="36" cy="32" r="5"/><path d="m18 46a1 1 0 0 1 -1-1v4a1 1 0 0 0 1 1h15v-4z"/><path d="m33 42v4h-15a1 1 0 0 1 -1-1v-4a1 1 0 0 0 1 1z"/><path d="m18 22h6a7 7 0 0 1 -7 7v-6a1 1 0 0 1 1-1z"/><path d="m24 42h-6a1 1 0 0 1 -1-1v-6a7 7 0 0 1 7 7z"/></g><g fill="#3d9ae2"><path d="m6 6h2v2h-2z"/><path d="m10 6h2v2h-2z"/><path d="m14 6h2v2h-2z"/><path d="m59 16h-9v-11a3 3 0 0 0 -3-3h-42a3 3 0 0 0 -3 3v40a3 3 0 0 0 3 3h7v11a3 3 0 0 0 3 3h44a3 3 0 0 0 3-3v-40a3 3 0 0 0 -3-3zm0 2a1 1 0 0 1 1 1v5h-4v-1a2 2 0 0 0 -2-2h-4v-3zm-41 11.931a8.008 8.008 0 0 0 6.931-6.931h22.138a8.007 8.007 0 0 0 6.931 6.93v4.14a8.008 8.008 0 0 0 -6.931 6.93h-22.138a8.008 8.008 0 0 0 -6.931-6.931zm0-2.021v-4.91h4.91a6.008 6.008 0 0 1 -4.91 4.91zm22 15.09h14v2h-14zm14-2h-4.91a6.006 6.006 0 0 1 4.91-4.909zm0-13.09a6.007 6.007 0 0 1 -4.91-4.91h4.91zm-22 17.09h-14v-2h14zm-14-8.91a6.008 6.008 0 0 1 4.91 4.91h-4.91zm0 10.91h14v2h-14zm16-4h4v6h-4zm6 4h14v2h-14zm-35-43h42a1 1 0 0 1 1 1v5h-44v-5a1 1 0 0 1 1-1zm-1 41v-33h44v9h-30a2 2 0 0 0 -2 2v23h-11a1 1 0 0 1 -1-1zm55 15h-44a1 1 0 0 1 -1-1v-11h2v1a2 2 0 0 0 2 2h36a2 2 0 0 0 2-2v-23h4v33a1 1 0 0 1 -1 1z"/><path d="m36 38a6 6 0 1 0 -6-6 6.006 6.006 0 0 0 6 6zm0-10a4 4 0 1 1 -4 4 4 4 0 0 1 4-4z"/><path d="m27.076 54.617a1 1 0 0 0 .217 1.09l3 3 1.414-1.414-1.293-1.293h15.586v-2h-18a1 1 0 0 0 -.924.617z"/><path d="m43.924 17.383a1 1 0 0 0 -.217-1.09l-3-3-1.414 1.414 1.293 1.293h-15.586v2h18a1 1 0 0 0 .924-.617z"/></g></g></svg>