<svg height="32" viewBox="0 0 64 64" width="32" xmlns="http://www.w3.org/2000/svg"><g id="Faucet-Profit-Money-Commerce-Business"><g fill="#bddbff"><path d="m61 11v16h-6v-2-12-2z"/><path d="m55 13v12h-6v-3-6-3z"/><path d="m49 16v6h-31a1 1 0 0 0 -1 1v3h-6v-4a6 6 0 0 1 6-6h4v-3a1 1 0 0 1 1-1h8a1 1 0 0 1 1 1v3z"/><path d="m28 8.22a2.954 2.954 0 0 1 -4 0 2.284 2.284 0 0 1 -.22-.22h-8.78a2 2 0 0 1 0-4h8.78a2.964 2.964 0 0 1 4.44 0h8.78a2 2 0 0 1 0 4h-8.78a2.284 2.284 0 0 1 -.22.22z"/><path d="m28 8.22v3.78h-4v-3.78a2.954 2.954 0 0 0 4 0z"/><path d="m19.41 26.59a1.955 1.955 0 0 1 .59 1.41 2.006 2.006 0 0 1 -2 2h-8a2.015 2.015 0 0 1 -2-2 2.006 2.006 0 0 1 2-2h8a1.955 1.955 0 0 1 1.41.59z"/></g><g fill="#3d9ae2"><path d="m13 34v1.184a2.993 2.993 0 0 0 1 5.816 1 1 0 1 1 -1 1h-2a3 3 0 0 0 2 2.816v1.184h2v-1.184a2.993 2.993 0 0 0 -1-5.816 1 1 0 1 1 1-1h2a3 3 0 0 0 -2-2.816v-1.184z"/><path d="m6.219 48.375c-.432.54-4.219 5.368-4.219 8.625a5 5 0 0 0 10 0c0-3.257-3.787-8.085-4.219-8.625a1.034 1.034 0 0 0 -1.562 0zm.781 11.625a3 3 0 0 1 -3-3c0-1.743 1.763-4.6 3-6.334 1.238 1.734 3 4.588 3 6.334a3 3 0 0 1 -3 3z"/><path d="m18.177 51.432c-.655.948-2.177 3.29-2.177 4.568a3 3 0 0 0 6 0c0-1.278-1.522-3.62-2.177-4.568a1.038 1.038 0 0 0 -1.646 0zm.823 5.568a1 1 0 0 1 -1-1 7.457 7.457 0 0 1 1-2.147 7.462 7.462 0 0 1 1 2.147 1 1 0 0 1 -1 1z"/><path d="m61 10h-6a1 1 0 0 0 -1 1v1h-5a1 1 0 0 0 -1 1v2h-16v-2a2 2 0 0 0 -2-2h-1v-2h8a3 3 0 0 0 0-6h-8.37a4.08 4.08 0 0 0 -5.26 0h-8.37a3 3 0 0 0 0 6h8v2h-1a2 2 0 0 0 -2 2v2h-3a7.009 7.009 0 0 0 -7 7v3a3 3 0 0 0 0 6h.02c-2.02 3.213-4.02 7.127-4.02 10 0 5.3 3.29 9 8 9s8-3.7 8-9c0-2.873-2-6.787-4.02-10h.02a3 3 0 0 0 0-6v-2h30v2a1 1 0 0 0 1 1h5v1a1 1 0 0 0 1 1h6a1 1 0 0 0 1-1v-16a1 1 0 0 0 -1-1zm-47-4a1 1 0 0 1 1-1h8.778a1 1 0 0 0 .743-.33 2.013 2.013 0 0 1 2.958 0 1 1 0 0 0 .743.33h8.778a1 1 0 0 1 0 2h-8.778a1 1 0 0 0 -.743.33 2.013 2.013 0 0 1 -2.958 0 1 1 0 0 0 -.743-.33h-8.778a1 1 0 0 1 -1-1zm11 3.854a3.5 3.5 0 0 0 2 0v1.146h-2zm-5 31.146c0 3.484-1.855 7-6 7s-6-3.516-6-7c0-2.152 1.569-5.7 4.4-10h3.2c2.831 4.3 4.4 7.848 4.4 10zm-1-13a1 1 0 0 1 -1 1h-8a1 1 0 0 1 0-2h8a1 1 0 0 1 1 1zm-1-7a2 2 0 0 0 -2 2v2h-4v-3a5.006 5.006 0 0 1 5-5h4a1 1 0 0 0 1-1v-3h8v3a1 1 0 0 0 1 1h17v4zm32 3v-10h4v10zm10 2h-4v-14h4z"/></g></g></svg>