<svg width="100%" height="100%" viewBox="0 0 1977 1360" version="1.1" xmlns="http://www.w3.org/2000/svg"
  xmlns:xlink="http://www.w3.org/1999/xlink">
  <defs>
    <linearGradient x1="83.4605107%" y1="0%" x2="0%" y2="100%" id="linearGradient-1">
      <stop stop-color="#53514E" offset="0%"></stop>
      <stop stop-color="#7A7978" offset="100%"></stop>
    </linearGradient>
    <linearGradient x1="1.84745492%" y1="0%" x2="100%" y2="100%" id="linearGradient-2">
      <stop stop-color="#535353" offset="0%"></stop>
      <stop stop-color="#565757" offset="100%"></stop>
    </linearGradient>
    <linearGradient x1="50%" y1="0%" x2="50%" y2="100%" id="linearGradient-3">
      <stop stop-color="#171717" offset="0%"></stop>
      <stop stop-color="#4E4A54" offset="100%"></stop>
    </linearGradient>
    <linearGradient x1="89.2420364%" y1="0%" x2="15.9122475%" y2="95.1830035%" id="linearGradient-4">
      <stop stop-color="#DCDAD8" offset="0%"></stop>
      <stop stop-color="#E5E3DF" offset="100%"></stop>
    </linearGradient>
    <path
      d="M417.051266,282.679968 C421.392321,282.679968 424.915462,286.206896 424.915462,290.552591 L424.915462,329.915744 L291.632322,329.87377 L291.181386,295.717033 C291.1396,293.33426 292.25098,291.245379 293.928786,289.775837 C294.463486,289.072532 295.029719,288.379744 295.8161,287.886404 C336.815077,260.164242 361.267556,214.0831 361.267556,164.548421 C361.267556,82.4631404 294.578783,15.7033684 212.581023,15.7033684 C130.583263,15.7033684 63.8945298,82.4631404 63.8945298,164.548421 C63.8945298,212.97044 87.4872516,258.442761 127.018143,286.290882 C127.836018,286.857711 128.454676,287.602989 128.97895,288.379744 C131.893956,289.565891 133.980603,292.400032 133.938662,295.759026 L133.487785,329.915744 L0.246643025,329.915744 L0.246643025,290.552591 C0.246643025,286.206896 3.76982271,282.679968 8.11087718,282.679968 C12.4519317,282.679968 15.9751113,286.206896 15.9751113,290.552591 L15.9751113,314.170498 L117.969018,314.170498 L118.168254,299.285974 C118.084373,299.243981 118.042433,299.243981 117.969018,299.201988 C74.264833,268.404265 48.1660615,218.092889 48.1660615,164.590491 C48.1660615,73.8453158 121.93259,0 212.581023,0 C303.229553,0 376.995946,73.8453158 376.995946,164.590491 C376.995946,218.344809 350.865855,268.446239 306.993735,299.243981 L307.19299,314.170498 L409.186877,314.170498 L409.186877,290.552591 C409.186877,286.206896 412.710212,282.679968 417.051266,282.679968 Z"
      id="path-5"></path>
    <path
      d="M216.994438,144.166856 C234.542148,165.908919 239.984914,185.182353 232.317482,198.422997 C226.502613,208.483041 213.899015,213.799879 195.888116,213.799879 C185.853572,213.799879 174.393994,212.130444 162.115016,209.04084 C152.404898,242.789251 136.357419,264.483816 117.832167,264.483816 C99.3226122,264.483816 83.2592409,242.789251 73.5611391,209.04084 C61.2860567,212.130444 49.8264396,213.799879 39.7918375,213.799879 C21.7612288,213.799879 9.17739866,208.483041 3.36249118,198.422997 C-5.88437879,182.39734 4.86272111,157.672422 29.2466029,132.409656 C25.4267241,128.453601 21.9037323,124.49774 18.717202,120.557537 C1.18139214,98.8274596 -4.27726645,79.5579309 3.3783249,66.3172101 C9.19323238,56.2571467 21.7770626,50.940328 39.8076712,50.940328 C49.858107,50.940328 61.3018904,52.6098203 73.577031,55.6994249 C83.2869547,21.9509751 99.3383103,0.252408569 117.863756,0.252408569 C136.373311,0.252408569 152.436682,21.9509751 162.146606,55.6994249 C174.409886,52.6098203 185.865394,50.940328 195.904008,50.940328 C213.914907,50.940328 226.518505,56.2571467 232.333374,66.3172101 C239.984914,79.5579309 234.542148,98.8154739 216.994438,120.557537 C213.807927,124.481888 210.296796,128.437943 206.492829,132.3621 C210.296796,136.286451 213.823819,140.226654 216.994438,144.166856 Z M195.904008,60.7670569 C186.641382,60.7670569 176.016901,62.3137924 164.620696,65.1897809 C167.296536,76.4524742 169.307437,88.814759 170.526653,101.980279 C181.182723,109.524312 190.940129,117.420376 199.490335,125.470901 C203.060769,121.760167 206.35426,118.069344 209.338828,114.374461 C223.921737,96.2955768 229.210236,80.5626033 223.810882,71.2305746 C218.819288,62.5747714 205.875372,60.7670569 195.904008,60.7670569 Z M139.959637,170.624326 C147.318342,166.375588 154.399908,161.92522 161.157047,157.288687 C161.762682,149.329407 162.087302,141.017903 162.087302,132.346441 C162.087302,123.678846 161.762682,115.363282 161.157047,107.404003 C154.415799,102.799173 147.334234,98.3329528 139.975529,94.0842148 C132.612755,89.8513289 125.222461,85.9704747 117.863756,82.4654302 C110.501176,85.9704747 103.110688,89.8354769 95.7519836,94.0842148 C88.2349421,98.4278718 81.1849661,102.87824 74.5824815,107.376165 C73.9966147,115.331771 73.6561026,123.662994 73.6561026,132.346441 C73.6561026,141.017903 73.9807229,149.329407 74.5824815,157.288687 C81.3078373,161.893516 88.3894032,166.359736 95.7519836,170.608474 C103.110688,174.857212 110.501176,178.722215 117.863756,182.243072 C125.206569,178.738067 132.612755,174.857212 139.959637,170.624326 Z M159.92194,169.928189 C155.049148,173.096861 150.025965,176.170613 144.876035,179.137654 C139.757888,182.104599 134.607958,184.869836 129.446012,187.500562 C138.257465,191.270606 146.918526,194.423503 155.251091,196.955328 C157.182727,188.671526 158.762222,179.632161 159.92194,169.928189 Z M106.281501,187.512432 C101.115679,184.885649 95.9539264,182.104599 90.8355861,179.153506 C85.6858497,176.186465 80.6744887,173.096861 75.805573,169.943848 C76.9652909,179.648013 78.5409102,188.68734 80.4725459,196.971161 C88.8089869,194.435373 97.4659784,191.270606 106.281501,187.512432 Z M64.2707022,149.902981 C63.9738346,144.166856 63.8036173,138.327886 63.7917372,132.346441 C63.7917372,126.349144 63.9619544,120.47847 64.2707022,114.730359 C56.4290792,120.585181 49.3949563,126.475767 43.1802524,132.283033 C49.5493399,138.264478 56.6309639,144.166856 64.2707022,149.902981 Z M75.7896811,94.7962042 C80.6268131,91.6592367 85.6381741,88.5696321 90.8198881,85.5708868 C95.9539264,82.6196977 101.099787,79.8386283 106.265609,77.2120197 C97.4502803,73.453729 88.7930951,70.2889237 80.4607239,67.7690266 C78.5250183,76.0528864 76.9495928,85.092232 75.7896811,94.7962042 Z M129.446012,77.2120197 C134.592066,79.8386283 139.757888,82.6196977 144.891927,85.5708868 C150.041857,88.537928 155.049148,91.6275326 159.92194,94.7803521 C158.762222,85.07638 157.166835,76.0370343 155.251091,67.7531745 C146.918526,70.2889237 138.257465,73.453729 129.446012,77.2120197 Z M171.456908,114.821412 C171.749744,120.557537 171.919903,126.396507 171.919903,132.3621 C171.919903,138.327886 171.749744,144.166856 171.456908,149.902981 C179.064843,144.198367 186.114819,138.312034 192.468072,132.3621 C186.114819,126.412359 179.064843,120.541685 171.456908,114.821412 Z M117.863756,10.0988559 C104.967322,10.0988559 91.5443241,28.0076209 82.9189226,58.2786706 C94.1567901,61.665018 105.940989,66.1629426 117.863756,71.6301624 C129.782648,66.1629426 141.566847,61.665018 152.808784,58.2786706 C144.179313,28.0076209 130.744493,10.0988559 117.863756,10.0988559 Z M11.896844,71.2305746 C6.51735398,80.5626033 11.7899616,96.2955768 26.3688204,114.374461 C29.3534853,118.069344 32.6468786,121.776019 36.2371782,125.486753 C44.6646486,117.543133 54.3746499,109.631217 65.1811505,101.980279 C66.4201338,88.798907 68.4151818,76.4366222 71.0870485,65.1897809 C59.6908245,62.3137924 49.0703749,60.7670569 39.8076712,60.7670569 C29.8324503,60.7670569 16.8923713,62.5906235 11.896844,71.2305746 Z M39.8076712,203.957414 C49.0703749,203.957414 59.6908245,202.394807 71.1029404,199.550445 C68.4270426,188.28779 66.4201338,175.925293 65.1969842,162.759966 C54.5131998,155.200081 44.7398636,147.260327 36.1580097,139.194143 C14.2639746,161.798597 5.46440227,182.353824 11.896844,193.509671 C16.8923713,202.149525 29.8324503,203.957414 39.8076712,203.957414 Z M117.863756,254.625518 C130.744493,254.625518 144.163421,236.71683 152.808784,206.445723 C141.566847,203.075227 129.782648,198.577283 117.863756,193.106178 C105.940989,198.577283 94.1567901,203.075227 82.9189226,206.457592 C91.5443241,236.71683 104.98302,254.625518 117.863756,254.625518 Z M223.810882,193.493857 C229.210236,184.161713 223.937629,168.428817 209.338828,150.349932 C206.35426,146.655049 203.060769,142.948374 199.490335,139.253492 C190.940129,147.288165 181.182723,155.200081 170.526653,162.744114 C169.291545,175.909634 167.296536,188.271977 164.620696,199.534632 C176.016901,202.41062 186.641382,203.957414 195.904008,203.957414 C205.875372,203.957414 218.819288,202.133712 223.810882,193.493857 Z"
      id="path-7"></path>
    <path
      d="M37.3648077,0.250688976 C57.8330769,0.250688976 74.4794231,16.8957431 74.4794231,37.3621063 C74.4794231,57.8443996 57.8330769,74.4894537 37.3648077,74.4894537 C16.8967308,74.4894537 0.250384615,57.8286614 0.250384615,37.3621063 C0.250384615,16.8957431 16.8967308,0.250688976 37.3648077,0.250688976 Z M37.3648077,64.7175738 C52.4478846,64.7175738 64.7067308,52.4440896 64.7225,37.3621063 C64.7225,22.280315 52.4478846,10.0068307 37.3648077,10.0068307 C22.2817308,10.0068307 10.0071154,22.280315 10.0071154,37.3621063 C10.0071154,52.4440896 22.2817308,64.7175738 37.3648077,64.7175738 Z"
      id="path-9"></path>
  </defs>
  <g id="Page-1" stroke="none" stroke-width="1" fill="none" fill-rule="evenodd">
    <g id="Group" transform="translate(1.000000, 0.000000)">
      <path
        d="M556,1153.89081 L556,1321.65908 C560.309316,1327.21969 565.151072,1330 570.52527,1330 C575.899468,1330 582.327296,1327.21969 589.808753,1321.65908 L1793,589 L1462.29729,589 L556,1153.89081 Z"
        id="Path-4" stroke="#979797" fill="url(#linearGradient-1)"></path>
      <polygon id="Path" fill="url(#linearGradient-2)" points="0 399.489777 1975 413 1958.45526 47 34.6592795 47">
      </polygon>
      <polygon id="Path-2" stroke="#979797" fill="#2E2E30"
        points="0 395 12.1980823 585.053315 1975 597 1975 410.440789"></polygon>
      <path
        d="M1437.56313,62.4080059 C1491.68482,24.1542846 1571.14894,0 1659.72154,0 C1822.79933,0 1955,81.8813525 1955,182.88712 C1955,243.302287 1947.4912,287.571692 1906.55867,313.395533 L1906.94359,313.627516 L560.908818,1153.77056 L560.908818,1320.39602 C564.593758,1323.88689 568.439258,1325.63232 572.445319,1325.63232 C576.45138,1325.63232 580.783261,1323.88689 585.440964,1320.39602 L1777.39014,596.246316 L1803.00622,596.246316 L585.440964,1357.3113 C578.618794,1360.89623 570.441412,1360.89623 560.908818,1357.3113 C551.376224,1353.72637 538.687076,1345.87908 522.841375,1333.76943 L142.417083,1049.11875 L125,868.721362 C126.416825,856.980151 132.222519,844.814642 142.417083,832.224834 C152.611646,819.635026 165.6374,808.54458 181.494346,798.953494 L1437.56313,62.4080059 Z"
        id="Combined-Shape" fill="#D8D8D8"></path>
      <polygon id="Path-5" fill="#5F577A" points="292 147 292 313 968.032362 313 1119 313 1119 147"></polygon>
      <polygon id="Path-5" fill="url(#linearGradient-3)" points="292 147 292 183 968.032362 183 1119 183 1119 147">
      </polygon>
      <path
        d="M1437.5927,62.4204167 C1491.7113,24.159088 1571.17088,0 1659.73842,0 C1822.80689,0 1955,81.8976358 1955,182.923489 C1955,243.350671 1947.49163,287.62888 1906.56144,313.457856 L1906.94633,313.689886 L560.988501,1154 C271.815977,952.185868 132.326705,844.982646 142.520686,832.390334 C152.714666,819.798023 165.739676,808.705371 181.595715,799.112378 L1437.5927,62.4204167 Z"
        id="Combined-Shape" fill="url(#linearGradient-4)"></path>
      <ellipse id="Oval" stroke="#979797" fill="#121011" cx="1654" cy="187" rx="170" ry="112"></ellipse>
      <ellipse id="Oval" fill="#5C585C" cx="1654.5" cy="185" rx="154.5" ry="101"></ellipse>
      <ellipse id="Oval" fill="#0F0B0F" cx="1652.5" cy="186" rx="135.5" ry="85"></ellipse>
    </g>
  </g>
</svg>
