<svg width="44" height="47" viewBox="0 0 44 47" fill="none" xmlns="http://www.w3.org/2000/svg">
  <path d="M28.1532 18.8437H33.0782L30.6157 9H13.3845L15.847 18.8437H20.7658L23.2283 28.6937H20.1533L21.3845 33.6124H24.4595L25.6907 38.5374H33.0782L28.1532 18.8437Z" fill="url(#paint0_linear_9484_60993)"/>
  <path d="M30.6158 21.3062H28.7658L28.1533 18.8438H33.0783L30.6158 21.3062Z" fill="url(#paint1_linear_9484_60993)"/>
  <path d="M28.1531 13.925H17.0781L16.7656 12.6938H29.0781L28.1531 13.925Z" fill="url(#paint2_linear_9484_60993)"/>
  <path d="M13.3844 21.3062L10.9219 11.4625L13.3844 9L15.8469 18.8437L13.3844 21.3062Z" fill="url(#paint3_linear_9484_60993)"/>
  <path d="M24.4594 33.6124H21.3844L18.9219 36.0749H21.9969L24.4594 33.6124Z" fill="url(#paint4_linear_9484_60993)"/>
  <path d="M18.3095 21.3062H13.3845L15.847 18.8438H20.7658L18.3095 21.3062Z" fill="url(#paint5_linear_9484_60993)"/>
  <path d="M23.2283 28.6937H20.1533L18.3096 21.3062L20.7658 18.8438L23.2283 28.6937Z" fill="url(#paint6_linear_9484_60993)"/>
  <path d="M21.3842 33.6124L20.1529 28.6937L17.6904 31.1562L18.9217 36.0749L21.3842 33.6124Z" fill="url(#paint7_linear_9484_60993)"/>
  <path d="M25.6908 38.5374L24.4596 33.6124L21.9971 36.0749L23.2283 40.9999L25.6908 38.5374Z" fill="url(#paint8_linear_9484_60993)"/>
  <path d="M30.6158 38.5375L25.0783 16.3876L24.0908 17.3688L29.3846 38.5375L28.3971 39.525H29.6283L30.6158 38.5375Z" fill="url(#paint9_linear_9484_60993)"/>
  <path d="M29.9971 16.3875H28.7658L28.1533 13.925L29.0783 12.6938L29.9971 16.3875Z" fill="url(#paint10_linear_9484_60993)"/>
  <path d="M30.6158 38.5374L29.6283 39.5249H28.397L29.3845 38.5374H25.6908L23.2283 40.9999H30.6158L33.0783 38.5374H30.6158Z" fill="url(#paint11_linear_9484_60993)"/>
  <g filter="url(#filter0_d_9484_60993)">
    <path fill-rule="evenodd" clip-rule="evenodd" d="M19.9895 6.38137C19.9895 6.38137 18.224 4.81306 16.2181 4.29579C13.006 3.4698 9.23684 4.74805 7.5746 8.01174C5.18238 12.709 6.68516 15.7957 9.15102 19.7473C9.66584 20.5728 9.36365 23.4219 9.36365 23.4219L10.6926 22.4396C10.6926 22.4396 10.5145 18.7997 11.0294 16.3185C11.5443 13.8373 19.9907 6.38018 19.9907 6.38018L19.9895 6.38137Z" fill="#D92E2F"/>
    <path opacity="0.2" fill-rule="evenodd" clip-rule="evenodd" d="M9.21363 16.1667C8.90509 15.3525 8.198 13.3854 8.198 13.3854C8.198 13.3854 8.42006 13.8904 8.69916 14.5006C8.97946 15.1119 9.83848 16.1565 9.83848 16.1565C9.83848 16.1565 10.3629 15.6417 10.9576 16.4661L10.7169 19.1143C10.0934 18.3613 9.69186 17.4356 9.21125 16.1666L9.21363 16.1667Z" fill="#181714"/>
    <path d="M11.1554 23.6675C10.5715 24.2486 9.63458 24.254 9.06268 23.6794C8.49079 23.1048 8.5005 22.1679 9.08439 21.5867C9.66827 21.0056 10.6052 21.0002 11.1771 21.5748C11.749 22.1494 11.7393 23.0863 11.1554 23.6675Z" fill="white"/>
    <path fill-rule="evenodd" clip-rule="evenodd" d="M20.1946 5.77024C20.1946 5.77024 22.1629 7.95323 22.2983 8.22549C22.4337 8.49774 22.6367 9.04326 21.6846 9.31242C18.6209 10.1789 15.1374 12.3749 13.9547 15.5136C13.3401 17.1443 13.0989 18.6055 12.7587 18.8084C12.4185 19.0114 10.8886 18.3607 10.4486 17.7132C7.00574 12.6606 18.3375 4.05977 20.1946 5.77024Z" fill="white"/>
    <path opacity="0.2" fill-rule="evenodd" clip-rule="evenodd" d="M12.4932 17.9587C13.0214 17.3616 13.4822 15.1128 14.7875 13.3589C16.0916 11.6038 18.718 9.94428 19.5613 9.76902C20.3009 9.61612 21.8577 9.22348 22.3933 8.47379C22.4632 8.75421 22.3969 9.11055 21.6835 9.31123C18.6198 10.1777 15.1363 12.3738 13.9536 15.5124C13.3389 17.1431 13.0978 18.6043 12.7576 18.8073C12.557 18.9259 11.9433 18.7489 11.3834 18.4516C11.3834 18.4516 11.9651 18.5558 12.4944 17.9599L12.4932 17.9587Z" fill="#181714"/>
  </g>
  <defs>
    <filter id="filter0_d_9484_60993" x="1.02788" y="0.336426" width="24.9655" height="25.6539" filterUnits="userSpaceOnUse" color-interpolation-filters="sRGB">
      <feFlood flood-opacity="0" result="BackgroundImageFix"/>
      <feColorMatrix in="SourceAlpha" type="matrix" values="0 0 0 0 0 0 0 0 0 0 0 0 0 0 0 0 0 0 127 0" result="hardAlpha"/>
      <feOffset dy="1"/>
      <feGaussianBlur stdDeviation="0.15"/>
      <feComposite in2="hardAlpha" operator="out"/>
      <feColorMatrix type="matrix" values="0 0 0 0 0 0 0 0 0 0 0 0 0 0 0 0 0 0 0.25 0"/>
      <feBlend mode="normal" in2="BackgroundImageFix" result="effect1_dropShadow_9484_60993"/>
      <feBlend mode="normal" in="SourceGraphic" in2="effect1_dropShadow_9484_60993" result="shape"/>
    </filter>
    <linearGradient id="paint0_linear_9484_60993" x1="13.3836" y1="23.7692" x2="33.0758" y2="23.7692" gradientUnits="userSpaceOnUse">
      <stop offset="0.00188079" stop-color="#FCC33C"/>
      <stop offset="1" stop-color="#FFEE50"/>
    </linearGradient>
    <linearGradient id="paint1_linear_9484_60993" x1="33.0759" y1="20.0769" x2="28.1528" y2="20.0769" gradientUnits="userSpaceOnUse">
      <stop stop-color="#FB9828"/>
      <stop offset="1" stop-color="#F96C13"/>
    </linearGradient>
    <linearGradient id="paint2_linear_9484_60993" x1="29.0772" y1="13.3077" x2="16.768" y2="13.3077" gradientUnits="userSpaceOnUse">
      <stop stop-color="#F84200"/>
      <stop offset="1" stop-color="#F96C13"/>
    </linearGradient>
    <linearGradient id="paint3_linear_9484_60993" x1="11.9389" y1="9.36016" x2="14.8279" y2="20.9475" gradientUnits="userSpaceOnUse">
      <stop stop-color="#F96C13"/>
      <stop offset="1" stop-color="#FB9828"/>
    </linearGradient>
    <linearGradient id="paint4_linear_9484_60993" x1="18.9219" y1="34.8461" x2="24.4603" y2="34.8461" gradientUnits="userSpaceOnUse">
      <stop stop-color="#F84200"/>
      <stop offset="1" stop-color="#F96C13"/>
    </linearGradient>
    <linearGradient id="paint5_linear_9484_60993" x1="13.3836" y1="20.0769" x2="20.7682" y2="20.0769" gradientUnits="userSpaceOnUse">
      <stop stop-color="#F84200"/>
      <stop offset="1" stop-color="#F96C13"/>
    </linearGradient>
    <linearGradient id="paint6_linear_9484_60993" x1="21.779" y1="29.054" x2="19.3237" y2="19.2063" gradientUnits="userSpaceOnUse">
      <stop stop-color="#F96C13"/>
      <stop offset="1" stop-color="#FB9828"/>
    </linearGradient>
    <linearGradient id="paint7_linear_9484_60993" x1="20.3678" y1="35.7163" x2="18.7064" y2="29.0528" gradientUnits="userSpaceOnUse">
      <stop stop-color="#FB9828"/>
      <stop offset="1" stop-color="#F96C13"/>
    </linearGradient>
    <linearGradient id="paint8_linear_9484_60993" x1="24.6758" y1="40.6393" x2="23.0144" y2="33.9759" gradientUnits="userSpaceOnUse">
      <stop stop-color="#F96C13"/>
      <stop offset="1" stop-color="#FB9828"/>
    </linearGradient>
    <linearGradient id="paint9_linear_9484_60993" x1="29.6294" y1="39.5228" x2="23.9315" y2="16.67" gradientUnits="userSpaceOnUse">
      <stop stop-color="#F96C13"/>
      <stop offset="1" stop-color="#F84200"/>
    </linearGradient>
    <linearGradient id="paint10_linear_9484_60993" x1="29.5124" y1="16.9046" x2="28.5918" y2="13.2121" gradientUnits="userSpaceOnUse">
      <stop stop-color="#F84200"/>
      <stop offset="1" stop-color="#F96C13"/>
    </linearGradient>
    <linearGradient id="paint11_linear_9484_60993" x1="24.2622" y1="39.7692" x2="31.6168" y2="39.7692" gradientUnits="userSpaceOnUse">
      <stop stop-color="#F84200"/>
      <stop offset="1" stop-color="#F96C13"/>
    </linearGradient>
  </defs>
</svg>
