<svg width="154" height="64" viewBox="0 0 154 64" fill="none" xmlns="http://www.w3.org/2000/svg">
  <g clip-path="url(#clip0_9484_61746)">
    <path d="M51.0469 27.5234V24.3125H66.1953V27.5234H60.5469V42.75H56.6953V27.5234H51.0469Z" fill="white"/>
    <path d="M72.4687 43.0157C71.0469 43.0157 69.8203 42.7267 68.7969 42.1485C67.7734 41.5704 66.9844 40.7501 66.4297 39.6798C65.875 38.6173 65.6016 37.3517 65.6016 35.8907C65.6016 34.4688 65.875 33.2188 66.4297 32.1485C66.9844 31.0704 67.7578 30.2345 68.7656 29.6329C69.7734 29.0313 70.9531 28.7345 72.3125 28.7345C73.2266 28.7345 74.0781 28.8829 74.8672 29.172C75.6562 29.461 76.3437 29.8985 76.9375 30.4845C77.5312 31.0704 77.9922 31.797 78.3203 32.6798C78.6484 33.5626 78.8125 34.586 78.8125 35.7657V36.8204H67.1406V34.4454H75.2109C75.2109 33.8907 75.0937 33.4063 74.8516 32.9767C74.6094 32.547 74.2812 32.2188 73.8594 31.9688C73.4375 31.7267 72.9453 31.6017 72.3906 31.6017C71.8047 31.6017 71.2969 31.7345 70.8438 32.0001C70.3984 32.2657 70.0469 32.6251 69.7969 33.0704C69.5469 33.5157 69.4141 34.0157 69.4062 34.5626V36.8204C69.4062 37.5079 69.5313 38.0938 69.7891 38.5938C70.0469 39.0938 70.4062 39.4767 70.875 39.7501C71.3437 40.0235 71.8984 40.1563 72.5391 40.1563C72.9688 40.1563 73.3516 40.0938 73.7109 39.9767C74.0625 39.8595 74.3672 39.6798 74.6172 39.4376C74.8672 39.1954 75.0625 38.9063 75.1953 38.5548L78.7422 38.7892C78.5625 39.6407 78.1953 40.3829 77.6406 41.0157C77.0859 41.6485 76.3672 42.1407 75.5 42.4923C74.6172 42.8438 73.6094 43.0157 72.4687 43.0157Z" fill="white"/>
    <path d="M81.3203 42.7501V28.922H84.9766V31.3595H85.1406C85.4297 30.547 85.9062 29.9063 86.5781 29.4454C87.25 28.9767 88.0547 28.7423 88.9922 28.7423C89.9375 28.7423 90.75 28.9767 91.4141 29.4454C92.0781 29.9142 92.5234 30.5548 92.75 31.3595H92.8906C93.1719 30.5704 93.6875 29.9298 94.4297 29.4532C95.1719 28.9767 96.0469 28.7345 97.0625 28.7345C98.3515 28.7345 99.3984 29.1407 100.211 29.961C101.016 30.7813 101.422 31.9376 101.422 33.4376V42.7423H97.5937V34.2032C97.5937 33.4376 97.3906 32.8595 96.9844 32.4767C96.5781 32.0938 96.0625 31.8985 95.4531 31.8985C94.7578 31.8985 94.2109 32.1173 93.8203 32.5626C93.4297 33.0001 93.2344 33.586 93.2344 34.3048V42.7501H89.5156V34.1251C89.5156 33.4454 89.3203 32.9063 88.9375 32.5079C88.5469 32.1095 88.0391 31.9063 87.4141 31.9063C86.9844 31.9063 86.6016 32.0157 86.2656 32.2267C85.9297 32.4376 85.6562 32.7345 85.4609 33.1173C85.2656 33.5001 85.1641 33.9454 85.1641 34.4532V42.7579H81.3203V42.7501Z" fill="white"/>
    <path d="M104.445 47.9376V28.9142H108.227V31.2345H108.398C108.57 30.8595 108.812 30.4845 109.133 30.0938C109.453 29.7032 109.875 29.3829 110.391 29.1251C110.906 28.8673 111.555 28.7345 112.328 28.7345C113.336 28.7345 114.266 29.0001 115.117 29.5235C115.969 30.047 116.648 30.836 117.164 31.8907C117.672 32.9454 117.93 34.2657 117.93 35.8517C117.93 37.3907 117.68 38.6954 117.187 39.7579C116.695 40.8204 116.023 41.6173 115.172 42.1642C114.32 42.711 113.375 42.9767 112.32 42.9767C111.578 42.9767 110.945 42.8517 110.422 42.6095C109.906 42.3673 109.477 42.0548 109.148 41.6798C108.82 41.3048 108.562 40.922 108.391 40.5392H108.273V47.9376H104.445ZM108.195 35.836C108.195 36.6563 108.312 37.3751 108.539 37.9845C108.766 38.5938 109.094 39.0704 109.531 39.4142C109.961 39.7501 110.492 39.922 111.109 39.922C111.734 39.922 112.266 39.7501 112.695 39.4063C113.125 39.0626 113.453 38.5782 113.68 37.9688C113.906 37.3517 114.016 36.6407 114.016 35.836C114.016 35.0392 113.906 34.336 113.68 33.7267C113.461 33.1173 113.133 32.6485 112.695 32.3048C112.266 31.961 111.734 31.7892 111.102 31.7892C110.477 31.7892 109.953 31.9532 109.523 32.2813C109.094 32.6095 108.766 33.0782 108.539 33.6876C108.312 34.297 108.195 35.0079 108.195 35.836Z" fill="white"/>
    <path d="M124.32 24.3047V42.7422H120.484V24.3047H124.32Z" fill="white"/>
    <path d="M133.68 43.0157C132.258 43.0157 131.031 42.7267 130.008 42.1485C128.984 41.5704 128.195 40.7501 127.641 39.6798C127.086 38.6173 126.812 37.3517 126.812 35.8907C126.812 34.4688 127.086 33.2188 127.641 32.1485C128.195 31.0704 128.969 30.2345 129.977 29.6329C130.984 29.0313 132.164 28.7345 133.523 28.7345C134.438 28.7345 135.289 28.8829 136.078 29.172C136.867 29.461 137.555 29.8985 138.148 30.4845C138.742 31.0704 139.203 31.797 139.531 32.6798C139.859 33.5626 140.023 34.586 140.023 35.7657V36.8204H128.344V34.4454H136.414C136.414 33.8907 136.297 33.4063 136.055 32.9767C135.813 32.547 135.484 32.2188 135.062 31.9688C134.641 31.7267 134.148 31.6017 133.594 31.6017C133.008 31.6017 132.5 31.7345 132.047 32.0001C131.602 32.2657 131.25 32.6251 131 33.0704C130.75 33.5157 130.617 34.0157 130.609 34.5626V36.8204C130.609 37.5079 130.734 38.0938 130.992 38.5938C131.25 39.0938 131.609 39.4767 132.078 39.7501C132.547 40.0235 133.102 40.1563 133.742 40.1563C134.172 40.1563 134.555 40.0938 134.914 39.9767C135.266 39.8595 135.57 39.6798 135.82 39.4376C136.07 39.1954 136.266 38.9063 136.398 38.5548L139.945 38.7892C139.766 39.6407 139.398 40.3829 138.844 41.0157C138.289 41.6485 137.57 42.1407 136.703 42.4923C135.828 42.8438 134.82 43.0157 133.68 43.0157Z" fill="white"/>
    <path d="M35.4141 24.3047H41.5703L38.4922 12H16.9531L20.0313 24.3047H26.1797L29.2578 36.6172H25.4141L26.9531 42.7656H30.7969L32.3359 48.9219H41.5703L35.4141 24.3047Z" fill="url(#paint0_linear_9484_61746)"/>
    <path d="M38.4922 27.3828H36.1797L35.4141 24.3047H41.5703L38.4922 27.3828Z" fill="url(#paint1_linear_9484_61746)"/>
    <path d="M35.4141 18.1562H21.5703L21.1797 16.6172H36.5703L35.4141 18.1562Z" fill="url(#paint2_linear_9484_61746)"/>
    <path d="M16.9531 27.3828L13.875 15.0781L16.9531 12L20.0312 24.3047L16.9531 27.3828Z" fill="url(#paint3_linear_9484_61746)"/>
    <path d="M30.7969 42.7657H26.9531L23.875 45.8438H27.7187L30.7969 42.7657Z" fill="url(#paint4_linear_9484_61746)"/>
    <path d="M23.1094 27.3828H16.9531L20.0312 24.3047H26.1797L23.1094 27.3828Z" fill="url(#paint5_linear_9484_61746)"/>
    <path d="M29.2578 36.6172H25.4141L23.1094 27.3828L26.1797 24.3047L29.2578 36.6172Z" fill="url(#paint6_linear_9484_61746)"/>
    <path d="M26.9531 42.7656L25.4141 36.6172L22.3359 39.6953L23.875 45.8437L26.9531 42.7656Z" fill="url(#paint7_linear_9484_61746)"/>
    <path d="M32.3359 48.9219L30.7969 42.7657L27.7188 45.8438L29.2578 52.0001L32.3359 48.9219Z" fill="url(#paint8_linear_9484_61746)"/>
    <path d="M38.4922 48.922L31.5703 21.2345L30.3359 22.461L36.9531 48.922L35.7187 50.1563H37.2578L38.4922 48.922Z" fill="url(#paint9_linear_9484_61746)"/>
    <path d="M37.7188 21.2343H36.1797L35.4141 18.1562L36.5703 16.6172L37.7188 21.2343Z" fill="url(#paint10_linear_9484_61746)"/>
    <path d="M38.4922 48.9218L37.2578 50.1562H35.7188L36.9531 48.9218H32.3359L29.2578 52H38.4922L41.5703 48.9218H38.4922Z" fill="url(#paint11_linear_9484_61746)"/>
  </g>
  <g filter="url(#filter0_d_9484_61746)">
    <path fill-rule="evenodd" clip-rule="evenodd" d="M24.7785 8.37846C24.7785 8.37846 22.6235 6.46418 20.1751 5.83279C16.2544 4.8246 11.6538 6.38483 9.62484 10.3685C6.70488 16.102 8.53918 19.8696 11.549 24.6929C12.1774 25.7005 11.8086 29.1781 11.8086 29.1781L13.4307 27.9791C13.4307 27.9791 13.2133 23.5362 13.8417 20.5077C14.4702 17.4792 24.7799 8.37701 24.7799 8.37701L24.7785 8.37846Z" fill="#D92E2F"/>
    <path opacity="0.2" fill-rule="evenodd" clip-rule="evenodd" d="M11.6254 20.3224C11.2488 19.3287 10.3857 16.9276 10.3857 16.9276C10.3857 16.9276 10.6568 17.544 10.9975 18.2887C11.3396 19.0349 12.3881 20.31 12.3881 20.31C12.3881 20.31 13.0282 19.6816 13.7541 20.6879L13.4603 23.9203C12.6993 23.0012 12.2092 21.8712 11.6225 20.3224L11.6254 20.3224Z" fill="#181714"/>
    <path d="M13.9957 29.4779C13.2831 30.1873 12.1394 30.1938 11.4414 29.4924C10.7433 28.7911 10.7552 27.6475 11.4679 26.9382C12.1806 26.2288 13.3242 26.2223 14.0222 26.9236C14.7203 27.625 14.7084 28.7685 13.9957 29.4779Z" fill="white"/>
    <path fill-rule="evenodd" clip-rule="evenodd" d="M25.0287 7.63253C25.0287 7.63253 27.4312 10.2971 27.5965 10.6294C27.7618 10.9617 28.0095 11.6276 26.8474 11.9561C23.1079 13.0138 18.8559 15.6942 17.4124 19.5253C16.6621 21.5157 16.3677 23.2993 15.9525 23.547C15.5372 23.7947 13.6698 23.0005 13.1327 22.2101C8.93041 16.0429 22.762 5.54473 25.0287 7.63253Z" fill="white"/>
    <path opacity="0.2" fill-rule="evenodd" clip-rule="evenodd" d="M15.6284 22.5098C16.273 21.781 16.8355 19.0361 18.4288 16.8953C20.0206 14.753 23.2263 12.7274 24.2557 12.5135C25.1585 12.3268 27.0587 11.8476 27.7125 10.9325C27.7977 11.2748 27.7169 11.7097 26.846 11.9547C23.1065 13.0123 18.8545 15.6928 17.411 19.5238C16.6607 21.5143 16.3663 23.2978 15.951 23.5455C15.7063 23.6904 14.9571 23.4743 14.2737 23.1114C14.2737 23.1114 14.9837 23.2386 15.6298 22.5112L15.6284 22.5098Z" fill="#181714"/>
  </g>
  <defs>
    <filter id="filter0_d_9484_61746" x="1.7" y="1" width="30.3407" height="31.0265" filterUnits="userSpaceOnUse" color-interpolation-filters="sRGB">
      <feFlood flood-opacity="0" result="BackgroundImageFix"/>
      <feColorMatrix in="SourceAlpha" type="matrix" values="0 0 0 0 0 0 0 0 0 0 0 0 0 0 0 0 0 0 127 0" result="hardAlpha"/>
      <feOffset dy="1"/>
      <feGaussianBlur stdDeviation="0.15"/>
      <feComposite in2="hardAlpha" operator="out"/>
      <feColorMatrix type="matrix" values="0 0 0 0 0 0 0 0 0 0 0 0 0 0 0 0 0 0 0.25 0"/>
      <feBlend mode="normal" in2="BackgroundImageFix" result="effect1_dropShadow_9484_61746"/>
      <feBlend mode="normal" in="SourceGraphic" in2="effect1_dropShadow_9484_61746" result="shape"/>
    </filter>
    <linearGradient id="paint0_linear_9484_61746" x1="16.9519" y1="30.4615" x2="41.5673" y2="30.4615" gradientUnits="userSpaceOnUse">
      <stop offset="0.00188079" stop-color="#FCC33C"/>
      <stop offset="1" stop-color="#FFEE50"/>
    </linearGradient>
    <linearGradient id="paint1_linear_9484_61746" x1="41.5673" y1="25.8462" x2="35.4135" y2="25.8462" gradientUnits="userSpaceOnUse">
      <stop stop-color="#FB9828"/>
      <stop offset="1" stop-color="#F96C13"/>
    </linearGradient>
    <linearGradient id="paint2_linear_9484_61746" x1="36.5692" y1="17.3846" x2="21.1827" y2="17.3846" gradientUnits="userSpaceOnUse">
      <stop stop-color="#F84200"/>
      <stop offset="1" stop-color="#F96C13"/>
    </linearGradient>
    <linearGradient id="paint3_linear_9484_61746" x1="15.1463" y1="12.4502" x2="18.7576" y2="26.9344" gradientUnits="userSpaceOnUse">
      <stop stop-color="#F96C13"/>
      <stop offset="1" stop-color="#FB9828"/>
    </linearGradient>
    <linearGradient id="paint4_linear_9484_61746" x1="23.875" y1="44.3077" x2="30.7981" y2="44.3077" gradientUnits="userSpaceOnUse">
      <stop stop-color="#F84200"/>
      <stop offset="1" stop-color="#F96C13"/>
    </linearGradient>
    <linearGradient id="paint5_linear_9484_61746" x1="16.9519" y1="25.8462" x2="26.1827" y2="25.8462" gradientUnits="userSpaceOnUse">
      <stop stop-color="#F84200"/>
      <stop offset="1" stop-color="#F96C13"/>
    </linearGradient>
    <linearGradient id="paint6_linear_9484_61746" x1="27.4462" y1="37.0675" x2="24.377" y2="24.7579" gradientUnits="userSpaceOnUse">
      <stop stop-color="#F96C13"/>
      <stop offset="1" stop-color="#FB9828"/>
    </linearGradient>
    <linearGradient id="paint7_linear_9484_61746" x1="25.6826" y1="45.3954" x2="23.6059" y2="37.066" gradientUnits="userSpaceOnUse">
      <stop stop-color="#FB9828"/>
      <stop offset="1" stop-color="#F96C13"/>
    </linearGradient>
    <linearGradient id="paint8_linear_9484_61746" x1="31.0672" y1="51.5494" x2="28.9905" y2="43.22" gradientUnits="userSpaceOnUse">
      <stop stop-color="#F96C13"/>
      <stop offset="1" stop-color="#FB9828"/>
    </linearGradient>
    <linearGradient id="paint9_linear_9484_61746" x1="37.2591" y1="50.1535" x2="30.1368" y2="21.5875" gradientUnits="userSpaceOnUse">
      <stop stop-color="#F96C13"/>
      <stop offset="1" stop-color="#F84200"/>
    </linearGradient>
    <linearGradient id="paint10_linear_9484_61746" x1="37.1129" y1="21.8807" x2="35.9621" y2="17.265" gradientUnits="userSpaceOnUse">
      <stop stop-color="#F84200"/>
      <stop offset="1" stop-color="#F96C13"/>
    </linearGradient>
    <linearGradient id="paint11_linear_9484_61746" x1="30.5502" y1="50.4615" x2="39.7435" y2="50.4615" gradientUnits="userSpaceOnUse">
      <stop stop-color="#F84200"/>
      <stop offset="1" stop-color="#F96C13"/>
    </linearGradient>
    <clipPath id="clip0_9484_61746">
      <rect width="126.172" height="40" fill="white" transform="translate(13.875 12)"/>
    </clipPath>
  </defs>
</svg>
