<?xml version="1.0" encoding="utf-8"?>
<!-- Generator: Adobe Illustrator 24.0.3, SVG Export Plug-In . SVG Version: 6.00 Build 0)  -->
<svg version="1.1" fill="#4A5568" xmlns="http://www.w3.org/2000/svg" xmlns:xlink="http://www.w3.org/1999/xlink" x="0px" y="0px"
	 viewBox="0 0 1615 512" style="enable-background:new 0 0 1615 512;" xml:space="preserve">
<style type="text/css">
	.st0{fill:#EB8736;}
	.st1{fill:none;stroke:#1B3EB9;stroke-miterlimit:10;}
	.st2{opacity:0.1;}
	.st3{fill:#1B3EB9;}
	.st4{fill:none;stroke:#000000;stroke-width:5.000000e-02;stroke-miterlimit:10;}
	.st5{fill:none;stroke:#D50000;stroke-width:0.25;stroke-linecap:round;stroke-linejoin:round;stroke-miterlimit:10;}
	.st6{fill:#ED8936;}
	.st7{fill:#FFFFFF;}
	.st8{opacity:0.2;fill:#FFFFFF;}
	.st9{fill:#C19DCF;}
	.st11{opacity:0.6;}
	.st12{fill:#375961;}
	.st13{fill:none;stroke:#000000;stroke-width:0.25;stroke-linecap:round;stroke-linejoin:round;stroke-miterlimit:10;}
	.st14{opacity:0.5;}
	.st15{fill:#667EE8;}
	.st16{fill:#F4AB55;}
	.st17{fill:#F4C70E;}
	.st18{fill:#3180CC;}
	.st19{fill:#9D7AE8;}
	.st20{fill:#FB9828;}
	.st21{fill:#FFEE50;}
	.st22{fill:#FCC33C;}
	.st23{fill:#F96C13;}
	.st24{fill:#F84200;}
	.st25{fill:url(#SVGID_1_);}
	.st26{fill:url(#SVGID_2_);}
	.st27{fill:url(#SVGID_3_);}
	.st28{fill:url(#SVGID_4_);}
	.st29{fill:url(#SVGID_5_);}
	.st30{fill:url(#SVGID_6_);}
	.st31{fill:url(#SVGID_7_);}
	.st32{fill:url(#SVGID_8_);}
	.st33{fill:url(#SVGID_9_);}
	.st34{fill:url(#SVGID_10_);}
	.st35{fill:url(#SVGID_11_);}
	.st36{fill:url(#SVGID_12_);}
	.st37{fill:url(#SVGID_13_);}
	.st38{fill:url(#SVGID_14_);}
	.st39{fill:url(#SVGID_15_);}
	.st40{fill:url(#SVGID_16_);}
	.st41{fill:url(#SVGID_17_);}
	.st42{fill:url(#SVGID_18_);}
	.st43{fill:url(#SVGID_19_);}
	.st44{fill:url(#SVGID_20_);}
	.st45{fill:url(#SVGID_21_);}
	.st46{fill:url(#SVGID_22_);}
	.st47{fill:url(#SVGID_23_);}
	.st48{fill:url(#SVGID_24_);}
	.st49{fill:url(#SVGID_25_);}
	.st50{fill:url(#SVGID_26_);}
	.st51{fill:url(#SVGID_27_);}
	.st52{fill:url(#SVGID_28_);}
	.st53{fill:url(#SVGID_29_);}
	.st54{fill:url(#SVGID_30_);}
	.st55{fill:url(#SVGID_31_);}
	.st56{fill:url(#SVGID_32_);}
	.st57{fill:url(#SVGID_33_);}
	.st58{fill:url(#SVGID_34_);}
	.st59{fill:url(#SVGID_35_);}
	.st60{fill:url(#SVGID_36_);}
	.st61{fill:#F36565;}
	.st62{fill:#9EACBE;}
	.st63{fill:#F5F8FA;}
	.st64{fill:#81B100;}
	.st65{fill:url(#SVGID_37_);}
	.st66{fill:url(#SVGID_38_);}
	.st67{fill:url(#SVGID_39_);}
	.st68{fill:url(#SVGID_40_);}
	.st69{fill:url(#SVGID_41_);}
	.st70{fill:url(#SVGID_42_);}
	.st71{fill:url(#SVGID_43_);}
	.st72{fill:url(#SVGID_44_);}
	.st73{fill:url(#SVGID_45_);}
	.st74{fill:url(#SVGID_46_);}
	.st75{fill:url(#SVGID_47_);}
	.st76{fill:url(#SVGID_48_);}
	.st77{fill:#231F20;}
	.st78{fill:#C15961;}
	.st79{fill:#C17F61;}
	.st80{fill:#C19D61;}
	.st81{fill:#C19D9D;}
	.st82{fill:none;stroke:#000000;stroke-width:0.25;stroke-miterlimit:10;}
	.st83{fill:none;stroke:#375961;stroke-width:0.25;stroke-miterlimit:10;}
	.st84{fill:none;stroke:#4A5568;stroke-width:0.25;stroke-miterlimit:10;}
	.st85{fill:none;stroke:#000000;stroke-miterlimit:10;}
	.st86{fill:none;}
	.st87{opacity:0.3;}
	.st88{fill:url(#SVGID_49_);}
	.st89{fill:url(#SVGID_50_);}
	.st90{fill:url(#SVGID_51_);}
	.st91{fill:url(#SVGID_52_);}
	.st92{fill:url(#SVGID_53_);}
	.st93{fill:url(#SVGID_54_);}
	.st94{fill:url(#SVGID_55_);}
	.st95{fill:url(#SVGID_56_);}
	.st96{fill:url(#SVGID_57_);}
	.st97{fill:url(#SVGID_58_);}
	.st98{fill:url(#SVGID_59_);}
	.st99{fill:url(#SVGID_60_);}
	.st100{fill:url(#SVGID_61_);}
	.st101{fill:url(#SVGID_62_);}
	.st102{fill:url(#SVGID_63_);}
	.st103{fill:url(#SVGID_64_);}
	.st104{fill:url(#SVGID_65_);}
	.st105{fill:url(#SVGID_66_);}
	.st106{fill:url(#SVGID_67_);}
	.st107{fill:url(#SVGID_68_);}
	.st108{fill:url(#SVGID_69_);}
	.st109{fill:url(#SVGID_70_);}
	.st110{fill:url(#SVGID_71_);}
	.st111{fill:url(#SVGID_72_);}
	.st112{fill:#BA4200;}
	.st113{fill:#0B507F;}
	.st114{fill:url(#SVGID_73_);}
	.st115{fill:url(#SVGID_74_);}
	.st116{fill:url(#SVGID_75_);}
	.st117{fill:url(#SVGID_76_);}
	.st118{fill:url(#SVGID_77_);}
	.st119{fill:url(#SVGID_78_);}
	.st120{fill:url(#SVGID_79_);}
	.st121{fill:url(#SVGID_80_);}
	.st122{fill:url(#SVGID_81_);}
	.st123{fill:url(#SVGID_82_);}
	.st124{fill:url(#SVGID_83_);}
	.st125{fill:url(#SVGID_84_);}
	.st126{fill:url(#SVGID_85_);}
	.st127{fill:url(#SVGID_86_);}
	.st128{fill:url(#SVGID_87_);}
	.st129{fill:url(#SVGID_88_);}
	.st130{fill:url(#SVGID_89_);}
	.st131{fill:url(#SVGID_90_);}
	.st132{fill:url(#SVGID_91_);}
	.st133{fill:url(#SVGID_92_);}
	.st134{fill:url(#SVGID_93_);}
	.st135{fill:url(#SVGID_94_);}
	.st136{fill:url(#SVGID_95_);}
	.st137{fill:url(#SVGID_96_);}
	.st138{fill:url(#SVGID_97_);}
	.st139{fill:url(#SVGID_98_);}
	.st140{fill:url(#SVGID_99_);}
	.st141{fill:url(#SVGID_100_);}
	.st142{fill:url(#SVGID_101_);}
	.st143{fill:url(#SVGID_102_);}
	.st144{fill:url(#SVGID_103_);}
	.st145{fill:url(#SVGID_104_);}
	.st146{fill:url(#SVGID_105_);}
	.st147{fill:url(#SVGID_106_);}
	.st148{fill:url(#SVGID_107_);}
	.st149{fill:url(#SVGID_108_);}
	.st150{fill:url(#SVGID_109_);}
	.st151{fill:url(#SVGID_110_);}
	.st152{fill:url(#SVGID_111_);}
	.st153{fill:url(#SVGID_112_);}
	.st154{fill:url(#SVGID_113_);}
	.st155{fill:url(#SVGID_114_);}
	.st156{fill:url(#SVGID_115_);}
	.st157{fill:url(#SVGID_116_);}
	.st158{fill:url(#SVGID_117_);}
	.st159{fill:url(#SVGID_118_);}
	.st160{fill:url(#SVGID_119_);}
	.st161{fill:url(#SVGID_120_);}
	.st162{fill:url(#SVGID_121_);}
	.st163{fill:url(#SVGID_122_);}
	.st164{fill:url(#SVGID_123_);}
	.st165{fill:url(#SVGID_124_);}
	.st166{fill:url(#SVGID_125_);}
	.st167{fill:url(#SVGID_126_);}
	.st168{fill:url(#SVGID_127_);}
	.st169{fill:url(#SVGID_128_);}
	.st170{fill:url(#SVGID_129_);}
	.st171{fill:url(#SVGID_130_);}
	.st172{fill:url(#SVGID_131_);}
	.st173{fill:url(#SVGID_132_);}
	.st174{fill:url(#SVGID_133_);}
	.st175{fill:url(#SVGID_134_);}
	.st176{fill:url(#SVGID_135_);}
	.st177{fill:url(#SVGID_136_);}
	.st178{fill:url(#SVGID_137_);}
	.st179{fill:url(#SVGID_138_);}
	.st180{fill:url(#SVGID_139_);}
	.st181{fill:url(#SVGID_140_);}
	.st182{fill:url(#SVGID_141_);}
	.st183{fill:url(#SVGID_142_);}
	.st184{fill:url(#SVGID_143_);}
	.st185{fill:url(#SVGID_144_);}
</style>
<g id="Guides">
</g>
<g id="Guides_x5F_2">
</g>
<g id="Guides_x5F_3">
</g>
<g id="Sketches">
	<path d="M475.8,198.7v-41.1h193.9v41.1h-72.3v194.9h-49.3V198.7H475.8z"/>
	<path d="M750,397c-18.2,0-33.9-3.7-47-11.1c-13.1-7.4-23.2-17.9-30.3-31.6c-7.1-13.6-10.6-29.8-10.6-48.5
		c0-18.2,3.5-34.2,10.6-47.9c7.1-13.8,17-24.5,29.9-32.2c12.9-7.7,28-11.5,45.4-11.5c11.7,0,22.6,1.9,32.7,5.6
		c10.1,3.7,18.9,9.3,26.5,16.8c7.6,7.5,13.5,16.8,17.7,28.1c4.2,11.3,6.3,24.4,6.3,39.5v13.5H681.8v-30.4h103.3
		c0-7.1-1.5-13.3-4.6-18.8c-3.1-5.5-7.3-9.7-12.7-12.9c-5.4-3.1-11.7-4.7-18.8-4.7c-7.5,0-14,1.7-19.8,5.1
		c-5.7,3.4-10.2,8-13.4,13.7c-3.2,5.7-4.9,12.1-5,19.1v28.9c0,8.8,1.6,16.3,4.9,22.7c3.3,6.4,7.9,11.3,13.9,14.8
		c6,3.5,13.1,5.2,21.3,5.2c5.5,0,10.4-0.8,15-2.3c4.5-1.5,8.4-3.8,11.6-6.9c3.2-3.1,5.7-6.8,7.4-11.3l45.4,3
		c-2.3,10.9-7,20.4-14.1,28.5c-7.1,8.1-16.3,14.4-27.4,18.9C777.5,394.8,764.6,397,750,397z"/>
	<path d="M863.3,393.6v-177h46.8v31.2h2.1c3.7-10.4,9.8-18.6,18.4-24.5c8.6-6,18.9-9,30.9-9c12.1,0,22.5,3,31,9
		c8.5,6,14.2,14.2,17.1,24.5h1.8c3.6-10.1,10.2-18.3,19.7-24.4c9.5-6.1,20.7-9.2,33.7-9.2c16.5,0,29.9,5.2,40.3,15.7
		c10.3,10.5,15.5,25.3,15.5,44.5v119.1h-49V284.2c0-9.8-2.6-17.2-7.8-22.1c-5.2-4.9-11.8-7.4-19.6-7.4c-8.9,0-15.9,2.8-20.9,8.5
		c-5,5.6-7.5,13.1-7.5,22.3v108.1h-47.6V283.2c0-8.7-2.5-15.6-7.4-20.7c-5-5.1-11.5-7.7-19.5-7.7c-5.5,0-10.4,1.4-14.7,4.1
		s-7.8,6.5-10.3,11.4c-2.5,4.9-3.8,10.6-3.8,17.1v106.3H863.3z"/>
	<path d="M1159.3,460V216.5h48.4v29.7h2.2c2.2-4.8,5.3-9.6,9.4-14.6c4.1-5,9.5-9.1,16.1-12.4c6.6-3.3,14.9-5,24.8-5
		c12.9,0,24.8,3.4,35.7,10.1c10.9,6.7,19.6,16.8,26.2,30.3c6.5,13.5,9.8,30.4,9.8,50.7c0,19.7-3.2,36.4-9.5,50
		c-6.3,13.6-14.9,23.8-25.8,30.8c-10.9,7-23,10.4-36.5,10.4c-9.5,0-17.6-1.6-24.3-4.7c-6.6-3.1-12.1-7.1-16.3-11.9
		c-4.2-4.8-7.5-9.7-9.7-14.6h-1.5V460H1159.3z M1207.3,305.1c0,10.5,1.5,19.7,4.4,27.5c2.9,7.8,7.1,13.9,12.7,18.3
		c5.5,4.3,12.3,6.5,20.2,6.5c8,0,14.8-2.2,20.3-6.6c5.5-4.4,9.7-10.6,12.6-18.4c2.9-7.9,4.3-17,4.3-27.3c0-10.2-1.4-19.2-4.3-27
		c-2.8-7.8-7-13.8-12.6-18.2c-5.5-4.4-12.3-6.6-20.4-6.6c-8,0-14.7,2.1-20.2,6.3c-5.5,4.2-9.7,10.2-12.6,18
		C1208.8,285.4,1207.3,294.5,1207.3,305.1z"/>
	<path d="M1413.7,157.5v236h-49.1v-236H1413.7z"/>
	<path d="M1533.5,397c-18.2,0-33.9-3.7-47-11.1c-13.1-7.4-23.2-17.9-30.3-31.6c-7.1-13.6-10.6-29.8-10.6-48.5
		c0-18.2,3.5-34.2,10.6-47.9c7.1-13.8,17-24.5,29.9-32.2c12.9-7.7,28-11.5,45.4-11.5c11.7,0,22.6,1.9,32.7,5.6
		c10.1,3.7,18.9,9.3,26.5,16.8c7.6,7.5,13.5,16.8,17.7,28.1c4.2,11.3,6.3,24.4,6.3,39.5v13.5h-149.5v-30.4h103.3
		c0-7.1-1.5-13.3-4.6-18.8c-3.1-5.5-7.3-9.7-12.7-12.9c-5.4-3.1-11.7-4.7-18.8-4.7c-7.5,0-14,1.7-19.8,5.1
		c-5.7,3.4-10.2,8-13.4,13.7c-3.2,5.7-4.9,12.1-5,19.1v28.9c0,8.8,1.6,16.3,4.9,22.7c3.3,6.4,7.9,11.3,13.9,14.8
		c6,3.5,13.1,5.2,21.3,5.2c5.5,0,10.4-0.8,15-2.3c4.5-1.5,8.4-3.8,11.6-6.9c3.2-3.1,5.7-6.8,7.4-11.3l45.4,3
		c-2.3,10.9-7,20.4-14.1,28.5c-7.1,8.1-16.3,14.4-27.4,18.9C1561,394.8,1548.1,397,1533.5,397z"/>
	<g>
		<g>
			<linearGradient id="SVGID_1_" gradientUnits="userSpaceOnUse" x1="39.3846" y1="236.3078" x2="354.4615" y2="236.3078">
				<stop  offset="1.880787e-03" style="stop-color:#FCC33C"/>
				<stop  offset="1" style="stop-color:#FFEE50"/>
			</linearGradient>
			<polygon class="st25" points="275.7,157.5 354.5,157.5 315.1,0 39.4,0 78.8,157.5 157.5,157.5 196.9,315.1 147.7,315.1
				167.4,393.8 216.6,393.8 236.3,472.6 354.5,472.6 			"/>
			<linearGradient id="SVGID_2_" gradientUnits="userSpaceOnUse" x1="354.4615" y1="177.2308" x2="275.6923" y2="177.2308">
				<stop  offset="0" style="stop-color:#FB9828"/>
				<stop  offset="1" style="stop-color:#F96C13"/>
			</linearGradient>
			<polygon class="st26" points="315.1,196.9 285.5,196.9 275.7,157.5 354.5,157.5 			"/>
			<linearGradient id="SVGID_3_" gradientUnits="userSpaceOnUse" x1="290.4854" y1="68.9231" x2="93.5385" y2="68.9231">
				<stop  offset="0" style="stop-color:#F84200"/>
				<stop  offset="1" style="stop-color:#F96C13"/>
			</linearGradient>
			<polygon class="st27" points="275.7,78.8 98.5,78.8 93.5,59.1 290.5,59.1 			"/>
			<linearGradient id="SVGID_4_" gradientUnits="userSpaceOnUse" x1="16.2722" y1="5.7626" x2="62.4971" y2="191.1605">
				<stop  offset="0" style="stop-color:#F96C13"/>
				<stop  offset="1" style="stop-color:#FB9828"/>
			</linearGradient>
			<polygon class="st28" points="39.4,196.9 0,39.4 39.4,0 78.8,157.5 			"/>
			<linearGradient id="SVGID_5_" gradientUnits="userSpaceOnUse" x1="127.9997" y1="413.5384" x2="216.6157" y2="413.5384">
				<stop  offset="0" style="stop-color:#F84200"/>
				<stop  offset="1" style="stop-color:#F96C13"/>
			</linearGradient>
			<polygon class="st29" points="216.6,393.8 167.4,393.8 128,433.2 177.2,433.2 			"/>
			<linearGradient id="SVGID_6_" gradientUnits="userSpaceOnUse" x1="39.3846" y1="177.2308" x2="157.5385" y2="177.2308">
				<stop  offset="0" style="stop-color:#F84200"/>
				<stop  offset="1" style="stop-color:#F96C13"/>
			</linearGradient>
			<polygon class="st30" points="118.2,196.9 39.4,196.9 78.8,157.5 157.5,157.5 			"/>
			<linearGradient id="SVGID_7_" gradientUnits="userSpaceOnUse" x1="173.711" y1="320.8643" x2="134.426" y2="163.301">
				<stop  offset="0" style="stop-color:#F96C13"/>
				<stop  offset="1" style="stop-color:#FB9828"/>
			</linearGradient>
			<polygon class="st31" points="196.9,315.1 147.7,315.1 118.2,196.9 157.5,157.5 			"/>
			<linearGradient id="SVGID_8_" gradientUnits="userSpaceOnUse" x1="151.1373" y1="427.4619" x2="124.5549" y2="320.8458">
				<stop  offset="0" style="stop-color:#FB9828"/>
				<stop  offset="1" style="stop-color:#F96C13"/>
			</linearGradient>
			<polygon class="st32" points="167.4,393.8 147.7,315.1 108.3,354.5 128,433.2 			"/>
			<linearGradient id="SVGID_9_" gradientUnits="userSpaceOnUse" x1="220.0605" y1="506.231" x2="193.4781" y2="399.615">
				<stop  offset="0" style="stop-color:#F96C13"/>
				<stop  offset="1" style="stop-color:#FB9828"/>
			</linearGradient>
			<polygon class="st33" points="236.3,472.6 216.6,393.8 177.2,433.2 196.9,512 			"/>
			<linearGradient id="SVGID_10_" gradientUnits="userSpaceOnUse" x1="299.3167" y1="488.3636" x2="208.1513" y2="122.7192">
				<stop  offset="0" style="stop-color:#F96C13"/>
				<stop  offset="1" style="stop-color:#F84200"/>
			</linearGradient>
			<polygon class="st34" points="315.1,472.6 226.5,118.2 210.7,133.9 295.4,472.6 279.6,488.4 299.3,488.4 			"/>
			<linearGradient id="SVGID_11_" gradientUnits="userSpaceOnUse" x1="297.4457" y1="126.4734" x2="282.7152" y2="67.3927">
				<stop  offset="0" style="stop-color:#F84200"/>
				<stop  offset="1" style="stop-color:#F96C13"/>
			</linearGradient>
			<polygon class="st35" points="305.2,118.2 285.5,118.2 275.7,78.8 290.5,59.1 			"/>
			<linearGradient id="SVGID_12_" gradientUnits="userSpaceOnUse" x1="213.4426" y1="492.3077" x2="331.1172" y2="492.3077">
				<stop  offset="0" style="stop-color:#F84200"/>
				<stop  offset="1" style="stop-color:#F96C13"/>
			</linearGradient>
			<polygon class="st36" points="315.1,472.6 299.3,488.4 279.6,488.4 295.4,472.6 236.3,472.6 196.9,512 315.1,512 354.5,472.6
				"/>
		</g>
	</g>
</g>
</svg>
