<svg width="104" height="32" viewBox="0 0 104 32" fill="none" xmlns="http://www.w3.org/2000/svg">
<g clip-path="url(#clip0_101_82)">
<path d="M31.2375 12.4186V9.84985H43.3563V12.4186H38.8375V24.5999H35.7563V12.4186H31.2375Z" fill="#4A5568"/>
<path d="M48.3749 24.8127C47.2374 24.8127 46.2561 24.5814 45.4374 24.1189C44.6186 23.6564 43.9874 23.0002 43.5436 22.1439C43.0999 21.2939 42.8811 20.2814 42.8811 19.1127C42.8811 17.9752 43.0999 16.9752 43.5436 16.1189C43.9874 15.2564 44.6061 14.5877 45.4124 14.1064C46.2186 13.6252 47.1624 13.3877 48.2499 13.3877C48.9811 13.3877 49.6624 13.5064 50.2936 13.7377C50.9249 13.9689 51.4749 14.3189 51.9499 14.7877C52.4249 15.2564 52.7936 15.8377 53.0561 16.5439C53.3186 17.2502 53.4499 18.0689 53.4499 19.0127V19.8564H44.1124V17.9564H50.5686C50.5686 17.5127 50.4749 17.1252 50.2811 16.7814C50.0874 16.4377 49.8249 16.1752 49.4874 15.9752C49.1499 15.7814 48.7561 15.6814 48.3124 15.6814C47.8436 15.6814 47.4374 15.7877 47.0749 16.0002C46.7186 16.2127 46.4374 16.5002 46.2374 16.8564C46.0374 17.2127 45.9311 17.6127 45.9249 18.0502V19.8564C45.9249 20.4064 46.0249 20.8752 46.2311 21.2752C46.4374 21.6752 46.7249 21.9814 47.0999 22.2002C47.4749 22.4189 47.9186 22.5252 48.4311 22.5252C48.7749 22.5252 49.0811 22.4752 49.3686 22.3814C49.6499 22.2877 49.8936 22.1439 50.0936 21.9502C50.2936 21.7564 50.4499 21.5252 50.5561 21.2439L53.3936 21.4314C53.2499 22.1127 52.9561 22.7064 52.5124 23.2127C52.0686 23.7189 51.4936 24.1127 50.7999 24.3939C50.0936 24.6752 49.2874 24.8127 48.3749 24.8127Z" fill="#4A5568"/>
<path d="M55.4563 24.6002V13.5377H58.3813V15.4877H58.5125C58.7438 14.8377 59.125 14.3252 59.6625 13.9564C60.2 13.5814 60.8438 13.3939 61.5938 13.3939C62.35 13.3939 63 13.5814 63.5313 13.9564C64.0625 14.3314 64.4188 14.8439 64.6 15.4877H64.7125C64.9375 14.8564 65.35 14.3439 65.9438 13.9627C66.5375 13.5814 67.2375 13.3877 68.05 13.3877C69.0813 13.3877 69.9188 13.7127 70.5688 14.3689C71.2125 15.0252 71.5375 15.9502 71.5375 17.1502V24.5939H68.475V17.7627C68.475 17.1502 68.3125 16.6877 67.9875 16.3814C67.6625 16.0752 67.25 15.9189 66.7625 15.9189C66.2063 15.9189 65.7688 16.0939 65.4563 16.4502C65.1438 16.8002 64.9875 17.2689 64.9875 17.8439V24.6002H62.0125V17.7002C62.0125 17.1564 61.8563 16.7252 61.55 16.4064C61.2375 16.0877 60.8313 15.9252 60.3313 15.9252C59.9875 15.9252 59.6813 16.0127 59.4125 16.1814C59.1438 16.3502 58.925 16.5877 58.7688 16.8939C58.6125 17.2002 58.5313 17.5564 58.5313 17.9627V24.6064H55.4563V24.6002Z" fill="#4A5568"/>
<path d="M73.9563 28.7502V13.5314H76.9813V15.3877H77.1188C77.2563 15.0877 77.4501 14.7877 77.7063 14.4752C77.9626 14.1627 78.3001 13.9064 78.7126 13.7002C79.1251 13.4939 79.6438 13.3877 80.2625 13.3877C81.0688 13.3877 81.8126 13.6002 82.4938 14.0189C83.1751 14.4377 83.7188 15.0689 84.1313 15.9127C84.5376 16.7564 84.7438 17.8127 84.7438 19.0814C84.7438 20.3127 84.5438 21.3564 84.1501 22.2064C83.7563 23.0564 83.2188 23.6939 82.5375 24.1314C81.8563 24.5689 81.1 24.7814 80.2563 24.7814C79.6625 24.7814 79.1563 24.6814 78.7376 24.4877C78.3251 24.2939 77.9813 24.0439 77.7188 23.7439C77.4563 23.4439 77.2501 23.1377 77.1126 22.8314H77.0188V28.7502H73.9563ZM76.9563 19.0689C76.9563 19.7252 77.05 20.3002 77.2313 20.7877C77.4125 21.2752 77.6751 21.6564 78.0251 21.9314C78.3688 22.2002 78.7938 22.3377 79.2875 22.3377C79.7875 22.3377 80.2126 22.2002 80.5563 21.9252C80.9001 21.6502 81.1626 21.2627 81.3438 20.7752C81.5251 20.2814 81.6126 19.7127 81.6126 19.0689C81.6126 18.4314 81.5251 17.8689 81.3438 17.3814C81.1688 16.8939 80.9063 16.5189 80.5563 16.2439C80.2126 15.9689 79.7875 15.8314 79.2813 15.8314C78.7813 15.8314 78.3626 15.9627 78.0188 16.2252C77.6751 16.4877 77.4125 16.8627 77.2313 17.3502C77.05 17.8377 76.9563 18.4064 76.9563 19.0689Z" fill="#4A5568"/>
<path d="M89.8561 9.84375V24.5938H86.7874V9.84375H89.8561Z" fill="#4A5568"/>
<path d="M97.3436 24.8127C96.2061 24.8127 95.2249 24.5814 94.4061 24.1189C93.5874 23.6564 92.9561 23.0002 92.5124 22.1439C92.0686 21.2939 91.8499 20.2814 91.8499 19.1127C91.8499 17.9752 92.0686 16.9752 92.5124 16.1189C92.9561 15.2564 93.5749 14.5877 94.3811 14.1064C95.1874 13.6252 96.1311 13.3877 97.2186 13.3877C97.9499 13.3877 98.6311 13.5064 99.2624 13.7377C99.8936 13.9689 100.444 14.3189 100.919 14.7877C101.394 15.2564 101.762 15.8377 102.025 16.5439C102.287 17.2502 102.419 18.0689 102.419 19.0127V19.8564H93.0749V17.9564H99.5311C99.5311 17.5127 99.4374 17.1252 99.2436 16.7814C99.0499 16.4377 98.7874 16.1752 98.4499 15.9752C98.1124 15.7814 97.7186 15.6814 97.2749 15.6814C96.8061 15.6814 96.3999 15.7877 96.0374 16.0002C95.6811 16.2127 95.3999 16.5002 95.1999 16.8564C94.9999 17.2127 94.8936 17.6127 94.8874 18.0502V19.8564C94.8874 20.4064 94.9874 20.8752 95.1936 21.2752C95.3999 21.6752 95.6874 21.9814 96.0624 22.2002C96.4374 22.4189 96.8811 22.5252 97.3936 22.5252C97.7374 22.5252 98.0436 22.4752 98.3311 22.3814C98.6124 22.2877 98.8561 22.1439 99.0561 21.9502C99.2561 21.7564 99.4124 21.5252 99.5186 21.2439L102.356 21.4314C102.212 22.1127 101.919 22.7064 101.475 23.2127C101.031 23.7189 100.456 24.1127 99.7624 24.3939C99.0624 24.6752 98.2561 24.8127 97.3436 24.8127Z" fill="#4A5568"/>
<path d="M18.7314 9.84375H23.6564L21.1939 0H3.96265L6.42515 9.84375H11.3439L13.8064 19.6938H10.7314L11.9626 24.6125H15.0376L16.2689 29.5375H23.6564L18.7314 9.84375Z" fill="url(#paint0_linear_101_82)"/>
<path d="M21.1937 12.3062H19.3437L18.7312 9.84375H23.6562L21.1937 12.3062Z" fill="url(#paint1_linear_101_82)"/>
<path d="M18.7313 4.92485H7.65625L7.34375 3.6936H19.6562L18.7313 4.92485Z" fill="url(#paint2_linear_101_82)"/>
<path d="M3.9625 12.3062L1.5 2.4625L3.9625 0L6.425 9.84375L3.9625 12.3062Z" fill="url(#paint3_linear_101_82)"/>
<path d="M15.0375 24.6125H11.9625L9.5 27.0751H12.575L15.0375 24.6125Z" fill="url(#paint4_linear_101_82)"/>
<path d="M8.88765 12.3062H3.96265L6.42515 9.84375H11.3439L8.88765 12.3062Z" fill="url(#paint5_linear_101_82)"/>
<path d="M13.8062 19.6938H10.7312L8.88745 12.3062L11.3437 9.84375L13.8062 19.6938Z" fill="url(#paint6_linear_101_82)"/>
<path d="M11.9625 24.6124L10.7313 19.6936L8.2688 22.1561L9.50005 27.0749L11.9625 24.6124Z" fill="url(#paint7_linear_101_82)"/>
<path d="M16.2687 29.5375L15.0374 24.6125L12.575 27.0751L13.8062 32L16.2687 29.5375Z" fill="url(#paint8_linear_101_82)"/>
<path d="M21.1937 29.5377L15.6562 7.3877L14.6687 8.36895L19.9624 29.5377L18.975 30.5252H20.2062L21.1937 29.5377Z" fill="url(#paint9_linear_101_82)"/>
<path d="M20.575 7.38735H19.3437L18.7312 4.92485L19.6562 3.6936L20.575 7.38735Z" fill="url(#paint10_linear_101_82)"/>
<path d="M21.1939 29.5374L20.2064 30.5249H18.9751L19.9626 29.5374H16.2689L13.8064 31.9998H21.1939L23.6564 29.5374H21.1939Z" fill="url(#paint11_linear_101_82)"/>
</g>
<defs>
<linearGradient id="paint0_linear_101_82" x1="3.96168" y1="14.7692" x2="23.654" y2="14.7692" gradientUnits="userSpaceOnUse">
<stop offset="0.00188079" stop-color="#FCC33C"/>
<stop offset="1" stop-color="#FFEE50"/>
</linearGradient>
<linearGradient id="paint1_linear_101_82" x1="23.6538" y1="11.0769" x2="18.7307" y2="11.0769" gradientUnits="userSpaceOnUse">
<stop stop-color="#FB9828"/>
<stop offset="1" stop-color="#F96C13"/>
</linearGradient>
<linearGradient id="paint2_linear_101_82" x1="19.6553" y1="4.30755" x2="7.34616" y2="4.30755" gradientUnits="userSpaceOnUse">
<stop stop-color="#F84200"/>
<stop offset="1" stop-color="#F96C13"/>
</linearGradient>
<linearGradient id="paint3_linear_101_82" x1="2.51701" y1="0.360162" x2="5.40607" y2="11.9475" gradientUnits="userSpaceOnUse">
<stop stop-color="#F96C13"/>
<stop offset="1" stop-color="#FB9828"/>
</linearGradient>
<linearGradient id="paint4_linear_101_82" x1="9.49998" y1="25.8462" x2="15.0385" y2="25.8462" gradientUnits="userSpaceOnUse">
<stop stop-color="#F84200"/>
<stop offset="1" stop-color="#F96C13"/>
</linearGradient>
<linearGradient id="paint5_linear_101_82" x1="3.96168" y1="11.0769" x2="11.3463" y2="11.0769" gradientUnits="userSpaceOnUse">
<stop stop-color="#F84200"/>
<stop offset="1" stop-color="#F96C13"/>
</linearGradient>
<linearGradient id="paint6_linear_101_82" x1="12.3569" y1="20.054" x2="9.90158" y2="10.2063" gradientUnits="userSpaceOnUse">
<stop stop-color="#F96C13"/>
<stop offset="1" stop-color="#FB9828"/>
</linearGradient>
<linearGradient id="paint7_linear_101_82" x1="10.9461" y1="26.7162" x2="9.28473" y2="20.0527" gradientUnits="userSpaceOnUse">
<stop stop-color="#FB9828"/>
<stop offset="1" stop-color="#F96C13"/>
</linearGradient>
<linearGradient id="paint8_linear_101_82" x1="15.2537" y1="31.6395" x2="13.5923" y2="24.976" gradientUnits="userSpaceOnUse">
<stop stop-color="#F96C13"/>
<stop offset="1" stop-color="#FB9828"/>
</linearGradient>
<linearGradient id="paint9_linear_101_82" x1="20.2072" y1="30.5229" x2="14.5094" y2="7.67015" gradientUnits="userSpaceOnUse">
<stop stop-color="#F96C13"/>
<stop offset="1" stop-color="#F84200"/>
</linearGradient>
<linearGradient id="paint10_linear_101_82" x1="20.0903" y1="7.90444" x2="19.1697" y2="4.2119" gradientUnits="userSpaceOnUse">
<stop stop-color="#F84200"/>
<stop offset="1" stop-color="#F96C13"/>
</linearGradient>
<linearGradient id="paint11_linear_101_82" x1="14.8403" y1="30.7691" x2="22.195" y2="30.7691" gradientUnits="userSpaceOnUse">
<stop stop-color="#F84200"/>
<stop offset="1" stop-color="#F96C13"/>
</linearGradient>
<clipPath id="clip0_101_82">
<rect width="100.938" height="32" fill="white" transform="translate(1.5)"/>
</clipPath>
</defs>
</svg>
