<svg width="96" height="40" viewBox="0 0 96 40" fill="none" xmlns="http://www.w3.org/2000/svg">
<g clip-path="url(#clip0_712_106)">
<path opacity="0.5" d="M24.6904 36.9085H23.1431L16.5129 10.3252L17.7441 9.0835L24.6904 36.9085Z" fill="#4A5568"/>
<path d="M21.5042 12.3083H27.6436L24.5739 0H3.06958L6.13925 12.3083H12.2869L15.3566 24.6167H11.5216L13.0522 30.7667H16.8956L18.4263 36.925H27.6436L21.5042 12.3083Z" fill="url(#paint0_linear_712_106)"/>
<path d="M24.5741 15.3834H22.2697L21.5044 12.3083H27.6437L24.5741 15.3834Z" fill="url(#paint1_linear_712_106)"/>
<path d="M21.5043 6.15003H7.67832L7.29565 4.6167H22.6523L21.5043 6.15003Z" fill="url(#paint2_linear_712_106)"/>
<path d="M3.06967 15.3833L0 3.075L3.06967 0L6.13934 12.3083L3.06967 15.3833Z" fill="url(#paint3_linear_712_106)"/>
<path d="M16.8957 30.7668H13.0523L9.98267 33.8502H13.826L16.8957 30.7668Z" fill="url(#paint4_linear_712_106)"/>
<path d="M9.21724 15.3834H3.06958L6.13925 12.3083H12.2869L9.21724 15.3834Z" fill="url(#paint5_linear_712_106)"/>
<path d="M15.3566 24.6167H11.5216L9.21729 15.3834L12.287 12.3083L15.3566 24.6167Z" fill="url(#paint6_linear_712_106)"/>
<path d="M13.0523 30.7667L11.5216 24.6167L8.4436 27.6917L9.9826 33.85L13.0523 30.7667Z" fill="url(#paint7_linear_712_106)"/>
<path d="M18.4263 36.9252L16.8956 30.7668L13.8259 33.8502L15.3566 40.0002L18.4263 36.9252Z" fill="url(#paint8_linear_712_106)"/>
<path d="M24.5739 36.9251L17.6609 9.2334L16.4297 10.4584L23.0349 36.9251L21.812 38.1501H23.3427L24.5739 36.9251Z" fill="url(#paint9_linear_712_106)"/>
<path d="M23.8087 9.23337H22.2697L21.5044 6.15003L22.6524 4.6167L23.8087 9.23337Z" fill="url(#paint10_linear_712_106)"/>
<path d="M24.574 36.925L23.3428 38.15H21.8121L23.035 36.925H18.4264L15.3567 40H24.574L27.6437 36.925H24.574Z" fill="url(#paint11_linear_712_106)"/>
<path d="M52.0265 23.9167L49.8552 33.0501H49.7388L47.3596 23.9167H44.7641L42.3682 33.0334H42.2601L40.0972 23.9167H37.0691L40.8209 37.0417H43.5162L46.0036 28.4584H46.1117L48.5991 37.0417H51.3027L55.0545 23.9167H52.0265Z" fill="#4A5568"/>
<path d="M62.4917 27.8583C62.1007 27.5917 61.6598 27.3917 61.1524 27.2583C60.6533 27.1333 60.1292 27.0667 59.5801 27.0667C58.7981 27.0667 58.1077 27.1833 57.5087 27.425C56.9098 27.6583 56.4273 28 56.0529 28.4333C55.6786 28.875 55.429 29.3917 55.2959 29.9833L57.8165 30.1917C57.908 29.8667 58.0994 29.6 58.3905 29.3833C58.6817 29.1667 59.0727 29.0583 59.5635 29.0583C60.0293 29.0583 60.3871 29.1667 60.6449 29.3917C60.8945 29.6167 61.0276 29.925 61.0276 30.3333V30.375C61.0276 30.5833 60.9527 30.7417 60.7947 30.85C60.6366 30.9583 60.387 31.0333 60.0293 31.0917C59.6799 31.1417 59.2224 31.2 58.6484 31.2583C58.1659 31.3083 57.7 31.3833 57.2591 31.5C56.8182 31.6167 56.4273 31.7833 56.0779 32.0167C55.7285 32.2417 55.4623 32.5417 55.2626 32.9167C55.063 33.2917 54.9631 33.75 54.9631 34.2917C54.9631 34.9417 55.1046 35.4833 55.3874 35.9167C55.6702 36.35 56.0612 36.675 56.552 36.9C57.0429 37.1167 57.6002 37.2333 58.2241 37.2333C58.7066 37.2333 59.1392 37.1667 59.5136 37.0417C59.8879 36.9083 60.204 36.7333 60.4702 36.5C60.7364 36.2667 60.9444 36 61.1025 35.6917H61.1773V37.0583H63.7645V30.4167C63.7645 29.8333 63.6481 29.325 63.4234 28.9083C63.1905 28.4667 62.8827 28.125 62.4917 27.8583ZM61.0442 33.5167C61.0442 33.8667 60.9527 34.175 60.778 34.45C60.6033 34.725 60.3621 34.9417 60.0543 35.1C59.7465 35.2583 59.3971 35.3417 58.9895 35.3417C58.5735 35.3417 58.2241 35.2417 57.9579 35.05C57.6834 34.8583 57.5503 34.575 57.5503 34.2C57.5503 33.9417 57.6169 33.725 57.75 33.5583C57.8831 33.3833 58.0661 33.25 58.3073 33.1417C58.5486 33.0417 58.8231 32.9667 59.1475 32.9167C59.2973 32.8917 59.4637 32.8667 59.6467 32.8417C59.8297 32.8167 60.0127 32.7833 60.1957 32.7417C60.3787 32.7083 60.5451 32.6667 60.6948 32.6167C60.8446 32.575 60.9611 32.525 61.0442 32.4667V33.5167Z" fill="#4A5568"/>
<path d="M68.5977 23.9167H65.8691V37.0417H68.5977V23.9167Z" fill="#4A5568"/>
<path d="M73.4976 23.9167H70.769V37.0417H73.4976V23.9167Z" fill="#4A5568"/>
<path d="M83.3222 28.3083C82.9063 27.8917 82.4155 27.5833 81.8498 27.375C81.2924 27.1667 80.6851 27.0667 80.0363 27.0667C79.0713 27.0667 78.2311 27.2833 77.5156 27.7083C76.8002 28.1333 76.2512 28.7333 75.8519 29.5C75.4609 30.2667 75.2612 31.15 75.2612 32.1667C75.2612 33.2083 75.4609 34.1 75.8519 34.8583C76.2429 35.6167 76.8002 36.2 77.5323 36.6167C78.256 37.025 79.1295 37.2333 80.1361 37.2333C80.943 37.2333 81.6585 37.1083 82.2824 36.8583C82.9063 36.6083 83.4137 36.2583 83.8047 35.8083C84.1957 35.3583 84.4619 34.825 84.5867 34.225L82.0661 34.0583C81.9746 34.3083 81.8332 34.5167 81.6585 34.6833C81.4754 34.8583 81.2675 34.9833 81.0096 35.0667C80.76 35.15 80.4772 35.1917 80.1777 35.1917C79.7202 35.1917 79.3292 35.0917 78.9964 34.9C78.6637 34.7083 78.4058 34.4333 78.2228 34.0833C78.0397 33.725 77.9482 33.3083 77.9482 32.8167V32.8083H84.6366V32.0583C84.6366 31.225 84.5202 30.4917 84.2872 29.8667C84.0709 29.2417 83.7465 28.725 83.3222 28.3083ZM77.9732 31.125C77.9898 30.775 78.073 30.45 78.2394 30.15C78.4224 29.8333 78.6637 29.575 78.9881 29.3833C79.3042 29.1917 79.6702 29.1 80.0862 29.1C80.4855 29.1 80.8349 29.1833 81.1344 29.3583C81.4338 29.5333 81.6668 29.7667 81.8415 30.075C82.0078 30.375 82.0994 30.725 82.0994 31.1167H77.9732V31.125Z" fill="#4A5568"/>
<path d="M91.4164 34.8835C91.3498 34.9002 91.25 34.9168 91.1252 34.9418C91.0004 34.9668 90.8673 34.9752 90.7426 34.9752C90.5595 34.9752 90.4015 34.9502 90.2601 34.8918C90.1186 34.8335 90.0105 34.7418 89.9356 34.6002C89.8607 34.4585 89.8191 34.2668 89.8191 34.0168V29.2502H91.6659V27.2002H89.8191V24.8335H87.0906V27.1918H85.7512V29.2502H87.0906V34.3752C87.0822 35.0168 87.2237 35.5502 87.4899 35.9752C87.7644 36.4002 88.1471 36.7085 88.6379 36.9085C89.1287 37.1085 89.7027 37.2002 90.3599 37.1752C90.7176 37.1585 91.0171 37.1252 91.2583 37.0668C91.5079 37.0085 91.6992 36.9585 91.8323 36.9168L91.4164 34.8835Z" fill="#4A5568"/>
<path d="M32.4688 5.36662V3.07495H43.2251V5.36662H39.2154V16.2H36.4785V5.36662H32.4688Z" fill="#4A5568"/>
<path d="M48.0001 16.3915C46.9852 16.3915 46.12 16.1832 45.3963 15.7749C44.6726 15.3665 44.1069 14.7749 43.7159 14.0165C43.3249 13.2582 43.1252 12.3582 43.1252 11.3249C43.1252 10.3165 43.3249 9.42485 43.7159 8.65819C44.1069 7.89152 44.6642 7.29985 45.3797 6.86652C46.0951 6.44152 46.9353 6.22485 47.9003 6.22485C48.5492 6.22485 49.1564 6.32485 49.7138 6.53319C50.2712 6.74152 50.762 7.04985 51.1862 7.46652C51.6022 7.88319 51.9349 8.39985 52.1679 9.02485C52.4008 9.64985 52.5173 10.3832 52.5173 11.2165V11.9665H44.2233V10.2749H49.9551C49.9551 9.88319 49.8719 9.53319 49.6972 9.23319C49.5225 8.93319 49.2895 8.69152 48.9901 8.51652C48.6906 8.34152 48.3412 8.25819 47.9419 8.25819C47.5259 8.25819 47.1599 8.34985 46.8438 8.54152C46.5277 8.73319 46.2781 8.98319 46.0951 9.30819C45.9121 9.62485 45.8206 9.98319 45.8206 10.3665V11.9749C45.8206 12.4582 45.9121 12.8832 46.0951 13.2415C46.2781 13.5999 46.536 13.8665 46.8687 14.0582C47.2015 14.2499 47.5925 14.3499 48.05 14.3499C48.3495 14.3499 48.6323 14.3082 48.8819 14.2249C49.1315 14.1415 49.3478 14.0082 49.5308 13.8415C49.7138 13.6749 49.8469 13.4582 49.9384 13.2165L52.459 13.3832C52.3343 13.9915 52.0681 14.5165 51.6771 14.9665C51.2861 15.4165 50.7786 15.7665 50.1547 16.0165C49.5308 16.2665 48.8154 16.3915 48.0001 16.3915Z" fill="#4A5568"/>
<path d="M54.2893 16.1999V6.35822H56.8848V8.09155H57.0013C57.2092 7.51655 57.5503 7.05822 58.0245 6.72489C58.4987 6.39155 59.0727 6.22489 59.7382 6.22489C60.412 6.22489 60.986 6.39155 61.4602 6.72489C61.9344 7.05822 62.2505 7.51655 62.4085 8.08322H62.5084C62.708 7.51655 63.0741 7.06655 63.5981 6.72489C64.1222 6.38322 64.7462 6.21655 65.4699 6.21655C66.385 6.21655 67.1337 6.50822 67.7077 7.09155C68.2817 7.67489 68.5645 8.49989 68.5645 9.56655V16.1832H65.8442V10.0999C65.8442 9.54989 65.7028 9.14155 65.4117 8.86655C65.1205 8.59155 64.7628 8.45822 64.3219 8.45822C63.8311 8.45822 63.4401 8.61655 63.1656 8.93322C62.891 9.24989 62.7496 9.65822 62.7496 10.1749V16.1832H60.1042V10.0416C60.1042 9.55822 59.9628 9.17489 59.6883 8.89155C59.4137 8.60822 59.0477 8.45822 58.6068 8.45822C58.3073 8.45822 58.0328 8.53322 57.7916 8.68322C57.5503 8.83322 57.359 9.04989 57.2176 9.31655C57.0761 9.59155 57.0096 9.90822 57.0096 10.2666V16.1749H54.2893V16.1999Z" fill="#4A5568"/>
<path d="M70.719 19.8915V6.35815H73.406V8.00815H73.5308C73.6472 7.74149 73.8219 7.47482 74.0549 7.19982C74.2795 6.92482 74.579 6.69149 74.9533 6.50815C75.3193 6.32482 75.7852 6.23315 76.3342 6.23315C77.0497 6.23315 77.7152 6.41649 78.3141 6.79149C78.9214 7.16649 79.4039 7.72482 79.77 8.47482C80.136 9.22482 80.3107 10.1665 80.3107 11.2915C80.3107 12.3915 80.136 13.3165 79.7866 14.0665C79.4372 14.8165 78.9547 15.3915 78.3557 15.7748C77.7485 16.1582 77.0746 16.3582 76.3342 16.3582C75.8018 16.3582 75.3526 16.2665 74.9866 16.0915C74.6206 15.9165 74.3128 15.6915 74.0798 15.4248C73.8469 15.1582 73.6639 14.8915 73.5391 14.6165H73.4559V19.8832H70.719V19.8915ZM73.3894 11.2832C73.3894 11.8665 73.4725 12.3748 73.6306 12.8165C73.7887 13.2498 74.0299 13.5915 74.3377 13.8332C74.6455 14.0748 75.0199 14.1915 75.4608 14.1915C75.9017 14.1915 76.276 14.0665 76.5838 13.8248C76.8916 13.5832 77.1245 13.2415 77.2826 12.7998C77.4407 12.3582 77.5239 11.8582 77.5239 11.2832C77.5239 10.7165 77.449 10.2165 77.2909 9.78315C77.1329 9.34982 76.8999 9.01649 76.5921 8.77482C76.2843 8.53315 75.91 8.40815 75.4608 8.40815C75.0199 8.40815 74.6455 8.52482 74.3377 8.75815C74.0299 8.99149 73.797 9.32482 73.6389 9.75815C73.4642 10.1832 73.3894 10.6915 73.3894 11.2832Z" fill="#4A5568"/>
<path d="M84.8363 3.07495V16.2H82.1077V3.07495H84.8363Z" fill="#4A5568"/>
<path d="M91.4913 16.3915C90.4764 16.3915 89.6113 16.1832 88.8875 15.7749C88.1638 15.3665 87.5981 14.7749 87.2071 14.0165C86.8161 13.2582 86.6165 12.3582 86.6165 11.3249C86.6165 10.3165 86.8161 9.42485 87.2071 8.65819C87.5981 7.89152 88.1555 7.29985 88.8709 6.86652C89.5863 6.44152 90.4265 6.22485 91.3915 6.22485C92.0404 6.22485 92.6477 6.32485 93.205 6.53319C93.7624 6.74152 94.2532 7.04985 94.6775 7.46652C95.0934 7.88319 95.4262 8.39985 95.6591 9.02485C95.892 9.64985 96.0085 10.3832 96.0085 11.2165V11.9665H87.7146V10.2749H93.4463C93.4463 9.88319 93.3631 9.53319 93.1884 9.23319C93.0137 8.93319 92.7808 8.69152 92.4813 8.51652C92.1818 8.34152 91.8324 8.25819 91.4331 8.25819C91.0172 8.25819 90.6511 8.34985 90.335 8.54152C90.0189 8.73319 89.7693 8.98319 89.5863 9.30819C89.4033 9.62485 89.3118 9.98319 89.3118 10.3665V11.9749C89.3118 12.4582 89.4033 12.8832 89.5863 13.2415C89.7693 13.5999 90.0272 13.8665 90.36 14.0582C90.6927 14.2499 91.0837 14.3499 91.5412 14.3499C91.8407 14.3499 92.1236 14.3082 92.3731 14.2249C92.6227 14.1415 92.839 14.0082 93.022 13.8415C93.205 13.6749 93.3381 13.4582 93.4296 13.2165L95.9503 13.3832C95.8255 13.9915 95.5593 14.5165 95.1683 14.9665C94.7773 15.4165 94.2698 15.7665 93.6459 16.0165C93.0137 16.2665 92.2983 16.3915 91.4913 16.3915Z" fill="#4A5568"/>
</g>
<defs>
<linearGradient id="paint0_linear_712_106" x1="3.0715" y1="18.4615" x2="27.6442" y2="18.4615" gradientUnits="userSpaceOnUse">
<stop offset="0.00188079" stop-color="#FCC33C"/>
<stop offset="1" stop-color="#FFEE50"/>
</linearGradient>
<linearGradient id="paint1_linear_712_106" x1="27.6444" y1="13.8462" x2="21.5012" y2="13.8462" gradientUnits="userSpaceOnUse">
<stop stop-color="#FB9828"/>
<stop offset="1" stop-color="#F96C13"/>
</linearGradient>
<linearGradient id="paint2_linear_712_106" x1="22.6548" y1="5.38465" x2="7.29501" y2="5.38465" gradientUnits="userSpaceOnUse">
<stop stop-color="#F84200"/>
<stop offset="1" stop-color="#F96C13"/>
</linearGradient>
<linearGradient id="paint3_linear_712_106" x1="1.26906" y1="0.4502" x2="4.88591" y2="14.9315" gradientUnits="userSpaceOnUse">
<stop stop-color="#F96C13"/>
<stop offset="1" stop-color="#FB9828"/>
</linearGradient>
<linearGradient id="paint4_linear_712_106" x1="9.98264" y1="32.3079" x2="16.8938" y2="32.3079" gradientUnits="userSpaceOnUse">
<stop stop-color="#F84200"/>
<stop offset="1" stop-color="#F96C13"/>
</linearGradient>
<linearGradient id="paint5_linear_712_106" x1="3.0715" y1="13.8462" x2="12.2863" y2="13.8462" gradientUnits="userSpaceOnUse">
<stop stop-color="#F84200"/>
<stop offset="1" stop-color="#F96C13"/>
</linearGradient>
<linearGradient id="paint6_linear_712_106" x1="13.5476" y1="25.0675" x2="10.4738" y2="12.7604" gradientUnits="userSpaceOnUse">
<stop stop-color="#F96C13"/>
<stop offset="1" stop-color="#FB9828"/>
</linearGradient>
<linearGradient id="paint7_linear_712_106" x1="11.7871" y1="33.3955" x2="9.70714" y2="25.0678" gradientUnits="userSpaceOnUse">
<stop stop-color="#FB9828"/>
<stop offset="1" stop-color="#F96C13"/>
</linearGradient>
<linearGradient id="paint8_linear_712_106" x1="17.1624" y1="39.5495" x2="15.0824" y2="31.2218" gradientUnits="userSpaceOnUse">
<stop stop-color="#F96C13"/>
<stop offset="1" stop-color="#FB9828"/>
</linearGradient>
<linearGradient id="paint9_linear_712_106" x1="23.3435" y1="38.1535" x2="16.2103" y2="9.59331" gradientUnits="userSpaceOnUse">
<stop stop-color="#F96C13"/>
<stop offset="1" stop-color="#F84200"/>
</linearGradient>
<linearGradient id="paint10_linear_712_106" x1="23.1977" y1="9.88077" x2="22.0452" y2="5.26603" gradientUnits="userSpaceOnUse">
<stop stop-color="#F84200"/>
<stop offset="1" stop-color="#F96C13"/>
</linearGradient>
<linearGradient id="paint11_linear_712_106" x1="16.6463" y1="38.4616" x2="25.8237" y2="38.4616" gradientUnits="userSpaceOnUse">
<stop stop-color="#F84200"/>
<stop offset="1" stop-color="#F96C13"/>
</linearGradient>
<clipPath id="clip0_712_106">
<rect width="96" height="40" fill="white"/>
</clipPath>
</defs>
</svg>
