<svg width="210" height="40" viewBox="0 0 210 40" fill="none" xmlns="http://www.w3.org/2000/svg">
<g clip-path="url(#clip0_703_61)">
<path opacity="0.5" d="M24.7334 36.9082H23.1834L16.5417 10.3249L17.7751 9.08325L24.7334 36.9082Z" fill="#4A5568"/>
<path d="M52.3751 12.175H37.3501V15.4167H42.9501V30.75H46.7751V15.4167H52.3751V12.175Z" fill="#4A5568"/>
<path d="M63.4749 18.3999C62.8915 17.8166 62.1999 17.3749 61.4165 17.0833C60.6332 16.7916 59.7915 16.6416 58.8832 16.6416C57.5332 16.6416 56.3665 16.9416 55.3665 17.5499C54.3665 18.1583 53.5999 18.9999 53.0499 20.0833C52.4999 21.1666 52.2249 22.4249 52.2249 23.8583C52.2249 25.3249 52.4999 26.5999 53.0499 27.6749C53.5999 28.7499 54.3832 29.5749 55.3915 30.1583C56.4082 30.7416 57.6249 31.0333 59.0332 31.0333C60.1665 31.0333 61.1665 30.8583 62.0332 30.4999C62.8999 30.1499 63.6082 29.6499 64.1582 29.0166C64.7082 28.3749 65.0749 27.6333 65.2499 26.7749L61.7332 26.5416C61.5999 26.8916 61.4082 27.1916 61.1582 27.4333C60.9082 27.6749 60.6082 27.8583 60.2582 27.9749C59.9082 28.0999 59.5165 28.1583 59.0999 28.1583C58.4665 28.1583 57.9082 28.0249 57.4499 27.7499C56.9832 27.4749 56.6249 27.0916 56.3749 26.5916C56.1249 26.0916 55.9915 25.4916 55.9915 24.8083V24.7999H65.3332V23.7416C65.3332 22.5583 65.1665 21.5249 64.8415 20.6333C64.5249 19.7166 64.0665 18.9833 63.4749 18.3999ZM55.9999 22.3749C56.0249 21.8749 56.1415 21.4166 56.3749 20.9999C56.6249 20.5499 56.9749 20.1916 57.4165 19.9249C57.8582 19.6583 58.3749 19.5249 58.9499 19.5249C59.4999 19.5249 59.9915 19.6499 60.4082 19.8916C60.8249 20.1333 61.1582 20.4749 61.3915 20.8999C61.6332 21.3333 61.7499 21.8249 61.7499 22.3749H55.9999Z" fill="#4A5568"/>
<path d="M83.4418 16.6416C82.4335 16.6416 81.5668 16.8833 80.8252 17.3583C80.0918 17.8416 79.5835 18.4749 79.3002 19.2749H79.1668C78.9502 18.4666 78.5085 17.8249 77.8418 17.3499C77.1835 16.8749 76.3835 16.6416 75.4418 16.6416C74.5168 16.6416 73.7168 16.8749 73.0502 17.3499C72.3835 17.8249 71.9085 18.4666 71.6168 19.2833H71.4585V16.8249H67.8335V30.7499H71.6418V22.3833C71.6418 21.8666 71.7418 21.4166 71.9335 21.0333C72.1335 20.6499 72.4002 20.3499 72.7335 20.1333C73.0668 19.9166 73.4502 19.8083 73.8752 19.8083C74.5002 19.8083 75.0085 20.0083 75.3918 20.4166C75.7752 20.8249 75.9668 21.3666 75.9668 22.0499V30.7499H79.6585V22.2416C79.6585 21.5166 79.8502 20.9333 80.2418 20.4833C80.6252 20.0416 81.1668 19.8166 81.8585 19.8166C82.4668 19.8166 82.9752 20.0083 83.3752 20.3999C83.7835 20.7833 83.9835 21.3666 83.9835 22.1416V30.7499H87.7835V21.3833C87.7835 19.8749 87.3835 18.6999 86.5835 17.8749C85.7668 17.0499 84.7252 16.6416 83.4418 16.6416Z" fill="#4A5568"/>
<path d="M101.367 17.4333C100.525 16.9083 99.5999 16.6416 98.5999 16.6416C97.8332 16.6416 97.1915 16.7749 96.6749 17.0333C96.1582 17.2999 95.7415 17.6249 95.4249 18.0166C95.1082 18.4083 94.8665 18.7916 94.6999 19.1666H94.5332V16.8249H90.7832V35.9749H94.5915V28.5249H94.7082C94.8832 28.9083 95.1332 29.2916 95.4582 29.6749C95.7832 30.0499 96.2082 30.3666 96.7249 30.6166C97.2415 30.8666 97.8665 30.9916 98.6082 30.9916C99.6499 30.9916 100.592 30.7166 101.433 30.1749C102.275 29.6249 102.942 28.8249 103.433 27.7499C103.925 26.6833 104.167 25.3749 104.167 23.8166C104.167 22.2166 103.917 20.8916 103.408 19.8333C102.883 18.7583 102.208 17.9583 101.367 17.4333ZM99.9332 25.9249C99.7082 26.5416 99.3832 27.0249 98.9582 27.3749C98.5332 27.7249 98.0082 27.8999 97.3832 27.8999C96.7665 27.8999 96.2499 27.7249 95.8165 27.3916C95.3832 27.0583 95.0582 26.5666 94.8332 25.9583C94.6082 25.3416 94.4915 24.6166 94.4915 23.7916C94.4915 22.9666 94.6082 22.2416 94.8332 21.6333C95.0582 21.0249 95.3832 20.5499 95.8082 20.2166C96.2332 19.8833 96.7582 19.7166 97.3749 19.7166C97.9999 19.7166 98.5249 19.8916 98.9582 20.2333C99.3832 20.5749 99.7082 21.0583 99.9332 21.6666C100.15 22.2749 100.267 22.9833 100.267 23.7916C100.267 24.5916 100.158 25.3083 99.9332 25.9249Z" fill="#4A5568"/>
<path d="M110.492 12.175H106.683V30.75H110.492V12.175Z" fill="#4A5568"/>
<path d="M124.217 18.3999C123.633 17.8166 122.942 17.3749 122.158 17.0833C121.375 16.7916 120.533 16.6416 119.625 16.6416C118.275 16.6416 117.108 16.9416 116.108 17.5499C115.108 18.1583 114.342 18.9999 113.792 20.0833C113.242 21.1666 112.967 22.4249 112.967 23.8583C112.967 25.3249 113.242 26.5999 113.792 27.6749C114.342 28.7499 115.125 29.5749 116.133 30.1583C117.15 30.7416 118.367 31.0333 119.775 31.0333C120.908 31.0333 121.908 30.8583 122.775 30.4999C123.642 30.1499 124.35 29.6499 124.9 29.0166C125.45 28.3749 125.817 27.6333 125.992 26.7749L122.475 26.5416C122.342 26.8916 122.15 27.1916 121.9 27.4333C121.65 27.6749 121.35 27.8583 121 27.9749C120.65 28.0999 120.258 28.1583 119.842 28.1583C119.208 28.1583 118.65 28.0249 118.192 27.7499C117.725 27.4749 117.367 27.0916 117.117 26.5916C116.867 26.0916 116.733 25.4916 116.733 24.8083V24.7999H126.075V23.7416C126.075 22.5583 125.908 21.5249 125.583 20.6333C125.258 19.7166 124.8 18.9833 124.217 18.3999ZM116.742 22.3749C116.767 21.8749 116.883 21.4166 117.117 20.9999C117.367 20.5499 117.717 20.1916 118.158 19.9249C118.6 19.6583 119.117 19.5249 119.692 19.5249C120.242 19.5249 120.733 19.6499 121.15 19.8916C121.567 20.1333 121.9 20.4749 122.133 20.8999C122.375 21.3333 122.492 21.8249 122.492 22.3749H116.742Z" fill="#4A5568"/>
<path d="M154.242 12.175L151.208 25.1084H151.05L147.717 12.175H144.1L140.758 25.0834H140.608L137.575 12.175H133.35L138.583 30.75H142.358L145.833 18.6084H145.975L149.458 30.75H153.233L158.467 12.175H154.242Z" fill="#4A5568"/>
<path d="M168.85 17.75C168.308 17.3666 167.683 17.0916 166.983 16.9083C166.283 16.725 165.55 16.6333 164.792 16.6333C163.692 16.6333 162.733 16.8 161.9 17.1333C161.067 17.4666 160.392 17.95 159.867 18.5666C159.342 19.1833 158.992 19.9166 158.808 20.7666L162.325 21.0583C162.458 20.6 162.725 20.2166 163.133 19.9083C163.542 19.6 164.083 19.45 164.767 19.45C165.417 19.45 165.917 19.6083 166.275 19.925C166.633 20.2416 166.808 20.6833 166.808 21.2583V21.3166C166.808 21.6166 166.7 21.8333 166.475 21.9916C166.258 22.1416 165.9 22.2583 165.408 22.3333C164.917 22.4083 164.275 22.4916 163.475 22.575C162.8 22.6416 162.15 22.7583 161.533 22.9166C160.917 23.0833 160.367 23.325 159.883 23.6416C159.4 23.9583 159.017 24.3833 158.742 24.9083C158.458 25.4333 158.325 26.0833 158.325 26.8583C158.325 27.775 158.525 28.5416 158.917 29.1583C159.317 29.775 159.85 30.2333 160.542 30.55C161.225 30.8583 162.008 31.0166 162.883 31.0166C163.558 31.0166 164.158 30.925 164.675 30.7416C165.192 30.5583 165.633 30.3 166.008 29.9666C166.375 29.6333 166.675 29.2583 166.892 28.8166H167V30.75H170.608V21.35C170.608 20.525 170.45 19.8083 170.133 19.2166C169.825 18.625 169.4 18.1333 168.85 17.75ZM166.842 25.7666C166.842 26.2583 166.717 26.6916 166.475 27.0833C166.233 27.4666 165.892 27.775 165.467 28C165.042 28.225 164.542 28.3416 163.983 28.3416C163.4 28.3416 162.917 28.2 162.542 27.925C162.167 27.65 161.975 27.25 161.975 26.725C161.975 26.3583 162.067 26.0583 162.25 25.8166C162.433 25.575 162.692 25.375 163.025 25.2333C163.358 25.0916 163.75 24.9833 164.192 24.9166C164.4 24.8833 164.633 24.85 164.892 24.8083C165.15 24.7666 165.4 24.725 165.658 24.675C165.917 24.625 166.142 24.5666 166.35 24.5C166.558 24.4333 166.717 24.3666 166.833 24.2833V25.7666H166.842Z" fill="#4A5568"/>
<path d="M177.383 12.175H173.575V30.75H177.383V12.175Z" fill="#4A5568"/>
<path d="M184.225 12.175H180.417V30.75H184.225V12.175Z" fill="#4A5568"/>
<path d="M198.1 18.4002C197.517 17.8168 196.825 17.3752 196.042 17.0835C195.258 16.7918 194.417 16.6418 193.508 16.6418C192.158 16.6418 190.992 16.9418 189.992 17.5502C188.992 18.1585 188.225 19.0002 187.675 20.0835C187.125 21.1668 186.85 22.4252 186.85 23.8585C186.85 25.3252 187.125 26.6002 187.675 27.6752C188.225 28.7502 189.008 29.5752 190.017 30.1585C191.033 30.7418 192.25 31.0335 193.658 31.0335C194.792 31.0335 195.792 30.8585 196.658 30.5002C197.525 30.1502 198.233 29.6502 198.783 29.0168C199.333 28.3752 199.7 27.6335 199.875 26.7752L196.358 26.5418C196.225 26.8918 196.033 27.1918 195.783 27.4335C195.533 27.6752 195.233 27.8585 194.883 27.9752C194.533 28.1002 194.142 28.1585 193.725 28.1585C193.092 28.1585 192.533 28.0252 192.075 27.7502C191.608 27.4752 191.25 27.0918 191 26.5918C190.75 26.0918 190.617 25.4918 190.617 24.8085V24.8002H199.958V23.7418C199.958 22.5585 199.792 21.5252 199.467 20.6335C199.15 19.7168 198.692 18.9835 198.1 18.4002ZM190.625 22.3752C190.65 21.8752 190.767 21.4168 191 21.0002C191.25 20.5502 191.6 20.1918 192.042 19.9252C192.483 19.6585 193 19.5252 193.575 19.5252C194.125 19.5252 194.617 19.6502 195.033 19.8918C195.45 20.1335 195.783 20.4752 196.017 20.9002C196.258 21.3335 196.375 21.8252 196.375 22.3752H190.625Z" fill="#4A5568"/>
<path d="M209.4 27.7001C209.308 27.7168 209.167 27.7418 208.992 27.7751C208.817 27.8084 208.633 27.8251 208.458 27.8251C208.2 27.8251 207.975 27.7834 207.783 27.7084C207.592 27.6334 207.442 27.4918 207.333 27.2918C207.225 27.0918 207.175 26.8168 207.175 26.4584V19.7084H209.758V16.8084H207.175V13.4751H203.367V16.8084H201.492V19.7084H203.367V26.9668C203.358 27.8834 203.55 28.6334 203.933 29.2334C204.317 29.8334 204.85 30.2751 205.533 30.5584C206.217 30.8418 207.025 30.9668 207.942 30.9334C208.433 30.9168 208.858 30.8668 209.2 30.7834C209.542 30.7001 209.817 30.6334 210.008 30.5668L209.4 27.7001Z" fill="#4A5568"/>
<path d="M21.5416 12.3083H27.6916L24.6166 0H3.07495L6.14995 12.3083H12.3083L15.3833 24.6167H11.5416L13.075 30.7667H16.925L18.4583 36.925H27.6916L21.5416 12.3083Z" fill="url(#paint0_linear_703_61)"/>
<path d="M24.6167 15.3834H22.3084L21.5417 12.3083H27.6917L24.6167 15.3834Z" fill="url(#paint1_linear_703_61)"/>
<path d="M21.5417 6.15003H7.69168L7.30835 4.6167H22.6917L21.5417 6.15003Z" fill="url(#paint2_linear_703_61)"/>
<path d="M3.075 15.3833L0 3.075L3.075 0L6.15 12.3083L3.075 15.3833Z" fill="url(#paint3_linear_703_61)"/>
<path d="M16.925 30.7666H13.075L10 33.8499H13.85L16.925 30.7666Z" fill="url(#paint4_linear_703_61)"/>
<path d="M9.23328 15.3834H3.07495L6.14995 12.3083H12.3083L9.23328 15.3834Z" fill="url(#paint5_linear_703_61)"/>
<path d="M15.3834 24.6167H11.5417L9.2334 15.3834L12.3084 12.3083L15.3834 24.6167Z" fill="url(#paint6_linear_703_61)"/>
<path d="M13.0749 30.7667L11.5416 24.6167L8.45825 27.6917L9.99992 33.85L13.0749 30.7667Z" fill="url(#paint7_linear_703_61)"/>
<path d="M18.4584 36.9249L16.9251 30.7666L13.8501 33.8499L15.3834 39.9999L18.4584 36.9249Z" fill="url(#paint8_linear_703_61)"/>
<path d="M24.6168 36.9251L17.6918 9.2334L16.4585 10.4584L23.0752 36.9251L21.8502 38.1501H23.3835L24.6168 36.9251Z" fill="url(#paint9_linear_703_61)"/>
<path d="M23.8501 9.23337H22.3084L21.5417 6.15003L22.6917 4.6167L23.8501 9.23337Z" fill="url(#paint10_linear_703_61)"/>
<path d="M24.6166 36.925L23.3833 38.15H21.85L23.075 36.925H18.4583L15.3833 40H24.6166L27.6916 36.925H24.6166Z" fill="url(#paint11_linear_703_61)"/>
</g>
<defs>
<linearGradient id="paint0_linear_703_61" x1="3.07688" y1="18.4615" x2="27.6923" y2="18.4615" gradientUnits="userSpaceOnUse">
<stop offset="0.00188079" stop-color="#FCC33C"/>
<stop offset="1" stop-color="#FFEE50"/>
</linearGradient>
<linearGradient id="paint1_linear_703_61" x1="27.6924" y1="13.8462" x2="21.5385" y2="13.8462" gradientUnits="userSpaceOnUse">
<stop stop-color="#FB9828"/>
<stop offset="1" stop-color="#F96C13"/>
</linearGradient>
<linearGradient id="paint2_linear_703_61" x1="22.6942" y1="5.38465" x2="7.30771" y2="5.38465" gradientUnits="userSpaceOnUse">
<stop stop-color="#F84200"/>
<stop offset="1" stop-color="#F96C13"/>
</linearGradient>
<linearGradient id="paint3_linear_703_61" x1="1.27127" y1="0.4502" x2="4.88258" y2="14.9344" gradientUnits="userSpaceOnUse">
<stop stop-color="#F96C13"/>
<stop offset="1" stop-color="#FB9828"/>
</linearGradient>
<linearGradient id="paint4_linear_703_61" x1="9.99998" y1="32.3076" x2="16.9231" y2="32.3076" gradientUnits="userSpaceOnUse">
<stop stop-color="#F84200"/>
<stop offset="1" stop-color="#F96C13"/>
</linearGradient>
<linearGradient id="paint5_linear_703_61" x1="3.07688" y1="13.8462" x2="12.3076" y2="13.8462" gradientUnits="userSpaceOnUse">
<stop stop-color="#F84200"/>
<stop offset="1" stop-color="#F96C13"/>
</linearGradient>
<linearGradient id="paint6_linear_703_61" x1="13.5712" y1="25.0675" x2="10.5021" y2="12.7579" gradientUnits="userSpaceOnUse">
<stop stop-color="#F96C13"/>
<stop offset="1" stop-color="#FB9828"/>
</linearGradient>
<linearGradient id="paint7_linear_703_61" x1="11.8075" y1="33.3955" x2="9.73078" y2="25.0661" gradientUnits="userSpaceOnUse">
<stop stop-color="#FB9828"/>
<stop offset="1" stop-color="#F96C13"/>
</linearGradient>
<linearGradient id="paint8_linear_703_61" x1="17.1923" y1="39.5492" x2="15.1156" y2="31.2199" gradientUnits="userSpaceOnUse">
<stop stop-color="#F96C13"/>
<stop offset="1" stop-color="#FB9828"/>
</linearGradient>
<linearGradient id="paint9_linear_703_61" x1="23.3843" y1="38.1535" x2="16.262" y2="9.58751" gradientUnits="userSpaceOnUse">
<stop stop-color="#F96C13"/>
<stop offset="1" stop-color="#F84200"/>
</linearGradient>
<linearGradient id="paint10_linear_703_61" x1="23.238" y1="9.88077" x2="22.0872" y2="5.26509" gradientUnits="userSpaceOnUse">
<stop stop-color="#F84200"/>
<stop offset="1" stop-color="#F96C13"/>
</linearGradient>
<linearGradient id="paint11_linear_703_61" x1="16.6752" y1="38.4616" x2="25.8685" y2="38.4616" gradientUnits="userSpaceOnUse">
<stop stop-color="#F84200"/>
<stop offset="1" stop-color="#F96C13"/>
</linearGradient>
<clipPath id="clip0_703_61">
<rect width="210" height="40" fill="white"/>
</clipPath>
</defs>
</svg>
