<svg width="16" height="16" viewBox="0 0 16 16" fill="none" xmlns="http://www.w3.org/2000/svg">
  <path
    fill-rule="evenodd"
    clip-rule="evenodd"
    d="M9.41383 0.798519C8.96023 0.657087 8.48395 0.583252 8.00006 0.583252C6.74028 0.583252 5.5321 1.0837 4.6413 1.97449C3.7505 2.86529 3.25006 4.07347 3.25006 5.33325C3.25006 7.55608 2.77476 8.93006 2.34164 9.72411C2.12404 10.123 1.91298 10.3833 1.76809 10.5362C1.69546 10.6129 1.63893 10.6631 1.60586 10.6907C1.58931 10.7045 1.5786 10.7126 1.57466 10.7155L1.5742 10.7159C1.30613 10.9007 1.18762 11.2381 1.28224 11.5506C1.37801 11.8669 1.66956 12.0833 2.00006 12.0833H14.0001C14.3306 12.0833 14.6221 11.8669 14.7179 11.5506C14.8125 11.2381 14.694 10.9008 14.4259 10.7159L14.4272 10.7168C14.4272 10.7168 14.4268 10.7166 14.4262 10.7161L14.4225 10.7136L14.4197 10.7116L14.418 10.7105L14.417 10.7099L14.4098 10.7034C14.4176 10.7096 14.4229 10.7137 14.4255 10.7155L14.2813 10.5868C14.2659 10.5714 14.2494 10.5546 14.232 10.5362C14.0871 10.3833 13.8761 10.123 13.6585 9.72411C13.2254 8.93006 12.7501 7.55608 12.7501 5.33325C12.7501 5.16201 12.7408 4.99173 12.7226 4.82307C12.4202 4.93742 12.0924 5 11.75 5C11.5713 5 11.3966 4.98296 11.2274 4.95041C11.2424 5.07684 11.2501 5.20465 11.2501 5.33325C11.2501 6.41443 11.3528 7.33555 11.5164 8.1166L5.76251 2.97616C6.36561 2.40361 7.16632 2.08325 8.00006 2.08325C8.34278 2.08325 8.67991 2.13739 9.00003 2.24091C9.00175 1.71155 9.15303 1.2174 9.41383 0.798519ZM11.0984 4.35188C10.9424 3.85968 10.67 3.407 10.2982 3.03515C10.0783 2.81527 9.83012 2.63015 9.56225 2.48332C9.55416 2.40665 9.55002 2.32881 9.55002 2.25C9.55002 1.78476 9.69443 1.35325 9.94088 0.99785C10.4641 1.23209 10.9456 1.5613 11.3588 1.97449C11.9939 2.60958 12.4306 3.40599 12.6289 4.26741C12.3597 4.38486 12.0625 4.45 11.75 4.45C11.5231 4.45 11.3043 4.41566 11.0984 4.35188ZM5.76239 2.97627L11.5167 8.11818C11.7229 9.10181 12.0257 9.86321 12.3416 10.4424C12.368 10.4907 12.3944 10.5376 12.4207 10.5833H3.57937C3.60576 10.5376 3.63215 10.4907 3.65848 10.4424C4.22536 9.40311 4.75006 7.77709 4.75006 5.33325C4.75006 4.4713 5.09247 3.64465 5.70196 3.03515C5.72188 3.01524 5.74202 2.99561 5.76239 2.97627ZM5.76239 2.97627L4.6413 1.97449L5.76251 2.97616C5.76247 2.9762 5.76243 2.97624 5.76239 2.97627ZM11.5167 8.11818L14.3015 10.6066C14.341 10.645 14.3727 10.6727 14.3943 10.6907C14.4002 10.6956 14.4054 10.6999 14.4098 10.7034L14.3015 10.6066C14.295 10.6003 14.2883 10.5937 14.2813 10.5868L11.5164 8.1166C11.5165 8.11713 11.5166 8.11765 11.5167 8.11818Z"
    stroke="none"
  />
  <path
    d="M9.15335 14C9.03614 14.2021 8.86791 14.3698 8.6655 14.4864C8.46309 14.6029 8.2336 14.6643 8.00001 14.6643C7.76643 14.6643 7.53694 14.6029 7.33453 14.4864C7.13212 14.3698 6.96389 14.2021 6.84668 14"
    fill="none"
    stroke-width="1.5"
    stroke-linecap="round"
    stroke-linejoin="round"
  />
  <path
    d="M13.9498 2.25005C13.9498 3.46508 12.9648 4.45005 11.7498 4.45005C10.5348 4.45005 9.5498 3.46508 9.5498 2.25005C9.5498 1.03502 10.5348 0.0500488 11.7498 0.0500488C12.9648 0.0500488 13.9498 1.03502 13.9498 2.25005Z"
    fill="#FF3B30"
    stroke="none"
  />
</svg>
