<svg width="16" height="16" viewBox="0 0 16 16" fill="none" xmlns="http://www.w3.org/2000/svg">
  <path d="M7.57414 14.6496V1.34961H8.42617V14.6496H7.57414ZM10.442 5.33961C10.3796 4.81315 10.1268 4.40445 9.68344 4.11352C9.2401 3.82258 8.69633 3.67711 8.05211 3.67711C7.58107 3.67711 7.16891 3.75331 6.81562 3.9057C6.46581 4.0581 6.19219 4.26764 5.99477 4.53434C5.80081 4.80103 5.70383 5.10409 5.70383 5.44352C5.70383 5.72753 5.77137 5.97171 5.90644 6.17605C6.04499 6.37694 6.22163 6.54492 6.43637 6.68C6.65111 6.81161 6.87624 6.92072 7.11176 7.00731C7.34728 7.09043 7.56375 7.15797 7.76117 7.20992L8.8418 7.50086C9.11888 7.57359 9.42713 7.67404 9.76656 7.80219C10.1095 7.93034 10.4368 8.10525 10.7485 8.32691C11.0637 8.54512 11.3234 8.82566 11.5278 9.16856C11.7321 9.51145 11.8343 9.93227 11.8343 10.431C11.8343 11.006 11.6836 11.5255 11.3823 11.9896C11.0844 12.4537 10.648 12.8226 10.0731 13.0962C9.5016 13.3698 8.80716 13.5066 7.98976 13.5066C7.22779 13.5066 6.56798 13.3837 6.01035 13.1378C5.45618 12.8919 5.01978 12.549 4.70113 12.1091C4.38595 11.6692 4.20758 11.1584 4.16602 10.5765H5.49602C5.53065 10.9783 5.66573 11.3108 5.90125 11.574C6.14023 11.8338 6.44156 12.0277 6.80523 12.1559C7.17237 12.2805 7.56721 12.3429 7.98976 12.3429C8.48159 12.3429 8.92319 12.2632 9.31457 12.1039C9.70595 11.9411 10.0159 11.716 10.2445 11.4285C10.4731 11.1376 10.5874 10.7982 10.5874 10.4102C10.5874 10.057 10.4887 9.76948 10.2913 9.54781C10.0939 9.32615 9.8341 9.14604 9.51199 9.0075C9.18988 8.86896 8.8418 8.74774 8.46773 8.64383L7.15852 8.26977C6.32727 8.03078 5.66919 7.68962 5.1843 7.24629C4.6994 6.80296 4.45695 6.22281 4.45695 5.50586C4.45695 4.91013 4.61801 4.3906 4.94012 3.94727C5.26569 3.50047 5.7021 3.15411 6.24934 2.9082C6.80004 2.65883 7.41482 2.53414 8.09367 2.53414C8.77945 2.53414 9.38904 2.6571 9.92242 2.90301C10.4558 3.14546 10.8784 3.47796 11.1901 3.90051C11.5053 4.32306 11.6715 4.80276 11.6888 5.33961H10.442Z" fill="currentColor" />
</svg>
