<svg viewBox="0 0 16 15" xmlns="http://www.w3.org/2000/svg">
  <path
    stroke="none"
    d="M0.788086 5.67676H1.75195C2.40137 2.45703 5.2793 0.00292969 8.66992 0.00292969C12.5391 0.00292969 15.7314 3.20215 15.7314 7.06445C15.7314 10.9336 12.5391 14.126 8.66992 14.126C6.45508 14.126 4.38379 13.0117 3.11914 11.3574C2.81836 10.9951 2.87988 10.5576 3.19434 10.332C3.5293 10.0928 3.92578 10.1953 4.19922 10.5166C5.23145 11.8701 6.83789 12.7314 8.66992 12.7383C11.8213 12.7451 14.3438 10.209 14.3438 7.06445C14.3438 3.91992 11.8213 1.39746 8.66992 1.39746C6.00391 1.39746 3.78223 3.20898 3.17383 5.67676H4.1582C4.68457 5.67676 4.82129 6.08008 4.53418 6.46973L2.87988 8.77344C2.6543 9.08789 2.29883 9.09473 2.06641 8.77344L0.412109 6.47656C0.118164 6.07324 0.254883 5.67676 0.788086 5.67676ZM8.41016 2.9834C8.76562 2.9834 9.05957 3.27051 9.05957 3.62598V7.24902L10.6729 9.43652C10.9121 9.77148 10.8916 10.1611 10.584 10.373C10.249 10.5986 9.87988 10.5371 9.60645 10.1816L7.95215 7.99414C7.81543 7.82324 7.76758 7.66602 7.76758 7.50195V3.62598C7.76758 3.27051 8.05469 2.9834 8.41016 2.9834Z"
  />
</svg>
