<svg viewBox="0 0 17 16" xmlns="http://www.w3.org/2000/svg">
  <path
    stroke="none"
    d="M6.99316 7.0918C5.33887 7.0918 3.99902 5.63574 3.99902 3.84473C3.99902 2.08105 5.33887 0.679687 6.99316 0.679687C8.63379 0.679687 9.9873 2.10156 9.98047 3.8584C9.98047 5.64258 8.64063 7.0918 6.99316 7.0918ZM6.99316 5.90918C7.94336 5.90918 8.74316 5.01367 8.74316 3.8584C8.75 2.73047 7.9502 1.8623 6.99316 1.8623C6.0293 1.8623 5.24316 2.7168 5.24316 3.84473C5.24316 5 6.03613 5.90918 6.99316 5.90918ZM8.52441 13.4492L2.73438 13.4492C1.55176 13.4492 0.984375 13.0732 0.984375 12.2734C0.984375 10.4072 3.3291 7.8916 6.99316 7.8916C8.18945 7.8916 9.24219 8.1582 10.1104 8.5957C9.78223 8.8623 9.48828 9.16992 9.24902 9.51855C8.62012 9.24512 7.86133 9.07422 6.99316 9.07422C3.97852 9.07422 2.2832 11.043 2.2832 12.0889C2.2832 12.2187 2.34473 12.2666 2.50879 12.2666L8.33301 12.2666C8.33984 12.6836 8.39453 13.0527 8.52441 13.4492ZM12.8242 15.6846C10.8965 15.6846 9.30371 14.0986 9.30371 12.1641C9.30371 10.2432 10.8965 8.65039 12.8242 8.65039C14.752 8.65039 16.3379 10.2363 16.3379 12.1641C16.3379 14.085 14.7314 15.6846 12.8242 15.6846ZM12.8242 14.3994C13.1045 14.3994 13.2891 14.208 13.2891 13.9346V12.6357H14.5811C14.8613 12.6357 15.0459 12.4512 15.0459 12.1709C15.0459 11.8838 14.8613 11.6992 14.5811 11.6992H13.2891V10.4072C13.2891 10.127 13.1045 9.94238 12.8242 9.94238C12.5371 9.94238 12.3594 10.1338 12.3594 10.4072V11.6992H11.0605C10.7803 11.6992 10.5957 11.8838 10.5957 12.1709C10.5957 12.4512 10.7803 12.6357 11.0605 12.6357H12.3594V13.9346C12.3594 14.208 12.5371 14.3994 12.8242 14.3994Z"
  />
</svg>
