<svg width="32" height="32" viewBox="0 0 32 32" fill="none" xmlns="http://www.w3.org/2000/svg">
<path d="M3.31914 18.6145C1.57082 16.8794 1.55824 15.1316 3.29399 13.3965L13.4066 3.29981C15.1424 1.56464 16.8907 1.56464 18.639 3.31238L28.7013 13.3839C30.4371 15.1191 30.4245 16.8794 28.7139 18.602L18.6139 28.7112C16.8907 30.4338 15.1298 30.4338 13.394 28.686L3.31914 18.6145ZM4.426 17.5458L14.4506 27.5796C15.4442 28.5603 16.5259 28.5854 17.5573 27.5544L27.5693 17.5583C28.5881 16.5399 28.563 15.446 27.5693 14.4526L17.5447 4.43144C16.5385 3.42554 15.4694 3.41297 14.4506 4.44401L4.43858 14.4526C3.41977 15.4711 3.41977 16.5524 4.426 17.5458ZM10.2873 15.9992C10.2873 15.5088 10.6269 15.1693 11.1174 15.1693H15.1927V11.0955C15.1927 10.6177 15.5323 10.2656 15.9851 10.2656C16.4756 10.2656 16.8152 10.6051 16.8152 11.0955V15.1693H20.903C21.381 15.1693 21.7206 15.5088 21.7206 15.9992C21.7206 16.4519 21.381 16.7913 20.903 16.7913H16.8152V20.8778C16.8152 21.3556 16.4756 21.6951 15.9851 21.6951C15.5323 21.6951 15.1927 21.3556 15.1927 20.8778V16.7913H11.1174C10.6395 16.7913 10.2873 16.4519 10.2873 15.9992Z" />
</svg>
