<svg width="24" height="24" viewBox="0 0 24 24" fill="none" xmlns="http://www.w3.org/2000/svg">
  <path d="M10.29 3.86118L1.82002 18.0012C1.64539 18.3036 1.55299 18.6465 1.55201 18.9957C1.55103 19.3449 1.64151 19.6883 1.81445 19.9917C1.98738 20.2951 2.23675 20.5479 2.53773 20.725C2.83871 20.9021 3.18082 20.9973 3.53002 21.0012H20.47C20.8192 20.9973 21.1613 20.9021 21.4623 20.725C21.7633 20.5479 22.0127 20.2951 22.1856 19.9917C22.3585 19.6883 22.449 19.3449 22.448 18.9957C22.4471 18.6465 22.3547 18.3036 22.18 18.0012L13.71 3.86118C13.5318 3.56729 13.2807 3.3243 12.9812 3.15567C12.6817 2.98703 12.3438 2.89844 12 2.89844C11.6563 2.89844 11.3184 2.98703 11.0188 3.15567C10.7193 3.3243 10.4683 3.56729 10.29 3.86118V3.86118Z" stroke="current" stroke-width="1.5" stroke-linecap="round" stroke-linejoin="round"/>
  <path d="M12 9V13" stroke="current" stroke-width="1.5" stroke-linecap="round" stroke-linejoin="round"/>
  <path d="M12 17H12.01" stroke="current" stroke-width="1.5" stroke-linecap="round" stroke-linejoin="round"/>
</svg>
