<svg width="32" height="23" viewBox="0 0 32 23" fill="none" xmlns="http://www.w3.org/2000/svg">
<g clip-path="url(#clip0_5392_48414)">
<path fill-rule="evenodd" clip-rule="evenodd" d="M23.3556 17.4605C18.6825 17.4605 14.8945 13.5921 14.8945 8.8197V0.189453H23.3556C28.0287 0.189453 31.8166 4.05784 31.8166 8.83023C31.8166 13.5921 28.0287 17.4605 23.3556 17.4605Z" fill="#18FFFF"/>
<path fill-rule="evenodd" clip-rule="evenodd" d="M8.46105 0C13.1342 0 16.9221 3.86838 16.9221 8.64078V17.2816H8.46105C3.78792 17.2816 0 13.4132 0 8.64078C0 3.86838 3.78792 0 8.46105 0Z" fill="#EF4747"/>
<path fill-rule="evenodd" clip-rule="evenodd" d="M16.9218 14.4224C15.666 12.9193 14.9043 10.964 14.9043 8.81961V3.03809C16.1601 4.54129 16.9218 6.49651 16.9218 8.64093V14.4224Z" fill="#860EB5"/>
<path fill-rule="evenodd" clip-rule="evenodd" d="M25.2902 19.9516L25.5372 20.6454H25.8872C26.3092 20.6664 26.6489 21.0343 26.6489 21.4758C26.6489 21.9278 26.2886 22.2852 25.8563 22.2852C25.4343 22.2852 25.0843 21.9488 25.0637 21.5179V21.4758V18.9004H24.3535V21.4758C24.3535 22.3063 25.0431 22.979 25.8563 22.979C26.6592 22.979 27.3179 22.3273 27.3282 21.5073C27.3282 21.4968 27.3282 21.4863 27.3282 21.4758C27.3282 20.6769 26.8342 20.0041 26.0004 19.9516C25.9489 19.9516 25.8975 19.9411 25.846 19.9411L25.2902 19.9516Z" fill="black"/>
<path fill-rule="evenodd" clip-rule="evenodd" d="M15.7285 22.3796L15.1005 22.0958C15.0285 22.1799 14.9461 22.2535 14.8432 22.2956C14.7506 22.3271 14.6477 22.3376 14.5447 22.3376C14.4315 22.3376 14.3183 22.3166 14.2153 22.2535C14.1227 22.201 14.0404 22.1274 13.9683 22.0433C13.8963 21.9592 13.8448 21.8646 13.8139 21.77C13.783 21.6753 13.7624 21.5808 13.7624 21.4756C13.7624 21.36 13.783 21.2444 13.8242 21.1287C13.8653 21.0236 13.9168 20.929 13.9889 20.8554C14.0609 20.7818 14.1433 20.7188 14.2462 20.6767C14.3491 20.6347 14.4521 20.6031 14.555 20.6031C14.73 20.6031 14.8947 20.6557 15.0285 20.7713C15.1623 20.8765 15.2447 21.0236 15.3064 21.1813H14.0918L14.2977 21.791H16.0064C16.027 21.6859 16.0372 21.5808 16.0372 21.4756C16.0372 21.2654 15.9961 21.0762 15.924 20.8869C15.852 20.7083 15.7388 20.5401 15.6049 20.4034C15.4711 20.2668 15.3064 20.1511 15.1314 20.0776C14.9461 19.9935 14.7609 19.9619 14.555 19.9619C14.3491 19.9619 14.1536 20.004 13.9683 20.0776C13.7933 20.1511 13.6286 20.2668 13.4948 20.4034C13.361 20.5401 13.2478 20.7083 13.1757 20.8869C13.0934 21.0762 13.0625 21.2759 13.0625 21.4756C13.0625 21.6753 13.1037 21.8751 13.1757 22.0643C13.2478 22.243 13.361 22.4112 13.4948 22.5478C13.6286 22.6845 13.7933 22.7896 13.9683 22.8737C14.1536 22.9578 14.3491 22.9893 14.555 22.9893C14.7918 22.9893 15.0182 22.9368 15.2344 22.8211C15.4196 22.7055 15.5946 22.5584 15.7285 22.3796Z" fill="black"/>
<path fill-rule="evenodd" clip-rule="evenodd" d="M12.3828 21.8648C12.3211 22.0014 12.2284 22.1171 12.1049 22.2012C11.9814 22.2853 11.8373 22.3273 11.6932 22.3273C11.5902 22.3273 11.477 22.3063 11.3844 22.2642C11.2917 22.2222 11.2094 22.1591 11.1374 22.0855C11.0653 22.0014 11.0138 21.9173 10.9726 21.8122C10.9315 21.7071 10.9109 21.5915 10.9109 21.4759C10.9109 21.3602 10.9315 21.2446 10.9726 21.1395C11.0138 21.0344 11.0653 20.9397 11.1374 20.8556C11.2094 20.7715 11.2917 20.7085 11.3844 20.6664C11.4873 20.6139 11.5902 20.5928 11.6932 20.5928C11.8476 20.5928 11.9917 20.6454 12.1152 20.74C12.2387 20.8346 12.3211 20.9503 12.3828 21.0869L12.9695 20.6979C12.8357 20.4772 12.6607 20.2985 12.4343 20.1724C12.2078 20.0357 11.9608 19.9727 11.6932 19.9727C11.4873 19.9727 11.302 20.0147 11.1167 20.0883C10.9418 20.1619 10.7771 20.2775 10.6433 20.4141C10.5095 20.5508 10.3962 20.719 10.3242 20.8977C10.2418 21.0869 10.2109 21.2761 10.2109 21.4863C10.2109 21.6966 10.2521 21.8858 10.3242 22.075C10.3962 22.2537 10.5095 22.4219 10.6433 22.5586C10.7771 22.6952 10.9418 22.8109 11.1167 22.8844C11.302 22.9685 11.4976 23.0001 11.6932 23.0001C11.9608 23.0001 12.2078 22.937 12.4343 22.8003C12.5166 22.7478 12.5887 22.6952 12.6607 22.6321C12.7843 22.527 12.8769 22.4009 12.9592 22.2642L12.3828 21.8648Z" fill="black"/>
<path fill-rule="evenodd" clip-rule="evenodd" d="M9.12988 18.9004V19.5416H9.84011V18.9004H9.12988Z" fill="black"/>
<path fill-rule="evenodd" clip-rule="evenodd" d="M9.12988 22.9367H9.84011V20.0039H9.12988V22.9367Z" fill="black"/>
<path fill-rule="evenodd" clip-rule="evenodd" d="M7.95703 18.9004V22.937H8.66729V18.9004H7.95703Z" fill="black"/>
<path fill-rule="evenodd" clip-rule="evenodd" d="M16.582 21.1812V21.7803H17.3437V21.1812H16.582Z" fill="black"/>
<path fill-rule="evenodd" clip-rule="evenodd" d="M22.5942 19.9517C22.3883 19.9517 22.203 19.9937 22.0177 20.0673C21.8428 20.1409 21.6781 20.2565 21.5442 20.3932C21.4104 20.5298 21.2972 20.698 21.2252 20.8767C21.0708 21.2446 21.0708 21.6861 21.2252 22.054C21.2972 22.2327 21.4104 22.4009 21.5442 22.5376C21.6781 22.6742 21.8428 22.7899 22.0177 22.8634C22.203 22.9475 22.3986 22.9791 22.5942 22.9791C22.8 22.9791 22.9853 22.937 23.1706 22.8634C23.3456 22.7899 23.5103 22.6742 23.6441 22.5376C23.7779 22.4009 23.8911 22.2327 23.9632 22.054C24.0455 21.8648 24.0764 21.6756 24.0764 21.4653C24.0764 21.2656 24.0352 21.0659 23.9632 20.8767C23.8911 20.698 23.7779 20.5298 23.6441 20.3932C23.5103 20.2565 23.3456 20.1409 23.1706 20.0673C22.9956 19.9937 22.8 19.9517 22.5942 19.9517ZM22.5942 22.3378C22.4912 22.3378 22.3986 22.3168 22.3059 22.2643C22.2133 22.2222 22.131 22.1486 22.0692 22.0751C21.9972 21.991 21.9457 21.8963 21.9148 21.7912C21.8736 21.6756 21.8531 21.56 21.8531 21.4443C21.8531 21.3287 21.8736 21.2131 21.9148 21.108C21.956 21.0028 22.0075 20.9187 22.0692 20.8346C22.1413 20.761 22.2133 20.698 22.3059 20.6454C22.3986 20.6034 22.4912 20.5718 22.5942 20.5718C22.6971 20.5718 22.7897 20.5929 22.8824 20.6454C22.975 20.6875 23.0471 20.7506 23.1191 20.8346C23.1912 20.9187 23.2426 21.0134 23.2735 21.108C23.3147 21.2131 23.3353 21.3287 23.3353 21.4443C23.3353 21.56 23.3147 21.6756 23.2735 21.7912C23.2324 21.8963 23.1809 21.991 23.1191 22.0751C23.0573 22.1592 22.975 22.2222 22.8824 22.2643C22.7897 22.3168 22.6971 22.3378 22.5942 22.3378Z" fill="black"/>
<path fill-rule="evenodd" clip-rule="evenodd" d="M6.69087 22.9368L6.4644 22.285H6.11444C5.69243 22.264 5.35274 21.9066 5.35274 21.4651C5.35274 21.0131 5.713 20.6452 6.15562 20.6452C6.57764 20.6452 6.90702 20.9816 6.92763 21.4126V21.4546V22.9158H7.63786V21.4546C7.63786 20.6137 6.96877 19.9409 6.14532 19.9409C5.35274 19.9409 4.694 20.5822 4.66309 21.3916V21.4021C4.66309 21.4126 4.66309 21.4126 4.66309 21.4231C4.66309 21.4336 4.66309 21.4441 4.66309 21.4546C4.66309 21.4651 4.66309 21.4757 4.66309 21.4967C4.66309 21.5072 4.66309 21.5177 4.66309 21.5387C4.66309 21.5492 4.66309 21.5598 4.66309 21.5808C4.66309 21.5913 4.66309 21.6018 4.66309 21.6228C4.66309 21.6333 4.66309 21.6439 4.66309 21.6649C4.66309 21.6754 4.66309 21.6859 4.67339 21.7069C4.67339 21.7174 4.67339 21.7279 4.68369 21.749C4.68369 21.7595 4.68369 21.77 4.694 21.791C4.694 21.8015 4.694 21.812 4.70426 21.8331C4.70426 21.8436 4.71457 21.8541 4.71457 21.8646C4.71457 21.8751 4.72487 21.8856 4.72487 21.8961C4.72487 21.9066 4.73514 21.9172 4.73514 21.9277C4.73514 21.9382 4.74544 21.9487 4.74544 21.9592C4.74544 21.9697 4.75575 21.9802 4.75575 21.9907C4.75575 22.0013 4.76605 22.0117 4.76605 22.0223C4.76605 22.0328 4.77632 22.0433 4.77632 22.0538C4.77632 22.0643 4.78662 22.0748 4.78662 22.0853C4.78662 22.0958 4.79692 22.1064 4.79692 22.1169C4.80719 22.1274 4.80719 22.1379 4.81749 22.1484C4.8278 22.1589 4.8278 22.1694 4.8381 22.1799C4.84837 22.1905 4.84837 22.201 4.85867 22.2115C4.86898 22.222 4.86898 22.2325 4.87924 22.243C4.88955 22.2535 4.88955 22.264 4.89985 22.2746C4.91015 22.2851 4.91015 22.2956 4.92042 22.3061C4.93073 22.3166 4.93073 22.3271 4.94103 22.3376C4.9513 22.3482 4.9513 22.3586 4.9616 22.3692C4.9719 22.3797 4.9719 22.3902 4.98221 22.4007C4.99248 22.4112 4.99247 22.4217 5.00278 22.4323C5.01308 22.4427 5.01308 22.4533 5.02335 22.4638C5.03365 22.4743 5.04396 22.4848 5.04396 22.4953C5.05426 22.5058 5.06453 22.5163 5.06453 22.5268C5.07483 22.5374 5.08513 22.5479 5.08513 22.5479C5.0954 22.5584 5.10571 22.5689 5.10571 22.5689C5.11601 22.5794 5.12631 22.5899 5.13658 22.5899C5.14688 22.6004 5.15719 22.6109 5.16746 22.6109C5.18806 22.632 5.20863 22.6425 5.21894 22.653C5.22924 22.6635 5.23951 22.6635 5.24981 22.674C5.26011 22.6845 5.27042 22.6845 5.28069 22.695C5.29099 22.7056 5.30129 22.7056 5.31156 22.716C5.32186 22.7266 5.33217 22.7266 5.34247 22.7371C5.35274 22.7476 5.36304 22.7476 5.37335 22.7581C5.39392 22.7686 5.41452 22.7791 5.43509 22.7896C5.59977 22.8842 5.84684 22.9158 6.12475 22.9158H6.69087V22.9368Z" fill="black"/>
<path fill-rule="evenodd" clip-rule="evenodd" d="M18.7951 19.9516L19.0421 20.6454H19.3921C19.8141 20.6664 20.1538 21.0343 20.1538 21.4758C20.1538 21.9278 19.7935 22.2852 19.3612 22.2852C18.9392 22.2852 18.5892 21.9488 18.5686 21.5179V21.4758V18.9004H17.8584V21.4758C17.8584 22.3063 18.5481 22.979 19.3612 22.979C20.1641 22.979 20.8229 22.3273 20.8332 21.5073C20.8332 21.4968 20.8332 21.4863 20.8332 21.4758C20.8332 20.6769 20.3391 20.0041 19.5053 19.9516C19.4539 19.9516 19.4024 19.9411 19.3509 19.9411L18.7951 19.9516Z" fill="black"/>
</g>
<defs>
<clipPath id="clip0_5392_48414">
<rect width="32" height="23" fill="white"/>
</clipPath>
</defs>
</svg>
