<svg width="24" height="24" viewBox="0 0 24 24" fill="none" xmlns="http://www.w3.org/2000/svg">
<path d="M17 2H7C5.89543 2 5 2.89543 5 4V20C5 21.1046 5.89543 22 7 22H17C18.1046 22 19 21.1046 19 20V4C19 2.89543 18.1046 2 17 2Z" stroke="#718096" stroke-width="1.5" stroke-linecap="round" stroke-linejoin="round"/>
<path d="M12 19H12.01" stroke="#718096" stroke-width="1.5" stroke-linecap="round" stroke-linejoin="round"/>
<path fill-rule="evenodd" clip-rule="evenodd" d="M11.9026 7.12369C11.9514 7.10774 12.0036 7.09912 12.0578 7.09912C12.1988 7.09912 12.3262 7.15747 12.4171 7.25134L15.87 10.7043C16.0653 10.8996 16.0653 11.2161 15.87 11.4114C15.6748 11.6067 15.3582 11.6067 15.1629 11.4114L12.5578 8.80632L12.5578 14.5166C12.5578 14.7927 12.334 15.0166 12.0578 15.0166C11.7817 15.0166 11.5578 14.7927 11.5578 14.5166L11.5578 8.80614L8.95255 11.4114C8.75729 11.6067 8.44071 11.6067 8.24545 11.4114C8.05018 11.2161 8.05018 10.8996 8.24545 10.7043L11.7042 7.24557C11.7618 7.18793 11.83 7.1473 11.9026 7.12369Z" fill="#718096"/>
<path d="M9 3H15C15 3.55228 14.5523 4 14 4H10C9.44772 4 9 3.55228 9 3Z" fill="#718096"/>
</svg>
