<svg width="11" height="13" viewBox="0 0 11 13" fill="none" xmlns="http://www.w3.org/2000/svg">
<path stroke="none" d="M-0.000976562 7.62891C-0.000976562 7.41927 0.0673828 7.24382 0.204102 7.10254C0.34082 6.96582 0.511719 6.89746 0.716797 6.89746C0.821615 6.89746 0.919596 6.91569 1.01074 6.95215C1.10189 6.99316 1.18164 7.04785 1.25 7.11621L2.79492 8.64746L5.29004 11.3682L7.78516 8.64746L9.33691 7.11621C9.40527 7.04785 9.48275 6.99316 9.56934 6.95215C9.66048 6.91569 9.76074 6.89746 9.87012 6.89746C10.0752 6.89746 10.2461 6.96582 10.3828 7.10254C10.5195 7.24382 10.5879 7.41927 10.5879 7.62891C10.5879 7.72917 10.5674 7.82487 10.5264 7.91602C10.4854 8.00716 10.4238 8.09375 10.3418 8.17578L5.85059 12.6807C5.69108 12.8402 5.50423 12.9199 5.29004 12.9199C5.07585 12.9199 4.889 12.8402 4.72949 12.6807L0.231445 8.16895C0.0764974 8.00944 -0.000976562 7.82943 -0.000976562 7.62891ZM4.54492 0.758789C4.54492 0.530924 4.61328 0.346354 4.75 0.205078C4.89128 0.0683594 5.07129 0 5.29004 0C5.51335 0 5.69336 0.0683594 5.83008 0.205078C5.97135 0.346354 6.04199 0.530924 6.04199 0.758789V9.06445L5.89844 11.4365C5.88932 11.6234 5.83008 11.7738 5.7207 11.8877C5.61589 12.0016 5.47233 12.0586 5.29004 12.0586C5.1123 12.0586 4.96875 12.0016 4.85938 11.8877C4.75456 11.7738 4.69531 11.6234 4.68164 11.4365L4.54492 9.06445V0.758789Z" fill="currentColor"/>
</svg>
