<svg viewBox="0 0 12 12" xmlns="http://www.w3.org/2000/svg">
  <path stroke="none" fill-rule="evenodd" clip-rule="evenodd" d="M11.058 1.02077C11.0346 0.991411 11.008 0.964737 10.9787 0.941298C10.9479 0.916643 10.9149 0.896161 10.8804 0.879851C10.8156 0.849184 10.7431 0.832031 10.6667 0.832031H10.6666H5.33337C5.05723 0.832031 4.83337 1.05589 4.83337 1.33203C4.83337 1.60817 5.05723 1.83203 5.33337 1.83203H9.45956L0.979821 10.3118C0.784558 10.507 0.784558 10.8236 0.979821 11.0189C1.17508 11.2141 1.49167 11.2141 1.68693 11.0189L10.1667 2.5391V6.66536C10.1667 6.94151 10.3906 7.16536 10.6667 7.16536C10.9429 7.16536 11.1667 6.94151 11.1667 6.66536V1.33203C11.1667 1.24808 11.146 1.16897 11.1095 1.09951C11.1054 1.09181 11.1012 1.08419 11.0967 1.07667C11.0885 1.06292 11.0796 1.04947 11.07 1.03639C11.0661 1.03113 11.0621 1.02592 11.058 1.02077Z" />
</svg>
