<svg width="24" height="24" viewBox="0 0 24 24" fill="none" xmlns="http://www.w3.org/2000/svg">
<path d="M11.3234 4.56171L18.4384 11.6767M11.3234 4.56171L7.44245 8.4426M11.3234 4.56171C11.6806 4.20448 11.6806 3.62515 11.3234 3.26792C10.9662 2.91069 10.387 2.91069 10.0298 3.26792L6.14886 7.14882C5.79163 7.50604 5.79163 8.08522 6.14885 8.44245C6.50608 8.79967 7.08522 8.79983 7.44245 8.4426M18.4384 11.6767L14.5575 15.5576M18.4384 11.6767C18.7956 11.3195 19.3748 11.3193 19.7321 11.6765C20.0893 12.0337 20.0893 12.6129 19.7321 12.9702L15.8512 16.8511C15.4939 17.2083 14.9147 17.2083 14.5575 16.8511C14.2003 16.4938 14.2002 15.9148 14.5575 15.5576M14.5575 15.5576L7.44245 8.4426M10.0298 11.0298L2.26792 18.7916C1.91069 19.1489 1.91069 19.728 2.26792 20.0853L2.91474 20.7321C3.27197 21.0893 3.85115 21.0893 4.20838 20.7321L11.9702 12.9703L10.0298 11.0298Z" stroke="#718096" stroke-width="1.5"/>
<line x1="13.75" y1="20.25" x2="21.25" y2="20.25" stroke="#718096" stroke-width="1.5" stroke-linecap="round"/>
</svg>
