<svg viewBox="0 0 14 16" xmlns="http://www.w3.org/2000/svg">
  <path
    stroke="none"
    d="M0.369141 11.7627C0.369141 11.0381 1.03906 10.416 1.6543 9.81445C2.13965 9.34277 2.24902 8.39941 2.33789 7.46289C2.42676 4.87207 3.17871 3.14258 4.96289 2.49316C5.22266 1.59082 5.98145 0.900391 7 0.900391C8.01855 0.900391 8.77734 1.59082 9.03711 2.49316C10.8213 3.14258 11.5732 4.87207 11.6621 7.46289C11.751 8.39941 11.8672 9.34277 12.3457 9.81445C12.9678 10.416 13.6309 11.0381 13.6309 11.7627C13.6309 12.3369 13.2002 12.7266 12.4893 12.7266H9.67969C9.61816 14.0391 8.55176 15.2285 7 15.2285C5.44824 15.2285 4.38184 14.0322 4.32031 12.7266H1.51074C0.806641 12.7266 0.369141 12.3369 0.369141 11.7627ZM2.00293 11.4756H11.9834V11.3936C11.8125 11.1953 11.4297 10.833 11.0879 10.4434C10.623 9.90332 10.3975 8.92578 10.3291 7.62695C10.2539 4.85156 9.39941 3.92871 8.29883 3.62793C8.12793 3.58691 8.03223 3.50488 8.01855 3.32031C7.99121 2.62305 7.60156 2.1582 7 2.1582C6.39844 2.1582 6.01562 2.62305 5.98145 3.32031C5.96777 3.50488 5.87207 3.58691 5.70801 3.62793C4.60059 3.92871 3.75293 4.85156 3.6709 7.62695C3.60254 8.92578 3.38379 9.90332 2.91211 10.4434C2.57715 10.833 2.18066 11.1953 2.00293 11.3936V11.4756ZM5.6123 12.7266C5.66699 13.5811 6.22754 14.1348 7 14.1348C7.7793 14.1348 8.33984 13.5811 8.3877 12.7266H5.6123Z"
  />
</svg>
