<svg width="32" height="32" viewBox="0 0 32 32" fill="none" xmlns="http://www.w3.org/2000/svg">
  <path d="M9.78586 13.4466L16.0002 7.23247L22.2178 13.4499L25.8338 9.83395L16.0002 0L6.16992 9.83066L9.78586 13.4466Z" fill="#F3BA2F"/>
  <path d="M7.23306 15.9992L3.61719 12.3833L0.00113609 15.9994L3.61701 19.6153L7.23306 15.9992Z" fill="#F3BA2F"/>
  <path d="M9.78531 18.5533L15.9996 24.7675L22.217 18.5503L25.835 22.1643L25.8332 22.1663L15.9996 32L6.16912 22.1696L6.16406 22.1645L9.78531 18.5533Z" fill="#F3BA2F"/>
  <path d="M28.3839 19.6171L32 16.001L28.3841 12.3851L24.7681 16.0012L28.3839 19.6171Z" fill="#F3BA2F"/>
  <path d="M19.6669 15.9984H19.6684L15.9992 12.3291L13.2875 15.0408H13.2873L12.9759 15.3524L12.3332 15.9951L12.3281 16.0002L12.3332 16.0055L15.9992 19.6715L19.6684 16.0022L19.6702 16.0002L19.6669 15.9984Z" fill="#F3BA2F"/>
</svg>
