<svg width="94" height="74" viewBox="0 0 94 74" fill="none" xmlns="http://www.w3.org/2000/svg">
<path d="M13.5234 73.2812C5.08594 73.2812 0.710938 68.9453 0.710938 60.625V13.0469C0.710938 4.6875 5.08594 0.390625 13.5234 0.390625H80.4375C88.875 0.390625 93.25 4.72656 93.25 13.0469V60.625C93.25 68.9453 88.875 73.2812 80.4375 73.2812H13.5234ZM8.36719 13.7109V55.5078L19.1484 45.8203C20.7891 44.3359 22.3906 43.6328 24.1875 43.6328C26.0234 43.6328 27.8203 44.4141 29.4609 45.8594L36.6875 52.3828L54.3047 36.6016C56.1016 35.0391 58.0156 34.2969 60.1641 34.2969C62.2344 34.2969 64.3047 35.0781 66.0234 36.6797L85.5938 55V13.7109C85.5938 9.92188 83.5625 8.00781 79.9688 8.00781H13.9922C10.3594 8.00781 8.36719 9.92188 8.36719 13.7109ZM30.9844 37.5391C25.7891 37.5391 21.6094 33.3203 21.6094 28.1641C21.6094 23.0469 25.7891 18.7891 30.9844 18.7891C36.1016 18.7891 40.3203 23.0469 40.3203 28.1641C40.3203 33.3203 36.1016 37.5391 30.9844 37.5391Z" fill="#C2C2C8"/>
</svg>
