<svg viewBox="0 0 32 40" xmlns="http://www.w3.org/2000/svg">
  <g fill="none">
    <path fill-rule="evenodd" clip-rule="evenodd" d="M30.1966 10L31.6635 11.6186C31.8792 11.8566 32 12.1764 32 12.5094V13.3333H19.7389C19.5588 13.1041 19.4588 12.8123 19.4588 12.5094V10H21.817V11.236L28.017 11.236L26.8968 10H30.1966ZM4.84536 10H2.4873V13.3333H4.84536V10Z" fill="#A0AEC0"/>
    <path fill-rule="evenodd" clip-rule="evenodd" d="M32 20V23.3333H29.6418V20H32ZM4.84536 20H2.4873V23.3333H4.84536V20Z" fill="#A0AEC0"/>
    <path fill-rule="evenodd" clip-rule="evenodd" d="M32 30V33.3333H29.6418V30H32ZM4.84536 30H2.4873V33.3333H4.84536V30Z" fill="#A0AEC0"/>
    <path fill-rule="evenodd" clip-rule="evenodd" d="M5.57146 0C4.35026 0 3.18432 0.535539 2.32868 1.47965C1.47388 2.42284 0.998047 3.69638 0.998047 5.01873V30H3.1902V33.3333H0.998047V34.9813C0.998047 36.3036 1.47388 37.5772 2.32868 38.5203C3.18432 39.4645 4.35026 40 5.57146 40H25.9374C27.1586 40 28.3246 39.4645 29.1802 38.5203C30.035 37.5772 30.5108 36.3036 30.5108 34.9813L30.5108 23.3331H28.1529V19.9998H30.5108V13.3333H18.25C18.0698 13.1041 17.9699 12.8123 17.9699 12.5094V10H20.3279V4.3949L26.5278 11.236H26.528L25.4079 10H28.7074L19.9914 0.382676C19.7696 0.137938 19.4659 0 19.1488 0H5.57146ZM4.01393 3.26112C4.43141 2.80047 4.99219 2.54682 5.57146 2.54682H17.9697V12.5094C17.9697 12.8471 18.0939 13.171 18.315 13.4098C18.5362 13.6486 18.8361 13.7828 19.1488 13.7828H28.1527V30H30.3448V33.3333H28.1527V34.9813C28.1527 35.6456 27.9133 36.2773 27.495 36.7389C27.0775 37.1995 26.5167 37.4532 25.9374 37.4532H5.57146C4.99219 37.4532 4.43141 37.1995 4.01393 36.7389C3.59561 36.2773 3.35621 35.6456 3.35621 34.9813V23.3331H0.998264V19.9998H3.35621V13.3333H0.998264V10H3.35621V5.01873C3.35621 4.35443 3.59561 3.7227 4.01393 3.26112Z" fill="#A0AEC0"/>
    <path fill-rule="evenodd" clip-rule="evenodd" d="M1.48877 13.3333V10H3.84693V13.3333H1.48877ZM29.1982 10L30.6651 11.6186C30.8762 11.8516 30.9964 12.1629 31.0014 12.4884V13.3333H18.7405C18.5604 13.1041 18.4604 12.8123 18.4604 12.5094V10H20.8186V11.236L27.0185 11.236L25.8984 10H29.1982Z" fill="#718096"/>
    <path fill-rule="evenodd" clip-rule="evenodd" d="M1.48877 23.3333V20H3.84693V23.3333H1.48877ZM28.6434 23.3333H31.0014V20H28.6434V23.3333Z" fill="#718096"/>
    <path fill-rule="evenodd" clip-rule="evenodd" d="M1.48877 33.3333V30H3.84693V33.3333H1.48877ZM28.6434 33.3333H31.0014V30H28.6434V33.3333Z" fill="#718096"/>
    <path fill-rule="evenodd" clip-rule="evenodd" d="M4.57341 0C3.35221 0 2.18627 0.535539 1.33063 1.47965C0.475833 2.42284 0 3.69638 0 5.01873V10H2.35817V5.01873C2.35817 4.35443 2.59756 3.7227 3.01588 3.26112C3.43337 2.80047 3.99415 2.54682 4.57341 2.54682H16.9716L16.9716 10H19.3298V4.3949L24.4096 10H27.7094L18.9934 0.382676C18.7715 0.137938 18.4678 0 18.1507 0H4.57341ZM29.5128 13.3333H17.2517C17.2724 13.3597 17.2942 13.3852 17.317 13.4098C17.5381 13.6486 17.838 13.7828 18.1507 13.7828H27.1546V19.9998H29.5128V13.3333ZM27.1546 30.0002V23.3331H29.5128V30.0002H27.1546ZM27.1546 33.3335V34.9813C27.1546 35.6456 26.9152 36.2773 26.4969 36.7389C26.0794 37.1995 25.5186 37.4532 24.9394 37.4532H4.57341C3.99415 37.4532 3.43337 37.1995 3.01588 36.7389C2.59756 36.2773 2.35817 35.6456 2.35817 34.9813V33.3335H0V34.9813C0 36.3036 0.475834 37.5772 1.33063 38.5203C2.18627 39.4645 3.35221 40 4.57341 40H24.9394C26.1606 40 27.3265 39.4645 28.1822 38.5203C29.037 37.5772 29.5128 36.3036 29.5128 34.9813V33.3335H27.1546ZM0 30.0002H2.35817V23.3331H0V30.0002ZM2.35817 19.9998H0V13.3333H2.35817V19.9998Z" fill="#718096"/>
    <path d="M8.74022 19.4922C9.1601 19.0516 9.83365 19.0593 10.2446 19.5095L10.9609 20.294L11.6365 19.5541C12.0475 19.1039 12.721 19.0962 13.1409 19.5368C13.5608 19.9773 13.568 20.6994 13.1571 21.1495L12.4496 21.9244L13.2212 22.7695C13.6322 23.2197 13.6249 23.9417 13.205 24.3823C12.7852 24.8229 12.1116 24.8151 11.7006 24.365L10.9609 23.5548L10.1805 24.4096C9.76953 24.8597 9.09598 24.8674 8.6761 24.4269C8.25622 23.9863 8.249 23.2642 8.65997 22.8141L9.47231 21.9244L8.72409 21.1049C8.31311 20.6548 8.32034 19.9328 8.74022 19.4922Z" fill="#718096"/>
    <path d="M17.9658 19.4922C18.3857 19.0516 19.0593 19.0593 19.4702 19.5095L20.1866 20.294L20.8621 19.5541C21.2731 19.1039 21.9467 19.0962 22.3666 19.5368C22.7864 19.9773 22.7937 20.6994 22.3827 21.1495L21.6752 21.9244L22.4468 22.7695C22.8578 23.2197 22.8505 23.9417 22.4307 24.3823C22.0108 24.8229 21.3372 24.8151 20.9263 24.365L20.1866 23.5548L19.4061 24.4096C18.9951 24.8597 18.3216 24.8674 17.9017 24.4269C17.4818 23.9863 17.4746 23.2642 17.8856 22.8141L18.6979 21.9244L17.9497 21.1049C17.5387 20.6548 17.546 19.9328 17.9658 19.4922Z" fill="#718096"/>
    <path d="M9.57654 31.5307L9.48875 31.5717C8.95005 31.8231 8.32323 31.5587 8.0887 30.9812C7.85417 30.4037 8.10075 29.7318 8.63946 29.4804L8.79543 29.4075C10.2847 28.7114 12.2341 27.8003 14.5199 27.5201C16.9265 27.2251 19.665 27.6294 22.6786 29.5451C23.184 29.8663 23.3508 30.5659 23.0511 31.1077C22.7514 31.6495 22.0988 31.8282 21.5934 31.507C18.9936 29.8544 16.7238 29.5457 14.7616 29.7862C12.7972 30.0271 11.1012 30.8189 9.57655 31.5307L9.57654 31.5307Z" fill="#718096"/>
  </g>
</svg>
