<svg width="52" height="52" viewBox="0 0 52 52" fill="none" xmlns="http://www.w3.org/2000/svg">
<path d="M41.428 3.71436L36.2852 8.85721L41.428 14.0001V10.5715H46.5709V7.14293H41.428V3.71436Z" fill="#ED8936"/>
<path fill-rule="evenodd" clip-rule="evenodd" d="M3.25 13.7142C3.25 8.19139 7.72715 3.71423 13.25 3.71423H22.3886C27.9114 3.71423 32.3886 8.19139 32.3886 13.7142V15.7554C30.1761 15.9165 28.0745 16.4774 26.1556 17.3662C26.0632 17.1872 25.942 17.0193 25.792 16.8693L19.428 10.5053C18.647 9.72424 17.3807 9.72424 16.5996 10.5053L10.2356 16.8693C9.45459 17.6503 9.45459 18.9166 10.2356 19.6977L16.5996 26.0616C16.7833 26.2453 16.9938 26.3858 17.2186 26.4831C16.356 28.4478 15.8341 30.596 15.7278 32.8528H13.25C7.72716 32.8528 3.25 28.3757 3.25 22.8528V13.7142ZM32.3886 19.2026V22.8528C32.3886 28.3756 27.9114 32.8528 22.3886 32.8528H19.1683C19.5886 25.6475 25.2457 19.8471 32.3886 19.2026Z" fill="#ED8936"/>
<path d="M33.714 19.1429C25.6671 19.1429 19.1426 25.6675 19.1426 33.7144C19.1426 41.7612 25.6671 48.2858 33.714 48.2858C41.7609 48.2858 48.2854 41.7612 48.2854 33.7144C48.2854 25.6675 41.7609 19.1429 33.714 19.1429Z" fill="#ED8936"/>
<path d="M33.7148 27.2144C30.1253 27.2144 27.2148 30.1248 27.2148 33.7144C27.2148 37.3039 30.1253 40.2144 33.7148 40.2144C37.3044 40.2144 40.2148 37.3039 40.2148 33.7144C40.2148 30.1248 37.3044 27.2144 33.7148 27.2144Z" fill="white"/>
<path d="M10.5706 36.2858V39.7143H5.42773V43.1429H10.5706V46.5715L15.7134 41.4286L10.5706 36.2858Z" fill="#ED8936"/>
</svg>
