<svg width="25" height="24" viewBox="0 0 25 24" stroke="white" fill="none" xmlns="http://www.w3.org/2000/svg">
  <path d="M6.25 6H21.25L19.75 15H7.75L6.25 6Z" stroke-width="1.5" stroke-linecap="round" stroke-linejoin="round"/>
  <path d="M9.25 20C9.80228 20 10.25 19.5523 10.25 19C10.25 18.4477 9.80228 18 9.25 18C8.69772 18 8.25 18.4477 8.25 19C8.25 19.5523 8.69772 20 9.25 20Z" stroke-width="2" stroke-linecap="round" stroke-linejoin="round"/>
  <path d="M18.25 20C18.8023 20 19.25 19.5523 19.25 19C19.25 18.4477 18.8023 18 18.25 18C17.6977 18 17.25 18.4477 17.25 19C17.25 19.5523 17.6977 20 18.25 20Z" stroke-width="2" stroke-linecap="round" stroke-linejoin="round"/>
  <path d="M6.25 6L4.25 4" stroke-width="1.5" stroke-linecap="round" stroke-linejoin="round"/>
</svg>
