<svg width="24" height="24" viewBox="0 0 24 24" fill="none" xmlns="http://www.w3.org/2000/svg">
<path d="M6 6H21L19.5 15H7.5L6 6Z" stroke="white" stroke-width="2" stroke-linecap="round" stroke-linejoin="round"/>
<path d="M9 20C9.55228 20 10 19.5523 10 19C10 18.4477 9.55228 18 9 18C8.44772 18 8 18.4477 8 19C8 19.5523 8.44772 20 9 20Z" stroke="white" stroke-width="2" stroke-linecap="round" stroke-linejoin="round"/>
<path d="M18 20C18.5523 20 19 19.5523 19 19C19 18.4477 18.5523 18 18 18C17.4477 18 17 18.4477 17 19C17 19.5523 17.4477 20 18 20Z" stroke="white" stroke-width="2" stroke-linecap="round" stroke-linejoin="round"/>
<path d="M6 6L4 4" stroke="white" stroke-width="2" stroke-linecap="round" stroke-linejoin="round"/>
</svg>
