<svg viewBox="0 0 21 19" xmlns="http://www.w3.org/2000/svg">
  <path stroke-width="0" d="M7.54785 13.6553C6.21191 13.6553 5.50879 12.8467 5.31543 11.5283L3.94434 2.19434H1.17578C0.745117 2.19434 0.367188 1.81641 0.367188 1.37695C0.367188 0.928711 0.745117 0.550781 1.17578 0.550781H4.19922C5.1748 0.550781 5.47363 0.9375 5.5791 1.69336L5.71973 2.66016H19.8262C20.4238 2.66016 20.7842 3.00293 20.7842 3.5127C20.7842 3.60059 20.7666 3.75 20.749 3.87305L20.0898 8.29395C19.8877 9.62109 19.1846 10.4385 17.8486 10.4385H6.85352L6.98535 11.3525C7.04688 11.8008 7.31055 12.1084 7.74121 12.1084H17.7783C18.1914 12.1084 18.5518 12.4248 18.5518 12.8818C18.5518 13.3389 18.1914 13.6553 17.7783 13.6553H7.54785ZM18.9824 4.20703H5.94824L6.625 8.8916H17.6729C18.1123 8.8916 18.3584 8.59277 18.4199 8.13574L18.9824 4.20703ZM8.25977 18.0498C7.41602 18.0498 6.73926 17.373 6.73926 16.5293C6.73926 15.6768 7.41602 15 8.25977 15C9.1123 15 9.78027 15.6768 9.78027 16.5293C9.78027 17.373 9.1123 18.0498 8.25977 18.0498ZM16.3896 18.0498C15.5459 18.0498 14.8604 17.373 14.8604 16.5293C14.8604 15.6768 15.5459 15 16.3896 15C17.2422 15 17.9189 15.6768 17.9189 16.5293C17.9189 17.373 17.2422 18.0498 16.3896 18.0498Z" />
</svg>
