<svg viewBox="0 0 17 15" xmlns="http://www.w3.org/2000/svg">
  <path
    stroke="none"
    d="M6.4707 10.9541C5.43164 10.9541 4.88477 10.3252 4.73438 9.2998L3.66797 2.04004H1.51465C1.17969 2.04004 0.885742 1.74609 0.885742 1.4043C0.885742 1.05566 1.17969 0.761719 1.51465 0.761719H3.86621C4.625 0.761719 4.85742 1.0625 4.93945 1.65039L5.04883 2.40234H16.0205C16.4854 2.40234 16.7656 2.66895 16.7656 3.06543C16.7656 3.13379 16.752 3.25 16.7383 3.3457L16.2256 6.78418C16.0684 7.81641 15.5215 8.45215 14.4824 8.45215H5.93066L6.0332 9.16309C6.08105 9.51172 6.28613 9.75098 6.62109 9.75098H14.4277C14.749 9.75098 15.0293 9.99707 15.0293 10.3525C15.0293 10.708 14.749 10.9541 14.4277 10.9541H6.4707ZM15.3643 3.60547H5.22656L5.75293 7.24902H14.3457C14.6875 7.24902 14.8789 7.0166 14.9268 6.66113L15.3643 3.60547ZM7.02441 14.3721C6.36816 14.3721 5.8418 13.8457 5.8418 13.1895C5.8418 12.5264 6.36816 12 7.02441 12C7.6875 12 8.20703 12.5264 8.20703 13.1895C8.20703 13.8457 7.6875 14.3721 7.02441 14.3721ZM13.3477 14.3721C12.6914 14.3721 12.1582 13.8457 12.1582 13.1895C12.1582 12.5264 12.6914 12 13.3477 12C14.0107 12 14.5371 12.5264 14.5371 13.1895C14.5371 13.8457 14.0107 14.3721 13.3477 14.3721Z"
  />
</svg>
