<svg viewBox="0 0 24 24" xmlns="http://www.w3.org/2000/svg">
  <path
    stroke="none"
    d="M9.4707 15.9541C8.43164 15.9541 7.88477 15.3252 7.73438 14.2998L6.66797 7.04004H4.51465C4.17969 7.04004 3.88574 6.74609 3.88574 6.4043C3.88574 6.05566 4.17969 5.76172 4.51465 5.76172H6.86621C7.625 5.76172 7.85742 6.0625 7.93945 6.65039L8.04883 7.40234H19.0205C19.4854 7.40234 19.7656 7.66895 19.7656 8.06543C19.7656 8.13379 19.752 8.25 19.7383 8.3457L19.2256 11.7842C19.0684 12.8164 18.5215 13.4521 17.4824 13.4521H8.93066L9.0332 14.1631C9.08105 14.5117 9.28613 14.751 9.62109 14.751H17.4277C17.749 14.751 18.0293 14.9971 18.0293 15.3525C18.0293 15.708 17.749 15.9541 17.4277 15.9541H9.4707ZM18.3643 8.60547H8.22656L8.75293 12.249H17.3457C17.6875 12.249 17.8789 12.0166 17.9268 11.6611L18.3643 8.60547ZM10.0244 19.3721C9.36816 19.3721 8.8418 18.8457 8.8418 18.1895C8.8418 17.5264 9.36816 17 10.0244 17C10.6875 17 11.207 17.5264 11.207 18.1895C11.207 18.8457 10.6875 19.3721 10.0244 19.3721ZM16.3477 19.3721C15.6914 19.3721 15.1582 18.8457 15.1582 18.1895C15.1582 17.5264 15.6914 17 16.3477 17C17.0107 17 17.5371 17.5264 17.5371 18.1895C17.5371 18.8457 17.0107 19.3721 16.3477 19.3721Z"
  />
</svg>
