<svg width="24" height="24" viewBox="0 0 24 24" fill="none" xmlns="http://www.w3.org/2000/svg">
<g clip-path="url(#clip0_7807_95804)">
<path d="M8.28125 18.9619C6.98926 18.9619 6.27148 18.2646 6.27148 16.9727V12.8779H6.23047C5.63574 12.7139 5.32129 12.2012 5.32129 11.4629V9.72656C5.32129 8.80371 5.86816 8.22949 6.75684 8.22949H7.94629C7.57715 7.85352 7.36523 7.35449 7.36523 6.77344C7.36523 5.41992 8.44531 4.44238 9.80566 4.44238C10.8105 4.44238 11.665 5.00977 12 6.00781C12.335 5.00977 13.1826 4.44238 14.1943 4.44238C15.5479 4.44238 16.6348 5.41992 16.6348 6.77344C16.6348 7.35449 16.416 7.85352 16.0469 8.22949H17.2432C18.166 8.22949 18.6787 8.80371 18.6787 9.72656V11.4629C18.6787 12.2012 18.3643 12.7139 17.7695 12.8779H17.7285V16.9727C17.7285 18.2646 17.0039 18.9619 15.7119 18.9619H8.28125ZM11.3506 8.22949V7.32031C11.3506 6.35645 10.7148 5.72754 9.92188 5.72754C9.18359 5.72754 8.6709 6.17188 8.6709 6.90332C8.6709 7.64844 9.27246 8.22949 10.3252 8.22949H11.3506ZM12.6426 8.22949H13.6748C14.7207 8.22949 15.3291 7.64844 15.3291 6.90332C15.3291 6.17188 14.8164 5.72754 14.0781 5.72754C13.2852 5.72754 12.6426 6.35645 12.6426 7.32031V8.22949ZM11.3096 11.75V9.43945H7.1123C6.78418 9.43945 6.64746 9.57617 6.64746 9.9043V11.2852C6.64746 11.6133 6.78418 11.75 7.1123 11.75H11.3096ZM12.6836 11.75H16.8945C17.2227 11.75 17.3525 11.6201 17.3525 11.2988V9.9043C17.3525 9.57617 17.2227 9.43945 16.8945 9.43945H12.6836V11.75ZM11.3096 17.7383V12.96H7.59766V16.8975C7.59766 17.4307 7.89844 17.7383 8.43848 17.7383H11.3096ZM12.6836 17.7383H15.5547C16.0947 17.7383 16.4023 17.4307 16.4023 16.8975V12.96H12.6836V17.7383Z" fill="#707070"/>
</g>
<defs>
<clipPath id="clip0_7807_95804">
<rect width="24" height="24" fill="white"/>
</clipPath>
</defs>
</svg>
