<svg width="12" height="13" viewBox="0 0 12 13" fill="none" xmlns="http://www.w3.org/2000/svg">
<path d="M6.53715 2.06578C6.53715 1.76284 6.29087 1.5 5.99788 1.5C5.70913 1.5 5.46284 1.76284 5.46284 2.06578V3.38445C5.46284 3.69185 5.70913 3.95023 5.99788 3.95023C6.29087 3.95023 6.53715 3.69185 6.53715 3.38445V2.06578ZM3.30573 4.7254C3.50955 4.94369 3.862 4.94815 4.06582 4.73431C4.27389 4.51602 4.27813 4.14625 4.07431 3.93687L3.22081 3.03251C3.01699 2.81867 2.66454 2.80976 2.46072 3.0236C2.25265 3.24189 2.25265 3.6072 2.45223 3.82104L3.30573 4.7254ZM7.90021 3.95469C7.70064 4.16853 7.70064 4.53829 7.9087 4.75658C8.11253 4.96597 8.46497 4.96597 8.66879 4.74767L9.52654 3.84331C9.73036 3.63393 9.72611 3.26417 9.51805 3.04587C9.31423 2.83204 8.96603 2.83649 8.75796 3.05478L7.90021 3.95469ZM5.67516 10.009C5.66667 10.2718 5.94692 10.3698 6.11253 10.1872L6.66879 9.56795L7.32696 11.2965C7.38641 11.4435 7.50955 11.546 7.68365 11.4791L8.138 11.3009C8.3121 11.2341 8.30786 11.0425 8.26115 10.9312L7.54777 9.2071L8.38004 9.21155C8.62208 9.21601 8.74098 8.95317 8.57113 8.77051L6.13376 6.17772C5.9724 6.00843 5.73036 6.10644 5.72611 6.34701L5.67516 10.009ZM1.53928 6.17326C1.24628 6.17326 1 6.43165 1 6.73905C1 7.04644 1.24628 7.30483 1.53928 7.30483H2.79618C3.08917 7.30483 3.3397 7.04644 3.3397 6.73905C3.3397 6.43165 3.08917 6.17326 2.79618 6.17326H1.53928ZM10.4607 7.30483C10.7537 7.30483 11 7.04644 11 6.73905C11 6.43165 10.7537 6.17326 10.4607 6.17326H9.20382C8.91083 6.17326 8.66454 6.43165 8.66454 6.73905C8.66454 7.04644 8.91083 7.30483 9.20382 7.30483H10.4607ZM2.47346 9.62587C2.26539 9.83971 2.26115 10.2095 2.46497 10.4189C2.66879 10.6371 3.02548 10.6416 3.22505 10.4322L4.08705 9.53231C4.29512 9.31847 4.29512 8.94871 4.09554 8.73933C3.88747 8.52103 3.53503 8.51658 3.33121 8.73042L2.47346 9.62587Z" />
</svg>
