<?xml version="1.0" encoding="UTF-8" standalone="no"?>
<svg
  width="16"
  height="16"
  viewBox="0 0 16 16"
  fill="none"
  version="1.1"
  xmlns="http://www.w3.org/2000/svg">
  <path
    fill-rule="evenodd"
    clip-rule="evenodd"
    d="m 10.93985,5.05995 c 0.2706,0.2706 0.2706,0.7093 0,0.98 l -1.9601,1.96 1.96,1.9599 c 0.2706,0.2706 0.2706,0.7094 0,0.98 -0.2706,0.2706 -0.7094,0.2706 -0.98,0 l -1.9599,-1.9599 -1.9598,1.9598 c -0.2707,0.2706 -0.7094,0.2706 -0.98,0 -0.2706,-0.2706 -0.2706,-0.7094 0,-0.98 l 1.9598,-1.9598 -1.9599,-1.9599 c -0.2706,-0.2706 -0.2706,-0.7094 0,-0.98 0.2706,-0.2706 0.7093,-0.2706 0.9799,0 l 1.96,1.9599 1.96,-1.96 c 0.2706,-0.2706 0.7094,-0.2706 0.98,0 z"
  />
</svg>
