<svg viewBox="0 0 16 18" xmlns="http://www.w3.org/2000/svg">
  <path
    stroke="none"
    d="M0.890625 15.5107V6.11133C0.890625 4.6416 1.64941 3.86914 3.1123 3.86914H4.26758V2.61133C4.26758 1.13477 5.0332 0.369141 6.48926 0.369141H9.06641C9.85254 0.369141 10.4609 0.567383 10.9736 1.09375L14.3848 4.56641C14.9248 5.12012 15.1094 5.69434 15.1094 6.58984V12.0039C15.1094 13.4805 14.3506 14.2461 12.8877 14.2461H11.7256V15.5107C11.7256 16.9805 10.9736 17.7529 9.51074 17.7529H3.1123C1.64941 17.7529 0.890625 16.9873 0.890625 15.5107ZM11.042 8.32617C11.6162 8.90723 11.7256 9.33105 11.7256 10.2539V12.9062H12.7715C13.4414 12.9062 13.7695 12.5576 13.7695 11.9219V6.26172H10.7549C9.91406 6.26172 9.46289 5.82422 9.46289 4.97656V1.70898H6.60547C5.94238 1.70898 5.60742 2.05762 5.60742 2.68652V3.87598C6.36621 3.88281 6.81055 4.02637 7.33691 4.55957L11.042 8.32617ZM10.584 4.80566C10.584 5.04492 10.6865 5.14062 10.9189 5.14062H13.4209L10.584 2.2627V4.80566ZM2.23047 15.4287C2.23047 16.0645 2.55859 16.4131 3.22168 16.4131H9.39453C10.0576 16.4131 10.3857 16.0645 10.3857 15.4287V10.4111H6.77637C5.80566 10.4111 5.32031 9.93262 5.32031 8.95508V5.20898H3.22168C2.55859 5.20898 2.23047 5.56445 2.23047 6.19336V15.4287ZM6.90625 9.22852H10.2012L6.50293 5.46875V8.8252C6.50293 9.10547 6.62598 9.22852 6.90625 9.22852Z"
  />
</svg>
