<svg viewBox="0 -0.5 24 24" xmlns="http://www.w3.org/2000/svg">
  <path
    stroke="none"
    d="M2.85938 19.9424V7.85742C2.85938 5.96777 3.83496 4.97461 5.71582 4.97461H7.20117V3.35742C7.20117 1.45898 8.18555 0.474609 10.0576 0.474609H13.3711C14.3818 0.474609 15.1641 0.729492 15.8232 1.40625L20.209 5.87109C20.9033 6.58301 21.1406 7.32129 21.1406 8.47266V15.4336C21.1406 17.332 20.165 18.3164 18.2842 18.3164H16.79V19.9424C16.79 21.832 15.8232 22.8252 13.9424 22.8252H5.71582C3.83496 22.8252 2.85938 21.8408 2.85938 19.9424ZM15.9111 10.7051C16.6494 11.4521 16.79 11.9971 16.79 13.1836V16.5938H18.1348C18.9961 16.5938 19.418 16.1455 19.418 15.3281V8.05078H15.542C14.4609 8.05078 13.8809 7.48828 13.8809 6.39844V2.19727H10.207C9.35449 2.19727 8.92383 2.64551 8.92383 3.4541V4.9834C9.89941 4.99219 10.4707 5.17676 11.1475 5.8623L15.9111 10.7051ZM15.3223 6.17871C15.3223 6.48633 15.4541 6.60938 15.7529 6.60938H18.9697L15.3223 2.90918V6.17871ZM4.58203 19.8369C4.58203 20.6543 5.00391 21.1025 5.85645 21.1025H13.793C14.6455 21.1025 15.0674 20.6543 15.0674 19.8369V13.3857H10.4268C9.17871 13.3857 8.55469 12.7705 8.55469 11.5137V6.69727H5.85645C5.00391 6.69727 4.58203 7.1543 4.58203 7.96289V19.8369ZM10.5938 11.8652H14.8301L10.0752 7.03125V11.3467C10.0752 11.707 10.2334 11.8652 10.5938 11.8652Z"
  />
</svg>
