<svg width="52" height="52" viewBox="0 0 52 52" fill="none" xmlns="http://www.w3.org/2000/svg">
<path d="M42.0911 9.28577H9.91003C5.84267 9.28577 3.71484 11.4462 3.71484 15.5741V17.3102H48.2863V15.5741C48.2863 11.4462 46.1773 9.28577 42.0911 9.28577ZM11.5859 36.5417C10.4749 36.5417 9.72172 35.7894 9.72172 34.6899V31.1214C9.72172 30.0412 10.4749 29.2696 11.5859 29.2696H16.1994C17.2915 29.2696 18.0447 30.0412 18.0447 31.1214V34.6899C18.0447 35.7894 17.2915 36.5417 16.1994 36.5417H11.5859ZM9.91003 42.7143H42.0911C46.1773 42.7143 48.2863 40.5346 48.2863 36.4067V21.8432H3.71484V36.4067C3.71484 40.5539 5.84267 42.7143 9.91003 42.7143Z" fill="#ED8936"/>
<path d="M31.6545 35.1169L31.7073 33.666L30.4806 34.4443L30.1641 33.8903L31.4567 33.2176L30.1641 32.5449L30.4806 31.9909L31.7073 32.7691L31.6545 31.3182H32.2876L32.2349 32.7691L33.4615 31.9909L33.7781 32.5449L32.4855 33.2176L33.7781 33.8903L33.4615 34.4443L32.2349 33.666L32.2876 35.1169H31.6545Z" fill="white"/>
<path d="M36.3624 35.1169L36.4151 33.666L35.1885 34.4443L34.8719 33.8903L36.1645 33.2176L34.8719 32.5449L35.1885 31.9909L36.4151 32.7691L36.3624 31.3182H36.9955L36.9427 32.7691L38.1694 31.9909L38.486 32.5449L37.1933 33.2176L38.486 33.8903L38.1694 34.4443L36.9427 33.666L36.9955 35.1169H36.3624Z" fill="white"/>
<path d="M41.0702 35.1169L41.123 33.666L39.8963 34.4443L39.5798 33.8903L40.8724 33.2176L39.5798 32.5449L39.8963 31.9909L41.123 32.7691L41.0702 31.3182H41.7034L41.6506 32.7691L42.8773 31.9909L43.1938 32.5449L41.9012 33.2176L43.1938 33.8903L42.8773 34.4443L41.6506 33.666L41.7034 35.1169H41.0702Z" fill="white"/>
</svg>
