<svg width="32" height="32" viewBox="0 0 32 32" fill="none" xmlns="http://www.w3.org/2000/svg">
<path d="M16 7V7C15.3377 7 14.6797 6.89322 14.0513 6.68377L12.1904 6.06346C12.0636 6.02121 11.94 5.97001 11.8205 5.91025V5.91025C10.7333 5.36666 9.42027 5.57973 8.56077 6.43923L4.41421 10.5858C3.63317 11.3668 3.63316 12.6332 4.41421 13.4142V13.4142C4.78929 13.7893 5 14.298 5 14.8284V16C5 17.2806 5.50871 18.5087 6.41421 19.4142L11.4505 24.4505C12.9329 25.9329 15.2556 26.1629 17 25V25M16 7H19.2101C19.7158 7 20.2009 6.79907 20.5586 6.44142V6.44142C21.3387 5.66135 22.6159 5.70388 23.3423 6.53411L28.3112 12.2128C28.7427 12.7059 28.9052 13.3791 28.7463 14.0148L28.5374 14.8503C28.1858 16.2569 27.4584 17.5416 26.4331 18.5669L26 19M16 7L14.2297 8.77033C13.1328 9.86724 13.4328 11.7164 14.8203 12.4102V12.4102C15.5498 12.7749 16.4188 12.7208 17.0974 12.2684L17.1946 12.2036C18.2277 11.5149 19.6112 11.6985 20.4288 12.633L26 19M26 19V20C26 21.1046 25.1046 22 24 22V22M17 25L13 21M17 25L17.1539 25.0513C18.5541 25.518 20 24.4759 20 23V23M20 23L16 19M20 23L20.8787 23.2929C22.0959 23.6986 23.4262 23.1476 24 22V22M24 22L19 17" stroke="#4299E1" stroke-width="2" stroke-linecap="round"/>
</svg>
