<svg width="32" height="32" viewBox="0 0 32 32" fill="none" xmlns="http://www.w3.org/2000/svg">
<rect width="32" height="32" rx="8" fill="#FF7A001B"/>
<path d="M6.30207 15.7048C8.34812 14.5778 10.6321 13.6372 12.7661 12.6917C16.4374 11.1432 20.1233 9.62147 23.8464 8.20477C24.5708 7.96338 25.8724 7.72731 26 8.80081C25.9301 10.3203 25.6427 11.831 25.4455 13.3416C24.945 16.6636 24.3665 19.9742 23.8024 23.2853C23.608 24.3882 22.2264 24.9591 21.3424 24.2533C19.2179 22.8183 17.077 21.3972 14.9796 19.9289C14.2925 19.2307 14.9296 18.2282 15.5432 17.7297C17.2931 16.0052 19.1488 14.5401 20.8072 12.7265C21.2545 11.6462 19.9328 12.5567 19.4968 12.8356C17.1013 14.4864 14.7644 16.238 12.2387 17.6888C10.9486 18.399 9.44502 17.7921 8.15551 17.3958C6.9993 16.9171 5.30503 16.4348 6.30195 15.7049L6.30207 15.7048Z" fill="#FF5B00"/>
</svg>
