<svg viewBox="0 0 14 17" xmlns="http://www.w3.org/2000/svg">
  <path
    stroke="none"
    d="M3.8623 16.1465C2.80273 16.1465 2.13281 15.5176 2.08496 14.4648L1.62012 4.60742H0.861328C0.533203 4.60742 0.259766 4.34766 0.259766 4.00586C0.259766 3.6709 0.533203 3.41113 0.861328 3.41113L3.89648 3.41113V2.38574C3.89648 1.33984 4.56641 0.717773 5.69434 0.717773L8.29199 0.717773C9.42676 0.717773 10.0898 1.33984 10.0898 2.38574V3.41113L13.1318 3.41113C13.4736 3.41113 13.7402 3.6709 13.7402 4.00586C13.7402 4.34766 13.4736 4.60742 13.1318 4.60742H12.3799L11.915 14.458C11.8672 15.5107 11.1904 16.1465 10.1445 16.1465H3.8623ZM5.1543 2.44727V3.41113L8.83203 3.41113V2.44727C8.83203 2.0918 8.58594 1.86621 8.20312 1.86621L5.7832 1.86621C5.40039 1.86621 5.1543 2.0918 5.1543 2.44727ZM3.99219 14.9365L9.99414 14.9365C10.3838 14.9365 10.6572 14.6631 10.6709 14.2598L11.1152 4.60742L2.85742 4.60742L3.32227 14.2598C3.34277 14.6631 3.61621 14.9365 3.99219 14.9365ZM4.9834 13.8359C4.70996 13.8359 4.51855 13.6582 4.51172 13.3848L4.30664 6.2207C4.2998 5.9541 4.48438 5.76953 4.77148 5.76953C5.04492 5.76953 5.23633 5.94727 5.24316 6.2207L5.44824 13.3848C5.45508 13.6514 5.27051 13.8359 4.9834 13.8359ZM7 13.8359C6.71289 13.8359 6.52148 13.6514 6.52148 13.3848L6.52148 6.2207C6.52148 5.9541 6.71289 5.76953 7 5.76953C7.28711 5.76953 7.47852 5.9541 7.47852 6.2207L7.47852 13.3848C7.47852 13.6514 7.28711 13.8359 7 13.8359ZM9.0166 13.8359C8.72949 13.8359 8.53809 13.6514 8.54492 13.3848L8.75684 6.2207C8.76367 5.94727 8.95508 5.76953 9.22852 5.76953C9.50879 5.76953 9.7002 5.9541 9.69336 6.2207L9.48145 13.3848C9.47461 13.6582 9.29004 13.8359 9.0166 13.8359Z"
  />
</svg>
