<svg width="32" height="32" viewBox="0 0 32 32" fill="none" xmlns="http://www.w3.org/2000/svg">
<rect width="32" height="32" rx="8" fill="#FF7A001B"/>
<path fill-rule="evenodd" clip-rule="evenodd" d="M23.6752 13.8607C24.9573 13.8607 26 14.8991 26 16.1752C26 17.019 25.5423 17.7562 24.8639 18.1599C24.8918 18.3527 24.9068 18.5475 24.9068 18.7446C24.9068 22.0357 20.8927 24.7134 15.9591 24.7134C11.025 24.7134 7.01136 22.0357 7.01136 18.7446C7.01136 18.5321 7.02886 18.3221 7.06136 18.1148C6.42364 17.7021 6 16.9878 6 16.1752C6 14.8991 7.04273 13.8609 8.32477 13.8607C8.89432 13.8607 9.41682 14.0671 9.82159 14.4074C11.3652 13.4351 13.425 12.8246 15.6955 12.7802L17.023 8.60279C17.0927 8.38059 17.3241 8.25003 17.5518 8.30321L20.9898 9.10851C21.2975 8.45503 21.9627 8 22.7345 8C23.7968 8 24.6616 8.86052 24.6616 9.91857C24.6616 10.9766 23.797 11.8371 22.7345 11.8371C21.6934 11.8371 20.845 11.0106 20.8107 9.9826L17.7511 9.26532L16.6298 12.794C18.7623 12.9002 20.688 13.5063 22.1445 14.4379C22.5539 14.0799 23.0889 13.8607 23.6752 13.8607ZM13.0147 16.2896C13.7699 16.2896 14.3822 16.9202 14.3822 17.6719C14.3822 18.4233 13.7699 19.0327 13.0147 19.0336C12.2599 19.0336 11.6265 18.4233 11.6265 17.6719C11.6265 16.9202 12.2597 16.2896 13.0147 16.2896ZM19.0062 16.2891C18.2512 16.2891 17.616 16.9195 17.616 17.6711C17.616 18.423 18.2512 19.0328 19.0062 19.0328C19.7615 19.0328 20.3742 18.4235 20.3742 17.6711C20.3737 16.919 19.7615 16.2891 19.0062 16.2891ZM16.0105 21.7202C17.2603 21.7202 18.1133 21.4756 18.6199 20.972C18.7951 20.7982 19.0787 20.7982 19.254 20.9724C19.4287 21.1462 19.4287 21.4281 19.2535 21.6026C18.5708 22.2814 17.5099 22.612 16.0105 22.612C16.0086 22.612 16.0067 22.6116 16.0049 22.6113C16.0032 22.611 16.0014 22.6106 15.9996 22.6106C15.9978 22.6106 15.9962 22.611 15.9945 22.6113C15.9927 22.6116 15.9909 22.612 15.989 22.612C14.4894 22.612 13.4287 22.2814 12.7467 21.6021C12.5717 21.4286 12.5717 21.1464 12.7467 20.972C12.9215 20.7977 13.2051 20.7977 13.3799 20.972C13.8858 21.4756 14.739 21.7202 15.989 21.7202C15.9907 21.7202 15.9924 21.7205 15.9941 21.7208C15.9959 21.7211 15.9977 21.7214 15.9996 21.7214C16.0033 21.7214 16.0067 21.7202 16.0105 21.7202Z" fill="#FF5B00"/>
</svg>
