<svg viewBox="0 0 24 24" xmlns="http://www.w3.org/2000/svg">
  <path
    stroke="none"
    d="M8.8623 19.1465C7.80273 19.1465 7.13281 18.5176 7.08496 17.4648L6.62012 7.60742H5.86133C5.5332 7.60742 5.25977 7.34766 5.25977 7.00586C5.25977 6.6709 5.5332 6.41113 5.86133 6.41113L8.89648 6.41113V5.38574C8.89648 4.33984 9.56641 3.71777 10.6943 3.71777L13.292 3.71777C14.4268 3.71777 15.0898 4.33984 15.0898 5.38574V6.41113H18.1318C18.4736 6.41113 18.7402 6.6709 18.7402 7.00586C18.7402 7.34766 18.4736 7.60742 18.1318 7.60742H17.3799L16.915 17.458C16.8672 18.5107 16.1904 19.1465 15.1445 19.1465H8.8623ZM10.1543 5.44727V6.41113L13.832 6.41113V5.44727C13.832 5.0918 13.5859 4.86621 13.2031 4.86621L10.7832 4.86621C10.4004 4.86621 10.1543 5.0918 10.1543 5.44727ZM8.99219 17.9365H14.9941C15.3838 17.9365 15.6572 17.6631 15.6709 17.2598L16.1152 7.60742L7.85742 7.60742L8.32227 17.2598C8.34277 17.6631 8.61621 17.9365 8.99219 17.9365ZM9.9834 16.8359C9.70996 16.8359 9.51855 16.6582 9.51172 16.3848L9.30664 9.2207C9.2998 8.9541 9.48438 8.76953 9.77148 8.76953C10.0449 8.76953 10.2363 8.94727 10.2432 9.2207L10.4482 16.3848C10.4551 16.6514 10.2705 16.8359 9.9834 16.8359ZM12 16.8359C11.7129 16.8359 11.5215 16.6514 11.5215 16.3848L11.5215 9.2207C11.5215 8.9541 11.7129 8.76953 12 8.76953C12.2871 8.76953 12.4785 8.9541 12.4785 9.2207L12.4785 16.3848C12.4785 16.6514 12.2871 16.8359 12 16.8359ZM14.0166 16.8359C13.7295 16.8359 13.5381 16.6514 13.5449 16.3848L13.7568 9.2207C13.7637 8.94727 13.9551 8.76953 14.2285 8.76953C14.5088 8.76953 14.7002 8.9541 14.6934 9.2207L14.4814 16.3848C14.4746 16.6582 14.29 16.8359 14.0166 16.8359Z"
  />
</svg>
