<svg width="32" height="32" viewBox="0 0 32 32" fill="none" xmlns="http://www.w3.org/2000/svg">
<rect width="32" height="32" rx="8" fill="#FF7A001B"/>
<path fill-rule="evenodd" clip-rule="evenodd" d="M23.8137 9.41797C24.6743 9.64795 25.352 10.3256 25.582 11.1861C26 12.7458 26 16 26 16C26 16 26 19.2541 25.582 20.8139C25.352 21.6744 24.6743 22.352 23.8137 22.5821C22.2542 23 16 23 16 23C16 23 9.7458 23 8.18614 22.5821C7.32557 22.352 6.64784 21.6744 6.41784 20.8139C6 19.2541 6 16 6 16C6 16 6 12.7458 6.41784 11.1861C6.64784 10.3256 7.32557 9.64795 8.18614 9.41797C9.7458 9 16 9 16 9C16 9 22.2542 9 23.8137 9.41797ZM14.125 13.2611V19.348L19.125 16.3046L14.125 13.2611Z" fill="#FF5B00"/>
</svg>
