<svg width="32" height="32" viewBox="0 0 32 32" fill="none" xmlns="http://www.w3.org/2000/svg">
<rect width="32" height="32" rx="8" fill="#FF7A001B"/>
<path d="M15.7111 12.3967L15.7545 13.1115L15.0319 13.024C12.4018 12.6884 10.1041 11.5505 8.15321 9.63929L7.19944 8.69098L6.95377 9.39127C6.43353 10.9523 6.76591 12.6009 7.84974 13.7097C8.42779 14.3225 8.29773 14.41 7.3006 14.0453C6.95377 13.9285 6.6503 13.841 6.6214 13.8848C6.52024 13.9869 6.86707 15.3145 7.14164 15.8397C7.51737 16.5692 8.28327 17.2841 9.12144 17.7072L9.82954 18.0427L8.99138 18.0573C8.18212 18.0573 8.15321 18.0719 8.23992 18.3783C8.52894 19.3266 9.67058 20.3332 10.9423 20.7709L11.8382 21.0773L11.0579 21.5442C9.9018 22.2153 8.54339 22.5946 7.18499 22.6238C6.53469 22.6384 6 22.6967 6 22.7405C6 22.8864 7.76303 23.7034 8.78906 24.0243C11.8671 24.9726 15.5233 24.5641 18.269 22.9447C20.2199 21.7922 22.1708 19.5017 23.0812 17.2841C23.5725 16.1023 24.0639 13.9431 24.0639 12.9073C24.0639 12.2362 24.1072 12.1486 24.9165 11.3462C25.3934 10.8794 25.8414 10.3688 25.9281 10.2229C26.0726 9.94566 26.0581 9.94566 25.3211 10.1937C24.0928 10.6314 23.9194 10.573 24.5263 9.91648C24.9743 9.44963 25.509 8.60345 25.509 8.35543C25.509 8.31166 25.2922 8.38461 25.0466 8.51591C24.7864 8.6618 24.2084 8.88064 23.7749 9.01195L22.9945 9.25996L22.2864 8.77852C21.8962 8.51591 21.3471 8.22412 21.058 8.13659C20.321 7.93234 19.1939 7.96152 18.5291 8.19495C16.7227 8.85146 15.5811 10.5438 15.7111 12.3967Z" fill="#FF5B00"/>
</svg>
