<svg viewBox="0 0 24 24" xmlns="http://www.w3.org/2000/svg">
<path d="M11.9932 19.126C11.0179 19.126 10.1042 18.9414 9.25195 18.5723C8.39974 18.2077 7.65007 17.7018 7.00293 17.0547C6.35579 16.4121 5.84766 15.6647 5.47852 14.8125C5.11393 13.9557 4.93164 13.0397 4.93164 12.0645C4.93164 11.0892 5.11393 10.1755 5.47852 9.32324C5.84766 8.46647 6.35579 7.71452 7.00293 7.06738C7.65007 6.42025 8.39974 5.91439 9.25195 5.5498C10.1042 5.18522 11.0179 5.00293 11.9932 5.00293C12.9684 5.00293 13.8822 5.18522 14.7344 5.5498C15.5911 5.91439 16.3431 6.42025 16.9902 7.06738C17.6374 7.71452 18.1432 8.46647 18.5078 9.32324C18.877 10.1755 19.0615 11.0892 19.0615 12.0645C19.0615 13.0397 18.877 13.9557 18.5078 14.8125C18.1432 15.6647 17.6374 16.4121 16.9902 17.0547C16.3431 17.7018 15.5911 18.2077 14.7344 18.5723C13.8822 18.9414 12.9684 19.126 11.9932 19.126ZM11.9932 17.7314C12.777 17.7314 13.5107 17.5833 14.1943 17.2871C14.8779 16.9954 15.4795 16.5898 15.999 16.0703C16.5231 15.5508 16.931 14.9492 17.2227 14.2656C17.5143 13.582 17.6602 12.8483 17.6602 12.0645C17.6602 11.2806 17.5143 10.5469 17.2227 9.86328C16.931 9.17513 16.5231 8.57357 15.999 8.05859C15.4795 7.53906 14.8779 7.13346 14.1943 6.8418C13.5107 6.54557 12.777 6.39746 11.9932 6.39746C11.2139 6.39746 10.4801 6.54557 9.79199 6.8418C9.1084 7.13346 8.50684 7.53906 7.9873 8.05859C7.46777 8.57357 7.0599 9.17513 6.76367 9.86328C6.47201 10.5469 6.32617 11.2806 6.32617 12.0645C6.32617 12.8483 6.47201 13.582 6.76367 14.2656C7.0599 14.9492 7.46777 15.5508 7.9873 16.0703C8.50684 16.5898 9.1084 16.9954 9.79199 17.2871C10.4801 17.5833 11.2139 17.7314 11.9932 17.7314ZM12 15.5986C11.5124 15.5986 11.0544 15.5052 10.626 15.3184C10.1976 15.1315 9.81934 14.8763 9.49121 14.5527C9.16764 14.2246 8.91243 13.8486 8.72559 13.4248C8.54329 12.9964 8.45215 12.5407 8.45215 12.0576C8.45215 11.5745 8.55013 11.1097 8.74609 10.6631C8.94206 10.2119 9.21549 9.82454 9.56641 9.50098C9.69401 9.37793 9.82389 9.32096 9.95605 9.33008C10.0928 9.33919 10.2067 9.3916 10.2979 9.4873C10.389 9.57845 10.4391 9.69238 10.4482 9.8291C10.4574 9.96582 10.3981 10.0957 10.2705 10.2188C10.0153 10.4603 9.81934 10.7383 9.68262 11.0527C9.55046 11.3672 9.48438 11.7021 9.48438 12.0576C9.48438 12.5225 9.59603 12.9463 9.81934 13.3291C10.0426 13.7074 10.3434 14.0104 10.7217 14.2383C11.1045 14.4616 11.5306 14.5732 12 14.5732C12.4648 14.5732 12.8864 14.4616 13.2646 14.2383C13.6475 14.0104 13.9505 13.7074 14.1738 13.3291C14.4017 12.9463 14.5156 12.5225 14.5156 12.0576C14.5111 11.7021 14.4404 11.3672 14.3037 11.0527C14.167 10.7383 13.9733 10.4626 13.7227 10.2256C13.5951 10.098 13.5335 9.9681 13.5381 9.83594C13.5472 9.69922 13.5973 9.58301 13.6885 9.4873C13.7842 9.3916 13.9004 9.33919 14.0371 9.33008C14.1738 9.32096 14.3037 9.37793 14.4268 9.50098C14.7777 9.8291 15.0511 10.2188 15.2471 10.6699C15.443 11.1165 15.541 11.5791 15.541 12.0576C15.541 12.5407 15.4476 12.9964 15.2607 13.4248C15.0739 13.8486 14.8187 14.2246 14.4951 14.5527C14.1715 14.8763 13.7956 15.1315 13.3672 15.3184C12.9388 15.5052 12.4831 15.5986 12 15.5986ZM12 12.2422C11.8451 12.2422 11.7197 12.1943 11.624 12.0986C11.5283 12.0029 11.4805 11.8776 11.4805 11.7227V8.85156C11.4805 8.69206 11.5283 8.56445 11.624 8.46875C11.7197 8.36849 11.8451 8.31836 12 8.31836C12.1458 8.31836 12.2666 8.36849 12.3623 8.46875C12.458 8.56445 12.5059 8.69206 12.5059 8.85156V11.7227C12.5059 11.8776 12.458 12.0029 12.3623 12.0986C12.2666 12.1943 12.1458 12.2422 12 12.2422Z" fill="currentColor"/>
</svg>
