<svg width="13" height="22" viewBox="0 0 13 22" fill="none" xmlns="http://www.w3.org/2000/svg">
<path fill-rule="evenodd" clip-rule="evenodd" d="M0.953125 20.5879C0.464844 20.1257 0.220703 19.5137 0.220703 18.752V3.14648C0.220703 2.38477 0.464844 1.77279 0.953125 1.31055C1.44141 0.841797 2.08268 0.607422 2.87695 0.607422H10.1133C10.9141 0.607422 11.5553 0.841797 12.0371 1.31055C12.5254 1.77279 12.7695 2.38477 12.7695 3.14648V18.752C12.7695 19.5137 12.5254 20.1257 12.0371 20.5879C11.5553 21.0566 10.9141 21.291 10.1133 21.291H2.87695C2.08268 21.291 1.44141 21.0566 0.953125 20.5879ZM1.79297 3.91797V17.9805H11.1973V3.91797H1.79297ZM5.9043 20.0703C6.07357 20.2396 6.27539 20.3242 6.50977 20.3242C6.73763 20.3242 6.93294 20.2396 7.0957 20.0703C7.26497 19.9076 7.34961 19.709 7.34961 19.4746C7.34961 19.2402 7.26497 19.0417 7.0957 18.8789C6.93294 18.7161 6.73763 18.6348 6.50977 18.6348C6.27539 18.6348 6.07357 18.7161 5.9043 18.8789C5.74154 19.0417 5.66016 19.2402 5.66016 19.4746C5.66016 19.709 5.74154 19.9076 5.9043 20.0703ZM4.74219 2.05273C4.67708 2.11784 4.64453 2.20573 4.64453 2.31641C4.64453 2.42708 4.67708 2.51497 4.74219 2.58008C4.8138 2.64518 4.90495 2.67773 5.01562 2.67773H7.98438C8.09505 2.67773 8.18294 2.64518 8.24805 2.58008C8.31966 2.51497 8.35547 2.42708 8.35547 2.31641C8.35547 2.20573 8.31966 2.11784 8.24805 2.05273C8.18294 1.98112 8.09505 1.94531 7.98438 1.94531H5.01562C4.90495 1.94531 4.8138 1.98112 4.74219 2.05273ZM6.14453 7.59766C6.23568 7.50651 6.35286 7.46094 6.49609 7.46094C6.63932 7.46094 6.75521 7.50651 6.84375 7.59766C6.9349 7.6888 6.98047 7.80859 6.98047 7.95703V12.5898L6.94888 13.433L7.875 12.3867L8.75781 11.5117C8.80208 11.4674 8.85286 11.4323 8.91016 11.4062C8.97005 11.3802 9.03516 11.3672 9.10547 11.3672C9.23828 11.3672 9.34896 11.4115 9.4375 11.5C9.52604 11.5885 9.57031 11.7005 9.57031 11.8359C9.57031 11.9661 9.51953 12.0833 9.41797 12.1875L6.85938 14.7539C6.8125 14.8008 6.75651 14.8372 6.69141 14.8633C6.62891 14.8893 6.5638 14.9023 6.49609 14.9023C6.43099 14.9023 6.36589 14.8893 6.30078 14.8633C6.23828 14.8372 6.18359 14.8008 6.13672 14.7539L3.57812 12.1875C3.47656 12.0833 3.42578 11.9661 3.42578 11.8359C3.42578 11.7005 3.47005 11.5885 3.55859 11.5C3.64714 11.4115 3.75781 11.3672 3.89062 11.3672C3.96094 11.3672 4.02474 11.3802 4.08203 11.4062C4.13932 11.4323 4.1901 11.4674 4.23438 11.5117L5.11719 12.3867L6.04344 13.4365L6.01172 12.5898V7.95703C6.01172 7.80859 6.05599 7.6888 6.14453 7.59766Z" fill="#A0AEC0"/>
</svg>
