<svg viewBox="0 0 16 16" xmlns="http://www.w3.org/2000/svg">
  <path
    stroke="none"
    d="M1.66309 13.0361C1.33496 13.0361 1.23242 12.7422 1.44434 12.5166L2.42188 11.498C2.16895 11.2246 2.12793 10.8623 2.28516 10.5068L3.24219 8.24414C3.31738 8.07324 3.37891 7.99121 3.48828 7.875L10.085 1.33301C10.7412 0.676757 11.5273 0.683593 12.1904 1.35351L13.667 2.83691C14.3301 3.5 14.3369 4.28613 13.6807 4.94238L7.08398 11.4912C6.97461 11.6006 6.88574 11.6621 6.71484 11.7373L4.45215 12.6807C4.07617 12.8379 3.7002 12.79 3.44727 12.5303L2.98926 12.8789C2.83887 13.002 2.75684 13.0361 2.55176 13.0361H1.66309ZM10.8438 2.22851L10.3857 2.67969L12.3271 4.63476L12.7852 4.18359C12.9629 4.00586 12.9697 3.79394 12.8057 3.62305L11.4043 2.21484C11.2334 2.04394 11.0215 2.05078 10.8438 2.22851ZM4.69141 8.33984L6.63281 10.2949L11.5957 5.35937L9.6543 3.41113L4.69141 8.33984ZM4.31543 11.4775L5.75098 10.876L4.10352 9.21484L3.48828 10.6504C3.43359 10.7734 3.43359 10.8691 3.5498 10.9854L3.98047 11.416C4.09668 11.5322 4.18555 11.5322 4.31543 11.4775ZM1.44434 15.4697C1.11621 15.4697 0.849609 15.1895 0.849609 14.8682C0.849609 14.54 1.11621 14.2666 1.44434 14.2666L14.5557 14.2666C14.8838 14.2666 15.1504 14.54 15.1504 14.8682C15.1504 15.1895 14.8838 15.4697 14.5557 15.4697L1.44434 15.4697Z"
  />
</svg>
