<svg width="24" height="24" viewBox="0 0 24 24" fill="none" xmlns="http://www.w3.org/2000/svg">
<path d="M17.0303 18.3467C17.2559 18.5723 17.6182 18.5791 17.8438 18.3467C18.0693 18.1074 18.0693 17.7588 17.8438 17.5332L5.94922 5.64551C5.72363 5.41992 5.35449 5.41992 5.12891 5.64551C4.91016 5.86426 4.91016 6.24023 5.12891 6.45898L17.0303 18.3467ZM11.4932 6.04883C10.2969 6.04883 9.20312 6.24707 8.19824 6.5752L9.68848 8.07227C10.2627 7.92188 10.8574 7.83301 11.4932 7.83301C15.5947 7.83301 18.7051 11.3057 18.7051 12.0781C18.7051 12.5771 17.7891 13.7803 16.2988 14.7715L17.6729 16.1523C19.7783 14.7168 20.9883 12.8711 20.9883 12.0781C20.9883 10.6768 17.2627 6.04883 11.4932 6.04883ZM11.4932 18.1143C12.7373 18.1143 13.8789 17.9023 14.9111 17.5605L13.4209 16.0635C12.8125 16.2207 12.1768 16.3232 11.4932 16.3232C7.3916 16.3232 4.28125 13.0078 4.28125 12.0781C4.28125 11.6543 5.24512 10.3896 6.81055 9.36426L5.41602 7.96973C3.25586 9.41211 2.00488 11.2715 2.00488 12.0781C2.00488 13.4795 5.8125 18.1143 11.4932 18.1143ZM14.6992 13.0352C14.8154 12.7412 14.8838 12.4131 14.8838 12.0713C14.8838 10.1982 13.3799 8.70117 11.5 8.70117C11.1582 8.70117 10.8369 8.75586 10.5361 8.87207L14.6992 13.0352ZM11.4932 15.4551C11.876 15.4551 12.2383 15.3799 12.5664 15.2432L8.32812 11.0049C8.18457 11.333 8.10938 11.6885 8.10938 12.0781C8.10938 13.917 9.61328 15.4551 11.4932 15.4551Z" fill="#FF5B00"/>
</svg>
