<svg width="24" height="24" viewBox="0 0 24 24" fill="none" xmlns="http://www.w3.org/2000/svg">
<path d="M11.4932 18.0254C17.1738 18.0254 20.8516 13.459 20.8516 12.0781C20.8516 10.6904 17.167 6.13086 11.4932 6.13086C5.90137 6.13086 2.1416 10.6904 2.1416 12.0781C2.1416 13.459 5.89453 18.0254 11.4932 18.0254ZM11.5 15.667C9.50391 15.667 7.89062 14.0264 7.88379 12.0781C7.87695 10.0752 9.50391 8.48926 11.5 8.48926C13.4893 8.48926 15.1094 10.082 15.1094 12.0781C15.1094 14.0264 13.4893 15.667 11.5 15.667ZM11.4932 13.5C12.2793 13.5 12.9219 12.8643 12.9219 12.085C12.9219 11.3057 12.2793 10.6562 11.4932 10.6562C10.707 10.6562 10.0713 11.3057 10.0713 12.085C10.0713 12.8643 10.707 13.5 11.4932 13.5Z" fill="#FF5B00"/>
</svg>
