<svg viewBox="0 0.1 20 19.1" xmlns="http://www.w3.org/2000/svg">
  <path
    stroke="none"
    d="M10 18.7334C5.03418 18.7334 0.920898 14.6289 0.920898 9.6543C0.920898 4.68848 5.02539 0.575195 9.99121 0.575195C14.9658 0.575195 19.0791 4.68848 19.0791 9.6543C19.0791 14.6289 14.9658 18.7334 10 18.7334ZM10 16.9492C14.043 16.9492 17.2949 13.6973 17.2949 9.6543C17.2949 5.61133 14.0342 2.36816 9.99121 2.36816C5.94824 2.36816 2.71387 5.61133 2.71387 9.6543C2.71387 13.6973 5.95703 16.9492 10 16.9492ZM5.39453 7.97559C4.95508 7.97559 4.65625 7.70312 4.65625 7.29004C4.65625 6.87695 4.95508 6.5957 5.39453 6.5957H14.6143C15.0537 6.5957 15.3613 6.87695 15.3613 7.29004C15.3613 7.70312 15.0537 7.97559 14.6143 7.97559H5.39453ZM6.61621 10.8848C6.17676 10.8848 5.86914 10.6035 5.86914 10.1904C5.86914 9.77734 6.17676 9.49609 6.61621 9.49609H13.4014C13.832 9.49609 14.1396 9.77734 14.1396 10.1904C14.1396 10.6035 13.832 10.8848 13.4014 10.8848H6.61621ZM7.88184 13.7852C7.44238 13.7852 7.13477 13.5127 7.13477 13.0996C7.13477 12.6865 7.44238 12.4053 7.88184 12.4053H12.127C12.5664 12.4053 12.874 12.6865 12.874 13.0996C12.874 13.5127 12.5664 13.7852 12.127 13.7852H7.88184Z"
  />
</svg>
