<svg viewBox="0 0 16 15" xmlns="http://www.w3.org/2000/svg">
  <path
    stroke-width="0"
    d="M8 14.126C4.1377 14.126 0.938477 10.9336 0.938477 7.06445C0.938477 3.20215 4.13086 0.00292969 7.99316 0.00292969C11.8623 0.00292969 15.0615 3.20215 15.0615 7.06445C15.0615 10.9336 11.8623 14.126 8 14.126ZM8 12.7383C11.1445 12.7383 13.6738 10.209 13.6738 7.06445C13.6738 3.91992 11.1377 1.39746 7.99316 1.39746C4.84863 1.39746 2.33301 3.91992 2.33301 7.06445C2.33301 10.209 4.85547 12.7383 8 12.7383ZM4.41797 5.75879C4.07617 5.75879 3.84375 5.54688 3.84375 5.22559C3.84375 4.9043 4.07617 4.68555 4.41797 4.68555H11.5889C11.9307 4.68555 12.1699 4.9043 12.1699 5.22559C12.1699 5.54688 11.9307 5.75879 11.5889 5.75879H4.41797ZM5.36816 8.02148C5.02637 8.02148 4.78711 7.80273 4.78711 7.48145C4.78711 7.16016 5.02637 6.94141 5.36816 6.94141H10.6455C10.9805 6.94141 11.2197 7.16016 11.2197 7.48145C11.2197 7.80273 10.9805 8.02148 10.6455 8.02148H5.36816ZM6.35254 10.2773C6.01074 10.2773 5.77148 10.0654 5.77148 9.74414C5.77148 9.42285 6.01074 9.2041 6.35254 9.2041H9.6543C9.99609 9.2041 10.2354 9.42285 10.2354 9.74414C10.2354 10.0654 9.99609 10.2773 9.6543 10.2773H6.35254Z"
  />
</svg>
