<svg width="16" height="16" viewBox="0 0 16 16" fill="none" xmlns="http://www.w3.org/2000/svg">
<g clip-path="url(#clip0_8528_5611)">
<path d="M8 14.6666C11.6819 14.6666 14.6667 11.6818 14.6667 7.99992C14.6667 4.31802 11.6819 1.33325 8 1.33325C4.3181 1.33325 1.33334 4.31802 1.33334 7.99992C1.33334 11.6818 4.3181 14.6666 8 14.6666Z" stroke-linecap="round" stroke-linejoin="round"/>
<path d="M1.33334 8H14.6667" stroke-linecap="round" stroke-linejoin="round"/>
<path d="M8 1.33325C9.66752 3.15882 10.6152 5.52794 10.6667 7.99992C10.6152 10.4719 9.66752 12.841 8 14.6666C6.33248 12.841 5.38483 10.4719 5.33334 7.99992C5.38483 5.52794 6.33248 3.15882 8 1.33325V1.33325Z" stroke-linecap="round" stroke-linejoin="round"/>
</g>
<defs>
<clipPath id="clip0_8528_5611">
<rect width="16" height="16" fill="white"/>
</clipPath>
</defs>
</svg>
