<svg width="24" height="24" viewBox="0 0 24 24" fill="none" xmlns="http://www.w3.org/2000/svg">
  <path d="M5.32812 11.0254V9.50098C5.32812 8.66016 5.82715 8.28418 6.63379 8.28418H8.00098C7.60449 7.90137 7.36523 7.38184 7.36523 6.77344C7.36523 5.41992 8.45215 4.44238 9.80566 4.44238C10.8105 4.44238 11.665 5.00977 12 6.00781C12.335 5.00977 13.1826 4.44238 14.1943 4.44238C15.5479 4.44238 16.6348 5.41992 16.6348 6.77344C16.6348 7.38184 16.3955 7.90137 15.999 8.28418H17.3594C18.207 8.28418 18.6719 8.66016 18.6719 9.50098V11.0254C18.6719 11.7842 18.2412 12.126 17.4756 12.126H12.6426V8.28418H11.3574V7.32031C11.3574 6.35645 10.7148 5.72754 9.92188 5.72754C9.18359 5.72754 8.6709 6.17188 8.6709 6.90332C8.6709 7.64844 9.2793 8.28418 10.3252 8.28418H11.3574V12.126H6.52441C5.76562 12.126 5.32812 11.7842 5.32812 11.0254ZM14.0781 5.72754C13.2852 5.72754 12.6426 6.35645 12.6426 7.32031V8.28418H13.6748C14.7207 8.28418 15.3291 7.64844 15.3291 6.90332C15.3291 6.17188 14.8164 5.72754 14.0781 5.72754ZM6.27148 17.1709V12.9531H11.3574V18.9619H8.13086C6.96191 18.9619 6.27148 18.333 6.27148 17.1709ZM12.6426 18.9619V12.9531H17.7285V17.1709C17.7285 18.333 17.0381 18.9619 15.8691 18.9619H12.6426Z" fill="url(#paint0_linear_10955_108902)"/>
  <linearGradient id="paint0_linear_10955_108902" x1="3.33333" y1="4" x2="20" y2="21.1111" gradientUnits="userSpaceOnUse">
    <stop stop-color="#FF5B00"/>
    <stop offset="1" stop-color="#F4BE38"/>
  </linearGradient>
  <clipPath id="clip0_10955_108902">
    <rect width="24" height="24" fill="white"/>
  </clipPath>
</svg>
