<?xml version="1.0" encoding="UTF-8" standalone="no"?>
<svg
   xmlns="http://www.w3.org/2000/svg"
   width="24"
   height="24"
   viewBox="0 0 24 24"
>
  <g
     fill="white"
     fill-rule="evenodd"
     id="helpcrunch-g6">
    <path
       d="M 19.922,0 C 21.622,0 23,1.378 23,3.078 V 14.252 L 13.466,24 V 19.5 H 4.078 C 2.378,19.5 1,18.122 1,16.422 V 5.25 L 6.134,0 H 19.92 Z M 16.266,5.25 H 6.134 v 7.4 c 0,0.884 0.716,1.6 1.6,1.6 h 10.132 v -7.4 c 0,-0.884 -0.716,-1.6 -1.6,-1.6 z M 15.6,6.75 c 0.44,0 0.8,0.36 0.8,0.8 v 5.2 h -8 c -0.44,0 -0.8,-0.358 -0.8,-0.8 v -5.2 z"
       id="path4"
       style="stroke-width:2" />
  </g>
</svg>
