<svg viewBox="0.5 0 21 19" xmlns="http://www.w3.org/2000/svg">
  <path
    stroke="none"
    d="M1.72754 7.87012H2.9668C3.80176 3.73047 7.50195 0.575195 11.8613 0.575195C16.8359 0.575195 20.9404 4.68848 20.9404 9.6543C20.9404 14.6289 16.8359 18.7334 11.8613 18.7334C9.01367 18.7334 6.35059 17.3008 4.72461 15.1738C4.33789 14.708 4.41699 14.1455 4.82129 13.8555C5.25195 13.5479 5.76172 13.6797 6.11328 14.0928C7.44043 15.833 9.50586 16.9404 11.8613 16.9492C15.9131 16.958 19.1562 13.6973 19.1562 9.6543C19.1562 5.61133 15.9131 2.36816 11.8613 2.36816C8.43359 2.36816 5.57715 4.69727 4.79492 7.87012H6.06055C6.7373 7.87012 6.91309 8.38867 6.54395 8.88965L4.41699 11.8516C4.12695 12.2559 3.66992 12.2646 3.37109 11.8516L1.24414 8.89844C0.866211 8.37988 1.04199 7.87012 1.72754 7.87012ZM11.5273 4.40723C11.9844 4.40723 12.3623 4.77637 12.3623 5.2334V9.8916L14.4365 12.7041C14.7441 13.1348 14.7178 13.6357 14.3223 13.9082C13.8916 14.1982 13.417 14.1191 13.0654 13.6621L10.9385 10.8496C10.7627 10.6299 10.7012 10.4277 10.7012 10.2168V5.2334C10.7012 4.77637 11.0703 4.40723 11.5273 4.40723Z"
  />
</svg>
