<svg viewBox="0 0 24 24" xmlns="http://www.w3.org/2000/svg">
  <path
    stroke="none"
    d="M10.2432 13.8008C10.0791 13.8008 9.92871 13.7461 9.77148 13.582L7.47461 11.374C7.3584 11.2578 7.29004 11.1348 7.29004 10.9707C7.29004 10.6494 7.54297 10.4238 7.85059 10.4238C8.00781 10.4238 8.17188 10.4922 8.28125 10.6152L9.23828 11.6338L9.68262 12.1396L9.61426 11.1211V4.03223C9.61426 3.69727 9.90137 3.41016 10.2432 3.41016C10.5918 3.41016 10.8789 3.69727 10.8789 4.03223V11.1211L10.8105 12.1328L11.248 11.6338L12.2119 10.6152C12.3213 10.4922 12.4785 10.4238 12.6357 10.4238C12.9434 10.4238 13.1963 10.6494 13.1963 10.9707C13.1963 11.1348 13.1348 11.2578 13.0186 11.374L10.7217 13.582C10.5645 13.7461 10.4141 13.8008 10.2432 13.8008ZM6.3125 18.2305C4.83594 18.2305 4.07031 17.4717 4.07031 16.0088L4.07031 9.28223C4.07031 7.81934 4.83594 7.06738 6.3125 7.06738L8.29492 7.06738V8.40723H6.39453C5.75879 8.40723 5.41016 8.73535 5.41016 9.39844L5.41016 15.8994C5.41016 16.5625 5.75879 16.8906 6.39453 16.8906H14.0986C14.7275 16.8906 15.083 16.5625 15.083 15.8994L15.083 9.39844C15.083 8.73535 14.7275 8.40723 14.0986 8.40723L12.1982 8.40723V7.06738H14.1807C15.6572 7.06738 16.4229 7.82617 16.4229 9.28223V10.1641H17.6807C19.1504 10.1641 19.9229 10.9229 19.9229 12.3857V19.2969C19.9229 20.7598 19.1504 21.5186 17.6807 21.5186L10.3799 21.5186C8.89648 21.5186 8.1377 20.7598 8.1377 19.2969V18.2305H6.3125ZM10.4619 20.1787L17.5986 20.1787C18.2344 20.1787 18.583 19.8438 18.583 19.1807V12.502C18.583 11.8389 18.2344 11.5039 17.5986 11.5039H16.4229V16.0088C16.4229 17.4717 15.6572 18.2305 14.1807 18.2305H9.47754V19.1807C9.47754 19.8438 9.83301 20.1787 10.4619 20.1787Z"
  />
</svg>
