<svg viewBox="0 0 16 19" xmlns="http://www.w3.org/2000/svg">
  <path
    stroke="none"
    d="M6.24316 10.8008C6.0791 10.8008 5.92871 10.7461 5.77148 10.582L3.47461 8.37402C3.3584 8.25781 3.29004 8.13477 3.29004 7.9707C3.29004 7.64941 3.54297 7.42383 3.85059 7.42383C4.00781 7.42383 4.17188 7.49219 4.28125 7.61523L5.23828 8.63379L5.68262 9.13965L5.61426 8.12109L5.61426 1.03223C5.61426 0.697266 5.90137 0.410156 6.24316 0.410156C6.5918 0.410156 6.87891 0.697266 6.87891 1.03223L6.87891 8.12109L6.81055 9.13281L7.24805 8.63379L8.21191 7.61523C8.32129 7.49219 8.47852 7.42383 8.63574 7.42383C8.94336 7.42383 9.19629 7.64941 9.19629 7.9707C9.19629 8.13477 9.13477 8.25781 9.01855 8.37402L6.72168 10.582C6.56445 10.7461 6.41406 10.8008 6.24316 10.8008ZM2.3125 15.2305C0.835938 15.2305 0.0703125 14.4717 0.0703125 13.0088L0.0703125 6.28223C0.0703125 4.81934 0.835938 4.06738 2.3125 4.06738L4.29492 4.06738V5.40723L2.39453 5.40723C1.75879 5.40723 1.41016 5.73535 1.41016 6.39844L1.41016 12.8994C1.41016 13.5625 1.75879 13.8906 2.39453 13.8906L10.0986 13.8906C10.7275 13.8906 11.083 13.5625 11.083 12.8994L11.083 6.39844C11.083 5.73535 10.7275 5.40723 10.0986 5.40723L8.19824 5.40723V4.06738H10.1807C11.6572 4.06738 12.4229 4.82617 12.4229 6.28223L12.4229 7.16406H13.6807C15.1504 7.16406 15.9229 7.92285 15.9229 9.38574V16.2969C15.9229 17.7598 15.1504 18.5186 13.6807 18.5186L6.37988 18.5186C4.89648 18.5186 4.1377 17.7598 4.1377 16.2969V15.2305H2.3125ZM6.46191 17.1787L13.5986 17.1787C14.2344 17.1787 14.583 16.8438 14.583 16.1807V9.50195C14.583 8.83887 14.2344 8.50391 13.5986 8.50391H12.4229V13.0088C12.4229 14.4717 11.6572 15.2305 10.1807 15.2305L5.47754 15.2305V16.1807C5.47754 16.8438 5.83301 17.1787 6.46191 17.1787Z"
  />
</svg>
