<svg viewBox="0 0 24 24" xmlns="http://www.w3.org/2000/svg">
  <path
    stroke="none"
    d="M11.9932 14.8877C11.8291 14.8877 11.6787 14.833 11.5215 14.6758L9.22461 12.4609C9.1084 12.3447 9.04004 12.2217 9.04004 12.0576C9.04004 11.7432 9.29297 11.5107 9.60059 11.5107C9.75781 11.5107 9.92188 11.5791 10.0312 11.7021L10.9883 12.7207L11.4326 13.2266L11.3643 12.208V5.11914C11.3643 4.78418 11.6514 4.49707 11.9932 4.49707C12.3418 4.49707 12.6289 4.78418 12.6289 5.11914V12.208L12.5605 13.2197L12.998 12.7207L13.9619 11.7021C14.0713 11.5791 14.2285 11.5107 14.3857 11.5107C14.6934 11.5107 14.9463 11.7432 14.9463 12.0576C14.9463 12.2217 14.8848 12.3447 14.7686 12.4609L12.4717 14.6758C12.3145 14.833 12.1641 14.8877 11.9932 14.8877ZM8.0625 19.3174C6.58594 19.3174 5.82031 18.5586 5.82031 17.1025V10.3691C5.82031 8.91309 6.58594 8.1543 8.0625 8.1543H10.0449V9.49414H8.14453C7.50879 9.49414 7.16016 9.82227 7.16016 10.4854V16.9863C7.16016 17.6494 7.50879 17.9775 8.14453 17.9775H15.8486C16.4775 17.9775 16.833 17.6494 16.833 16.9863V10.4854C16.833 9.82227 16.4775 9.49414 15.8486 9.49414H13.9482V8.1543H15.9307C17.4072 8.1543 18.1729 8.91309 18.1729 10.3691V17.1025C18.1729 18.5586 17.4072 19.3174 15.9307 19.3174H8.0625Z"
  />
</svg>
