<svg viewBox="0 0 14 16" xmlns="http://www.w3.org/2000/svg">
  <path
    stroke="none"
    d="M6.99316 10.8877C6.8291 10.8877 6.67871 10.833 6.52148 10.6758L4.22461 8.46094C4.1084 8.34473 4.04004 8.22168 4.04004 8.05762C4.04004 7.74316 4.29297 7.51074 4.60059 7.51074C4.75781 7.51074 4.92188 7.5791 5.03125 7.70215L5.98828 8.7207L6.43262 9.22656L6.36426 8.20801V1.11914C6.36426 0.78418 6.65137 0.49707 6.99316 0.49707C7.3418 0.49707 7.62891 0.78418 7.62891 1.11914V8.20801L7.56055 9.21973L7.99805 8.7207L8.96191 7.70215C9.07129 7.5791 9.22852 7.51074 9.38574 7.51074C9.69336 7.51074 9.94629 7.74316 9.94629 8.05762C9.94629 8.22168 9.88477 8.34473 9.76855 8.46094L7.47168 10.6758C7.31445 10.833 7.16406 10.8877 6.99316 10.8877ZM3.0625 15.3174C1.58594 15.3174 0.820312 14.5586 0.820312 13.1025V6.36914C0.820312 4.91309 1.58594 4.1543 3.0625 4.1543H5.04492V5.49414H3.14453C2.50879 5.49414 2.16016 5.82227 2.16016 6.48535V12.9863C2.16016 13.6494 2.50879 13.9775 3.14453 13.9775H10.8486C11.4775 13.9775 11.833 13.6494 11.833 12.9863V6.48535C11.833 5.82227 11.4775 5.49414 10.8486 5.49414H8.94824V4.1543H10.9307C12.4072 4.1543 13.1729 4.91309 13.1729 6.36914V13.1025C13.1729 14.5586 12.4072 15.3174 10.9307 15.3174H3.0625Z"
  />
</svg>
