<svg width="20" height="19" viewBox="0 0 20 19" fill="none" xmlns="http://www.w3.org/2000/svg">
<path d="M10 18.7334C4.99023 18.7334 0.920898 14.6641 0.920898 9.6543C0.920898 4.64453 4.99023 0.575195 10 0.575195C15.0098 0.575195 19.0791 4.64453 19.0791 9.6543C19.0791 14.6641 15.0098 18.7334 10 18.7334ZM9.94727 6.64844C10.6416 6.64844 11.1953 6.08594 11.1953 5.3916C11.1953 4.67969 10.6416 4.12598 9.94727 4.12598C9.25293 4.12598 8.69043 4.67969 8.69043 5.3916C8.69043 6.08594 9.25293 6.64844 9.94727 6.64844ZM8.38281 14.7168H12.0918C12.5049 14.7168 12.8301 14.418 12.8301 13.9961C12.8301 13.6094 12.5049 13.293 12.0918 13.293H11.0811V8.97754C11.0811 8.42383 10.7998 8.06348 10.2812 8.06348H8.5498C8.13672 8.06348 7.82031 8.37988 7.82031 8.7666C7.82031 9.18848 8.13672 9.4873 8.5498 9.4873H9.47266V13.293H8.38281C7.96973 13.293 7.65332 13.6094 7.65332 13.9961C7.65332 14.418 7.96973 14.7168 8.38281 14.7168Z" fill="#1373E4"/>
</svg>
