<svg width="11" height="11" viewBox="0 0 11 11" fill="none" xmlns="http://www.w3.org/2000/svg">
<path d="M5.49756 10.5C8.23934 10.5 10.5024 8.23694 10.5024 5.5C10.5024 2.76306 8.2345 0.5 5.49272 0.5C2.75578 0.5 0.497559 2.76306 0.497559 5.5C0.497559 8.23694 2.76061 10.5 5.49756 10.5ZM5.49756 9.50387C3.27802 9.50387 1.50336 7.71954 1.50336 5.5C1.50336 3.28046 3.27802 1.50097 5.49272 1.50097C7.71226 1.50097 9.49659 3.28046 9.50143 5.5C9.50626 7.71954 7.71709 9.50387 5.49756 9.50387ZM5.46854 3.86557C5.84089 3.86557 6.13102 3.5706 6.13102 3.20793C6.13102 2.83075 5.84089 2.54062 5.46854 2.54062C5.10588 2.54062 4.8109 2.83075 4.8109 3.20793C4.8109 3.5706 5.10588 3.86557 5.46854 3.86557ZM4.64166 8.13056H6.60491C6.82251 8.13056 6.99659 7.97582 6.99659 7.75339C6.99659 7.54545 6.82251 7.38104 6.60491 7.38104H6.06816V5.09865C6.06816 4.80851 5.92309 4.61509 5.6523 4.61509H4.7287C4.5111 4.61509 4.34185 4.7795 4.34185 4.98743C4.34185 5.20986 4.5111 5.36944 4.7287 5.36944H5.22193V7.38104H4.64166C4.42889 7.38104 4.25481 7.54545 4.25481 7.75339C4.25481 7.97582 4.42889 8.13056 4.64166 8.13056Z" />
</svg>
