<svg viewBox="0 0 14 14" xmlns="http://www.w3.org/2000/svg">
  <g stroke="none" fill-rule="evenodd" clip-rule="evenodd">
    <path
      d="M12.5472 1.32075H8.32076V0H12.5472C13.3495 0 14 0.650454 14 1.45283V4.02426H12.6792V1.45283C12.6792 1.37989 12.6201 1.32075 12.5472 1.32075Z"
    />
    <path
      d="M12.5472 12.6792H8.32076V14H12.5472C13.3495 14 14 13.3495 14 12.5472V9.97574H12.6792V12.5472C12.6792 12.6201 12.6201 12.6792 12.5472 12.6792Z"
    />
    <path
      d="M1.45283 1.32075H5.67925V0H1.45283C0.650454 0 0 0.650454 0 1.45283V4.02426H1.32075V1.45283C1.32075 1.37989 1.37989 1.32075 1.45283 1.32075Z"
    />
    <path
      d="M1.45283 12.6792H5.67925V14H1.45283C0.650454 14 0 13.3495 0 12.5472V9.97574H1.32075V12.5472C1.32075 12.6201 1.37989 12.6792 1.45283 12.6792Z"
    />
    <path
      d="M5.28302 9.64151V3.83019H6.60377V8.98113H9.11321V10.3019H5.9434C5.57868 10.3019 5.28302 10.0062 5.28302 9.64151Z"
    />
  </g>
</svg>
