<svg width="12" height="12" viewBox="0 0 12 12" fill="none" xmlns="http://www.w3.org/2000/svg">
<path d="M3.50599 11H8.49401C9.16991 11 9.5 10.672 9.5 9.95438V6.19221C9.5 5.54639 9.22754 5.21322 8.66692 5.15684V3.8652C8.66692 1.93285 7.37275 1 6 1C4.62725 1 3.33308 1.93285 3.33308 3.8652V5.18247C2.81961 5.25935 2.5 5.58739 2.5 6.19221V9.95438C2.5 10.672 2.83009 11 3.50599 11ZM4.17665 3.75756C4.17665 2.47104 5.02021 1.78934 6 1.78934C6.97979 1.78934 7.82335 2.47104 7.82335 3.75756V5.15172L4.17665 5.15684V3.75756Z" />
</svg>
