<svg width="16" height="16" viewBox="0 0 16 16" fill="none" xmlns="http://www.w3.org/2000/svg">
<path d="M5.22222 7V4.77778C5.22222 4.04107 5.51488 3.33453 6.03581 2.81359C6.55675 2.29266 7.26329 2 8 2C8.73671 2 9.44325 2.29266 9.96419 2.81359C10.4851 3.33453 10.7778 4.04107 10.7778 4.77778V7M4.11111 7H11.8889C12.5025 7 13 7.49746 13 8.11111V12C13 12.6136 12.5025 13.1111 11.8889 13.1111H4.11111C3.49746 13.1111 3 12.6136 3 12V8.11111C3 7.49746 3.49746 7 4.11111 7Z" stroke="#EDF2F7" stroke-linecap="round" stroke-linejoin="round"/>
</svg>
