<svg viewBox="0 0 10 14" xmlns="http://www.w3.org/2000/svg">
  <path
    stroke="none"
    d="M1.79395 13.6953C0.754883 13.6953 0.214844 13.1416 0.214844 12.0205L0.214844 7.18066C0.214844 6.18945 0.645508 5.64258 1.46582 5.5332V3.90625C1.46582 1.38379 3.13379 0.078125 5 0.078125C6.86621 0.078125 8.53418 1.38379 8.53418 3.90625L8.53418 5.5332C9.35449 5.64258 9.77832 6.18945 9.77832 7.18066V12.0205C9.77832 13.1416 9.23828 13.6953 8.19922 13.6953L1.79395 13.6953ZM2.74414 3.7832V5.5127L7.25586 5.5127L7.25586 3.7832C7.25586 2.18359 6.2168 1.30859 5 1.30859C3.77637 1.30859 2.74414 2.18359 2.74414 3.7832ZM1.99219 12.4717L8.00781 12.4717C8.29492 12.4717 8.45215 12.3008 8.45215 11.9727V7.22852C8.45215 6.90039 8.29492 6.73633 8.00781 6.73633L1.99219 6.73633C1.71191 6.73633 1.54102 6.90039 1.54102 7.22852L1.54102 11.9727C1.54102 12.3008 1.71191 12.4717 1.99219 12.4717Z"
  />
</svg>
