<svg viewBox="0 0 16 13" xmlns="http://www.w3.org/2000/svg">
  <path
    stroke="none"
    d="M10.5361 3.54883C9.79785 3.54883 9.16211 3.09082 8.90234 2.44141H1.59473C1.23926 2.44141 0.952148 2.14746 0.952148 1.79199C0.952148 1.43652 1.23242 1.14258 1.59473 1.14258H8.90234C9.16211 0.493164 9.79785 0.0351562 10.5361 0.0351562C11.2744 0.0351562 11.9102 0.493164 12.1699 1.14258H14.4258C14.7676 1.14258 15.0479 1.43652 15.0479 1.79199C15.0479 2.14746 14.7607 2.44141 14.4258 2.44141H12.1631C11.9033 3.09082 11.2744 3.54883 10.5361 3.54883ZM10.5361 2.62598C11.0078 2.62598 11.3701 2.25684 11.3701 1.79199C11.3701 1.31348 11.0078 0.951172 10.5361 0.951172C10.0713 0.951172 9.69531 1.31348 9.69531 1.79199C9.69531 2.25684 10.0713 2.62598 10.5361 2.62598ZM1.56738 5.40137H3.91211C4.17188 4.75195 4.80762 4.29395 5.5459 4.29395C6.27734 4.29395 6.91309 4.75195 7.17285 5.40137H14.4053C14.7676 5.40137 15.0479 5.68848 15.0479 6.05078C15.0479 6.40625 14.7607 6.69336 14.4053 6.69336H7.17285C6.91309 7.34277 6.27734 7.80762 5.5459 7.80762C4.80078 7.80762 4.16504 7.34277 3.91211 6.69336H1.56738C1.23926 6.69336 0.952148 6.39941 0.952148 6.05078C0.952148 5.68848 1.23242 5.40137 1.56738 5.40137ZM5.5459 6.88477C6.01758 6.88477 6.37988 6.51562 6.37988 6.05078C6.37988 5.57227 6.01758 5.20996 5.5459 5.20996C5.07422 5.20996 4.70508 5.57227 4.70508 6.05078C4.70508 6.51562 5.07422 6.88477 5.5459 6.88477ZM10.5361 12.0596C9.79785 12.0596 9.16211 11.6016 8.90234 10.9521H1.59473C1.23926 10.9521 0.952148 10.6582 0.952148 10.3027C0.952148 9.94727 1.23242 9.65332 1.59473 9.65332H8.90234C9.16211 9.00391 9.79785 8.5459 10.5361 8.5459C11.2744 8.5459 11.9102 9.00391 12.1631 9.65332H14.4258C14.7676 9.65332 15.0479 9.94043 15.0479 10.3027C15.0479 10.6582 14.7607 10.9521 14.4258 10.9521H12.1699C11.9102 11.6016 11.2744 12.0596 10.5361 12.0596ZM10.5361 11.1436C11.0078 11.1436 11.3701 10.7676 11.3701 10.3027C11.3701 9.83105 11.0078 9.46191 10.5361 9.46191C10.0713 9.46191 9.69531 9.83105 9.69531 10.3027C9.69531 10.7676 10.0713 11.1436 10.5361 11.1436Z"
  />
</svg>
