<svg width="16" height="16" viewBox="0 0 16 16" xmlns="http://www.w3.org/2000/svg">
  <g stroke="none">
    <path fill-rule="evenodd" clip-rule="evenodd"
      d="M9.15432 3.06091H1.6011C1.26912 3.06091 1 3.316 1 3.63066V3.70188C1 4.01654 1.26912 4.27162 1.6011 4.27162H9.15433C9.40992 4.89271 10.0472 5.33276 10.793 5.33276C11.5387 5.33276 12.176 4.89271 12.4316 4.27162H14.0239C14.3559 4.27162 14.625 4.01654 14.625 3.70188V3.63066C14.625 3.316 14.3559 3.06091 14.0239 3.06091H12.4316C12.176 2.43982 11.5387 1.99976 10.793 1.99976C10.0472 1.99976 9.4099 2.43982 9.15432 3.06091ZM10.7929 4.42135C11.2328 4.42135 11.5894 4.08337 11.5894 3.66644C11.5894 3.24952 11.2328 2.91153 10.7929 2.91153C10.353 2.91153 9.99644 3.24952 9.99644 3.66644C9.99644 4.08337 10.353 4.42135 10.7929 4.42135ZM1.6011 11.8391H9.15435C9.40995 11.218 10.0472 10.778 10.793 10.778C11.5387 10.778 12.176 11.218 12.4316 11.8391H14.0239C14.3559 11.8391 14.625 12.0942 14.625 12.4088V12.48C14.625 12.7947 14.3559 13.0498 14.0239 13.0498H12.4316C12.176 13.6709 11.5387 14.111 10.793 14.111C10.0472 14.111 9.40992 13.6709 9.15433 13.0498H1.6011C1.26912 13.0498 1 12.7947 1 12.48V12.4088C1 12.0942 1.26912 11.8391 1.6011 11.8391ZM11.5894 12.4445C11.5894 12.8614 11.2328 13.1994 10.7929 13.1994C10.353 13.1994 9.99646 12.8614 9.99646 12.4445C9.99646 12.0276 10.353 11.6896 10.7929 11.6896C11.2328 11.6896 11.5894 12.0276 11.5894 12.4445ZM3.19342 7.45004H1.60112C1.26914 7.45004 1.00002 7.70513 1.00002 8.01979V8.09101C1.00002 8.40567 1.26914 8.66075 1.60112 8.66075H3.19343C3.44902 9.28184 4.08632 9.72189 4.83206 9.72189C5.57785 9.72189 6.21519 9.28177 6.47075 8.66062H14.024C14.3559 8.66062 14.6251 8.40553 14.6251 8.09087V8.01965C14.6251 7.70499 14.3559 7.44991 14.024 7.44991H6.47065C6.21502 6.82888 5.57775 6.38888 4.83206 6.38888C4.08631 6.38888 3.449 6.82895 3.19342 7.45004ZM4.83202 8.81025C5.2719 8.81025 5.62848 8.47226 5.62848 8.05534C5.62848 7.63841 5.2719 7.30042 4.83202 7.30042C4.39215 7.30042 4.03556 7.63841 4.03556 8.05534C4.03556 8.47226 4.39215 8.81025 4.83202 8.81025Z" />
  </g>
</svg>
