<svg viewBox="0 0 20 17" xmlns="http://www.w3.org/2000/svg">
  <path
    stroke="none"
    d="M13.2607 5.41992C12.3115 5.41992 11.4941 4.83105 11.1602 3.99609H1.76465C1.30762 3.99609 0.938477 3.61816 0.938477 3.16113C0.938477 2.7041 1.29883 2.32617 1.76465 2.32617H11.1602C11.4941 1.49121 12.3115 0.902344 13.2607 0.902344C14.21 0.902344 15.0273 1.49121 15.3613 2.32617H18.2617C18.7012 2.32617 19.0615 2.7041 19.0615 3.16113C19.0615 3.61816 18.6924 3.99609 18.2617 3.99609H15.3525C15.0186 4.83105 14.21 5.41992 13.2607 5.41992ZM13.2607 4.2334C13.8672 4.2334 14.333 3.75879 14.333 3.16113C14.333 2.5459 13.8672 2.08008 13.2607 2.08008C12.6631 2.08008 12.1797 2.5459 12.1797 3.16113C12.1797 3.75879 12.6631 4.2334 13.2607 4.2334ZM1.72949 7.80176H4.74414C5.07812 6.9668 5.89551 6.37793 6.84473 6.37793C7.78516 6.37793 8.60254 6.9668 8.93652 7.80176H18.2354C18.7012 7.80176 19.0615 8.1709 19.0615 8.63672C19.0615 9.09375 18.6924 9.46289 18.2354 9.46289H8.93652C8.60254 10.2979 7.78516 10.8955 6.84473 10.8955C5.88672 10.8955 5.06934 10.2979 4.74414 9.46289H1.72949C1.30762 9.46289 0.938477 9.08496 0.938477 8.63672C0.938477 8.1709 1.29883 7.80176 1.72949 7.80176ZM6.84473 9.70898C7.45117 9.70898 7.91699 9.23438 7.91699 8.63672C7.91699 8.02148 7.45117 7.55566 6.84473 7.55566C6.23828 7.55566 5.76367 8.02148 5.76367 8.63672C5.76367 9.23438 6.23828 9.70898 6.84473 9.70898ZM13.2607 16.3623C12.3115 16.3623 11.4941 15.7734 11.1602 14.9385H1.76465C1.30762 14.9385 0.938477 14.5605 0.938477 14.1035C0.938477 13.6465 1.29883 13.2686 1.76465 13.2686H11.1602C11.4941 12.4336 12.3115 11.8447 13.2607 11.8447C14.21 11.8447 15.0273 12.4336 15.3525 13.2686H18.2617C18.7012 13.2686 19.0615 13.6377 19.0615 14.1035C19.0615 14.5605 18.6924 14.9385 18.2617 14.9385H15.3613C15.0273 15.7734 14.21 16.3623 13.2607 16.3623ZM13.2607 15.1846C13.8672 15.1846 14.333 14.7012 14.333 14.1035C14.333 13.4971 13.8672 13.0225 13.2607 13.0225C12.6631 13.0225 12.1797 13.4971 12.1797 14.1035C12.1797 14.7012 12.6631 15.1846 13.2607 15.1846Z"
  />
</svg>
