<svg viewBox="0 0 16 15" xmlns="http://www.w3.org/2000/svg">
  <path
    stroke="none"
    d="M8 14.126C4.1377 14.126 0.938477 10.9336 0.938477 7.06445C0.938477 3.20215 4.13086 0.00292969 7.99316 0.00292969C11.8623 0.00292969 15.0615 3.20215 15.0615 7.06445C15.0615 10.9336 11.8623 14.126 8 14.126ZM8 12.7383C11.1445 12.7383 13.6738 10.209 13.6738 7.06445C13.6738 3.91992 11.1377 1.39746 7.99316 1.39746C4.84863 1.39746 2.33301 3.91992 2.33301 7.06445C2.33301 10.209 4.85547 12.7383 8 12.7383ZM4.78711 8.08984C4.22656 8.08984 3.76172 7.625 3.76172 7.05762C3.76172 6.49707 4.22656 6.03223 4.78711 6.03223C5.34766 6.03223 5.8125 6.49707 5.8125 7.05762C5.8125 7.625 5.35449 8.08984 4.78711 8.08984ZM7.99316 8.08984C7.43262 8.08984 6.96777 7.625 6.96777 7.05762C6.96777 6.49707 7.43262 6.03223 7.99316 6.03223C8.56055 6.03223 9.01855 6.49707 9.01855 7.05762C9.01855 7.625 8.56055 8.08984 7.99316 8.08984ZM11.1992 8.08984C10.6387 8.08984 10.1738 7.625 10.1738 7.05762C10.1738 6.49707 10.6387 6.03223 11.1992 6.03223C11.7666 6.03223 12.2246 6.49707 12.2246 7.05762C12.2246 7.625 11.7666 8.08984 11.1992 8.08984Z"
  />
</svg>
