<svg viewBox="0 0 14 8" xmlns="http://www.w3.org/2000/svg">
  <path
    stroke="none"
    d="M0.608398 1.61719C0.266602 1.61719 -0.00683594 1.33008 -0.00683594 0.995117C-0.00683594 0.65332 0.266602 0.379883 0.608398 0.379883L13.3848 0.379883C13.7266 0.379883 14.0068 0.65332 14.0068 0.995117C14.0068 1.33691 13.7266 1.61719 13.3848 1.61719L0.608398 1.61719ZM0.608398 4.69336C0.266602 4.69336 -0.00683594 4.41309 -0.00683594 4.07812C-0.00683594 3.72949 0.266602 3.44922 0.608398 3.44922L13.3848 3.44922C13.7266 3.44922 14.0068 3.72949 14.0068 4.07812C14.0068 4.41309 13.7266 4.69336 13.3848 4.69336L0.608398 4.69336ZM0.608398 7.77637C0.266602 7.77637 -0.00683594 7.48926 -0.00683594 7.14746C-0.00683594 6.8125 0.266602 6.53223 0.608398 6.53223L13.3848 6.53223C13.7266 6.53223 14.0068 6.80566 14.0068 7.14746C14.0068 7.49609 13.7266 7.77637 13.3848 7.77637L0.608398 7.77637Z"
  />
</svg>
