<svg width="32" height="32" viewBox="0 0 32 32" fill="none" xmlns="http://www.w3.org/2000/svg">
<path d="M27.0798 9.84048C28.0529 9.84048 29.0042 9.55192 29.8133 9.01127C30.6224 8.47063 31.2531 7.70219 31.6255 6.80314C31.9979 5.90408 32.0953 4.91478 31.9055 3.96035C31.7156 3.00592 31.247 2.12922 30.5589 1.44111C29.8708 0.752999 28.9941 0.284392 28.0397 0.0945433C27.0852 -0.0953053 26.0959 0.00213186 25.1969 0.374533C24.2978 0.746935 23.5294 1.37757 22.9887 2.1867C22.4481 2.99583 22.1595 3.94711 22.1595 4.92024C22.1595 5.56639 22.2867 6.20622 22.534 6.80319C22.7812 7.40016 23.1437 7.94257 23.6005 8.39947C24.0574 8.85636 24.5999 9.21878 25.1968 9.46603C25.7938 9.71329 26.4336 9.84052 27.0798 9.84048ZM11.9931 32C9.62109 32 7.30234 31.2966 5.33009 29.9788C3.35784 28.661 1.82065 26.7879 0.912923 24.5965C0.00519507 22.405 -0.232307 19.9936 0.230451 17.6672C0.693209 15.3407 1.83544 13.2038 3.51271 11.5265C5.18997 9.84923 7.32694 8.707 9.65337 8.24425C11.9798 7.7815 14.3912 8.019 16.5827 8.92674C18.7741 9.83447 20.6472 11.3717 21.965 13.3439C23.2828 15.3162 23.9862 17.6349 23.9862 20.0069C23.9862 21.5819 23.676 23.1415 23.0733 24.5965C22.4706 26.0516 21.5872 27.3738 20.4736 28.4874C19.3599 29.6011 18.0378 30.4845 16.5827 31.0872C15.1276 31.6899 13.5681 32 11.9931 32Z" fill="#7D00FF"/>
</svg>
