<svg width="32" height="40" viewBox="0 0 32 40" fill="none" xmlns="http://www.w3.org/2000/svg">
<path d="M31.9375 30C31.9375 33.0556 29.25 35.5556 26 35.5556C22.6875 35.5556 20 33.0556 20 30C20 26.9444 22.6875 24.5139 26 24.5139C26.4711 24.5139 27.2883 24.5791 27.9774 24.6872C28.3952 24.7527 28.8 24.399 28.8 23.9301V10.3836C28.8 9.9165 28.4015 9.57625 27.9953 9.69647L11.6736 14.5265C11.3941 14.6092 11.1993 14.8899 11.1983 15.2112L11.1375 34.5139C11.1375 37.5694 9.3125 40 5.9375 40C2.5625 40 0 37.5694 0 34.4444C0 31.3889 2.625 28.9583 5.9375 28.9583C6.32949 28.9583 6.72147 29.0035 7.10187 29.0809C7.52357 29.1667 7.9375 28.8261 7.9375 28.3498V8.81944C7.9375 7.91667 8.5625 6.94444 9.3125 6.66667L29.25 0.138889C29.5 0.0694444 29.8125 0 30 0C31.0625 0 31.9375 1.04167 32 2.22222L31.9375 30Z" fill="#718096"/>
</svg>
