<svg width="72" height="90" viewBox="0 0 72 90" fill="none" xmlns="http://www.w3.org/2000/svg">
<path d="M71.8594 67.5C71.8594 74.375 65.8125 80 58.5 80C51.0469 80 45 74.375 45 67.5C45 60.625 51.0469 55.1562 58.5 55.1562C59.5599 55.1562 61.3988 55.303 62.9491 55.5461C63.8893 55.6936 64.8 54.8977 64.8 53.8427V23.3632C64.8 22.3121 63.9035 21.5466 62.9894 21.8171L26.2655 32.6847C25.6368 32.8708 25.1984 33.5022 25.1961 34.2252L25.0594 77.6562C25.0594 84.5312 20.9531 90 13.3594 90C5.76562 90 0 84.5312 0 77.5C0 70.625 5.90625 65.1562 13.3594 65.1562C14.2413 65.1562 15.1233 65.2578 15.9792 65.4321C16.928 65.6252 17.8594 64.8588 17.8594 63.787V19.8438C17.8594 17.8125 19.2656 15.625 20.9531 15L65.8125 0.3125C66.375 0.15625 67.0781 0 67.5 0C69.8906 0 71.8594 2.34375 72 5L71.8594 67.5Z" fill="#C2C2C8"/>
</svg>
