<?xml version="1.0" encoding="UTF-8" standalone="no"?>
<svg
   version="1.1"
   id="Capa_1"
   x="0px"
   y="0px"
   viewBox="0 0 490.4 490.4">
  <g
     transform="matrix(0.83297506,0,0,0.83297506,40.755,40.754514)"
     style="stroke-width:2;stroke-miterlimit:4;stroke-dasharray:none"
     id="g4">
    <path
       style="stroke-width:2;stroke-miterlimit:4;stroke-dasharray:none"
       d="m 382,221.3 c -6.8,0 -12.3,5.5 -12.3,12.3 v 69.5 c 0,6.8 5.5,12.3 12.3,12.3 h 96.1 c 6.8,0 12.3,-5.5 12.3,-12.3 v -69.6 c 0,-6.8 -5.5,-12.3 -12.3,-12.3 h -35.8 v -46.4 c 0,-6.8 -5.5,-12.3 -12.3,-12.3 H 257.4 V 126.6 H 303 c 6.8,0 12.3,-5.5 12.3,-12.3 V 24.9 c 0,-6.8 -5.5,-12.3 -12.3,-12.3 H 187.3 c -6.8,0 -12.3,5.5 -12.3,12.3 v 89.6 c 0,6.8 5.5,12.3 12.3,12.3 h 45.6 v 35.9 H 60.4 c -6.8,0 -12.3,5.5 -12.3,12.3 v 46.4 H 12.3 C 5.5,221.4 0,226.9 0,233.7 v 69.4 c 0,6.8 5.5,12.3 12.3,12.3 h 96.1 c 6.8,0 12.3,-5.5 12.3,-12.3 v -69.6 c 0,-6.8 -5.5,-12.3 -12.3,-12.3 H 72.6 v -34.1 h 160.3 v 34.1 h -35.8 c -6.8,0 -12.3,5.5 -12.3,12.3 v 69.6 c 0,6.8 5.5,12.3 12.3,12.3 h 35.8 v 28.3 H 108.4 c -6.8,0 -12.3,5.5 -12.3,12.3 v 40.3 H 74.4 c -6.8,0 -12.3,5.5 -12.3,12.3 v 56.9 c 0,6.8 5.5,12.3 12.3,12.3 h 68.1 c 6.8,0 12.3,-5.5 12.3,-12.3 v -56.9 c 0,-6.8 -5.5,-12.3 -12.3,-12.3 H 120.7 V 368.1 H 233 v 26.7 c 0,0.5 0.1,0.9 0.1,1.4 h -22 c -6.8,0 -12.3,5.5 -12.3,12.3 v 56.9 c 0,6.8 5.5,12.3 12.3,12.3 h 68.1 c 6.8,0 12.3,-5.5 12.3,-12.3 v -56.9 c 0,-6.8 -5.5,-12.3 -12.3,-12.3 h -22 c 0.1,-0.5 0.1,-0.9 0.1,-1.4 v -26.7 h 112.3 v 28.1 h -21.8 c -6.8,0 -12.3,5.5 -12.3,12.3 v 56.9 c 0,6.8 5.5,12.3 12.3,12.3 h 68.1 c 6.8,0 12.3,-5.5 12.3,-12.3 v -56.9 c 0,-6.8 -5.5,-12.3 -12.3,-12.3 h -21.7 v -40.3 c 0,-6.8 -5.5,-12.3 -12.3,-12.3 H 257.4 v -28.3 h 35.8 c 6.8,0 12.3,-5.5 12.3,-12.3 v -69.6 c 0,-6.8 -5.5,-12.3 -12.3,-12.3 H 257.4 V 187 h 160.3 v 34.1 H 382 Z M 199.6,37.1 h 91.2 v 65.1 H 199.6 Z M 96.2,290.9 H 24.5 v -45.1 h 71.7 z m 34.1,162.2 H 86.6 v -32.4 h 43.6 v 32.4 z m 136.7,0 H 223.4 V 420.7 H 267 Z m 136.8,0 h -43.6 v -32.4 h 43.6 z M 281,290.9 H 209.4 V 245.8 H 281 Z m 184.9,0 h -71.7 v -45.1 h 71.6 v 45.1 z"
       id="path2" />
  </g>
</svg>
