<svg width="24" height="24" viewBox="0 0 24 24" fill="none" xmlns="http://www.w3.org/2000/svg">
<path d="M6.75 19.4934V3.375C6.75087 3.0769 6.86967 2.79125 7.08046 2.58046C7.29125 2.36967 7.5769 2.25087 7.875 2.25H20.625C20.9231 2.25087 21.2087 2.36967 21.4195 2.58046C21.6303 2.79125 21.7491 3.0769 21.75 3.375V19.875C21.7485 20.3718 21.5505 20.8479 21.1992 21.1992C20.8479 21.5505 20.3718 21.7485 19.875 21.75H4.5" stroke="#718096" stroke-linejoin="round"/>
<path d="M4.5 21.75C5.09674 21.75 5.66903 21.5129 6.09099 21.091C6.51295 20.669 6.75 20.0967 6.75 19.5V6H3.375C3.07663 6 2.79048 6.11853 2.57951 6.3295C2.36853 6.54048 2.25 6.82663 2.25 7.125V19.5C2.25 20.0967 2.48705 20.669 2.90901 21.091C3.33097 21.5129 3.90326 21.75 4.5 21.75Z" stroke="#718096" stroke-linejoin="round"/>
<path d="M18.75 18H9.75M12.75 6H9.75H12.75ZM12.75 9H9.75H12.75ZM18.75 12H9.75H18.75ZM18.75 15H9.75H18.75Z" stroke="#718096" stroke-linecap="round" stroke-linejoin="round"/>
<path d="M15.75 9.25H18.75C18.8163 9.25 18.8799 9.22366 18.9268 9.17678L19.2803 9.53033L18.9268 9.17678C18.9737 9.12989 19 9.0663 19 9V6C19 5.9337 18.9737 5.87011 18.9268 5.82322C18.8799 5.77634 18.8163 5.75 18.75 5.75H15.75C15.6837 5.75 15.6201 5.77634 15.5732 5.82322L15.2197 5.46967L15.5732 5.82322C15.5263 5.87011 15.5 5.9337 15.5 6V9C15.5 9.0663 15.5263 9.12989 15.5732 9.17678L15.2197 9.53033L15.5732 9.17678C15.6201 9.22366 15.6837 9.25 15.75 9.25Z" stroke="#718096"/>
</svg>
