<svg width="24" height="24" viewBox="0 0 24 24" fill="none" xmlns="http://www.w3.org/2000/svg">
<path fill-rule="evenodd" clip-rule="evenodd" d="M11.6015 2.09347C11.8481 1.96884 12.1519 1.96884 12.3985 2.09347L21.6015 6.74463C21.8481 6.86926 22 7.09958 22 7.34884V16.6512C22 16.9004 21.8481 17.1307 21.6015 17.2554L12.3985 21.9065C12.1519 22.0312 11.8481 22.0312 11.6015 21.9065L2.3985 17.2554C2.15191 17.1307 2 16.9004 2 16.6512V7.34884C2 7.09958 2.15191 6.86926 2.3985 6.74463L11.6015 2.09347ZM3.59401 7.75164V16.2484L12 20.4967L20.406 16.2484V7.75164L12 3.50328L3.59401 7.75164Z" fill="#718096"/>
<path d="M9.8241 10V15H9.07427L7.97794 13.2971L6.88161 11.5942H6.84298V15H6V10H6.75437L8.94476 13.4082H8.98566V10H9.8241Z" fill="#718096"/>
<path d="M10.7426 15V10H13.7237V10.7593H11.5856V12.1167H13.5192V12.876H11.5856V15H10.7426Z" fill="#718096"/>
<path d="M14.2872 10.7593V10H18V10.7593H16.5617V15H15.7255V10.7593H14.2872Z" fill="#718096"/>
</svg>
