<svg width="120" height="120" viewBox="0 0 120 120" fill="none" xmlns="http://www.w3.org/2000/svg">
<path d="M73.75 36.25H48.75C47.0924 36.25 45.5027 36.9085 44.3306 38.0806C43.1585 39.2527 42.5 40.8424 42.5 42.5V92.5C42.5 94.1576 43.1585 95.7473 44.3306 96.9194C45.5027 98.0915 47.0924 98.75 48.75 98.75H86.25C87.9076 98.75 89.4973 98.0915 90.6694 96.9194C91.8415 95.7473 92.5 94.1576 92.5 92.5V55L73.75 36.25Z" stroke="#C2C2C8" stroke-width="4" stroke-linecap="round" stroke-linejoin="round"/>
<path d="M73.75 36.25V55H92.5" fill="#C2C2C8"/>
<path d="M73.75 36.25V55H92.5" stroke="#AEAEB2" stroke-width="4" stroke-linecap="round" stroke-linejoin="round"/>
<path d="M80 70.625H55" stroke="#AEAEB2" stroke-width="4" stroke-linecap="round" stroke-linejoin="round"/>
<path d="M80 83.125H55" stroke="#AEAEB2" stroke-width="4" stroke-linecap="round" stroke-linejoin="round"/>
<path d="M61.25 58.125H58.125H55" stroke="#AEAEB2" stroke-width="4" stroke-linecap="round" stroke-linejoin="round"/>
<path d="M43.4375 56.5625C33.7725 56.5625 25.9375 48.7275 25.9375 39.0625C25.9375 29.3975 33.7725 21.5625 43.4375 21.5625C53.1025 21.5625 60.9375 29.3975 60.9375 39.0625C60.9375 48.7275 53.1025 56.5625 43.4375 56.5625Z" stroke="#707070" stroke-width="4" stroke-linecap="round" stroke-linejoin="round"/>
<path d="M21.5627 60.9375L31.0784 51.4219" stroke="#707070" stroke-width="4" stroke-linecap="round" stroke-linejoin="round"/>
</svg>
