<svg width="13" height="13" viewBox="0 0 13 13" fill="none" xmlns="http://www.w3.org/2000/svg">
<path d="M12.0371 1.02734C12.7412 1.73145 12.8711 2.69531 12.8711 3.93945L12.8711 9.18262C12.8711 10.4336 12.7412 11.3975 12.0371 12.1016C11.333 12.7988 10.3623 12.9355 9.11816 12.9355L3.875 12.9355C2.63086 12.9355 1.66016 12.7988 0.949219 12.1016C0.251953 11.3975 0.12207 10.4336 0.12207 9.18262L0.12207 3.92578C0.12207 2.69531 0.251953 1.73145 0.956055 1.02734C1.65332 0.330078 2.63086 0.193359 3.85449 0.193359L9.11816 0.193359C10.3623 0.193359 11.333 0.323242 12.0371 1.02734ZM11.5312 3.75488C11.5312 3.04395 11.4424 2.3877 11.0596 2.01172C10.6768 1.62891 10.0137 1.52637 9.30957 1.52637L3.69727 1.52637C2.97949 1.52637 2.30957 1.62207 1.92676 2.00488C1.55078 2.3877 1.46191 3.04395 1.46191 3.76855L1.46191 9.37402C1.46191 10.085 1.55078 10.7344 1.93359 11.1172C2.31641 11.5 2.97949 11.5957 3.68359 11.5957L9.30957 11.5957C10.0137 11.5957 10.6768 11.5 11.0596 11.1172C11.4355 10.7344 11.5313 10.085 11.5313 9.37402L11.5312 3.75488ZM8.63281 8.3418C8.29102 8.3418 8.06543 8.10937 8.06543 7.7334V6.63965L8.16797 5.65527L7.24512 6.66016L4.85938 9.0459C4.72949 9.16895 4.58594 9.2373 4.39453 9.2373C4.05273 9.2373 3.7998 8.99805 3.7998 8.64258C3.7998 8.47852 3.875 8.32129 3.99121 8.20508L6.39063 5.80566L7.40234 4.87598L6.46582 4.98535H5.31055C4.94141 4.98535 4.70215 4.7666 4.70215 4.4248C4.70215 4.08301 4.94141 3.86426 5.30371 3.86426L8.50293 3.86426C8.92676 3.86426 9.19336 4.07617 9.19336 4.54785V7.72656C9.19336 8.08887 8.96777 8.3418 8.63281 8.3418Z" fill="#1373E4"/>
</svg>
