<svg viewBox="0 0 24 24" xmlns="http://www.w3.org/2000/svg">
  <path
    stroke="none"
    d="M11.9932 13.8691C11.6514 13.8691 11.3643 13.582 11.3643 13.2471V6.36328L11.4189 5.34473L10.9883 5.84375L10.0312 6.86914C9.92188 6.99219 9.75781 7.05371 9.60059 7.05371C9.29297 7.05371 9.04004 6.82812 9.04004 6.50684C9.04004 6.34277 9.1084 6.21973 9.22461 6.10352L11.5215 3.89551C11.6787 3.73145 11.8291 3.67676 11.9932 3.67676C12.1641 3.67676 12.3145 3.73145 12.4717 3.89551L14.7686 6.10352C14.8848 6.21973 14.9463 6.34277 14.9463 6.50684C14.9463 6.82812 14.6934 7.05371 14.3857 7.05371C14.2285 7.05371 14.0713 6.99219 13.9619 6.86914L12.998 5.84375L12.5742 5.34473L12.6289 6.36328V13.2471C12.6289 13.582 12.3418 13.8691 11.9932 13.8691ZM8.0625 19.3174C6.58594 19.3174 5.82031 18.5586 5.82031 17.1025V10.3691C5.82031 8.91309 6.58594 8.1543 8.0625 8.1543H10.0449V9.49414H8.14453C7.50879 9.49414 7.16016 9.82227 7.16016 10.4854V16.9863C7.16016 17.6494 7.50879 17.9775 8.14453 17.9775H15.8486C16.4775 17.9775 16.833 17.6494 16.833 16.9863V10.4854C16.833 9.82227 16.4775 9.49414 15.8486 9.49414H13.9482V8.1543H15.9307C17.4072 8.1543 18.1729 8.91309 18.1729 10.3691V17.1025C18.1729 18.5586 17.4072 19.3174 15.9307 19.3174H8.0625Z"
  />
</svg>
