<svg width="32" height="32" viewBox="0 0 32 32" fill="none" xmlns="http://www.w3.org/2000/svg">
<path fill-rule="evenodd" clip-rule="evenodd" d="M0 16C0 7.16344 7.16344 0 16 0C24.8366 0 32 7.16344 32 16C32 24.8366 24.8366 32 16 32C7.16344 32 0 24.8366 0 16ZM16 11.3333C16 8.756 18.0893 6.66667 20.6667 6.66667C23.244 6.66667 25.3333 8.756 25.3333 11.3333C25.3333 13.9107 23.244 16 20.6667 16C18.0893 16 16 13.9107 16 11.3333ZM7.86667 16C7.20392 16 6.66667 16.5373 6.66667 17.2V24.1333C6.66667 24.7961 7.20392 25.3333 7.86666 25.3333H14.8C15.4627 25.3333 16 24.7961 16 24.1333V17.2C16 16.5373 15.4627 16 14.8 16H7.86667Z" fill="#D8E0E8"/>
</svg>
