<svg viewBox="0 0 17 20" xmlns="http://www.w3.org/2000/svg">
  <path stroke-width="0" d="M8.59082 14.2842C8.37988 14.2842 8.18652 14.2139 7.98438 14.0117L5.03125 11.1641C4.88184 11.0146 4.79395 10.8564 4.79395 10.6455C4.79395 10.2412 5.11914 9.94238 5.51465 9.94238C5.7168 9.94238 5.92773 10.0303 6.06836 10.1885L7.29883 11.498L7.87012 12.1484L7.78223 10.8389V1.72461C7.78223 1.29395 8.15137 0.924805 8.59082 0.924805C9.03906 0.924805 9.4082 1.29395 9.4082 1.72461V10.8389L9.32031 12.1396L9.88281 11.498L11.1221 10.1885C11.2627 10.0303 11.4648 9.94238 11.667 9.94238C12.0625 9.94238 12.3877 10.2412 12.3877 10.6455C12.3877 10.8564 12.3086 11.0146 12.1592 11.1641L9.20605 14.0117C9.00391 14.2139 8.81055 14.2842 8.59082 14.2842ZM3.53711 19.9795C1.63867 19.9795 0.654297 19.0039 0.654297 17.1318V8.47461C0.654297 6.60254 1.63867 5.62695 3.53711 5.62695H6.08594V7.34961H3.64258C2.8252 7.34961 2.37695 7.77148 2.37695 8.62402V16.9824C2.37695 17.835 2.8252 18.2568 3.64258 18.2568H13.5479C14.3564 18.2568 14.8135 17.835 14.8135 16.9824V8.62402C14.8135 7.77148 14.3564 7.34961 13.5479 7.34961H11.1045V5.62695H13.6533C15.5518 5.62695 16.5361 6.60254 16.5361 8.47461V17.1318C16.5361 19.0039 15.5518 19.9795 13.6533 19.9795H3.53711Z" />
</svg>
