<svg width="26" height="18" viewBox="0 0 26 18" fill="none" xmlns="http://www.w3.org/2000/svg">
  <path d="M20.3769 17.1917L4.57653 1.41003C4.29687 1.13037 4.29687 0.645644 4.57653 0.365992C4.87482 0.0676963 5.35023 0.077018 5.6392 0.365992L21.4302 16.1384C21.7192 16.4273 21.7285 16.8748 21.4302 17.1917C21.1319 17.4993 20.6658 17.4807 20.3769 17.1917ZM13.0034 0.89733C20.6379 0.89733 25.8021 7.04967 25.8021 8.96063C25.8021 10.0326 24.1895 12.4283 21.4395 14.3206L20.0599 12.9503C22.2971 11.4589 23.6954 9.66908 23.6954 8.96063C23.6954 7.86999 18.9506 2.6871 13.0034 2.6871C12.0246 2.6871 11.0831 2.84557 10.2069 3.09726L8.70605 1.59646C10.0204 1.16766 11.4653 0.89733 13.0034 0.89733ZM13.0034 17.0332C5.46209 17.0332 0.195312 10.8716 0.195312 8.96063C0.195312 7.87931 1.91983 5.40905 4.80025 3.47945L6.19851 4.87771C3.81214 6.42512 2.31135 8.35472 2.31135 8.96063C2.31135 10.2657 7.04679 15.2435 13.0034 15.2435C14.0847 15.2435 15.138 15.0664 16.1075 14.7774L17.5897 16.2595C16.2007 16.7443 14.6533 17.0332 13.0034 17.0332ZM13.0034 3.94554C15.7999 3.94554 18.0371 6.15479 18.0371 8.96063C18.0371 9.5479 17.9252 10.0979 17.7108 10.6013L11.3627 4.25315C11.8661 4.0574 12.4254 3.94554 13.0034 3.94554ZM13.0034 13.985C10.1975 13.985 7.96032 11.6919 7.96032 8.96063C7.96032 8.28014 8.10946 7.62762 8.37979 7.04967L14.905 13.5749C14.3271 13.8359 13.6839 13.985 13.0034 13.985Z" fill="white"/>
</svg>
