<svg viewBox="0 0 22 12" xmlns="http://www.w3.org/2000/svg">
  <path
    stroke="none"
    d="M10 11.9912C4.46973 11.9912 0.607422 7.47266 0.607422 6.07129C0.607422 4.66992 4.47656 0.158203 10 0.158203C13.6367 0.158203 16.5146 2.07227 18.0801 3.78809C17.5127 3.76074 17.0068 3.99316 16.6445 4.41699C15.2773 3.07031 12.8301 1.4707 10 1.4707C5.63184 1.4707 2.15918 5.27148 2.15918 6.07129C2.15918 7.02832 5.63184 10.6787 10 10.6787C11.2373 10.6787 12.3926 10.3848 13.4248 9.94043C13.1104 10.4941 13.0146 10.918 13.1445 11.4922C12.1875 11.7998 11.1279 11.9912 10 11.9912ZM10 9.75586C7.94238 9.75586 6.31543 8.08105 6.30859 6.07129C6.29492 4.01367 7.94238 2.39355 10 2.39355C12.0508 2.39355 13.6914 4.01367 13.6914 6.07129C13.6914 8.08105 12.0508 9.75586 10 9.75586ZM15.0449 11.9912C14.4639 11.9912 14.0879 11.5605 14.0879 11.0342C14.0879 10.8701 14.1289 10.7129 14.2178 10.5625L17.1777 5.26465C17.3555 4.93652 17.6836 4.7793 18.0049 4.7793C18.3262 4.7793 18.6475 4.93652 18.832 5.26465L21.792 10.5625C21.8809 10.7129 21.9287 10.8701 21.9287 11.0342C21.9287 11.5605 21.5459 11.9912 20.9648 11.9912H15.0449ZM10 7.26074C10.6631 7.26074 11.1963 6.72754 11.1963 6.07129C11.1963 5.41504 10.6631 4.88184 10 4.88184C9.33691 4.88184 8.80371 5.41504 8.80371 6.07129C8.80371 6.72754 9.33691 7.26074 10 7.26074ZM18.0049 9.28418C18.2715 9.28418 18.4561 9.10645 18.4697 8.84668L18.5244 6.94629C18.5312 6.63867 18.3193 6.43359 18.0049 6.43359C17.6973 6.43359 17.4854 6.64551 17.4922 6.94629L17.5469 8.84668C17.5537 9.10645 17.7451 9.28418 18.0049 9.28418ZM18.0049 10.9521C18.3535 10.9521 18.6201 10.6855 18.627 10.3438C18.627 10.0156 18.3535 9.74219 18.0049 9.74219C17.6631 9.74219 17.3896 10.0088 17.3896 10.3438C17.3896 10.6855 17.6631 10.9521 18.0049 10.9521Z"
  />
</svg>
