<svg width="92" height="92" viewBox="0 0 92 92" fill="none" xmlns="http://www.w3.org/2000/svg">
<path fill-rule="evenodd" clip-rule="evenodd" d="M41.6875 67.5625C55.9779 67.5625 67.5625 55.9779 67.5625 41.6875C67.5625 27.3971 55.9779 15.8125 41.6875 15.8125C27.3971 15.8125 15.8125 27.3971 15.8125 41.6875C15.8125 55.9779 27.3971 67.5625 41.6875 67.5625ZM71.875 41.6875C71.875 58.3596 58.3596 71.875 41.6875 71.875C25.0154 71.875 11.5 58.3596 11.5 41.6875C11.5 25.0154 25.0154 11.5 41.6875 11.5C58.3596 11.5 71.875 25.0154 71.875 41.6875Z" fill="#4A5568"/>
<path fill-rule="evenodd" clip-rule="evenodd" d="M61.5075 61.5097C62.3496 60.6676 63.7149 60.6676 64.5569 61.5097L82.0226 78.9757C82.8646 79.8178 82.8646 81.183 82.0225 82.0251C81.1805 82.8671 79.8152 82.8671 78.9731 82.0251L61.5075 64.5591C60.6655 63.717 60.6655 62.3517 61.5075 61.5097Z" fill="#4A5568"/>
<path fill-rule="evenodd" clip-rule="evenodd" d="M36.9552 36.1554C36.9552 37.898 35.4291 39.3108 33.5466 39.3108C31.664 39.3108 30.1379 37.898 30.1379 36.1554C30.1379 34.4127 31.664 33 33.5466 33C35.4291 33 36.9552 34.4127 36.9552 36.1554ZM53.2302 51.4743C54.1717 50.7061 54.2622 49.3768 53.432 48.5053C51.9393 46.9379 50.1034 45.6824 48.0459 44.8225C45.9886 43.9627 43.7573 43.518 41.4999 43.518C39.2427 43.518 37.0113 43.9627 34.954 44.8225C32.8967 45.6824 31.0607 46.9379 29.5679 48.5053C28.7379 49.3768 28.8283 50.7061 29.7697 51.4743C30.7111 52.2426 32.1471 52.159 32.9771 51.2875C34.0433 50.168 35.3548 49.2712 36.8243 48.657C38.2937 48.0429 39.8876 47.7253 41.4999 47.7253C43.1124 47.7253 44.7063 48.0429 46.1757 48.657C47.6453 49.2712 48.9567 50.168 50.0229 51.2875C50.8528 52.159 52.2888 52.2426 53.2302 51.4743ZM49.4537 39.3108C51.3362 39.3108 52.8623 37.898 52.8623 36.1554C52.8623 34.4127 51.3362 33 49.4537 33C47.5712 33 46.045 34.4127 46.045 36.1554C46.045 37.898 47.5712 39.3108 49.4537 39.3108Z" fill="#4A5568"/>
</svg>
