<svg viewBox="0 0 14 14" xmlns="http://www.w3.org/2000/svg">
  <path
    stroke="none"
    d="M0.25293 5.82031C0.25293 2.75098 2.74805 0.255859 5.81738 0.255859C8.88672 0.255859 11.3818 2.75098 11.3818 5.82031C11.3818 7.0166 10.9922 8.12402 10.3428 9.01953L13.4668 12.1504C13.6514 12.3418 13.7471 12.5947 13.7471 12.8682C13.7471 13.4355 13.3301 13.873 12.749 13.873C12.4824 13.873 12.2158 13.7842 12.0244 13.5859L8.87988 10.4414C8.00488 11.0361 6.95898 11.3848 5.81738 11.3848C2.74805 11.3848 0.25293 8.88965 0.25293 5.82031ZM1.70215 5.82031C1.70215 8.08984 3.54102 9.93555 5.81738 9.93555C8.08691 9.93555 9.93262 8.08984 9.93262 5.82031C9.93262 3.55078 8.08691 1.70508 5.81738 1.70508C3.54102 1.70508 1.70215 3.55078 1.70215 5.82031Z"
  />
</svg>
