<svg viewBox="0 0 24 24" xmlns="http://www.w3.org/2000/svg">
  <path
    stroke="none"
    d="M5.25293 10.8203C5.25293 7.75098 7.74805 5.25586 10.8174 5.25586C13.8867 5.25586 16.3818 7.75098 16.3818 10.8203C16.3818 12.0166 15.9922 13.124 15.3428 14.0195L18.4668 17.1504C18.6514 17.3418 18.7471 17.5947 18.7471 17.8682C18.7471 18.4355 18.3301 18.873 17.749 18.873C17.4824 18.873 17.2158 18.7842 17.0244 18.5859L13.8799 15.4414C13.0049 16.0361 11.959 16.3848 10.8174 16.3848C7.74805 16.3848 5.25293 13.8896 5.25293 10.8203ZM6.70215 10.8203C6.70215 13.0898 8.54102 14.9355 10.8174 14.9355C13.0869 14.9355 14.9326 13.0898 14.9326 10.8203C14.9326 8.55078 13.0869 6.70508 10.8174 6.70508C8.54102 6.70508 6.70215 8.55078 6.70215 10.8203Z"
  />
</svg>
