<svg viewBox="0 0 15 15" xmlns="http://www.w3.org/2000/svg">
  <path
    stroke="none"
    d="M9.0459 14.7002C8.38281 14.7002 8.13672 14.1875 7.93164 13.4902L6.50293 8.60938L1.56738 7.16699C0.897461 6.96191 0.412109 6.71582 0.412109 6.06641C0.412109 5.54004 0.856445 5.1709 1.44434 4.94531L13.2842 0.413086C13.5918 0.296875 13.8652 0.228516 14.0908 0.228516C14.5762 0.228516 14.8838 0.529297 14.8838 1.01465C14.8838 1.24707 14.8154 1.52051 14.6992 1.82129L10.1875 13.6133C9.93457 14.2695 9.56543 14.7002 9.0459 14.7002ZM6.89258 7.37207L11.0625 3.20898C11.4727 2.79883 12.0674 2.32031 12.5596 1.92383C11.9512 2.2041 11.3838 2.47754 10.8027 2.70312L2.5791 5.84082C2.49023 5.875 2.46289 5.90918 2.46289 5.95703C2.46289 5.99805 2.49707 6.03223 2.59961 6.05957L6.89258 7.37207ZM9.16211 12.6562C9.20312 12.6562 9.2373 12.6152 9.27148 12.5264L12.4092 4.30957C12.6348 3.72168 12.915 3.1543 13.1953 2.53223C12.8057 3.03125 12.3066 3.64648 11.9033 4.0498L7.74023 8.21973L9.05273 12.5127C9.08008 12.6152 9.11426 12.6562 9.16211 12.6562Z"
  />
</svg>
