<svg viewBox="0 0 20 20" xmlns="http://www.w3.org/2000/svg">
  <path stroke-width="0" d="M11.7441 19.4717C10.8916 19.4717 10.5752 18.8125 10.3115 17.916L8.47461 11.6406L2.12891 9.78613C1.26758 9.52246 0.643555 9.20605 0.643555 8.37109C0.643555 7.69434 1.21484 7.21973 1.9707 6.92969L17.1934 1.10254C17.5889 0.953125 17.9404 0.865234 18.2305 0.865234C18.8545 0.865234 19.25 1.25195 19.25 1.87598C19.25 2.1748 19.1621 2.52637 19.0127 2.91309L13.2119 18.0742C12.8867 18.918 12.4121 19.4717 11.7441 19.4717ZM8.97559 10.0498L14.3369 4.69727C14.8643 4.16992 15.6289 3.55469 16.2617 3.04492C15.4795 3.40527 14.75 3.75684 14.0029 4.04688L3.42969 8.08105C3.31543 8.125 3.28027 8.16895 3.28027 8.23047C3.28027 8.2832 3.32422 8.32715 3.45605 8.3623L8.97559 10.0498ZM11.8936 16.8438C11.9463 16.8438 11.9902 16.791 12.0342 16.6768L16.0684 6.1123C16.3584 5.35645 16.7188 4.62695 17.0791 3.82715C16.5781 4.46875 15.9365 5.25977 15.418 5.77832L10.0654 11.1396L11.7529 16.6592C11.7881 16.791 11.832 16.8438 11.8936 16.8438Z" />
</svg>
