<svg viewBox="0 0 16 16" xmlns="http://www.w3.org/2000/svg">
  <path
    stroke="none"
    d="M7.30957 15.4814C6.73535 15.4814 6.29785 15.1328 6.16797 14.5928L5.8877 13.3828L5.70313 13.3145L4.65039 13.9639C4.17871 14.2646 3.61816 14.1895 3.21484 13.7861L2.25781 12.8291C1.85449 12.4258 1.7793 11.8652 2.08008 11.3936L2.73633 10.3477L2.66797 10.1768L1.46484 9.89648C0.924805 9.75977 0.576172 9.31543 0.576172 8.75488L0.576172 7.4082C0.576172 6.84766 0.917969 6.40332 1.46484 6.2666L2.6543 5.97949L2.72949 5.80176L2.07324 4.75586C1.77246 4.28418 1.84766 3.73047 2.25098 3.31348L3.20801 2.35645C3.60449 1.95996 4.16504 1.88477 4.64355 2.17871L5.69629 2.82129L5.8877 2.74609L6.16797 1.53613C6.29785 0.996094 6.73535 0.647461 7.30957 0.647461L8.69043 0.647461C9.25781 0.647461 9.70215 0.996094 9.83203 1.53613L10.1123 2.74609L10.3037 2.82129L11.3564 2.17871C11.8281 1.88477 12.3887 1.95996 12.7852 2.35645L13.7422 3.31348C14.1455 3.73047 14.2207 4.28418 13.9199 4.75586L13.2705 5.80176L13.3389 5.97949L14.5352 6.2666C15.0752 6.40332 15.4238 6.84766 15.4238 7.4082V8.75488C15.4238 9.31543 15.0684 9.75977 14.5352 9.89648L13.3252 10.1768L13.2637 10.3477L13.9131 11.3936C14.2139 11.8652 14.1455 12.4258 13.7354 12.8291L12.7783 13.7861C12.3818 14.1895 11.8213 14.2646 11.3428 13.9639L10.29 13.3145L10.1123 13.3828L9.83203 14.5928C9.70215 15.1328 9.25781 15.4814 8.69043 15.4814H7.30957ZM7.47363 14.2441H8.52637C8.64258 14.2441 8.69727 14.1963 8.71094 14.0869L9.12109 12.4053C9.57227 12.3027 9.96191 12.1318 10.2969 11.9199L11.7734 12.8291C11.8555 12.8838 11.9375 12.877 12.0264 12.7949L12.751 12.0635C12.8262 11.9951 12.8262 11.9131 12.7715 11.8242L11.8691 10.3477C12.0537 10.0264 12.2383 9.61621 12.3408 9.18555L14.0293 8.78223C14.1318 8.76172 14.1865 8.70703 14.1865 8.59082V7.56543C14.1865 7.44238 14.1387 7.39453 14.0293 7.36719L12.3477 6.9707C12.2451 6.5127 12.04 6.08887 11.876 5.79492L12.7783 4.3252C12.8398 4.22949 12.8398 4.14746 12.7578 4.07227L12.0264 3.35449C11.9443 3.27246 11.876 3.26562 11.7734 3.32031L10.3037 4.21582C9.96875 4.02441 9.56543 3.83984 9.12109 3.7373L8.71094 2.04199C8.69727 1.93262 8.64258 1.88477 8.52637 1.88477L7.47363 1.88477C7.35742 1.88477 7.30273 1.93945 7.28223 2.04199L6.87891 3.72363C6.44824 3.83301 5.99707 4.02441 5.68945 4.20898L4.21973 3.31348C4.11719 3.25879 4.04883 3.27246 3.95996 3.34766L3.23535 4.06543C3.15332 4.14746 3.15332 4.22949 3.21484 4.3252L4.11719 5.79492C3.95313 6.08887 3.75488 6.5127 3.65234 6.9707L1.96387 7.36719C1.86133 7.39453 1.81348 7.44238 1.81348 7.56543L1.81348 8.59082C1.81348 8.70703 1.86133 8.76172 1.96387 8.78223L3.65234 9.18555C3.75488 9.61621 3.93945 10.0264 4.13086 10.3477L3.22168 11.8242C3.16016 11.9131 3.16699 11.9951 3.24219 12.0703L3.9668 12.7949C4.05566 12.877 4.1377 12.8838 4.21973 12.8291L5.69629 11.9199C6.03125 12.1318 6.44141 12.3027 6.87891 12.4053L7.28223 14.0869C7.30273 14.1895 7.35742 14.2441 7.47363 14.2441ZM8 10.6621C6.57129 10.6621 5.40234 9.49316 5.40234 8.06445C5.40234 6.64941 6.57813 5.48047 8 5.48047C9.42188 5.48047 10.5908 6.64941 10.5908 8.06445C10.5908 9.49316 9.42188 10.6621 8 10.6621ZM8 9.49316C8.76563 9.49316 9.40137 8.84375 9.40137 8.06445C9.40137 7.29199 8.76563 6.65625 8 6.65625C7.2207 6.65625 6.57813 7.29199 6.57813 8.06445C6.57813 8.85059 7.2207 9.49316 8 9.49316Z"
  />
</svg>
