<svg viewBox="0 0 24 24" xmlns="http://www.w3.org/2000/svg">
  <path
    stroke="none"
    d="M11.3096 19.4814C10.7354 19.4814 10.2979 19.1328 10.168 18.5928L9.8877 17.3828L9.70313 17.3145L8.65039 17.9639C8.17871 18.2646 7.61816 18.1895 7.21484 17.7861L6.25781 16.8291C5.85449 16.4258 5.7793 15.8652 6.08008 15.3936L6.73633 14.3477L6.66797 14.1768L5.46484 13.8965C4.9248 13.7598 4.57617 13.3154 4.57617 12.7549L4.57617 11.4082C4.57617 10.8477 4.91797 10.4033 5.46484 10.2666L6.6543 9.97949L6.72949 9.80176L6.07324 8.75586C5.77246 8.28418 5.84766 7.73047 6.25098 7.31348L7.20801 6.35645C7.60449 5.95996 8.16504 5.88477 8.64355 6.17871L9.69629 6.82129L9.8877 6.74609L10.168 5.53613C10.2979 4.99609 10.7354 4.64746 11.3096 4.64746L12.6904 4.64746C13.2578 4.64746 13.7021 4.99609 13.832 5.53613L14.1123 6.74609L14.3037 6.82129L15.3564 6.17871C15.8281 5.88477 16.3887 5.95996 16.7852 6.35645L17.7422 7.31348C18.1455 7.73047 18.2207 8.28418 17.9199 8.75586L17.2705 9.80176L17.3389 9.97949L18.5352 10.2666C19.0752 10.4033 19.4238 10.8477 19.4238 11.4082V12.7549C19.4238 13.3154 19.0684 13.7598 18.5352 13.8965L17.3252 14.1768L17.2637 14.3477L17.9131 15.3936C18.2139 15.8652 18.1455 16.4258 17.7354 16.8291L16.7783 17.7861C16.3818 18.1895 15.8213 18.2646 15.3428 17.9639L14.29 17.3145L14.1123 17.3828L13.832 18.5928C13.7021 19.1328 13.2578 19.4814 12.6904 19.4814H11.3096ZM11.4736 18.2441H12.5264C12.6426 18.2441 12.6973 18.1963 12.7109 18.0869L13.1211 16.4053C13.5723 16.3027 13.9619 16.1318 14.2969 15.9199L15.7734 16.8291C15.8555 16.8838 15.9375 16.877 16.0264 16.7949L16.751 16.0635C16.8262 15.9951 16.8262 15.9131 16.7715 15.8242L15.8691 14.3477C16.0537 14.0264 16.2383 13.6162 16.3408 13.1855L18.0293 12.7822C18.1318 12.7617 18.1865 12.707 18.1865 12.5908V11.5654C18.1865 11.4424 18.1387 11.3945 18.0293 11.3672L16.3477 10.9707C16.2451 10.5127 16.04 10.0889 15.876 9.79492L16.7783 8.3252C16.8398 8.22949 16.8398 8.14746 16.7578 8.07227L16.0264 7.35449C15.9443 7.27246 15.876 7.26562 15.7734 7.32031L14.3037 8.21582C13.9688 8.02441 13.5654 7.83984 13.1211 7.7373L12.7109 6.04199C12.6973 5.93262 12.6426 5.88477 12.5264 5.88477L11.4736 5.88477C11.3574 5.88477 11.3027 5.93945 11.2822 6.04199L10.8789 7.72363C10.4482 7.83301 9.99707 8.02441 9.68945 8.20898L8.21973 7.31348C8.11719 7.25879 8.04883 7.27246 7.95996 7.34766L7.23535 8.06543C7.15332 8.14746 7.15332 8.22949 7.21484 8.3252L8.11719 9.79492C7.95313 10.0889 7.75488 10.5127 7.65234 10.9707L5.96387 11.3672C5.86133 11.3945 5.81348 11.4424 5.81348 11.5654L5.81348 12.5908C5.81348 12.707 5.86133 12.7617 5.96387 12.7822L7.65234 13.1855C7.75488 13.6162 7.93945 14.0264 8.13086 14.3477L7.22168 15.8242C7.16016 15.9131 7.16699 15.9951 7.24219 16.0703L7.9668 16.7949C8.05566 16.877 8.1377 16.8838 8.21973 16.8291L9.69629 15.9199C10.0313 16.1318 10.4414 16.3027 10.8789 16.4053L11.2822 18.0869C11.3027 18.1895 11.3574 18.2441 11.4736 18.2441ZM12 14.6621C10.5713 14.6621 9.40234 13.4932 9.40234 12.0645C9.40234 10.6494 10.5781 9.48047 12 9.48047C13.4219 9.48047 14.5908 10.6494 14.5908 12.0645C14.5908 13.4932 13.4219 14.6621 12 14.6621ZM12 13.4932C12.7656 13.4932 13.4014 12.8437 13.4014 12.0645C13.4014 11.292 12.7656 10.6562 12 10.6562C11.2207 10.6562 10.5781 11.292 10.5781 12.0645C10.5781 12.8506 11.2207 13.4932 12 13.4932Z"
  />
</svg>
