<svg viewBox="0 0 24 24" xmlns="http://www.w3.org/2000/svg">
<path d="M10.5547 6.89356C10.5547 6.63379 10.6162 6.39909 10.7393 6.18945C10.8669 5.97982 11.0355 5.81348 11.2451 5.69043C11.4548 5.56738 11.6849 5.50586 11.9355 5.50586C12.1908 5.50586 12.4232 5.56738 12.6328 5.69043C12.8424 5.81348 13.0088 5.97982 13.1318 6.18945C13.2594 6.39909 13.3232 6.63379 13.3232 6.89356C13.3232 7.14421 13.2594 7.37435 13.1318 7.58399C13.0088 7.79362 12.8424 7.95996 12.6328 8.08301C12.4232 8.20606 12.1908 8.26758 11.9355 8.26758C11.6849 8.26758 11.4548 8.20606 11.2451 8.08301C11.0355 7.95996 10.8669 7.79362 10.7393 7.58399C10.6162 7.37435 10.5547 7.14421 10.5547 6.89356ZM10.5547 12C10.5547 11.7448 10.6162 11.5124 10.7393 11.3027C10.8669 11.0931 11.0355 10.9245 11.2451 10.7969C11.4548 10.6738 11.6849 10.6123 11.9355 10.6123C12.1908 10.6123 12.4232 10.6738 12.6328 10.7969C12.8424 10.9245 13.0088 11.0931 13.1318 11.3027C13.2594 11.5124 13.3232 11.7448 13.3232 12C13.3232 12.2552 13.2594 12.4854 13.1318 12.6904C13.0088 12.9001 12.8424 13.0664 12.6328 13.1895C12.4232 13.3171 12.1908 13.3809 11.9355 13.3809C11.6849 13.3809 11.4548 13.3171 11.2451 13.1895C11.0355 13.0664 10.8669 12.9001 10.7393 12.6904C10.6162 12.4854 10.5547 12.2552 10.5547 12ZM10.5547 17.1064C10.5547 16.8512 10.6162 16.6188 10.7393 16.4092C10.8669 16.1995 11.0355 16.0332 11.2451 15.9102C11.4548 15.7871 11.6849 15.7256 11.9355 15.7256C12.1908 15.7256 12.4232 15.7871 12.6328 15.9102C12.8424 16.0332 13.0088 16.1995 13.1318 16.4092C13.2594 16.6188 13.3232 16.8512 13.3232 17.1064C13.3232 17.3617 13.2594 17.5941 13.1318 17.8037C13.0088 18.0133 12.8424 18.1797 12.6328 18.3027C12.4232 18.4303 12.1908 18.4941 11.9355 18.4941C11.6849 18.4941 11.4548 18.4303 11.2451 18.3027C11.0355 18.1797 10.8669 18.0133 10.7393 17.8037C10.6162 17.5941 10.5547 17.3617 10.5547 17.1064Z" fill="currentColor"/>
</svg>
