<svg width="16" height="16" viewBox="0 0 16 16" fill="none" xmlns="http://www.w3.org/2000/svg">
<path d="M4 4H14L13 10H5L4 4Z" stroke="#4A5568" stroke-linecap="round" stroke-linejoin="round"/>
<path d="M6.00001 13.3333C6.3682 13.3333 6.66668 13.0349 6.66668 12.6667C6.66668 12.2985 6.3682 12 6.00001 12C5.63182 12 5.33334 12.2985 5.33334 12.6667C5.33334 13.0349 5.63182 13.3333 6.00001 13.3333Z" stroke="#4A5568" stroke-linecap="round" stroke-linejoin="round"/>
<path d="M12 13.3333C12.3682 13.3333 12.6667 13.0349 12.6667 12.6667C12.6667 12.2985 12.3682 12 12 12C11.6318 12 11.3333 12.2985 11.3333 12.6667C11.3333 13.0349 11.6318 13.3333 12 13.3333Z" stroke="#4A5568" stroke-linecap="round" stroke-linejoin="round"/>
<path d="M4 4H2" stroke="#4A5568" stroke-linecap="round" stroke-linejoin="round"/>
</svg>
