<svg viewBox="0 0 24 24" xmlns="http://www.w3.org/2000/svg">
<path d="M12 19.2285C11.4805 19.2285 11.0225 19.11 10.626 18.873C10.234 18.6406 9.92188 18.333 9.68945 17.9502C9.46159 17.5719 9.33854 17.1618 9.32031 16.7197H6.51074C6.15072 16.7197 5.86816 16.6331 5.66309 16.46C5.46257 16.2822 5.3623 16.0475 5.3623 15.7559C5.3623 15.5143 5.42611 15.2842 5.55371 15.0654C5.68132 14.8421 5.8431 14.6279 6.03906 14.4229C6.23958 14.2178 6.44466 14.015 6.6543 13.8145C6.8138 13.6595 6.93685 13.4567 7.02344 13.2061C7.11003 12.9554 7.17611 12.6797 7.22168 12.3789C7.26725 12.0781 7.30371 11.7705 7.33105 11.4561C7.34017 11.0869 7.36296 10.7383 7.39941 10.4102C7.44043 10.082 7.49512 9.77669 7.56348 9.49414L8.73926 10.6699C8.71647 10.8431 8.69596 11.0254 8.67773 11.2168C8.66406 11.4082 8.65495 11.6087 8.65039 11.8184C8.63216 12.1283 8.60482 12.4154 8.56836 12.6797C8.5319 12.944 8.48405 13.1855 8.4248 13.4043C8.36556 13.623 8.29264 13.819 8.20605 13.9922C8.12402 14.1654 8.02604 14.3158 7.91211 14.4434C7.80273 14.571 7.68652 14.6963 7.56348 14.8193C7.44499 14.9378 7.33561 15.0472 7.23535 15.1475C7.13965 15.2477 7.06217 15.3275 7.00293 15.3867V15.4688H13.5449L15.0078 16.9385H14.6455C14.5954 17.3532 14.4518 17.7337 14.2148 18.0801C13.9824 18.4264 13.6748 18.7044 13.292 18.9141C12.9137 19.1237 12.4831 19.2285 12 19.2285ZM12 18.1348C12.3874 18.1348 12.7087 18.0072 12.9639 17.752C13.2191 17.4967 13.3581 17.1527 13.3809 16.7197H10.6123C10.6396 17.1527 10.7809 17.4967 11.0361 17.752C11.2913 18.0072 11.6126 18.1348 12 18.1348ZM9.01953 6.99902C9.15625 6.89421 9.30208 6.7985 9.45703 6.71191C9.61654 6.62533 9.78516 6.55241 9.96289 6.49316C10.0905 6.04199 10.3343 5.66374 10.6943 5.3584C11.0544 5.05306 11.4896 4.90039 12 4.90039C12.5059 4.90039 12.9388 5.05306 13.2988 5.3584C13.6589 5.66374 13.9049 6.04199 14.0371 6.49316C14.9349 6.81673 15.5889 7.41146 15.999 8.27734C16.4137 9.14323 16.6416 10.2666 16.6826 11.6475C16.7008 11.9209 16.7282 12.1738 16.7646 12.4062C16.8011 12.6341 16.849 12.846 16.9082 13.042C16.972 13.2334 17.0518 13.4111 17.1475 13.5752C17.2477 13.7393 17.3685 13.8965 17.5098 14.0469C17.7786 14.3021 18.0293 14.5664 18.2617 14.8398C18.4941 15.1133 18.6104 15.4027 18.6104 15.708C18.6104 15.9587 18.5329 16.166 18.3779 16.3301L15.6641 13.5547C15.5911 13.3952 15.5342 13.2288 15.4932 13.0557C15.4567 12.8779 15.4271 12.6842 15.4043 12.4746C15.3815 12.265 15.361 12.0303 15.3428 11.7705C15.3245 10.8089 15.222 10.0456 15.0352 9.48047C14.8483 8.91081 14.6045 8.4847 14.3037 8.20215C14.0029 7.9196 13.6657 7.72819 13.292 7.62793C13.21 7.6097 13.1462 7.5778 13.1006 7.53223C13.055 7.4821 13.0277 7.41146 13.0186 7.32031C13.0003 6.97396 12.9001 6.69368 12.7178 6.47949C12.54 6.2653 12.3008 6.1582 12 6.1582C11.6992 6.1582 11.4577 6.2653 11.2754 6.47949C11.0931 6.69368 10.9928 6.97396 10.9746 7.32031C10.9701 7.41146 10.9427 7.4821 10.8926 7.53223C10.847 7.5778 10.7855 7.6097 10.708 7.62793C10.5758 7.66439 10.4482 7.70996 10.3252 7.76465C10.2067 7.81934 10.0928 7.88542 9.9834 7.96289L9.01953 6.99902ZM5.61523 6.35645C5.51497 6.25163 5.46484 6.12402 5.46484 5.97363C5.46484 5.81868 5.51497 5.6888 5.61523 5.58398C5.72461 5.47917 5.85449 5.42676 6.00488 5.42676C6.15983 5.42676 6.28971 5.47917 6.39453 5.58398L18.8086 17.9912C18.9134 18.096 18.9658 18.2236 18.9658 18.374C18.9658 18.5244 18.9134 18.6543 18.8086 18.7637C18.7038 18.8685 18.5739 18.9209 18.4189 18.9209C18.2686 18.9209 18.141 18.8685 18.0361 18.7637L5.61523 6.35645Z" fill="currentColor"/>
</svg>
