<svg viewBox="0 0 16 16" xmlns="http://www.w3.org/2000/svg">
   <path fill-rule="evenodd" clip-rule="evenodd"
      stroke="none"
      d="M12.2563 15.1861C12.4709 15.3381 12.7476 15.3761 12.9943 15.2828C13.2409 15.1888 13.4223 14.9781 13.4769 14.7228C14.0563 12.0001 15.4616 5.10877 15.9889 2.6321C16.0289 2.44543 15.9623 2.25143 15.8156 2.12677C15.6689 2.0021 15.4656 1.9661 15.2843 2.03343C12.4889 3.0681 3.88027 6.2981 0.361599 7.6001C0.138265 7.68276 -0.0070681 7.89743 0.000265236 8.13277C0.00826524 8.36876 0.166932 8.57343 0.395599 8.6421C1.9736 9.1141 4.04493 9.77076 4.04493 9.77076C4.04493 9.77076 5.01293 12.6941 5.5176 14.1808C5.58093 14.3674 5.72693 14.5141 5.9196 14.5648C6.1116 14.6148 6.31693 14.5621 6.46027 14.4268C7.27093 13.6614 8.52427 12.4781 8.52427 12.4781C8.52427 12.4781 10.9056 14.2241 12.2563 15.1861ZM4.91627 9.40143L6.0356 13.0934L6.28427 10.7554C6.28427 10.7554 10.6089 6.85477 13.0743 4.63143C13.1463 4.5661 13.1563 4.45677 13.0963 4.3801C13.0369 4.30343 12.9276 4.28543 12.8456 4.33743C9.98827 6.1621 4.91627 9.40143 4.91627 9.40143Z"
   />
</svg>