<svg width="20" height="20" viewBox="0 0 20 20" fill="none" xmlns="http://www.w3.org/2000/svg">
<rect width="20" height="20" rx="10" fill="#F4F4F4"/>
<g clip-path="url(#clip0_8137_480683)">
<path d="M6.61621 15.2598C6.38672 15.0889 6.33789 14.8057 6.46973 14.4199L7.47559 11.4365L4.91211 9.5957C4.58008 9.36133 4.44336 9.10254 4.53613 8.8291C4.62891 8.56055 4.88281 8.43359 5.28809 8.43359H8.43262L9.38965 5.45508C9.5166 5.06445 9.7168 4.85449 10 4.85449C10.2881 4.85449 10.4883 5.06445 10.6104 5.45508L11.5674 8.43359H14.7119C15.1172 8.43359 15.376 8.56055 15.4688 8.8291C15.5615 9.10254 15.4199 9.36133 15.0928 9.5957L12.5293 11.4365L13.5303 14.4199C13.6621 14.8057 13.6133 15.0889 13.3887 15.2598C13.1592 15.4355 12.8711 15.377 12.5391 15.1377L10 13.2725L7.46094 15.1377C7.12891 15.377 6.8457 15.4355 6.61621 15.2598Z" fill="#707070"/>
</g>
<defs>
<clipPath id="clip0_8137_480683">
<rect width="16" height="16" fill="white" transform="translate(2 2)"/>
</clipPath>
</defs>
</svg>
