<svg width="16" height="16" viewBox="0 0 16 16" fill="none" xmlns="http://www.w3.org/2000/svg">
<g clip-path="url(#clip0_9911_317360)">
<path d="M4.61621 13.2598C4.38672 13.0889 4.33789 12.8057 4.46973 12.4199L5.47559 9.43652L2.91211 7.5957C2.58008 7.36133 2.44336 7.10254 2.53613 6.8291C2.62891 6.56055 2.88281 6.43359 3.28809 6.43359L6.43262 6.43359L7.38965 3.45508C7.5166 3.06445 7.7168 2.85449 8 2.85449C8.28809 2.85449 8.48828 3.06445 8.61035 3.45508L9.56738 6.43359H12.7119C13.1172 6.43359 13.376 6.56055 13.4688 6.8291C13.5615 7.10254 13.4199 7.36133 13.0928 7.5957L10.5293 9.43652L11.5303 12.4199C11.6621 12.8057 11.6133 13.0889 11.3887 13.2598C11.1592 13.4355 10.8711 13.377 10.5391 13.1377L8 11.2725L5.46094 13.1377C5.12891 13.377 4.8457 13.4355 4.61621 13.2598Z" fill="#707070"/>
</g>
<defs>
<clipPath id="clip0_9911_317360">
<rect width="16" height="16" fill="white"/>
</clipPath>
</defs>
</svg>
