<svg width="24" height="24" viewBox="0 0 24 24" fill="none" xmlns="http://www.w3.org/2000/svg">
<g clip-path="url(#clip0_7807_95838)">
<path d="M12.9229 19.6182C12.5674 19.8232 12.2871 19.9258 12 19.9258C11.7061 19.9258 11.4258 19.8232 11.0703 19.6182L5.75195 16.5352C5.17773 16.2002 4.9248 15.9131 4.9248 15.4824C4.9248 15.0449 5.17773 14.7646 5.75195 14.4229L6.68848 13.8828L5.75195 13.3428C5.17773 13.0078 4.9248 12.7207 4.9248 12.29C4.9248 11.8594 5.17773 11.5723 5.75195 11.2373L6.85254 10.6016L5.75195 9.95898C5.17773 9.62402 4.9248 9.33691 4.9248 8.90625C4.9248 8.46875 5.17773 8.18848 5.75195 7.84668L11.0703 4.76367C11.4258 4.55859 11.7061 4.45605 12 4.45605C12.2871 4.45605 12.5674 4.55859 12.9229 4.76367L18.2412 7.84668C18.8154 8.18848 19.0684 8.46875 19.0684 8.90625C19.0684 9.33691 18.8154 9.62402 18.2412 9.95898L17.1406 10.5947L18.2412 11.2373C18.8154 11.5723 19.0684 11.8594 19.0684 12.29C19.0684 12.7207 18.8154 13.0078 18.2412 13.3428L17.3115 13.8828L18.2412 14.4229C18.8154 14.7646 19.0684 15.0449 19.0684 15.4824C19.0684 15.9131 18.8154 16.2002 18.2412 16.5352L12.9229 19.6182ZM12 11.9277C12.0889 11.9277 12.1709 11.8936 12.2734 11.8389L17.3115 8.96777C17.3389 8.9541 17.3594 8.93359 17.3594 8.90625C17.3594 8.87207 17.3389 8.8584 17.3115 8.83789L12.2734 5.97363C12.1709 5.91211 12.0889 5.88477 12 5.88477C11.9043 5.88477 11.8223 5.91211 11.7197 5.97363L6.68848 8.83789C6.6543 8.8584 6.64063 8.87207 6.64063 8.90625C6.64063 8.93359 6.6543 8.9541 6.68848 8.96777L11.7197 11.8389C11.8223 11.8936 11.9043 11.9277 12 11.9277ZM12 13.3496C11.7061 13.3496 11.4258 13.2539 11.0703 13.042L8.18555 11.3672L6.68848 12.2217C6.6543 12.2422 6.64063 12.2559 6.64063 12.29C6.64063 12.3242 6.6543 12.3379 6.68848 12.3584L11.7197 15.2227C11.8223 15.2842 11.9043 15.3115 12 15.3115C12.0889 15.3115 12.1709 15.2842 12.2734 15.2227L17.3115 12.3584C17.3389 12.3379 17.3594 12.3242 17.3594 12.29C17.3594 12.2559 17.3389 12.2422 17.3115 12.2217L15.8076 11.374L12.9229 13.042C12.5674 13.2539 12.2871 13.3496 12 13.3496ZM11.7197 18.415C11.8223 18.4697 11.9043 18.5039 12 18.5039C12.0889 18.5039 12.1709 18.4697 12.2734 18.415L17.3115 15.5439C17.3389 15.5303 17.3594 15.5098 17.3594 15.4824C17.3594 15.4482 17.3389 15.4346 17.3115 15.4141L15.9785 14.6553L12.9229 16.4258C12.5674 16.6377 12.2871 16.7402 12 16.7402C11.7061 16.7402 11.4258 16.6377 11.0703 16.4258L8.02148 14.6553L6.68848 15.4141C6.6543 15.4346 6.64063 15.4482 6.64063 15.4824C6.64063 15.5098 6.6543 15.5303 6.68848 15.5439L11.7197 18.415Z" fill="#707070"/>
</g>
<defs>
<clipPath id="clip0_7807_95838">
<rect width="24" height="24" fill="white"/>
</clipPath>
</defs>
</svg>
