<svg viewBox="0 0 14 18" xmlns="http://www.w3.org/2000/svg">
  <path
    stroke="none"
    d="M0.560547 4.55273L4.08105 1.10742C4.22461 0.970703 4.42969 0.881836 4.60742 0.881836C5.03125 0.881836 5.3252 1.17578 5.3252 1.59277C5.3252 1.79785 5.25684 1.96191 5.12012 2.09863L3.65723 3.50684L2.59082 4.42285L4.05371 4.36816H12.9541C13.3643 4.36816 13.6719 4.66895 13.6719 5.08594C13.6719 5.50293 13.3643 5.81055 12.9541 5.81055H4.05371L2.59082 5.75586L3.65723 6.67188L5.12012 8.08008C5.25684 8.2168 5.3252 8.38086 5.3252 8.5791C5.3252 8.99609 5.03125 9.29004 4.60742 9.29004C4.42969 9.29004 4.22461 9.20801 4.08105 9.07129L0.560547 5.62598C0.246094 5.3252 0.239258 4.85352 0.560547 4.55273ZM13.4395 13.5898L9.91211 17.0352C9.77539 17.1719 9.56348 17.2607 9.38574 17.2607C8.96191 17.2607 8.6748 16.96 8.6748 16.543C8.6748 16.3447 8.73633 16.1807 8.87988 16.0439L10.3359 14.6357L11.4023 13.7197L9.93945 13.7744H1.03906C0.628906 13.7744 0.321289 13.4736 0.321289 13.0566C0.321289 12.6328 0.628906 12.332 1.03906 12.332H9.93945L11.4023 12.3867L10.3359 11.4707L8.87988 10.0625C8.73633 9.92578 8.6748 9.76172 8.6748 9.56348C8.6748 9.14648 8.96191 8.8457 9.38574 8.8457C9.56348 8.8457 9.77539 8.93457 9.91211 9.07129L13.4395 12.5166C13.7471 12.8174 13.7539 13.2822 13.4395 13.5898Z"
  />
</svg>
