<svg viewBox="0 0 18 22" xmlns="http://www.w3.org/2000/svg">
  <path stroke-width="0" d="M0.720703 4.85352L5.24707 0.423828C5.43164 0.248047 5.69531 0.133789 5.92383 0.133789C6.46875 0.133789 6.84668 0.511719 6.84668 1.04785C6.84668 1.31152 6.75879 1.52246 6.58301 1.69824L4.70215 3.50879L3.33105 4.68652L5.21191 4.61621H16.6553C17.1826 4.61621 17.5781 5.00293 17.5781 5.53906C17.5781 6.0752 17.1826 6.4707 16.6553 6.4707H5.21191L3.33105 6.40039L4.70215 7.57812L6.58301 9.38867C6.75879 9.56445 6.84668 9.77539 6.84668 10.0303C6.84668 10.5664 6.46875 10.9443 5.92383 10.9443C5.69531 10.9443 5.43164 10.8389 5.24707 10.6631L0.720703 6.2334C0.316406 5.84668 0.307617 5.24023 0.720703 4.85352ZM17.2793 16.4727L12.7441 20.9023C12.5684 21.0781 12.2959 21.1924 12.0674 21.1924C11.5225 21.1924 11.1533 20.8057 11.1533 20.2695C11.1533 20.0146 11.2324 19.8037 11.417 19.6279L13.2891 17.8174L14.6602 16.6396L12.7793 16.71H1.33594C0.808594 16.71 0.413086 16.3232 0.413086 15.7871C0.413086 15.2422 0.808594 14.8555 1.33594 14.8555H12.7793L14.6602 14.9258L13.2891 13.748L11.417 11.9375C11.2324 11.7617 11.1533 11.5508 11.1533 11.2959C11.1533 10.7598 11.5225 10.373 12.0674 10.373C12.2959 10.373 12.5684 10.4873 12.7441 10.6631L17.2793 15.0928C17.6748 15.4795 17.6836 16.0771 17.2793 16.4727Z" />
</svg>
