<svg width="16" height="16" viewBox="0 0 16 16" stroke="white" fill="none" xmlns="http://www.w3.org/2000/svg">
<path d="M8 1.33325L10 3.33325L8 5.33325" stroke-linecap="round" stroke-linejoin="round"/>
<path d="M8 14.6667L6 12.6667L8 10.6667" stroke-linecap="round" stroke-linejoin="round"/>
<path d="M9.33329 3.32275H8.03329C7.17874 3.32259 6.34031 3.55541 5.6082 3.99618C4.8761 4.43694 4.27801 5.06897 3.87828 5.82426C3.47856 6.57956 3.29232 7.42955 3.3396 8.28279C3.38688 9.13603 3.66589 9.96024 4.14662 10.6667" stroke-linecap="round" stroke-linejoin="round"/>
<path d="M11.8966 5.32275C12.3774 6.02926 12.6564 6.85346 12.7036 7.7067C12.7509 8.55995 12.5647 9.40993 12.165 10.1652C11.7652 10.9205 11.1672 11.5526 10.435 11.9933C9.70293 12.4341 8.86451 12.6669 8.00996 12.6667H6.66663" stroke-linecap="round" stroke-linejoin="round"/>
<path d="M6.66667 12.6667H6" stroke-linecap="round" stroke-linejoin="round"/>
<path d="M10 3.33325H9.33337" stroke-linecap="round" stroke-linejoin="round"/>
</svg>
