<svg width="12" height="12" viewBox="0 0 12 12" fill="none" xmlns="http://www.w3.org/2000/svg">
<path d="M6.27806 10.5171L10.6419 6.14353C10.9776 5.80779 11 5.6153 11 5.14526V3.44418C11 2.96967 10.8881 2.82195 10.5479 2.48173L9.51852 1.45213C9.18284 1.11639 9.03514 1 8.5607 1H6.85543C6.38548 1 6.1975 1.02238 5.86181 1.35812L1.48451 5.72721C0.844473 6.36735 0.831045 7.02988 1.48898 7.68345L4.32215 10.5126C4.98009 11.1662 5.63802 11.1572 6.27806 10.5171ZM7.80877 4.58122C7.45519 4.58122 7.19559 4.30815 7.19559 3.96794C7.19559 3.62324 7.45519 3.35465 7.80877 3.35465C8.15788 3.35465 8.42196 3.62324 8.42196 3.96794C8.42196 4.30815 8.15788 4.58122 7.80877 4.58122Z" />
</svg>
