<svg width="16" height="16" viewBox="0 0 16 16" fill="none" xmlns="http://www.w3.org/2000/svg">
  <path d="M9.45545 14.6506C8.48623 14.6506 7.77879 14.422 7.33314 13.9648C6.92031 13.5778 6.68074 13.0465 6.6668 12.487C6.66178 12.317 6.70201 12.1487 6.78353 11.9986C6.85956 11.8689 6.9694 11.7612 7.10182 11.6867C7.25573 11.6115 7.42538 11.5724 7.59737 11.5724C7.76937 11.5724 7.93902 11.6115 8.09293 11.6867C8.22511 11.7609 8.33444 11.8687 8.40943 11.9986C8.4933 12.148 8.53503 12.3166 8.53034 12.487C8.53899 12.6905 8.47937 12.8913 8.36058 13.0585C8.26155 13.195 8.12002 13.2964 7.95719 13.3475C8.11643 13.546 8.34173 13.6836 8.59386 13.7362C8.87595 13.8164 9.1681 13.8577 9.46185 13.8587C9.85075 13.8621 10.2316 13.7505 10.5548 13.5387C10.8901 13.3068 11.1402 12.9752 11.2679 12.5932C11.4298 12.1385 11.5089 11.6595 11.5014 11.178C11.5144 10.6761 11.4279 10.1764 11.2467 9.7067C11.1104 9.33102 10.8516 9.0097 10.5103 8.79231C10.193 8.59573 9.82474 8.49259 9.44931 8.49517C9.12218 8.52231 8.80673 8.62717 8.53034 8.80066L7.8489 9.13521V8.80066L10.9113 4.77786H6.6668V8.95236C6.65481 9.25361 6.73619 9.55136 6.90025 9.80647C6.97963 9.91763 7.08698 10.0068 7.21191 10.0655C7.33684 10.1241 7.4751 10.1501 7.61332 10.141C7.8687 10.136 8.11567 10.0507 8.31786 9.89789C8.54705 9.73342 8.74649 9.53252 8.90789 9.30352C8.92241 9.26337 8.9492 9.22857 8.98462 9.20384C9.01305 9.17977 9.04936 9.1665 9.08694 9.16643C9.16068 9.17303 9.23045 9.20208 9.28646 9.24951C9.35739 9.32712 9.396 9.42797 9.39466 9.53212C9.38646 9.60212 9.37371 9.67153 9.35646 9.73993C9.20568 10.0973 8.95294 10.4045 8.62848 10.6249C8.32713 10.8246 7.9712 10.9305 7.60735 10.9287C6.68837 10.9287 6.05173 10.7513 5.69743 10.3967C5.51532 10.2006 5.37497 9.971 5.2846 9.72122C5.19422 9.47143 5.15563 9.2065 5.1711 8.94193V4.77786H3.01221V4.00223H5.18116V2.23374L4.68458 1.74716V1.35059H6.12554L6.6668 1.62493V4.00223L12.2738 3.98554L12.832 4.53415L9.39389 7.91709C9.6016 7.83529 9.82034 7.78349 10.0433 7.7633C10.4845 7.78222 10.915 7.90254 11.2999 8.11454C11.7456 8.322 12.1213 8.65026 12.3823 9.0604C12.6162 9.4076 12.7818 9.79454 12.8705 10.2013C12.9434 10.5221 12.9825 10.8495 12.9872 11.1781C12.9895 11.8054 12.8442 12.4247 12.5627 12.9881C12.2958 13.5337 11.8465 13.9736 11.2893 14.235C10.719 14.5102 10.0913 14.6525 9.45545 14.6506Z" fill="currentColor"/>
</svg>
