<svg width="24" height="24" viewBox="0 0 24 24" fill="none" xmlns="http://www.w3.org/2000/svg">
<g clip-path="url(#clip0_7687_209647)">
<path d="M7.50879 5.80273C7.80957 5.48145 8.28125 5.48828 8.58203 5.80273L12.0205 9.32324C12.1641 9.4668 12.2461 9.67188 12.2461 9.85645C12.2461 10.2803 11.9521 10.5674 11.5352 10.5674C11.3369 10.5674 11.166 10.499 11.0361 10.3623L9.62793 8.89941L8.70508 7.83984L8.75977 9.30273V17.8477C8.75977 18.2715 8.45898 18.5723 8.04199 18.5723C7.625 18.5723 7.32422 18.2715 7.32422 17.8477V9.30273L7.37891 7.83984L6.46289 8.89941L5.04785 10.3623C4.91797 10.499 4.75391 10.5674 4.54883 10.5674C4.13184 10.5674 3.83789 10.2803 3.83789 9.85645C3.83789 9.67188 3.92676 9.4668 4.06348 9.32324L7.50879 5.80273ZM16.4912 18.3398C16.1904 18.6543 15.7188 18.6475 15.418 18.3398L11.9727 14.8057C11.8359 14.6689 11.7539 14.4639 11.7539 14.2793C11.7539 13.8555 12.0479 13.5684 12.4648 13.5684C12.6631 13.5684 12.8271 13.6367 12.9639 13.7734L14.3721 15.2295L15.2881 16.2959L15.2334 14.833V6.28809C15.2334 5.87109 15.541 5.56348 15.958 5.56348C16.375 5.56348 16.6758 5.87109 16.6758 6.28809V14.833L16.6211 16.2959L17.5371 15.2295L18.9453 13.7734C19.082 13.6367 19.2461 13.5684 19.4512 13.5684C19.8682 13.5684 20.1621 13.8555 20.1621 14.2793C20.1621 14.4639 20.0732 14.6689 19.9365 14.8057L16.4912 18.3398Z" fill="#1373E4"/>
</g>
<defs>
<clipPath id="clip0_7687_209647">
<rect width="24" height="24" fill="white"/>
</clipPath>
</defs>
</svg>
