<svg xmlns="http://www.w3.org/2000/svg" xmlns:xlink="http://www.w3.org/1999/xlink" width="38" height="25" viewBox="0 0 71 48"><defs><filter id="A" x="0%" y="0%" width="100%" height="100%"><feColorMatrix in="SourceGraphic" values="0 0 0 0 1 0 0 0 0 1 0 0 0 0 1 0 0 0 1 0"/></filter><mask id="B"><g filter="url(#A)"><path d="M0 0h71v48H0z" fill="rgb(0%,0%,0%)" fill-opacity=".988" stroke="none"/></g></mask><clipPath id="C"><path d="M0 0h71v48H0z"/></clipPath><g id="D" clip-path="url(#C)"><path d="M43.152.008c-.156.004-.219.172-.281.234s-.117.184-.234.148-.215.199-.281.285-.215.082-.316.066-.164-.02-.266-.02a1.9 1.9 0 0 1-.582-.164c-.148-.086-.445-.102-.527-.102s-.168.016-.285-.035-.133-.066-.281.02-.082.418-.066.535.082.148-.066.184-.301.5-.301.566-.098.168-.164.219-.25-.02-.383 0-.184.133-.25.168-.215.016-.332 0-.148-.168-.168-.25-.066-.121-.148-.121-.43-.016-.715-.016-.68.02-.93-.031-.383.23-.48.367-.184.016-.285-.086-.43-.117-.562-.133-.164.148-.199.219-.184.066-.184.066l-.004.035c-.012.098-.051.188-.113.223-.074.043-.074.051-.047.141s-.352.203-.352.203v.023c.008.102.035.234-.082.254s-.168.047-.242.191-.082.199-.125.215-.098.051-.059.125.012.145-.023.184-.008.035-.109.059-.059.066-.016.094.094.016.066.09-.016.203-.125.219-.164.016-.148.199h-.059c-.016.012-.027.023-.043.039a.47.47 0 0 1-.039.16.59.59 0 0 0-.09.082c-.004.02-.004.035 0 .055.016.133.09.18.113.191-.039-.016-.039.227.051.242s.133.059.133.152-.016.215.023.25.086.105.051.133-.074-.027-.09.051-.027.074.047.125.109.133.137.234.031.082.016.133-.008.043.008.109.008.082.008.082-.043.125-.074.176-.199.164-.199.164l-.02.016-.035.063c0 .008-.004.016-.004.023l-.016.008c-.066-.098-.367-.316-.598-.398-.301-.109-.184-.27-.199-.484s-.367-.453-.699-.551-.945.184-1.062.316-.332-.082-.383-.184-.133-.133-.383-.168-.633.484-.633.551-.113.035-.246 0-.168.051-.266.102-.168-.117-.184-.219-.051-.168-.098-.219-.086-.398-.086-.449-.098-.168-.18-.199-.086-.27-.137-.387-.148-.066-.297-.098-.184.082-.234.148-.133.188-.398.219-.547.566-.578.766-.086.137-.234.07-.266-.602-.285-.77-.281-.133-.48-.152-.332.168-.332.168c-.133.066-.098.035-.332-.168s-.133-.23-.133-.23.012-.023.02-.047l.023-.07c.008-.059-.012-.117-.109-.117s-.176.059-.266.141l-.367.359c-.266.234-.23.102-.332-.035s-.266-.23-.496-.301-.199.102-.133.27.031.266-.102.367-.164.203-.465.035.066-.437.066-.535c0-.055-.148-.113-.293-.16h-.008l-.266-.074s-.133-.066-.23.035c-.016.016-.035.027-.055.039h-.004c-.109.059-.281.055-.473.023-.043-.004-.07-.012-.102-.023h-.008c-.059-.023-.09-.059-.098-.098-.008-.023-.008-.047-.004-.07s.004-.047.012-.074c.035-.133-.035-.133-.199-.168s-.102-.367-.133-.531-.5-.035-.73 0-.598-.102-.766-.27-.199-.066-.367-.066-.363-.035-.496-.168-.766-.133-1-.199-.363-.234-.363-.234-.098-.168-.332-.266-.199-.004-.332-.234-.398.133-.496.164-.398-.098-.566-.098-.633 0-.965-.035-.496-.133-.73-.234-.664 0-.93.137-1.098.164-1.199.133-.43-.066-.562 0-.297-.035-.496-.066-.434.633-.402.668-.23.266-.363.266-.301.102-.332.234-.234.266-.398.367-.266.035-.301-.133-.266-.102-.367-.066-.164.066-.43-.137-.367.27-.301.402-.133.234-.133.234-.008.02-.016.145.074.133.133.141-.016.148-.051.191c-.008.012 0 .039.012.066a.96.96 0 0 0 .133.176c.031.031 0 .109-.043.125s-.008.059 0 .102.008.066-.051.074-.141.109-.172.234.063.199.121.199.102.051.125.102.051.207.066.234.035.066.008.117.078.125.125.141.133.148.141.176.16.102.199.133-.008.125-.039.16-.008.082.016.184a.24.24 0 0 0 .109.16c.039.023.059.148.008.258s.059.199.09.227.082.098.066.164.023.109.059.152l.16.215c.047.078.313.27.371.293s.051.102-.023.168-.383-.016-.5-.023-.164.074-.184.234c-.012.129.098.152.168.152.016 0 .031 0 .043-.004.055-.008.023.109 0 .219s.141.148.176.156.039.051.004.102.043.219.078.301.051.09.051.09l-.031.098.004.004-.012.031c-.023.086-.043.195 0 .254.086.098.074.133.027.164s-.168.137-.242.145-.199.074-.168.152.02.113 0 .156-.105.25-.164.277-.414-.035-.523-.035-.555-.02-.613.141-.074.285-.168.313-.105.004-.172.121a1.08 1.08 0 0 1-.344.301 3.44 3.44 0 0 0-.32.199c-.043.031-.082.059-.094.078-.043.066-.398.324-.473.395l-.316.301c-.043.023-.141.105-.148.156s-.059.109-.102.133-.215.086-.348.27-.516.652-.559.668-.125.016-.133.074-.031.191-.074.203-.184.031-.199.113-.047.203-.105.238-.129.148-.176.164-.16-.016-.207.09-.141.301-.273.395-.352.41-.293.508.141.32.094.43-.035.176.031.223.117.125.082.277-.031.234 0 .301.051.227-.008.309-.125.242-.133.309-.016.035-.082.051-.184.051-.191.168 0 .133.141.215.25.227.289.262.063.074.086.09.059.125.047.211.027.184-.055.148-.094-.082-.117-.117-.059-.059-.109-.059-.289.043-.348 0-.164-.277-.242-.293-.164-.008-.191.086l-.066.273c-.016.074-.016.211-.082.203s-.176-.035-.227.031-.055.234-.098.25c-.012.004-.023.008-.031.016-.016.004-.023.012-.035.02-.016.016-.031.043-.031.09 0 .102-.051.168-.086.195s-.195.09-.18.281.016.25-.062.301-.113.078-.121.184-.059.426-.266.461-.219.16-.234.199-.074.086-.172.133-.184.074-.191.234-.02.203.008.262.016.066-.008.102-.078.047-.086.121l-.016.254c0 .031-.082.215.051.191s.176-.035.223-.027.234.059.152.145-.094.234 0 .223.199-.066.172.051-.051.176-.016.27.133.258.148.309.043.133.109.102.102-.012.141.012.133.047.176.027.066-.023.09.02.082.203.117.223a.38.38 0 0 1 .199.434c-.051.211.141.254.223.246s.449-.152.516-.109.176.191.176.191l.082.203h1.078c.066-.062.152-.102.199-.086s.078.055.109.086h13.77c.074-.152.207-.422.27-.363.082.086.215.285.297.285s.168-.133.121-.219-.234-.285-.07-.285.367-.031.465.02.285.133.383.148.219-.031.219-.082.066-.184.148-.148.148.113.25.164.363.086.496-.016.051-.199.184-.184.582.051.762-.266l.109-.027c.102-.051.188-.09.227-.082.012 0 .016.008.016.023 0 .059-.074.109.074.184s.258.094.367.043.23-.008.273.066.125.176.215.191.125.125.141.176.102.309.375.359l.078.012h47.063c.055-.039.145-.07.191-.109.086-.066.035-.117 0-.336s.234-.801.398-.867.133-.352.016-.434-.215.031-.281.051-.148.066-.23-.02.098-.266.18-.332-.031-.234-.098-.32-.199-.582-.215-.766-.184-.152-.234-.219 0-.168.219-.25.113-.301.063-.402-.312-.031-.43.02-.152.449-.316.582-.266-.148-.199-.352.199-.668.348-.832.75-.035.883-.086.184-.234.215-.367.016-.199-.051-.301-.215.016-.297.051-.465.066-.582.066-.184-.184-.234-.234-.18-.098-.281-.148-.117-.121-.117-.254.066-.133.219-.199.645-.117.746-.184.016-.383.082-.5.348-.301.484-.57l.262-.516c.086-.168-.082-.234-.148-.316s-.363-.32-.512-.57.031-.383.23-.617-.215-.301-.465-.266-.434.348-.598.414-.25.035-.383-.066-.465-.199-.582-.266-.148-.316-.246-.469-.285-.133-.52-.082-.43 0-.648-.051-.246-.383-.297-.516-.133-.219-.266-.219-.148.184-.168.25-.363.219-.512.234-.148-.254-.266-.402-.484-.031-.598-.031-.234-.336-.316-.504-.234-.016-.25.07-.117.098-.25.148-.23-.016-.266-.066-.066-.117-.215-.102-.199-.082-.367-.281-.348-.051-.613 0 .035.449.051.516.098.184-.02.184-.262.184-.414.234-.168.066-.234-.082-.113-.187-.195-.238-.168-.281-.285-.398-.312-.133-.48-.133-.234-.168-.301-.336-.348-.418-.445-.5c-.043-.031-.047-.121-.039-.223l.039-.379c-.02-.082-.367-.168-.469-.184s-.113-.316-.164-.418-.215-.031-.398 0-.449.117-.465.184-.035.117-.133.117a1.09 1.09 0 0 0-.516.215c-.133.117-.398.137-.75.219-.148.035-.281.137-.383.246h-.008a1.18 1.18 0 0 0-.238.375c-.031.113-.117.164-.316.164s-.102-.082-.266-.402-.699.086-.883.07c-.09-.008-.148-.094-.211-.207s-.129-.262-.219-.379c-.184-.234-.598-.219-.98-.219s-.664.438-.715.484-.348.086-.516.066-.18-.184-.246-.383-.203-.352-.316-.418-.117.066-.133-.066-.102-.336-.199-.602.133-.266.199-.352-.035-.484-.066-.582-.117-.168-.184-.184-.086-.051-.102-.219-.133-.5-.281-.652.035-.266.086-.383-.035-.184-.152-.25-.398.066-.531.016-.234-.586-.281-.785-.25-.203-.352-.168-.281.086-.398.086-.598.164-.781.215-.363-.281-.461-.367-.301-.082-.566-.082-.234.066-.383.148-.266-.016-.383-.148 0-.187.117-.187.117-.184.117-.301-.035-.215-.301-.301-.098-.148.016-.25.02-.348.02-.516c0-.109-.176-.352-.328-.559l-.187-.277c-.012-.016-.012-.035-.004-.051 0-.008.008-.02.016-.027.184-.219.785-.238 1.082-.34.25-.082-.082-.551-.164-.684s-.301-.184-.434-.27-.133-.215-.23-.301-.199-.117-.25-.133-.102-.148-.117-.25-.098-.219-.148-.316-.051-.133 0-.219.051-.168.051-.27-.285-.383-.367-.48-.496-.617-.664-.734-.332-.086-.48-.07-.316.285-.465.387-.152-.219-.184-.27-.184-.098-.383-.098a10.9 10.9 0 0 1-.73-.035h-.035zm0 0" stroke="none" fill="rgb(0%,35.686275%,73.333333%)" fill-opacity=".988"/></g><mask id="E"><g filter="url(#A)"><path d="M0 0h71v48H0z" fill="rgb(0%,0%,0%)" fill-opacity=".988" stroke="none"/></g></mask><clipPath id="F"><path d="M0 0h71v48H0z"/></clipPath><g id="G" clip-path="url(#F)"><path d="M1.59 23.813c-.012.168.152.199.227.195.086-.012.449-.152.516-.109s.176.191.176.191l.141.359c.016.039.043.141 0 .164s-.074.035-.074.059-.02.027-.051.07-.082.133.008.164.082.059.102.086.031.031.074.023.191-.066.148-.168-.008-.199.043-.176.191.152.266.176.266-.074.301-.105.098-.312.164-.402.18-.152.238-.133.102.09.145.113.105.043.133.035.074 0 .09.035.051.25.133.301.141.082.176.141.066.125.141.117.109.008.133.023.152.125.238.094c.051-.02.086-.035.105-.047.012-.016.023-.031.039-.035.031-.02.082-.035.082-.035l.199.109c.109 0 .156.008.199.043s.168.063.242.063.23.004.332.07.156.133.172.199.043.168.152.125.25-.199.383-.168.387.086.465.203l.047.082c.047.074.086.117.191.082l.102-.023s.215.148.398.051.234-.051.316-.035.082-.082.164-.098.066-.219.551-.02.363.234.465.301.082.102.066.168-.035.148.133.25l.184.102c.113.059.215.109.25.152.047.066.195.414.215.48s.098.168.215.121.117-.051.25-.051.516-.152.598-.301.148-.305.215-.32c.051-.012.074-.043.086-.082.004-.012.012-.023.016-.035a.27.27 0 0 1 .148-.164c.102-.051.332-.168.434-.137s.266.02.348-.016.133-.066.23-.051.863.051.98.066.184 0 .25-.051.117-.098.234-.098.266-.035.363-.016.168 0 .234-.02.199-.031.332 0 .348 0 .398-.066.133-.352.199-.367.184-.082.184-.133.098-.316.164-.402-.031-.184.051-.184.168-.051.168-.051h.031c.012.016.027.031.047.035s.043 0 .063-.016c.031-.035.207-.176.297-.141s.199.098.273.055.125-.074.133-.105a.19.19 0 0 1 .023-.051c.012-.023.031-.043.051-.027.035.027.07.066.102.02l.074-.102s.234-.551.316-.469.215.285.297.285.168-.137.121-.219c-.027-.043-.094-.121-.121-.184zm17.418 0c.074.031.152.059.203.066.09.016.195-.023.215-.066zm.82 0c.094.047.336.082.477 0zm2.816 0a.48.48 0 0 1 .047.109c.016.051.102.309.375.359s.449.043.441.176c-.008.078-.039.191-.055.273-.012.063-.012.105.02.117.074.027.176-.016.227-.105s.141-.035.148.031.023.352.215.234.367-.285.441-.199.176.266.031.383-.289.258-.141.301.168-.051.223-.148.191-.125.211 0 .008.121-.008.273c0 0 .34.594.238 0-.016-.102.285-.301.484-.234.156.027.488.02.672.109l.043.02c.039.027.066.063.082.105.039.141.172.555.352.836a1.2 1.2 0 0 0 .145.184l.066.051a.32.32 0 0 0 .074.035c.027.008.039.012.051.012.027 0 .051-.004.074-.016.367-.133.566-.367.633-.133s.199.434.332.469-.332.367-.199.5.266.234.199.402-.168.234-.234.398-.031.469-.098.637-.164.168-.098.332.129.238.328.27.402.367.5.5 0 .367.168.469.363.035.398-.066.199-.168.297-.035.234.434.035.5-.133.203-.098.336.129.203-.07.234-.266.102-.164.199.164.27.297.168.199 0 .199.102-.062.301-.129.367-.203.234 0 .301.332.035.43.199.199.07.363.168.168.133.301.234.164-.031.266.066.234.133.133.27-.199.43-.133.633.102.332.031.5-.195.469-.098.535.168.402.5.535.266.199-.035.234-.496.031-.598.164-.367.035-.367-.098.102-.5-.133-.469-.43-.133-.398.168-.098.402-.262.266-.434-.23-.434-.23.133-.301 0-.301-.332 0-.332.133-.102.297-.168.199-.098-.199-.266-.168-.164.066-.199.199-.164.238-.266.203 0-.234.035-.402.066-.633-.133-.535-.234.203-.434.301-.73.102-.633.434.102.535.066.637-.031.168.066.301.332.336.199.434-.297.301-.297.504.066.398-.102.5-.664.199-.73.332.066.57-.031.672-.266.164-.633.398-.562.336-.465.637.031.332.031.602c0 .086-.008.156-.027.207-.039.113-.125.148-.238.125-.082-.016-.312-.117-.535-.125s-.426.074-.461.426v.035c.133.039.215.082.234.148s.008.395.164.566.434.297.59.348.227.082.309.156.234.082.273.082a.37.37 0 0 1 .199.063c.078.047.207.098.293.074s.191-.043.223-.043.141-.051.086-.082-.262-.168-.137-.211.152-.066.125-.125-.051-.184.043-.168.125.043.148.086.074.074.117.066.082.023.098.051.211.191.262.082.105-.32.23-.395.164-.074.223-.117.145-.082.219-.059.082.027.164 0 .219-.141.266-.191.094-.066.168-.059.164.02.23-.031.117-.043.156-.035.16.035.234.027.133-.027.207.039.094.066.234.102.375.133.414.199.25.293.266.453.027.266.078.336.137.156.137.156l-.008.008.02-.008.039-.004.016-.016v-.047l-.027-.055-.004-.043.02-.031.07-.234.066-.141.004-.031-.004-.02-.027-.059.016-.105-.031-.102-.008-.16-.023-.027-.051-.035v-.02l.063.023h.023l.016-.008.004-.027.008-.215-.012-.02-.039-.039-.016-.059-.039-.02-.023.031-.035.152-.02.039-.008-.023-.004-.09-.02-.039-.016-.008-.043.02-.027.055-.012.016h-.016l-.016-.039.008-.074-.012-.043-.008-.016-.023-.004-.023.008-.023.027-.016.047-.012.148-.023.004-.043-.039-.059-.105-.066-.09v-.023l.012-.016.039-.012.027-.027.066-.137.031-.027h.02l.047-.035.023-.031.016-.051.004-.008-.023-.004-.035-.02-.074-.008-.074-.016-.078-.039-.023-.031.004-.07.051-.289-.008-.117-.027-.191.004-.102.016-.047.023-.031.051-.035.055-.02.031-.027v-.023l-.016-.012-.047-.039-.008-.031-.004-.07.035-.113.043-.078.055-.059.004-.027-.07-.141-.004-.047.012-.027.016-.008.016.004.027.031.02.059.016.012.098.004.008.016.02.082.043.043-.008.047-.047.063-.012.051-.02.066-.008.051.031.051.02.035-.008.051-.031.063v.047l.02.031.094.078.059.078.063.121.008.066-.023.098.008.047h.016l.012-.02.02-.043.016-.012.105-.031.035-.023.008-.023-.004-.066.008-.016.02-.008.055.031.023.004.02-.004.031-.02.043-.043.105-.055.027-.023.008-.027-.016-.031-.035-.023-.078-.008-.035-.016-.105-.141-.016-.039v-.047l.012-.051.023-.031.117-.039.086-.039h.074l.023-.004.039-.07.023-.008.02.008.012.016-.004.051.012.02.082.055.02.031.016.063.023.008.012-.02-.012-.066.008-.051-.07-.18.008-.129.035-.109.012-.012.02-.004.012.043-.023.117.008.023.031.02.031.078h.008l.074-.164.004-.031-.035-.047v-.043l.012-.102.027-.031.035-.016h.023l.164.043.039.043.066.125.047.059h.02l.016-.078.008-.02.02-.012.059.051.02-.004.012-.02v-.051l.02-.039.004-.02-.035-.098.063-.109.016-.129.02-.035h.023l.031.051.035.07-.008.047-.035.051v.023l.039.039.02.059-.023.121h.004l.105-.074.238-.191.086-.051.047-.035.066-.109.074-.09.121-.234.117-.168.063-.07.129-.121.07-.074.078-.055.148-.156.176-.156.043-.078.039-.164.016-.043.031-.027.051-.027.027-.027.059-.109.051-.125.035-.055.055-.059.09-.137.137-.141.023-.035.094-.203s.004-.035.012-.07l.027-.098v-.027l-.016-.031-.086-.039-.039-.039-.008-.039.008-.027.012-.008.047.004.148.086.027.004.027-.09.035-.035.152-.109.02-.047.059-.246.047-.094v-.051l-.043-.062-.008-.141-.027-.027-.062-.031-.023-.027-.02-.059.027-.055.055-.055.086-.145.027-.027.043-.012.027.004.055.031.027.004h.027l.074-.023.176-.086.09-.07.039-.023.039-.004.047.016h.027l.105-.086.125-.059.16-.051.082-.012.164.004.102-.027.074-.035.082-.008h.055l.051.012.168.066.102.027.098.004.18.031.043-.004.086-.047.066-.039.098-.027.059-.027.023-.027.023-.102.027-.031.066-.039.066-.07.074-.168.047-.07.023-.066-.016-.039-.012-.012-.07-.027-.09-.055-.023-.027-.02-.059-.008-.16-.035-.07.012-.016.027.004.039.039.016.039.027.125.016.035.078.035.07.066.027.008.02-.008.023-.027.016-.047v-.047l-.012-.039.004-.027.082-.023.047-.031.082-.059.02-.031.027-.059.035-.121.02.008.035.047v.051l-.066.113-.141.16-.031.094-.004.121-.016.047-.035.051-.07.063-.023.039-.004.102-.035.059-.023.031-.07.035-.027.027-.023.063.004.047.008.016.043.016.094.008.098.023.059.035.039.039.043.02h.047l.016-.016.016-.039.016-.078.02-.047.023-.035.047-.031.113-.035h.051l.164.055.082.035.113.066.047.008.094-.008.098.051.047.016h.023l.184-.082.141-.074.055-.051.023-.066-.051-.109-.016-.105.008-.051.035-.148-.016-.062-.02-.055-.039-.043-.059-.051-.043-.066-.016-.062v-.066l.027-.102.016-.043.031-.055.047-.035.156-.078.031-.023.012-.016.086-.215.031-.121.012-.078-.008-.02-.039-.023-.051.023-.035.02-.055.023h-.043l-.043-.016-.027-.027-.012-.039.004-.102.02-.043.117-.164.035-.055.004-.027-.004-.02-.012-.012-.023-.008-.039.008-.113.078-.031.016-.105-.012-.035-.02-.043-.043-.035-.094.004-.098.035-.086.086-.141.012-.039-.004-.07-.023-.059-.066-.062-.098-.027-.023-.008-.02-.035-.008-.039.031-.137.008-.102-.012-.043-.051-.082-.07-.043-.125-.031-.09-.055-.051-.059-.012-.059.008-.055.023-.043.023-.031.055-.02.016.016-.02.145.016.059.027.027.039.02.188.059.074.039.02.035.012.039-.02.203.004.043.02.039.004.016.047.039.109.047.043.043.016.031.02.105-.008.105-.043.113-.059.117-.008.051.004.02.031.027.047.016.039.004.094-.039.086-.016.047.008.074.02.039.039.008.043-.023.043-.156.176-.023.07.008.043.02.031.047.012.066-.004.063-.02.066.012.047.043.012.059-.012.109-.059.215-.043.113-.027.059-.098.098-.047.066-.02.098.004.188.023.055.027.082.02.031.066.074.008.016.004.168.082.219.113.16.082.063.043.016.051.012.09-.012.027.004.043.016.055.035.027.031.031.047.031.188.031.031h.023l.012-.012.066-.074.035-.027.051-.02.082-.012.035-.02.055-.086.016-.012.023-.012.047.012.031.023.133.148.07.063.039.023.074.012.18-.012.102-.027.082-.043.141-.102.16-.086.035-.016.063-.043.074-.035.039-.008.051.004.055-.027.234-.164.02-.008h.023l.027.027-.105.145-.07.07-.055.027-.105.023-.055.023-.078.055-.164.066-.047.035-.086.105-.055.027-.094.066-.043.07-.016.105.016.031.055.035.008.016-.008.027-.031.023-.137.074-.105.094-.066-.004-.082-.016-.043-.016-.16-.027-.059-.031-.078-.082-.062-.031-.074-.008-.062.012-.039.02-.043.004-.047-.012-.203-.094-.027-.008-.043.004-.055.023-.078.023-.109.012-.102-.016-.137-.047-.051-.008-.148-.008-.129-.02-.086.012-.047-.004-.035-.016-.035-.047-.133-.031-.059-.027-.086-.062-.082-.035-.047-.004-.086.016-.109.004-.043.012-.113.043-.117.004-.062.012h-.094l-.074-.016-.066-.02-.051-.039-.113-.133-.051-.035-.016.012.105.164.043.039.129.078.117.172.051.059.066.051.09.051.027.031.02.031.023.051.039.145.02.035.02-.012.008-.023.004-.242.012-.051.035-.047.031-.016h.023l.125.008.039-.016h.094l.102.047.09.027.188.082.109.039.156.086.027.004.039-.012.066-.039h.027l.016.012.09-.008.023.004.047.059.027.055.031.047.078.086.047.082.012.043-.023.039-.102-.008-.039.012-.035.016-.008.023-.008.047-.02.043-.086.051-.086.039-.187.039h-.145l-.129-.016-.094.004-.035.012-.082.055-.109.051-.047.035-.012.043.039.047.035.031.047.074.016.016.066.023.098.012.129-.02.078.008.039-.008.016-.039-.02-.035s-.008-.016-.02-.031h.203l.035.023.023.027.043.09.035.02.102.02.059.031.09.027.043-.004.059-.012.027.004.031.012.055.055.047.059.047.063.035.07.027.027.098.051.078.016.121.055.055.008.059-.016.07.02.039-.012.082-.051h.02l.008.016-.004.027-.086.078-.008.023.055.105.008.094.016.055.023.031.102.02.195.078.301.094.418.094.074.004.055-.023.063-.082.07-.023.051-.008.07-.039.039-.004.094-.043.039-.008h.023l.125.02.051-.027.063-.004.059-.027.094-.062.125-.027.168.004.129.051h.023l.059-.016.031.008.055.027.012.016.047.016.043-.004.082-.051.039-.016h.047l.141.004.109-.008.051-.031.027-.035.012-.039-.008-.066-.043-.066.008-.012.016-.012.16.051.145.133.051.012.039-.008.082-.051.137-.102.066-.043.008-.016-.004-.094.012-.047.051-.031.027-.055.02-.07.027-.031.016.008v.043l-.02.039-.012.105.031.16.004.047-.016.047-.043.063-.008.016.016.039.023-.008.105-.082.035-.016.023-.004h.023l.051.039.148.063.023.023.004.02-.008.051-.027.035-.062.039-.023.035.02.008.043.012.023-.008.051-.09.035-.02.184.055.035.051.016.086.078.059.055.082.035.02h.051l.078-.055.047-.004.125.07.02.008.02-.004.016-.02-.012-.016-.07-.113v-.023l.023-.043.023-.031.035-.02.148.012.016-.008.004-.02-.035-.043-.07-.023-.031-.027-.008-.039.016-.043.043-.043.055-.02.012-.016.023-.066.051-.027.016-.012.027-.066.016-.008h.023l.055.031.023.035.059.145.066.094.043.09v.047l-.004.023-.047.035-.023.031-.004.027.004.141.031.07.047.035.012.016v.027l-.012.016-.062.043-.02.039.078.109.016.063-.008.027-.074.094-.016.047.004.016.012.016.047-.004.07-.098.031-.016h.051l.113.031.184.023.059.035.043.039.02.031.004.023-.008.02-.016.012-.137.008-.078.055-.02.008-.051-.004-.039.016-.008.012-.004.051.023.078.016.086-.008.051-.027.027-.059.016-.043-.016-.031-.02-.066-.074-.039-.02-.023-.004-.059.016-.16.074-.031.031-.016.078-.027.031-.035.016-.039.012-.094.004-.016-.008-.066-.047-.047-.008-.027.02-.023.043-.016.012h-.09l-.109.047-.113.145-.059.063-.059.047-.187.133-.258.133-.059.023h-.027l-.039-.023-.035-.043-.031-.023-.066-.027-.035-.023-.012-.035-.008-.047-.027-.023-.027.027-.016.051.004.02.023.055.063.047.027.035v.02l-.012.02-.152.051-.227.141-.289.133-.293.156-.059.023-.16.105-.121.121-.141.113-.059.078v.039l.047.059.008.02.004.023-.031.059-.031.02h-.023l-.105-.02-.066-.027-.074-.004-.031.027-.082.145-.059.055-.105.047-.164.027-.055.031-.086.078-.191.125-.098.066-.055.055-.156.246-.043.137.012.039.059.078.02.039-.004.098.008.043.02.031.012.012.109.02s.012.004.02.012c.016.008.039.016.039.016l.078.066.047.008.156-.008.023.004.074.039.027.008.047-.004.031-.016.055-.094.023-.031.047-.035.051-.027.039-.043.051-.031.066-.008.18.016.137-.035.121-.004.098.012.262.07.117.078.016.02.043.031.164.098.238.191.211.227.035.023.098.117.117.105.047.016.121.008.039.016.066.051.059.078.035.023.074.016.039-.008.047-.031.063-.086.043-.008.07.008.035-.016.078-.059.07-.008.043.004.051.012.09.059.219.18.086.031.074.039.125.105.02.027.043.039.047.063.023.055.047.203.004.145.008.063.008.016.023.027.039.063.059.145.059.293v.07l-.047.168v.07l-.02.074-.012.023-.035.016-.109.016-.031.016-.023.031-.051.094-.023.105-.055.156v.023l.031.094s.004.008.004.023c.008.043.016.125.016.125l.059.129.027.098v.051l-.039.121-.078.121-.02.07.016.035.023.031.016.012.098.008.023.008.055.035.008.02-.027.027-.066.016-.113.004-.082.02-.051-.012-.117.035-.098-.004-.031.055-.066.008-.039.07-.035.02h-.02l-.02-.027-.031-.027-.051-.004-.012.043.004.016.059.082.082.086.176.133.066.074.055.031.102.043.156.082.047.012h.016l.121-.059.047.004.066.051.086.129.051.063.004.02-.012.07.008.02.023.031.051.023.152.035.063.051.047.055.047.035.051.012.125-.008.156.031.059-.023.102-.051.063-.012.07.012.172.059.125.031.125-.016.152-.082.105-.023.027-.02.039-.051.16-.066.059-.016.164-.074.047-.035.035-.047.117-.23.039-.043.094-.035.117-.004.035-.016.039-.074.059-.184.023-.031.059-.004.125.023h.023l.051-.031.012-.016.02-.043.008-.078.02-.066.07-.133.082-.25.117-.172.074-.191.047-.074.039-.047.027-.023.074-.027.051-.043c.02-.02.039-.031.039-.031l.098-.066.051-.027.055-.008.152-.047.074-.031.184-.043.078-.051.086-.113.113-.074.055-.023.125-.027.105-.012.086.008.086.031h.02l.039-.016.047-.062.035-.012.023.008.047.039.043.016h.043l.047-.035.031-.062.031-.043.035-.023.141-.031.102.004.055.027.16.172.031.051.031.023.074.016h.02l.039-.02.059-.051.035-.074.027-.094.035-.203.02-.07.047-.098.066-.074.074-.059.074-.023.086-.02.055-.027.012-.016.043-.172.027-.059.051-.027.043-.004.098.023h.023l.078-.059.043.016.125.105.023.004.012-.012.012-.02-.008-.043-.051-.086-.004-.02.004-.039.016-.043.027-.031.051-.027.184-.012.027-.027.008-.02-.004-.023-.031-.023-.094-.031-.039-.035-.004-.043.004-.055.012-.047.023-.066.047-.066.039-.043.238-.168.113-.102.059-.02.066-.004.043-.012.133-.004.215.035.137.043.133.074.109.035.055.035.137.09.082.039.148.203.066.141.035.023.074.012.219-.062.117-.062.055.004.059.031.055.008.059-.004.031-.027.023-.035.016-.043.02-.078.031-.051.031-.031.051-.02h.23l.02.008.078.063.063.023.188.027h.047l.148.031h.023l.023-.004.027-.023.023-.031.023-.07.027-.059.047-.035.063-.016.129-.004.074.004.152-.016.156-.105.125-.059.043-.035.02-.043-.004-.047-.09-.094-.086-.125-.062-.125-.008-.109.008-.223.008-.066c.008-.031.012-.066.012-.066l.027-.066.016-.074-.012-.086v-.047l.008-.051.023-.031.023-.008.16-.043.051-.027.008-.02-.004-.039-.07-.098-.008-.066.008-.023.02-.039.035-.023.035-.012.09-.004h.047l.031.004.098.043.051.008.113-.008.074-.023.023-.027.02-.047-.02-.199-.074-.113-.023-.055-.043-.066-.035-.023h-.066l-.133.113-.047.008-.023-.008-.039-.02-.086-.102c-.055-.09-.137-.086-.254-.027s-.168.051-.301-.023-.133-.031-.234.043-.02-.113-.023-.133-.117-.02-.184 0-.332.082-.48.066-.141.066-.25.133-.113.152-.113.152l-.07.195-.035.078-.055.063-.055.02-.039.008-.152-.008-.133-.047-.043-.039-.156-.078-.121-.082-.043-.055-.016-.039-.023-.062v-.043l.008-.016.059-.02.016-.016.008-.016-.008-.039-.07-.047-.055-.004h-.043l-.035.023-.027.059-.027.18-.043.137-.047.066-.043.047-.043.035-.031.027-.004.023.004.043-.004.02-.043.039-.043.102-.012.02-.051.031-.07.035-.312.094-.258.133-.137.039-.059.016-.047.004-.07-.02-.059-.031-.098-.074-.062-.078-.078-.02-.113-.062-.238-.18-.07-.07-.18-.25-.105-.117-.105-.137-.109-.164-.117-.152-.055-.105-.07-.094-.113-.129-.152-.199-.074-.09-.086-.129-.066-.148-.039-.043-.043-.09-.051-.078-.055-.055-.031-.051-.098-.207-.09-.148-.043-.09-.082-.258-.078-.156-.09-.121-.07-.141-.02-.059-.031-.191-.027-.125-.121-.277-.035-.211-.031-.363-.055-.148-.012-.059v-.098l.027-.062.035-.047.063-.051.059-.023.047-.027.051-.059.027-.156.008-.02.012-.016.016-.004h.016l.031.031.027.117.02.012.023.004.047-.004.137-.074.238-.07.031-.02.086-.07.133-.145.102-.094.055-.09.059-.16.039-.07.07-.07.07-.102h.289v.031.094l.016.059.031.027.082.016.055.031h.023l.016-.016.055-.086.043-.043.027.012-.004.051-.039.117-.016.039-.043.043-.105.078-.023.039-.004.125-.066.07-.016.027-.062.148-.09.137-.062.148-.02.035-.043.039-.047.035-.074.035-.176.055-.238.09-.062.051v.027l.039.039-.027.027-.098.031-.031.023-.02.07-.082.055-.027.027-.004.047.012.016.035.023.047.004.035-.012.094-.066.027-.004.066-.035.133-.082.105-.047.07-.035.121-.094.059-.059.105-.148.074-.168.145-.293.074-.121.066-.102.25-.484.066-.105s.012-.008.02-.023l.035-.035.086-.078.098-.098.059-.086.063-.117.063-.078.066-.039.113-.027.074-.031.156-.09.023-.023.102-.066.023-.031.074-.059.121-.195.066-.078.086-.145.105-.121.059-.051.07-.035.031-.047.094-.074.105-.051.25-.152.063-.012h.07l.172-.031.133-.016.094-.035.082-.051.035-.012.047.004.121.059.055.008.043-.004.059-.02.129-.062.043-.004.047.004.059.031.016.012.051.086.063.07.004.047-.008.074.016.035.023.008.008-.016.016-.078.027-.035.016-.004.023.012.004.012.004.051-.012.051.016.004.023-.039.008-.125.051-.098.055-.09.09-.105.063-.102.09-.105.16-.105.094-.039.117-.039.082-.051.074-.062.055-.023h.188l.066-.008.027-.023.039-.082.043-.031.078.004.066.02.191-.039h.043l.129.031.047.012.074.066.063.074.066.051.043.063.012.039.008.043-.016.129-.023.07-.039.074-.012.047v.051l-.023.039-.016.012-.023-.008-.07-.031.031.051.035.02.016.012.047-.008.035-.047.105-.355.027-.086.027-.148.043-.113.055-.121.008-.051-.039-.066v-.02l.008-.023.016-.008.051.004.059-.02.023-.035.027-.062.031-.055.027-.027.082-.051.078-.023.078-.094.047-.035.07-.031.09-.07.227-.121.16-.066.07-.039.063-.047.086-.078.066-.039.113-.039.066-.004.039.016.137.102.125.047.016.016.004.043-.039.09v.023l.016.016.02.008.016-.016.094-.137.152-.352.02-.035.07-.074.137-.266.117-.172.086-.109.094-.172.063-.051.031-.012.047-.008.121.008h.023l.164.047.207-.008.172.016.113-.043.125-.059.133-.078.094-.031.152-.02.18.055.02-.004.078-.059h.035l.129.051.098.02.07-.035.055-.062.035-.012h.023l.117.082.133.07.02.035-.008.055-.012.039-.055.063-.008.023-.012.051.023.004.031-.023.063-.074.055-.098.063-.082.121-.191.055-.059.016-.012c0-.008-.051-.332-.051-.5s.117-.281.266-.363.051-.234.035-.32-.133-.016-.332 0 .133-.52.18-.684-.031-.734-.031-.902c0-.086-.035-.199.199-.219.117-.008.168-.031.184-.098s.031-.086.184-.102.73-.234.746-.301.031-.102.098-.102a1.02 1.02 0 0 0 .336-.117c.031-.02.063-.145.09-.297l.109-.602c.051-.152.098-.168.246-.203s.367-.098.516-.066.93-.035 1.047-.066.02-.066.234.035.383.082.465.016.199-.117.531-.168.348.035.613.016.234-.117.215-.234 0-.316.02-.434-.098-.25-.184-.352.133-.148.215-.215.035-.117 0-.336c0-.012-.004-.023-.004-.035zM5.164 25.02c-.012.016-.023.031-.039.047.016-.016.027-.031.039-.047zm42.992 11.5l.07.027.051.035.074.07.137.168.02.027.094.266.023.031.105.063.047.375.02.031.039-.016.023-.062-.008-.398-.098-.023-.016-.012-.02-.035.008-.031.094-.133h.039l.07.094.16.043.02.016.031.023.031.066.027.031.176.066.094.07.027.008.16-.105.039-.148.066-.047.031.027.059.098.039.047.016.035-.016.07-.074.324-.172-.152-.07.133-.02-.004-.012-.043.035-.082v-.047l-.02-.012h-.02l-.035.016-.043.074-.094.102-.008.141.125.172.008.016-.008.035-.164-.062-.09.137-.008.027.008.066.055.031.168-.023.051.012.016.027.012.047-.031.094-.004.051.043.039.035-.012.012-.012.039-.117.023-.039.035-.012.168.02.082-.02.027-.027.039-.086.156-.402.008-.023-.012-.137-.039-.094-.012-.035-.012-.23.012-.039.305-.094.133.066.211.184.035.117.023.152-.012.012-.02.012-.047-.004-.035-.02-.113-.113-.055.016-.145.07-.082.016-.016.039.02.035.105.043.043.16.164.145.043.063.039-.004.027-.031.012-.102.008-.023.016-.012h.016l.02.012.086.156.031.07.031.332.012.063.063.074.027.254.012.09-.082.25.016.043.031.02h.023l.02-.004.082-.082.047-.137.027-.027.051.004.082.063.07.133.043.164.094.191.117.156.176.375.141.129.027.074.16.223.129.168.047.066.234.281.074.086.191.246.234.355.137.09.098.168.035.023.074.02.02.016.082.109.031.023.02.012h.094l.027.027.063.023.055.039.012.031-.301.16-.035-.02-.031-.027-.051-.082-.238-.086-.117-.059-.148-.035-.062-.023-.246-.117-.207.043-.035-.039-.234-.168-.02-.035-.008-.066-.023-.055-.129-.121-.012-.016.004-.043.027-.031.23-.109.063-.078.016-.066-.145-.488-.141-.262-.004-.016-.027-.027-.176-.113-.02-.035-.09-.199-.043-.012h-.023l-.184.035-.047-.031-.18-.16-.078-.012-.012-.02.027-.035.121-.156-.012-.016-.043.008-.254.148-.145-.059-.098-.012-.09.039-.02-.008.004-.023.012-.023.102-.117.02-.309-.012-.035-.187.043-.168.102-.043.008-.012-.008.02-.094.039-.039.02-.043.02-.172.07-.043.211-.039.016.012.02-.016.012-.051-.012-.133-.055-.062-.055.098-.039.039-.344.148-.043.043-.098.16-.164.164-.09.012-.078.09-.117.031-.09.039h-.023l-.012-.02.016-.039.059-.043.113-.082.016-.113.039-.047.094-.102.012-.02.008-.121.027-.023.137-.035.051-.035.137-.348-.012-.039-.012-.016-.117-.059-.23-.074h-.023l-.02.004.004.02.141.188.012.039-.02.039-.012.016-.023.004-.07-.02h-.023l-.031.016-.031.059-.059.156-.02.031-.035.023-.043-.012-.047-.066-.039-.07-.004-.082.027-.117-.047-.004-.109.051-.016.012-.02.039-.023.102v.051l.023.148-.008.051-.039.004-.027-.098.016-.078-.008-.023h-.016l-.02.012-.039.078-.02.008-.012-.008.012-.082-.004-.023-.008-.016-.062.078-.031.02-.016-.016.004-.02.074-.207.102-.031.02-.043.027-.055-.051-.109-.141-.062-.051-.035v-.027l.035-.016.059-.008v-.023l-.09-.145-.043-.043-.043-.008-.02.004-.016.016-.016.043-.016.102-.031.023-.078-.012-.082-.059.012-.191-.012-.043-.035-.008-.012.02-.031.09-.066.137-.102.02-.012-.012v-.051l.035-.043.012-.027-.004-.023-.027-.023-.227-.031-.047.004-.023-.004-.168-.066.008.023.004.016.063.051.047.066.191.098.035.023.027.051.031.215-.004.047-.008.023-.043.035-.156.039-.035-.004-.031-.027-.109-.184.008-.027.02-.004.082.039.043-.008.07-.129-.012-.02-.086-.055-.266-.219-.133-.113-.086-.109-.043-.043-.289-.039-.047.031-.008.027.004.039.027.031.047.012h.094l.051.012.016.016-.016.043-.082.102.07.07.02.035-.008.023-.043.043-.039.012-.043-.008-.047-.039-.02-.031-.039-.09-.02-.031-.09-.004-.066.094-.043.004-.031.027h-.016l-.012-.012.012-.047v-.023l-.012-.051.07-.066-.004-.051-.004-.02-.102-.086-.086-.105-.004-.027.008-.02.051-.113-.039-.141-.031-.023-.07-.016-.074-.051-.016.012-.004.285-.035.043h-.047l-.059-.074-.172-.094-.102-.25-.008-.02-.043-.152.043.008.055.031h.027l.063-.141.012-.02.078-.016.043-.047.016-.004.043.016.094.098.191.047.055-.023.039-.047.016-.008.023.008.055.059.031.016.051.008.172.008.035.023.031.027.023.051.082.184.113.109.051.086.02.004.02-.012.055-.117.043.004.051.109.02.035.016.012h.027l.184-.016-.156-.246-.039-.02-.055-.09h.02l.063.023h.027l.023-.023h.168l-.004.23h.023l.145-.152v-.109l-.051-.016-.016-.008-.137-.187-.012-.043.02-.293.016-.008h.02zm0 0" stroke="none" fill="rgb(100%,83.529412%,0%)" fill-opacity="1"/></g></defs><use xlink:href="#D" mask="url(#B)"/><use xlink:href="#G" mask="url(#E)"/></svg>
