<svg width="24" height="24" viewBox="0 0 24 24" fill="none" xmlns="http://www.w3.org/2000/svg">
  <path d="M17 2H7C5.89543 2 5 2.89543 5 4V20C5 21.1046 5.89543 22 7 22H17C18.1046 22 19 21.1046 19 20V4C19 2.89543 18.1046 2 17 2Z" stroke="current" stroke-width="1.5" stroke-linecap="round" stroke-linejoin="round"/>
  <path d="M12 19H12.01" stroke="current" stroke-width="1.5" stroke-linecap="round" stroke-linejoin="round"/>
  <path d="M12.0579 14.5166L12.0579 7.59912" stroke="current" stroke-width="1.5" stroke-linecap="round" stroke-linejoin="round"/>
  <path d="M15.5165 11.0579L12.0577 7.59912L8.59902 11.0579" stroke="current" stroke-width="1.5" stroke-linecap="round" stroke-linejoin="round"/>
  <path d="M9 3H15V3C15 3.55228 14.5523 4 14 4H10C9.44772 4 9 3.55228 9 3V3Z" fill="current"/>
</svg>
