<svg viewBox="0 0 18 14" xmlns="http://www.w3.org/2000/svg">
  <path
    stroke="none"
    d="M4.64551 13.4082C2.46484 13.4082 0.783203 10.8447 0.783203 7.06445C0.783203 3.27734 2.46484 0.727539 4.64551 0.727539C6.82617 0.727539 8.50781 3.27734 8.50781 7.06445C8.50781 10.8447 6.82617 13.4082 4.64551 13.4082ZM13.3545 13.4082C11.1738 13.4082 9.49219 10.8447 9.49219 7.06445C9.49219 3.27734 11.1738 0.727539 13.3545 0.727539C15.542 0.727539 17.2168 3.27734 17.2168 7.06445C17.2168 10.8447 15.542 13.4082 13.3545 13.4082ZM3.26465 9.42285C2.85449 9.42285 2.49219 9.32715 2.20508 9.14258C2.60156 11.0361 3.55176 12.2188 4.64551 12.2188C6.11523 12.2051 7.31152 10.1133 7.31152 7.06445C7.31152 3.99512 6.11523 1.91016 4.64551 1.91699C3.40137 1.93066 2.34863 3.45508 2.06836 5.80664C2.38281 5.56738 2.79297 5.43066 3.26465 5.43066C4.41309 5.43066 5.17188 6.2373 5.17188 7.42676C5.17188 8.62988 4.41309 9.42285 3.26465 9.42285ZM11.9668 9.42285C11.5566 9.42285 11.1943 9.32715 10.9004 9.14258C11.3037 11.0293 12.2539 12.2119 13.3545 12.2119C14.8174 12.2051 16.0137 10.1201 16.0137 7.06445C16.0137 4.00879 14.8174 1.92383 13.3545 1.92383C12.1035 1.93066 11.0439 3.45508 10.7637 5.81348C11.085 5.56738 11.4951 5.43066 11.9668 5.43066C13.1152 5.43066 13.8877 6.2373 13.8877 7.42676C13.8877 8.62988 13.1152 9.42285 11.9668 9.42285ZM2.72461 7.1875C2.96387 7.22852 3.18945 7.0166 3.24414 6.71582C3.30566 6.42188 3.16211 6.13477 2.90918 6.08691C2.67676 6.0459 2.4375 6.25781 2.38281 6.55859C2.32813 6.85938 2.47852 7.14648 2.72461 7.1875ZM11.4268 7.1875C11.666 7.22852 11.8916 7.0166 11.9531 6.71582C12.0078 6.42187 11.8643 6.12793 11.6182 6.08691C11.3789 6.0459 11.1465 6.25781 11.0918 6.55859C11.0303 6.85937 11.1875 7.13965 11.4268 7.1875Z"
  />
</svg>
