<svg viewBox="0 0 24 24" xmlns="http://www.w3.org/2000/svg">
  <path
    stroke="none"
    d="M7.64551 18.4082C5.46484 18.4082 3.7832 15.8447 3.7832 12.0645C3.7832 8.27734 5.46484 5.72754 7.64551 5.72754C9.82617 5.72754 11.5078 8.27734 11.5078 12.0645C11.5078 15.8447 9.82617 18.4082 7.64551 18.4082ZM16.3545 18.4082C14.1738 18.4082 12.4922 15.8447 12.4922 12.0645C12.4922 8.27734 14.1738 5.72754 16.3545 5.72754C18.542 5.72754 20.2168 8.27734 20.2168 12.0645C20.2168 15.8447 18.542 18.4082 16.3545 18.4082ZM6.26465 14.4229C5.85449 14.4229 5.49219 14.3271 5.20508 14.1426C5.60156 16.0361 6.55176 17.2188 7.64551 17.2188C9.11523 17.2051 10.3115 15.1133 10.3115 12.0645C10.3115 8.99512 9.11523 6.91016 7.64551 6.91699C6.40137 6.93066 5.34863 8.45508 5.06836 10.8066C5.38281 10.5674 5.79297 10.4307 6.26465 10.4307C7.41309 10.4307 8.17188 11.2373 8.17188 12.4268C8.17188 13.6299 7.41309 14.4229 6.26465 14.4229ZM14.9668 14.4229C14.5566 14.4229 14.1943 14.3271 13.9004 14.1426C14.3037 16.0293 15.2539 17.2119 16.3545 17.2119C17.8174 17.2051 19.0137 15.1201 19.0137 12.0645C19.0137 9.00879 17.8174 6.92383 16.3545 6.92383C15.1035 6.93066 14.0439 8.45508 13.7637 10.8135C14.085 10.5674 14.4951 10.4307 14.9668 10.4307C16.1152 10.4307 16.8877 11.2373 16.8877 12.4268C16.8877 13.6299 16.1152 14.4229 14.9668 14.4229ZM5.72461 12.1875C5.96387 12.2285 6.18945 12.0166 6.24414 11.7158C6.30566 11.4219 6.16211 11.1348 5.90918 11.0869C5.67676 11.0459 5.4375 11.2578 5.38281 11.5586C5.32813 11.8594 5.47852 12.1465 5.72461 12.1875ZM14.4268 12.1875C14.666 12.2285 14.8916 12.0166 14.9531 11.7158C15.0078 11.4219 14.8643 11.1279 14.6182 11.0869C14.3789 11.0459 14.1465 11.2578 14.0918 11.5586C14.0303 11.8594 14.1875 12.1396 14.4268 12.1875Z"
  />
</svg>
