<svg viewBox="0 0 32 32" xmlns="http://www.w3.org/2000/svg">
<path d="M11.1719 27.7891C10.1016 27.7891 9.14844 27.6992 8.3125 27.5195C7.48438 27.3477 6.76953 26.957 6.16797 26.3477C5.55859 25.7539 5.16797 25.043 4.99609 24.2148C4.82422 23.3789 4.73828 22.4258 4.73828 21.3555V11.6875C4.73828 10.6328 4.82422 9.69141 4.99609 8.86328C5.17578 8.03516 5.56641 7.32422 6.16797 6.73047C6.76953 6.12109 7.48438 5.73047 8.3125 5.55859C9.14844 5.37891 10.0938 5.28906 11.1484 5.28906H19.457C19.2461 5.63281 19.0664 6 18.918 6.39062C18.7695 6.77344 18.6602 7.17578 18.5898 7.59766H10.8789C10.2617 7.59766 9.68359 7.65234 9.14453 7.76172C8.60547 7.86328 8.17188 8.07812 7.84375 8.40625C7.52344 8.72656 7.30859 9.15625 7.19922 9.69531C7.09766 10.2266 7.04688 10.8008 7.04688 11.418V21.6719C7.04688 22.2891 7.09766 22.8633 7.19922 23.3945C7.30859 23.918 7.52344 24.3438 7.84375 24.6719C8.17188 24.9922 8.60156 25.207 9.13281 25.3164C9.67188 25.4258 10.2461 25.4805 10.8555 25.4805H21.1328C21.7422 25.4805 22.3125 25.4258 22.8438 25.3164C23.375 25.207 23.8047 24.9922 24.1328 24.6719C24.4609 24.3438 24.6758 23.918 24.7773 23.3945C24.8867 22.8633 24.9414 22.2891 24.9414 21.6719V16.75C25.3086 16.8203 25.6914 16.8555 26.0898 16.8555C26.4805 16.8555 26.8672 16.8203 27.25 16.75V21.3555C27.25 22.4258 27.1602 23.3789 26.9805 24.2148C26.8086 25.043 26.4219 25.7539 25.8203 26.3477C25.2188 26.957 24.5 27.3477 23.6641 27.5195C22.8281 27.6992 21.875 27.7891 20.8047 27.7891H11.1719ZM10.8203 14.7695C10.3203 14.7695 9.91016 14.6133 9.58984 14.3008C9.27734 13.9883 9.12109 13.582 9.12109 13.082V11.2305C9.12109 10.7227 9.27734 10.3164 9.58984 10.0117C9.91016 9.69922 10.3203 9.54297 10.8203 9.54297H13.4102C13.9102 9.54297 14.3164 9.69922 14.6289 10.0117C14.9414 10.3164 15.0977 10.7227 15.0977 11.2305V13.082C15.0977 13.582 14.9414 13.9883 14.6289 14.3008C14.3164 14.6133 13.9102 14.7695 13.4102 14.7695H10.8203ZM9.89453 23.1484C9.68359 23.1484 9.50391 23.0742 9.35547 22.9258C9.20703 22.7773 9.13281 22.5977 9.13281 22.3867C9.13281 22.1758 9.20703 22 9.35547 21.8594C9.50391 21.7109 9.68359 21.6367 9.89453 21.6367H22.082C22.293 21.6367 22.4727 21.7109 22.6211 21.8594C22.7773 22 22.8555 22.1758 22.8555 22.3867C22.8555 22.5977 22.7773 22.7773 22.6211 22.9258C22.4727 23.0742 22.293 23.1484 22.082 23.1484H9.89453ZM26.1016 15.2031C25.2734 15.2031 24.4961 15.0469 23.7695 14.7344C23.043 14.4219 22.4023 13.9883 21.8477 13.4336C21.293 12.8711 20.8555 12.2266 20.5352 11.5C20.2227 10.7734 20.0664 9.99609 20.0664 9.16797C20.0664 8.33984 20.2227 7.5625 20.5352 6.83594C20.8555 6.10938 21.293 5.46875 21.8477 4.91406C22.4023 4.35156 23.043 3.91406 23.7695 3.60156C24.4961 3.28906 25.2734 3.13281 26.1016 3.13281C26.9297 3.13281 27.707 3.28906 28.4336 3.60156C29.1602 3.91406 29.8008 4.34766 30.3555 4.90234C30.9102 5.45703 31.3438 6.10156 31.6562 6.83594C31.9766 7.5625 32.1367 8.33984 32.1367 9.16797C32.1367 9.98828 31.9766 10.7656 31.6562 11.5C31.3438 12.2266 30.9062 12.8672 30.3438 13.4219C29.7891 13.9766 29.1445 14.4141 28.4102 14.7344C27.6836 15.0469 26.9141 15.2031 26.1016 15.2031ZM26.1016 12.9883C26.3438 12.9883 26.5352 12.9141 26.6758 12.7656C26.8242 12.6172 26.8984 12.4258 26.8984 12.1914V9.96484H29.125C29.3594 9.96484 29.5508 9.89453 29.6992 9.75391C29.8477 9.60547 29.9219 9.41016 29.9219 9.16797C29.9219 8.92578 29.8477 8.73438 29.6992 8.59375C29.5508 8.44531 29.3594 8.37109 29.125 8.37109H26.8984V6.14453C26.8984 5.91016 26.8242 5.71875 26.6758 5.57031C26.5352 5.42187 26.3438 5.34766 26.1016 5.34766C25.8594 5.34766 25.6641 5.42187 25.5156 5.57031C25.375 5.71875 25.3047 5.91016 25.3047 6.14453V8.37109H23.0781C22.8438 8.37109 22.6523 8.44531 22.5039 8.59375C22.3555 8.73438 22.2812 8.92578 22.2812 9.16797C22.2812 9.41016 22.3555 9.60547 22.5039 9.75391C22.6523 9.89453 22.8438 9.96484 23.0781 9.96484H25.3047V12.1914C25.3047 12.4258 25.375 12.6172 25.5156 12.7656C25.6641 12.9141 25.8594 12.9883 26.1016 12.9883Z" fill="currentColor"/>
</svg>
