<svg viewBox="0 0 14 17" xmlns="http://www.w3.org/2000/svg">
  <path
    stroke="none"
    d="M6.99316 10.8691C6.65137 10.8691 6.36426 10.582 6.36426 10.2471V3.36328L6.41895 2.34473L5.98828 2.84375L5.03125 3.86914C4.92188 3.99219 4.75781 4.05371 4.60059 4.05371C4.29297 4.05371 4.04004 3.82812 4.04004 3.50684C4.04004 3.34277 4.1084 3.21973 4.22461 3.10352L6.52148 0.895508C6.67871 0.731445 6.8291 0.676758 6.99316 0.676758C7.16406 0.676758 7.31445 0.731445 7.47168 0.895508L9.76855 3.10352C9.88477 3.21973 9.94629 3.34277 9.94629 3.50684C9.94629 3.82812 9.69336 4.05371 9.38574 4.05371C9.22852 4.05371 9.07129 3.99219 8.96191 3.86914L7.99805 2.84375L7.57422 2.34473L7.62891 3.36328V10.2471C7.62891 10.582 7.3418 10.8691 6.99316 10.8691ZM3.0625 16.3174C1.58594 16.3174 0.820312 15.5586 0.820312 14.1025V7.36914C0.820312 5.91309 1.58594 5.1543 3.0625 5.1543H5.04492V6.49414H3.14453C2.50879 6.49414 2.16016 6.82227 2.16016 7.48535V13.9863C2.16016 14.6494 2.50879 14.9775 3.14453 14.9775H10.8486C11.4775 14.9775 11.833 14.6494 11.833 13.9863V7.48535C11.833 6.82227 11.4775 6.49414 10.8486 6.49414H8.94824V5.1543H10.9307C12.4072 5.1543 13.1729 5.91309 13.1729 7.36914V14.1025C13.1729 15.5586 12.4072 16.3174 10.9307 16.3174H3.0625Z"
  />
</svg>
