<svg viewBox="0 0 17 21" xmlns="http://www.w3.org/2000/svg">
  <path stroke-width="0" d="M8.19043 13.9746C7.75098 13.9746 7.38184 13.6055 7.38184 13.1748V4.32422L7.45215 3.01465L6.89844 3.65625L5.66797 4.97461C5.52734 5.13281 5.31641 5.21191 5.11426 5.21191C4.71875 5.21191 4.39355 4.92188 4.39355 4.50879C4.39355 4.29785 4.48145 4.13965 4.63086 3.99023L7.58398 1.15137C7.78613 0.94043 7.97949 0.870117 8.19043 0.870117C8.41016 0.870117 8.60352 0.94043 8.80566 1.15137L11.7588 3.99023C11.9082 4.13965 11.9873 4.29785 11.9873 4.50879C11.9873 4.92188 11.6621 5.21191 11.2666 5.21191C11.0645 5.21191 10.8623 5.13281 10.7217 4.97461L9.48242 3.65625L8.9375 3.01465L9.00781 4.32422V13.1748C9.00781 13.6055 8.63867 13.9746 8.19043 13.9746ZM3.13672 20.9795C1.23828 20.9795 0.253906 20.0039 0.253906 18.1318V9.47461C0.253906 7.60254 1.23828 6.62695 3.13672 6.62695H5.68555V8.34961H3.24219C2.4248 8.34961 1.97656 8.77148 1.97656 9.62402V17.9824C1.97656 18.835 2.4248 19.2568 3.24219 19.2568H13.1475C13.9561 19.2568 14.4131 18.835 14.4131 17.9824V9.62402C14.4131 8.77148 13.9561 8.34961 13.1475 8.34961H10.7041V6.62695H13.2529C15.1514 6.62695 16.1357 7.60254 16.1357 9.47461V18.1318C16.1357 20.0039 15.1514 20.9795 13.2529 20.9795H3.13672Z" />
</svg>
