<svg viewBox="0 0 15 16" xmlns="http://www.w3.org/2000/svg">
  <path
    stroke="none"
    d="M0.874023 8C0.874023 4.13769 4.06641 0.938476 7.93555 0.938476C11.7979 0.938476 14.9971 4.13086 14.9971 7.99316C14.9971 11.8623 11.7979 15.0615 7.93555 15.0615C4.06641 15.0615 0.874023 11.8623 0.874023 8ZM5.03711 5.75781C5.03711 5.94238 5.10547 6.09961 5.22852 6.22949L7.01269 8L5.22852 9.78418C5.10547 9.90039 5.03711 10.0645 5.03711 10.249C5.03711 10.6113 5.32422 10.8984 5.69336 10.8984C5.86426 10.8984 6.02148 10.8301 6.14453 10.707L7.92871 8.92285L9.71973 10.7139C9.84961 10.8437 10 10.8984 10.1709 10.8984C10.5332 10.8984 10.8135 10.6182 10.8135 10.2627C10.8135 10.0781 10.752 9.93457 10.6221 9.80469L8.83105 8L10.6152 6.20898C10.7383 6.08594 10.7998 5.94238 10.7998 5.75781C10.7998 5.39551 10.5264 5.11523 10.1641 5.11523C9.99316 5.11523 9.83594 5.18359 9.71289 5.30664L7.92871 7.09082L6.1377 5.30664C6.01465 5.18359 5.85742 5.11523 5.69336 5.11523C5.32422 5.11523 5.03711 5.39551 5.03711 5.75781Z"
  />
</svg>
