<svg width="320" height="61" viewBox="0 0 320 61" fill="none" xmlns="http://www.w3.org/2000/svg">
<path d="M0.995595 8.40625V7.27273H7.74986V8.40625H5.02685V16H3.71435V8.40625H0.995595ZM11.098 16.1321C10.4844 16.1321 9.94886 15.9915 9.49148 15.7102C9.03409 15.429 8.67898 15.0355 8.42613 14.5298C8.17329 14.0241 8.04687 13.4332 8.04687 12.7571C8.04687 12.0781 8.17329 11.4844 8.42613 10.9759C8.67898 10.4673 9.03409 10.0724 9.49148 9.79119C9.94886 9.50994 10.4844 9.36932 11.098 9.36932C11.7116 9.36932 12.2472 9.50994 12.7045 9.79119C13.1619 10.0724 13.517 10.4673 13.7699 10.9759C14.0227 11.4844 14.1491 12.0781 14.1491 12.7571C14.1491 13.4332 14.0227 14.0241 13.7699 14.5298C13.517 15.0355 13.1619 15.429 12.7045 15.7102C12.2472 15.9915 11.7116 16.1321 11.098 16.1321ZM11.1023 15.0625C11.5 15.0625 11.8295 14.9574 12.0909 14.7472C12.3523 14.5369 12.5455 14.2571 12.6705 13.9077C12.7983 13.5582 12.8622 13.1733 12.8622 12.7528C12.8622 12.3352 12.7983 11.9517 12.6705 11.6023C12.5455 11.25 12.3523 10.9673 12.0909 10.7543C11.8295 10.5412 11.5 10.4347 11.1023 10.4347C10.7017 10.4347 10.3693 10.5412 10.1051 10.7543C9.84375 10.9673 9.64915 11.25 9.52131 11.6023C9.39631 11.9517 9.33381 12.3352 9.33381 12.7528C9.33381 13.1733 9.39631 13.5582 9.52131 13.9077C9.64915 14.2571 9.84375 14.5369 10.1051 14.7472C10.3693 14.9574 10.7017 15.0625 11.1023 15.0625ZM18.7768 9.45455V10.4773H15.2015V9.45455H18.7768ZM16.1603 7.88636H17.4344V14.0781C17.4344 14.3253 17.4714 14.5114 17.5452 14.6364C17.6191 14.7585 17.7143 14.8423 17.8308 14.8878C17.9501 14.9304 18.0793 14.9517 18.2185 14.9517C18.3208 14.9517 18.4103 14.9446 18.487 14.9304C18.5637 14.9162 18.6234 14.9048 18.666 14.8963L18.8961 15.9489C18.8222 15.9773 18.7171 16.0057 18.5808 16.0341C18.4444 16.0653 18.2739 16.0824 18.0694 16.0852C17.7342 16.0909 17.4217 16.0312 17.1319 15.9062C16.8421 15.7812 16.6077 15.5881 16.4288 15.3267C16.2498 15.0653 16.1603 14.7372 16.1603 14.3423V7.88636ZM22.2411 16.1449C21.8263 16.1449 21.4513 16.0682 21.1161 15.9148C20.7808 15.7585 20.5152 15.5327 20.3192 15.2372C20.126 14.9418 20.0294 14.5795 20.0294 14.1506C20.0294 13.7812 20.1004 13.4773 20.2425 13.2386C20.3845 13 20.5763 12.8111 20.8178 12.6719C21.0592 12.5327 21.3291 12.4276 21.6274 12.3565C21.9257 12.2855 22.2297 12.2315 22.5393 12.1946C22.9314 12.1491 23.2496 12.1122 23.4939 12.0838C23.7382 12.0526 23.9158 12.0028 24.0266 11.9347C24.1374 11.8665 24.1928 11.7557 24.1928 11.6023V11.5724C24.1928 11.2003 24.0876 10.9119 23.8774 10.7074C23.67 10.5028 23.3604 10.4006 22.9484 10.4006C22.5195 10.4006 22.1814 10.4957 21.9342 10.6861C21.6899 10.8736 21.5209 11.0824 21.4271 11.3125L20.2297 11.0398C20.3717 10.642 20.5791 10.321 20.8518 10.0767C21.1274 9.82955 21.4442 9.65057 21.8021 9.53977C22.1601 9.42614 22.5365 9.36932 22.9314 9.36932C23.1928 9.36932 23.4697 9.40057 23.7624 9.46307C24.0578 9.52273 24.3334 9.63352 24.5891 9.79545C24.8476 9.95739 25.0592 10.1889 25.224 10.4901C25.3888 10.7884 25.4712 11.1761 25.4712 11.6534V16H24.2268V15.1051H24.1757C24.0933 15.2699 23.9697 15.4318 23.805 15.5909C23.6402 15.75 23.4286 15.8821 23.17 15.9872C22.9115 16.0923 22.6018 16.1449 22.2411 16.1449ZM22.518 15.1222C22.8703 15.1222 23.1714 15.0526 23.4214 14.9134C23.6743 14.7741 23.8661 14.5923 23.9967 14.3679C24.1303 14.1406 24.197 13.8977 24.197 13.6392V12.7955C24.1516 12.8409 24.0635 12.8835 23.9328 12.9233C23.805 12.9602 23.6587 12.9929 23.4939 13.0213C23.3291 13.0469 23.1686 13.071 23.0124 13.0938C22.8561 13.1136 22.7254 13.1307 22.6203 13.1449C22.3732 13.1761 22.1473 13.2287 21.9428 13.3026C21.7411 13.3764 21.5791 13.483 21.457 13.6222C21.3376 13.7585 21.278 13.9403 21.278 14.1676C21.278 14.483 21.3945 14.7216 21.6274 14.8835C21.8604 15.0426 22.1572 15.1222 22.518 15.1222ZM28.5924 7.27273V16H27.3183V7.27273H28.5924ZM33.8846 16V7.27273H39.3562V8.40625H35.2013V11.0653H39.0707V12.1946H35.2013V14.8665H39.4073V16H33.8846ZM45.5818 18.4545V14.9815H45.5051C45.4284 15.1207 45.3176 15.2798 45.1727 15.4588C45.0307 15.6378 44.8347 15.794 44.5847 15.9276C44.3347 16.0611 44.0108 16.1278 43.6131 16.1278C43.0847 16.1278 42.6131 15.9929 42.1983 15.723C41.7864 15.4503 41.4625 15.0625 41.2267 14.5597C40.9937 14.054 40.8773 13.4474 40.8773 12.7401C40.8773 12.0327 40.9952 11.4276 41.231 10.9247C41.4696 10.4219 41.7963 10.0369 42.2111 9.76989C42.6259 9.50284 43.096 9.36932 43.6216 9.36932C44.0278 9.36932 44.3545 9.4375 44.6017 9.57386C44.8517 9.70739 45.0449 9.86364 45.1812 10.0426C45.3205 10.2216 45.4284 10.3793 45.5051 10.5156H45.6116V9.45455H46.856V18.4545H45.5818ZM43.8943 15.0412C44.2608 15.0412 44.5705 14.9446 44.8233 14.7514C45.079 14.5554 45.2722 14.2841 45.4028 13.9375C45.5364 13.5909 45.6031 13.1875 45.6031 12.7273C45.6031 12.2727 45.5378 11.875 45.4071 11.5341C45.2764 11.1932 45.0847 10.9276 44.8318 10.7372C44.579 10.5469 44.2665 10.4517 43.8943 10.4517C43.5108 10.4517 43.1912 10.5511 42.9355 10.75C42.6798 10.9489 42.4866 11.2202 42.356 11.5639C42.2281 11.9077 42.1642 12.2955 42.1642 12.7273C42.1642 13.1648 42.2295 13.5582 42.3602 13.9077C42.4909 14.2571 42.6841 14.5341 42.9398 14.7386C43.1983 14.9403 43.5165 15.0412 43.8943 15.0412ZM52.8653 13.2855V9.45455H54.1437V16H52.8909V14.8665H52.8227C52.6722 15.2159 52.4307 15.5071 52.0983 15.7401C51.7687 15.9702 51.3582 16.0852 50.8668 16.0852C50.4463 16.0852 50.0741 15.9929 49.7503 15.8082C49.4293 15.6207 49.1764 15.3438 48.9918 14.9773C48.8099 14.6108 48.719 14.1577 48.719 13.6179V9.45455H49.9932V13.4645C49.9932 13.9105 50.1168 14.2656 50.3639 14.5298C50.6111 14.794 50.9321 14.9261 51.327 14.9261C51.5656 14.9261 51.8028 14.8665 52.0386 14.7472C52.2773 14.6278 52.4747 14.4474 52.631 14.206C52.7901 13.9645 52.8682 13.6577 52.8653 13.2855ZM56.0057 16V9.45455H57.2799V16H56.0057ZM56.6492 8.4446C56.4276 8.4446 56.2373 8.37074 56.0782 8.22301C55.9219 8.07244 55.8438 7.89347 55.8438 7.68608C55.8438 7.47585 55.9219 7.29687 56.0782 7.14915C56.2373 6.99858 56.4276 6.9233 56.6492 6.9233C56.8708 6.9233 57.0597 6.99858 57.216 7.14915C57.3751 7.29687 57.4546 7.47585 57.4546 7.68608C57.4546 7.89347 57.3751 8.07244 57.216 8.22301C57.0597 8.37074 56.8708 8.4446 56.6492 8.4446ZM62.1994 9.45455V10.4773H58.6241V9.45455H62.1994ZM59.583 7.88636H60.8571V14.0781C60.8571 14.3253 60.894 14.5114 60.9679 14.6364C61.0418 14.7585 61.1369 14.8423 61.2534 14.8878C61.3727 14.9304 61.502 14.9517 61.6412 14.9517C61.7435 14.9517 61.833 14.9446 61.9097 14.9304C61.9864 14.9162 62.046 14.9048 62.0886 14.8963L62.3187 15.9489C62.2449 15.9773 62.1398 16.0057 62.0034 16.0341C61.867 16.0653 61.6966 16.0824 61.492 16.0852C61.1568 16.0909 60.8443 16.0312 60.5545 15.9062C60.2648 15.7812 60.0304 15.5881 59.8514 15.3267C59.6724 15.0653 59.583 14.7372 59.583 14.3423V7.88636ZM64.5643 18.4545C64.3739 18.4545 64.2006 18.4389 64.0444 18.4077C63.8881 18.3793 63.7717 18.348 63.695 18.3139L64.0018 17.2699C64.2347 17.3324 64.4421 17.3594 64.6239 17.3509C64.8058 17.3423 64.9663 17.2741 65.1055 17.1463C65.2475 17.0185 65.3725 16.8097 65.4805 16.5199L65.6381 16.0852L63.2433 9.45455H64.6069L66.2646 14.5341H66.3327L67.9904 9.45455H69.3583L66.6609 16.8736C66.5359 17.2145 66.3768 17.5028 66.1836 17.7386C65.9904 17.9773 65.7603 18.1563 65.4933 18.2756C65.2262 18.3949 64.9165 18.4545 64.5643 18.4545ZM74.8966 7.27273L77.3256 14.3807H77.4236L79.8526 7.27273H81.2758L78.1352 16H76.6139L73.4733 7.27273H74.8966ZM83.8442 16.1449C83.4294 16.1449 83.0544 16.0682 82.7192 15.9148C82.3839 15.7585 82.1183 15.5327 81.9223 15.2372C81.7291 14.9418 81.6325 14.5795 81.6325 14.1506C81.6325 13.7812 81.7035 13.4773 81.8456 13.2386C81.9876 13 82.1794 12.8111 82.4209 12.6719C82.6624 12.5327 82.9322 12.4276 83.2305 12.3565C83.5288 12.2855 83.8328 12.2315 84.1425 12.1946C84.5345 12.1491 84.8527 12.1122 85.097 12.0838C85.3413 12.0526 85.5189 12.0028 85.6297 11.9347C85.7405 11.8665 85.7959 11.7557 85.7959 11.6023V11.5724C85.7959 11.2003 85.6908 10.9119 85.4805 10.7074C85.2732 10.5028 84.9635 10.4006 84.5516 10.4006C84.1226 10.4006 83.7845 10.4957 83.5374 10.6861C83.293 10.8736 83.124 11.0824 83.0303 11.3125L81.8328 11.0398C81.9749 10.642 82.1822 10.321 82.455 10.0767C82.7305 9.82955 83.0473 9.65057 83.4053 9.53977C83.7632 9.42614 84.1396 9.36932 84.5345 9.36932C84.7959 9.36932 85.0729 9.40057 85.3655 9.46307C85.6609 9.52273 85.9365 9.63352 86.1922 9.79545C86.4507 9.95739 86.6624 10.1889 86.8271 10.4901C86.9919 10.7884 87.0743 11.1761 87.0743 11.6534V16H85.83V15.1051H85.7788C85.6964 15.2699 85.5729 15.4318 85.4081 15.5909C85.2433 15.75 85.0317 15.8821 84.7732 15.9872C84.5146 16.0923 84.205 16.1449 83.8442 16.1449ZM84.1212 15.1222C84.4734 15.1222 84.7746 15.0526 85.0246 14.9134C85.2774 14.7741 85.4692 14.5923 85.5999 14.3679C85.7334 14.1406 85.8001 13.8977 85.8001 13.6392V12.7955C85.7547 12.8409 85.6666 12.8835 85.5359 12.9233C85.4081 12.9602 85.2618 12.9929 85.097 13.0213C84.9322 13.0469 84.7717 13.071 84.6155 13.0938C84.4592 13.1136 84.3285 13.1307 84.2234 13.1449C83.9763 13.1761 83.7504 13.2287 83.5459 13.3026C83.3442 13.3764 83.1822 13.483 83.0601 13.6222C82.9408 13.7585 82.8811 13.9403 82.8811 14.1676C82.8811 14.483 82.9976 14.7216 83.2305 14.8835C83.4635 15.0426 83.7604 15.1222 84.1212 15.1222ZM90.1955 7.27273V16H88.9214V7.27273H90.1955ZM96.206 13.2855V9.45455H97.4844V16H96.2315V14.8665H96.1634C96.0128 15.2159 95.7713 15.5071 95.4389 15.7401C95.1094 15.9702 94.6989 16.0852 94.2074 16.0852C93.7869 16.0852 93.4148 15.9929 93.0909 15.8082C92.7699 15.6207 92.517 15.3438 92.3324 14.9773C92.1506 14.6108 92.0597 14.1577 92.0597 13.6179V9.45455H93.3338V13.4645C93.3338 13.9105 93.4574 14.2656 93.7045 14.5298C93.9517 14.794 94.2727 14.9261 94.6676 14.9261C94.9063 14.9261 95.1435 14.8665 95.3793 14.7472C95.6179 14.6278 95.8153 14.4474 95.9716 14.206C96.1307 13.9645 96.2088 13.6577 96.206 13.2855ZM102.167 16.1321C101.523 16.1321 100.967 15.9943 100.501 15.7188C100.038 15.4403 99.6802 15.0497 99.4273 14.5469C99.1773 14.0412 99.0523 13.4489 99.0523 12.7699C99.0523 12.0994 99.1773 11.5085 99.4273 10.9972C99.6802 10.4858 100.032 10.0866 100.484 9.79972C100.939 9.51278 101.47 9.36932 102.078 9.36932C102.447 9.36932 102.805 9.4304 103.152 9.55256C103.498 9.67472 103.809 9.86648 104.085 10.1278C104.361 10.3892 104.578 10.7287 104.737 11.1463C104.896 11.5611 104.976 12.0653 104.976 12.6591V13.1108H99.7725V12.1562H103.727C103.727 11.821 103.659 11.5241 103.523 11.2656C103.386 11.0043 103.194 10.7983 102.947 10.6477C102.703 10.4972 102.416 10.4219 102.086 10.4219C101.728 10.4219 101.416 10.5099 101.149 10.6861C100.885 10.8594 100.68 11.0866 100.535 11.3679C100.393 11.6463 100.322 11.9489 100.322 12.2756V13.0213C100.322 13.4588 100.399 13.831 100.552 14.1378C100.709 14.4446 100.926 14.679 101.204 14.8409C101.483 15 101.808 15.0795 102.18 15.0795C102.422 15.0795 102.642 15.0455 102.841 14.9773C103.04 14.9062 103.211 14.8011 103.356 14.6619C103.501 14.5227 103.612 14.3509 103.689 14.1463L104.895 14.3636C104.798 14.7187 104.625 15.0298 104.375 15.2969C104.128 15.5611 103.817 15.767 103.442 15.9148C103.069 16.0597 102.645 16.1321 102.167 16.1321Z" fill="#4A5568"/>
<rect x="181" width="109" height="24" rx="6" fill="#F7FAFC"/>
<g filter="url(#filter0_d_3357_27388)">
<path d="M193.09 9.95455V10.8068H189.698V9.95455H193.09ZM190.687 8.38636H191.693V14.625C191.693 14.9091 191.734 15.1222 191.816 15.2642C191.901 15.4034 192.009 15.4972 192.14 15.5455C192.273 15.5909 192.414 15.6136 192.562 15.6136C192.673 15.6136 192.764 15.608 192.835 15.5966C192.906 15.5824 192.962 15.571 193.005 15.5625L193.21 16.4659C193.141 16.4915 193.046 16.517 192.924 16.5426C192.802 16.571 192.647 16.5852 192.46 16.5852C192.175 16.5852 191.897 16.5241 191.624 16.402C191.354 16.2798 191.13 16.0938 190.951 15.8438C190.775 15.5938 190.687 15.2784 190.687 14.8977V8.38636ZM194.446 16.5V15.733L198.161 10.9602V10.892H194.565V9.95455H199.457V10.7557L195.843 15.4943V15.5625H199.576V16.5H194.446ZM204.206 7.77273V16.5H203.15V8.88068H203.098L200.968 10.2955V9.22159L203.15 7.77273H204.206ZM208.485 16.5L206.099 7.77273H207.172L208.996 14.8807H209.082L210.939 7.77273H212.133L213.991 14.8807H214.076L215.9 7.77273H216.974L214.587 16.5H213.496L211.57 9.54545H211.502L209.576 16.5H208.485ZM221.235 7.77273V16.5H220.178V8.88068H220.127L217.996 10.2955V9.22159L220.178 7.77273H221.235ZM223.792 9.95455H224.798V16.9773C224.798 17.3807 224.728 17.7301 224.589 18.0256C224.453 18.321 224.245 18.5497 223.967 18.7116C223.691 18.8736 223.343 18.9545 222.923 18.9545C222.889 18.9545 222.855 18.9545 222.821 18.9545C222.786 18.9545 222.752 18.9545 222.718 18.9545V18.017C222.752 18.017 222.784 18.017 222.812 18.017C222.84 18.017 222.872 18.017 222.906 18.017C223.213 18.017 223.437 17.9261 223.579 17.7443C223.721 17.5653 223.792 17.3097 223.792 16.9773V9.95455ZM224.286 8.86364C224.09 8.86364 223.921 8.79688 223.779 8.66335C223.64 8.52983 223.571 8.36932 223.571 8.18182C223.571 7.99432 223.64 7.83381 223.779 7.70028C223.921 7.56676 224.09 7.5 224.286 7.5C224.482 7.5 224.65 7.56676 224.789 7.70028C224.931 7.83381 225.002 7.99432 225.002 8.18182C225.002 8.36932 224.931 8.52983 224.789 8.66335C224.65 8.79688 224.482 8.86364 224.286 8.86364ZM229.977 13.7727H231.136L232.107 15.0511L232.363 15.392L233.812 17.3182H232.653L231.698 16.0398L231.46 15.7159L229.977 13.7727ZM234.17 12.1364C234.17 13.0568 234.004 13.8523 233.671 14.5227C233.339 15.1932 232.883 15.7102 232.303 16.0739C231.724 16.4375 231.062 16.6193 230.317 16.6193C229.573 16.6193 228.911 16.4375 228.332 16.0739C227.752 15.7102 227.296 15.1932 226.964 14.5227C226.631 13.8523 226.465 13.0568 226.465 12.1364C226.465 11.2159 226.631 10.4205 226.964 9.75C227.296 9.07955 227.752 8.5625 228.332 8.19886C228.911 7.83523 229.573 7.65341 230.317 7.65341C231.062 7.65341 231.724 7.83523 232.303 8.19886C232.883 8.5625 233.339 9.07955 233.671 9.75C234.004 10.4205 234.17 11.2159 234.17 12.1364ZM233.147 12.1364C233.147 11.3807 233.021 10.7429 232.768 10.223C232.518 9.70312 232.178 9.30966 231.749 9.04261C231.323 8.77557 230.846 8.64205 230.317 8.64205C229.789 8.64205 229.31 8.77557 228.881 9.04261C228.455 9.30966 228.116 9.70312 227.863 10.223C227.613 10.7429 227.488 11.3807 227.488 12.1364C227.488 12.892 227.613 13.5298 227.863 14.0497C228.116 14.5696 228.455 14.9631 228.881 15.2301C229.31 15.4972 229.789 15.6307 230.317 15.6307C230.846 15.6307 231.323 15.4972 231.749 15.2301C232.178 14.9631 232.518 14.5696 232.768 14.0497C233.021 13.5298 233.147 12.892 233.147 12.1364ZM236.023 16.5682C235.812 16.5682 235.632 16.4929 235.481 16.3423C235.331 16.1918 235.256 16.0114 235.256 15.8011C235.256 15.5909 235.331 15.4105 235.481 15.2599C235.632 15.1094 235.812 15.0341 236.023 15.0341C236.233 15.0341 236.413 15.1094 236.564 15.2599C236.714 15.4105 236.79 15.5909 236.79 15.8011C236.79 15.9403 236.754 16.0682 236.683 16.1847C236.615 16.3011 236.523 16.3949 236.406 16.4659C236.292 16.5341 236.165 16.5682 236.023 16.5682ZM239.357 16.5682C239.147 16.5682 238.967 16.4929 238.816 16.3423C238.665 16.1918 238.59 16.0114 238.59 15.8011C238.59 15.5909 238.665 15.4105 238.816 15.2599C238.967 15.1094 239.147 15.0341 239.357 15.0341C239.567 15.0341 239.748 15.1094 239.898 15.2599C240.049 15.4105 240.124 15.5909 240.124 15.8011C240.124 15.9403 240.089 16.0682 240.018 16.1847C239.95 16.3011 239.857 16.3949 239.741 16.4659C239.627 16.5341 239.499 16.5682 239.357 16.5682ZM242.692 16.5682C242.482 16.5682 242.301 16.4929 242.151 16.3423C242 16.1918 241.925 16.0114 241.925 15.8011C241.925 15.5909 242 15.4105 242.151 15.2599C242.301 15.1094 242.482 15.0341 242.692 15.0341C242.902 15.0341 243.083 15.1094 243.233 15.2599C243.384 15.4105 243.459 15.5909 243.459 15.8011C243.459 15.9403 243.423 16.0682 243.352 16.1847C243.284 16.3011 243.192 16.3949 243.075 16.4659C242.962 16.5341 242.834 16.5682 242.692 16.5682ZM244.543 8.71023V7.77273H251.088V8.71023H248.344V16.5H247.287V8.71023H244.543ZM252.272 8.71023V7.77273H258.817V8.71023H256.073V16.5H255.016V8.71023H252.272ZM260.478 16.5V7.77273H263.427C264.112 7.77273 264.671 7.89631 265.106 8.14347C265.544 8.38778 265.868 8.71875 266.078 9.13636C266.288 9.55398 266.393 10.0199 266.393 10.5341C266.393 11.0483 266.288 11.5156 266.078 11.9361C265.87 12.3565 265.549 12.6918 265.115 12.9418C264.68 13.1889 264.123 13.3125 263.444 13.3125H261.331V12.375H263.41C263.879 12.375 264.255 12.294 264.539 12.1321C264.823 11.9702 265.029 11.7514 265.157 11.4759C265.288 11.1974 265.353 10.8835 265.353 10.5341C265.353 10.1847 265.288 9.87216 265.157 9.59659C265.029 9.32102 264.822 9.10511 264.535 8.94886C264.248 8.78977 263.868 8.71023 263.393 8.71023H261.535V16.5H260.478ZM268.125 16.5V7.77273H269.182V15.5625H273.239V16.5H268.125ZM274.905 16.5V7.77273H275.962V12.1023H276.065L279.985 7.77273H281.366L277.701 11.7102L281.366 16.5H280.087L277.053 12.4432L275.962 13.6705V16.5H274.905Z" fill="#718096"/>
</g>
<g filter="url(#filter1_d_3357_27388)">
<rect x="296" width="24" height="24" rx="4" fill="#F7FAFC"/>
<g clip-path="url(#clip0_3357_27388)">
<path d="M308 18.6668C311.682 18.6668 314.667 15.6821 314.667 12.0002C314.667 8.31826 311.682 5.3335 308 5.3335C304.318 5.3335 301.333 8.31826 301.333 12.0002C301.333 15.6821 304.318 18.6668 308 18.6668Z" stroke="#718096" stroke-linecap="round" stroke-linejoin="round"/>
<path d="M301.333 12H314.667" stroke="#718096" stroke-linecap="round" stroke-linejoin="round"/>
<path d="M308 5.3335C309.667 7.15906 310.615 9.52819 310.667 12.0002C310.615 14.4721 309.667 16.8413 308 18.6668C306.332 16.8413 305.385 14.4721 305.333 12.0002C305.385 9.52819 306.332 7.15906 308 5.3335V5.3335Z" stroke="#718096" stroke-linecap="round" stroke-linejoin="round"/>
</g>
</g>
<path d="M1.97727 45.4205C1.96591 44.4773 2.11932 43.7187 2.4375 43.1449C2.76136 42.571 3.18182 42.1534 3.69886 41.892C4.22159 41.6307 4.77273 41.5 5.35227 41.5C5.93182 41.5 6.45739 41.6307 6.92898 41.892C7.40625 42.1477 7.96023 42.5398 8.59091 43.0682C9.01705 43.4261 9.35227 43.6818 9.59659 43.8352C9.84659 43.983 10.125 44.0568 10.4318 44.0568C10.9261 44.0568 11.3153 43.8807 11.5994 43.5284C11.8835 43.1761 12.017 42.6591 12 41.9773H13.8409C13.8636 42.9205 13.7131 43.679 13.3892 44.2528C13.0653 44.8267 12.642 45.2443 12.1193 45.5057C11.5966 45.767 11.0455 45.8977 10.4659 45.8977C9.88636 45.8977 9.35795 45.7756 8.88068 45.5312C8.40341 45.2812 7.85227 44.8807 7.22727 44.3295C6.81818 43.9716 6.4858 43.7187 6.23011 43.571C5.97443 43.4176 5.69318 43.3409 5.38636 43.3409C4.92614 43.3409 4.54545 43.5 4.24432 43.8182C3.94318 44.1364 3.80114 44.6705 3.81818 45.4205H1.97727ZM1.97727 50.5682C1.96591 49.625 2.11932 48.8665 2.4375 48.2926C2.76136 47.7188 3.18182 47.3011 3.69886 47.0398C4.22159 46.7784 4.77273 46.6477 5.35227 46.6477C5.93182 46.6477 6.45739 46.7784 6.92898 47.0398C7.40625 47.2955 7.96023 47.6875 8.59091 48.2159C9.01705 48.5739 9.35227 48.8295 9.59659 48.983C9.84659 49.1307 10.125 49.2045 10.4318 49.2045C10.9261 49.2045 11.3153 49.0284 11.5994 48.6761C11.8835 48.3239 12.017 47.8068 12 47.125H13.8409C13.8636 48.0682 13.7131 48.8267 13.3892 49.4006C13.0653 49.9744 12.642 50.392 12.1193 50.6534C11.5966 50.9148 11.0455 51.0455 10.4659 51.0455C9.88636 51.0455 9.35795 50.9233 8.88068 50.679C8.40341 50.429 7.85227 50.0284 7.22727 49.4773C6.81818 49.1193 6.4858 48.8665 6.23011 48.7188C5.97443 48.5653 5.69318 48.4886 5.38636 48.4886C4.92614 48.4886 4.54545 48.6477 4.24432 48.9659C3.94318 49.2841 3.80114 49.8182 3.81818 50.5682H1.97727ZM24.3771 55V53.4659L30.1385 47.1591C30.8146 46.4205 31.3714 45.7784 31.8089 45.233C32.2464 44.6818 32.5703 44.1648 32.7805 43.6818C32.9964 43.1932 33.1044 42.6818 33.1044 42.1477C33.1044 41.5341 32.9567 41.0028 32.6612 40.554C32.3714 40.1051 31.9737 39.7585 31.468 39.5142C30.9624 39.2699 30.3942 39.1477 29.7635 39.1477C29.093 39.1477 28.5078 39.2869 28.0078 39.5653C27.5135 39.8381 27.13 40.2216 26.8572 40.7159C26.5902 41.2102 26.4567 41.7898 26.4567 42.4545H24.4453C24.4453 41.4318 24.6811 40.5341 25.1527 39.7614C25.6243 38.9886 26.2663 38.3864 27.0788 37.9545C27.897 37.5227 28.8146 37.3068 29.8317 37.3068C30.8544 37.3068 31.7607 37.5227 32.5504 37.9545C33.3402 38.3864 33.9595 38.9687 34.4084 39.7017C34.8572 40.4347 35.0817 41.25 35.0817 42.1477C35.0817 42.7898 34.9652 43.4176 34.7322 44.0312C34.505 44.6392 34.1072 45.3182 33.5391 46.0682C32.9766 46.8125 32.1953 47.7216 31.1953 48.7955L27.2749 52.9886V53.125H35.3885V55H24.3771ZM38.1243 51.4205V49.6818L45.7947 37.5455H47.0561V40.2386H46.2038L40.4084 49.4091V49.5455H50.7379V51.4205H38.1243ZM46.3402 55V50.892V50.0824V37.5455H48.3516V55H46.3402ZM53.5227 51.4205V49.6818L61.1932 37.5455H62.4545V40.2386H61.6023L55.8068 49.4091V49.5455H66.1364V51.4205H53.5227ZM61.7386 55V50.892V50.0824V37.5455H63.75V55H61.7386ZM71.544 52.6136L71.4077 53.5341C71.3111 54.1818 71.1634 54.875 70.9645 55.6136C70.7713 56.3523 70.5696 57.0483 70.3594 57.7017C70.1491 58.3551 69.9759 58.875 69.8395 59.2614H68.3054C68.3793 58.8977 68.4759 58.4176 68.5952 57.821C68.7145 57.2244 68.8338 56.5568 68.9531 55.8182C69.0781 55.0852 69.1804 54.3352 69.2599 53.5682L69.3622 52.6136H71.544ZM74.8274 51.4205V49.6818L82.4979 37.5455H83.7592V40.2386H82.907L77.1115 49.4091V49.5455H87.4411V51.4205H74.8274ZM83.0433 55V50.892V50.0824V37.5455H85.0547V55H83.0433ZM96.5327 55.2386C95.4077 55.2386 94.4048 55.0455 93.5241 54.6591C92.6491 54.2727 91.9531 53.7358 91.4361 53.0483C90.9247 52.3551 90.6463 51.5511 90.6009 50.6364H92.7486C92.794 51.1989 92.9872 51.6847 93.3281 52.0938C93.669 52.4972 94.1151 52.8097 94.6662 53.0312C95.2173 53.2528 95.8281 53.3636 96.4986 53.3636C97.2486 53.3636 97.9134 53.233 98.4929 52.9716C99.0724 52.7102 99.527 52.3466 99.8565 51.8807C100.186 51.4148 100.351 50.875 100.351 50.2614C100.351 49.6193 100.192 49.054 99.8736 48.5653C99.5554 48.071 99.0895 47.6847 98.4759 47.4062C97.8622 47.1278 97.1122 46.9886 96.2259 46.9886H94.8281V45.1136H96.2259C96.919 45.1136 97.527 44.9886 98.0497 44.7386C98.5781 44.4886 98.9901 44.1364 99.2855 43.6818C99.5866 43.2273 99.7372 42.6932 99.7372 42.0795C99.7372 41.4886 99.6065 40.9744 99.3452 40.5369C99.0838 40.0994 98.7145 39.7585 98.2372 39.5142C97.7656 39.2699 97.2088 39.1477 96.5668 39.1477C95.9645 39.1477 95.3963 39.2585 94.8622 39.4801C94.3338 39.696 93.902 40.0114 93.5668 40.4261C93.2315 40.8352 93.0497 41.3295 93.0213 41.9091H90.9759C91.0099 40.9943 91.2855 40.1932 91.8026 39.5057C92.3196 38.8125 92.9957 38.2727 93.831 37.8864C94.6719 37.5 95.5952 37.3068 96.6009 37.3068C97.6804 37.3068 98.6065 37.5256 99.3793 37.9631C100.152 38.3949 100.746 38.9659 101.161 39.6761C101.575 40.3864 101.783 41.1534 101.783 41.9773C101.783 42.9602 101.524 43.7983 101.007 44.4915C100.496 45.1847 99.7997 45.6648 98.919 45.9318V46.0682C100.021 46.25 100.882 46.7187 101.501 47.4744C102.121 48.2244 102.43 49.1534 102.43 50.2614C102.43 51.2102 102.172 52.0625 101.655 52.8182C101.143 53.5682 100.445 54.1591 99.5582 54.5909C98.6719 55.0227 97.6634 55.2386 96.5327 55.2386ZM105.507 51.4205V49.6818L113.178 37.5455H114.439V40.2386H113.587L107.791 49.4091V49.5455H118.121V51.4205H105.507ZM113.723 55V50.892V50.0824V37.5455H115.734V55H113.723ZM121.994 55.1364C121.574 55.1364 121.213 54.9858 120.912 54.6847C120.611 54.3835 120.46 54.0227 120.46 53.6023C120.46 53.1818 120.611 52.821 120.912 52.5199C121.213 52.2187 121.574 52.0682 121.994 52.0682C122.415 52.0682 122.776 52.2187 123.077 52.5199C123.378 52.821 123.528 53.1818 123.528 53.6023C123.528 53.8807 123.457 54.1364 123.315 54.3693C123.179 54.6023 122.994 54.7898 122.761 54.9318C122.534 55.0682 122.278 55.1364 121.994 55.1364ZM132.188 55.2386C130.903 55.2386 129.81 54.8892 128.906 54.1903C128.003 53.4858 127.313 52.4659 126.835 51.1307C126.358 49.7898 126.119 48.1705 126.119 46.2727C126.119 44.3864 126.358 42.7756 126.835 41.4403C127.318 40.0994 128.011 39.0767 128.915 38.3722C129.824 37.6619 130.915 37.3068 132.188 37.3068C133.46 37.3068 134.548 37.6619 135.452 38.3722C136.361 39.0767 137.054 40.0994 137.531 41.4403C138.014 42.7756 138.256 44.3864 138.256 46.2727C138.256 48.1705 138.017 49.7898 137.54 51.1307C137.062 52.4659 136.372 53.4858 135.469 54.1903C134.565 54.8892 133.472 55.2386 132.188 55.2386ZM132.188 53.3636C133.46 53.3636 134.449 52.75 135.153 51.5227C135.858 50.2955 136.21 48.5455 136.21 46.2727C136.21 44.7614 136.048 43.4744 135.724 42.4119C135.406 41.3494 134.946 40.5398 134.344 39.983C133.747 39.4261 133.028 39.1477 132.188 39.1477C130.926 39.1477 129.94 39.7699 129.23 41.0142C128.52 42.2528 128.165 44.0057 128.165 46.2727C128.165 47.7841 128.324 49.0682 128.642 50.125C128.96 51.1818 129.418 51.9858 130.014 52.5369C130.616 53.0881 131.341 53.3636 132.188 53.3636ZM141.085 51.4205V49.6818L148.756 37.5455H150.017V40.2386H149.165L143.369 49.4091V49.5455H153.699V51.4205H141.085ZM149.301 55V50.892V50.0824V37.5455H151.312V55H149.301ZM162.04 57.1818V35.3636H163.438V57.1818H162.04ZM166.745 41.9091C166.643 41.0455 166.228 40.375 165.501 39.8977C164.773 39.4205 163.881 39.1818 162.825 39.1818C162.052 39.1818 161.376 39.3068 160.796 39.5568C160.222 39.8068 159.773 40.1506 159.45 40.5881C159.131 41.0256 158.972 41.5227 158.972 42.0795C158.972 42.5455 159.083 42.946 159.305 43.2812C159.532 43.6108 159.822 43.8864 160.174 44.108C160.526 44.3239 160.896 44.5028 161.282 44.6449C161.668 44.7812 162.023 44.892 162.347 44.9773L164.12 45.4545C164.575 45.5739 165.08 45.7386 165.637 45.9489C166.2 46.1591 166.737 46.446 167.248 46.8097C167.765 47.1676 168.191 47.6278 168.526 48.1903C168.862 48.7528 169.029 49.4432 169.029 50.2614C169.029 51.2045 168.782 52.0568 168.288 52.8182C167.799 53.5795 167.083 54.1847 166.14 54.6335C165.202 55.0824 164.063 55.3068 162.722 55.3068C161.472 55.3068 160.39 55.1051 159.475 54.7017C158.566 54.2983 157.85 53.7358 157.327 53.0142C156.81 52.2926 156.518 51.4545 156.45 50.5H158.631C158.688 51.1591 158.91 51.7045 159.296 52.1364C159.688 52.5625 160.183 52.8807 160.779 53.0909C161.381 53.2955 162.029 53.3977 162.722 53.3977C163.529 53.3977 164.254 53.267 164.896 53.0057C165.538 52.7386 166.046 52.3693 166.421 51.8977C166.796 51.4205 166.984 50.8636 166.984 50.2273C166.984 49.6477 166.822 49.1761 166.498 48.8125C166.174 48.4489 165.748 48.1534 165.219 47.9261C164.691 47.6989 164.12 47.5 163.506 47.3295L161.359 46.7159C159.995 46.3239 158.915 45.7642 158.12 45.0369C157.325 44.3097 156.927 43.358 156.927 42.1818C156.927 41.2045 157.191 40.3523 157.719 39.625C158.254 38.892 158.969 38.3239 159.867 37.9205C160.771 37.5114 161.779 37.3068 162.893 37.3068C164.018 37.3068 165.018 37.5085 165.893 37.9119C166.768 38.3097 167.461 38.8551 167.972 39.5483C168.489 40.2415 168.762 41.0284 168.79 41.9091H166.745Z" fill="black"/>
<defs>
<filter id="filter0_d_3357_27388" x="181" y="0" width="109" height="24" filterUnits="userSpaceOnUse" color-interpolation-filters="sRGB">
<feFlood flood-opacity="0" result="BackgroundImageFix"/>
<feColorMatrix in="SourceAlpha" type="matrix" values="0 0 0 0 0 0 0 0 0 0 0 0 0 0 0 0 0 0 127 0" result="hardAlpha"/>
<feOffset/>
<feColorMatrix type="matrix" values="0 0 0 0 0 0 0 0 0 0 0 0 0 0 0 0 0 0 0.05 0"/>
<feBlend mode="normal" in2="BackgroundImageFix" result="effect1_dropShadow_3357_27388"/>
<feBlend mode="normal" in="SourceGraphic" in2="effect1_dropShadow_3357_27388" result="shape"/>
</filter>
<filter id="filter1_d_3357_27388" x="296" y="0" width="24" height="24" filterUnits="userSpaceOnUse" color-interpolation-filters="sRGB">
<feFlood flood-opacity="0" result="BackgroundImageFix"/>
<feColorMatrix in="SourceAlpha" type="matrix" values="0 0 0 0 0 0 0 0 0 0 0 0 0 0 0 0 0 0 127 0" result="hardAlpha"/>
<feOffset/>
<feColorMatrix type="matrix" values="0 0 0 0 0 0 0 0 0 0 0 0 0 0 0 0 0 0 0.05 0"/>
<feBlend mode="normal" in2="BackgroundImageFix" result="effect1_dropShadow_3357_27388"/>
<feBlend mode="normal" in="SourceGraphic" in2="effect1_dropShadow_3357_27388" result="shape"/>
</filter>
<clipPath id="clip0_3357_27388">
<rect width="16" height="16" fill="white" transform="translate(300 4)"/>
</clipPath>
</defs>
</svg>
