<svg width="360" height="240" viewBox="0 0 360 240" fill="none" xmlns="http://www.w3.org/2000/svg">
<rect x="82.1488" y="24" width="72" height="72" rx="8" fill="#FF7A00" fill-opacity="0.1"/>
<path d="M117.694 45.0044V66.0085" stroke="#FF5B00" stroke-width="2.42355" stroke-linecap="round" stroke-linejoin="round"/>
<path d="M109.616 59.5459L117.694 67.6244L125.773 59.5459" stroke="#FF5B00" stroke-width="2.42355" stroke-linecap="round" stroke-linejoin="round"/>
<path d="M130.62 74.0869H104.769" stroke="#FF5B00" stroke-width="2.42355" stroke-linecap="round" stroke-linejoin="round"/>
<path d="M89.8547 122V110.364H93.7866C94.6957 110.364 95.4419 110.519 96.0252 110.83C96.6085 111.136 97.0404 111.559 97.3207 112.097C97.601 112.634 97.7411 113.246 97.7411 113.932C97.7411 114.617 97.601 115.225 97.3207 115.756C97.0404 116.286 96.6104 116.703 96.0309 117.006C95.4513 117.305 94.7108 117.455 93.8093 117.455H90.6275V116.182H93.7638C94.385 116.182 94.885 116.091 95.2638 115.909C95.6464 115.727 95.9229 115.47 96.0934 115.136C96.2676 114.799 96.3547 114.398 96.3547 113.932C96.3547 113.466 96.2676 113.059 96.0934 112.71C95.9191 112.362 95.6407 112.093 95.2582 111.903C94.8756 111.71 94.3699 111.614 93.7411 111.614H91.2638V122H89.8547ZM95.332 116.773L98.1957 122H96.5593L93.7411 116.773H95.332ZM103.473 122.182C102.632 122.182 101.906 121.996 101.297 121.625C100.69 121.25 100.223 120.727 99.8931 120.057C99.5673 119.383 99.4045 118.598 99.4045 117.705C99.4045 116.811 99.5673 116.023 99.8931 115.341C100.223 114.655 100.681 114.121 101.268 113.739C101.859 113.352 102.548 113.159 103.336 113.159C103.791 113.159 104.24 113.235 104.683 113.386C105.126 113.538 105.529 113.784 105.893 114.125C106.257 114.462 106.547 114.909 106.762 115.466C106.978 116.023 107.086 116.708 107.086 117.523V118.091H100.359V116.932H105.723C105.723 116.439 105.624 116 105.427 115.614C105.234 115.227 104.957 114.922 104.598 114.699C104.242 114.475 103.821 114.364 103.336 114.364C102.802 114.364 102.34 114.496 101.95 114.761C101.564 115.023 101.266 115.364 101.058 115.784C100.85 116.205 100.745 116.655 100.745 117.136V117.909C100.745 118.568 100.859 119.127 101.086 119.585C101.317 120.04 101.637 120.386 102.047 120.625C102.456 120.86 102.931 120.977 103.473 120.977C103.825 120.977 104.143 120.928 104.427 120.83C104.715 120.727 104.963 120.576 105.172 120.375C105.38 120.17 105.541 119.917 105.654 119.614L106.95 119.977C106.814 120.417 106.584 120.803 106.262 121.136C105.94 121.466 105.543 121.723 105.069 121.909C104.596 122.091 104.064 122.182 103.473 122.182ZM112.672 122.182C111.853 122.182 111.149 121.989 110.558 121.602C109.967 121.216 109.512 120.684 109.194 120.006C108.876 119.328 108.717 118.553 108.717 117.682C108.717 116.795 108.88 116.013 109.206 115.335C109.535 114.653 109.993 114.121 110.581 113.739C111.172 113.352 111.861 113.159 112.649 113.159C113.262 113.159 113.815 113.273 114.308 113.5C114.8 113.727 115.204 114.045 115.518 114.455C115.832 114.864 116.028 115.341 116.103 115.886H114.762C114.66 115.489 114.433 115.136 114.081 114.83C113.732 114.519 113.262 114.364 112.672 114.364C112.149 114.364 111.69 114.5 111.297 114.773C110.906 115.042 110.601 115.422 110.382 115.915C110.166 116.403 110.058 116.977 110.058 117.636C110.058 118.311 110.164 118.898 110.376 119.398C110.592 119.898 110.895 120.286 111.285 120.562C111.679 120.839 112.141 120.977 112.672 120.977C113.02 120.977 113.336 120.917 113.62 120.795C113.904 120.674 114.145 120.5 114.342 120.273C114.539 120.045 114.679 119.773 114.762 119.455H116.103C116.028 119.97 115.84 120.434 115.541 120.847C115.245 121.256 114.853 121.581 114.365 121.824C113.88 122.062 113.315 122.182 112.672 122.182ZM121.723 122.182C120.882 122.182 120.156 121.996 119.547 121.625C118.94 121.25 118.473 120.727 118.143 120.057C117.817 119.383 117.654 118.598 117.654 117.705C117.654 116.811 117.817 116.023 118.143 115.341C118.473 114.655 118.931 114.121 119.518 113.739C120.109 113.352 120.798 113.159 121.586 113.159C122.041 113.159 122.49 113.235 122.933 113.386C123.376 113.538 123.779 113.784 124.143 114.125C124.507 114.462 124.797 114.909 125.012 115.466C125.228 116.023 125.336 116.708 125.336 117.523V118.091H118.609V116.932H123.973C123.973 116.439 123.874 116 123.677 115.614C123.484 115.227 123.207 114.922 122.848 114.699C122.492 114.475 122.071 114.364 121.586 114.364C121.052 114.364 120.59 114.496 120.2 114.761C119.814 115.023 119.516 115.364 119.308 115.784C119.1 116.205 118.995 116.655 118.995 117.136V117.909C118.995 118.568 119.109 119.127 119.336 119.585C119.567 120.04 119.887 120.386 120.297 120.625C120.706 120.86 121.181 120.977 121.723 120.977C122.075 120.977 122.393 120.928 122.677 120.83C122.965 120.727 123.213 120.576 123.422 120.375C123.63 120.17 123.791 119.917 123.904 119.614L125.2 119.977C125.064 120.417 124.834 120.803 124.512 121.136C124.19 121.466 123.793 121.723 123.319 121.909C122.846 122.091 122.314 122.182 121.723 122.182ZM127.376 122V113.273H128.717V122H127.376ZM128.058 111.818C127.797 111.818 127.571 111.729 127.382 111.551C127.196 111.373 127.103 111.159 127.103 110.909C127.103 110.659 127.196 110.445 127.382 110.267C127.571 110.089 127.797 110 128.058 110C128.319 110 128.543 110.089 128.728 110.267C128.918 110.445 129.012 110.659 129.012 110.909C129.012 111.159 128.918 111.373 128.728 111.551C128.543 111.729 128.319 111.818 128.058 111.818ZM138.309 113.273L135.082 122H133.718L130.491 113.273H131.946L134.355 120.227H134.446L136.855 113.273H138.309ZM143.426 122.182C142.585 122.182 141.859 121.996 141.25 121.625C140.644 121.25 140.176 120.727 139.846 120.057C139.52 119.383 139.358 118.598 139.358 117.705C139.358 116.811 139.52 116.023 139.846 115.341C140.176 114.655 140.634 114.121 141.221 113.739C141.812 113.352 142.502 113.159 143.289 113.159C143.744 113.159 144.193 113.235 144.636 113.386C145.079 113.538 145.483 113.784 145.846 114.125C146.21 114.462 146.5 114.909 146.716 115.466C146.931 116.023 147.039 116.708 147.039 117.523V118.091H140.312V116.932H145.676C145.676 116.439 145.577 116 145.38 115.614C145.187 115.227 144.911 114.922 144.551 114.699C144.195 114.475 143.774 114.364 143.289 114.364C142.755 114.364 142.293 114.496 141.903 114.761C141.517 115.023 141.219 115.364 141.011 115.784C140.803 116.205 140.698 116.655 140.698 117.136V117.909C140.698 118.568 140.812 119.127 141.039 119.585C141.27 120.04 141.591 120.386 142 120.625C142.409 120.86 142.884 120.977 143.426 120.977C143.778 120.977 144.096 120.928 144.38 120.83C144.668 120.727 144.916 120.576 145.125 120.375C145.333 120.17 145.494 119.917 145.608 119.614L146.903 119.977C146.767 120.417 146.538 120.803 146.216 121.136C145.894 121.466 145.496 121.723 145.022 121.909C144.549 122.091 144.017 122.182 143.426 122.182Z" fill="#1B262C"/>
<rect x="206.205" y="24" width="72" height="72" rx="8" fill="#FF7A00" fill-opacity="0.1"/>
<path d="M232.056 49.8516H256.291L253.868 64.3929H234.479L232.056 49.8516Z" stroke="#FF5B00" stroke-width="2.42355" stroke-linecap="round" stroke-linejoin="round"/>
<path d="M236.903 72.4712C237.795 72.4712 238.519 71.7478 238.519 70.8554C238.519 69.9631 237.795 69.2397 236.903 69.2397C236.011 69.2397 235.287 69.9631 235.287 70.8554C235.287 71.7478 236.011 72.4712 236.903 72.4712Z" stroke="#FF5B00" stroke-width="3.23141" stroke-linecap="round" stroke-linejoin="round"/>
<path d="M251.444 72.4712C252.337 72.4712 253.06 71.7478 253.06 70.8554C253.06 69.9631 252.337 69.2397 251.444 69.2397C250.552 69.2397 249.829 69.9631 249.829 70.8554C249.829 71.7478 250.552 72.4712 251.444 72.4712Z" stroke="#FF5B00" stroke-width="3.23141" stroke-linecap="round" stroke-linejoin="round"/>
<path d="M232.056 49.8515L228.824 46.6201" stroke="#FF5B00" stroke-width="2.42355" stroke-linecap="round" stroke-linejoin="round"/>
<path d="M229.309 122V110.364H233.377C234.188 110.364 234.856 110.504 235.383 110.784C235.909 111.061 236.301 111.434 236.559 111.903C236.817 112.369 236.945 112.886 236.945 113.455C236.945 113.955 236.856 114.367 236.678 114.693C236.504 115.019 236.273 115.277 235.985 115.466C235.701 115.655 235.392 115.795 235.059 115.886V116C235.415 116.023 235.773 116.148 236.133 116.375C236.493 116.602 236.794 116.928 237.036 117.352C237.279 117.777 237.4 118.295 237.4 118.909C237.4 119.492 237.267 120.017 237.002 120.483C236.737 120.949 236.318 121.318 235.747 121.591C235.175 121.864 234.43 122 233.514 122H229.309ZM230.718 120.75H233.514C234.434 120.75 235.087 120.572 235.474 120.216C235.864 119.856 236.059 119.42 236.059 118.909C236.059 118.515 235.959 118.152 235.758 117.818C235.557 117.481 235.271 117.212 234.9 117.011C234.529 116.807 234.089 116.705 233.582 116.705H230.718V120.75ZM230.718 115.477H233.332C233.756 115.477 234.139 115.394 234.479 115.227C234.824 115.061 235.097 114.826 235.298 114.523C235.502 114.22 235.604 113.864 235.604 113.455C235.604 112.943 235.426 112.509 235.07 112.153C234.714 111.794 234.15 111.614 233.377 111.614H230.718V115.477ZM245.033 118.432V113.273H246.374V122H245.033V120.523H244.943C244.738 120.966 244.42 121.343 243.988 121.653C243.556 121.96 243.011 122.114 242.352 122.114C241.806 122.114 241.321 121.994 240.897 121.756C240.473 121.513 240.14 121.15 239.897 120.665C239.655 120.176 239.533 119.561 239.533 118.818V113.273H240.874V118.727C240.874 119.364 241.052 119.871 241.408 120.25C241.768 120.629 242.227 120.818 242.783 120.818C243.117 120.818 243.456 120.733 243.8 120.562C244.149 120.392 244.441 120.131 244.675 119.778C244.914 119.426 245.033 118.977 245.033 118.432ZM249.694 125.273C249.467 125.273 249.264 125.254 249.086 125.216C248.908 125.182 248.785 125.148 248.717 125.114L249.058 123.932C249.383 124.015 249.671 124.045 249.921 124.023C250.171 124 250.393 123.888 250.586 123.688C250.783 123.491 250.963 123.17 251.126 122.727L251.376 122.045L248.149 113.273H249.603L252.012 120.227H252.103L254.512 113.273H255.967L252.262 123.273C252.095 123.723 251.889 124.097 251.643 124.392C251.397 124.691 251.111 124.913 250.785 125.057C250.463 125.201 250.099 125.273 249.694 125.273Z" fill="#1B262C"/>
<path d="M76.5 156.235C76.5 154.026 78.2909 152.235 80.5 152.235H116.5C118.709 152.235 120.5 154.026 120.5 156.235V192.235C120.5 194.444 118.709 196.235 116.5 196.235H80.5C78.2909 196.235 76.5 194.444 76.5 192.235V156.235Z" fill="#FF7A00" fill-opacity="0.1"/>
<path d="M92.4 178.735L105 178.735" stroke="#FF5B00" stroke-width="1.5" stroke-linecap="round" stroke-linejoin="round"/>
<path d="M104.1 169.235L91.5 169.235" stroke="#FF5B00" stroke-width="1.5" stroke-linecap="round" stroke-linejoin="round"/>
<path d="M95.5 182.735L91.5 178.735L95.5 174.735" stroke="#FF5B00" stroke-width="1.5" stroke-linecap="round" stroke-linejoin="round"/>
<path d="M101 165.235L105 169.235L101 173.235" stroke="#FF5B00" stroke-width="1.5" stroke-linecap="round" stroke-linejoin="round"/>
<path d="M88.5913 205.69C88.5401 205.258 88.3327 204.923 87.9691 204.684C87.6055 204.446 87.1594 204.326 86.631 204.326C86.2447 204.326 85.9066 204.389 85.6168 204.514C85.3299 204.639 85.1055 204.811 84.9435 205.029C84.7844 205.248 84.7049 205.497 84.7049 205.775C84.7049 206.008 84.7603 206.208 84.8711 206.376C84.9847 206.541 85.1296 206.679 85.3058 206.789C85.4819 206.897 85.6665 206.987 85.8597 207.058C86.0529 207.126 86.2305 207.181 86.3924 207.224L87.2788 207.463C87.506 207.522 87.7589 207.605 88.0373 207.71C88.3185 207.815 88.587 207.958 88.8427 208.14C89.1012 208.319 89.3143 208.549 89.4819 208.831C89.6495 209.112 89.7333 209.457 89.7333 209.866C89.7333 210.338 89.6097 210.764 89.3626 211.144C89.1183 211.525 88.7603 211.828 88.2887 212.052C87.82 212.277 87.2504 212.389 86.5799 212.389C85.9549 212.389 85.4137 212.288 84.9563 212.086C84.5018 211.884 84.1438 211.603 83.8825 211.242C83.6239 210.882 83.4776 210.463 83.4435 209.985H84.5344C84.5629 210.315 84.6737 210.588 84.8668 210.804C85.0629 211.017 85.31 211.176 85.6083 211.281C85.9094 211.383 86.2333 211.434 86.5799 211.434C86.9833 211.434 87.3455 211.369 87.6665 211.238C87.9876 211.105 88.2418 210.92 88.4293 210.684C88.6168 210.446 88.7106 210.167 88.7106 209.849C88.7106 209.559 88.6296 209.323 88.4677 209.142C88.3058 208.96 88.0927 208.812 87.8285 208.698C87.5643 208.585 87.2788 208.485 86.9719 208.4L85.8981 208.093C85.2163 207.897 84.6765 207.617 84.2788 207.254C83.881 206.89 83.6822 206.414 83.6822 205.826C83.6822 205.338 83.8143 204.911 84.0785 204.548C84.3455 204.181 84.7035 203.897 85.1523 203.696C85.604 203.491 86.1083 203.389 86.6651 203.389C87.2276 203.389 87.7276 203.49 88.1651 203.691C88.6026 203.89 88.9492 204.163 89.2049 204.509C89.4634 204.856 89.5998 205.25 89.614 205.69H88.5913ZM92.8175 212.235L90.8232 205.69H91.88L93.2947 210.701H93.3629L94.7607 205.69H95.8345L97.2152 210.684H97.2834L98.6982 205.69H99.755L97.7607 212.235H96.772L95.3402 207.207H95.2379L93.8061 212.235H92.8175ZM103.011 212.389C102.596 212.389 102.219 212.311 101.881 212.154C101.543 211.995 101.275 211.767 101.076 211.468C100.877 211.167 100.778 210.804 100.778 210.377C100.778 210.002 100.852 209.698 100.999 209.465C101.147 209.23 101.344 209.045 101.592 208.911C101.839 208.778 102.112 208.679 102.41 208.613C102.711 208.545 103.013 208.491 103.317 208.451C103.715 208.4 104.038 208.362 104.285 208.336C104.535 208.308 104.717 208.261 104.83 208.196C104.947 208.13 105.005 208.017 105.005 207.855V207.821C105.005 207.4 104.89 207.073 104.66 206.84C104.433 206.608 104.087 206.491 103.624 206.491C103.144 206.491 102.768 206.596 102.495 206.806C102.222 207.017 102.031 207.241 101.92 207.48L100.965 207.139C101.136 206.741 101.363 206.431 101.647 206.21C101.934 205.985 102.246 205.829 102.585 205.741C102.925 205.65 103.261 205.605 103.59 205.605C103.8 205.605 104.042 205.63 104.315 205.681C104.59 205.73 104.856 205.831 105.112 205.984C105.37 206.137 105.585 206.369 105.755 206.679C105.925 206.988 106.011 207.403 106.011 207.923V212.235H105.005V211.349H104.954C104.886 211.491 104.772 211.643 104.613 211.805C104.454 211.967 104.242 212.105 103.978 212.218C103.714 212.332 103.391 212.389 103.011 212.389ZM103.164 211.485C103.562 211.485 103.897 211.407 104.17 211.251C104.445 211.095 104.653 210.893 104.792 210.646C104.934 210.399 105.005 210.139 105.005 209.866V208.946C104.962 208.997 104.869 209.044 104.724 209.086C104.582 209.126 104.417 209.161 104.229 209.193C104.045 209.221 103.864 209.247 103.688 209.269C103.515 209.289 103.374 209.306 103.266 209.321C103.005 209.355 102.761 209.41 102.533 209.487C102.309 209.561 102.127 209.673 101.988 209.823C101.852 209.971 101.783 210.173 101.783 210.429C101.783 210.778 101.913 211.042 102.171 211.221C102.433 211.397 102.763 211.485 103.164 211.485ZM107.846 214.69V205.69H108.818V206.73H108.937C109.011 206.616 109.113 206.471 109.244 206.295C109.377 206.116 109.568 205.957 109.815 205.818C110.065 205.676 110.403 205.605 110.829 205.605C111.38 205.605 111.866 205.742 112.287 206.018C112.707 206.294 113.035 206.684 113.271 207.19C113.507 207.696 113.625 208.292 113.625 208.98C113.625 209.673 113.507 210.274 113.271 210.782C113.035 211.288 112.708 211.68 112.291 211.958C111.873 212.234 111.392 212.372 110.846 212.372C110.426 212.372 110.089 212.302 109.836 212.163C109.583 212.021 109.389 211.86 109.252 211.681C109.116 211.5 109.011 211.349 108.937 211.23H108.852V214.69H107.846ZM108.835 208.963C108.835 209.457 108.907 209.893 109.052 210.271C109.197 210.646 109.409 210.94 109.687 211.153C109.966 211.363 110.306 211.468 110.71 211.468C111.13 211.468 111.481 211.358 111.762 211.136C112.047 210.911 112.26 210.61 112.402 210.233C112.547 209.852 112.619 209.429 112.619 208.963C112.619 208.502 112.548 208.088 112.406 207.718C112.267 207.346 112.055 207.052 111.771 206.836C111.49 206.617 111.136 206.508 110.71 206.508C110.301 206.508 109.957 206.612 109.679 206.819C109.4 207.024 109.19 207.311 109.048 207.68C108.906 208.046 108.835 208.474 108.835 208.963Z" fill="#1B262C"/>
<path d="M158 156.235C158 154.026 159.791 152.235 162 152.235H198C200.209 152.235 202 154.026 202 156.235V192.235C202 194.444 200.209 196.235 198 196.235H162C159.791 196.235 158 194.444 158 192.235V156.235Z" fill="#FF7A00" fill-opacity="0.1"/>
<path d="M176.054 175.096L180.001 178.166L184.052 175.236" stroke="#FF5B00" stroke-width="1.5" stroke-linecap="round" stroke-linejoin="round"/>
<path d="M180 178.235V165.235" stroke="#FF5B00" stroke-width="1.5" stroke-linecap="round" stroke-linejoin="round"/>
<path d="M174 170.235H172C170.895 170.235 170 171.131 170 172.235V181.235C170 182.34 170.895 183.235 172 183.235H188C189.105 183.235 190 182.34 190 181.235V172.235C190 171.131 189.105 170.235 188 170.235H185" stroke="#FF5B00" stroke-width="1.5" stroke-linecap="round"/>
<path d="M155.513 212.235L153.127 203.508H154.201L156.025 210.616H156.11L157.968 203.508H159.161L161.019 210.616H161.104L162.928 203.508H164.002L161.615 212.235H160.525L158.598 205.281H158.53L156.604 212.235H155.513ZM165.182 212.235V205.69H166.188V212.235H165.182ZM165.694 204.599C165.498 204.599 165.328 204.532 165.186 204.399C165.047 204.265 164.978 204.105 164.978 203.917C164.978 203.73 165.047 203.569 165.186 203.436C165.328 203.302 165.498 203.235 165.694 203.235C165.89 203.235 166.057 203.302 166.196 203.436C166.338 203.569 166.409 203.73 166.409 203.917C166.409 204.105 166.338 204.265 166.196 204.399C166.057 204.532 165.89 204.599 165.694 204.599ZM170.876 205.69V206.542H167.484V205.69H170.876ZM168.473 204.122H169.479V210.36C169.479 210.644 169.52 210.858 169.602 211C169.688 211.139 169.795 211.233 169.926 211.281C170.06 211.326 170.2 211.349 170.348 211.349C170.459 211.349 170.55 211.343 170.621 211.332C170.692 211.318 170.749 211.306 170.791 211.298L170.996 212.201C170.928 212.227 170.832 212.252 170.71 212.278C170.588 212.306 170.433 212.321 170.246 212.321C169.962 212.321 169.683 212.259 169.411 212.137C169.141 212.015 168.916 211.829 168.737 211.579C168.561 211.329 168.473 211.014 168.473 210.633V204.122ZM173.536 208.298V212.235H172.53V203.508H173.536V206.713H173.621C173.774 206.375 174.004 206.106 174.311 205.907C174.621 205.706 175.033 205.605 175.547 205.605C175.993 205.605 176.384 205.694 176.719 205.873C177.054 206.049 177.314 206.321 177.499 206.687C177.686 207.051 177.78 207.514 177.78 208.076V212.235H176.774V208.144C176.774 207.625 176.639 207.223 176.369 206.938C176.102 206.652 175.732 206.508 175.257 206.508C174.928 206.508 174.632 206.578 174.371 206.717C174.112 206.856 173.908 207.059 173.757 207.326C173.609 207.593 173.536 207.917 173.536 208.298ZM182.091 212.372C181.546 212.372 181.064 212.234 180.647 211.958C180.229 211.68 179.902 211.288 179.667 210.782C179.431 210.274 179.313 209.673 179.313 208.98C179.313 208.292 179.431 207.696 179.667 207.19C179.902 206.684 180.23 206.294 180.651 206.018C181.071 205.742 181.557 205.605 182.108 205.605C182.534 205.605 182.871 205.676 183.118 205.818C183.368 205.957 183.559 206.116 183.689 206.295C183.823 206.471 183.926 206.616 184 206.73H184.086V203.508H185.091V212.235H184.12V211.23H184C183.926 211.349 183.821 211.5 183.685 211.681C183.549 211.86 183.354 212.021 183.101 212.163C182.848 212.302 182.512 212.372 182.091 212.372ZM182.228 211.468C182.631 211.468 182.972 211.363 183.25 211.153C183.529 210.94 183.74 210.646 183.885 210.271C184.03 209.893 184.103 209.457 184.103 208.963C184.103 208.474 184.032 208.046 183.89 207.68C183.748 207.311 183.537 207.024 183.259 206.819C182.98 206.612 182.637 206.508 182.228 206.508C181.801 206.508 181.446 206.617 181.162 206.836C180.881 207.052 180.669 207.346 180.527 207.718C180.388 208.088 180.319 208.502 180.319 208.963C180.319 209.429 180.39 209.852 180.532 210.233C180.676 210.61 180.89 210.911 181.171 211.136C181.455 211.358 181.807 211.468 182.228 211.468ZM187.073 212.235V205.69H188.044V206.679H188.113C188.232 206.355 188.448 206.092 188.76 205.89C189.073 205.688 189.425 205.588 189.817 205.588C189.891 205.588 189.983 205.589 190.094 205.592C190.205 205.595 190.289 205.599 190.346 205.605V206.627C190.311 206.619 190.233 206.606 190.111 206.589C189.992 206.569 189.865 206.559 189.732 206.559C189.414 206.559 189.13 206.626 188.88 206.759C188.632 206.89 188.436 207.072 188.292 207.305C188.15 207.535 188.078 207.798 188.078 208.093V212.235H187.073ZM193.464 212.389C193.049 212.389 192.673 212.311 192.335 212.154C191.996 211.995 191.728 211.767 191.529 211.468C191.33 211.167 191.231 210.804 191.231 210.377C191.231 210.002 191.305 209.698 191.452 209.465C191.6 209.23 191.798 209.045 192.045 208.911C192.292 208.778 192.565 208.679 192.863 208.613C193.164 208.545 193.467 208.491 193.771 208.451C194.168 208.4 194.491 208.362 194.738 208.336C194.988 208.308 195.17 208.261 195.283 208.196C195.4 208.13 195.458 208.017 195.458 207.855V207.821C195.458 207.4 195.343 207.073 195.113 206.84C194.886 206.608 194.54 206.491 194.077 206.491C193.597 206.491 193.221 206.596 192.948 206.806C192.675 207.017 192.484 207.241 192.373 207.48L191.418 207.139C191.589 206.741 191.816 206.431 192.1 206.21C192.387 205.985 192.7 205.829 193.038 205.741C193.379 205.65 193.714 205.605 194.043 205.605C194.254 205.605 194.495 205.63 194.768 205.681C195.043 205.73 195.309 205.831 195.565 205.984C195.823 206.137 196.038 206.369 196.208 206.679C196.379 206.988 196.464 207.403 196.464 207.923V212.235H195.458V211.349H195.407C195.339 211.491 195.225 211.643 195.066 211.805C194.907 211.967 194.695 212.105 194.431 212.218C194.167 212.332 193.844 212.389 193.464 212.389ZM193.617 211.485C194.015 211.485 194.35 211.407 194.623 211.251C194.898 211.095 195.106 210.893 195.245 210.646C195.387 210.399 195.458 210.139 195.458 209.866V208.946C195.415 208.997 195.322 209.044 195.177 209.086C195.035 209.126 194.87 209.161 194.683 209.193C194.498 209.221 194.317 209.247 194.141 209.269C193.968 209.289 193.827 209.306 193.719 209.321C193.458 209.355 193.214 209.41 192.987 209.487C192.762 209.561 192.58 209.673 192.441 209.823C192.305 209.971 192.237 210.173 192.237 210.429C192.237 210.778 192.366 211.042 192.624 211.221C192.886 211.397 193.217 211.485 193.617 211.485ZM199.782 212.235L197.788 205.69H198.845L200.26 210.701H200.328L201.725 205.69H202.799L204.18 210.684H204.248L205.663 205.69H206.72L204.725 212.235H203.737L202.305 207.207H202.203L200.771 212.235H199.782Z" fill="#1B262C"/>
<path d="M239.5 156.235C239.5 154.026 241.291 152.235 243.5 152.235H279.5C281.709 152.235 283.5 154.026 283.5 156.235V192.235C283.5 194.444 281.709 196.235 279.5 196.235H243.5C241.291 196.235 239.5 194.444 239.5 192.235V156.235Z" fill="#FF7A00" fill-opacity="0.1"/>
<path d="M261.5 166.235V179.235" stroke="#FF5B00" stroke-width="1.5" stroke-linecap="round" stroke-linejoin="round"/>
<path d="M256.5 170.235L261.5 165.235L266.5 170.235" stroke="#FF5B00" stroke-width="1.5" stroke-linecap="round" stroke-linejoin="round"/>
<path d="M269.5 183.235H253.5" stroke="#FF5B00" stroke-width="1.5" stroke-linecap="round" stroke-linejoin="round"/>
<path d="M252.775 205.69C252.724 205.258 252.516 204.923 252.153 204.684C251.789 204.446 251.343 204.326 250.815 204.326C250.428 204.326 250.09 204.389 249.8 204.514C249.513 204.639 249.289 204.811 249.127 205.029C248.968 205.248 248.888 205.497 248.888 205.775C248.888 206.008 248.944 206.208 249.055 206.376C249.168 206.541 249.313 206.679 249.489 206.789C249.665 206.897 249.85 206.987 250.043 207.058C250.237 207.126 250.414 207.181 250.576 207.224L251.462 207.463C251.69 207.522 251.942 207.605 252.221 207.71C252.502 207.815 252.771 207.958 253.026 208.14C253.285 208.319 253.498 208.549 253.665 208.831C253.833 209.112 253.917 209.457 253.917 209.866C253.917 210.338 253.793 210.764 253.546 211.144C253.302 211.525 252.944 211.828 252.472 212.052C252.004 212.277 251.434 212.389 250.763 212.389C250.138 212.389 249.597 212.288 249.14 212.086C248.685 211.884 248.327 211.603 248.066 211.242C247.808 210.882 247.661 210.463 247.627 209.985H248.718C248.746 210.315 248.857 210.588 249.05 210.804C249.246 211.017 249.494 211.176 249.792 211.281C250.093 211.383 250.417 211.434 250.763 211.434C251.167 211.434 251.529 211.369 251.85 211.238C252.171 211.105 252.425 210.92 252.613 210.684C252.8 210.446 252.894 210.167 252.894 209.849C252.894 209.559 252.813 209.323 252.651 209.142C252.489 208.96 252.276 208.812 252.012 208.698C251.748 208.585 251.462 208.485 251.156 208.4L250.082 208.093C249.4 207.897 248.86 207.617 248.462 207.254C248.065 206.89 247.866 206.414 247.866 205.826C247.866 205.338 247.998 204.911 248.262 204.548C248.529 204.181 248.887 203.897 249.336 203.696C249.788 203.491 250.292 203.389 250.849 203.389C251.411 203.389 251.911 203.49 252.349 203.691C252.786 203.89 253.133 204.163 253.388 204.509C253.647 204.856 253.783 205.25 253.798 205.69H252.775ZM258.262 212.372C257.632 212.372 257.088 212.233 256.63 211.954C256.176 211.673 255.825 211.281 255.578 210.778C255.333 210.272 255.211 209.684 255.211 209.014C255.211 208.343 255.333 207.752 255.578 207.241C255.825 206.727 256.169 206.326 256.609 206.039C257.052 205.75 257.569 205.605 258.16 205.605C258.501 205.605 258.838 205.661 259.17 205.775C259.502 205.889 259.805 206.073 260.078 206.329C260.35 206.582 260.568 206.917 260.73 207.335C260.892 207.752 260.973 208.267 260.973 208.877V209.304H255.927V208.434H259.95C259.95 208.065 259.876 207.735 259.728 207.446C259.583 207.156 259.376 206.927 259.106 206.759C258.839 206.592 258.524 206.508 258.16 206.508C257.76 206.508 257.413 206.608 257.12 206.806C256.831 207.002 256.608 207.258 256.451 207.573C256.295 207.889 256.217 208.227 256.217 208.588V209.167C256.217 209.661 256.302 210.081 256.473 210.424C256.646 210.765 256.886 211.025 257.193 211.204C257.5 211.38 257.856 211.468 258.262 211.468C258.527 211.468 258.765 211.431 258.978 211.358C259.194 211.281 259.38 211.167 259.537 211.017C259.693 210.863 259.814 210.673 259.899 210.446L260.87 210.718C260.768 211.048 260.596 211.338 260.355 211.588C260.113 211.835 259.815 212.028 259.46 212.167C259.105 212.304 258.706 212.372 258.262 212.372ZM263.508 208.298V212.235H262.502V205.69H263.474V206.713H263.559C263.713 206.38 263.946 206.113 264.258 205.911C264.571 205.707 264.974 205.605 265.468 205.605C265.912 205.605 266.299 205.696 266.632 205.877C266.964 206.056 267.223 206.329 267.407 206.696C267.592 207.059 267.684 207.519 267.684 208.076V212.235H266.679V208.144C266.679 207.63 266.545 207.23 266.278 206.943C266.011 206.653 265.645 206.508 265.179 206.508C264.858 206.508 264.571 206.578 264.318 206.717C264.068 206.856 263.87 207.059 263.725 207.326C263.581 207.593 263.508 207.917 263.508 208.298ZM271.994 212.372C271.448 212.372 270.967 212.234 270.549 211.958C270.131 211.68 269.805 211.288 269.569 210.782C269.333 210.274 269.215 209.673 269.215 208.98C269.215 208.292 269.333 207.696 269.569 207.19C269.805 206.684 270.133 206.294 270.553 206.018C270.974 205.742 271.46 205.605 272.011 205.605C272.437 205.605 272.773 205.676 273.021 205.818C273.271 205.957 273.461 206.116 273.592 206.295C273.725 206.471 273.829 206.616 273.903 206.73H273.988V203.508H274.994V212.235H274.022V211.23H273.903C273.829 211.349 273.724 211.5 273.587 211.681C273.451 211.86 273.256 212.021 273.004 212.163C272.751 212.302 272.414 212.372 271.994 212.372ZM272.13 211.468C272.533 211.468 272.874 211.363 273.153 211.153C273.431 210.94 273.643 210.646 273.788 210.271C273.933 209.893 274.005 209.457 274.005 208.963C274.005 208.474 273.934 208.046 273.792 207.68C273.65 207.311 273.44 207.024 273.161 206.819C272.883 206.612 272.539 206.508 272.13 206.508C271.704 206.508 271.349 206.617 271.065 206.836C270.783 207.052 270.572 207.346 270.43 207.718C270.29 208.088 270.221 208.502 270.221 208.963C270.221 209.429 270.292 209.852 270.434 210.233C270.579 210.61 270.792 210.911 271.073 211.136C271.357 211.358 271.71 211.468 272.13 211.468Z" fill="#1B262C"/>
</svg>
