<svg width="24" height="24" viewBox="0 0 24 24" stroke="white" fill="white"
  xmlns="http://www.w3.org/2000/svg">
  <path d="M1.93882 7.89773L1.93997 7.89888L8.55744 7.89773V5.34029H5.04384C6.67507 3.63034 8.97024 2.56013 11.52 2.56013C16.4675 2.56013 20.4799 6.57139 20.4799 11.52H23.04C23.04 5.1575 17.8825 0 11.52 0C8.25638 0 5.31494 1.36358 3.22022 3.54509L3.21869 0.000383789H0.660095V6.61786C0.660095 7.32557 1.23264 7.89773 1.93882 7.89773Z"/>
  <path d="M21.1001 15.143V15.1418L14.4826 15.143V17.7005H17.995C16.3649 19.4105 14.0701 20.4803 11.52 20.4803C6.57254 20.4803 2.56013 16.4694 2.56013 11.5204H0C0 17.8829 5.1575 23.0404 11.52 23.0404C14.7824 23.0404 17.7251 21.6764 19.8198 19.4957V23.0404H22.3799V16.423C22.3799 15.7156 21.8074 15.143 21.1001 15.143Z"/>
</svg>
