<svg viewBox="0 0 24 24" xmlns="http://www.w3.org/2000/svg">
  <path
    d="M9.30176 20.4961C8.16797 20.4961 7.56152 20.1182 6.95508 19.4414L3.5625 15.6709C2.95605 14.9941 2.79785 14.5459 2.79785 13.623V9.69434C2.79785 8.77148 2.95605 8.32324 3.5625 7.64648L6.95508 3.86719C7.56152 3.19922 8.16797 2.82129 9.30176 2.82129H14.6807C15.8145 2.82129 16.4385 3.19922 17.0361 3.86719L20.3848 7.64648C21.0088 8.34082 21.1934 8.77148 21.1934 9.69434V13.623C21.1934 14.5459 21.0352 14.9941 20.4199 15.6709L17.0361 19.4414C16.4297 20.1182 15.8145 20.4961 14.6807 20.4961H9.30176ZM12 13.1748C12.501 13.1748 12.791 12.8936 12.8086 12.3662L12.9404 7.94531C12.958 7.40918 12.5537 7.02246 11.9912 7.02246C11.4287 7.02246 11.0332 7.40039 11.0508 7.93652L11.1826 12.3662C11.1914 12.8848 11.4902 13.1748 12 13.1748ZM12 16.1982C12.5889 16.1982 13.0723 15.7852 13.0723 15.1963C13.0723 14.625 12.5977 14.1943 12 14.1943C11.4111 14.1943 10.9277 14.625 10.9277 15.1963C10.9277 15.7764 11.4111 16.1982 12 16.1982Z"
    fill="#FF3B30"
  />
</svg>
