<svg viewBox="0 0 24 24" xmlns="http://www.w3.org/2000/svg">
  <path
    d="M12 20.7334C7.03418 20.7334 2.9209 16.6289 2.9209 11.6543C2.9209 6.68848 7.02539 2.5752 11.9912 2.5752C16.9658 2.5752 21.0791 6.68848 21.0791 11.6543C21.0791 16.6289 16.9658 20.7334 12 20.7334ZM11.9473 8.64844C12.6416 8.64844 13.1953 8.08594 13.1953 7.3916C13.1953 6.67969 12.6416 6.12598 11.9473 6.12598C11.2529 6.12598 10.6904 6.67969 10.6904 7.3916C10.6904 8.08594 11.2529 8.64844 11.9473 8.64844ZM10.3828 16.7168H14.0918C14.5049 16.7168 14.8301 16.418 14.8301 15.9961C14.8301 15.6094 14.5049 15.293 14.0918 15.293H13.0811V10.9775C13.0811 10.4238 12.7998 10.0635 12.2812 10.0635H10.5498C10.1367 10.0635 9.82031 10.3799 9.82031 10.7666C9.82031 11.1885 10.1367 11.4873 10.5498 11.4873H11.4727V15.293H10.3828C9.96973 15.293 9.65332 15.6094 9.65332 15.9961C9.65332 16.418 9.96973 16.7168 10.3828 16.7168Z"
    fill="#1373E4"
  />
</svg>
