<svg viewBox="0 0 24 24" xmlns="http://www.w3.org/2000/svg">
  <path
    d="M12 20.7334C7.03418 20.7334 2.9209 16.6289 2.9209 11.6543C2.9209 6.68848 7.02539 2.5752 11.9912 2.5752C16.9658 2.5752 21.0791 6.68848 21.0791 11.6543C21.0791 16.6289 16.9658 20.7334 12 20.7334ZM11.0244 15.9961C11.3496 15.9961 11.6309 15.8291 11.833 15.5303L15.9463 9.11426C16.0693 8.9209 16.1748 8.70117 16.1748 8.49902C16.1748 8.04199 15.7793 7.73437 15.3398 7.73437C15.0586 7.73437 14.8125 7.88379 14.6279 8.19141L10.9893 14.0098L9.29297 11.8564C9.07324 11.5752 8.8623 11.4697 8.58984 11.4697C8.13281 11.4697 7.78125 11.8389 7.78125 12.2871C7.78125 12.5068 7.86035 12.7178 8.01855 12.9111L10.1719 15.5303C10.418 15.8467 10.6904 15.9961 11.0244 15.9961Z"
    fill="#34CC4E"
  />
</svg>
