<svg viewBox="0 0 24 24" xmlns="http://www.w3.org/2000/svg">
  <path
    d="M5.20605 20.083C3.66797 20.083 2.70996 18.9756 2.70996 17.5957C2.70996 17.1738 2.82422 16.7432 3.06152 16.3301L9.86426 4.46484C10.3301 3.63867 11.1562 3.2168 12 3.2168C12.835 3.2168 13.6611 3.63867 14.1357 4.46484L20.9385 16.3301C21.167 16.7344 21.29 17.1738 21.29 17.5957C21.29 18.9756 20.3232 20.083 18.7939 20.083H5.20605ZM12.0088 14.0625C12.501 14.0625 12.791 13.7812 12.8086 13.2451L12.9404 8.82422C12.958 8.28809 12.5537 7.91016 12 7.91016C11.4287 7.91016 11.042 8.28809 11.0596 8.82422L11.1826 13.2539C11.2002 13.7725 11.4902 14.0625 12.0088 14.0625ZM12.0088 17.0859C12.5889 17.0859 13.0811 16.6641 13.0811 16.084C13.0811 15.5039 12.5977 15.082 12.0088 15.082C11.4111 15.082 10.9277 15.5127 10.9277 16.084C10.9277 16.6641 11.4199 17.0859 12.0088 17.0859Z"
    fill="#FFD600"
  />
</svg>
