<svg width="56" height="57" viewBox="0 0 56 57" fill="none" xmlns="http://www.w3.org/2000/svg">
<g clip-path="url(#clip0_9131_197670)">
<mask id="mask0_9131_197670" style="mask-type:luminance" maskUnits="userSpaceOnUse" x="0" y="0" width="56" height="57">
<path d="M56 0.5H0V56.5H56V0.5Z" fill="white"/>
</mask>
<g mask="url(#mask0_9131_197670)">
<path d="M40.4144 47.1219L15.5844 47.1219C12.1562 47.1219 9.37695 44.3426 9.37695 40.9144L9.37695 16.0844C9.37695 12.6562 12.1562 9.87695 15.5844 9.87695L40.4144 9.87695C43.8426 9.87695 46.6219 12.6562 46.6219 16.0844L46.6219 40.9144C46.6219 44.3426 43.8426 47.1219 40.4144 47.1219Z" fill="#1373E4"/>
<path d="M28.2517 41.2925C35.6339 41.2925 40.5379 36.1106 40.5379 28.7966C40.5379 27.959 40.4508 27.3126 40.3298 26.6679L28.2534 26.6679L28.2534 31.0652L35.5144 31.0652C35.2178 32.9329 33.3159 36.5797 28.2534 36.5797C23.892 36.5797 20.3303 32.967 20.3303 28.4998C20.3303 24.0326 23.8902 20.4182 28.2534 20.4182C30.7489 20.4182 32.4067 21.4824 33.35 22.39L36.8229 19.0571C34.5867 16.9642 31.7074 15.707 28.2517 15.707C21.1832 15.707 15.459 21.4314 15.459 28.4998C15.459 35.5682 21.1832 41.2925 28.2517 41.2925Z" fill="white"/>
</g>
</g>
<defs>
<clipPath id="clip0_9131_197670">
<rect width="56" height="56" fill="white" transform="translate(0 0.5)"/>
</clipPath>
</defs>
</svg>
