<svg width="13" height="16" viewBox="0 0 13 16" fill="none" xmlns="http://www.w3.org/2000/svg">
<path fill-rule="evenodd" clip-rule="evenodd" d="M12.0969 15.795C12.4843 15.795 12.7984 15.4835 12.7984 15.0991V14.2788C12.7984 13.8945 12.4843 13.583 12.0969 13.583H0.701426C0.314081 13.583 0 13.8945 0 14.2788V15.0991C0 15.4835 0.314081 15.795 0.701426 15.795H12.0969Z" fill="#0CCA4A"/>
<path fill-rule="evenodd" clip-rule="evenodd" d="M11.6375 8.66061L8.2898 5.33938L11.6375 2.01803C11.8794 1.77805 11.8794 1.38911 11.6375 1.14912L10.6607 0.179991C10.4189 -0.0599971 10.0268 -0.0599971 9.78489 0.179991L6.43715 3.50134L3.0894 0.179991C2.84751 -0.0599971 2.45548 -0.0599971 2.21358 0.179991L1.23675 1.14912C0.994976 1.38911 0.994976 1.77805 1.23675 2.01803L4.58449 5.33938L1.23675 8.66061C0.994976 8.9006 0.994976 9.28953 1.23675 9.52952L2.21358 10.4987C2.45548 10.7385 2.84763 10.7385 3.0894 10.4987L6.43715 7.17742L9.78489 10.4988C10.0268 10.7386 10.4189 10.7386 10.6607 10.4988L11.6375 9.52964C11.8794 9.28965 11.8794 8.9006 11.6375 8.66061Z" fill="black"/>
</svg>
