<svg viewBox="0 0 24 24" xmlns="http://www.w3.org/2000/svg">
  <path
    stroke="none"
    d="M4.78809 10.6768H5.75195C6.40137 7.45703 9.2793 5.00293 12.6699 5.00293C16.5391 5.00293 19.7314 8.20215 19.7314 12.0645C19.7314 15.9336 16.5391 19.126 12.6699 19.126C10.4551 19.126 8.38379 18.0117 7.11914 16.3574C6.81836 15.9951 6.87988 15.5576 7.19434 15.332C7.5293 15.0928 7.92578 15.1953 8.19922 15.5166C9.23145 16.8701 10.8379 17.7314 12.6699 17.7383C15.8213 17.7451 18.3438 15.209 18.3438 12.0645C18.3438 8.91992 15.8213 6.39746 12.6699 6.39746C10.0039 6.39746 7.78223 8.20898 7.17383 10.6768H8.1582C8.68457 10.6768 8.82129 11.0801 8.53418 11.4697L6.87988 13.7734C6.6543 14.0879 6.29883 14.0947 6.06641 13.7734L4.41211 11.4766C4.11816 11.0732 4.25488 10.6768 4.78809 10.6768ZM12.4102 7.9834C12.7656 7.9834 13.0596 8.27051 13.0596 8.62598V12.249L14.6729 14.4365C14.9121 14.7715 14.8916 15.1611 14.584 15.373C14.249 15.5986 13.8799 15.5371 13.6064 15.1816L11.9521 12.9941C11.8154 12.8232 11.7676 12.666 11.7676 12.502V8.62598C11.7676 8.27051 12.0547 7.9834 12.4102 7.9834Z"
  />
</svg>
