<svg viewBox="0 0 24 24" xmlns="http://www.w3.org/2000/svg">
  <path
    stroke="none"
    d="M11.9932 12.0918C10.3389 12.0918 8.99902 10.6357 8.99902 8.84473C8.99902 7.08105 10.3389 5.67969 11.9932 5.67969C13.6338 5.67969 14.9873 7.10156 14.9805 8.8584C14.9805 10.6426 13.6406 12.0918 11.9932 12.0918ZM11.9932 10.9092C12.9434 10.9092 13.7432 10.0137 13.7432 8.8584C13.75 7.73047 12.9502 6.8623 11.9932 6.8623C11.0293 6.8623 10.2432 7.7168 10.2432 8.84473C10.2432 10 11.0361 10.9092 11.9932 10.9092ZM13.5244 18.4492H7.73438C6.55176 18.4492 5.98438 18.0732 5.98438 17.2734C5.98438 15.4072 8.3291 12.8916 11.9932 12.8916C13.1895 12.8916 14.2422 13.1582 15.1104 13.5957C14.7822 13.8623 14.4883 14.1699 14.249 14.5186C13.6201 14.2451 12.8613 14.0742 11.9932 14.0742C8.97852 14.0742 7.2832 16.043 7.2832 17.0889C7.2832 17.2187 7.34473 17.2666 7.50879 17.2666H13.333C13.3398 17.6836 13.3945 18.0527 13.5244 18.4492ZM17.8242 20.6846C15.8965 20.6846 14.3037 19.0986 14.3037 17.1641C14.3037 15.2432 15.8965 13.6504 17.8242 13.6504C19.752 13.6504 21.3379 15.2363 21.3379 17.1641C21.3379 19.085 19.7314 20.6846 17.8242 20.6846ZM17.8242 19.3994C18.1045 19.3994 18.2891 19.208 18.2891 18.9346V17.6357H19.5811C19.8613 17.6357 20.0459 17.4512 20.0459 17.1709C20.0459 16.8838 19.8613 16.6992 19.5811 16.6992H18.2891V15.4072C18.2891 15.127 18.1045 14.9424 17.8242 14.9424C17.5371 14.9424 17.3594 15.1338 17.3594 15.4072V16.6992H16.0605C15.7803 16.6992 15.5957 16.8838 15.5957 17.1709C15.5957 17.4512 15.7803 17.6357 16.0605 17.6357H17.3594V18.9346C17.3594 19.208 17.5371 19.3994 17.8242 19.3994Z"
  />
</svg>
