<svg width="24" height="24" viewBox="0 0 24 24" fill="none" xmlns="http://www.w3.org/2000/svg">
  <path
    d="M4.93164 13.6504C3.88574 12.6045 3.87207 11.5312 4.91113 10.4922L10.4277 4.98242C11.4668 3.94336 12.5332 3.9502 13.5791 4.99609L19.0615 10.4785C20.1074 11.5244 20.1143 12.5977 19.0752 13.6367L13.5654 19.1465C12.5332 20.1855 11.46 20.1787 10.4141 19.1328L4.93164 13.6504ZM5.93652 12.7617L11.2959 18.1279C11.7471 18.5791 12.2256 18.5928 12.6973 18.1211L18.0498 12.7686C18.5215 12.2969 18.5078 11.8252 18.0566 11.3672L12.6904 6.00098C12.2324 5.54297 11.7676 5.53613 11.2959 6.00781L5.94336 11.3604C5.46484 11.832 5.48535 12.3037 5.93652 12.7617ZM8.8418 12.0645C8.8418 11.6816 9.10156 11.415 9.48438 11.415H11.3574V9.54199C11.3574 9.15918 11.624 8.89941 11.9932 8.89941C12.3691 8.89941 12.6426 9.15918 12.6426 9.54199V11.415H14.5225C14.8984 11.415 15.1582 11.6816 15.1582 12.0645C15.1582 12.4336 14.8916 12.6934 14.5225 12.6934H12.6426V14.5732C12.6426 14.9492 12.3691 15.2158 11.9932 15.2158C11.624 15.2158 11.3574 14.9492 11.3574 14.5732V12.6934L9.48438 12.6934C9.1084 12.6934 8.8418 12.4336 8.8418 12.0645Z"
    stroke="none"
  />
</svg>
