<svg width="24" height="24" viewBox="0 0 24 24" fill="none" xmlns="http://www.w3.org/2000/svg">
  <path
    d="M5.62891 17.5332V7.34082C5.62891 6.08301 6.35352 5.44043 7.50879 5.36523C9.9082 5.22168 12.0137 4.87305 13.9072 4.43555C15.2744 4.11426 16.0674 4.79102 16.0674 6.20605V16.207C16.0674 17.4102 15.6914 17.9844 14.6729 18.2783C12.1846 18.9756 10.0244 19.2422 7.72754 19.3584C6.39453 19.4404 5.62891 18.7705 5.62891 17.5332ZM11.2686 19.9941C12.4375 19.8096 13.6611 19.5566 14.9395 19.208C16.334 18.8047 17.0518 17.9434 17.0518 16.207V6.24707C17.0518 6.02148 17.0312 5.80273 16.9971 5.5498C17.8994 5.77539 18.3711 6.47949 18.3711 7.62793V17.7588C18.3711 19.2422 17.626 19.9941 16.1631 19.9941H11.2686ZM6.91406 17.3145C6.91406 17.8271 7.24219 18.1074 7.78223 18.0801C10.0176 17.9639 12.0889 17.7109 14.1123 17.1299C14.6113 17 14.7891 16.7334 14.7891 16.1592V6.45215C14.7891 5.8916 14.4473 5.59082 13.8799 5.7207C12.0068 6.15137 9.93555 6.5 7.7002 6.62305C7.23535 6.65039 6.91406 6.8623 6.91406 7.375V17.3145ZM8.39746 9.06348C8.1582 9.07715 7.9873 8.89941 7.9873 8.67383C7.9873 8.46191 8.11719 8.28418 8.39062 8.26367C10.2705 8.14062 11.7744 7.87402 13.2305 7.5459C13.5381 7.47754 13.7158 7.67578 13.7158 7.89453C13.7158 8.09277 13.6338 8.25684 13.3125 8.33203C11.7812 8.67383 10.2773 8.94043 8.39746 9.06348ZM8.39746 11.1826C8.1582 11.1963 7.9873 11.0254 7.9873 10.793C7.9873 10.5811 8.11719 10.4033 8.39062 10.3828C10.2705 10.2598 11.7744 9.99316 13.2305 9.67188C13.5381 9.60352 13.7158 9.79492 13.7158 10.0205C13.7158 10.2119 13.6338 10.3828 13.3125 10.458C11.7812 10.793 10.2773 11.0596 8.39746 11.1826ZM8.39746 13.3086C8.1582 13.3223 7.9873 13.1445 7.9873 12.9189C7.9873 12.707 8.11719 12.5293 8.39062 12.5088C10.2705 12.3789 11.7744 12.1191 13.2305 11.791C13.5381 11.7227 13.7158 11.9209 13.7158 12.1396C13.7158 12.3379 13.6338 12.502 13.3125 12.5771C11.7812 12.9189 10.2773 13.1787 8.39746 13.3086ZM8.39746 15.4209C8.1582 15.4346 7.9873 15.2637 7.9873 15.0312C7.9873 14.8193 8.11719 14.6416 8.39062 14.6211C9.46387 14.5596 10.168 14.4639 10.79 14.3613C11.1182 14.3066 11.2822 14.5117 11.2822 14.7236C11.2822 14.9082 11.1592 15.0996 10.9268 15.1406C10.2158 15.2568 9.49121 15.3594 8.39746 15.4209Z"
    stroke="none"
  />
</svg>
