<svg viewBox="0 0 26 24" xmlns="http://www.w3.org/2000/svg">
  <path
    stroke="none"
    d="M7.1377 15.9258C6.75977 15.9258 6.4873 15.6973 6.39941 15.3369L6.05664 13.9131C5.81934 13.8252 5.59082 13.7373 5.38867 13.6318L4.13184 14.4053C3.82422 14.5986 3.45508 14.5635 3.19141 14.2998L2.35645 13.4561C2.09277 13.1924 2.05762 12.8145 2.25098 12.498L3.02441 11.2588C2.91895 11.0479 2.82227 10.8281 2.75195 10.6172L1.31934 10.2656C0.950195 10.1777 0.730469 9.91406 0.730469 9.52734V8.34961C0.730469 7.97168 0.950195 7.69922 1.31934 7.61133L2.73438 7.25977C2.82227 7.01367 2.91895 6.79395 3.00684 6.60938L2.25098 5.34375C2.05762 5.00977 2.06641 4.66699 2.33887 4.40332L3.19141 3.55957C3.45508 3.30469 3.80664 3.25195 4.11426 3.44531L5.37988 4.21875C5.58203 4.10449 5.81934 4.02539 6.05664 3.9375L6.39941 2.49609C6.4873 2.14453 6.75977 1.91602 7.1377 1.91602H8.3418C8.71973 1.91602 8.99219 2.14453 9.08008 2.49609L9.43164 3.95508C9.66895 4.03418 9.89746 4.12207 10.0908 4.22754L11.3652 3.44531C11.6729 3.25195 12.0244 3.31348 12.2881 3.55957L13.1406 4.40332C13.4131 4.66699 13.4219 5.00977 13.2285 5.34375L12.4814 6.60938C12.5693 6.79395 12.6572 7.01367 12.7451 7.25977L14.1602 7.61133C14.5293 7.69922 14.749 7.97168 14.749 8.34961V9.52734C14.749 9.91406 14.5293 10.1777 14.1602 10.2656L12.7275 10.6172C12.6572 10.8281 12.5605 11.0479 12.4551 11.2588L13.2285 12.498C13.4219 12.8145 13.3867 13.1924 13.123 13.4561L12.2881 14.2998C12.0244 14.5635 11.6553 14.5986 11.3477 14.4053L10.0908 13.6318C9.88867 13.7373 9.66016 13.8252 9.43164 13.9131L9.08008 15.3369C8.99219 15.6973 8.71973 15.9258 8.3418 15.9258H7.1377ZM7.74414 11.0566C8.92188 11.0566 9.88867 10.0986 9.88867 8.91211C9.88867 7.72559 8.92188 6.76758 7.74414 6.76758C6.55762 6.76758 5.59961 7.72559 5.59961 8.91211C5.59961 10.0986 6.55762 11.0566 7.74414 11.0566ZM18.7217 21.4102C18.3877 21.4102 18.1504 21.208 18.0713 20.9004L17.7725 19.6611C17.5791 19.5908 17.377 19.5205 17.2012 19.4238L16.1289 20.0918C15.8564 20.2676 15.54 20.2412 15.3027 20.0039L14.5996 19.292C14.3711 19.0547 14.3271 18.7207 14.5117 18.457L15.1709 17.3848C15.083 17.209 15.0039 17.0244 14.9512 16.8311L13.7031 16.541C13.3867 16.4707 13.1934 16.2246 13.1934 15.8906V14.8975C13.1934 14.5547 13.3867 14.3174 13.7031 14.2471L14.9248 13.9395C15.0039 13.7285 15.083 13.5439 15.1533 13.3857L14.5117 12.2959C14.3359 12.0059 14.3447 11.707 14.5908 11.4697L15.3027 10.7666C15.54 10.5381 15.8477 10.5029 16.1113 10.6611L17.1924 11.3379C17.3682 11.2324 17.5703 11.1709 17.7725 11.0918L18.0713 9.84375C18.1504 9.53613 18.3877 9.33398 18.7217 9.33398H19.7236C20.0752 9.33398 20.3125 9.53613 20.3828 9.84375L20.6729 11.1094C20.8838 11.1709 21.0771 11.2588 21.2529 11.3467L22.3428 10.6611C22.6064 10.4941 22.9053 10.5469 23.1426 10.7666L23.8721 11.4697C24.1094 11.707 24.127 12.0059 23.9512 12.2959L23.292 13.3857C23.3799 13.5439 23.4502 13.7285 23.5205 13.9395L24.7598 14.2471C25.0762 14.3174 25.2607 14.5547 25.2607 14.8975V15.8906C25.2607 16.2246 25.0762 16.4707 24.7598 16.541L23.5117 16.8311C23.4502 17.0244 23.3799 17.209 23.2832 17.3848L23.9512 18.457C24.127 18.7295 24.083 19.0547 23.8545 19.292L23.1426 20.0039C22.9141 20.2412 22.5977 20.2676 22.334 20.0918L21.2529 19.415C21.0684 19.5205 20.8838 19.5908 20.6729 19.6611L20.3828 20.9004C20.3125 21.208 20.0752 21.4102 19.7236 21.4102H18.7217ZM19.2314 17.0684C20.1719 17.0684 20.9277 16.3037 20.9277 15.3633C20.9277 14.4229 20.1719 13.667 19.2314 13.667C18.291 13.667 17.5264 14.4229 17.5264 15.3633C17.5264 16.3037 18.291 17.0684 19.2314 17.0684Z"
  />
</svg>
