<svg viewBox="0 0 24 24" xmlns="http://www.w3.org/2000/svg">
  <path
    stroke="none"
    d="M20.1035 19.5117C19.0049 19.5117 18.2227 18.7295 18.2227 17.6221V4.02539C18.2227 2.91797 19.0049 2.13574 20.1035 2.13574C21.2197 2.13574 21.9932 2.91797 21.9932 4.02539V17.6221C21.9932 18.7295 21.2197 19.5117 20.1035 19.5117ZM8.81836 15.1348V6.5918C11.1299 6.33691 14.4873 5.52832 16.9834 4.29785C16.9746 4.41211 16.9746 4.50879 16.9746 4.62305V17.1035C16.9746 17.209 16.9746 17.3145 16.9834 17.4199C14.4697 16.1807 11.3408 15.416 8.81836 15.1348ZM5.76855 15.126C3.3252 15.126 1.99805 13.8428 1.99805 11.4785V10.2305C1.99805 7.875 3.3252 6.5918 5.76855 6.5918H7.55273V15.126H5.76855ZM9.33691 21.1729C8.27344 21.1729 7.71973 20.6016 7.25391 19.6084L5.70703 16.3652C5.96191 16.3652 6.2168 16.3828 6.36621 16.3828C8.61621 16.4355 9.72363 16.5322 10.5146 16.6816L11.0156 18.958C11.3232 20.3379 10.4795 21.1729 9.33691 21.1729Z" />
</svg>
