<svg viewBox="0 0 24 24" xmlns="http://www.w3.org/2000/svg">
    <path d="M17.291 18.5723C17.291 18.9893 16.9902 19.3037 16.5732 19.3037H7.44043C7.0166 19.3037 6.70898 18.9893 6.70898 18.5723C6.70898 18.1484 7.0166 17.834 7.44043 17.834H11.9385C11.7539 17.8203 11.583 17.7314 11.4463 17.5947L6.94141 13.083C6.78418 12.9189 6.70898 12.7412 6.70898 12.543C6.70898 12.126 7.0166 11.8184 7.42676 11.8184C7.63184 11.8184 7.82324 11.9004 7.95312 12.0371L9.50488 13.5684L11.3096 15.5781L11.2549 14.1084V5.61133C11.2549 5.16016 11.5625 4.85254 12 4.85254C12.4443 4.85254 12.752 5.16016 12.752 5.61133V14.1084L12.6904 15.585L14.4951 13.5684L16.0469 12.0371C16.1836 11.9004 16.3682 11.8184 16.5801 11.8184C16.9902 11.8184 17.291 12.126 17.291 12.543C17.291 12.7412 17.2158 12.9189 17.0586 13.083L12.5605 17.5947C12.4238 17.7314 12.2461 17.8203 12.0684 17.834H16.5732C16.9902 17.834 17.291 18.1484 17.291 18.5723Z"
          stroke="none"/>
</svg>
