<svg viewBox="0 0 24 24" xmlns="http://www.w3.org/2000/svg">
  <path
    stroke="none"
    d="M5.20605 20.083C3.66797 20.083 2.70996 18.9756 2.70996 17.5957C2.70996 17.1738 2.82422 16.7432 3.06152 16.3301L9.86426 4.46484C10.3301 3.63867 11.1562 3.2168 12 3.2168C12.835 3.2168 13.6611 3.63867 14.1357 4.46484L20.9385 16.3301C21.167 16.7344 21.29 17.1738 21.29 17.5957C21.29 18.9756 20.3232 20.083 18.7939 20.083H5.20605ZM5.35547 18.4307H18.6357C19.1807 18.4307 19.5322 18 19.5322 17.5166C19.5322 17.3672 19.4971 17.1826 19.4092 17.0244L12.7559 5.37891C12.5889 5.08887 12.29 4.96582 12 4.96582C11.71 4.96582 11.4023 5.08887 11.2354 5.37891L4.58203 17.0068C4.49414 17.1738 4.46777 17.3672 4.46777 17.5166C4.46777 18 4.80176 18.4307 5.35547 18.4307ZM12 14.0098C11.5078 14.0098 11.2354 13.7285 11.2178 13.2363L11.0947 8.94727C11.0771 8.4375 11.4551 8.07715 11.9912 8.07715C12.5273 8.07715 12.9141 8.44629 12.8965 8.95605L12.7646 13.2275C12.7559 13.7373 12.4746 14.0098 12 14.0098ZM12 16.9189C11.4375 16.9189 10.9717 16.5059 10.9717 15.9521C10.9717 15.4072 11.4375 14.9941 12 14.9941C12.5713 14.9941 13.0283 15.3984 13.0283 15.9521C13.0283 16.5059 12.5625 16.9189 12 16.9189Z"
  />
</svg>
