<svg width="24" height="24" viewBox="0 0 24 24" fill="none" xmlns="http://www.w3.org/2000/svg">
<path d="M7.92188 16.1631V5.29102C7.92188 4.78125 8.25586 4.47363 8.77441 4.47363H10.6377C11.1562 4.47363 11.4902 4.78125 11.4902 5.29102V16.1631C11.4902 16.6729 11.1562 16.9893 10.6377 16.9893H8.77441C8.25586 16.9893 7.92188 16.6729 7.92188 16.1631ZM12.4922 16.1631V7.25977C12.4922 6.75 12.8174 6.43359 13.3359 6.43359H15.208C15.7266 6.43359 16.0605 6.75 16.0605 7.25977V16.1631C16.0605 16.6729 15.7266 16.9893 15.208 16.9893H13.3359C12.8174 16.9893 12.4922 16.6729 12.4922 16.1631ZM3.35156 16.1631V9.08789C3.35156 8.58691 3.68555 8.26172 4.2041 8.26172H6.06738C6.58594 8.26172 6.91992 8.58691 6.91992 9.08789V16.1631C6.91992 16.6729 6.58594 16.9893 6.06738 16.9893H4.2041C3.68555 16.9893 3.35156 16.6729 3.35156 16.1631ZM17.0625 16.1631V10.8721C17.0625 10.3623 17.3965 10.0459 17.915 10.0459H19.7783C20.2969 10.0459 20.6309 10.3623 20.6309 10.8721V16.1631C20.6309 16.6729 20.2969 16.9893 19.7783 16.9893H17.915C17.3965 16.9893 17.0625 16.6729 17.0625 16.1631ZM2.49023 19.1514C2.49023 18.6592 2.87695 18.29 3.36035 18.29H20.6309C21.1143 18.29 21.501 18.6592 21.501 19.1514C21.501 19.6436 21.1143 20.0127 20.6309 20.0127H3.36035C2.87695 20.0127 2.49023 19.6436 2.49023 19.1514Z" stroke="none" />
</svg>
