<svg viewBox="0 0 24 24" xmlns="http://www.w3.org/2000/svg">
  <path
    stroke="none"
    d="M5.36914 15.7627C5.36914 15.0381 6.03906 14.416 6.6543 13.8145C7.13965 13.3428 7.24902 12.3994 7.33789 11.4629C7.42676 8.87207 8.17871 7.14258 9.96289 6.49316C10.2227 5.59082 10.9814 4.90039 12 4.90039C13.0186 4.90039 13.7773 5.59082 14.0371 6.49316C15.8213 7.14258 16.5732 8.87207 16.6621 11.4629C16.751 12.3994 16.8672 13.3428 17.3457 13.8145C17.9678 14.416 18.6309 15.0381 18.6309 15.7627C18.6309 16.3369 18.2002 16.7266 17.4893 16.7266H14.6797C14.6182 18.0391 13.5518 19.2285 12 19.2285C10.4482 19.2285 9.38184 18.0322 9.32031 16.7266H6.51074C5.80664 16.7266 5.36914 16.3369 5.36914 15.7627ZM7.00293 15.4756H16.9834V15.3936C16.8125 15.1953 16.4297 14.833 16.0879 14.4434C15.623 13.9033 15.3975 12.9258 15.3291 11.627C15.2539 8.85156 14.3994 7.92871 13.2988 7.62793C13.1279 7.58691 13.0322 7.50488 13.0186 7.32031C12.9912 6.62305 12.6016 6.1582 12 6.1582C11.3984 6.1582 11.0156 6.62305 10.9814 7.32031C10.9678 7.50488 10.8721 7.58691 10.708 7.62793C9.60059 7.92871 8.75293 8.85156 8.6709 11.627C8.60254 12.9258 8.38379 13.9033 7.91211 14.4434C7.57715 14.833 7.18066 15.1953 7.00293 15.3936V15.4756ZM10.6123 16.7266C10.667 17.5811 11.2275 18.1348 12 18.1348C12.7793 18.1348 13.3398 17.5811 13.3877 16.7266H10.6123Z"
  />
</svg>
