<svg width="24" height="24" viewBox="0 0 24 24" fill="none" xmlns="http://www.w3.org/2000/svg">
<path d="M5.76562 20C4.94792 20 4.33333 19.7969 3.92188 19.3906C3.51562 18.9896 3.3125 18.3854 3.3125 17.5781V9.55469C3.3125 8.7474 3.51562 8.14323 3.92188 7.74219C4.33333 7.33594 4.94792 7.13281 5.76562 7.13281H17.2266C18.0391 7.13281 18.651 7.33594 19.0625 7.74219C19.474 8.14844 19.6797 8.7526 19.6797 9.55469V17.5781C19.6797 18.3802 19.474 18.9844 19.0625 19.3906C18.651 19.7969 18.0391 20 17.2266 20H5.76562ZM4.96094 5.875C5.01823 5.52083 5.14062 5.25 5.32812 5.0625C5.51562 4.86979 5.80469 4.77344 6.19531 4.77344H16.8047C17.1953 4.77344 17.4818 4.86979 17.6641 5.0625C17.8516 5.25 17.9766 5.52083 18.0391 5.875H4.96094ZM6.57031 3.71094C6.59115 3.3776 6.69531 3.1276 6.88281 2.96094C7.07552 2.78906 7.35156 2.70312 7.71094 2.70312H15.2812C15.6406 2.70312 15.9141 2.78906 16.1016 2.96094C16.2943 3.1276 16.4036 3.3776 16.4297 3.71094H6.57031ZM11.9062 16.8125C12.0573 16.8125 12.1536 16.7266 12.1953 16.5547C12.2839 16.0807 12.3698 15.6797 12.4531 15.3516C12.5417 15.0182 12.6484 14.7422 12.7734 14.5234C12.9036 14.2995 13.0729 14.1198 13.2812 13.9844C13.4896 13.8438 13.7578 13.7318 14.0859 13.6484C14.4141 13.5599 14.8255 13.4818 15.3203 13.4141C15.4974 13.3932 15.5859 13.2943 15.5859 13.1172C15.5859 12.9505 15.4974 12.8542 15.3203 12.8281C14.8255 12.7604 14.4115 12.6823 14.0781 12.5938C13.7448 12.5052 13.4688 12.3906 13.25 12.25C13.0365 12.1094 12.8646 11.9297 12.7344 11.7109C12.6042 11.4922 12.4974 11.2188 12.4141 10.8906C12.3359 10.5625 12.263 10.1667 12.1953 9.70312C12.1641 9.52083 12.0677 9.42969 11.9062 9.42969C11.7448 9.42969 11.6406 9.51823 11.5938 9.69531C11.5052 10.1693 11.4167 10.5729 11.3281 10.9062C11.2448 11.2344 11.1406 11.5078 11.0156 11.7266C10.8906 11.9453 10.724 12.125 10.5156 12.2656C10.3073 12.401 10.0391 12.513 9.71094 12.6016C9.38281 12.6849 8.97396 12.7604 8.48438 12.8281C8.30208 12.8542 8.21094 12.9505 8.21094 13.1172C8.21094 13.2891 8.30208 13.388 8.48438 13.4141C9.09896 13.4766 9.59115 13.5651 9.96094 13.6797C10.3359 13.7943 10.6276 13.9635 10.8359 14.1875C11.0443 14.4115 11.2005 14.7135 11.3047 15.0938C11.4141 15.474 11.5104 15.9583 11.5938 16.5469C11.625 16.724 11.7292 16.8125 11.9062 16.8125ZM8.72656 18.125C8.84635 18.125 8.92188 18.0651 8.95312 17.9453C9.01042 17.6484 9.05729 17.4167 9.09375 17.25C9.13021 17.0833 9.1875 16.9557 9.26562 16.8672C9.34375 16.7786 9.46875 16.7109 9.64062 16.6641C9.8125 16.6172 10.0573 16.5703 10.375 16.5234C10.5052 16.4974 10.5703 16.4245 10.5703 16.3047C10.5703 16.1745 10.5052 16.1016 10.375 16.0859C10.0573 16.0286 9.8125 15.9766 9.64062 15.9297C9.46875 15.8828 9.34375 15.8151 9.26562 15.7266C9.1875 15.638 9.13021 15.513 9.09375 15.3516C9.05729 15.1849 9.01042 14.9583 8.95312 14.6719C8.91667 14.5365 8.84115 14.4688 8.72656 14.4688C8.61719 14.4688 8.54167 14.5365 8.5 14.6719C8.44271 14.9583 8.39583 15.1849 8.35938 15.3516C8.32292 15.513 8.26562 15.638 8.1875 15.7266C8.11458 15.8151 7.99219 15.8828 7.82031 15.9297C7.65365 15.9766 7.40885 16.0286 7.08594 16.0859C6.96094 16.1016 6.89844 16.1745 6.89844 16.3047C6.89844 16.4297 6.96615 16.5026 7.10156 16.5234C7.41927 16.5703 7.66146 16.6172 7.82812 16.6641C7.99479 16.7109 8.11458 16.7786 8.1875 16.8672C8.26562 16.9505 8.32292 17.0755 8.35938 17.2422C8.39583 17.4089 8.44271 17.6354 8.5 17.9219C8.54167 18.0573 8.61719 18.125 8.72656 18.125Z" stroke="none"/>
</svg>
