<svg viewBox="0 0 24 24" fill="none" xmlns="http://www.w3.org/2000/svg">
  <g clip-path="url(#clip0_10063_420119)">
    <path
      d="M4.91113 17.6836C4.35742 17.6836 3.90625 17.2324 3.90625 16.6787C3.90625 16.125 4.35742 15.6807 4.91113 15.6807C4.97949 15.6807 5.05469 15.6875 5.12305 15.7012L9.31348 11.5176C9.25195 11.3398 9.21777 11.1484 9.21777 10.9502C9.21777 9.95215 10.0312 9.13867 11.0293 9.13867C11.2275 9.13867 11.4121 9.16602 11.5898 9.22754L15.5068 5.31738C15.4727 5.21484 15.459 5.1123 15.459 5.00977C15.459 4.45605 15.9033 4.00488 16.4639 4.00488C17.0176 4.00488 17.4619 4.45605 17.4619 5.00977C17.4619 5.56348 17.0176 6.00781 16.4639 6.00781C16.3887 6.00781 16.3203 6.00098 16.252 5.9873L13.3877 8.84473C14.6045 8.23633 15.9443 7.88086 17.4141 7.81934C17.4414 7.36133 17.749 7.07422 18.207 7.07422H19.3008C19.7793 7.07422 20.0938 7.39551 20.0938 7.88086V8.94727C20.0938 9.43262 19.7793 9.75391 19.3008 9.75391H18.207C17.7627 9.75391 17.4688 9.4873 17.4209 9.06348C15.6709 9.14551 14.126 9.68555 12.8066 10.6084C12.8271 10.7178 12.8408 10.834 12.8408 10.9502C12.8408 11.9482 12.0273 12.7549 11.0293 12.7549C10.9062 12.7549 10.7832 12.748 10.667 12.7207C9.68262 14.0811 9.09473 15.6875 8.99902 17.499C9.43652 17.5264 9.70996 17.8408 9.70996 18.2988V19.3652C9.70996 19.8506 9.40234 20.1719 8.91699 20.1719H7.82324C7.34473 20.1719 7.03027 19.8506 7.03027 19.3652V18.2988C7.03027 17.8408 7.31055 17.5264 7.74805 17.499C7.82324 16.0156 8.18555 14.6553 8.80762 13.4316L5.86816 16.3711C5.89551 16.4736 5.91602 16.5762 5.91602 16.6787C5.91602 17.2324 5.46484 17.6836 4.91113 17.6836ZM18.4531 8.87207H19.0547C19.1504 8.87207 19.2119 8.81055 19.2119 8.70801V8.12012C19.2119 8.01758 19.1504 7.95605 19.0547 7.95605H18.4531C18.3506 7.95605 18.2959 8.01758 18.2959 8.12012V8.70801C18.2959 8.81055 18.3506 8.87207 18.4531 8.87207ZM11.0293 11.7158C11.4531 11.7158 11.7949 11.374 11.7949 10.9502C11.7949 10.5264 11.4531 10.1846 11.0293 10.1846C10.6055 10.1846 10.2637 10.5264 10.2637 10.9502C10.2637 11.374 10.6055 11.7158 11.0293 11.7158ZM8.07617 19.29H8.67773C8.77344 19.29 8.82812 19.2285 8.82812 19.1328V18.5449C8.82812 18.4424 8.77344 18.374 8.67773 18.374H8.07617C7.97363 18.374 7.91211 18.4424 7.91211 18.5449V19.1328C7.91211 19.2285 7.97363 19.29 8.07617 19.29Z"
      stroke="none"/>
  </g>
</svg>
