<svg viewBox="0 0 24 24" xmlns="http://www.w3.org/2000/svg">
  <path
    stroke="none"
    d="M12 20.7334C7.03418 20.7334 2.9209 16.6289 2.9209 11.6543C2.9209 6.68848 7.02539 2.5752 11.9912 2.5752C16.9658 2.5752 21.0791 6.68848 21.0791 11.6543C21.0791 16.6289 16.9658 20.7334 12 20.7334ZM9.66211 9.87012C10.1367 10.0283 10.6201 10.1514 11.1123 10.2393C11.2793 8.05078 11.9385 5.9502 13.0195 4.05176C12.9229 4.04297 12.8174 4.02539 12.7119 4.0166C11.1738 5.41406 9.99609 7.12793 9.24023 9.00879C9.46875 9.2373 9.62695 9.53613 9.66211 9.87012ZM5.6543 7.37402C6.19922 7.92773 6.79688 8.41113 7.44727 8.82422C7.64941 8.69238 7.87793 8.61328 8.12402 8.5957C8.79199 6.92578 9.75879 5.3877 10.9893 4.05176C8.7832 4.35059 6.8584 5.59863 5.6543 7.37402ZM14.8037 7.43555C14.8037 8.08594 14.8828 8.72754 15.0146 9.34277C15.4453 9.35156 15.832 9.5625 16.0869 9.87891C17.1064 9.53613 18.0557 9.03516 18.9258 8.37598C18.1436 6.75879 16.8076 5.44043 15.1729 4.68457C14.918 5.57227 14.7861 6.50391 14.8037 7.43555ZM13.6084 7.43555C13.5996 6.60937 13.6875 5.79199 13.8633 4.99219C12.9756 6.64453 12.4395 8.47266 12.2988 10.3799C12.5098 10.3887 12.7207 10.3975 12.9229 10.3887C13.1514 10.3887 13.3799 10.3799 13.5996 10.3711C13.6611 10.1689 13.7666 9.98437 13.8984 9.83496C13.7139 9.06152 13.6172 8.25293 13.6084 7.43555ZM4.32715 11.6543C4.32715 11.7773 4.33594 11.9004 4.33594 12.0234C5.19727 12.7441 6.12012 13.3506 7.10449 13.834C7.11328 12.9375 7.20117 12.0586 7.36816 11.1973C7.00781 10.9336 6.7793 10.5117 6.7793 10.0371C6.7793 9.9668 6.78809 9.89648 6.79688 9.83496C6.16406 9.43945 5.5752 8.98242 5.03027 8.47266C4.58203 9.43945 4.32715 10.5205 4.32715 11.6543ZM19.6729 11.6543C19.6729 10.9248 19.5674 10.2217 19.374 9.54492C18.4512 10.1953 17.4492 10.6963 16.3857 11.0391C16.3242 11.3555 16.1572 11.6455 15.9287 11.8477C16.4297 12.7881 17.0889 13.6406 17.8887 14.3701C18.3984 14.1768 18.8994 13.9482 19.3916 13.6846C19.5762 13.0342 19.6729 12.3574 19.6729 11.6543ZM8.29102 14.3525C9.19629 14.6953 10.1279 14.9414 11.0684 15.0908C11.165 14.915 11.2881 14.7656 11.4375 14.6426C11.2002 13.6055 11.0771 12.5332 11.0684 11.4434C10.4707 11.3467 9.87305 11.1973 9.29297 11.0039C9.09961 11.2324 8.82715 11.3906 8.52832 11.4521C8.34375 12.4014 8.26465 13.3682 8.29102 14.3525ZM12.9316 11.584C12.7119 11.584 12.4834 11.584 12.2637 11.5664C12.2813 12.5156 12.3955 13.4385 12.5977 14.3437C13.0986 14.4316 13.5117 14.7744 13.6963 15.2314C14.6719 15.1875 15.6563 15.0381 16.6143 14.7832C15.8672 14.0186 15.252 13.1396 14.7686 12.1992C14.3467 12.1377 13.9863 11.8916 13.7666 11.5488C13.4941 11.5752 13.2129 11.584 12.9316 11.584ZM4.62598 13.7549C5.11816 15.4336 6.16406 16.8838 7.56152 17.8857C7.32422 16.9893 7.1748 16.084 7.13086 15.1699C6.26074 14.7832 5.41699 14.3086 4.62598 13.7549ZM12 19.3271C12.457 19.3271 12.8965 19.2832 13.3271 19.2041C12.9316 18.5713 12.5801 17.9033 12.2813 17.2178C11.6836 17.1914 11.1826 16.8047 10.9893 16.2773C10.1016 16.1455 9.22266 15.9346 8.36133 15.6445C8.4668 16.708 8.71289 17.7451 9.09082 18.7383C9.9873 19.1162 10.9717 19.3271 12 19.3271ZM13.3887 16.7783C13.7139 17.5078 14.0918 18.2109 14.54 18.8877C16.0166 18.3604 17.291 17.3848 18.1963 16.1367C18.0117 16.0049 17.8271 15.8643 17.6426 15.7236C16.3418 16.1455 14.9971 16.374 13.6436 16.4268C13.5732 16.5586 13.4941 16.6729 13.3887 16.7783Z"
  />
</svg>
