<svg width="24" height="24" viewBox="0 0 24 24" fill="none" xmlns="http://www.w3.org/2000/svg">
  <path
    d="M12 19.126C8.1377 19.126 4.93848 15.9336 4.93848 12.0645C4.93848 8.20215 8.13086 5.00293 11.9932 5.00293C15.8623 5.00293 19.0615 8.20215 19.0615 12.0645C19.0615 15.9336 15.8623 19.126 12 19.126ZM10.1816 10.6768C10.5508 10.7998 10.9268 10.8955 11.3096 10.9639C11.4395 9.26172 11.9521 7.62793 12.793 6.15137C12.7178 6.14453 12.6357 6.13086 12.5537 6.12402C11.3574 7.21094 10.4414 8.54395 9.85352 10.0068C10.0312 10.1846 10.1543 10.417 10.1816 10.6768ZM7.06445 8.73535C7.48828 9.16602 7.95313 9.54199 8.45898 9.86328C8.61621 9.76074 8.79395 9.69922 8.98535 9.68555C9.50488 8.38672 10.2568 7.19043 11.2139 6.15137C9.49805 6.38379 8.00098 7.35449 7.06445 8.73535ZM14.1807 8.7832C14.1807 9.28906 14.2422 9.78809 14.3447 10.2666C14.6797 10.2734 14.9805 10.4375 15.1787 10.6836C15.9717 10.417 16.71 10.0273 17.3867 9.51465C16.7783 8.25684 15.7393 7.23145 14.4678 6.64355C14.2695 7.33398 14.167 8.05859 14.1807 8.7832ZM13.251 8.7832C13.2441 8.14062 13.3125 7.50488 13.4492 6.88281C12.7588 8.16797 12.3418 9.58984 12.2324 11.0732C12.3965 11.0801 12.5605 11.0869 12.7178 11.0801C12.8955 11.0801 13.0732 11.0732 13.2441 11.0664C13.292 10.9092 13.374 10.7656 13.4766 10.6494C13.333 10.0479 13.2578 9.41895 13.251 8.7832ZM6.03223 12.0645C6.03223 12.1602 6.03906 12.2559 6.03906 12.3516C6.70898 12.9121 7.42676 13.3838 8.19238 13.7598C8.19922 13.0625 8.26758 12.3789 8.39746 11.709C8.11719 11.5039 7.93945 11.1758 7.93945 10.8066C7.93945 10.752 7.94629 10.6973 7.95313 10.6494C7.46094 10.3418 7.00293 9.98633 6.5791 9.58984C6.23047 10.3418 6.03223 11.1826 6.03223 12.0645ZM17.9678 12.0645C17.9678 11.4971 17.8857 10.9502 17.7354 10.4238C17.0176 10.9297 16.2383 11.3193 15.4111 11.5859C15.3633 11.832 15.2334 12.0576 15.0557 12.2148C15.4453 12.9463 15.958 13.6094 16.5801 14.1768C16.9766 14.0264 17.3662 13.8486 17.749 13.6436C17.8926 13.1377 17.9678 12.6113 17.9678 12.0645ZM9.11523 14.1631C9.81934 14.4297 10.5439 14.6211 11.2754 14.7373C11.3506 14.6006 11.4463 14.4844 11.5625 14.3887C11.3779 13.582 11.2822 12.748 11.2754 11.9004C10.8105 11.8252 10.3457 11.709 9.89453 11.5586C9.74414 11.7363 9.53223 11.8594 9.2998 11.9072C9.15625 12.6455 9.09473 13.3975 9.11523 14.1631ZM12.7246 12.0098C12.5537 12.0098 12.376 12.0098 12.2051 11.9961C12.2188 12.7344 12.3076 13.4521 12.4648 14.1562C12.8545 14.2246 13.1758 14.4912 13.3193 14.8467C14.0781 14.8125 14.8438 14.6963 15.5889 14.498C15.0078 13.9033 14.5293 13.2197 14.1533 12.4883C13.8252 12.4404 13.5449 12.249 13.374 11.9824C13.1621 12.0029 12.9434 12.0098 12.7246 12.0098ZM6.26465 13.6982C6.64746 15.0039 7.46094 16.1318 8.54785 16.9111C8.36328 16.2139 8.24707 15.5098 8.21289 14.7988C7.53613 14.498 6.87988 14.1289 6.26465 13.6982ZM12 18.0322C12.3555 18.0322 12.6973 17.998 13.0322 17.9365C12.7246 17.4443 12.4512 16.9248 12.2188 16.3916C11.7539 16.3711 11.3643 16.0703 11.2139 15.6602C10.5234 15.5576 9.83984 15.3936 9.16992 15.168C9.25195 15.9951 9.44336 16.8018 9.7373 17.5742C10.4346 17.8682 11.2002 18.0322 12 18.0322ZM13.0801 16.0498C13.333 16.6172 13.627 17.1641 13.9756 17.6904C15.124 17.2803 16.1152 16.5215 16.8193 15.5508C16.6758 15.4482 16.5322 15.3389 16.3887 15.2295C15.377 15.5576 14.3311 15.7354 13.2783 15.7764C13.2236 15.8789 13.1621 15.9678 13.0801 16.0498Z"
    stroke="none"
  />
</svg>
