<svg viewBox="0 0 24 24" xmlns="http://www.w3.org/2000/svg">
  <path
    stroke="none"
    d="M6.15527 17.9912C4.67871 17.9912 3.91309 17.2324 3.91309 15.7695V8.37988C3.91309 6.91699 4.67871 6.1582 6.15527 6.1582H17.8447C19.3213 6.1582 20.0869 6.91699 20.0869 8.37988V15.7695C20.0869 17.2256 19.3213 17.9912 17.8447 17.9912H6.15527ZM5.25293 8.49609V8.99512H18.7471V8.49609C18.7471 7.83301 18.3916 7.49805 17.7627 7.49805H6.2373C5.60156 7.49805 5.25293 7.83301 5.25293 8.49609ZM6.2373 16.6514H17.7627C18.3916 16.6514 18.7471 16.3164 18.7471 15.6533V10.5879H5.25293V15.6533C5.25293 16.3164 5.60156 16.6514 6.2373 16.6514ZM7.16699 15.4072C6.76367 15.4072 6.49023 15.1406 6.49023 14.751V13.4863C6.49023 13.1035 6.76367 12.8301 7.16699 12.8301H8.8418C9.23828 12.8301 9.51172 13.1035 9.51172 13.4863V14.751C9.51172 15.1406 9.23828 15.4072 8.8418 15.4072H7.16699Z"
  />
</svg>
