<svg width="26" height="24" viewBox="0 0 26 24" fill="none" xmlns="http://www.w3.org/2000/svg">
<path d="M2.8125 8.3125V7.61719C2.8125 6.8099 3.01562 6.20573 3.42188 5.80469C3.83333 5.39844 4.44792 5.19531 5.26562 5.19531H18.7188C19.5365 5.19531 20.1484 5.39844 20.5547 5.80469C20.9661 6.21094 21.1719 6.8151 21.1719 7.61719V8.3125H2.8125ZM5.26562 18.5391C4.44792 18.5391 3.83333 18.3359 3.42188 17.9297C3.01562 17.5286 2.8125 16.9271 2.8125 16.125V10.1016H21.1719V11.0078C20.8021 11.0078 20.4531 11.1042 20.125 11.2969C19.8021 11.4844 19.5443 11.7474 19.3516 12.0859L16.0547 17.9766C16.0078 18.0651 15.9635 18.1562 15.9219 18.25C15.8854 18.3438 15.8568 18.4401 15.8359 18.5391H5.26562ZM6.00781 16.1172H7.92188C8.15104 16.1172 8.33594 16.0469 8.47656 15.9062C8.61719 15.7656 8.6875 15.5859 8.6875 15.3672V13.9219C8.6875 13.6979 8.61719 13.5182 8.47656 13.3828C8.33594 13.2422 8.15104 13.1719 7.92188 13.1719H6.00781C5.77865 13.1719 5.59375 13.2422 5.45312 13.3828C5.3125 13.5182 5.24219 13.6979 5.24219 13.9219V15.3672C5.24219 15.5859 5.3125 15.7656 5.45312 15.9062C5.59375 16.0469 5.77865 16.1172 6.00781 16.1172ZM17.8672 20.0234C17.5547 20.0234 17.3047 19.9245 17.1172 19.7266C16.9349 19.5286 16.8438 19.2865 16.8438 19C16.8438 18.8281 16.8906 18.6589 16.9844 18.4922L20.2812 12.5859C20.375 12.4141 20.5026 12.2839 20.6641 12.1953C20.8307 12.1068 21.0026 12.0625 21.1797 12.0625C21.3464 12.0625 21.5104 12.1068 21.6719 12.1953C21.8333 12.2839 21.9609 12.4141 22.0547 12.5859L25.3672 18.4922C25.4609 18.6589 25.5078 18.8281 25.5078 19C25.5078 19.2865 25.4141 19.5286 25.2266 19.7266C25.0391 19.9245 24.7891 20.0234 24.4766 20.0234H17.8672ZM21.1719 18.8594C21.349 18.8594 21.5 18.7969 21.625 18.6719C21.7552 18.5469 21.8203 18.3958 21.8203 18.2188C21.8255 18.0417 21.763 17.8906 21.6328 17.7656C21.5078 17.6406 21.3542 17.5781 21.1719 17.5781C21 17.5781 20.849 17.6406 20.7188 17.7656C20.5885 17.8906 20.5234 18.0417 20.5234 18.2188C20.5234 18.3958 20.5885 18.5469 20.7188 18.6719C20.849 18.7969 21 18.8594 21.1719 18.8594ZM21.1719 17.0469C21.3073 17.0469 21.4167 17.0052 21.5 16.9219C21.5885 16.8385 21.6354 16.7318 21.6406 16.6016L21.7031 14.4219C21.7031 14.2656 21.6536 14.138 21.5547 14.0391C21.4609 13.9401 21.3333 13.8906 21.1719 13.8906C21.0156 13.8906 20.888 13.9401 20.7891 14.0391C20.6901 14.138 20.6432 14.2656 20.6484 14.4219L20.7109 16.6016C20.7161 16.7318 20.7604 16.8385 20.8438 16.9219C20.9323 17.0052 21.0417 17.0469 21.1719 17.0469Z" stroke="none"/>
</svg>
