<svg width="24" height="24" viewBox="0 0 24 24" fill="none" xmlns="http://www.w3.org/2000/svg">
<path d="M9.13281 16.2969C8.5651 16.2969 8.13021 16.1354 7.82812 15.8125C7.52604 15.4896 7.33333 15.0495 7.25 14.4922L6 5.91406H3.35938C3.20312 5.91406 3.06771 5.85677 2.95312 5.74219C2.83854 5.6224 2.78125 5.48177 2.78125 5.32031C2.78125 5.16406 2.83854 5.02865 2.95312 4.91406C3.06771 4.79427 3.20312 4.73438 3.35938 4.73438H6.10156C6.5026 4.73438 6.77344 4.8099 6.91406 4.96094C7.0599 5.11198 7.15365 5.33854 7.19531 5.64062L7.35156 6.63281H14.8516C14.8359 6.7526 14.8229 6.86979 14.8125 6.98438C14.8073 7.09896 14.8047 7.21615 14.8047 7.33594C14.8047 8.03385 14.9349 8.6875 15.1953 9.29688C15.4557 9.90625 15.8203 10.4427 16.2891 10.9062C16.7578 11.3646 17.3021 11.724 17.9219 11.9844C18.5469 12.2448 19.2214 12.375 19.9453 12.375L19.8828 12.5391C19.7474 12.8516 19.5443 13.0938 19.2734 13.2656C19.0078 13.4323 18.6719 13.5156 18.2656 13.5156H8.35156L8.47656 14.3359C8.51302 14.5755 8.59896 14.7682 8.73438 14.9141C8.86979 15.0547 9.04688 15.125 9.26562 15.125H18.25C18.401 15.125 18.5339 15.1823 18.6484 15.2969C18.763 15.4062 18.8203 15.5443 18.8203 15.7109C18.8203 15.8776 18.763 16.0182 18.6484 16.1328C18.5339 16.2422 18.401 16.2969 18.25 16.2969H9.13281ZM8.47656 18.8281C8.47656 18.5938 8.53385 18.3802 8.64844 18.1875C8.76302 17.9948 8.91406 17.8411 9.10156 17.7266C9.29427 17.6172 9.51042 17.5625 9.75 17.5625C10.099 17.5625 10.3958 17.6849 10.6406 17.9297C10.8906 18.1745 11.0156 18.474 11.0156 18.8281C11.0156 19.1823 10.8906 19.4818 10.6406 19.7266C10.3958 19.9714 10.099 20.0938 9.75 20.0938C9.51042 20.0938 9.29427 20.0365 9.10156 19.9219C8.91406 19.8125 8.76302 19.6615 8.64844 19.4688C8.53385 19.276 8.47656 19.0625 8.47656 18.8281ZM15.7812 18.8281C15.7812 18.5938 15.8385 18.3802 15.9531 18.1875C16.0677 17.9948 16.2214 17.8411 16.4141 17.7266C16.6068 17.6172 16.8203 17.5625 17.0547 17.5625C17.4089 17.5625 17.7083 17.6849 17.9531 17.9297C18.2031 18.1745 18.3281 18.474 18.3281 18.8281C18.3281 19.1823 18.2031 19.4818 17.9531 19.7266C17.7083 19.9714 17.4089 20.0938 17.0547 20.0938C16.7057 20.0938 16.4062 19.9714 16.1562 19.7266C15.9062 19.4818 15.7812 19.1823 15.7812 18.8281ZM19.8516 11.3047C19.3099 11.3047 18.7995 11.2031 18.3203 11C17.8411 10.7917 17.4193 10.5052 17.0547 10.1406C16.6901 9.77604 16.4036 9.35417 16.1953 8.875C15.987 8.39583 15.8828 7.88281 15.8828 7.33594C15.8828 6.78906 15.987 6.27865 16.1953 5.80469C16.4036 5.32552 16.6901 4.90365 17.0547 4.53906C17.4193 4.16927 17.8411 3.88281 18.3203 3.67969C18.7995 3.47135 19.3099 3.36719 19.8516 3.36719C20.3984 3.36719 20.9115 3.47135 21.3906 3.67969C21.8698 3.88281 22.2917 4.16667 22.6562 4.53125C23.0208 4.89583 23.3047 5.31771 23.5078 5.79688C23.7161 6.27604 23.8203 6.78906 23.8203 7.33594C23.8203 7.8776 23.7161 8.38802 23.5078 8.86719C23.2995 9.34635 23.0104 9.76823 22.6406 10.1328C22.276 10.4974 21.8542 10.7839 21.375 10.9922C20.8958 11.2005 20.388 11.3047 19.8516 11.3047ZM19.8516 9.82031C19.9974 9.82031 20.112 9.77604 20.1953 9.6875C20.2839 9.59896 20.3281 9.48438 20.3281 9.34375V7.8125H21.8594C22 7.8125 22.1146 7.77083 22.2031 7.6875C22.2917 7.59896 22.3359 7.48177 22.3359 7.33594C22.3359 7.1901 22.2917 7.07552 22.2031 6.99219C22.1146 6.90365 22 6.85938 21.8594 6.85938H20.3281V5.32812C20.3281 5.1875 20.2839 5.07292 20.1953 4.98438C20.112 4.89583 19.9974 4.85156 19.8516 4.85156C19.7057 4.85156 19.5885 4.89583 19.5 4.98438C19.4167 5.07292 19.375 5.1875 19.375 5.32812V6.85938H17.8438C17.7031 6.85938 17.5885 6.90365 17.5 6.99219C17.4115 7.07552 17.3672 7.1901 17.3672 7.33594C17.3672 7.48177 17.4115 7.59896 17.5 7.6875C17.5885 7.77083 17.7031 7.8125 17.8438 7.8125H19.375V9.34375C19.375 9.48438 19.4167 9.59896 19.5 9.6875C19.5885 9.77604 19.7057 9.82031 19.8516 9.82031Z" stroke="none"/>
</svg>
