<svg width="24" height="24" viewBox="0 0 24 24" fill="none" xmlns="http://www.w3.org/2000/svg">
<path d="M2.9209 15.8467V11.7686C2.9209 11.499 3 11.2852 3.1582 11.127C3.32227 10.9688 3.54199 10.8896 3.81738 10.8896H5.77734C6.05273 10.8896 6.26953 10.9688 6.42773 11.127C6.58594 11.2852 6.66504 11.499 6.66504 11.7686V15.8467C6.66504 16.1162 6.58594 16.3301 6.42773 16.4883C6.26953 16.6406 6.05273 16.7168 5.77734 16.7168H3.81738C3.54199 16.7168 3.32227 16.6406 3.1582 16.4883C3 16.3301 2.9209 16.1162 2.9209 15.8467ZM7.7373 15.8467V9.27246C7.7373 9.01465 7.81641 8.80664 7.97461 8.64844C8.13281 8.49023 8.34668 8.41113 8.61621 8.41113H10.585C10.8545 8.41113 11.0684 8.49023 11.2266 8.64844C11.3906 8.80664 11.4727 9.01465 11.4727 9.27246V15.8467C11.4727 16.1162 11.3906 16.3301 11.2266 16.4883C11.0684 16.6406 10.8545 16.7168 10.585 16.7168H8.61621C8.34668 16.7168 8.13281 16.6406 7.97461 16.4883C7.81641 16.3301 7.7373 16.1162 7.7373 15.8467ZM12.5273 15.8467V6.78516C12.5273 6.51562 12.6064 6.30469 12.7646 6.15234C12.9229 6 13.1396 5.92383 13.415 5.92383H15.375C15.6445 5.92383 15.8613 6 16.0254 6.15234C16.1895 6.30469 16.2715 6.51562 16.2715 6.78516V15.8467C16.2715 16.1162 16.1895 16.3301 16.0254 16.4883C15.8613 16.6406 15.6445 16.7168 15.375 16.7168H13.415C13.1396 16.7168 12.9229 16.6406 12.7646 16.4883C12.6064 16.3301 12.5273 16.1162 12.5273 15.8467ZM17.3262 15.8467V4.29785C17.3262 4.02832 17.4053 3.81738 17.5635 3.66504C17.7217 3.5127 17.9385 3.43652 18.2139 3.43652H20.1738C20.4492 3.43652 20.666 3.5127 20.8242 3.66504C20.9883 3.81738 21.0703 4.02832 21.0703 4.29785V15.8467C21.0703 16.1162 20.9883 16.3301 20.8242 16.4883C20.666 16.6406 20.4492 16.7168 20.1738 16.7168H18.2139C17.9385 16.7168 17.7217 16.6406 17.5635 16.4883C17.4053 16.3301 17.3262 16.1162 17.3262 15.8467ZM2.82422 19.8896C2.58984 19.8896 2.3877 19.8076 2.21777 19.6436C2.04785 19.4854 1.96289 19.2832 1.96289 19.0371C1.96289 18.7969 2.04785 18.5947 2.21777 18.4307C2.3877 18.2666 2.58984 18.1846 2.82422 18.1846H21.167C21.4072 18.1846 21.6123 18.2666 21.7822 18.4307C21.9521 18.5947 22.0371 18.7969 22.0371 19.0371C22.0371 19.2832 21.9521 19.4854 21.7822 19.6436C21.6123 19.8076 21.4072 19.8896 21.167 19.8896H2.82422Z" stroke="none"/>
</svg>
