<svg viewBox="0 0 24 24" xmlns="http://www.w3.org/2000/svg">
  <path
    stroke="none"
    d="M17.3262 15.8467V4.29785C17.3262 3.76172 17.6777 3.43652 18.2139 3.43652H20.1738C20.7275 3.43652 21.0703 3.76172 21.0703 4.29785V15.8467C21.0703 16.3916 20.7275 16.7168 20.1738 16.7168H18.2139C17.6777 16.7168 17.3262 16.3916 17.3262 15.8467ZM12.5273 15.8467V6.78516C12.5273 6.24902 12.8701 5.91504 13.415 5.91504H15.375C15.9287 5.91504 16.2715 6.24902 16.2715 6.78516V15.8467C16.2715 16.3916 15.9287 16.7168 15.375 16.7168H13.415C12.8701 16.7168 12.5273 16.3916 12.5273 15.8467ZM7.7373 15.8467V9.28125C7.7373 8.75391 8.08008 8.41992 8.625 8.41992H10.585C11.1299 8.41992 11.4814 8.75391 11.4814 9.28125V15.8467C11.4814 16.3916 11.1299 16.7168 10.585 16.7168H8.625C8.08008 16.7168 7.7373 16.3916 7.7373 15.8467ZM2.92969 15.8467V11.7686C2.92969 11.2324 3.27246 10.8984 3.82617 10.8984H5.78613C6.32227 10.8984 6.67383 11.2324 6.67383 11.7686V15.8467C6.67383 16.3916 6.32227 16.7168 5.78613 16.7168H3.82617C3.27246 16.7168 2.92969 16.3916 2.92969 15.8467ZM2.83301 19.8896C2.3584 19.8896 1.97168 19.5205 1.97168 19.0371C1.97168 18.5537 2.3584 18.1846 2.83301 18.1846H21.1758C21.6504 18.1846 22.0283 18.5537 22.0283 19.0371C22.0283 19.5205 21.6504 19.8896 21.1758 19.8896H2.83301Z" />
</svg>
