<svg viewBox="0 0 24 24" xmlns="http://www.w3.org/2000/svg">
  <path
    stroke="none"
    d="M9.30914 10.8875C9.42613 10.82 9.52327 10.7228 9.5908 10.6059C9.65832 10.4889 9.69386 10.3562 9.69383 10.2212V3.29808C9.69314 3.17544 9.66314 3.05474 9.60632 2.94605C9.54949 2.83736 9.4675 2.74383 9.36718 2.67326C9.26686 2.60269 9.15111 2.55713 9.0296 2.54037C8.90809 2.52361 8.78433 2.53614 8.66864 2.57692C6.42303 3.37155 4.53456 4.941 3.34271 7.00314C2.15086 9.06529 1.7338 11.4849 2.16652 13.8269C2.18895 13.948 2.24014 14.062 2.31578 14.1592C2.39142 14.2564 2.48931 14.3341 2.60121 14.3856C2.70205 14.4327 2.81206 14.457 2.92338 14.4567C3.05842 14.4568 3.19109 14.4213 3.30807 14.3538L9.30914 10.8875ZM8.15509 4.46346V9.77692L3.55042 12.4337C3.53888 12.2885 3.53888 12.1423 3.53888 12C3.54024 10.4407 3.97193 8.91208 4.7864 7.58235C5.60088 6.25261 6.76656 5.17338 8.15509 4.46346ZM12.0019 2C11.7979 2 11.6022 2.08104 11.4579 2.2253C11.3136 2.36956 11.2326 2.56522 11.2326 2.76923V11.5981L3.65332 16.0125C3.56537 16.0635 3.4884 16.1314 3.42684 16.2123C3.36529 16.2932 3.32039 16.3855 3.29472 16.4838C3.26906 16.5822 3.26314 16.6846 3.27732 16.7853C3.29149 16.8859 3.32548 16.9828 3.37731 17.0702C4.26565 18.5801 5.53511 19.8302 7.0586 20.6953C8.5821 21.5605 10.3062 22.0103 12.0582 21.9998C13.8103 21.9893 15.5288 21.5188 17.0418 20.6355C18.5548 19.7521 19.8092 18.4869 20.6793 16.9664C21.5495 15.4459 22.0049 13.7236 22 11.9719C21.995 10.2201 21.5299 8.50038 20.6512 6.98484C19.7725 5.4693 18.5111 4.21114 16.9931 3.3363C15.4752 2.46146 13.754 2.00065 12.0019 2ZM12.0019 20.4615C10.6589 20.4579 9.3357 20.1365 8.14073 19.5235C6.94575 18.9105 5.9129 18.0233 5.12666 16.9346L12.3895 12.7038C12.5063 12.6364 12.6034 12.5394 12.6709 12.4226C12.7384 12.3058 12.7741 12.1734 12.7742 12.0385V3.57308C14.9442 3.76992 16.9547 4.796 18.387 6.4377C19.8194 8.07939 20.5632 10.2102 20.4637 12.3864C20.3642 14.5627 19.429 16.6168 17.8528 18.1209C16.2766 19.6251 14.1809 20.4635 12.0019 20.4615Z"
  />
</svg>
