<svg viewBox="0 0 24 24" xmlns="http://www.w3.org/2000/svg">
  <path
    d="M11.9932 18.3672C10.4984 18.3672 9.15397 18.1051 7.95996 17.5811C7.59993 17.8271 7.19206 18.0186 6.73633 18.1553C6.2806 18.2965 5.83171 18.3672 5.38965 18.3672C5.14811 18.3672 4.96126 18.3011 4.8291 18.1689C4.7015 18.0368 4.63997 17.8773 4.64453 17.6904C4.65365 17.5081 4.74707 17.3395 4.9248 17.1846C5.08887 17.0342 5.2028 16.8815 5.2666 16.7266C5.33496 16.5716 5.36914 16.3984 5.36914 16.207C5.36914 16.0384 5.33268 15.863 5.25977 15.6807C5.18685 15.4938 5.07064 15.2773 4.91113 15.0312C4.7015 14.7168 4.51693 14.3796 4.35742 14.0195C4.20247 13.6595 4.08171 13.2744 3.99512 12.8643C3.91309 12.4495 3.87207 12.0098 3.87207 11.5449C3.87207 10.556 4.07259 9.64681 4.47363 8.81738C4.87923 7.9834 5.44661 7.26107 6.17578 6.65039C6.90495 6.03971 7.764 5.56803 8.75293 5.23535C9.74186 4.90267 10.8219 4.73633 11.9932 4.73633C13.1598 4.73633 14.2376 4.90267 15.2266 5.23535C16.2201 5.56803 17.0814 6.03971 17.8105 6.65039C18.5443 7.26107 19.1117 7.9834 19.5127 8.81738C19.9183 9.64681 20.1211 10.556 20.1211 11.5449C20.1211 12.5339 19.9183 13.443 19.5127 14.2725C19.1117 15.1019 18.5465 15.8242 17.8174 16.4395C17.0882 17.0501 16.2292 17.5241 15.2402 17.8613C14.2513 18.1986 13.1689 18.3672 11.9932 18.3672ZM11.9932 17.041C12.9912 17.041 13.9049 16.9043 14.7344 16.6309C15.5684 16.3574 16.2884 15.9746 16.8945 15.4824C17.5007 14.9902 17.9678 14.4092 18.2959 13.7393C18.624 13.0693 18.7881 12.3379 18.7881 11.5449C18.7881 10.7565 18.624 10.0273 18.2959 9.35742C17.9678 8.6875 17.5007 8.10645 16.8945 7.61426C16.2884 7.12207 15.5684 6.74154 14.7344 6.47266C13.9049 6.19922 12.9912 6.0625 11.9932 6.0625C10.9951 6.0625 10.0814 6.19922 9.25195 6.47266C8.42253 6.74154 7.70475 7.12207 7.09863 7.61426C6.49251 8.10645 6.02311 8.6875 5.69043 9.35742C5.3623 10.0273 5.19824 10.7565 5.19824 11.5449C5.19824 12.0645 5.26888 12.5589 5.41016 13.0283C5.55599 13.4977 5.76563 13.9284 6.03906 14.3203C6.25781 14.6484 6.4196 14.9538 6.52441 15.2363C6.62923 15.5189 6.68164 15.79 6.68164 16.0498C6.68164 16.2002 6.66113 16.3346 6.62012 16.4531C6.58366 16.5716 6.53809 16.6878 6.4834 16.8018C6.63379 16.7653 6.77962 16.7152 6.9209 16.6514C7.06673 16.5876 7.20117 16.5169 7.32422 16.4395C7.53841 16.321 7.73893 16.2526 7.92578 16.2344C8.11719 16.2161 8.32682 16.2572 8.55469 16.3574C9.04688 16.5807 9.58008 16.7516 10.1543 16.8701C10.7331 16.984 11.346 17.041 11.9932 17.041ZM8.78711 12.5703C8.50456 12.5703 8.26302 12.4701 8.0625 12.2695C7.86198 12.069 7.76172 11.8275 7.76172 11.5449C7.76172 11.2624 7.86198 11.0208 8.0625 10.8203C8.26302 10.6198 8.50456 10.5195 8.78711 10.5195C9.06966 10.5195 9.3112 10.6198 9.51172 10.8203C9.7168 11.0208 9.81934 11.2624 9.81934 11.5449C9.81934 11.8275 9.71908 12.069 9.51855 12.2695C9.31803 12.4701 9.07422 12.5703 8.78711 12.5703ZM11.9932 12.5703C11.7152 12.5703 11.4736 12.4701 11.2686 12.2695C11.068 12.069 10.9678 11.8275 10.9678 11.5449C10.9678 11.2624 11.068 11.0208 11.2686 10.8203C11.4736 10.6198 11.7152 10.5195 11.9932 10.5195C12.2757 10.5195 12.5173 10.6198 12.7178 10.8203C12.9183 11.0208 13.0186 11.2624 13.0186 11.5449C13.0186 11.8275 12.9183 12.069 12.7178 12.2695C12.5173 12.4701 12.2757 12.5703 11.9932 12.5703ZM15.1992 12.5703C14.9167 12.5703 14.6751 12.4701 14.4746 12.2695C14.2741 12.069 14.1738 11.8275 14.1738 11.5449C14.1738 11.2624 14.2741 11.0208 14.4746 10.8203C14.6751 10.6198 14.9167 10.5195 15.1992 10.5195C15.4863 10.5195 15.7301 10.6198 15.9307 10.8203C16.1312 11.0208 16.2314 11.2624 16.2314 11.5449C16.2314 11.8275 16.1312 12.069 15.9307 12.2695C15.7301 12.4701 15.4863 12.5703 15.1992 12.5703Z"
    stroke="none"/>
</svg>
