<svg width="24" height="24" viewBox="0 0 24 24" fill="none" xmlns="http://www.w3.org/2000/svg">
<path d="M6.67383 19.8721C4.77539 19.8721 3.79102 18.8965 3.79102 17.0156V6.31934C3.79102 4.43848 4.77539 3.46289 6.67383 3.46289H17.3174C19.2158 3.46289 20.2002 4.43848 20.2002 6.31934V17.0156C20.2002 18.8877 19.2158 19.8721 17.3174 19.8721H6.67383ZM6.7793 18.1494H17.2119C18.0205 18.1494 18.4775 17.7188 18.4775 16.8662V6.45996C18.4775 5.60742 18.0205 5.18555 17.2119 5.18555H6.7793C5.96191 5.18555 5.51367 5.60742 5.51367 6.45996V16.8662C5.51367 17.7188 5.96191 18.1494 6.7793 18.1494Z" stroke="none" />
</svg>
