<svg width="24" height="24" viewBox="0 0 24 24" fill="none" xmlns="http://www.w3.org/2000/svg">
<path d="M6.67383 19.8721C4.77539 19.8721 3.79102 18.8965 3.79102 17.0156V6.31934C3.79102 4.43848 4.77539 3.46289 6.67383 3.46289H17.3174C19.2158 3.46289 20.2002 4.43848 20.2002 6.31934V17.0156C20.2002 18.8877 19.2158 19.8721 17.3174 19.8721H6.67383ZM11.042 15.9961C11.3672 15.9961 11.6484 15.8291 11.8506 15.5303L15.9639 9.11426C16.0869 8.9209 16.1924 8.70117 16.1924 8.49902C16.1924 8.04199 15.7969 7.73438 15.3574 7.73438C15.0762 7.73438 14.8301 7.88379 14.6455 8.19141L11.0068 14.0098L9.31055 11.8564C9.09082 11.5752 8.87988 11.4697 8.60742 11.4697C8.15039 11.4697 7.79883 11.8389 7.79883 12.2871C7.79883 12.5068 7.87793 12.7178 8.03613 12.9111L10.1895 15.5303C10.4355 15.8467 10.708 15.9961 11.042 15.9961Z" stroke="none" />
</svg>
