<svg width="24" height="24" viewBox="0 0 24 24" fill="none" xmlns="http://www.w3.org/2000/svg">
<g clip-path="url(#clip0_16308_290894)">
<path d="M12 20.7334C10.7578 20.7334 9.58887 20.4961 8.49316 20.0215C7.39746 19.5527 6.43066 18.8994 5.59277 18.0615C4.76074 17.2236 4.10742 16.2568 3.63281 15.1611C3.1582 14.0654 2.9209 12.8965 2.9209 11.6543C2.9209 10.4121 3.15527 9.24316 3.62402 8.14746C4.09863 7.05176 4.75488 6.08789 5.59277 5.25586C6.43066 4.41797 7.39453 3.76172 8.48438 3.28711C9.58008 2.8125 10.749 2.5752 11.9912 2.5752C13.1455 2.5752 14.2383 2.7832 15.2695 3.19922C16.3008 3.60938 17.2236 4.18359 18.0381 4.92188C18.8584 5.6543 19.5264 6.50684 20.042 7.47949C20.5576 8.45215 20.8828 9.50098 21.0176 10.626C20.6309 10.5322 20.2236 10.4854 19.7959 10.4854C19.0049 10.4854 18.2607 10.6377 17.5635 10.9424C16.8721 11.2412 16.2598 11.6572 15.7266 12.1904C15.1934 12.7178 14.7744 13.3301 14.4697 14.0273C14.1709 14.7188 14.0215 15.46 14.0215 16.251C14.0215 16.9717 14.1504 17.6543 14.4082 18.2988C14.666 18.9434 15.0205 19.5205 15.4717 20.0303C14.9326 20.2588 14.373 20.4316 13.793 20.5488C13.2129 20.6719 12.6152 20.7334 12 20.7334ZM7.55273 12.7529H11.9912C12.1904 12.7529 12.3574 12.6855 12.4922 12.5508C12.627 12.416 12.6943 12.249 12.6943 12.0498V6.29297C12.6943 6.09961 12.627 5.93555 12.4922 5.80078C12.3574 5.66602 12.1904 5.59863 11.9912 5.59863C11.7979 5.59863 11.6338 5.66602 11.499 5.80078C11.3643 5.93555 11.2969 6.09961 11.2969 6.29297V11.3555H7.55273C7.35938 11.3555 7.19531 11.4229 7.06055 11.5576C6.92578 11.6865 6.8584 11.8506 6.8584 12.0498C6.8584 12.249 6.92578 12.416 7.06055 12.5508C7.19531 12.6855 7.35938 12.7529 7.55273 12.7529ZM19.7959 20.7861C19.1748 20.7861 18.5918 20.6689 18.0469 20.4346C17.502 20.2002 17.0215 19.8721 16.6055 19.4502C16.1895 19.0342 15.8613 18.5537 15.6211 18.0088C15.3867 17.4639 15.2695 16.8809 15.2695 16.2598C15.2695 15.6387 15.3867 15.0557 15.6211 14.5107C15.8613 13.9658 16.1895 13.4854 16.6055 13.0693C17.0215 12.6475 17.502 12.3193 18.0469 12.085C18.5918 11.8506 19.1748 11.7334 19.7959 11.7334C20.417 11.7334 21 11.8506 21.5449 12.085C22.0898 12.3193 22.5703 12.6445 22.9863 13.0605C23.4023 13.4766 23.7275 13.96 23.9619 14.5107C24.2021 15.0557 24.3223 15.6387 24.3223 16.2598C24.3223 16.875 24.2021 17.4551 23.9619 18C23.7275 18.5508 23.3994 19.0342 22.9775 19.4502C22.5615 19.8662 22.0781 20.1914 21.5273 20.4258C20.9824 20.666 20.4053 20.7861 19.7959 20.7861ZM19.2598 18.7119C19.4883 18.7119 19.6611 18.6328 19.7783 18.4746L22.3184 14.9766C22.3652 14.9121 22.3975 14.8477 22.415 14.7832C22.4385 14.7188 22.4502 14.6602 22.4502 14.6074C22.4502 14.4316 22.3857 14.2852 22.2568 14.168C22.1338 14.0449 21.9902 13.9834 21.8262 13.9834C21.6035 13.9834 21.4277 14.0771 21.2988 14.2646L19.2246 17.1299L18.2051 16.0137C18.1465 15.9551 18.0791 15.9082 18.0029 15.873C17.9268 15.8379 17.8359 15.8203 17.7305 15.8203C17.5605 15.8203 17.4141 15.8789 17.291 15.9961C17.168 16.1074 17.1064 16.2568 17.1064 16.4443C17.1064 16.5205 17.1211 16.5996 17.1504 16.6816C17.1855 16.7578 17.2295 16.8311 17.2822 16.9014L18.7588 18.501C18.8174 18.5713 18.8936 18.624 18.9873 18.6592C19.0811 18.6943 19.1719 18.7119 19.2598 18.7119Z" stroke="none"/>
</g>
<defs>
<clipPath id="clip0_16308_290894">
<rect width="24" height="24" fill="white"/>
</clipPath>
</defs>
</svg>
