<svg viewBox="0 0 24 24" xmlns="http://www.w3.org/2000/svg">
    <path stroke="none" d="M12 19.126C8.10352 19.126 4.93848 15.9609 4.93848 12.0645C4.93848 8.16797 8.10352 5.00293 12 5.00293C15.8965 5.00293 19.0615 8.16797 19.0615 12.0645C19.0615 15.9609 15.8965 19.126 12 19.126ZM12 17.7314C15.1377 17.7314 17.6738 15.2021 17.6738 12.0645C17.6738 8.92676 15.1377 6.39062 12 6.39062C8.8623 6.39062 6.32617 8.92676 6.32617 12.0645C6.32617 15.2021 8.8623 17.7314 12 17.7314ZM8.54102 12.9121C8.2334 12.9121 8.00098 12.6729 8.00098 12.3721C8.00098 12.0645 8.2334 11.832 8.54102 11.832H11.4531V7.8877C11.4531 7.58691 11.6924 7.34766 11.9932 7.34766C12.3008 7.34766 12.54 7.58691 12.54 7.8877V12.3721C12.54 12.6729 12.3008 12.9121 11.9932 12.9121H8.54102Z"/>
</svg>
