<svg viewBox="0 0 24 24" xmlns="http://www.w3.org/2000/svg">
  <path
    stroke="none"
    d="M4.89062 18.5107V9.11133C4.89062 7.6416 5.64941 6.86914 7.1123 6.86914H8.26758V5.61133C8.26758 4.13477 9.0332 3.36914 10.4893 3.36914H13.0664C13.8525 3.36914 14.4609 3.56738 14.9736 4.09375L18.3848 7.56641C18.9248 8.12012 19.1094 8.69434 19.1094 9.58984V15.0039C19.1094 16.4805 18.3506 17.2461 16.8877 17.2461H15.7256V18.5107C15.7256 19.9805 14.9736 20.7529 13.5107 20.7529H7.1123C5.64941 20.7529 4.89062 19.9873 4.89062 18.5107ZM15.042 11.3262C15.6162 11.9072 15.7256 12.3311 15.7256 13.2539V15.9062H16.7715C17.4414 15.9062 17.7695 15.5576 17.7695 14.9219V9.26172H14.7549C13.9141 9.26172 13.4629 8.82422 13.4629 7.97656V4.70898H10.6055C9.94238 4.70898 9.60742 5.05762 9.60742 5.68652V6.87598C10.3662 6.88281 10.8105 7.02637 11.3369 7.55957L15.042 11.3262ZM14.584 7.80566C14.584 8.04492 14.6865 8.14062 14.9189 8.14062H17.4209L14.584 5.2627V7.80566ZM6.23047 18.4287C6.23047 19.0645 6.55859 19.4131 7.22168 19.4131H13.3945C14.0576 19.4131 14.3857 19.0645 14.3857 18.4287V13.4111H10.7764C9.80566 13.4111 9.32031 12.9326 9.32031 11.9551V8.20898H7.22168C6.55859 8.20898 6.23047 8.56445 6.23047 9.19336V18.4287ZM10.9062 12.2285H14.2012L10.5029 8.46875V11.8252C10.5029 12.1055 10.626 12.2285 10.9062 12.2285Z"
  />
</svg>
