<svg viewBox="0 0 24 24" xmlns="http://www.w3.org/2000/svg">
  <path
    d="M8.35645 19.4678C6.89355 19.4678 6.13477 18.7021 6.13477 17.2256V6.91016C6.13477 5.44043 6.89355 4.66797 8.35645 4.66797H11.6514C12.5059 4.66797 12.9775 4.80469 13.5518 5.38574L17.1406 9.03613C17.7354 9.6377 17.8584 10.0752 17.8584 11.0254V17.2256C17.8584 18.6953 17.0996 19.4678 15.6367 19.4678H8.35645ZM8.46582 18.1279H15.5205C16.1836 18.1279 16.5186 17.7793 16.5186 17.1436V11.2031H12.834C11.8633 11.2031 11.3779 10.7314 11.3779 9.75391V6.00781H8.46582C7.80273 6.00781 7.47461 6.36328 7.47461 6.99219V17.1436C7.47461 17.7793 7.80273 18.1279 8.46582 18.1279ZM12.957 10.0273H16.334L12.5605 6.19238V9.62402C12.5605 9.9043 12.6768 10.0273 12.957 10.0273ZM14.4336 13.001C14.6797 13.001 14.8643 13.1924 14.8643 13.4316C14.8643 13.6777 14.6797 13.8691 14.4336 13.8691H9.42969C9.16992 13.8691 8.98535 13.6777 8.98535 13.4316C8.98535 13.1924 9.16992 13.001 9.42969 13.001H14.4336ZM14.4336 15.2979C14.6797 15.2979 14.8643 15.4893 14.8643 15.7354C14.8643 15.9746 14.6797 16.1592 14.4336 16.1592H9.42969C9.16992 16.1592 8.98535 15.9746 8.98535 15.7354C8.98535 15.4893 9.16992 15.2979 9.42969 15.2979H14.4336Z"
    stroke="none" />
</svg>
