<svg viewBox="0 0 24 24" xmlns="http://www.w3.org/2000/svg">
  <path
    d="M11.9912 20.7334C10.7373 20.7334 9.5625 20.4961 8.4668 20.0215C7.37109 19.5527 6.40723 18.9023 5.5752 18.0703C4.74316 17.2383 4.08984 16.2744 3.61523 15.1787C3.14648 14.083 2.91211 12.9082 2.91211 11.6543C2.91211 10.4004 3.14648 9.22559 3.61523 8.12988C4.08984 7.02832 4.74316 6.06445 5.5752 5.23828C6.40723 4.40625 7.37109 3.75586 8.4668 3.28711C9.5625 2.8125 10.7373 2.5752 11.9912 2.5752C13.2451 2.5752 14.4199 2.8125 15.5156 3.28711C16.6172 3.75586 17.584 4.40625 18.416 5.23828C19.248 6.06445 19.8984 7.02832 20.3672 8.12988C20.8418 9.22559 21.0791 10.4004 21.0791 11.6543C21.0791 12.9082 20.8418 14.083 20.3672 15.1787C19.8984 16.2744 19.248 17.2383 18.416 18.0703C17.584 18.9023 16.6172 19.5527 15.5156 20.0215C14.4199 20.4961 13.2451 20.7334 11.9912 20.7334ZM11.9824 16.6816C12.0703 16.6816 12.1406 16.6523 12.1934 16.5938C12.2461 16.5352 12.2725 16.4678 12.2725 16.3916V15.6094C12.7588 15.5801 13.207 15.4805 13.6172 15.3105C14.0273 15.1348 14.3555 14.8828 14.6016 14.5547C14.8535 14.2207 14.9795 13.8018 14.9795 13.2979C14.9795 12.8408 14.8711 12.4688 14.6543 12.1816C14.4434 11.8945 14.1592 11.6689 13.8018 11.5049C13.4443 11.3408 13.0518 11.2061 12.624 11.1006L12.2725 11.0303V8.61328C12.6064 8.6543 12.8906 8.75977 13.125 8.92969C13.3652 9.09375 13.541 9.32812 13.6523 9.63281C13.7109 9.78516 13.79 9.89941 13.8896 9.97559C13.9893 10.0459 14.1094 10.0811 14.25 10.0811C14.3906 10.0811 14.5195 10.04 14.6367 9.95801C14.7598 9.87012 14.8213 9.73828 14.8213 9.5625C14.8213 9.19922 14.6982 8.87695 14.4521 8.5957C14.2061 8.30859 13.8867 8.07715 13.4941 7.90137C13.1074 7.72559 12.7002 7.62012 12.2725 7.58496V6.81152C12.2725 6.73535 12.2461 6.66797 12.1934 6.60938C12.1406 6.55078 12.0703 6.52148 11.9824 6.52148C11.9062 6.52148 11.8389 6.55078 11.7803 6.60938C11.7217 6.66797 11.6924 6.73535 11.6924 6.81152V7.58496C11.2354 7.61426 10.8076 7.72266 10.4092 7.91016C10.0166 8.0918 9.7002 8.34668 9.45996 8.6748C9.22559 8.99707 9.1084 9.38379 9.1084 9.83496C9.1084 10.292 9.2168 10.6641 9.43359 10.9512C9.65625 11.2383 9.94043 11.4639 10.2861 11.6279C10.6377 11.7861 11.0068 11.9121 11.3936 12.0059L11.6924 12.0762V14.5811C11.3232 14.5518 11.0127 14.4551 10.7607 14.291C10.5088 14.127 10.3154 13.875 10.1807 13.5352C10.1104 13.3887 10.0283 13.2803 9.93457 13.21C9.84668 13.1338 9.73242 13.0957 9.5918 13.0957C9.42773 13.0957 9.29004 13.1455 9.17871 13.2451C9.06738 13.3389 9.01172 13.4736 9.01172 13.6494C9.01172 13.749 9.03516 13.8662 9.08203 14.001C9.24609 14.5049 9.57715 14.8916 10.0752 15.1611C10.5732 15.4248 11.1123 15.5742 11.6924 15.6094V16.3916C11.6924 16.4678 11.7217 16.5352 11.7803 16.5938C11.8389 16.6523 11.9062 16.6816 11.9824 16.6816ZM10.3301 9.72949C10.3301 9.50098 10.3916 9.31055 10.5146 9.1582C10.6436 9 10.8135 8.87695 11.0244 8.78906C11.2354 8.70117 11.458 8.64258 11.6924 8.61328V10.8896L11.6221 10.8721C11.3818 10.8135 11.1621 10.7373 10.9629 10.6436C10.7695 10.5439 10.6143 10.4209 10.4971 10.2744C10.3857 10.1279 10.3301 9.94629 10.3301 9.72949ZM12.2725 14.5898V12.208L12.3604 12.2256C12.7354 12.3193 13.0635 12.4482 13.3447 12.6123C13.626 12.7764 13.7666 13.043 13.7666 13.4121C13.7666 13.8164 13.6172 14.1064 13.3184 14.2822C13.0195 14.458 12.6709 14.5605 12.2725 14.5898Z"
    stroke="none"
  />
</svg>
