<svg  viewBox="0 0 24 24" xmlns="http://www.w3.org/2000/svg">
  <path
    d="M2.72754 9.87012H3.9668C4.80176 5.73047 8.50195 2.5752 12.8613 2.5752C17.8359 2.5752 21.9404 6.68848 21.9404 11.6543C21.9404 16.6289 17.8359 20.7334 12.8613 20.7334C10.0137 20.7334 7.35059 19.3008 5.72461 17.1738C5.33789 16.708 5.41699 16.1455 5.82129 15.8555C6.24316 15.5479 6.76172 15.6797 7.11328 16.0928C8.43164 17.833 10.4971 18.9404 12.8613 18.9492C16.9043 18.958 20.1562 15.6973 20.1562 11.6543C20.1562 7.61133 16.9043 4.36816 12.8613 4.36816C9.43359 4.36816 6.57715 6.69727 5.78613 9.87012H7.06055C7.7373 9.87012 7.9043 10.3887 7.54395 10.8896L5.41699 13.8516C5.12695 14.2559 4.66992 14.2646 4.37109 13.8516L2.24414 10.8984C1.86621 10.3799 2.04199 9.87012 2.72754 9.87012ZM12.3428 16.6904V15.8555C10.875 15.7061 9.89062 14.9326 9.69727 14.0273C9.58301 13.4912 9.84668 13.0869 10.3301 13.0869C10.6025 13.0869 10.8574 13.2451 11.0156 13.5439C11.2617 14.1416 11.6836 14.502 12.3428 14.6162V12.208L12.0439 12.1465C10.4707 11.7773 9.71484 11.0566 9.71484 9.87891C9.71484 8.56934 10.7783 7.62012 12.3428 7.4707V6.62695C12.3428 6.33691 12.5801 6.09961 12.8701 6.09961C13.1514 6.09961 13.3887 6.33691 13.3887 6.62695V7.49707C14.7246 7.68164 15.542 8.49902 15.7705 9.29004C15.9287 9.81738 15.6562 10.2656 15.1553 10.2656C14.8828 10.2656 14.6455 10.1162 14.4785 9.79102C14.25 9.2373 13.8984 8.89453 13.3887 8.75391V11.0918L13.793 11.1797C15.4365 11.5576 16.1045 12.208 16.1045 13.4033C16.1045 14.7217 15.0059 15.6797 13.3887 15.8555V16.6904C13.3887 16.9805 13.1514 17.2178 12.8701 17.2178C12.5801 17.2178 12.3428 16.9805 12.3428 16.6904ZM11.2002 9.80859C11.2002 10.3096 11.5342 10.626 12.3428 10.8457V8.71875C11.6396 8.83301 11.2002 9.24609 11.2002 9.80859ZM14.5928 13.5264C14.5928 12.9639 14.2588 12.665 13.3887 12.4541V14.6162C14.1357 14.4932 14.5928 14.0977 14.5928 13.5264Z"
    stroke="none"
  />
</svg>
