<svg viewBox="0 0 24 24" fill="none" xmlns="http://www.w3.org/2000/svg">
  <g clip-path="url(#clip0_10840_216283)">
    <path
      d="M12 19.126C8.10352 19.126 4.93848 15.9609 4.93848 12.0645C4.93848 8.16797 8.10352 5.00293 12 5.00293C15.8965 5.00293 19.0615 8.16797 19.0615 12.0645C19.0615 15.9609 15.8965 19.126 12 19.126ZM12 17.7314C15.1377 17.7314 17.6738 15.2021 17.6738 12.0645C17.6738 8.92676 15.1377 6.39062 12 6.39062C8.8623 6.39062 6.32617 8.92676 6.32617 12.0645C6.32617 15.2021 8.8623 17.7314 12 17.7314ZM11.9932 15.8242C11.877 15.8242 11.7744 15.7285 11.7744 15.6055V15.0244C10.9131 14.9697 10.0654 14.5801 9.81934 13.8076C9.78516 13.7188 9.77148 13.6367 9.77148 13.5547C9.77148 13.2949 9.95605 13.1514 10.1953 13.1514C10.4072 13.1514 10.5303 13.2471 10.6328 13.4727C10.8379 13.9854 11.2207 14.2178 11.7744 14.2588V12.3721L11.5557 12.3174C10.6875 12.1191 9.84668 11.7158 9.84668 10.6973C9.84668 9.68555 10.7422 9.09082 11.7744 9.02246V8.44141C11.7744 8.3252 11.877 8.22266 11.9932 8.22266C12.1094 8.22266 12.2119 8.3252 12.2119 8.44141V9.02246C13.1621 9.10449 14.1123 9.68555 14.1123 10.4922C14.1123 10.7588 13.8936 10.8818 13.6885 10.8818C13.4766 10.8818 13.333 10.7725 13.2441 10.5537C13.0801 10.0957 12.7178 9.83594 12.2119 9.78125V11.5996L12.4648 11.6543C13.4219 11.8799 14.2285 12.2695 14.2285 13.3018C14.2285 14.4229 13.292 14.9561 12.2119 15.0244V15.6055C12.2119 15.7285 12.1094 15.8242 11.9932 15.8242ZM10.749 10.6289C10.749 11.1348 11.207 11.3672 11.7744 11.4971V9.78125C11.2412 9.84277 10.749 10.1094 10.749 10.6289ZM13.333 13.3838C13.333 12.8027 12.7998 12.6113 12.2119 12.4746V14.2656C12.8066 14.2178 13.333 13.9854 13.333 13.3838Z"
      stroke="none"/>
  </g>
</svg>
