<svg viewBox="0 0 24 24" xmlns="http://www.w3.org/2000/svg">
  <path
    stroke="none"
    d="M5.66309 16.0361C5.33496 16.0361 5.23242 15.7422 5.44434 15.5166L6.42188 14.498C6.16895 14.2246 6.12793 13.8623 6.28516 13.5068L7.24219 11.2441C7.31738 11.0732 7.37891 10.9912 7.48828 10.875L14.085 4.33301C14.7412 3.67676 15.5273 3.68359 16.1904 4.35351L17.667 5.83691C18.3301 6.5 18.3369 7.28613 17.6807 7.94238L11.084 14.4912C10.9746 14.6006 10.8857 14.6621 10.7148 14.7373L8.45215 15.6807C8.07617 15.8379 7.7002 15.79 7.44727 15.5303L6.98926 15.8789C6.83887 16.002 6.75684 16.0361 6.55176 16.0361H5.66309ZM14.8438 5.22851L14.3857 5.67969L16.3271 7.63476L16.7852 7.18359C16.9629 7.00586 16.9697 6.79394 16.8057 6.62305L15.4043 5.21484C15.2334 5.04394 15.0215 5.05078 14.8438 5.22851ZM8.69141 11.3398L10.6328 13.2949L15.5957 8.35937L13.6543 6.41113L8.69141 11.3398ZM8.31543 14.4775L9.75098 13.876L8.10352 12.2148L7.48828 13.6504C7.43359 13.7734 7.43359 13.8691 7.5498 13.9854L7.98047 14.416C8.09668 14.5322 8.18555 14.5322 8.31543 14.4775ZM5.44434 18.4697C5.11621 18.4697 4.84961 18.1895 4.84961 17.8682C4.84961 17.54 5.11621 17.2666 5.44434 17.2666H18.5557C18.8838 17.2666 19.1504 17.54 19.1504 17.8682C19.1504 18.1895 18.8838 18.4697 18.5557 18.4697H5.44434Z"
  />
</svg>
