<svg viewBox="0 0 32 32" xmlns="http://www.w3.org/2000/svg">
  <path
    stroke="none"
    d="M4.97266 20.4062H6.70703V11.9336C6.70703 8.45312 8.82812 6.16797 11.9336 6.16797C14.9805 6.16797 17.1836 8.46484 17.1836 11.9336V19.9609C17.1836 21.9297 18.4023 23.1602 20.0547 23.1602C21.707 23.1602 22.8906 21.918 22.8906 19.9609V11.2188H21.1797C20.2773 11.2188 20.0312 10.5508 20.5586 9.82422L23.3477 5.89844C23.7812 5.30078 24.4258 5.3125 24.8477 5.89844L27.6367 9.83594C28.1523 10.5508 27.9062 11.2188 27.0156 11.2188H25.2812V19.7852C25.2812 23.2656 23.1484 25.5508 20.0547 25.5508C17.0078 25.5508 14.8047 23.2539 14.8047 19.7852V11.7578C14.8047 9.78906 13.5859 8.55859 11.9336 8.55859C10.2695 8.55859 9.08594 9.80078 9.08594 11.7578V20.4062H10.8086C11.6992 20.4062 11.9453 21.0742 11.4297 21.7891L8.64062 25.7266C8.21875 26.3125 7.57422 26.3125 7.15234 25.7266L4.35156 21.8008C3.83594 21.0742 4.07031 20.4062 4.97266 20.4062Z"
  />
</svg>
