<svg viewBox="0 0 24 24" xmlns="http://www.w3.org/2000/svg">
  <path
    d="M6.8252 19.4678C5.88639 19.4678 5.16178 19.2148 4.65137 18.709C4.14551 18.2031 3.89258 17.4785 3.89258 16.5352V7.60742C3.89258 6.66406 4.14551 5.93945 4.65137 5.43359C5.16178 4.92318 5.88639 4.66797 6.8252 4.66797H12.6904C13.6292 4.66797 14.3516 4.92318 14.8574 5.43359C15.3633 5.93945 15.6162 6.66406 15.6162 7.60742V10.1436H14.2764V7.63477C14.2764 7.11523 14.1351 6.71419 13.8525 6.43164C13.57 6.14909 13.1689 6.00781 12.6494 6.00781H6.85938C6.33984 6.00781 5.9388 6.14909 5.65625 6.43164C5.37826 6.71419 5.23926 7.11523 5.23926 7.63477V16.4941C5.23926 17.0182 5.37826 17.4193 5.65625 17.6973C5.9388 17.9798 6.33984 18.1211 6.85938 18.1211H12.6494C13.1689 18.1211 13.57 17.9798 13.8525 17.6973C14.1351 17.4193 14.2764 17.0182 14.2764 16.4941V13.9854H15.6162V16.5352C15.6162 17.4785 15.3633 18.2031 14.8574 18.709C14.3516 19.2148 13.6292 19.4678 12.6904 19.4678H6.8252ZM9.93555 12.0645C9.93555 11.8913 9.99707 11.7432 10.1201 11.6201C10.2432 11.4925 10.389 11.4287 10.5576 11.4287H17.4141L19.3828 11.5449C19.5241 11.554 19.6449 11.6064 19.7451 11.7021C19.8499 11.7979 19.9023 11.9186 19.9023 12.0645C19.9023 12.2057 19.8499 12.3265 19.7451 12.4268C19.6449 12.5225 19.5241 12.5749 19.3828 12.584L17.4141 12.6934H10.5576C10.389 12.6934 10.2432 12.6318 10.1201 12.5088C9.99707 12.3857 9.93555 12.2376 9.93555 12.0645ZM16.7715 9.71973C16.7715 9.56022 16.8216 9.42806 16.9219 9.32324C17.0267 9.21387 17.1566 9.15918 17.3115 9.15918C17.4619 9.15918 17.5986 9.21615 17.7217 9.33008L19.8887 11.5859C19.9661 11.6634 20.0208 11.7432 20.0527 11.8252C20.0846 11.9027 20.1006 11.9824 20.1006 12.0645C20.1006 12.1465 20.0846 12.2262 20.0527 12.3037C20.0208 12.3812 19.9661 12.4609 19.8887 12.543L17.7217 14.792C17.5986 14.9105 17.4619 14.9697 17.3115 14.9697C17.1566 14.9697 17.0267 14.915 16.9219 14.8057C16.8216 14.6917 16.7715 14.5573 16.7715 14.4023C16.7715 14.2337 16.833 14.0947 16.9561 13.9854L17.9951 13.001L19.1367 12.0645L17.9951 11.1211L16.9561 10.1436C16.833 10.0342 16.7715 9.8929 16.7715 9.71973Z"
    stroke="none"/>
</svg>
