<svg width="16" height="16" viewBox="0 0 16 16" fill="none" xmlns="http://www.w3.org/2000/svg">
  <!-- TODO: use a more appropriate version as soon as it appears -->
  <path
    d="M3.7666 13.8018C2.69238 13.8018 2.12598 13.2256 2.12598 12.1465V4.80762C2.12598 3.72852 2.69238 3.15723 3.7666 3.15723H8.98145C10.0508 3.15723 10.6221 3.72852 10.6221 4.80762V7.0293H9.5332V4.90039C9.5332 4.47559 9.31836 4.24121 8.86914 4.24121H3.87891C3.42969 4.24121 3.21484 4.47559 3.21484 4.90039V12.0537C3.21484 12.4834 3.42969 12.7129 3.87891 12.7129H8.86914C9.31836 12.7129 9.5332 12.4834 9.5332 12.0537V9.91504H10.6221V12.1465C10.6221 13.2256 10.0508 13.8018 8.98145 13.8018H3.7666ZM7.02344 8.97266C6.75488 8.97266 6.53027 8.75293 6.53027 8.47461C6.53027 8.19629 6.75488 7.97168 7.02344 7.97168H11.8721L12.5947 8.01562L12.2236 7.73242L11.54 7.08789C11.4473 7.00488 11.3936 6.87793 11.3936 6.75586C11.3936 6.5166 11.5693 6.31641 11.8184 6.31641C11.9453 6.31641 12.043 6.36523 12.1309 6.45801L13.6982 8.08887C13.8301 8.21582 13.874 8.34277 13.874 8.47461C13.874 8.60645 13.8301 8.72852 13.6982 8.86035L12.1309 10.4912C12.043 10.5791 11.9453 10.6279 11.8184 10.6279C11.5693 10.6279 11.3936 10.4277 11.3936 10.1885C11.3936 10.0664 11.4473 9.94434 11.54 9.85645L12.2236 9.2168L12.5898 8.93359L11.8721 8.97266H7.02344Z"
    stroke="none"
  />
</svg>
