<svg viewBox="0 0 24 24" fill="none" xmlns="http://www.w3.org/2000/svg">
  <g clip-path="url(#clip0_10327_271249)">
    <path
      d="M4.59668 19.1328C4.59668 18.7842 4.88379 18.4971 5.22559 18.4971H5.7041V6.1582C5.7041 4.99609 6.33301 4.35352 7.50195 4.35352H13.8047C14.9668 4.35352 15.6094 4.99609 15.6094 6.1582V12.4268H15.7256C16.6689 12.4268 17.25 12.9873 17.25 13.958V16.2139C17.25 16.5488 17.4551 16.7539 17.7969 16.7539C18.125 16.7539 18.3301 16.5488 18.3301 16.2139V11.2373L17.1748 9.89746C16.8535 9.51465 16.8125 9.10449 17.1201 8.68066L17.9883 7.46387C18.084 7.32715 18.0908 7.16309 18.0088 7.02637L17.2363 5.77539C16.8467 5.13965 17.7559 4.59961 18.1387 5.21484L19.0752 6.73242C19.2803 7.06738 19.3965 7.39551 19.3965 7.81934V16.2139C19.3965 17.2051 18.7881 17.8203 17.7969 17.8203C16.7988 17.8203 16.1836 17.2051 16.1836 16.2139V13.958C16.1836 13.6504 16.0059 13.4932 15.7256 13.4932H15.6094V18.4971H16.0811C16.4297 18.4971 16.7168 18.791 16.7168 19.1328C16.7168 19.4883 16.4365 19.7754 16.0811 19.7754H5.22559C4.87695 19.7754 4.59668 19.4883 4.59668 19.1328ZM6.98242 6.20605V18.4971H14.3311V6.20605C14.3311 5.83008 14.1328 5.63184 13.7637 5.63184H7.5498C7.16699 5.63184 6.98242 5.83008 6.98242 6.20605ZM8.50684 12.0166C8.0625 12.0166 7.76172 11.7432 7.76172 11.3398V7.18359C7.76172 6.78027 8.0625 6.5 8.50684 6.5H12.8066C13.2441 6.5 13.5586 6.78027 13.5586 7.18359V11.3398C13.5586 11.7432 13.251 12.0166 12.8066 12.0166H8.50684Z" stroke="none"/>
  </g>
</svg>
