<svg width="24" height="24" viewBox="0 0 24 24" fill="none" xmlns="http://www.w3.org/2000/svg">
  <path d="M17.3867 18.1074L5.80664 6.53418C5.60156 6.3291 5.60156 5.97363 5.80664 5.76855C6.01855 5.5498 6.37402 5.55664 6.5791 5.76855L18.1592 17.335C18.3711 17.5469 18.3848 17.875 18.1592 18.1074C17.9404 18.333 17.6055 18.3193 17.3867 18.1074ZM12 6.1582C17.6055 6.1582 21.3857 10.6699 21.3857 12.0713C21.3857 12.8779 20.1348 14.7168 17.9883 16.125L16.9766 15.1064C18.7334 14.0059 19.8408 12.6113 19.8408 12.0713C19.8408 11.2715 16.3682 7.4707 12 7.4707C11.2275 7.4707 10.5098 7.58691 9.81934 7.78516L8.72559 6.69141C9.73047 6.36328 10.8105 6.1582 12 6.1582ZM12 17.9912C6.46973 17.9912 2.60742 13.4727 2.60742 12.0713C2.60742 11.251 3.92676 9.37109 6.16211 7.94922L7.19434 8.98145C5.32129 10.1299 4.15918 11.6133 4.15918 12.0713C4.15918 13.0283 7.63184 16.6787 12 16.6787C12.8477 16.6787 13.6338 16.542 14.3789 16.3232L15.4658 17.4102C14.4199 17.7725 13.2646 17.9912 12 17.9912ZM15.4111 13.3906L10.6738 8.65332C11.084 8.48242 11.5283 8.39355 12 8.39355C14.0508 8.39355 15.6914 10.0137 15.6914 12.0713C15.6914 12.5361 15.5889 12.9873 15.4111 13.3906ZM12 15.7559C9.94238 15.7559 8.30859 14.0811 8.30176 12.0781C8.30176 11.5312 8.4248 11.0322 8.64355 10.5811L13.4766 15.4209C13.0322 15.6328 12.5332 15.7559 12 15.7559Z" stroke="none" />
</svg>
