<svg width="24" height="24" viewBox="0 0 24 24" fill="none" xmlns="http://www.w3.org/2000/svg">
  <path d="M12 17.9912C6.46973 17.9912 2.60742 13.4727 2.60742 12.0713C2.60742 10.6699 6.47656 6.1582 12 6.1582C17.5986 6.1582 21.3857 10.6699 21.3857 12.0713C21.3857 13.4727 17.6055 17.9912 12 17.9912ZM12 16.6787C16.3613 16.6787 19.8408 13.0283 19.8408 12.0713C19.8408 11.2715 16.3613 7.4707 12 7.4707C7.63184 7.4707 4.15918 11.2715 4.15918 12.0713C4.15918 13.0283 7.63184 16.6787 12 16.6787ZM12 15.7559C9.94238 15.7559 8.30176 14.0742 8.30176 12.0713C8.30176 10.0137 9.94238 8.39355 12 8.39355C14.0508 8.39355 15.6914 10.0137 15.6914 12.0713C15.6914 14.0742 14.0508 15.7559 12 15.7559ZM12 13.2607C12.6631 13.2607 13.1963 12.7275 13.1963 12.0713C13.1963 11.415 12.6631 10.8818 12 10.8818C11.3369 10.8818 10.7969 11.415 10.7969 12.0713C10.7969 12.7275 11.3369 13.2607 12 13.2607Z" stroke="none" />
</svg>
