<svg viewBox="0 0 24 24" fill="none" xmlns="http://www.w3.org/2000/svg">
  <path
    d="M7.65918 18.4971C7.35156 18.3193 7.23535 17.9297 7.50195 17.54L15.377 5.87793C15.6367 5.50879 16.0264 5.44727 16.3135 5.61133C16.6279 5.78906 16.7646 6.20605 16.5049 6.58887L8.62305 18.2783C8.38379 18.627 7.95996 18.668 7.65918 18.4971ZM7.90527 12.0508C6.35352 12.0508 5.39648 10.8203 5.39648 8.83105C5.39648 6.8418 6.36035 5.63184 7.90527 5.63184C9.4502 5.63184 10.4141 6.83496 10.4141 8.83105C10.4141 10.8135 9.46387 12.0508 7.90527 12.0508ZM7.90527 10.9365C8.65039 10.9365 9.08105 10.1777 9.08105 8.83105C9.08105 7.49121 8.65039 6.74609 7.90527 6.74609C7.16016 6.74609 6.72949 7.49805 6.72949 8.83105C6.72949 10.1777 7.16016 10.9365 7.90527 10.9365ZM16.0947 18.5039C14.5361 18.5039 13.5859 17.2734 13.5859 15.2842C13.5859 13.2949 14.543 12.085 16.0947 12.085C17.6396 12.085 18.5967 13.2881 18.5967 15.2842C18.5967 17.2666 17.6465 18.5039 16.0947 18.5039ZM16.0947 17.3896C16.8398 17.3896 17.2637 16.6309 17.2637 15.2842C17.2637 13.9443 16.833 13.1992 16.0947 13.1992C15.3496 13.1992 14.9189 13.9512 14.9189 15.2842C14.9189 16.6309 15.3428 17.3896 16.0947 17.3896Z"
    stroke="none"/>
</svg>
