<svg viewBox="0 0 24 24" xmlns="http://www.w3.org/2000/svg">
  <path
    stroke="none"
    d="M12 19.126C8.1377 19.126 4.93848 15.9336 4.93848 12.0645C4.93848 8.20215 8.13086 5.00293 11.9932 5.00293C15.8623 5.00293 19.0615 8.20215 19.0615 12.0645C19.0615 15.9336 15.8623 19.126 12 19.126ZM12 17.7383C15.1445 17.7383 17.6738 15.209 17.6738 12.0645C17.6738 8.91992 15.1377 6.39746 11.9932 6.39746C8.84863 6.39746 6.33301 8.91992 6.33301 12.0645C6.33301 15.209 8.85547 17.7383 12 17.7383ZM8.41797 10.7588C8.07617 10.7588 7.84375 10.5469 7.84375 10.2256C7.84375 9.9043 8.07617 9.68555 8.41797 9.68555H15.5889C15.9307 9.68555 16.1699 9.9043 16.1699 10.2256C16.1699 10.5469 15.9307 10.7588 15.5889 10.7588H8.41797ZM9.36816 13.0215C9.02637 13.0215 8.78711 12.8027 8.78711 12.4814C8.78711 12.1602 9.02637 11.9414 9.36816 11.9414H14.6455C14.9805 11.9414 15.2197 12.1602 15.2197 12.4814C15.2197 12.8027 14.9805 13.0215 14.6455 13.0215H9.36816ZM10.3525 15.2773C10.0107 15.2773 9.77148 15.0654 9.77148 14.7441C9.77148 14.4229 10.0107 14.2041 10.3525 14.2041H13.6543C13.9961 14.2041 14.2354 14.4229 14.2354 14.7441C14.2354 15.0654 13.9961 15.2773 13.6543 15.2773H10.3525Z"
  />
</svg>
