<svg viewBox="0 0 24 24" xmlns="http://www.w3.org/2000/svg">
  <path
    stroke="none"
    d="M12 19.126C8.1377 19.126 4.93848 15.9336 4.93848 12.0645C4.93848 8.20215 8.13086 5.00293 11.9932 5.00293C15.8623 5.00293 19.0615 8.20215 19.0615 12.0645C19.0615 15.9336 15.8623 19.126 12 19.126ZM8.28809 10.6973H15.7324C16.0811 10.6973 16.3408 10.4717 16.3408 10.1367C16.3408 9.79492 16.0811 9.57617 15.7324 9.57617H8.28809C7.93262 9.57617 7.67969 9.79492 7.67969 10.1367C7.67969 10.4717 7.93262 10.6973 8.28809 10.6973ZM9.27246 13.0488H14.748C15.1035 13.0488 15.3496 12.8232 15.3496 12.4814C15.3496 12.1465 15.1035 11.9141 14.748 11.9141H9.27246C8.91699 11.9141 8.6709 12.1465 8.6709 12.4814C8.6709 12.8232 8.91699 13.0488 9.27246 13.0488ZM10.2979 15.3936H13.7227C14.0781 15.3936 14.3311 15.168 14.3311 14.833C14.3311 14.498 14.0781 14.2725 13.7227 14.2725H10.2979C9.94238 14.2725 9.68945 14.498 9.68945 14.833C9.68945 15.168 9.94238 15.3936 10.2979 15.3936Z"
  />
</svg>
