<svg viewBox="0 0 24 24" xmlns="http://www.w3.org/2000/svg">
  <path
    stroke="none"
    d="M7.23535 18.8857C6.83887 18.8857 6.49707 18.7992 6.20996 18.626C5.92741 18.4574 5.70638 18.2272 5.54688 17.9355C5.39193 17.6484 5.31445 17.3271 5.31445 16.9717C5.31445 16.7985 5.34863 16.6094 5.41699 16.4043C5.48535 16.1992 5.58561 15.9964 5.71777 15.7959L9.52539 10.1221L10.5166 10.874L6.75684 16.4727C6.70215 16.5547 6.66797 16.6322 6.6543 16.7051C6.64518 16.7826 6.64062 16.8486 6.64062 16.9033C6.64062 17.0993 6.70443 17.2702 6.83203 17.416C6.95964 17.5618 7.13281 17.6348 7.35156 17.6348H16.6416C16.8604 17.6348 17.0335 17.5618 17.1611 17.416C17.2887 17.2702 17.3525 17.0993 17.3525 16.9033C17.3525 16.8486 17.3457 16.7826 17.332 16.7051C17.3229 16.6322 17.291 16.5547 17.2363 16.4727L13.4697 10.874L14.4609 10.1221L18.2207 15.7275C18.3757 15.9508 18.4896 16.1719 18.5625 16.3906C18.64 16.6048 18.6787 16.7985 18.6787 16.9717C18.6787 17.3271 18.599 17.6484 18.4395 17.9355C18.2845 18.2272 18.0635 18.4574 17.7764 18.626C17.4893 18.7992 17.1497 18.8857 16.7578 18.8857H7.23535ZM9.25195 10.874V4.87891H10.5166V10.874H9.25195ZM14.7412 10.874H13.4697V4.87891H14.7412V10.874ZM9.28613 5.54883C9.09473 5.54883 8.9375 5.48503 8.81445 5.35742C8.69141 5.22526 8.62988 5.06803 8.62988 4.88574C8.62988 4.70345 8.69141 4.5485 8.81445 4.4209C8.9375 4.29329 9.09473 4.22949 9.28613 4.22949H14.7002C14.8962 4.22949 15.0557 4.29329 15.1787 4.4209C15.3018 4.5485 15.3633 4.70345 15.3633 4.88574C15.3633 5.06803 15.3018 5.22526 15.1787 5.35742C15.0557 5.48503 14.8962 5.54883 14.7002 5.54883H9.28613ZM9.8877 7.36719V6.52637H11.7471C11.8656 6.52637 11.9658 6.56738 12.0479 6.64941C12.1344 6.73145 12.1777 6.82943 12.1777 6.94336C12.1777 7.06185 12.1367 7.16211 12.0547 7.24414C11.9772 7.32617 11.877 7.36719 11.7539 7.36719H9.8877ZM9.89453 9.28809V8.44727H11.7539C11.8724 8.44727 11.9727 8.48828 12.0547 8.57031C12.1367 8.65234 12.1777 8.74805 12.1777 8.85742C12.1777 8.98047 12.1367 9.08301 12.0547 9.16504C11.9772 9.24707 11.8792 9.28809 11.7607 9.28809H9.89453ZM9.89453 11.209V10.3613H11.7607C11.8792 10.3613 11.9772 10.4046 12.0547 10.4912C12.1367 10.5732 12.1777 10.6689 12.1777 10.7783C12.1777 10.9014 12.1367 11.0039 12.0547 11.0859C11.9772 11.168 11.8792 11.209 11.7607 11.209H9.89453Z"
  />
</svg>
