<svg width="24" height="24" viewBox="0 0 24 24" fill="none" xmlns="http://www.w3.org/2000/svg">
<path d="M5.87402 21.5674C5.36426 21.5674 4.9248 21.4561 4.55566 21.2334C4.19238 21.0166 3.9082 20.7207 3.70312 20.3457C3.50391 19.9766 3.4043 19.5635 3.4043 19.1064C3.4043 18.8838 3.44824 18.6406 3.53613 18.377C3.62402 18.1133 3.75293 17.8525 3.92285 17.5947L8.81836 10.2998L10.0928 11.2666L5.25879 18.4648C5.18848 18.5703 5.14453 18.6699 5.12695 18.7637C5.11523 18.8633 5.10938 18.9482 5.10938 19.0186C5.10938 19.2705 5.19141 19.4902 5.35547 19.6777C5.51953 19.8652 5.74219 19.959 6.02344 19.959H17.9678C18.249 19.959 18.4717 19.8652 18.6357 19.6777C18.7998 19.4902 18.8818 19.2705 18.8818 19.0186C18.8818 18.9482 18.873 18.8633 18.8555 18.7637C18.8438 18.6699 18.8027 18.5703 18.7324 18.4648L13.8896 11.2666L15.1641 10.2998L19.998 17.5068C20.1973 17.7939 20.3438 18.0781 20.4375 18.3594C20.5371 18.6348 20.5869 18.8838 20.5869 19.1064C20.5869 19.5635 20.4844 19.9766 20.2793 20.3457C20.0801 20.7207 19.7959 21.0166 19.4268 21.2334C19.0576 21.4561 18.6211 21.5674 18.1172 21.5674H5.87402ZM8.4668 11.2666V3.55859H10.0928V11.2666H8.4668ZM15.5244 11.2666H13.8896V3.55859H15.5244V11.2666ZM8.51074 4.41992C8.26465 4.41992 8.0625 4.33789 7.9043 4.17383C7.74609 4.00391 7.66699 3.80176 7.66699 3.56738C7.66699 3.33301 7.74609 3.13379 7.9043 2.96973C8.0625 2.80566 8.26465 2.72363 8.51074 2.72363H15.4717C15.7236 2.72363 15.9287 2.80566 16.0869 2.96973C16.2451 3.13379 16.3242 3.33301 16.3242 3.56738C16.3242 3.80176 16.2451 4.00391 16.0869 4.17383C15.9287 4.33789 15.7236 4.41992 15.4717 4.41992H8.51074ZM9.28418 6.75781V5.67676H11.6748C11.8271 5.67676 11.9561 5.72949 12.0615 5.83496C12.1729 5.94043 12.2285 6.06641 12.2285 6.21289C12.2285 6.36523 12.1758 6.49414 12.0703 6.59961C11.9707 6.70508 11.8418 6.75781 11.6836 6.75781H9.28418ZM9.29297 9.22754V8.14648H11.6836C11.8359 8.14648 11.9648 8.19922 12.0703 8.30469C12.1758 8.41016 12.2285 8.5332 12.2285 8.67383C12.2285 8.83203 12.1758 8.96387 12.0703 9.06934C11.9707 9.1748 11.8447 9.22754 11.6924 9.22754H9.29297ZM9.29297 11.6973V10.6074H11.6924C11.8447 10.6074 11.9707 10.6631 12.0703 10.7744C12.1758 10.8799 12.2285 11.0029 12.2285 11.1436C12.2285 11.3018 12.1758 11.4336 12.0703 11.5391C11.9707 11.6445 11.8447 11.6973 11.6924 11.6973H9.29297Z" fill="#FF5B00"/>
</svg>
