<svg viewBox="0 0 24 24" xmlns="http://www.w3.org/2000/svg">
  <path
    stroke="none"
    d="M7.85742 18.4561C6.38086 18.4561 5.61523 17.6973 5.61523 16.2344L5.61523 7.91504C5.61523 6.45215 6.38086 5.69336 7.85742 5.69336L16.1357 5.69336C17.6123 5.69336 18.3779 6.45215 18.3779 7.91504V16.2344C18.3779 17.6904 17.6123 18.4561 16.1357 18.4561H7.85742ZM7.93945 17.1162H16.0537C16.6826 17.1162 17.0381 16.7812 17.0381 16.1182V8.02441C17.0381 7.36133 16.6826 7.0332 16.0537 7.0332L7.93945 7.0332C7.30371 7.0332 6.95508 7.36133 6.95508 8.02441L6.95508 16.1182C6.95508 16.7812 7.30371 17.1162 7.93945 17.1162ZM14.9121 12.1055C14.625 12.1055 14.3926 11.873 14.3926 11.5859V11.2783L14.4746 10.3008L13.1074 11.75C12.8887 11.9824 12.5264 11.9756 12.3076 11.75C12.082 11.5312 12.0889 11.1621 12.3076 10.9502L13.7432 9.59668L12.7998 9.67187H12.4922C12.2051 9.67188 11.9727 9.44629 11.9727 9.15234C11.9727 8.87207 12.2051 8.63965 12.4922 8.63965H14.7959C15.1992 8.63965 15.4316 8.83105 15.4316 9.26855L15.4316 11.5859C15.4316 11.873 15.1992 12.1055 14.9121 12.1055ZM11.501 15.5029L9.19727 15.5029C8.79395 15.5029 8.56152 15.3115 8.56152 14.874V12.5566C8.56152 12.2695 8.79395 12.0371 9.08105 12.0371C9.36816 12.0371 9.60059 12.2695 9.60059 12.5566V12.8643L9.51855 13.8418L10.8857 12.3926C11.1045 12.1602 11.4668 12.167 11.6855 12.3926C11.9043 12.6113 11.9043 12.9805 11.6787 13.1924L10.2432 14.5459L11.1934 14.4707H11.501C11.7881 14.4707 12.0205 14.6963 12.0205 14.9902C12.0205 15.2705 11.7881 15.5029 11.501 15.5029Z"
  />
</svg>
