<svg width="25" height="24" viewBox="0 0 25 24" fill="none" xmlns="http://www.w3.org/2000/svg">
<path d="M6.41602 15.9258C6.22266 15.9258 6.06152 15.873 5.93262 15.7676C5.80371 15.6621 5.71582 15.5186 5.66895 15.3369L5.32617 13.9131C5.20898 13.8662 5.09473 13.8223 4.9834 13.7812C4.87207 13.7344 4.76367 13.6846 4.6582 13.6318L3.41016 14.4053C3.25195 14.499 3.08789 14.54 2.91797 14.5283C2.74805 14.5107 2.5957 14.4346 2.46094 14.2998L1.62598 13.4561C1.49707 13.3213 1.4209 13.1689 1.39746 12.999C1.37988 12.8232 1.4209 12.6533 1.52051 12.4893L2.29395 11.2588C2.24121 11.1533 2.19141 11.0479 2.14453 10.9424C2.09766 10.8311 2.05664 10.7197 2.02148 10.6084L0.588867 10.2656C0.407227 10.2188 0.263672 10.1338 0.158203 10.0107C0.0527344 9.88184 0 9.7207 0 9.52734V8.34961C0 7.95117 0.196289 7.70508 0.588867 7.61133L2.00391 7.25098C2.05078 7.13379 2.09473 7.02246 2.13574 6.91699C2.18262 6.80566 2.22949 6.7002 2.27637 6.60059L1.52051 5.34375C1.42676 5.17383 1.38281 5.00684 1.38867 4.84277C1.39453 4.67871 1.46777 4.53223 1.6084 4.40332L2.46094 3.55957C2.5957 3.43652 2.74512 3.36328 2.90918 3.33984C3.07324 3.31055 3.23438 3.34277 3.39258 3.43652L4.64941 4.21875C4.75488 4.16602 4.86328 4.11621 4.97461 4.06934C5.0918 4.02246 5.20898 3.97852 5.32617 3.9375L5.66895 2.49609C5.71582 2.32031 5.80371 2.17969 5.93262 2.07422C6.06152 1.96289 6.22266 1.90723 6.41602 1.90723H7.61133C7.79883 1.90723 7.95703 1.96289 8.08594 2.07422C8.2207 2.17969 8.30859 2.32031 8.34961 2.49609L8.70117 3.95508C8.82422 3.99023 8.94141 4.03125 9.05273 4.07812C9.16406 4.125 9.2666 4.1748 9.36035 4.22754L10.6348 3.43652C10.7871 3.34863 10.9453 3.31641 11.1094 3.33984C11.2793 3.36328 11.4287 3.43652 11.5576 3.55957L12.4189 4.40332C12.5537 4.53223 12.624 4.67871 12.6299 4.84277C12.6416 5.00684 12.6006 5.17383 12.5068 5.34375L11.751 6.60059C11.7979 6.7002 11.8418 6.80566 11.8828 6.91699C11.9297 7.02246 11.9736 7.13379 12.0146 7.25098L13.4297 7.61133C13.8223 7.70508 14.0186 7.95117 14.0186 8.34961V9.52734C14.0186 9.7207 13.9658 9.88184 13.8604 10.0107C13.7607 10.1338 13.6172 10.2188 13.4297 10.2656L11.9971 10.6084C11.9678 10.7197 11.9297 10.8311 11.8828 10.9424C11.8359 11.0479 11.7861 11.1533 11.7334 11.2588L12.498 12.4893C12.5977 12.6533 12.6387 12.8232 12.6211 12.999C12.6035 13.1689 12.5303 13.3213 12.4014 13.4561L11.5576 14.2998C11.4287 14.4346 11.2793 14.5107 11.1094 14.5283C10.9395 14.54 10.7754 14.499 10.6172 14.4053L9.36035 13.6318C9.26074 13.6846 9.15527 13.7344 9.04395 13.7812C8.93262 13.8223 8.81836 13.8662 8.70117 13.9131L8.34961 15.3369C8.30859 15.5186 8.2207 15.6621 8.08594 15.7676C7.95703 15.873 7.79883 15.9258 7.61133 15.9258H6.41602ZM7.01367 11.0479C7.40625 11.0479 7.76367 10.9541 8.08594 10.7666C8.41406 10.5732 8.6748 10.3154 8.86816 9.99316C9.06152 9.66504 9.1582 9.30176 9.1582 8.90332C9.1582 8.5166 9.06152 8.15918 8.86816 7.83105C8.6748 7.50293 8.41406 7.24512 8.08594 7.05762C7.76367 6.86426 7.40625 6.76758 7.01367 6.76758C6.61523 6.76758 6.25488 6.86426 5.93262 7.05762C5.61035 7.24512 5.35254 7.50293 5.15918 7.83105C4.96582 8.15918 4.86914 8.5166 4.86914 8.90332C4.86914 9.30176 4.96582 9.66504 5.15918 9.99316C5.35254 10.3154 5.61035 10.5732 5.93262 10.7666C6.25488 10.9541 6.61523 11.0479 7.01367 11.0479ZM18 21.4102C17.8301 21.4102 17.6865 21.3633 17.5693 21.2695C17.458 21.1816 17.3818 21.0586 17.3408 20.9004L17.042 19.6699C16.9482 19.6289 16.8516 19.5879 16.752 19.5469C16.6582 19.5117 16.5674 19.4707 16.4795 19.4238L15.3984 20.0918C15.2637 20.1797 15.1201 20.2148 14.9678 20.1973C14.8213 20.1855 14.6895 20.124 14.5723 20.0127L13.8691 19.292C13.752 19.1748 13.6846 19.0371 13.667 18.8789C13.6494 18.7266 13.6875 18.5859 13.7812 18.457L14.4404 17.3848C14.3994 17.2969 14.3584 17.2061 14.3174 17.1123C14.2822 17.0186 14.25 16.9248 14.2207 16.8311L12.9727 16.541C12.8145 16.5059 12.6885 16.4326 12.5947 16.3213C12.5068 16.2041 12.4629 16.0605 12.4629 15.8906V14.8975C12.4629 14.7275 12.5068 14.5869 12.5947 14.4756C12.6885 14.3584 12.8145 14.2793 12.9727 14.2383L14.2031 13.9482C14.2383 13.8369 14.2734 13.7344 14.3086 13.6406C14.3496 13.5469 14.3877 13.4619 14.4229 13.3857L13.7812 12.2959C13.6875 12.1553 13.6465 12.0146 13.6582 11.874C13.6699 11.7275 13.7373 11.5928 13.8604 11.4697L14.5723 10.7666C14.6895 10.6553 14.8213 10.5908 14.9678 10.5732C15.1143 10.5557 15.252 10.585 15.3809 10.6611L16.4707 11.3291C16.5586 11.2822 16.6523 11.2412 16.752 11.2061C16.8516 11.1709 16.9482 11.1328 17.042 11.0918L17.3408 9.84375C17.3818 9.69141 17.458 9.56836 17.5693 9.47461C17.6865 9.38086 17.8301 9.33398 18 9.33398H19.002C19.1719 9.33398 19.3125 9.38086 19.4238 9.47461C19.541 9.56836 19.6201 9.69141 19.6611 9.84375L19.9424 11.1094C20.0479 11.1387 20.1504 11.1768 20.25 11.2236C20.3496 11.2646 20.4404 11.3027 20.5225 11.3379L21.6123 10.6611C21.7471 10.5791 21.8848 10.5498 22.0254 10.5732C22.1719 10.5908 22.3037 10.6553 22.4209 10.7666L23.1504 11.4697C23.2676 11.5928 23.3291 11.7275 23.335 11.874C23.3467 12.0146 23.3086 12.1553 23.2207 12.2959L22.5703 13.3857C22.6523 13.5322 22.7285 13.7197 22.7988 13.9482L24.0293 14.2383C24.3633 14.3203 24.5303 14.54 24.5303 14.8975V15.8906C24.5303 16.248 24.3633 16.4648 24.0293 16.541L22.79 16.8311C22.7549 16.9248 22.7168 17.0186 22.6758 17.1123C22.6406 17.2061 22.6025 17.2969 22.5615 17.3848L23.2207 18.457C23.3086 18.5918 23.3438 18.7354 23.3262 18.8877C23.3086 19.04 23.2441 19.1748 23.1328 19.292L22.4209 20.0127C22.3037 20.124 22.1719 20.1855 22.0254 20.1973C21.8789 20.2148 21.7383 20.1797 21.6035 20.0918L20.5225 19.4238C20.4346 19.4707 20.3408 19.5117 20.2412 19.5469C20.1475 19.5879 20.0479 19.6289 19.9424 19.6699L19.6611 20.9004C19.6201 21.0586 19.541 21.1816 19.4238 21.2695C19.3125 21.3633 19.1719 21.4102 19.002 21.4102H18ZM18.501 17.0684C18.9697 17.0684 19.3682 16.9014 19.6963 16.5674C20.0303 16.2334 20.1973 15.832 20.1973 15.3633C20.1973 14.9004 20.0303 14.502 19.6963 14.168C19.3682 13.834 18.9697 13.667 18.501 13.667C18.0322 13.667 17.6309 13.834 17.2969 14.168C16.9688 14.502 16.8047 14.9004 16.8047 15.3633C16.8047 15.832 16.9688 16.2334 17.2969 16.5674C17.6309 16.9014 18.0322 17.0684 18.501 17.0684Z" stroke="none"/>
</svg>
