<svg width="32" height="32" viewBox="0 0 32 32" fill="none" xmlns="http://www.w3.org/2000/svg">
<path d="M5.83289 23.8449L6.88941 25.6698C7.10894 26.054 7.42452 26.3558 7.79499 26.5754L11.5683 20.0442H4.02173C4.02173 20.4695 4.1315 20.8949 4.35103 21.2791L5.83289 23.8449Z" fill="#0066DA"/>
<path d="M16.0001 12.3605L12.2269 5.82935C11.8564 6.04888 11.5408 6.35074 11.3213 6.73493L4.35103 18.8094C4.13553 19.1853 4.02202 19.611 4.02173 20.0443H11.5683L16.0001 12.3605Z" fill="#00AC47"/>
<path d="M24.2052 26.5754C24.5757 26.3558 24.8913 26.054 25.1108 25.6698L25.5499 24.9151L27.6492 21.2791C27.8687 20.8949 27.9785 20.4695 27.9785 20.0442H20.4314L22.0373 23.2L24.2052 26.5754Z" fill="#EA4335"/>
<path d="M16.0001 12.3605L19.7733 5.8293C19.4029 5.60977 18.9775 5.5 18.5384 5.5H13.4617C13.0226 5.5 12.5973 5.62349 12.2268 5.8293L16.0001 12.3605Z" fill="#00832D"/>
<path d="M20.4319 20.0442H11.5682L7.79492 26.5754C8.16539 26.7949 8.59074 26.9047 9.02981 26.9047H22.9703C23.4094 26.9047 23.8347 26.7812 24.2052 26.5754L20.4319 20.0442Z" fill="#2684FC"/>
<path d="M24.164 12.7721L20.6788 6.73493C20.4593 6.35074 20.1437 6.04888 19.7733 5.82935L16 12.3605L20.4319 20.0443H27.9647C27.9647 19.6189 27.8549 19.1936 27.6354 18.8094L24.164 12.7721Z" fill="#FFBA00"/>
</svg>
