<svg viewBox="0 0 24 24" xmlns="http://www.w3.org/2000/svg">
  <path
    stroke="none"
    d="M7.67285 5.24902C7.71387 4.64062 8.07617 4.3125 8.72559 4.3125L15.2676 4.3125C15.9238 4.3125 16.2793 4.64062 16.3271 5.24902L7.67285 5.24902ZM6.27832 7.21777C6.37402 6.56836 6.70215 6.19922 7.42676 6.19922L16.5732 6.19922C17.2979 6.19922 17.626 6.56836 17.7217 7.21777L6.27832 7.21777ZM7.0166 19.8027C5.54004 19.8027 4.77441 19.0439 4.77441 17.5811L4.77441 10.5537C4.77441 9.09082 5.54004 8.33203 7.0166 8.33203L16.9766 8.33203C18.4463 8.33203 19.2188 9.09082 19.2188 10.5537V17.5811C19.2188 19.0371 18.4463 19.8027 16.9766 19.8027H7.0166ZM7.09863 18.4629H8.03516C8.63672 17.0957 10.168 16.166 12 16.166C13.832 16.166 15.3633 17.0957 15.9648 18.4629H16.8945C17.5234 18.4629 17.8789 18.1279 17.8789 17.4648V10.6631C17.8789 10 17.5234 9.67187 16.8945 9.67187L7.09863 9.67188C6.46289 9.67188 6.11426 10 6.11426 10.6631L6.11426 17.4648C6.11426 18.1279 6.46289 18.4629 7.09863 18.4629ZM12 15.1816C10.8174 15.168 9.89453 14.1836 9.8877 12.8711C9.88086 11.6338 10.8174 10.6084 12 10.6084C13.1826 10.6084 14.1123 11.6338 14.1123 12.8711C14.1123 14.1836 13.1895 15.1953 12 15.1816Z"
  />
</svg>
