<svg width="24" height="24" viewBox="0 0 24 24" xmlns="http://www.w3.org/2000/svg">
  <path d="M9.11523 18.4287C8.37695 18.4287 7.91895 18.0049 7.91895 17.2256V17.0957C7.91895 15.4072 9.68945 13.6436 10.585 12.7617C11.0225 12.3242 11.0498 11.8184 10.585 11.3535C9.68945 10.4648 7.91895 8.70801 7.91895 7.0127V6.90332C7.91895 6.12402 8.37695 5.69336 9.11523 5.69336H14.8848C15.6299 5.69336 16.0811 6.12402 16.0811 6.90332V7.0127C16.0811 8.70801 14.3174 10.4648 13.4219 11.3535C12.957 11.8184 12.9844 12.3242 13.4219 12.7617C14.3174 13.6436 16.0811 15.4072 16.0811 17.0957V17.2256C16.0811 18.0049 15.6299 18.4287 14.8848 18.4287H9.11523ZM12.54 10.9365C13.0254 10.5195 14.3994 9.09082 14.8779 8.29102C15.0283 8.05176 14.96 7.83301 14.707 7.83301H9.29297C9.04004 7.83301 8.97168 8.05176 9.12207 8.29102C9.60059 9.09082 10.9814 10.5195 11.46 10.9365C11.8496 11.2646 12.1504 11.2646 12.54 10.9365Z" stroke="none" />
</svg>
