<svg width="24" height="24" viewBox="0 0 24 24" fill="none" xmlns="http://www.w3.org/2000/svg">
  <path
    d="M12 19.126C8.1377 19.126 4.93848 15.9336 4.93848 12.0645C4.93848 8.20215 8.13086 5.00293 11.9932 5.00293C15.8623 5.00293 19.0615 8.20215 19.0615 12.0645C19.0615 15.9336 15.8623 19.126 12 19.126ZM12 17.7383C15.1445 17.7383 17.6738 15.209 17.6738 12.0645C17.6738 8.91992 15.1377 6.39746 11.9932 6.39746C8.84863 6.39746 6.33301 8.91992 6.33301 12.0645C6.33301 15.209 8.85547 17.7383 12 17.7383ZM11.959 9.82227C11.4463 9.82227 11.0361 9.40527 11.0361 8.89941C11.0361 8.37988 11.4463 7.96973 11.959 7.96973C12.4717 7.96973 12.8818 8.37988 12.8818 8.89941C12.8818 9.40527 12.4717 9.82227 11.959 9.82227ZM10.8037 15.8242C10.5029 15.8242 10.2637 15.6055 10.2637 15.2979C10.2637 15.0107 10.5029 14.7852 10.8037 14.7852H11.6172V11.9277H10.9268C10.6191 11.9277 10.3867 11.709 10.3867 11.4014C10.3867 11.1143 10.6191 10.8818 10.9268 10.8818H12.2119C12.5947 10.8818 12.793 11.1484 12.793 11.5518V14.7852H13.5586C13.8594 14.7852 14.0986 15.0107 14.0986 15.2979C14.0986 15.6055 13.8594 15.8242 13.5586 15.8242H10.8037Z"
    stroke="none"
  />
</svg>
