<svg width="24" height="24" viewBox="0 0 24 24" fill="none" xmlns="http://www.w3.org/2000/svg">
  <path
    d="M11.3232 22.3594L9.89062 21.1113C9.61816 20.8828 9.52148 20.5225 9.52148 20.2061V11.9531C7.37695 10.9951 6.03223 8.87695 6.03223 6.5127C6.03223 3.20801 8.68652 0.5625 11.9912 0.5625C15.2959 0.5625 17.959 3.2168 17.959 6.5127C17.959 8.8418 16.6143 10.8193 14.2324 12.0059L15.9814 13.7637C16.3594 14.1504 16.3682 14.7393 15.999 15.1084L14.0742 17.0244L15.3662 18.3164C15.7441 18.6943 15.7617 19.2744 15.375 19.6611L12.668 22.377C12.2812 22.7549 11.7275 22.7109 11.3232 22.3594ZM11.9912 20.8125L13.8105 18.9756L12.624 17.8066V16.2246L14.4258 14.4492L12.7383 12.7617V10.8633C14.9355 10.3711 16.377 8.58691 16.377 6.5127C16.377 4.08691 14.4258 2.13574 11.9912 2.13574C9.55664 2.13574 7.59668 4.0957 7.59668 6.5127C7.59668 8.61328 9.0293 10.3711 11.042 10.8105V19.8633L11.9912 20.8125ZM11.9912 6.28418C11.209 6.28418 10.5762 5.64258 10.5762 4.85156C10.5762 4.06934 11.2002 3.43652 11.9912 3.43652C12.7822 3.43652 13.4238 4.06934 13.4238 4.85156C13.4238 5.64258 12.7822 6.28418 11.9912 6.28418Z"
    stroke="none"
  />
</svg>
