<svg viewBox="0 0 24 24" xmlns="http://www.w3.org/2000/svg">
  <g stroke="none" fill-rule="evenodd" clip-rule="evenodd">
    <path
      d="M17.5472 6.32075H13.3208V5H17.5472C18.3495 5 19 5.65045 19 6.45283V9.02426H17.6792V6.45283C17.6792 6.37989 17.6201 6.32075 17.5472 6.32075Z"
    />
    <path
      d="M17.5472 17.6792H13.3208V19H17.5472C18.3495 19 19 18.3495 19 17.5472V14.9757H17.6792V17.5472C17.6792 17.6201 17.6201 17.6792 17.5472 17.6792Z"
    />
    <path
      d="M6.45283 6.32075H10.6792V5H6.45283C5.65045 5 5 5.65045 5 6.45283V9.02426H6.32075V6.45283C6.32075 6.37989 6.37989 6.32075 6.45283 6.32075Z"
    />
    <path
      d="M6.45283 17.6792H10.6792V19H6.45283C5.65045 19 5 18.3495 5 17.5472V14.9757H6.32075V17.5472C6.32075 17.6201 6.37989 17.6792 6.45283 17.6792Z"
    />
    <path
      d="M10.283 14.6415V8.83019H11.6038V13.9811H14.1132V15.3019H10.9434C10.5787 15.3019 10.283 15.0062 10.283 14.6415Z"
    />
  </g>
</svg>
