<svg viewBox="0 0 24 24" xmlns="http://www.w3.org/2000/svg">
  <path
    stroke="none"
    d="M11.6992 14.8945C10.9062 14.7441 10.3662 14.4434 9.96289 14.0469C8.26758 12.3516 8.28125 9.97266 9.95605 8.29785L12.335 5.91211C14.0098 4.2373 16.3887 4.22363 18.084 5.92578C19.7793 7.62109 19.7725 10 18.0908 11.6748L16.1289 13.6299C16.2451 13.1035 16.1768 12.4951 15.958 11.9961L17.1338 10.8203C18.2822 9.67188 18.2891 8.04492 17.127 6.87598C15.9717 5.7207 14.3379 5.7207 13.1826 6.87598L10.9131 9.14551C9.76465 10.2939 9.76465 11.9346 10.9199 13.0898C11.3438 13.5137 11.918 13.7734 12.7383 13.8486L11.6992 14.8945ZM12.3008 9.13184C13.1006 9.28223 13.6406 9.58301 14.0371 9.98633C15.7324 11.6748 15.7256 14.0537 14.0439 15.7354L11.6719 18.1143C9.99707 19.7891 7.61816 19.8027 5.92285 18.1074C4.22754 16.4121 4.23438 14.0264 5.91602 12.3516L7.87109 10.3965C7.75488 10.9297 7.83008 11.5312 8.04199 12.0303L6.87305 13.2061C5.71777 14.3545 5.71094 15.9883 6.87305 17.1504C8.03516 18.3057 9.66211 18.3057 10.8174 17.1504L13.0869 14.8809C14.2422 13.7324 14.2422 12.0986 13.0801 10.9365C12.6631 10.5195 12.082 10.2529 11.2686 10.1777L12.3008 9.13184Z"
  />
</svg>
