<svg viewBox="0 0 24 24" xmlns="http://www.w3.org/2000/svg">
  <path
    stroke="none"
    d="M8.79395 18.6953C7.75488 18.6953 7.21484 18.1416 7.21484 17.0205V12.1807C7.21484 11.1895 7.64551 10.6426 8.46582 10.5332V8.90625C8.46582 6.38379 10.1338 5.07812 12 5.07812C13.8662 5.07812 15.5342 6.38379 15.5342 8.90625L15.5342 10.5332C16.3545 10.6426 16.7783 11.1895 16.7783 12.1807V17.0205C16.7783 18.1416 16.2383 18.6953 15.1992 18.6953H8.79395ZM9.74414 8.7832V10.5127L14.2559 10.5127L14.2559 8.7832C14.2559 7.18359 13.2168 6.30859 12 6.30859C10.7764 6.30859 9.74414 7.18359 9.74414 8.7832ZM8.99219 17.4717H15.0078C15.2949 17.4717 15.4521 17.3008 15.4521 16.9727V12.2285C15.4521 11.9004 15.2949 11.7363 15.0078 11.7363L8.99219 11.7363C8.71191 11.7363 8.54102 11.9004 8.54102 12.2285L8.54102 16.9727C8.54102 17.3008 8.71191 17.4717 8.99219 17.4717Z"
  />
</svg>
