<svg width="24" height="24" viewBox="0 0 24 24" fill="none" xmlns="http://www.w3.org/2000/svg">
  <path
    d="M8.81445 18.6953C7.77539 18.6953 7.22852 18.1416 7.22852 17.0205V12.1807C7.22852 11.1895 7.65918 10.6426 8.48633 10.5332V8.90625C8.48633 6.38379 10.1475 5.07812 12.0137 5.07812C13.8799 5.07812 15.5547 6.38379 15.5479 8.90625V10.5332C16.2041 10.6221 16.6006 10.998 16.7305 11.6338V11.709C16.1562 11.6133 15.3496 11.6543 14.5977 11.9824V11.9141C14.5908 11.8115 14.5225 11.7363 14.4199 11.7363H9.0127C8.72559 11.7363 8.56152 11.9004 8.56152 12.2285V16.9727C8.56152 17.3008 8.72559 17.4717 9.0127 17.4717H11.8838C12.0068 17.916 12.2051 18.3262 12.4648 18.6953H8.81445ZM9.76465 8.7832L9.75781 10.5127H14.2695V8.7832C14.2695 7.18359 13.2305 6.30859 12.0137 6.30859C10.79 6.30859 9.76465 7.18359 9.76465 8.7832ZM16.1357 19.666C14.208 19.666 12.6152 18.0801 12.6152 16.1455C12.6152 14.2178 14.208 12.625 16.1357 12.625C18.0635 12.625 19.6562 14.2178 19.6562 16.1455C19.6562 18.0664 18.043 19.666 16.1357 19.666ZM14.5088 16.7266H16.1768C16.4434 16.7266 16.6484 16.5146 16.6484 16.248V14.1699C16.6484 13.9102 16.4434 13.7051 16.1768 13.7051C15.9102 13.7051 15.6982 13.9102 15.6982 14.1699V15.7764H14.5088C14.249 15.7764 14.0303 15.9883 14.0303 16.248C14.0303 16.5146 14.2422 16.7266 14.5088 16.7266Z"
    stroke="none"
  />
</svg>
