<svg width="24" height="24" viewBox="0 0 24 24" fill="none" xmlns="http://www.w3.org/2000/svg">
  <path d="M8.79395 18.6953C7.75488 18.6953 7.21484 18.1416 7.21484 17.0205V12.1738C7.21484 11.1895 7.64551 10.6357 8.46582 10.5264V8.90625C8.46582 6.38379 10.1338 5.07812 12 5.07812C13.8662 5.07812 15.5342 6.38379 15.5342 8.90625V10.5332C16.3545 10.6426 16.7783 11.1895 16.7783 12.1738V17.0205C16.7783 18.1416 16.2383 18.6953 15.1992 18.6953H8.79395ZM9.74414 8.7832V10.5059H14.2559V8.7832C14.2559 7.17676 13.2168 6.30176 12 6.30176C10.7764 6.30176 9.74414 7.17676 9.74414 8.7832Z" stroke="none" />
</svg>
