<svg viewBox="0 0 24 24" xmlns="http://www.w3.org/2000/svg">
  <path
    stroke="none"
    d="M6.13477 12.7617V6.91016C6.13477 5.44043 6.89355 4.66797 8.35645 4.66797H11.6514C12.5059 4.66797 12.9775 4.80469 13.5518 5.38574L17.1406 9.03613C17.7354 9.6377 17.8584 10.0752 17.8584 11.0254V17.2256C17.8584 18.6953 17.0996 19.4678 15.6367 19.4678H10.6602C10.9062 19.0645 11.084 18.6064 11.166 18.1279H15.5205C16.1836 18.1279 16.5186 17.7793 16.5186 17.1436V11.2031H12.834C11.8633 11.2031 11.3779 10.7314 11.3779 9.75391V6.00781H8.46582C7.80273 6.00781 7.47461 6.36328 7.47461 6.99219V12.7617C7.24219 12.7275 7.02344 12.707 6.79785 12.707C6.57227 12.707 6.35352 12.7275 6.13477 12.7617ZM12.5605 9.62402C12.5605 9.9043 12.6768 10.0273 12.957 10.0273H16.334L12.5605 6.19238V9.62402ZM6.50391 20.8008C6.27148 20.8008 6.08691 20.6504 6.03906 20.4316L5.88867 19.7686C5.80664 19.7412 5.71777 19.7139 5.62207 19.6592L5.03418 20.0146C4.83594 20.1309 4.61035 20.124 4.44629 19.9531L4.04297 19.5361C3.88574 19.3789 3.87207 19.1533 3.98828 18.9482L4.33691 18.3672C4.2959 18.2783 4.26855 18.2031 4.22754 18.1211L3.56445 17.957C3.33887 17.9023 3.19531 17.7246 3.19531 17.499V16.9111C3.19531 16.6924 3.33887 16.5146 3.56445 16.46L4.2207 16.2959C4.25488 16.207 4.2959 16.1182 4.33008 16.0498L3.96094 15.4551C3.83789 15.2568 3.87891 15.0244 4.03613 14.8672L4.44629 14.457C4.61035 14.293 4.84277 14.2656 5.02051 14.375L5.60156 14.7441C5.69727 14.6963 5.7793 14.6689 5.88867 14.6279L6.03906 13.9717C6.08691 13.7529 6.27148 13.5957 6.50391 13.5957H7.09863C7.33105 13.5957 7.50879 13.7461 7.56348 13.9648L7.7207 14.6416C7.80273 14.6689 7.8916 14.6963 7.9873 14.7441L8.5752 14.375C8.7666 14.2588 8.99219 14.293 9.15625 14.457L9.57324 14.8672C9.7373 15.0176 9.75781 15.2568 9.63477 15.4551L9.27246 16.0498C9.30664 16.1182 9.34766 16.1934 9.38184 16.2959L10.0381 16.46C10.2568 16.5146 10.4141 16.6855 10.4141 16.9111V17.499C10.4141 17.7246 10.2637 17.9023 10.0381 17.957L9.375 18.1211C9.34082 18.2031 9.32031 18.2783 9.26562 18.3672L9.60742 18.9414C9.7373 19.1533 9.72363 19.3721 9.55957 19.5361L9.15625 19.9531C8.97852 20.1309 8.75977 20.1309 8.56836 20.0146L7.9873 19.6592C7.90527 19.7002 7.80273 19.7412 7.7207 19.7686L7.56348 20.4316C7.50879 20.6572 7.33105 20.8008 7.09863 20.8008H6.50391ZM6.80469 18.333C7.41309 18.333 7.93945 17.8271 7.93945 17.1982C7.93945 16.583 7.41309 16.0566 6.80469 16.0635C6.16895 16.0703 5.67676 16.583 5.67676 17.1982C5.67676 17.8271 6.16895 18.333 6.80469 18.333Z"
  />
</svg>
