<svg viewBox="0 0 24 24" xmlns="http://www.w3.org/2000/svg">
  <path
    stroke="none"
    d="M14.5361 9.54883C13.7979 9.54883 13.1621 9.09082 12.9023 8.44141H5.59473C5.23926 8.44141 4.95215 8.14746 4.95215 7.79199C4.95215 7.43652 5.23242 7.14258 5.59473 7.14258H12.9023C13.1621 6.49316 13.7979 6.03516 14.5361 6.03516C15.2744 6.03516 15.9102 6.49316 16.1699 7.14258H18.4258C18.7676 7.14258 19.0479 7.43652 19.0479 7.79199C19.0479 8.14746 18.7607 8.44141 18.4258 8.44141H16.1631C15.9033 9.09082 15.2744 9.54883 14.5361 9.54883ZM14.5361 8.62598C15.0078 8.62598 15.3701 8.25684 15.3701 7.79199C15.3701 7.31348 15.0078 6.95117 14.5361 6.95117C14.0713 6.95117 13.6953 7.31348 13.6953 7.79199C13.6953 8.25684 14.0713 8.62598 14.5361 8.62598ZM5.56738 11.4014H7.91211C8.17188 10.752 8.80762 10.2939 9.5459 10.2939C10.2773 10.2939 10.9131 10.752 11.1729 11.4014H18.4053C18.7676 11.4014 19.0479 11.6885 19.0479 12.0508C19.0479 12.4062 18.7607 12.6934 18.4053 12.6934H11.1729C10.9131 13.3428 10.2773 13.8076 9.5459 13.8076C8.80078 13.8076 8.16504 13.3428 7.91211 12.6934H5.56738C5.23926 12.6934 4.95215 12.3994 4.95215 12.0508C4.95215 11.6885 5.23242 11.4014 5.56738 11.4014ZM9.5459 12.8848C10.0176 12.8848 10.3799 12.5156 10.3799 12.0508C10.3799 11.5723 10.0176 11.21 9.5459 11.21C9.07422 11.21 8.70508 11.5723 8.70508 12.0508C8.70508 12.5156 9.07422 12.8848 9.5459 12.8848ZM14.5361 18.0596C13.7979 18.0596 13.1621 17.6016 12.9023 16.9521H5.59473C5.23926 16.9521 4.95215 16.6582 4.95215 16.3027C4.95215 15.9473 5.23242 15.6533 5.59473 15.6533H12.9023C13.1621 15.0039 13.7979 14.5459 14.5361 14.5459C15.2744 14.5459 15.9102 15.0039 16.1631 15.6533H18.4258C18.7676 15.6533 19.0479 15.9404 19.0479 16.3027C19.0479 16.6582 18.7607 16.9521 18.4258 16.9521H16.1699C15.9102 17.6016 15.2744 18.0596 14.5361 18.0596ZM14.5361 17.1436C15.0078 17.1436 15.3701 16.7676 15.3701 16.3027C15.3701 15.8311 15.0078 15.4619 14.5361 15.4619C14.0713 15.4619 13.6953 15.8311 13.6953 16.3027C13.6953 16.7676 14.0713 17.1436 14.5361 17.1436Z"
  />
</svg>
