<svg width="24" height="24" viewBox="0 0 24 24" fill="none" xmlns="http://www.w3.org/2000/svg">
<path d="M5.76855 15.126C4.54395 15.126 3.60938 14.8154 2.96484 14.1943C2.32031 13.5674 1.99805 12.665 1.99805 11.4873V10.2305C1.99805 9.05273 2.32031 8.15039 2.96484 7.52344C3.60938 6.89648 4.54395 6.58301 5.76855 6.58301H7.55273V15.126H5.76855ZM8.81836 15.1348V6.58301C9.5918 6.50098 10.4531 6.36035 11.4023 6.16113C12.3516 5.95605 13.3096 5.69824 14.2764 5.3877C15.249 5.07129 16.1514 4.70801 16.9834 4.29785C16.9775 4.35059 16.9746 4.40332 16.9746 4.45605C16.9746 4.50879 16.9746 4.56152 16.9746 4.61426V17.1035C16.9746 17.1562 16.9746 17.2119 16.9746 17.2705C16.9805 17.3232 16.9834 17.373 16.9834 17.4199C16.1455 17.0098 15.2549 16.6523 14.3115 16.3477C13.374 16.0371 12.4336 15.7822 11.4902 15.583C10.5469 15.3779 9.65625 15.2285 8.81836 15.1348ZM20.1123 19.5117C19.7432 19.5117 19.415 19.4326 19.1279 19.2744C18.8467 19.1162 18.624 18.8936 18.46 18.6064C18.3018 18.3193 18.2227 17.9941 18.2227 17.6309V4.02539C18.2227 3.65625 18.3018 3.32813 18.46 3.04102C18.624 2.75391 18.8467 2.53125 19.1279 2.37305C19.415 2.20898 19.7432 2.12695 20.1123 2.12695C20.4814 2.12695 20.8066 2.20898 21.0879 2.37305C21.375 2.53125 21.5977 2.75391 21.7559 3.04102C21.9199 3.32813 22.002 3.65625 22.002 4.02539V17.6309C22.002 17.9941 21.9199 18.3193 21.7559 18.6064C21.5977 18.8936 21.375 19.1162 21.0879 19.2744C20.8066 19.4326 20.4814 19.5117 20.1123 19.5117ZM9.3457 21.1816C8.80664 21.1816 8.38184 21.0439 8.07129 20.7686C7.76074 20.4932 7.48828 20.1094 7.25391 19.6172L5.71582 16.3652C5.83887 16.3652 5.95898 16.3682 6.07617 16.374C6.19336 16.3799 6.29004 16.3828 6.36621 16.3828C7.49121 16.4062 8.36426 16.4443 8.98535 16.4971C9.6123 16.5439 10.1221 16.6084 10.5146 16.6904L11.0156 18.958C11.1211 19.415 11.1094 19.8105 10.9805 20.1445C10.8516 20.4785 10.6406 20.7334 10.3477 20.9092C10.0547 21.0908 9.7207 21.1816 9.3457 21.1816Z" stroke="none"/>
</svg>
