<svg viewBox="0 0 24 24" xmlns="http://www.w3.org/2000/svg">
  <path
    stroke="none"
    d="M5.6084 9.61719C5.2666 9.61719 4.99316 9.33008 4.99316 8.99512C4.99316 8.65332 5.2666 8.37988 5.6084 8.37988L18.3848 8.37988C18.7266 8.37988 19.0068 8.65332 19.0068 8.99512C19.0068 9.33691 18.7266 9.61719 18.3848 9.61719L5.6084 9.61719ZM5.6084 12.6934C5.2666 12.6934 4.99316 12.4131 4.99316 12.0781C4.99316 11.7295 5.2666 11.4492 5.6084 11.4492L18.3848 11.4492C18.7266 11.4492 19.0068 11.7295 19.0068 12.0781C19.0068 12.4131 18.7266 12.6934 18.3848 12.6934L5.6084 12.6934ZM5.6084 15.7764C5.2666 15.7764 4.99316 15.4893 4.99316 15.1475C4.99316 14.8125 5.2666 14.5322 5.6084 14.5322L18.3848 14.5322C18.7266 14.5322 19.0068 14.8057 19.0068 15.1475C19.0068 15.4961 18.7266 15.7764 18.3848 15.7764L5.6084 15.7764Z"
  />
</svg>
