<svg viewBox="0 0 24 24" xmlns="http://www.w3.org/2000/svg">
  <path
    stroke="none"
    d="M12 19.126C8.1377 19.126 4.93848 15.9336 4.93848 12.0645C4.93848 8.20215 8.13086 5.00293 11.9932 5.00293C15.8623 5.00293 19.0615 8.20215 19.0615 12.0645C19.0615 15.9336 15.8623 19.126 12 19.126ZM12 17.7383C15.1445 17.7383 17.6738 15.209 17.6738 12.0645C17.6738 8.91992 15.1377 6.39746 11.9932 6.39746C8.84863 6.39746 6.33301 8.91992 6.33301 12.0645C6.33301 15.209 8.85547 17.7383 12 17.7383ZM8.78711 13.0898C8.22656 13.0898 7.76172 12.625 7.76172 12.0576C7.76172 11.4971 8.22656 11.0322 8.78711 11.0322C9.34766 11.0322 9.8125 11.4971 9.8125 12.0576C9.8125 12.625 9.35449 13.0898 8.78711 13.0898ZM11.9932 13.0898C11.4326 13.0898 10.9678 12.625 10.9678 12.0576C10.9678 11.4971 11.4326 11.0322 11.9932 11.0322C12.5605 11.0322 13.0186 11.4971 13.0186 12.0576C13.0186 12.625 12.5605 13.0898 11.9932 13.0898ZM15.1992 13.0898C14.6387 13.0898 14.1738 12.625 14.1738 12.0576C14.1738 11.4971 14.6387 11.0322 15.1992 11.0322C15.7666 11.0322 16.2246 11.4971 16.2246 12.0576C16.2246 12.625 15.7666 13.0898 15.1992 13.0898Z"
  />
</svg>
