<svg viewBox="0 0 24 24" xmlns="http://www.w3.org/2000/svg">
  <path
    stroke="none"
    d="M8.73926 19.6797C8.19238 19.6797 7.87109 19.3037 7.87109 18.6953V17.0068H7.59082C5.6084 17.0068 4.42578 15.8311 4.42578 13.8008V8.49609C4.42578 6.46582 5.58105 5.29004 7.63867 5.29004H16.3545C18.4121 5.29004 19.5674 6.46582 19.5674 8.49609V13.8008C19.5674 15.8311 18.4121 17.0068 16.3545 17.0068H12.2188L9.87402 19.085C9.40918 19.4951 9.12207 19.6797 8.73926 19.6797ZM9.07422 18.1758L11.2412 16.0361C11.5283 15.7354 11.7334 15.667 12.1436 15.667H16.3135C17.6055 15.667 18.2275 15.0176 18.2275 13.7598V8.53711C18.2275 7.2793 17.6055 6.62988 16.3135 6.62988H7.67285C6.38086 6.62988 5.76562 7.2793 5.76562 8.53711V13.7598C5.76562 15.0176 6.38086 15.667 7.67285 15.667H8.51367C8.90332 15.667 9.07422 15.8242 9.07422 16.2275V18.1758ZM8.51367 9.35059C8.28125 9.35059 8.09668 9.15918 8.09668 8.91992C8.09668 8.69434 8.28125 8.50293 8.51367 8.50293H15.4043C15.6367 8.50293 15.8281 8.69434 15.8281 8.91992C15.8281 9.15918 15.6367 9.35059 15.4043 9.35059H8.51367ZM8.51367 11.5312C8.28125 11.5312 8.09668 11.333 8.09668 11.1006C8.09668 10.8682 8.28125 10.6768 8.51367 10.6768H15.4043C15.6367 10.6768 15.8281 10.8682 15.8281 11.1006C15.8281 11.333 15.6367 11.5312 15.4043 11.5312H8.51367ZM8.51367 13.7051C8.28125 13.7051 8.09668 13.5137 8.09668 13.2812C8.09668 13.042 8.28125 12.8574 8.51367 12.8574H13.0049C13.2373 12.8574 13.4219 13.042 13.4219 13.2812C13.4219 13.5137 13.2373 13.7051 13.0049 13.7051H8.51367Z"
  />
</svg>
