<svg viewBox="0 0 24 24" xmlns="http://www.w3.org/2000/svg">
  <path
    stroke="none"
    d="M1.80469 18.3691V10.8896C1.80469 9.65918 2.56934 8.92969 3.87012 8.92969H5.82129V5.00098C5.82129 3.12012 6.79688 2.14453 8.69531 2.14453H19.3125C21.2197 2.14453 22.1953 3.12012 22.1953 5.00098V18.3164C22.1953 20.1973 21.2197 21.1729 19.3125 21.1729H4.67871C2.79785 21.1729 1.80469 20.1797 1.80469 18.3691ZM7.28027 19.4502H19.207C20.0332 19.4502 20.4727 19.0195 20.4727 18.167V5.15039C20.4727 4.29785 20.0332 3.86719 19.207 3.86719H8.80078C7.9834 3.86719 7.53516 4.29785 7.53516 5.15039V18.29C7.53516 18.7383 7.44727 19.1162 7.28027 19.4502ZM9.76758 7.62012C9.4248 7.62012 9.16992 7.35645 9.16992 7.02246C9.16992 6.69727 9.4248 6.44238 9.76758 6.44238H18.2578C18.5918 6.44238 18.8467 6.69727 18.8467 7.02246C18.8467 7.35645 18.5918 7.62012 18.2578 7.62012H9.76758ZM9.76758 10.6523C9.4248 10.6523 9.16992 10.3975 9.16992 10.0723C9.16992 9.74707 9.4248 9.4834 9.76758 9.4834H18.2578C18.5918 9.4834 18.8467 9.74707 18.8467 10.0723C18.8467 10.3975 18.5918 10.6523 18.2578 10.6523H9.76758ZM3.52734 18.29C3.52734 18.9492 4.02832 19.4502 4.67871 19.4502C5.32031 19.4502 5.82129 18.9668 5.82129 18.29V10.6523H4.08105C3.73828 10.6523 3.52734 10.8633 3.52734 11.2061V18.29ZM10.2686 16.7695C9.57422 16.7695 9.16113 16.3564 9.16113 15.6709V13.6318C9.16113 12.9463 9.57422 12.5332 10.2686 12.5332H12.457C13.1426 12.5332 13.5557 12.9463 13.5557 13.6318V15.6709C13.5557 16.3564 13.1426 16.7695 12.457 16.7695H10.2686ZM15.1201 13.7021C14.7773 13.7021 14.5225 13.4473 14.5225 13.1221C14.5225 12.7881 14.7773 12.5332 15.1201 12.5332H18.249C18.583 12.5332 18.8379 12.7881 18.8379 13.1221C18.8379 13.4473 18.583 13.7021 18.249 13.7021H15.1201ZM15.1201 16.7695C14.7773 16.7695 14.5225 16.5146 14.5225 16.1895C14.5225 15.8643 14.7773 15.6006 15.1201 15.6006H18.249C18.583 15.6006 18.8379 15.8643 18.8379 16.1895C18.8379 16.5146 18.583 16.7695 18.249 16.7695H15.1201Z"
  />
</svg>
