<svg width="24" height="24" viewBox="0 0 24 24" fill="none" xmlns="http://www.w3.org/2000/svg">
<path d="M12 4.25391C10.5586 4.25391 9.3457 5.19434 9.14355 6.89062L7.81641 5.56348C8.48438 3.67383 10.1543 2.67188 12 2.67188C14.3994 2.67188 16.5439 4.35059 16.5439 7.59375V9.68555C17.5898 9.82617 18.1436 10.5293 18.1436 11.8037V15.8818L11.9033 9.65918H14.9004V7.43555C14.9004 5.37891 13.5645 4.25391 12 4.25391ZM19.4795 20.7158L3.97559 5.22949C3.71191 4.96582 3.71191 4.50879 3.97559 4.24512C4.24805 3.96387 4.69629 3.97266 4.96875 4.24512L20.4639 19.7227C20.7363 20.0039 20.7363 20.4346 20.4639 20.7158C20.2002 20.9883 19.752 20.9883 19.4795 20.7158ZM7.87793 20.1797C6.54199 20.1797 5.84766 19.4678 5.84766 18.0264V11.8037C5.84766 10.749 6.25195 10.0811 6.97266 9.81738H7.03418L17.1504 19.9336C16.8867 20.0918 16.5352 20.1797 16.1133 20.1797H7.87793Z" stroke="none" />
</svg>
