<svg width="14" height="14" viewBox="0 0 14 14" fill="none" xmlns="http://www.w3.org/2000/svg">
<path d="M4.56348 12.9434C4.41374 12.9434 4.29818 12.8945 4.2168 12.7969C4.13542 12.7025 4.09473 12.5739 4.09473 12.4111V11.0049H3.78711C3.3151 11.0049 2.90983 10.9154 2.57129 10.7363C2.236 10.554 1.97721 10.2936 1.79492 9.95508C1.61589 9.61328 1.52637 9.19987 1.52637 8.71484V4.92578C1.52637 4.44076 1.61589 4.02897 1.79492 3.69043C1.97396 3.34863 2.23275 3.08659 2.57129 2.9043C2.91309 2.72201 3.32975 2.63086 3.82129 2.63086H10.1738C10.6621 2.63086 11.0771 2.72201 11.4189 2.9043C11.7607 3.08659 12.0212 3.34863 12.2002 3.69043C12.3792 4.02897 12.4688 4.44076 12.4688 4.92578V8.71484C12.4688 9.19987 12.3792 9.61328 12.2002 9.95508C12.0212 10.2936 11.7607 10.554 11.4189 10.7363C11.0771 10.9154 10.6621 11.0049 10.1738 11.0049H6.95117L5.16406 12.6211C5.04036 12.7318 4.93457 12.8132 4.84668 12.8652C4.75879 12.9173 4.66439 12.9434 4.56348 12.9434ZM7.00488 7.66016C7.2946 7.66016 7.44271 7.50879 7.44922 7.20605L7.52734 4.75488C7.53385 4.60514 7.48665 4.48307 7.38574 4.38867C7.28483 4.29102 7.15625 4.24219 7 4.24219C6.84049 4.24219 6.71191 4.29102 6.61426 4.38867C6.5166 4.48307 6.47103 4.60352 6.47754 4.75L6.5459 7.21094C6.55566 7.51042 6.70866 7.66016 7.00488 7.66016ZM7.00488 9.33984C7.16764 9.33984 7.30762 9.28776 7.4248 9.18359C7.54199 9.07943 7.60059 8.94596 7.60059 8.7832C7.60059 8.6237 7.54199 8.49023 7.4248 8.38281C7.30762 8.27539 7.16764 8.22168 7.00488 8.22168C6.83887 8.22168 6.69727 8.27539 6.58008 8.38281C6.46289 8.49023 6.4043 8.6237 6.4043 8.7832C6.4043 8.94596 6.46289 9.07943 6.58008 9.18359C6.70052 9.28776 6.84212 9.33984 7.00488 9.33984Z" stroke="none" />
</svg>
