<svg viewBox="0 0 24 24" xmlns="http://www.w3.org/2000/svg">
  <path
    stroke="none"
    d="M12 19.126C8.1377 19.126 4.93848 15.9336 4.93848 12.0645C4.93848 8.20215 8.13086 5.00293 11.9932 5.00293C15.8623 5.00293 19.0615 8.20215 19.0615 12.0645C19.0615 15.9336 15.8623 19.126 12 19.126ZM12 17.7383C15.1445 17.7383 17.6738 15.209 17.6738 12.0645C17.6738 8.91992 15.1377 6.39746 11.9932 6.39746C8.84863 6.39746 6.33301 8.91992 6.33301 12.0645C6.33301 15.209 8.85547 17.7383 12 17.7383ZM11.2617 15.3115C11.0088 15.3115 10.8105 15.209 10.626 14.9697L9.0127 13.001C8.89648 12.8574 8.83496 12.707 8.83496 12.543C8.83496 12.2012 9.10156 11.9346 9.43652 11.9346C9.63477 11.9346 9.79883 12.0098 9.96289 12.2217L11.2344 13.8418L13.9346 9.50781C14.0781 9.27539 14.2627 9.16601 14.4678 9.16601C14.7891 9.16601 15.0898 9.3916 15.0898 9.72656C15.0898 9.88379 15.0078 10.0479 14.9189 10.1914L11.8633 14.9697C11.7197 15.1885 11.5078 15.3115 11.2617 15.3115Z"
  />
</svg>
