<svg viewBox="0 0 24 24" xmlns="http://www.w3.org/2000/svg">
  <path
    stroke="none"
    d="M12 19.126C8.1377 19.126 4.93848 15.9336 4.93848 12.0645C4.93848 8.20215 8.13086 5.00293 11.9932 5.00293C15.8623 5.00293 19.0615 8.20215 19.0615 12.0645C19.0615 15.9336 15.8623 19.126 12 19.126ZM11.2412 15.4414C11.4941 15.4414 11.7129 15.3115 11.8701 15.0791L15.0693 10.0889C15.165 9.93848 15.2471 9.76758 15.2471 9.61035C15.2471 9.25488 14.9395 9.01562 14.5977 9.01562C14.3789 9.01562 14.1875 9.13184 14.0439 9.37109L11.2139 13.8965L9.89453 12.2217C9.72363 12.0029 9.55957 11.9209 9.34766 11.9209C8.99219 11.9209 8.71875 12.208 8.71875 12.5566C8.71875 12.7275 8.78027 12.8916 8.90332 13.042L10.5781 15.0791C10.7695 15.3252 10.9814 15.4414 11.2412 15.4414Z"
  />
</svg>
