<svg viewBox="-3 -3 30 30" fill="none" xmlns="http://www.w3.org/2000/svg">
  <path
    stroke="none"
    d="M6.41895 19.9248C6.02344 19.6963 5.87402 19.1953 6.2168 18.6943L16.3418 3.7002C16.6758 3.22559 17.1768 3.14648 17.5459 3.35742C17.9502 3.58594 18.126 4.12207 17.792 4.61426L7.6582 19.6436C7.35059 20.0918 6.80566 20.1445 6.41895 19.9248ZM6.73535 11.6367C4.74023 11.6367 3.50977 10.0547 3.50977 7.49707C3.50977 4.93945 4.74902 3.38379 6.73535 3.38379C8.72168 3.38379 9.96094 4.93066 9.96094 7.49707C9.96094 10.0459 8.73926 11.6367 6.73535 11.6367ZM6.73535 10.2041C7.69336 10.2041 8.24707 9.22852 8.24707 7.49707C8.24707 5.77441 7.69336 4.81641 6.73535 4.81641C5.77734 4.81641 5.22363 5.7832 5.22363 7.49707C5.22363 9.22852 5.77734 10.2041 6.73535 10.2041ZM17.2646 19.9336C15.2607 19.9336 14.0391 18.3516 14.0391 15.7939C14.0391 13.2363 15.2695 11.6807 17.2646 11.6807C19.251 11.6807 20.4814 13.2275 20.4814 15.7939C20.4814 18.3428 19.2598 19.9336 17.2646 19.9336ZM17.2646 18.501C18.2227 18.501 18.7676 17.5254 18.7676 15.7939C18.7676 14.0713 18.2139 13.1133 17.2646 13.1133C16.3066 13.1133 15.7529 14.0801 15.7529 15.7939C15.7529 17.5254 16.2979 18.501 17.2646 18.501Z"
  />
</svg>
