<svg viewBox="0 0 24 24" xmlns="http://www.w3.org/2000/svg">
  <path
    d="M17.5371 6.52734C18.2412 7.23145 18.3711 8.19531 18.3711 9.43945V14.6826C18.3711 15.9336 18.2412 16.8975 17.5371 17.6016C16.833 18.2988 15.8623 18.4355 14.6182 18.4355H9.375C8.13086 18.4355 7.16016 18.2988 6.44922 17.6016C5.75195 16.8975 5.62207 15.9336 5.62207 14.6826L5.62207 9.42578C5.62207 8.19531 5.75195 7.23145 6.45605 6.52734C7.15332 5.83008 8.13086 5.69336 9.35449 5.69336L14.6182 5.69336C15.8623 5.69336 16.833 5.82324 17.5371 6.52734ZM17.0312 9.25488C17.0312 8.54395 16.9424 7.8877 16.5596 7.51172C16.1768 7.12891 15.5137 7.02637 14.8096 7.02637L9.19727 7.02637C8.47949 7.02637 7.80957 7.12207 7.42676 7.50488C7.05078 7.8877 6.96191 8.54395 6.96191 9.26855L6.96191 14.874C6.96191 15.585 7.05078 16.2344 7.43359 16.6172C7.81641 17 8.47949 17.0957 9.18359 17.0957H14.8096C15.5137 17.0957 16.1768 17 16.5596 16.6172C16.9355 16.2344 17.0312 15.585 17.0312 14.874V9.25488ZM14.1328 13.8418C13.791 13.8418 13.5654 13.6094 13.5654 13.2334V12.1396L13.668 11.1553L12.7451 12.1602L10.3594 14.5459C10.2295 14.6689 10.0859 14.7373 9.89453 14.7373C9.55273 14.7373 9.2998 14.498 9.2998 14.1426C9.2998 13.9785 9.375 13.8213 9.49121 13.7051L11.8906 11.3057L12.9023 10.376L11.9658 10.4854H10.8105C10.4414 10.4854 10.2021 10.2666 10.2021 9.9248C10.2021 9.58301 10.4414 9.36426 10.8037 9.36426L14.0029 9.36426C14.4268 9.36426 14.6934 9.57617 14.6934 10.0479V13.2266C14.6934 13.5889 14.4678 13.8418 14.1328 13.8418Z"
    stroke="none" />
</svg>
