<svg viewBox="0 0 24 24" xmlns="http://www.w3.org/2000/svg">
  <path
    stroke="none"
    d="M8.26758 5.87793V5.59766C8.26758 4.13477 9.0332 3.36914 10.4824 3.36914H16.8877C18.3506 3.36914 19.1094 4.13477 19.1094 5.61133V15.0039C19.1094 16.5283 18.2617 17.2461 16.9424 17.2461H16.7236V13.3633C16.7236 12.3516 16.5459 11.5039 15.8008 10.7588L11.9248 6.88281C11.166 6.12402 10.3799 5.87793 9.32031 5.87793H8.26758ZM11.6104 5.37891C11.6104 5.60449 11.7676 5.80957 12.0752 5.80957H15.3086C15.6094 5.80957 15.7734 5.60449 15.7734 5.37891V5.22168C15.7734 5.0166 15.623 4.79102 15.3086 4.79102H12.0752C11.7607 4.79102 11.6104 5.0166 11.6104 5.22168V5.37891ZM4.89062 18.5107V9.11133C4.89062 7.6416 5.64941 6.86914 7.1123 6.86914H9.56641V11.9004C9.56641 12.7754 9.99707 13.2061 10.8652 13.2061H15.7256V18.5107C15.7256 19.9805 14.9736 20.7529 13.5107 20.7529H7.1123C5.64941 20.7529 4.89062 19.9873 4.89062 18.5107ZM10.9336 12.208C10.6943 12.208 10.5645 12.0781 10.5645 11.832V7.04688C10.8516 7.12891 11.125 7.34082 11.4395 7.66211L15.0352 11.3193C15.3496 11.6406 15.5273 11.9141 15.6025 12.208H10.9336Z"
  />
</svg>
