<svg viewBox="0 0 24 24" xmlns="http://www.w3.org/2000/svg">
  <path
    stroke="none"
    d="M6.27832 12.0645C6.27832 11.6475 6.62695 11.2988 7.04395 11.2988H11.2344V7.1084C11.2344 6.69141 11.583 6.34277 12 6.34277C12.417 6.34277 12.7656 6.69141 12.7656 7.1084L12.7656 11.2988H16.9561C17.373 11.2988 17.7217 11.6475 17.7217 12.0645C17.7217 12.4883 17.373 12.8301 16.9561 12.8301H12.7656V17.0205C12.7656 17.4375 12.417 17.7861 12 17.7861C11.583 17.7861 11.2344 17.4375 11.2344 17.0205V12.8301L7.04395 12.8301C6.62695 12.8301 6.27832 12.4883 6.27832 12.0645Z"
  />
</svg>
