<svg viewBox="0 0 24 24" xmlns="http://www.w3.org/2000/svg">
  <path
    stroke="none"
    d="M12 19.126C8.1377 19.126 4.93848 15.9336 4.93848 12.0645C4.93848 8.20215 8.13086 5.00293 11.9932 5.00293C15.8623 5.00293 19.0615 8.20215 19.0615 12.0645C19.0615 15.9336 15.8623 19.126 12 19.126ZM12 17.7383C15.1445 17.7383 17.6738 15.209 17.6738 12.0645C17.6738 8.91992 15.1377 6.39746 11.9932 6.39746C8.84863 6.39746 6.33301 8.91992 6.33301 12.0645C6.33301 15.209 8.85547 17.7383 12 17.7383ZM8.83496 12.0645C8.83496 11.6816 9.10156 11.415 9.48438 11.415H11.3574V9.54199C11.3574 9.15918 11.6172 8.89941 11.9863 8.89941C12.3691 8.89941 12.6357 9.15918 12.6357 9.54199V11.415H14.5156C14.8916 11.415 15.1514 11.6816 15.1514 12.0645C15.1514 12.4336 14.8916 12.6934 14.5156 12.6934H12.6357V14.5732C12.6357 14.9492 12.3691 15.2158 11.9863 15.2158C11.6172 15.2158 11.3574 14.9492 11.3574 14.5732V12.6934H9.48438C9.10156 12.6934 8.83496 12.4336 8.83496 12.0645Z"
  />
</svg>
