<svg viewBox="0 0 24 24" fill="none" xmlns="http://www.w3.org/2000/svg">
    <path d="M12.5537 12.3379L8.65039 18.1416C8.45215 18.4287 8.30176 18.5312 8.04199 18.5312C7.7002 18.5312 7.41992 18.3125 7.41992 17.9775C7.41992 17.7998 7.46777 17.6699 7.57031 17.5264L11.4805 11.7705L15.3496 6.00098C15.5615 5.7002 15.7119 5.60449 15.999 5.60449C16.3135 5.60449 16.5869 5.84375 16.5869 6.1582C16.5869 6.31543 16.5391 6.44531 16.4365 6.58887L12.5537 12.3379ZM5.46484 9.04297C5.46484 8.73535 5.71094 8.48926 6.01855 8.48926H7.33789V7.16309C7.33789 6.85547 7.59082 6.60938 7.8916 6.60938C8.19922 6.60938 8.45215 6.85547 8.45215 7.16309V8.48926H9.77148C10.0791 8.48926 10.3252 8.73535 10.3252 9.04297C10.3252 9.35059 10.0791 9.59668 9.77148 9.59668H8.45215V10.916C8.45215 11.2236 8.20605 11.4697 7.8916 11.4697C7.59082 11.4766 7.33789 11.2305 7.33789 10.916V9.59668H6.01855C5.71094 9.59668 5.46484 9.35059 5.46484 9.04297ZM13.668 15.5508C13.668 15.2432 13.9209 14.9971 14.2285 14.9971H17.9814C18.2891 14.9971 18.5352 15.2432 18.5352 15.5508C18.5352 15.8584 18.2891 16.1045 17.9814 16.1045H14.2285C13.9209 16.1045 13.668 15.8584 13.668 15.5508Z"
          stroke="none"/>
</svg>
