<svg viewBox="0 0 24 24" xmlns="http://www.w3.org/2000/svg">
  <path
    stroke="none"
    d="M7.08496 11.5381C6.10059 11.5381 5.61523 11.0596 5.61523 10.0479V7.18359C5.61523 6.17188 6.10059 5.69336 7.08496 5.69336H9.99023C10.9746 5.69336 11.46 6.17188 11.46 7.18359V10.0479C11.46 11.0596 10.9746 11.5381 9.99023 11.5381H7.08496ZM14.0029 11.5381C13.0117 11.5381 12.5332 11.0596 12.5332 10.0479V7.18359C12.5332 6.17188 13.0117 5.69336 14.0029 5.69336H16.9082C17.8926 5.69336 18.3779 6.17188 18.3779 7.18359V10.0479C18.3779 11.0596 17.8926 11.5381 16.9082 11.5381H14.0029ZM7.05762 10.458H10.0107C10.2568 10.458 10.3799 10.335 10.3799 10.082V7.14941C10.3799 6.89648 10.2568 6.77344 10.0107 6.77344H7.05762C6.81152 6.77344 6.69531 6.89648 6.69531 7.14941V10.082C6.69531 10.335 6.81152 10.458 7.05762 10.458ZM13.9756 10.458H16.9355C17.1816 10.458 17.2979 10.335 17.2979 10.082V7.14941C17.2979 6.89648 17.1816 6.77344 16.9355 6.77344H13.9756C13.7295 6.77344 13.6064 6.89648 13.6064 7.14941V10.082C13.6064 10.335 13.7295 10.458 13.9756 10.458ZM7.92578 9.37109C7.81641 9.37109 7.78223 9.32324 7.78223 9.2002V8.02441C7.78223 7.9082 7.81641 7.86035 7.92578 7.86035H9.14258C9.24512 7.86035 9.29297 7.9082 9.29297 8.02441V9.2002C9.29297 9.32324 9.24512 9.37109 9.14258 9.37109H7.92578ZM14.8711 9.37109C14.7686 9.37109 14.7344 9.32324 14.7344 9.2002V8.02441C14.7344 7.9082 14.7686 7.86035 14.8711 7.86035H16.0879C16.1973 7.86035 16.2383 7.9082 16.2383 8.02441V9.2002C16.2383 9.32324 16.1973 9.37109 16.0879 9.37109H14.8711ZM7.08496 18.4561C6.10059 18.4561 5.61523 17.9775 5.61523 16.959V14.1016C5.61523 13.0898 6.10059 12.6113 7.08496 12.6113H9.99023C10.9746 12.6113 11.46 13.0898 11.46 14.1016V16.959C11.46 17.9775 10.9746 18.4561 9.99023 18.4561H7.08496ZM13.0049 14.4365C12.9023 14.4365 12.8682 14.3887 12.8682 14.2656V13.083C12.8682 12.9736 12.9023 12.9258 13.0049 12.9258H14.2217C14.3311 12.9258 14.3721 12.9736 14.3721 13.083V14.2656C14.3721 14.3887 14.3311 14.4365 14.2217 14.4365H13.0049ZM16.6689 14.4365C16.5596 14.4365 16.5254 14.3887 16.5254 14.2656V13.083C16.5254 12.9736 16.5596 12.9258 16.6689 12.9258H17.8857C17.9883 12.9258 18.0293 12.9736 18.0293 13.083V14.2656C18.0293 14.3887 17.9883 14.4365 17.8857 14.4365H16.6689ZM7.05762 17.376H10.0107C10.2568 17.376 10.3799 17.2529 10.3799 17V14.0674C10.3799 13.8076 10.2568 13.6914 10.0107 13.6914H7.05762C6.81152 13.6914 6.69531 13.8076 6.69531 14.0674V17C6.69531 17.2529 6.81152 17.376 7.05762 17.376ZM14.8506 16.2617C14.748 16.2617 14.7139 16.2207 14.7139 16.0977V14.915C14.7139 14.7988 14.748 14.7578 14.8506 14.7578H16.0742C16.1768 14.7578 16.2178 14.7988 16.2178 14.915V16.0977C16.2178 16.2207 16.1768 16.2617 16.0742 16.2617H14.8506ZM7.92578 16.2822C7.81641 16.2822 7.78223 16.2412 7.78223 16.1182V14.9355C7.78223 14.8193 7.81641 14.7783 7.92578 14.7783H9.14258C9.24512 14.7783 9.29297 14.8193 9.29297 14.9355V16.1182C9.29297 16.2412 9.24512 16.2822 9.14258 16.2822H7.92578ZM13.0049 18.0938C12.9023 18.0938 12.8682 18.0459 12.8682 17.9229V16.7471C12.8682 16.6309 12.9023 16.583 13.0049 16.583H14.2217C14.3311 16.583 14.3721 16.6309 14.3721 16.7471V17.9229C14.3721 18.0459 14.3311 18.0938 14.2217 18.0938H13.0049ZM16.6689 18.0938C16.5596 18.0938 16.5254 18.0459 16.5254 17.9229V16.7471C16.5254 16.6309 16.5596 16.583 16.6689 16.583H17.8857C17.9883 16.583 18.0293 16.6309 18.0293 16.7471V17.9229C18.0293 18.0459 17.9883 18.0938 17.8857 18.0938H16.6689Z"
  />
</svg>
