<svg width="24" height="24" viewBox="0 0 24 24" fill="none" xmlns="http://www.w3.org/2000/svg">
<g clip-path="url(#clip0_16308_252557)">
<path d="M12 1.95117C11.7773 1.95117 11.584 2.03027 11.4199 2.18848C11.2617 2.34668 11.1826 2.53125 11.1826 2.74219V11.54L11.2529 12.832L10.875 12.3662L9.53027 10.9424C9.38965 10.7783 9.20508 10.6963 8.97656 10.6963C8.77734 10.6963 8.60742 10.7637 8.4668 10.8984C8.32617 11.0332 8.25586 11.2002 8.25586 11.3994C8.25586 11.5928 8.33496 11.7686 8.49316 11.9268L11.3848 14.7041C11.4902 14.8096 11.5928 14.8828 11.6924 14.9238C11.792 14.9648 11.8945 14.9854 12 14.9854C12.1055 14.9854 12.208 14.9648 12.3076 14.9238C12.4072 14.8828 12.5098 14.8096 12.6152 14.7041L15.5068 11.9268C15.665 11.7686 15.7441 11.5928 15.7441 11.3994C15.7441 11.2002 15.6709 11.0332 15.5244 10.8984C15.3838 10.7637 15.2139 10.6963 15.0146 10.6963C14.792 10.6963 14.6104 10.7783 14.4697 10.9424L13.125 12.3662L12.7471 12.832L12.8174 11.54V2.74219C12.8174 2.53125 12.7354 2.34668 12.5713 2.18848C12.4131 2.03027 12.2227 1.95117 12 1.95117ZM19.9453 12.252C19.1484 12.252 18.4014 12.4043 17.7041 12.709C17.0127 13.0078 16.4004 13.4238 15.8672 13.957C15.3398 14.4844 14.9238 15.0967 14.6191 15.7939C14.3203 16.4854 14.1709 17.2266 14.1709 18.0176C14.1709 18.5508 14.2412 19.0605 14.3818 19.5469C14.5225 20.0391 14.7217 20.499 14.9795 20.9268H7.8252C6.61816 20.9268 5.68652 20.5986 5.03027 19.9424C4.37988 19.292 4.05469 18.3633 4.05469 17.1562V10.3799C4.05469 9.17285 4.37988 8.24414 5.03027 7.59375C5.68652 6.9375 6.61816 6.60938 7.8252 6.60938H16.166C17.3789 6.60938 18.3105 6.9375 18.9609 7.59375C19.6172 8.24414 19.9453 9.17285 19.9453 10.3799V12.252ZM19.9453 22.5527C19.3242 22.5527 18.7412 22.4355 18.1963 22.2012C17.6514 21.9668 17.1709 21.6387 16.7549 21.2168C16.3389 20.8008 16.0107 20.3203 15.7705 19.7754C15.5361 19.2305 15.4189 18.6475 15.4189 18.0264C15.4189 17.4053 15.5361 16.8223 15.7705 16.2773C16.0107 15.7324 16.3389 15.252 16.7549 14.8359C17.1709 14.4141 17.6514 14.0859 18.1963 13.8516C18.7412 13.6172 19.3242 13.5 19.9453 13.5C20.5664 13.5 21.1494 13.6172 21.6943 13.8516C22.2393 14.0859 22.7197 14.4111 23.1357 14.8271C23.5518 15.2432 23.877 15.7266 24.1113 16.2773C24.3516 16.8223 24.4717 17.4053 24.4717 18.0264C24.4717 18.6416 24.3516 19.2217 24.1113 19.7666C23.877 20.3174 23.5488 20.8008 23.127 21.2168C22.7109 21.6328 22.2275 21.958 21.6768 22.1924C21.1318 22.4326 20.5547 22.5527 19.9453 22.5527ZM19.4004 20.4785C19.6289 20.4785 19.8018 20.3994 19.9189 20.2412L22.459 16.7432C22.5059 16.6787 22.5381 16.6143 22.5557 16.5498C22.5791 16.4854 22.5908 16.4268 22.5908 16.374C22.5908 16.1982 22.5264 16.0518 22.3975 15.9346C22.2744 15.8115 22.1309 15.75 21.9668 15.75C21.7441 15.75 21.5684 15.8438 21.4395 16.0312L19.3652 18.8965L18.3457 17.7803C18.2871 17.7217 18.2197 17.6748 18.1436 17.6396C18.0674 17.6045 17.9766 17.5869 17.8711 17.5869C17.7012 17.5869 17.5547 17.6455 17.4316 17.7627C17.3086 17.874 17.2471 18.0234 17.2471 18.2109C17.2471 18.2871 17.2617 18.3633 17.291 18.4395C17.3262 18.5215 17.3701 18.5977 17.4229 18.668L18.8994 20.2676C18.958 20.3379 19.0342 20.3906 19.1279 20.4258C19.2217 20.4609 19.3125 20.4785 19.4004 20.4785Z" stroke="none"/>
</g>
<defs>
<clipPath id="clip0_16308_252557">
<rect width="24" height="24" fill="white"/>
</clipPath>
</defs>
</svg>
