<svg width="24" height="24" viewBox="0 0 24 24" fill="none" xmlns="http://www.w3.org/2000/svg">
  <path
    d="M6.90039 7.26562C8.1582 5.8916 9.99023 5.00293 12 5.00293C15.6094 5.00293 18.6172 7.78516 19.0205 11.251H19.9775C20.5039 11.251 20.6475 11.6406 20.3398 12.0645L18.7129 14.3545C18.46 14.6963 18.084 14.6963 17.8379 14.3545L16.2109 12.0576C15.9102 11.6338 16.0537 11.251 16.5732 11.251H17.6055C17.2295 8.52344 14.8916 6.39746 12 6.39746C10.3662 6.39746 8.88965 7.09473 7.87109 8.20215C7.54297 8.5166 7.14648 8.5166 6.86621 8.26367C6.59277 8.02441 6.57227 7.59375 6.90039 7.26562ZM3.65332 12.0713L5.28711 9.78125C5.5332 9.43945 5.90918 9.43945 6.15527 9.78125L7.78223 12.0781C8.08301 12.502 7.93945 12.8848 7.41992 12.8848H6.39453C6.77051 15.6191 9.11523 17.7383 12 17.7383C13.6475 17.7383 15.124 17.041 16.1357 15.9268C16.4707 15.6123 16.8604 15.6055 17.1406 15.8584C17.4141 16.1045 17.4346 16.5352 17.1133 16.8633C15.8486 18.2441 14.0166 19.1328 12 19.1328C8.39062 19.1328 5.38281 16.3506 4.98633 12.8848H4.01562C3.48926 12.8848 3.35254 12.4951 3.65332 12.0713Z"
    stroke="none"
  />
</svg>
