<svg width="24" height="24" viewBox="0 0 24 24" fill="none" xmlns="http://www.w3.org/2000/svg">
<path d="M3.42188 10.3184V8.3584C3.42188 7.27734 4.06348 6.79395 5.10059 6.79395H6.8584C6.34863 6.30176 6.04102 5.63379 6.04102 4.85156C6.04102 3.11133 7.43848 1.85449 9.17871 1.85449C10.4707 1.85449 11.5693 2.58398 12 3.86719C12.4307 2.58398 13.5205 1.85449 14.8213 1.85449C16.5615 1.85449 17.959 3.11133 17.959 4.85156C17.959 5.63379 17.6514 6.30176 17.1416 6.79395H18.8906C19.9805 6.79395 20.5781 7.27734 20.5781 8.3584V10.3184C20.5781 11.2939 20.0244 11.7334 19.04 11.7334H12.8262V6.79395H11.1738V5.55469C11.1738 4.31543 10.3477 3.50684 9.32812 3.50684C8.37891 3.50684 7.71973 4.07812 7.71973 5.01855C7.71973 5.97656 8.50195 6.79395 9.84668 6.79395H11.1738V11.7334H4.95996C3.98438 11.7334 3.42188 11.2939 3.42188 10.3184ZM14.6719 3.50684C13.6523 3.50684 12.8262 4.31543 12.8262 5.55469V6.79395H14.1533C15.498 6.79395 16.2803 5.97656 16.2803 5.01855C16.2803 4.07812 15.6211 3.50684 14.6719 3.50684ZM4.63477 18.2197V12.7969H11.1738V20.5225H7.02539C5.52246 20.5225 4.63477 19.7139 4.63477 18.2197ZM12.8262 20.5225V12.7969H19.3652V18.2197C19.3652 19.7139 18.4775 20.5225 16.9746 20.5225H12.8262Z" stroke="none" />
</svg>
