<svg viewBox="0 0 24 24" xmlns="http://www.w3.org/2000/svg">
  <path
    stroke="none"
    d="M5.56738 14.3203H6.5791V9.37793C6.5791 7.34766 7.81641 6.01465 9.62793 6.01465C11.4053 6.01465 12.6904 7.35449 12.6904 9.37793V14.0605C12.6904 15.209 13.4014 15.9268 14.3652 15.9268C15.3291 15.9268 16.0195 15.2021 16.0195 14.0605V8.96094H15.0215C14.4951 8.96094 14.3516 8.57129 14.6592 8.14746L16.2861 5.85742C16.5391 5.50879 16.915 5.51562 17.1611 5.85742L18.7881 8.1543C19.0889 8.57129 18.9453 8.96094 18.4258 8.96094H17.4141V13.958C17.4141 15.9883 16.1699 17.3213 14.3652 17.3213C12.5879 17.3213 11.3027 15.9814 11.3027 13.958V9.27539C11.3027 8.12695 10.5918 7.40918 9.62793 7.40918C8.65723 7.40918 7.9668 8.13379 7.9668 9.27539V14.3203H8.97168C9.49121 14.3203 9.63477 14.71 9.33398 15.127L7.70703 17.4238C7.46094 17.7656 7.08496 17.7656 6.83887 17.4238L5.20508 15.1338C4.9043 14.71 5.04102 14.3203 5.56738 14.3203Z"
  />
</svg>
