<svg viewBox="0 0 25 24" xmlns="http://www.w3.org/2000/svg">
  <path
    stroke="none"
    d="M5.95312 19.8721C4.05469 19.8721 3.07031 18.8965 3.07031 17.0156V6.31934C3.07031 4.43848 4.05469 3.46289 5.95312 3.46289H18.0469C19.9453 3.46289 20.9297 4.43848 20.9297 6.31934V11.25C20.6484 11.2061 20.3584 11.1797 20.0771 11.1797C19.7871 11.1797 19.4971 11.2061 19.207 11.25V8.87695C19.207 8.10352 18.7939 7.72559 18.0557 7.72559H5.92676C5.19727 7.72559 4.79297 8.10352 4.79297 8.87695V16.998C4.79297 17.7627 5.19727 18.1494 5.92676 18.1494H14.4609C14.5664 18.7646 14.7949 19.3447 15.1113 19.8721H5.95312ZM10.3037 10.7754C9.9873 10.7754 9.88184 10.6787 9.88184 10.3623V9.85254C9.88184 9.53613 9.9873 9.43945 10.3037 9.43945H10.8223C11.1299 9.43945 11.2354 9.53613 11.2354 9.85254V10.3623C11.2354 10.6787 11.1299 10.7754 10.8223 10.7754H10.3037ZM13.1777 10.7754C12.8613 10.7754 12.7559 10.6787 12.7559 10.3623V9.85254C12.7559 9.53613 12.8613 9.43945 13.1777 9.43945H13.6963C14.0039 9.43945 14.1094 9.53613 14.1094 9.85254V10.3623C14.1094 10.6787 14.0039 10.7754 13.6963 10.7754H13.1777ZM16.0518 10.7754C15.7354 10.7754 15.6299 10.6787 15.6299 10.3623V9.85254C15.6299 9.53613 15.7354 9.43945 16.0518 9.43945H16.5703C16.8867 9.43945 16.9922 9.53613 16.9922 9.85254V10.3623C16.9922 10.6787 16.8867 10.7754 16.5703 10.7754H16.0518ZM7.42969 13.6055C7.11328 13.6055 7.00781 13.5088 7.00781 13.1924V12.6826C7.00781 12.3662 7.11328 12.2695 7.42969 12.2695H7.93945C8.25586 12.2695 8.36133 12.3662 8.36133 12.6826V13.1924C8.36133 13.5088 8.25586 13.6055 7.93945 13.6055H7.42969ZM10.3037 13.6055C9.9873 13.6055 9.88184 13.5088 9.88184 13.1924V12.6826C9.88184 12.3662 9.9873 12.2695 10.3037 12.2695H10.8223C11.1299 12.2695 11.2354 12.3662 11.2354 12.6826V13.1924C11.2354 13.5088 11.1299 13.6055 10.8223 13.6055H10.3037ZM13.1777 13.6055C12.8613 13.6055 12.7559 13.5088 12.7559 13.1924V12.6826C12.7559 12.3662 12.8613 12.2695 13.1777 12.2695H13.6963C14.0039 12.2695 14.1094 12.3662 14.1094 12.6826V13.1924C14.1094 13.5088 14.0039 13.6055 13.6963 13.6055H13.1777ZM20.0771 21.4717C17.5986 21.4717 15.5508 19.4326 15.5508 16.9453C15.5508 14.4668 17.5986 12.4277 20.0771 12.4277C22.5557 12.4277 24.5947 14.4668 24.5947 16.9453C24.5947 19.415 22.5293 21.4717 20.0771 21.4717ZM17.9854 17.6924H20.1299C20.4727 17.6924 20.7363 17.4287 20.7363 17.0771V14.4053C20.7363 14.0713 20.4639 13.8076 20.1299 13.8076C19.7871 13.8076 19.5146 14.0713 19.5146 14.4053V16.4707H17.9854C17.6426 16.4707 17.3701 16.7432 17.3701 17.0771C17.3701 17.4199 17.6338 17.6924 17.9854 17.6924ZM7.42969 16.4355C7.11328 16.4355 7.00781 16.3389 7.00781 16.0225V15.5127C7.00781 15.1963 7.11328 15.0996 7.42969 15.0996H7.93945C8.25586 15.0996 8.36133 15.1963 8.36133 15.5127V16.0225C8.36133 16.3389 8.25586 16.4355 7.93945 16.4355H7.42969ZM10.3037 16.4355C9.9873 16.4355 9.88184 16.3389 9.88184 16.0225V15.5127C9.88184 15.1963 9.9873 15.0996 10.3037 15.0996H10.8223C11.1299 15.0996 11.2354 15.1963 11.2354 15.5127V16.0225C11.2354 16.3389 11.1299 16.4355 10.8223 16.4355H10.3037ZM13.1777 16.4355C12.8613 16.4355 12.7559 16.3389 12.7559 16.0225V15.5127C12.7559 15.1963 12.8613 15.0996 13.1777 15.0996H13.6963C14.0039 15.0996 14.1094 15.1963 14.1094 15.5127V16.0225C14.1094 16.3389 14.0039 16.4355 13.6963 16.4355H13.1777Z" />
</svg>
