<svg width="24" height="24" viewBox="0 0 24 24" fill="none" xmlns="http://www.w3.org/2000/svg">
<path d="M3.31641 10.0547C3.31641 9.07031 3.50098 8.14746 3.87012 7.28613C4.24512 6.41895 4.76074 5.65723 5.41699 5.00098C6.07324 4.33887 6.83203 3.82324 7.69336 3.4541C8.56055 3.08496 9.48633 2.90039 10.4707 2.90039C11.4609 2.90039 12.3867 3.08496 13.248 3.4541C14.1152 3.82324 14.877 4.33887 15.5332 5.00098C16.1895 5.65723 16.7021 6.41895 17.0713 7.28613C17.4463 8.14746 17.6338 9.07031 17.6338 10.0547C17.6338 10.8281 17.5137 11.5635 17.2734 12.2607C17.0391 12.958 16.7139 13.5938 16.2979 14.168L20.3057 18.1934C20.4287 18.3105 20.5195 18.4482 20.5781 18.6064C20.6426 18.7646 20.6748 18.9316 20.6748 19.1074C20.6748 19.3535 20.6191 19.5762 20.5078 19.7754C20.3965 19.9746 20.2441 20.1299 20.0508 20.2412C19.8574 20.3584 19.6348 20.417 19.3828 20.417C19.207 20.417 19.0371 20.3848 18.873 20.3203C18.7148 20.2617 18.5713 20.168 18.4424 20.0391L14.4082 16.0049C13.8457 16.3799 13.2305 16.6758 12.5625 16.8926C11.9004 17.1035 11.2031 17.209 10.4707 17.209C9.48633 17.209 8.56055 17.0244 7.69336 16.6553C6.83203 16.2861 6.07324 15.7734 5.41699 15.1172C4.76074 14.4609 4.24512 13.7021 3.87012 12.8408C3.50098 11.9736 3.31641 11.0449 3.31641 10.0547ZM5.15332 10.0547C5.15332 10.793 5.28809 11.4844 5.55762 12.1289C5.83301 12.7676 6.21387 13.3301 6.7002 13.8164C7.19238 14.3027 7.76074 14.6865 8.40527 14.9678C9.0498 15.2432 9.73828 15.3809 10.4707 15.3809C11.209 15.3809 11.8975 15.2432 12.5361 14.9678C13.1807 14.6865 13.7461 14.3027 14.2324 13.8164C14.7188 13.3301 15.0996 12.7676 15.375 12.1289C15.6562 11.4844 15.7969 10.793 15.7969 10.0547C15.7969 9.32227 15.6562 8.63379 15.375 7.98926C15.0996 7.34473 14.7188 6.7793 14.2324 6.29297C13.7461 5.80078 13.1807 5.41992 12.5361 5.15039C11.8975 4.875 11.209 4.7373 10.4707 4.7373C9.73828 4.7373 9.0498 4.875 8.40527 5.15039C7.76074 5.41992 7.19238 5.80078 6.7002 6.29297C6.21387 6.7793 5.83301 7.34473 5.55762 7.98926C5.28809 8.63379 5.15332 9.32227 5.15332 10.0547ZM10.4883 13.6406C10.4004 13.6406 10.3271 13.6143 10.2686 13.5615C10.2158 13.5088 10.1836 13.4414 10.1719 13.3594C10.084 12.791 9.9873 12.3252 9.88184 11.9619C9.77637 11.5986 9.62402 11.3115 9.4248 11.1006C9.23145 10.8896 8.95605 10.7314 8.59863 10.626C8.24121 10.5146 7.76953 10.4268 7.18359 10.3623C6.99023 10.3271 6.89355 10.2246 6.89355 10.0547C6.89355 9.87891 6.99023 9.77344 7.18359 9.73828C7.65234 9.67383 8.04492 9.60352 8.36133 9.52734C8.67773 9.44531 8.93555 9.33984 9.13477 9.21094C9.33398 9.07617 9.49512 8.90625 9.61816 8.70117C9.74121 8.49023 9.84082 8.22656 9.91699 7.91016C9.99902 7.59375 10.084 7.2041 10.1719 6.74121C10.2129 6.55957 10.3184 6.46875 10.4883 6.46875C10.6582 6.46875 10.7578 6.5625 10.7871 6.75C10.8574 7.20117 10.9307 7.58496 11.0068 7.90137C11.0889 8.21191 11.1943 8.47266 11.3232 8.68359C11.4521 8.89453 11.6162 9.06738 11.8154 9.20215C12.0205 9.33105 12.2812 9.43945 12.5977 9.52734C12.9199 9.60938 13.3154 9.67969 13.7842 9.73828C13.9717 9.77344 14.0654 9.87891 14.0654 10.0547C14.0654 10.2305 13.9717 10.333 13.7842 10.3623C13.3096 10.4268 12.9141 10.5 12.5977 10.582C12.2871 10.6582 12.0322 10.7637 11.833 10.8984C11.6338 11.0332 11.4727 11.2061 11.3496 11.417C11.2266 11.6221 11.1211 11.8857 11.0332 12.208C10.9512 12.5244 10.8691 12.9111 10.7871 13.3682C10.7461 13.5498 10.6465 13.6406 10.4883 13.6406Z" stroke="none"/>
</svg>
