<svg viewBox="0 0 24 24" xmlns="http://www.w3.org/2000/svg">
  <path
    d="M11.9385 20.584C11.7891 20.584 11.5605 20.5312 11.332 20.4082C6.375 17.6924 4.64355 16.4531 4.64355 13.3066V6.75879C4.64355 5.73926 5.03906 5.36133 5.90039 5.00977C6.8584 4.61426 10.0928 3.44531 11.042 3.14648C11.3232 3.06738 11.6484 2.99707 11.9385 2.99707C12.2373 2.99707 12.5625 3.05859 12.8438 3.14648C13.7842 3.46289 17.0273 4.61426 17.9854 5.00977C18.8467 5.37012 19.2422 5.73926 19.2422 6.75879V13.3066C19.2422 16.4531 17.5811 17.8154 12.5537 20.4082C12.3252 20.5225 12.0967 20.584 11.9385 20.584ZM10.9629 15.75C11.2969 15.75 11.5781 15.583 11.7715 15.2842L15.8936 8.86816C16.0166 8.6748 16.1221 8.45508 16.1221 8.25293C16.1221 7.7959 15.7178 7.48828 15.2783 7.48828C15.0059 7.48828 14.7598 7.64648 14.5664 7.94531L10.9365 13.7637L9.24023 11.6104C9.01172 11.3291 8.80078 11.2236 8.52832 11.2236C8.08008 11.2236 7.71973 11.5928 7.71973 12.041C7.71973 12.2607 7.79883 12.4717 7.95703 12.665L10.1104 15.2842C10.3652 15.6094 10.6289 15.75 10.9629 15.75Z"
    stroke="none"
  />
</svg>
