<svg viewBox="0 0 24 24" xmlns="http://www.w3.org/2000/svg">
  <path
    stroke="none"
    d="M13.0459 19.7002C12.3828 19.7002 12.1367 19.1875 11.9316 18.4902L10.5029 13.6094L5.56738 12.167C4.89746 11.9619 4.41211 11.7158 4.41211 11.0664C4.41211 10.54 4.85645 10.1709 5.44434 9.94531L17.2842 5.41309C17.5918 5.29688 17.8652 5.22852 18.0908 5.22852C18.5762 5.22852 18.8838 5.5293 18.8838 6.01465C18.8838 6.24707 18.8154 6.52051 18.6992 6.82129L14.1875 18.6133C13.9346 19.2695 13.5654 19.7002 13.0459 19.7002ZM10.8926 12.3721L15.0625 8.20898C15.4727 7.79883 16.0674 7.32031 16.5596 6.92383C15.9512 7.2041 15.3838 7.47754 14.8027 7.70312L6.5791 10.8408C6.49023 10.875 6.46289 10.9092 6.46289 10.957C6.46289 10.998 6.49707 11.0322 6.59961 11.0596L10.8926 12.3721ZM13.1621 17.6562C13.2031 17.6562 13.2373 17.6152 13.2715 17.5264L16.4092 9.30957C16.6348 8.72168 16.915 8.1543 17.1953 7.53223C16.8057 8.03125 16.3066 8.64648 15.9033 9.0498L11.7402 13.2197L13.0527 17.5127C13.0801 17.6152 13.1143 17.6562 13.1621 17.6562Z"
  />
</svg>
