<svg width="24" height="24" viewBox="0 0 24 24" fill="none" xmlns="http://www.w3.org/2000/svg">
<path d="M13.7842 18.9219V5.39551H15.4277V18.9219H13.7842ZM5.37305 20.3633C4.17188 20.3633 3.24023 20.0322 2.57812 19.3701C1.91602 18.708 1.58496 17.7764 1.58496 16.5752V7.75098C1.58496 6.5498 1.91602 5.61816 2.57812 4.95605C3.24023 4.28809 4.17188 3.9541 5.37305 3.9541H18.7939C19.9365 3.9541 20.8242 4.28809 21.457 4.95605C22.0898 5.61816 22.4062 6.5498 22.4062 7.75098V16.5752C22.4062 17.7764 22.0898 18.708 21.457 19.3701C20.8242 20.0322 19.9365 20.3633 18.7939 20.3633H5.37305ZM5.46973 18.6406H18.5215C19.2012 18.6406 19.7285 18.4531 20.1035 18.0781C20.4844 17.6973 20.6748 17.167 20.6748 16.4873V7.83887C20.6748 7.15918 20.4844 6.63184 20.1035 6.25684C19.7285 5.87598 19.2012 5.68555 18.5215 5.68555H5.46973C4.78418 5.68555 4.25391 5.87598 3.87891 6.25684C3.50391 6.63184 3.31641 7.15918 3.31641 7.83887V16.4873C3.31641 17.167 3.50391 17.6973 3.87891 18.0781C4.25391 18.4531 4.78418 18.6406 5.46973 18.6406ZM17.1504 8.91113C16.9922 8.91113 16.8545 8.85254 16.7373 8.73535C16.626 8.61816 16.5703 8.48926 16.5703 8.34863C16.5703 8.19629 16.626 8.06445 16.7373 7.95312C16.8545 7.8418 16.9922 7.78613 17.1504 7.78613H18.9521C19.1045 7.78613 19.2363 7.8418 19.3477 7.95312C19.4648 8.06445 19.5234 8.19629 19.5234 8.34863C19.5234 8.48926 19.4648 8.61816 19.3477 8.73535C19.2363 8.85254 19.1045 8.91113 18.9521 8.91113H17.1504ZM17.1504 11.2666C16.9922 11.2666 16.8545 11.2109 16.7373 11.0996C16.626 10.9824 16.5703 10.8477 16.5703 10.6953C16.5703 10.5488 16.626 10.4199 16.7373 10.3086C16.8545 10.1973 16.9922 10.1416 17.1504 10.1416H18.9521C19.1045 10.1416 19.2363 10.1973 19.3477 10.3086C19.4648 10.4199 19.5234 10.5488 19.5234 10.6953C19.5234 10.8477 19.4648 10.9824 19.3477 11.0996C19.2363 11.2109 19.1045 11.2666 18.9521 11.2666H17.1504ZM17.1504 13.6133C16.9922 13.6133 16.8545 13.5576 16.7373 13.4463C16.626 13.335 16.5703 13.2061 16.5703 13.0596C16.5703 12.9072 16.626 12.7754 16.7373 12.6641C16.8545 12.5527 16.9922 12.4971 17.1504 12.4971H18.9521C19.1045 12.4971 19.2363 12.5527 19.3477 12.6641C19.4648 12.7754 19.5234 12.9072 19.5234 13.0596C19.5234 13.2061 19.4648 13.335 19.3477 13.4463C19.2363 13.5576 19.1045 13.6133 18.9521 13.6133H17.1504Z" fill="#FF5B00"/>
</svg>
