<svg viewBox="0 0 24 24" xmlns="http://www.w3.org/2000/svg">
  <path
    stroke="none"
    d="M13.3877 16.8281V6.30762H14.666V16.8281H13.3877ZM6.8457 17.9492C5.91146 17.9492 5.18685 17.6917 4.67188 17.1768C4.1569 16.6618 3.89941 15.9372 3.89941 15.0029V8.13965C3.89941 7.2054 4.1569 6.48079 4.67188 5.96582C5.18685 5.44629 5.91146 5.18652 6.8457 5.18652H17.2842C18.1729 5.18652 18.8633 5.44629 19.3555 5.96582C19.8477 6.48079 20.0938 7.2054 20.0938 8.13965V15.0029C20.0938 15.9372 19.8477 16.6618 19.3555 17.1768C18.8633 17.6917 18.1729 17.9492 17.2842 17.9492H6.8457ZM6.9209 16.6094H17.0723C17.6009 16.6094 18.0111 16.4635 18.3027 16.1719C18.599 15.8757 18.7471 15.4632 18.7471 14.9346V8.20801C18.7471 7.67936 18.599 7.26921 18.3027 6.97754C18.0111 6.68132 17.6009 6.5332 17.0723 6.5332H6.9209C6.3877 6.5332 5.97526 6.68132 5.68359 6.97754C5.39193 7.26921 5.24609 7.67936 5.24609 8.20801V14.9346C5.24609 15.4632 5.39193 15.8757 5.68359 16.1719C5.97526 16.4635 6.3877 16.6094 6.9209 16.6094ZM16.0059 9.04199C15.8828 9.04199 15.7757 8.99642 15.6846 8.90527C15.598 8.81413 15.5547 8.71387 15.5547 8.60449C15.5547 8.486 15.598 8.38346 15.6846 8.29688C15.7757 8.21029 15.8828 8.16699 16.0059 8.16699H17.4072C17.5257 8.16699 17.6283 8.21029 17.7148 8.29688C17.806 8.38346 17.8516 8.486 17.8516 8.60449C17.8516 8.71387 17.806 8.81413 17.7148 8.90527C17.6283 8.99642 17.5257 9.04199 17.4072 9.04199H16.0059ZM16.0059 10.874C15.8828 10.874 15.7757 10.8307 15.6846 10.7441C15.598 10.653 15.5547 10.5482 15.5547 10.4297C15.5547 10.3158 15.598 10.2155 15.6846 10.1289C15.7757 10.0423 15.8828 9.99902 16.0059 9.99902H17.4072C17.5257 9.99902 17.6283 10.0423 17.7148 10.1289C17.806 10.2155 17.8516 10.3158 17.8516 10.4297C17.8516 10.5482 17.806 10.653 17.7148 10.7441C17.6283 10.8307 17.5257 10.874 17.4072 10.874H16.0059ZM16.0059 12.6992C15.8828 12.6992 15.7757 12.6559 15.6846 12.5693C15.598 12.4827 15.5547 12.3825 15.5547 12.2686C15.5547 12.1501 15.598 12.0475 15.6846 11.9609C15.7757 11.8743 15.8828 11.8311 16.0059 11.8311H17.4072C17.5257 11.8311 17.6283 11.8743 17.7148 11.9609C17.806 12.0475 17.8516 12.1501 17.8516 12.2686C17.8516 12.3825 17.806 12.4827 17.7148 12.5693C17.6283 12.6559 17.5257 12.6992 17.4072 12.6992H16.0059Z"
  />
</svg>
