<svg viewBox="0 0 24 24" xmlns="http://www.w3.org/2000/svg">
  <path
    stroke="none"
    d="M5.56055 7.55273L9.08105 4.10742C9.22461 3.9707 9.42969 3.88184 9.60742 3.88184C10.0312 3.88184 10.3252 4.17578 10.3252 4.59277C10.3252 4.79785 10.2568 4.96191 10.1201 5.09863L8.65723 6.50684L7.59082 7.42285L9.05371 7.36816H17.9541C18.3643 7.36816 18.6719 7.66895 18.6719 8.08594C18.6719 8.50293 18.3643 8.81055 17.9541 8.81055H9.05371L7.59082 8.75586L8.65723 9.67188L10.1201 11.0801C10.2568 11.2168 10.3252 11.3809 10.3252 11.5791C10.3252 11.9961 10.0312 12.29 9.60742 12.29C9.42969 12.29 9.22461 12.208 9.08105 12.0713L5.56055 8.62598C5.24609 8.3252 5.23926 7.85352 5.56055 7.55273ZM18.4395 16.5898L14.9121 20.0352C14.7754 20.1719 14.5635 20.2607 14.3857 20.2607C13.9619 20.2607 13.6748 19.96 13.6748 19.543C13.6748 19.3447 13.7363 19.1807 13.8799 19.0439L15.3359 17.6357L16.4023 16.7197L14.9395 16.7744H6.03906C5.62891 16.7744 5.32129 16.4736 5.32129 16.0566C5.32129 15.6328 5.62891 15.332 6.03906 15.332H14.9395L16.4023 15.3867L15.3359 14.4707L13.8799 13.0625C13.7363 12.9258 13.6748 12.7617 13.6748 12.5635C13.6748 12.1465 13.9619 11.8457 14.3857 11.8457C14.5635 11.8457 14.7754 11.9346 14.9121 12.0713L18.4395 15.5166C18.7471 15.8174 18.7539 16.2822 18.4395 16.5898Z"
  />
</svg>
