<svg viewBox="0 0 24 24" xmlns="http://www.w3.org/2000/svg">
  <g stroke="none">
    <path
      d="M11.6995 14.8945C10.9065 14.7441 10.3665 14.4434 9.96313 14.0469C8.26782 12.3516 8.28149 9.97266 9.9563 8.29785L12.3352 5.91211C14.01 4.2373 16.3889 4.22363 18.0842 5.92578C19.7795 7.62109 19.7727 10 18.0911 11.6748L16.1292 13.6299C16.2454 13.1035 16.177 12.4951 15.9583 11.9961L17.134 10.8203C18.2825 9.67188 18.2893 8.04492 17.1272 6.87598C15.9719 5.7207 14.3381 5.7207 13.1829 6.87598L10.9133 9.14551C9.76489 10.2939 9.76489 11.9346 10.9202 13.0898C11.344 13.5137 11.9182 13.7734 12.7385 13.8486L11.6995 14.8945ZM12.301 9.13184C13.1008 9.28223 13.6409 9.58301 14.0374 9.98633C15.7327 11.6748 15.7258 14.0537 14.0442 15.7354L11.6721 18.1143C9.99731 19.7891 7.61841 19.8027 5.9231 18.1074C4.22778 16.4121 4.23462 14.0264 5.91626 12.3516L7.87134 10.3965C7.75513 10.9297 7.83032 11.5312 8.04224 12.0303L6.87329 13.2061C5.71802 14.3545 5.71118 15.9883 6.87329 17.1504C8.0354 18.3057 9.66235 18.3057 10.8176 17.1504L13.0872 14.8809C14.2424 13.7324 14.2424 12.0986 13.0803 10.9365C12.6633 10.5195 12.0823 10.2529 11.2688 10.1777L12.301 9.13184Z"
    />
    <path
      d="M19.7778 16.286C20.0928 16.286 20.3848 16.087 20.4898 15.773C20.6198 15.38 20.4078 14.955 20.0148 14.824L17.8939 14.117C17.4969 13.985 17.0769 14.199 16.9449 14.591C16.8149 14.984 17.0269 15.409 17.4199 15.54L19.5409 16.247C19.6199 16.274 19.6998 16.286 19.7778 16.286Z"
    />
    <path
      d="M14.3469 17.046C14.7169 16.861 15.1669 17.011 15.3529 17.381L16.3529 19.382C16.5379 19.752 16.3879 20.202 16.0169 20.388C15.9099 20.442 15.7949 20.467 15.6829 20.467C15.4069 20.467 15.1429 20.315 15.0109 20.052L14.0109 18.052C13.8259 17.682 13.9759 17.232 14.3469 17.046Z"
    />
    <path
      d="M5.9469 9.98801L3.9469 8.98801C3.5759 8.80301 3.4249 8.35201 3.6109 7.98101C3.7979 7.61201 4.2469 7.46101 4.6169 7.64601L6.6169 8.64601C6.9879 8.83101 7.1389 9.28101 6.9529 9.65201C6.8209 9.91501 6.5559 10.067 6.2809 10.067C6.1689 10.067 6.0539 10.042 5.9469 9.98801Z"
    />
    <path
      d="M9.1719 7.09301C8.8569 7.09301 8.5649 6.89401 8.4599 6.58001L7.7529 4.45801C7.6229 4.06501 7.8349 3.64001 8.2279 3.50901C8.6239 3.37601 9.0449 3.59101 9.1769 3.98301L9.8839 6.10501C10.0139 6.49801 9.8019 6.92301 9.4089 7.05401C9.3299 7.08101 9.2499 7.09301 9.1719 7.09301Z"
    />
  </g>
</svg>
