<svg width="24" height="24" viewBox="0 0 24 24" fill="none" xmlns="http://www.w3.org/2000/svg">
  <path
    d="M6.49707 18.6953C5.45801 18.6953 4.91797 18.1416 4.91797 17.0205V12.1807C4.91797 11.0664 5.45801 10.5127 6.49707 10.5127H12.0137V8.89258C12.0137 6.37012 13.6816 5.07129 15.5479 5.07129C17.4141 5.07129 19.082 6.37012 19.082 8.89258V10.2871C19.082 10.7451 18.7949 10.9775 18.4463 10.9775C18.0908 10.9775 17.8037 10.7246 17.8037 10.2871V8.76953C17.8037 7.16992 16.7646 6.29492 15.5479 6.29492C14.3242 6.29492 13.292 7.16992 13.292 8.76953V10.54C14.0781 10.6699 14.4814 11.2168 14.4814 12.1807V17.0205C14.4814 18.1416 13.9414 18.6953 12.9023 18.6953H6.49707Z"
    stroke="none"
  />
</svg>
