<svg viewBox="0 0 24 24" xmlns="http://www.w3.org/2000/svg">
  <path
    stroke="none"
    d="M12 2.5752C16.4824 2.5752 20.209 5.83594 20.9297 10.1074H22.0898C22.749 10.1074 22.916 10.5908 22.5557 11.0918L20.5166 13.9219C20.2266 14.3262 19.7871 14.3174 19.5146 13.9219L17.4756 11.083C17.124 10.5908 17.291 10.1074 17.9326 10.1074H19.1016C18.4072 6.82031 15.498 4.35938 12 4.35938C9.96973 4.35938 8.13281 5.20312 6.83203 6.56543C6.35742 6.99609 5.90039 6.91699 5.58398 6.64453C5.23242 6.33691 5.13574 5.73047 5.59277 5.2998C7.20117 3.62109 9.48633 2.5752 12 2.5752ZM12 20.7334C7.51758 20.7334 3.79102 17.4727 3.07031 13.2012H1.91016C1.25977 13.2012 1.08398 12.709 1.44434 12.2168L3.4834 9.37793C3.77344 8.98242 4.21289 8.99121 4.48535 9.37793L6.52441 12.2256C6.87598 12.709 6.70898 13.2012 6.06738 13.2012H4.89844C5.59277 16.4795 8.50195 18.9404 12 18.9404C14.0303 18.9404 15.8672 18.1055 17.168 16.7432C17.6426 16.3125 18.0996 16.3828 18.416 16.6641C18.7676 16.9717 18.8643 17.5781 18.4072 18.0088C16.7988 19.6875 14.5137 20.7334 12 20.7334Z"
  />
</svg>
