<svg width="24" height="24" viewBox="0 0 24 24" fill="none" xmlns="http://www.w3.org/2000/svg">
<path d="M6.68262 19.3447C5.87988 19.3447 5.28223 19.1484 4.88965 18.7559C4.49707 18.3691 4.30078 17.7715 4.30078 16.9629V15.082C4.30078 14.918 4.24805 14.7803 4.14258 14.6689L2.80664 13.333C2.23242 12.7646 1.94531 12.2051 1.94531 11.6543C1.94531 11.1035 2.23242 10.541 2.80664 9.9668L4.14258 8.63086C4.24805 8.51953 4.30078 8.38477 4.30078 8.22656V6.33691C4.30078 5.52246 4.49414 4.92188 4.88086 4.53516C5.27344 4.14844 5.87402 3.95508 6.68262 3.95508H8.57227C8.73633 3.95508 8.87402 3.89941 8.98535 3.78809L10.3213 2.46094C10.8896 1.88672 11.4492 1.59961 12 1.59961C12.5508 1.59375 13.1104 1.88086 13.6787 2.46094L15.0146 3.78809C15.126 3.89941 15.2637 3.95508 15.4277 3.95508H17.3086C18.123 3.95508 18.7236 4.15137 19.1104 4.54395C19.4971 4.93652 19.6904 5.53418 19.6904 6.33691V8.22656C19.6904 8.38477 19.749 8.51953 19.8662 8.63086L21.1934 9.9668C21.7617 10.541 22.0459 11.1035 22.0459 11.6543C22.0459 12.2051 21.7617 12.7646 21.1934 13.333L19.8662 14.6689C19.749 14.7803 19.6904 14.918 19.6904 15.082V16.9629C19.6904 17.7773 19.4941 18.3779 19.1016 18.7646C18.7148 19.1514 18.1172 19.3447 17.3086 19.3447H15.4277C15.2637 19.3447 15.126 19.4004 15.0146 19.5117L13.6787 20.8477C13.1104 21.416 12.5508 21.7002 12 21.7002C11.4492 21.7061 10.8896 21.4219 10.3213 20.8477L8.98535 19.5117C8.87402 19.4004 8.73633 19.3447 8.57227 19.3447H6.68262ZM11.0244 15.9785C11.1885 15.9785 11.3379 15.9404 11.4727 15.8643C11.6133 15.7881 11.7363 15.6738 11.8418 15.5215L15.9551 9.10547C16.0137 9.01172 16.0664 8.91211 16.1133 8.80664C16.1602 8.69531 16.1836 8.58984 16.1836 8.49023C16.1836 8.26172 16.0957 8.07715 15.9199 7.93652C15.75 7.7959 15.5566 7.72559 15.3398 7.72559C15.0527 7.72559 14.8154 7.87793 14.6279 8.18262L10.9893 14.001L9.30176 11.8564C9.18457 11.71 9.07031 11.6074 8.95898 11.5488C8.84766 11.4902 8.72168 11.4609 8.58105 11.4609C8.3584 11.4609 8.16797 11.543 8.00977 11.707C7.85742 11.8652 7.78125 12.0557 7.78125 12.2783C7.78125 12.3896 7.80176 12.498 7.84277 12.6035C7.88379 12.709 7.94238 12.8115 8.01855 12.9111L10.1719 15.5303C10.3008 15.6885 10.4326 15.8027 10.5674 15.873C10.7021 15.9434 10.8545 15.9785 11.0244 15.9785Z" stroke="none"/>
</svg>
