<svg viewBox="0 0 24 24" xmlns="http://www.w3.org/2000/svg">
  <path
    stroke="none"
    d="M6.64453 6.70898C6.93164 6.41504 7.4375 6.42187 7.71777 6.70898L11.9287 10.9131L16.1328 6.70898C16.4131 6.42187 16.9121 6.41504 17.2129 6.70898C17.5068 7.00293 17.5 7.50195 17.2129 7.78906L13.0088 11.9932L17.2129 16.1973C17.5 16.4912 17.5 16.9766 17.2061 17.2773C16.9189 17.5781 16.4199 17.5713 16.1328 17.2842L11.9287 13.0801L7.71777 17.2842C7.43066 17.5713 6.93848 17.5713 6.64453 17.2773C6.34375 16.9834 6.35059 16.4912 6.63769 16.1973L10.8418 11.9932L6.6377 7.78906C6.35059 7.50195 6.35059 7.00977 6.64453 6.70898Z"
  />
</svg>
