<svg viewBox="0 0 24 24" xmlns="http://www.w3.org/2000/svg">
  <path
    stroke="none"
    d="M4.87402 12C4.87402 8.13769 8.06641 4.93848 11.9355 4.93848C15.7979 4.93848 18.9971 8.13086 18.9971 11.9932C18.9971 15.8623 15.7979 19.0615 11.9355 19.0615C8.06641 19.0615 4.87402 15.8623 4.87402 12ZM9.03711 9.75781C9.03711 9.94238 9.10547 10.0996 9.22852 10.2295L11.0127 12L9.22852 13.7842C9.10547 13.9004 9.03711 14.0645 9.03711 14.249C9.03711 14.6113 9.32422 14.8984 9.69336 14.8984C9.86426 14.8984 10.0215 14.8301 10.1445 14.707L11.9287 12.9229L13.7197 14.7139C13.8496 14.8437 14 14.8984 14.1709 14.8984C14.5332 14.8984 14.8135 14.6182 14.8135 14.2627C14.8135 14.0781 14.752 13.9346 14.6221 13.8047L12.8311 12L14.6152 10.209C14.7383 10.0859 14.7998 9.94238 14.7998 9.75781C14.7998 9.39551 14.5264 9.11523 14.1641 9.11523C13.9932 9.11523 13.8359 9.18359 13.7129 9.30664L11.9287 11.0908L10.1377 9.30664C10.0146 9.18359 9.85742 9.11523 9.69336 9.11523C9.32422 9.11523 9.03711 9.39551 9.03711 9.75781Z"
  />
</svg>
