<svg viewBox="0 0 8 8" xmlns="http://www.w3.org/2000/svg">
  <path
    stroke-width="0" fill-rule="evenodd" clip-rule="evenodd"
    d="M6.9398 1.05999C7.21041 1.3306 7.21041 1.76935 6.9398 2.03996L4.97976 4L6.93969 5.95993C7.2103 6.23054 7.2103 6.66929 6.93969 6.9399C6.66908 7.21051 6.23033 7.21051 5.95972 6.9399L3.99979 4.97997L2.03997 6.93979C1.76936 7.2104 1.33061 7.2104 1.06 6.93979C0.789393 6.66918 0.789393 6.23043 1.06 5.95982L3.01982 4L1.05989 2.04007C0.789281 1.76946 0.789281 1.33071 1.05989 1.0601C1.3305 0.789492 1.76925 0.789492 2.03986 1.0601L3.99979 3.02004L5.95984 1.05999C6.23045 0.78938 6.66919 0.78938 6.9398 1.05999Z" />
</svg>
