<svg viewBox="0 0 36 36" fill="none" xmlns="http://www.w3.org/2000/svg">
  <rect width="36" height="36" fill="url(#paint0_linear_7_10189)" />
  <g clip-path="url(#clip0_7_10189)">
    <path
      d="M12.1416 24.4492C10.665 24.4492 9.89941 23.6904 9.89941 22.2344V13.9082C9.89941 12.4453 10.665 11.6934 12.1416 11.6934H23.8516C25.3281 11.6934 26.0938 12.4521 26.0938 13.9082V22.2344C26.0938 23.6904 25.3281 24.4492 23.8516 24.4492H12.1416ZM11.2393 14.0244V21.3389L13.126 19.6436C13.4131 19.3838 13.6934 19.2607 14.0078 19.2607C14.3291 19.2607 14.6436 19.3975 14.9307 19.6504L16.1953 20.792L19.2783 18.0303C19.5928 17.7568 19.9277 17.627 20.3037 17.627C20.666 17.627 21.0283 17.7637 21.3291 18.0439L24.7539 21.25V14.0244C24.7539 13.3613 24.3984 13.0264 23.7695 13.0264H12.2236C11.5879 13.0264 11.2393 13.3613 11.2393 14.0244ZM15.1973 18.1943C14.2881 18.1943 13.5566 17.4561 13.5566 16.5537C13.5566 15.6582 14.2881 14.9131 15.1973 14.9131C16.0928 14.9131 16.8311 15.6582 16.8311 16.5537C16.8311 17.4561 16.0928 18.1943 15.1973 18.1943Z"
      fill="white" />
  </g>
  <defs>
    <linearGradient id="paint0_linear_7_10189" x1="-1.5" y1="-3.02059e-07" x2="36" y2="38.5"
      gradientUnits="userSpaceOnUse">
      <stop stop-color="#FF5B00" />
      <stop offset="1" stop-color="#F4BE38" />
    </linearGradient>
    <clipPath id="clip0_7_10189">
      <rect width="24" height="24" fill="white" transform="translate(6 6)" />
    </clipPath>
  </defs>
</svg>
