<svg width="24" height="24" viewBox="0 0 24 24" fill="none" xmlns="http://www.w3.org/2000/svg">
    <path d="M12 24C18.6274 24 24 18.6274 24 12C24 5.37258 18.6274 0 12 0C5.37258 0 0 5.37258 0 12C0 18.6274 5.37258 24 12 24Z" fill="white"/>
    <path fill-rule="evenodd" clip-rule="evenodd" d="M12 0C5.37258 0 0 5.37258 0 12C0 18.6274 5.37258 24 12 24C18.6274 24 24 18.6274 24 12C24 5.37258 18.6274 0 12 0ZM7.89466 11.3569C7.89466 11.9297 8.35896 12.394 8.93171 12.394H15.0555C15.6353 12.394 16.1053 11.924 16.1053 11.3441C16.1053 10.8733 16.4361 10.4818 16.8279 10.2207C17.3156 9.89558 17.625 9.41611 17.625 8.8818C17.625 7.89118 16.5817 7.10319 15.2661 7.10319C14.7326 7.10319 14.1855 6.91638 13.7614 6.59267C13.2763 6.22239 12.6687 6 12 6C11.3313 6 10.7237 6.22239 10.2386 6.59267C9.81446 6.91638 9.26739 7.10319 8.73387 7.10319C7.44103 7.10319 6.375 7.9137 6.375 8.8818C6.39089 9.43376 6.69612 9.91945 7.18157 10.246C7.56746 10.5056 7.89466 10.8919 7.89466 11.3569ZM7.80396 13.6773C7.80396 16.0638 9.66383 18 11.9547 18C14.2455 18 16.1054 16.0638 16.1054 13.6773C16.1054 13.5872 16.0997 13.4972 16.094 13.4071C16.0846 13.2581 15.9616 13.137 15.8122 13.137H8.39193C8.08187 13.137 7.80396 13.3672 7.80396 13.6773Z" fill="#007AFF"/>
</svg>
