<svg width="32" height="32" viewBox="0 0 32 32" fill="none" xmlns="http://www.w3.org/2000/svg">
<rect width="32" height="32" rx="16" fill="#ee4165"/>
<path d="M18.0432 26C16.6828 26 15.6899 25.6562 15.0645 24.9687C14.4851 24.3867 14.1488 23.5878 14.1293 22.7465C14.1222 22.4909 14.1787 22.2378 14.2931 22.012C14.3998 21.817 14.554 21.6551 14.7398 21.543C14.9558 21.4299 15.1939 21.3711 15.4353 21.3711C15.6767 21.3711 15.9148 21.4299 16.1308 21.543C16.3164 21.6547 16.4698 21.8167 16.5751 22.012C16.6928 22.2367 16.7513 22.4902 16.7447 22.7465C16.7569 23.0526 16.6732 23.3544 16.5065 23.6059C16.3675 23.8111 16.1689 23.9636 15.9403 24.0405C16.1638 24.339 16.48 24.5459 16.8339 24.625C17.2298 24.7456 17.6399 24.8076 18.0521 24.8093C18.598 24.8143 19.1325 24.6466 19.5862 24.328C20.0567 23.9792 20.4077 23.4807 20.587 22.9062C20.8142 22.2225 20.9251 21.5022 20.9146 20.7781C20.9329 20.0233 20.8115 19.2719 20.5572 18.5656C20.3658 18.0006 20.0026 17.5175 19.5236 17.1906C19.0783 16.895 18.5614 16.7399 18.0345 16.7437C17.5754 16.7845 17.1327 16.9422 16.7447 17.2031L15.7883 17.7062V17.2031L20.0865 11.1538H14.1293V17.4312C14.1124 17.8842 14.2266 18.332 14.4569 18.7156C14.5683 18.8828 14.719 19.0169 14.8943 19.1051C15.0697 19.1932 15.2637 19.2323 15.4577 19.2187C15.8161 19.2111 16.1627 19.0829 16.4465 18.8531C16.7682 18.6058 17.0481 18.3037 17.2746 17.9593C17.295 17.8989 17.3326 17.8466 17.3823 17.8094C17.4222 17.7732 17.4732 17.7533 17.5259 17.7532C17.6294 17.7631 17.7274 17.8068 17.806 17.8781C17.9055 17.9948 17.9597 18.1464 17.9578 18.3031C17.9463 18.4083 17.9284 18.5127 17.9042 18.6156C17.6926 19.1529 17.3379 19.615 16.8825 19.9464C16.4595 20.2466 15.96 20.4058 15.4493 20.4031C14.1595 20.4031 13.266 20.1365 12.7687 19.6031C12.5131 19.3083 12.3162 18.963 12.1893 18.5874C12.0625 18.2118 12.0083 17.8134 12.03 17.4156V11.1538H9V9.98744H12.0441V7.32806L11.3472 6.59636V6H13.3696L14.1293 6.41255V9.98744L21.9987 9.96233L22.7822 10.7873L17.9568 15.8744C18.2483 15.7514 18.5553 15.6735 18.8681 15.6432C19.4874 15.6716 20.0916 15.8526 20.6318 16.1714C21.2574 16.4833 21.7847 16.977 22.151 17.5937C22.4793 18.1158 22.7116 18.6977 22.8361 19.3093C22.9385 19.7918 22.9934 20.284 23 20.7783C23.0032 21.7215 22.7993 22.6528 22.4043 23.5C22.0296 24.3205 21.399 24.982 20.617 25.3751C19.8165 25.789 18.9356 26.0028 18.0432 26Z" fill="white"/>
</svg>
