<svg width="24" height="24" viewBox="0 0 24 24" fill="none" xmlns="http://www.w3.org/2000/svg">
    <path d="M11.9846 20.1909C7.45556 20.1909 3.77269 16.5104 3.77269 11.9841C3.77269 7.45784 7.45556 3.77727 11.9846 3.77727C16.5137 3.77727 20.1966 7.45784 20.1966 11.9841C20.1966 12.4947 20.1487 13 20.0582 13.484L22.8203 16.2444C23.3419 14.9254 23.6293 13.484 23.6293 11.9841C23.6293 5.56969 18.4083 0.34668 11.9846 0.34668C5.5609 0.34668 0.339966 5.56969 0.339966 11.9841C0.339966 18.4038 5.56623 23.6215 11.9846 23.6215C13.4642 23.6215 14.8745 23.3449 16.1784 22.8397L13.4056 20.0686C12.9426 20.1537 12.4689 20.1909 11.9846 20.1909Z" fill="#232735"/>
    <path fill-rule="evenodd" clip-rule="evenodd" d="M20.7356 20.1252L16.5229 15.9095C16.0236 15.4051 15.8961 14.6723 16.1458 14.0564C16.2308 13.8494 16.3583 13.6529 16.5229 13.4883C17.1923 12.8193 18.276 12.8193 18.9454 13.4883L23.1581 17.7041C23.8274 18.3731 23.8274 19.4562 23.1581 20.1252C23.0465 20.2367 22.9243 20.327 22.7968 20.4013C22.1434 20.773 21.2934 20.6827 20.7356 20.1252ZM15.8222 16.4245L20.1305 20.7305C20.7999 21.3995 20.7999 22.4826 20.1305 23.1516C20.0243 23.2578 19.9127 23.3428 19.7906 23.4171C19.1318 23.8047 18.2712 23.7144 17.7081 23.1516L13.4954 18.9359C12.8261 18.2669 12.8261 17.1837 13.4954 16.5147C13.7026 16.3077 13.9523 16.1643 14.2126 16.0847C14.7545 15.9201 15.3654 16.0316 15.8222 16.4245Z" fill="url(#paint0_linear_663_4183)"/>
    <defs>
        <linearGradient id="paint0_linear_663_4183" x1="12.9934" y1="12.9866" x2="24.9241" y2="14.6643" gradientUnits="userSpaceOnUse">
            <stop stop-color="#5C1EE0"/>
            <stop offset="1" stop-color="#1373E4"/>
        </linearGradient>
    </defs>
</svg>
