<svg xmlns="http://www.w3.org/2000/svg" width="24" height="24" viewBox="0 0 24 23" fill-rule="evenodd">
    <path d="M10.688.023c0 .012-.109.023-.277.023-.211 0-.281.008-.309.035s-.086.031-.199.031-.176.012-.199.035-.098.035-.215.039c-.145.008-.184.016-.184.043s-.027.035-.133.031S9.031.266 9 .301s-.07.043-.145.043c-.062 0-.105.012-.113.031-.012.027-.082.039-.277.047-.023 0-.039.012-.035.023s-.043.035-.105.047-.113.035-.121.047-.051.023-.09.02C8.063.551 8.027.566 8 .598s-.07.047-.121.047-.086.016-.094.035-.035.035-.066.035-.094.02-.145.047-.117.043-.148.043-.055.016-.055.039-.008.027-.023.02c-.035-.02-.145.016-.145.051 0 .02-.023.031-.066.031s-.082.016-.098.035-.047.031-.066.031c-.043 0-.219.086-.277.137-.027.02-.039.027-.031.012s-.008-.016-.055.008c-.039.016-.082.027-.098.02s-.016 0-.008.02c.012.027 0 .035-.035.035-.023 0-.059.016-.074.035s-.047.035-.066.035-.062.02-.094.047a.29.29 0 0 1-.094.047c-.02 0-.035.016-.035.035s-.023.031-.07.031c-.039 0-.07.012-.07.023a.59.59 0 0 1-.219.125c-.004.004-.031.02-.051.043s-.062.043-.09.051-.043.027-.035.039-.004.02-.031.02-.059.016-.074.035-.047.035-.066.035-.039.016-.047.035-.027.031-.043.031-.043.02-.055.039-.047.039-.078.043c-.094.008-.094.012-.078.047.008.02 0 .035-.012.035s-.039.012-.059.027c-.059.055-.184.133-.207.133-.016 0-.023.016-.023.035s-.016.027-.035.02-.039.008-.051.035-.027.047-.043.047-.051.023-.074.047-.059.047-.074.047-.035.016-.043.035-.031.031-.051.023-.031-.004-.023.012-.008.031-.035.039-.051.031-.051.055-.012.043-.023.043c-.027 0-.187.121-.32.234a.32.32 0 0 1-.09.066c-.008 0-.023.02-.031.047s-.023.039-.039.031-.027.008-.035.035-.02.047-.031.047c-.027 0-.215.18-.199.191.004.008-.012.02-.039.027s-.047.031-.047.047-.02.035-.039.035-.035.016-.035.035-.016.031-.035.031-.047.023-.059.047-.035.043-.051.035c-.004.031-.035.078-.082.113s-.082.078-.082.094-.023.035-.055.043-.043.02-.035.027-.004.031-.113.152c-.02.02-.035.047-.035.063s-.016.027-.035.027-.039.012-.039.031-.02.039-.047.047-.047.031-.047.047-.008.035-.02.039c-.027.012-.125.152-.125.18 0 .012-.016.023-.035.023s-.035.02-.035.047-.016.047-.051.047-.047.008-.035.035c.008.02.004.031-.004.023s-.035.023-.055.066-.043.086-.062.09-.031.031-.031.051-.012.031-.035.023-.031.004-.023.035-.016.066-.051.098-.059.066-.059.082-.008.023-.02.023-.035.031-.047.07-.035.07-.051.07-.023.012-.023.031-.02.039-.039.043-.035.043-.035.086-.008.066-.02.059-.035.004-.051.023-.02.031-.012.031-.004.023-.031.047-.051.07-.051.094-.02.047-.039.047-.031.008-.031.016c.012.063-.008.121-.039.121-.02 0-.035.02-.035.047 0 .035-.012.047-.039.035-.02-.008-.031-.004-.023.008a.24.24 0 0 1-.062.164c-.012 0-.016.008-.008.02s.004.027-.012.039-.023.031-.023.059-.016.051-.035.059-.035.027-.035.047-.023.063-.051.098-.043.078-.035.09-.004.027-.023.035-.035.027-.035.043-.02.07-.047.121-.047.109-.047.129-.016.047-.035.051-.039.043-.039.074-.02.078-.047.105-.047.066-.039.09c.012.047-.035.105-.062.078-.008-.008-.008.008 0 .035s-.008.078-.027.121a.67.67 0 0 0-.055.145c-.004.039-.027.09-.043.117s-.035.078-.035.117c0 .055-.016.086-.051.102-.039.023-.047.039-.035.105.012.051.008.078-.012.078-.012 0-.02.008-.012.02s-.004.027-.023.035-.031.031-.031.055c.012.102-.004.172-.031.16s-.031.027-.039.121c-.004.082-.016.137-.039.152s-.035.066-.035.145c0 .09-.016.133-.051.168-.043.039-.051.07-.043.184.004.074 0 .137-.008.137-.027 0-.051.082-.059.242-.004.086-.023.184-.043.211-.027.035-.039.117-.039.277s-.008.238-.035.27-.035.137-.035.5c0 .289-.008.457-.023.457S0 11.32 0 11.574s.008.402.023.402.023.16.023.434c0 .332.008.445.035.496.023.043.035.145.039.293.004.16.012.238.035.25s.035.082.043.191c.008.098.023.199.039.223s.023.102.023.164c0 .086.012.129.047.164s.051.074.051.168c0 .066.012.141.031.164a.51.51 0 0 1 .047.148c.008.059.023.109.039.113s.023.047.023.098c0 .059.016.105.047.137s.043.063.035.113-.004.078.035.109.051.066.051.125c0 .051.016.094.035.105s.035.055.043.098a.5.5 0 0 0 .051.152c.02.039.039.086.039.109s.016.047.035.055.031.031.023.063.004.066.035.102c.027.027.051.078.055.109s.02.066.035.074.031.035.031.063.016.07.035.094.035.063.035.082.023.059.051.086.043.051.035.051 0 .031.012.066.035.066.047.059.023.012.023.043.016.07.035.086.035.043.035.063a.3.3 0 0 0 .047.098c.027.035.043.07.035.074s.008.027.035.043.051.055.051.086.016.051.035.051.035.02.035.059c0 .031.012.055.027.055s.016.012.008.023-.004.023.012.023c.023 0 .063.09.055.121-.004.012.008.016.023.012s.035.02.039.047.023.051.043.051.031.023.031.059.016.063.035.07.039.031.039.047.016.039.031.047.043.043.051.082.023.063.027.055c.02-.016.152.176.137.199-.008.008.004.02.023.02s.039.016.039.035.016.039.035.047.035.027.035.039.02.051.043.074.039.059.035.074.012.035.039.043.051.027.051.047.016.031.035.031.043.023.051.055.023.055.031.047.039.039.063.094c.031.066.059.102.086.102s.043.016.043.035.02.035.039.035.035.016.035.035.016.043.035.051a.05.05 0 0 1 .035.043c0 .016.023.047.055.066s.043.035.031.035.016.035.063.074a.52.52 0 0 1 .098.117c.008.02.031.039.051.039s.039.016.039.035.016.035.035.035.031.008.023.02.008.027.035.035.047.031.047.047.023.047.051.059.039.035.031.047.012.023.035.023c.031 0 .051.016.051.035s.016.031.035.031.031.016.02.039-.004.035.012.023.059.027.105.078.086.09.098.09a.21.21 0 0 1 .113.109c0 .016.016.031.035.031s.043.016.051.035.027.031.043.031.039.016.047.035.039.047.074.059.059.031.059.047.016.023.035.023.035.012.035.031.031.051.066.074a1.44 1.44 0 0 1 .105.082c.023.023.051.043.055.043h.047c.02 0 .043.02.051.047s.023.039.035.031.023.004.023.02.02.043.047.051.051.027.059.047.031.035.051.035.035.008.035.02.027.031.059.039.063.027.07.047.027.031.047.031.047.02.063.047.043.047.063.047c.035 0 .078.027.148.098.02.02.063.039.09.039s.059.02.063.047.035.047.063.047.051.008.051.02.027.031.059.039.063.027.07.047.027.031.047.031.047.016.063.035.051.035.074.035.047.008.047.023.027.035.066.051a.38.38 0 0 1 .098.059c.016.016.051.027.074.027s.047.016.055.035.043.035.086.035c.051 0 .07.012.082.047s.023.047.055.035c.023-.012.055 0 .086.031.023.027.059.047.078.047s.047.016.066.035.063.035.098.039.055.012.047.02c-.012.02.051.043.121.043.035 0 .063.02.07.043s.039.039.078.043.074.02.086.039.051.039.098.039.094.016.109.031.063.035.098.035.07.016.078.035.047.035.098.035c.059 0 .09.012.109.043s.043.043.105.035.09.004.109.039c.016.027.051.043.102.043.043.004.098.02.125.035s.082.035.125.035.086.012.094.035.047.035.129.035.117.008.129.035c.008.02.023.027.035.02s.027-.004.027.008.031.016.066.016.102.008.137.027a.71.71 0 0 0 .203.047c.078.008.152.027.168.047s.078.031.176.031.164.008.188.031.09.035.227.035c.113 0 .195.012.195.023s.645.023 1.883.023l1.887-.023c0-.012.082-.023.199-.023.156 0 .203-.008.215-.035s.047-.031.137-.031a.53.53 0 0 0 .195-.035c.035-.02.121-.035.188-.039s.145-.02.164-.035.086-.035.145-.039.121-.02.145-.043.078-.039.137-.039c.051 0 .105-.016.121-.035s.066-.035.113-.035.102-.016.125-.031.074-.039.121-.043.098-.023.113-.047c.023-.031.055-.039.113-.031s.09-.004.109-.035c.012-.023.039-.043.063-.043.043 0 .305-.098.332-.125.008-.008.039-.012.07-.012s.07-.02.09-.039.074-.039.117-.043.09-.027.102-.047.047-.035.07-.035.063-.016.086-.035.063-.035.09-.039.051-.016.051-.031.027-.039.066-.047.078-.023.098-.039.051-.023.078-.027.059-.02.07-.043.043-.035.066-.035.059-.016.074-.035.043-.035.063-.035.039-.016.047-.035.047-.039.086-.047.074-.027.082-.047.035-.031.059-.031.055-.016.063-.035.039-.035.07-.035.055-.012.055-.023.035-.035.074-.051.07-.031.07-.043.016-.02.031-.02.051-.02.078-.043.063-.047.086-.059.043-.023.043-.039.027-.023.059-.023c.039 0 .063-.012.063-.031s.016-.035.031-.035.047-.016.055-.031.066-.059.129-.098a.54.54 0 0 0 .113-.086c.004-.008.02-.016.035-.02s.066-.035.109-.078.102-.082.129-.082.043-.012.043-.031.02-.035.047-.043.043-.023.035-.039 0-.023.023-.023.043-.016.051-.035.023-.035.035-.035c.023 0 .074-.035.211-.152.047-.043.098-.078.113-.078s.031-.012.031-.031.02-.039.047-.047.047-.023.043-.031c-.008-.023.094-.121.125-.121.012 0 .023-.016.023-.031s.016-.035.035-.035.035-.016.035-.035.016-.035.039-.035.035-.016.035-.035.016-.043.039-.051c.055-.02.199-.16.199-.191 0-.012.008-.023.023-.023a.35.35 0 0 0 .145-.137c0-.012.016-.023.035-.023s.035-.012.035-.023.031-.055.07-.09.07-.078.07-.094.012-.02.02-.016.059-.039.102-.09.09-.094.102-.098.02-.02.02-.031c0-.031.18-.25.195-.234.008.008.02-.012.027-.035s.027-.051.039-.051.031-.031.043-.066.035-.07.051-.07.023-.016.023-.035.016-.035.035-.035.043-.023.051-.055.023-.055.035-.047.027-.02.035-.059.031-.07.051-.07.031-.012.031-.027.039-.07.086-.121.082-.105.082-.129.016-.043.035-.051.035-.039.035-.074.016-.059.039-.059.035-.016.035-.031.008-.035.02-.035.035-.031.047-.07.035-.07.047-.07.035-.027.051-.062a1.03 1.03 0 0 1 .145-.234c.008-.008.016-.031.012-.055s.008-.039.023-.039.039-.027.047-.062.031-.07.047-.078c.027-.02.031-.027.035-.113.004-.023.02-.047.039-.047s.035-.016.035-.039.023-.062.047-.086.051-.066.051-.094.016-.062.035-.078.035-.055.035-.082.016-.059.035-.066.035-.039.035-.078.016-.082.035-.098.039-.055.039-.082.008-.051.02-.047c.02.012.031-.012.063-.129.004-.012.008-.035.008-.055s.016-.027.027-.02.027.004.027-.004.008-.047.012-.082.023-.086.043-.117.039-.078.039-.113c0-.043.012-.066.035-.066s.035-.023.035-.082c0-.043.016-.098.035-.117.031-.027.047-.094.039-.152-.004-.012.016-.047.039-.082s.047-.102.051-.152.02-.098.031-.105.031-.059.035-.113.031-.117.047-.133.031-.082.031-.156c0-.09.012-.125.035-.125.016 0 .031-.012.031-.027.008-.148.035-.309.059-.32.012-.008.031-.094.039-.187a.65.65 0 0 1 .043-.215c.023-.027.035-.113.035-.242s.012-.207.035-.238.035-.121.035-.363c0-.195.008-.32.023-.32s.023-.312.023-.898l-.023-.898c-.016 0-.023-.117-.023-.305 0-.227-.008-.316-.035-.352s-.035-.121-.039-.27c-.004-.16-.016-.227-.039-.234s-.031-.055-.031-.145-.012-.152-.039-.187c-.02-.027-.039-.117-.047-.191s-.023-.16-.043-.18-.035-.098-.043-.172-.023-.141-.039-.145-.027-.055-.027-.109-.012-.105-.027-.121-.035-.074-.047-.133-.035-.121-.055-.141-.031-.062-.027-.102-.008-.086-.039-.113c-.023-.027-.043-.078-.043-.113s-.016-.082-.035-.098-.035-.043-.035-.066-.02-.066-.039-.102-.035-.082-.035-.105-.02-.07-.047-.113-.043-.082-.043-.09c.008-.031-.031-.121-.055-.121-.012 0-.02-.027-.02-.059s-.02-.062-.039-.07-.035-.039-.035-.07-.02-.086-.047-.117-.047-.078-.047-.102-.012-.043-.023-.043-.023-.02-.023-.043-.023-.059-.051-.082-.047-.062-.047-.082-.016-.055-.035-.07-.035-.043-.035-.059-.023-.062-.051-.102-.043-.074-.035-.09-.004-.027-.027-.035-.047-.035-.047-.062-.02-.062-.039-.078-.055-.07-.086-.133-.062-.109-.074-.109-.027-.031-.035-.07-.031-.074-.051-.082-.031-.027-.031-.043-.012-.035-.023-.035-.031-.031-.047-.066-.035-.07-.047-.07-.027-.027-.035-.059A.33.33 0 0 0 21.953 5c-.078-.082-.102-.113-.102-.137 0-.016-.016-.027-.035-.027s-.035-.012-.035-.031c0-.055-.105-.195-.137-.187-.016.008-.031-.008-.031-.031s-.031-.078-.07-.117-.07-.09-.07-.105-.02-.031-.039-.031-.035-.012-.035-.027-.023-.051-.051-.078-.082-.086-.113-.125l-.113-.133c-.031-.031-.055-.066-.055-.078s-.016-.02-.035-.02-.039-.016-.039-.035-.016-.035-.035-.035-.035-.016-.035-.035-.016-.043-.035-.047-.035-.031-.035-.047-.008-.031-.02-.031-.062-.047-.117-.098l-.383-.363c-.008 0-.039-.031-.066-.07s-.055-.07-.062-.07-.094-.074-.191-.164l-.234-.199c-.098-.062-.168-.125-.152-.145.004-.008-.012-.012-.035-.004-.031.008-.051-.004-.062-.031s-.082-.09-.168-.145-.168-.117-.184-.137-.059-.051-.098-.066-.062-.039-.062-.051-.027-.023-.062-.023c-.051 0-.07-.023-.062-.074.004-.012-.012-.02-.031-.02s-.035-.008-.035-.02-.035-.031-.074-.047-.07-.035-.07-.047-.027-.023-.062-.023-.055-.012-.047-.023-.016-.027-.055-.035-.078-.027-.082-.047-.031-.035-.051-.035-.035-.008-.035-.023-.031-.035-.066-.051-.074-.039-.086-.055-.043-.031-.074-.031-.062-.016-.07-.035-.031-.035-.051-.035-.09-.035-.156-.078a.45.45 0 0 0-.152-.082c-.02 0-.039-.008-.039-.02s-.031-.027-.066-.039-.078-.027-.086-.047-.043-.031-.082-.031-.074-.016-.082-.035-.035-.035-.059-.035-.062-.02-.082-.039-.07-.047-.105-.047-.07-.016-.078-.027-.043-.027-.082-.039-.07-.027-.078-.043c-.012-.027-.039-.035-.137-.035-.023 0-.047-.016-.055-.035s-.051-.039-.102-.047-.105-.031-.133-.047-.07-.031-.102-.031-.062-.016-.07-.035-.043-.035-.082-.035-.102-.023-.141-.047c-.047-.035-.086-.047-.125-.035s-.07 0-.098-.027c-.02-.023-.066-.043-.098-.047s-.094-.02-.133-.039-.105-.035-.152-.035-.086-.012-.094-.035-.051-.035-.129-.035-.133-.012-.164-.043C15 .27 14.957.258 14.867.258c-.07.004-.137-.008-.16-.027s-.109-.035-.195-.039-.18-.027-.199-.043c-.023-.023-.098-.035-.207-.035-.121 0-.176-.008-.195-.031s-.09-.035-.277-.035c-.152 0-.25-.012-.25-.023S12.918 0 12.035 0l-1.348.023m2.039 1.023c.563.023 1.281.129 1.98.297l.465.125.238.074a2.79 2.79 0 0 1 .438.152c.039.02.078.031.094.031a.51.51 0 0 1 .098.031l.207.086c.195.074.75.332.918.422l.262.141.203.113a.39.39 0 0 0 .074.047c.051.02.285.172.734.473a2.19 2.19 0 0 1 .199.148l.234.18a9.98 9.98 0 0 1 1.234 1.137l.281.301c.031.027.391.484.547.699l.145.195c.016.012.043.051.059.082l.133.207.176.285.145.246c.078.129.324.617.418.828l.098.219c.082.176.289.75.348.945.008.039.039.141.066.23.055.176.098.355.203.852.238 1.109.242 2.926.008 3.883l-.055.254-.156.633-.066.23-.211.602c-.016.039-.031.082-.031.098s-.016.051-.035.086l-.086.191c-.094.238-.402.855-.535 1.074l-.105.191-.129.207-.16.246a2.92 2.92 0 0 1-.16.223l-.102.145c0 .02-.52.664-.633.785-.582.621-1.32 1.285-1.73 1.555l-.156.109c-.203.148-.551.367-.82.52l-.309.176c-.047.027-.695.336-.824.391-.281.125-.777.309-.93.348-.039.008-.098.027-.133.039-.055.023-.191.063-.535.156l-.301.07-.254.059c-.145.043-.707.125-1.27.184-.293.031-1.656.031-1.969 0l-.848-.105-.586-.117-.25-.055-.238-.059-.453-.137-.227-.07a3.19 3.19 0 0 1-.426-.16c-.035-.02-.082-.035-.102-.035-.066 0-.895-.387-1.195-.559l-.211-.109c-.023 0-.395-.234-.793-.5-.781-.52-1.664-1.34-2.281-2.117-.359-.445-.555-.723-.812-1.152a11.73 11.73 0 0 1-.621-1.184l-.098-.223c-.02-.039-.035-.082-.035-.098s-.016-.051-.031-.086c-.051-.094-.094-.211-.191-.527l-.191-.645-.121-.531-.047-.254c-.195-.93-.199-2.512-.012-3.488l.059-.301.156-.668.07-.258c.043-.164.266-.789.289-.812.012-.012.02-.035.02-.051s.016-.066.035-.105l.133-.297a11.07 11.07 0 0 1 .746-1.367c.219-.344.656-.93.922-1.23.324-.367 1.297-1.285 1.453-1.371.023-.012.047-.027.051-.035.016-.02.508-.375.66-.48.488-.32 1.164-.691 1.668-.906l.254-.109a.68.68 0 0 1 .137-.047c.023 0 .063-.02.238-.102a.39.39 0 0 1 .113-.035.39.39 0 0 0 .113-.035c.16-.066.762-.242 1.078-.312l.297-.066c.047-.012.141-.031.215-.039s.184-.027.25-.047.156-.031.203-.031.184-.016.301-.035c.246-.039 1.082-.078 1.43-.066l.57.02m2.734 9.648v.465l.051-.09c.105-.187.082-.844-.031-.844-.012 0-.02.211-.02.469m4.25-.047l-.051.523c-.031.172-.051.559-.027.484.012-.031.023-.121.023-.199s.016-.187.035-.25c.031-.105.082-.957.055-.957-.004 0-.02.18-.035.398"
          fill="rgb(97.647059%,43.137255%,29.411765%)"/>
    <path d="M10.617.023c0 .012.016.023.035.023s.035-.012.035-.023S10.672 0 10.652 0s-.035.012-.035.023m3.289.055c.039.043.105.051.094.008-.008-.016-.039-.031-.066-.035-.051-.008-.055-.004-.027.027M9.629.129c-.023.023-.02.055.012.055.012 0 .039-.016.063-.035.031-.031.027-.035-.012-.035-.023 0-.051.008-.062.016m4.684.02c.02.02.043.035.059.035s.031-.016.031-.035-.023-.035-.059-.035c-.051 0-.055.008-.031.035m.395.082c.043.027.074.035.082.02.012-.031-.004-.043-.086-.055l-.066-.012.07.047M8.953.277c-.031.012-.055.031-.055.043 0 .039.059.027.102-.02s.035-.055-.047-.023m6.055-.004c0 .008.02.027.047.043.039.023.047.023.047-.004 0-.016-.023-.035-.047-.043s-.047-.004-.047.004M8.66.375c0 .02.016.031.035.031s.039-.012.047-.031-.004-.031-.035-.031-.047.016-.047.031m-.277.07c-.027.039.012.043.066.008L8.5.418l-.055.004c-.027 0-.059.012-.062.023m7.195.004c.063.031.086.031.063-.012-.012-.012-.039-.023-.07-.023-.051.004-.051.004.008.035M8.172.516c-.027.02-.035.035-.02.047s.035 0 .047-.02.047-.035.078-.043L8.34.488h-.062c-.035-.004-.082.008-.105.027m7.641.02c.055.051.086.047.063-.008-.004-.02-.035-.035-.062-.039l-.051-.004.051.051M7.941.598c-.039.031-.047.047-.02.047.02 0 .055-.02.078-.047.051-.059.016-.059-.059 0m8.09-.004c.035.027.063.039.07.023.008-.027.004-.031-.07-.055l-.059-.016.059.047M7.746.66c-.023.023-.02.055.004.055.012 0 .027-.016.035-.035.016-.035-.012-.047-.039-.02m8.508.012c.004.02.027.035.055.039.039.008.039.004.012-.027-.039-.047-.082-.051-.066-.012M7.527.734c-.051.047.008.063.074.016.043-.031.043-.031-.012-.031-.027.004-.059.012-.062.016m8.898.012c.063.047.086.047.066.004-.008-.02-.035-.035-.062-.035-.047 0-.047 0-.004.031m-9.074.09c0 .035.004.039.012.012.008-.02.039-.043.074-.047.059-.008.059-.012-.012-.016s-.078.004-.074.051m9.254-.035c.02.008.043.027.055.043.023.039.063.039.063 0 0-.02-.023-.039-.051-.047-.07-.016-.117-.016-.066.004m-9.441.09c-.043.016-.039.055.004.055.02 0 .035-.016.035-.035s0-.035-.004-.031-.02.004-.035.012m-.199.09c0 .016.012.031.023.031S7.02.996 7.039.98c.023-.031.02-.035-.023-.035-.027 0-.051.016-.051.035m9.996-.02a.14.14 0 0 1 .055.039c.02.031.051 0 .031-.031-.008-.012-.039-.023-.066-.023-.039.004-.043.008-.02.016m-10.16.09c0 .027.008.027.051.008.082-.039.082-.047.012-.047-.043 0-.062.016-.062.039m-.156.07c-.02.051.02.051.078.004l.059-.043-.062.004c-.035.004-.066.02-.074.035m10.625-.023c.027.008.059.027.066.043s.023.035.035.035.012-.02-.004-.047-.047-.047-.09-.043c-.059.004-.059.004-.008.012m-10.934.18c-.008.02-.004.035.008.035s.035-.016.051-.035c.023-.027.023-.035-.008-.035-.02 0-.043.016-.051.035m11.27-.016a.14.14 0 0 1 .055.039c.012.016.016.008.016-.016s-.016-.039-.051-.039-.043.004-.02.016m-11.418.082c-.012.02-.035.039-.055.043-.031.012-.031.016 0 .016.023.004.066-.016.098-.043.047-.035.047-.047.016-.047-.023 0-.051.016-.059.031M17.75 1.32c0 .008.016.023.035.039.031.023.035.023.035-.008 0-.023-.016-.039-.035-.039s-.035.004-.035.008m.152.109c.07.055.113.043.063-.012-.016-.02-.051-.035-.078-.035-.043 0-.043.004.016.047m.148.078c.016.043.09.051.074.008-.004-.016-.027-.031-.051-.039s-.035.004-.023.031m-12.254.059c0 .027.027.027.07 0 .031-.02.027-.023-.016-.023-.031 0-.055.012-.055.023m-.129.082c-.02.02-.051.031-.07.031s-.039.012-.039.023c0 .031.008.031.082 0 .031-.016.063-.043.07-.059.016-.043.004-.039-.043.004m12.648.008c.027.02.063.047.086.055s.039.023.039.039.031.027.07.035.066.023.059.035 0 .023.012.023.027-.016.027-.035-.02-.035-.047-.035-.062-.02-.086-.047-.055-.047-.07-.047-.039-.012-.047-.031-.027-.035-.047-.035c-.031 0-.031.008.004.043m-12.91.152c-.008.02-.004.035.008.035s.031-.016.051-.035c.023-.027.02-.035-.008-.035-.02 0-.043.016-.051.035m13.277.059c.008.016.023.035.043.039s.027 0 .02-.02-.023-.035-.039-.039-.027.004-.023.02m-13.492.059c-.027.031-.016.078.02.063.047-.016.066-.078.027-.078-.016 0-.035.008-.047.016m-.324.25c0 .02-.023.035-.047.035-.035 0-.047.016-.047.051s.008.043.016.012c.004-.02.02-.039.035-.039s.051-.02.082-.047c.059-.043.059-.047.012-.047-.031 0-.051.016-.051.035m14.387.105c.082.07.117.082.117.051s-.133-.121-.172-.121c-.016 0 .008.031.055.07M4.66 2.324c-.023.027-.055.047-.074.047s-.031.016-.031.035-.02.035-.047.035-.047.012-.047.027-.02.039-.043.059c-.035.027-.035.031.012.008.031-.016.055-.035.055-.047s.016-.023.031-.023.055-.02.078-.047.055-.047.07-.047c.031 0 .07-.066.051-.086-.008-.004-.031.012-.055.039m14.863.148l.016.051c0 .008.012.012.031.012s.066.031.109.07.086.063.094.055c.02-.016-.117-.137-.16-.141-.02-.004-.051-.023-.07-.047-.031-.039-.035-.039-.02 0m-15.27.164c-.008.02-.027.035-.047.035s-.039.016-.047.035-.027.035-.047.035-.035.016-.035.035-.016.031-.035.031-.035.02-.035.043.008.031.02.016c.031-.043.238-.195.266-.195.012 0 .023-.016.023-.035s-.008-.035-.023-.035-.031.016-.039.035m15.809.277c.055.066.117.125.137.125.012 0 .039.031.066.07s.059.07.066.07c.02 0 .098.074.383.363.055.051.105.098.117.098s.02.012.02.031.016.039.035.047c.07.023.035-.031-.121-.184a1.05 1.05 0 0 1-.152-.172c0-.012-.016-.023-.035-.023s-.039-.016-.039-.035-.008-.035-.023-.035a.9.9 0 0 1-.176-.148l-.172-.148c-.012 0-.047-.023-.078-.055-.047-.039-.055-.039-.027-.004M3.23 3.605c-.008.02-.031.035-.047.035s-.035.008-.035.023c0 .035.086-.016.105-.059.008-.02.008-.035 0-.035s-.016.016-.023.035m-.32.297c0 .016-.016.039-.035.047a.05.05 0 0 0-.035.043c0 .02-.016.039-.035.047s-.039.023-.039.039.02.023.039.023.035-.012.035-.027.016-.043.035-.062c.145-.152.137-.141.082-.141-.023 0-.047.012-.047.031m18.266.141c.008.02.023.035.035.035s.023-.016.023-.035-.016-.035-.035-.035-.031.016-.023.035m.09.094c.023.02.039.047.039.055s.02.035.047.047.047.016.047.004a.3.3 0 0 0-.137-.141c-.023 0-.023.008.004.035M2.602 4.27c0 .02-.016.039-.035.047s-.039.027-.039.047a.05.05 0 0 1-.035.043c-.02.008-.035.027-.035.039s.016.023.035.023.035-.012.035-.023c0-.027.098-.164.133-.187.012-.012.004-.02-.02-.02s-.039.016-.039.031m18.918.176c.016.027.043.055.063.063s.031.039.031.07.012.047.023.043c.031-.02-.02-.152-.059-.152-.02 0-.035-.016-.035-.035s-.012-.035-.023-.035c-.02 0-.016.016 0 .047m-19.211.176c-.012.008-.02.031-.02.051 0 .027.008.031.027.012s.023-.039.02-.055-.02-.016-.027-.008m19.473.18c0 .02.016.035.039.035s.031-.012.027-.027c-.016-.043-.066-.047-.066-.008m-19.656.121c-.039.016-.074.055-.074.082s.09-.023.105-.062c.008-.02.012-.035.008-.031s-.02.008-.039.012m19.777.008c0 .012.02.043.043.066s.051.059.059.074.012.012.016-.02S22.004 5 21.984 5s-.035-.016-.035-.035-.012-.039-.023-.047-.023-.004-.023.012M1.98 5.102c0 .016-.016.035-.035.043s-.035.031-.035.051c0 .055.047.039.07-.027.016-.035.039-.074.055-.082s.016-.016-.012-.02-.043.016-.043.035m20.125.16c.008.02.023.035.035.035s.023-.016.023-.035-.016-.031-.035-.031-.031.012-.023.031m-20.34.148c-.035.063-.031.082.008.051.02-.012.039-.016.047-.008s.016-.008.016-.035c0-.062-.035-.066-.07-.008m20.477.035c.012.047.039.086.055.094.043.016.043-.043-.004-.078-.02-.016-.035-.043-.035-.062s-.008-.031-.02-.031-.012.035.004.078m-20.547.082c-.016.012-.027.027-.023.043s.031 0 .055-.023c.047-.043.027-.055-.031-.02m20.66.117c.012.023.027.047.035.047s.012-.023.012-.047-.016-.047-.039-.047-.031.008-.008.047m.074.117c.02.02.043.047.051.066s.012.008.012-.023-.023-.059-.055-.066c-.043-.004-.043-.004-.008.023m-20.887.012c-.027.027-.02.055.02.055.02 0 .035-.016.035-.035 0-.035-.027-.047-.055-.02m-.082.141c-.016.004-.027.031-.027.059 0 .051 0 .051.027.004a.49.49 0 0 1 .051-.062c.031-.02-.004-.02-.051 0m21.082.047c0 .012.023.047.047.078l.047.055.004-.051c0-.027-.023-.062-.047-.078s-.051-.016-.051-.004m-21.168.09c-.023.023-.016.105.008.09.016-.012.02-.027.012-.039s-.004-.02.012-.02.023-.012.023-.023c0-.027-.031-.031-.055-.008m21.266.098c0 .012.016.031.035.047.031.023.035.023.035-.02 0-.027-.016-.047-.035-.047s-.035.008-.035.02m-21.352.086c0 .039.051.031.066-.012.004-.016-.008-.027-.031-.027s-.035.02-.035.039m21.422.051c0 .012.023.039.051.063.051.043.051.043.039.004-.012-.023-.016-.055-.016-.066s-.02-.02-.039-.02-.035.008-.035.02m-21.496.086c0 .031.008.035.039.008.02-.016.035-.031.035-.035s-.016-.008-.035-.008-.039.016-.039.035m21.594.078c0 .012.008.023.023.023s.023.02.023.043c0 .059.094.172.094.113 0-.02-.016-.047-.031-.059s-.039-.043-.043-.074c-.008-.055-.066-.098-.066-.047m-21.68.109c-.004.035 0 .047.008.031s.031-.051.051-.066c.035-.023.031-.027-.008-.027s-.051.016-.051.063m-.062.09c-.008.008-.016.039-.016.066 0 .047 0 .047.035 0 .051-.062.035-.117-.02-.066m-.074.164c-.027.027-.016.074.023.059a.05.05 0 0 0 .035-.043c0-.035-.031-.043-.059-.016m-.07.211c-.059.059-.047.082.012.023.027-.027.043-.051.039-.059S.945 7 .922 7.023m22.172.035c0 .008.02.047.047.086.039.063.047.066.047.031a.12.12 0 0 0-.047-.086c-.027-.023-.047-.035-.047-.031M.832 7.168c0 .004-.004.043-.008.09s-.004.059.004.031.027-.062.051-.086c.031-.035.031-.039-.004-.039-.023 0-.039.004-.043.004m22.43.313c0 .012.016.039.039.055.031.027.035.023.027-.012-.008-.047-.066-.082-.066-.043M.668 7.617c0 .059 0 .063.035.02.047-.059.047-.082 0-.082-.023 0-.035.023-.035.063m22.707.121a.28.28 0 0 0 .043.047c.004 0 0-.02-.008-.047s-.027-.043-.043-.043c-.027 0-.023.008.008.043m-22.77.066a.42.42 0 0 1-.027.059c-.008.012.012.008.039-.008s.051-.039.051-.059c0-.047-.047-.043-.062.008m22.797.094c0 .012.016.035.031.055s.039.043.047.063c.012.027.016.023.016-.012.004-.027-.02-.063-.043-.086s-.051-.031-.051-.02M.543 7.996c-.051.027-.059.117-.008.098.02-.008.031-.023.023-.031s.004-.023.016-.027.023-.02.02-.035-.023-.02-.051-.004m22.98.203c.012.027.031.047.035.047s.012-.02.012-.047-.016-.043-.035-.043c-.031 0-.031.008-.012.043m-23.07.105c-.016.016-.023.047-.016.063s.012.016.016-.008.012-.043.031-.051.023-.016.016-.023-.031 0-.047.02m-.094.254c0 .043.051.035.066-.008.004-.016-.008-.027-.031-.027s-.035.016-.035.035m23.281.164c0 .016.016.039.035.055s.039.055.043.086c.012.059.012.059.016-.008 0-.047-.016-.086-.043-.113s-.051-.031-.051-.02M.285 8.855c0 .023.016.031.035.023s.039-.023.039-.035-.02-.02-.039-.02-.035.012-.035.031m23.445.219c.039.102.078.129.078.055 0-.051-.012-.074-.047-.082s-.043-.004-.031.027M.227 9.188c-.012.008-.027.043-.031.074-.004.055-.004.055.023.012.016-.027.039-.055.051-.062s.012-.02 0-.027-.031-.004-.043.004m23.586.258c.008.016.027.035.043.043s.027-.004.02-.023-.023-.035-.039-.039-.027.004-.023.02M.121 9.645c0 .063 0 .063.035.02.043-.055.043-.082 0-.082-.023 0-.035.023-.035.063m23.762.266c0 .078.07.121.07.047 0-.051-.012-.074-.035-.074s-.035.012-.035.027m-23.805.195c-.016.008-.031.043-.031.082 0 .074 0 .074.039.023.043-.059.035-.121-.008-.105m16.348.078c-.027.008-.086.02-.133.02s-.109.02-.141.039c-.043.031-.109.039-.289.039s-.242-.008-.285-.039c-.086-.055-.133-.047-.074.012.102.102.105.641.008.82-.031.055-.043.098-.031.098s.035-.02.047-.043c.066-.113.309-.145.422-.055.137.113.164.277.098.652l-.18.887-.219.641c-.012.016-.023.039-.023.055s-.039.109-.082.207a5.49 5.49 0 0 1-2.187 2.453c-.074.047-.145.086-.16.086s-.039.016-.055.031c-.039.035-.207.121-.52.266a5.94 5.94 0 0 1-1.336.414c-.715.137-2.922.141-3.84.008l-.359-.051a9.85 9.85 0 0 1-1.359-.285c-1.184-.34-1.426-.039-.441.539l.355.219.309.188.18.105c.215.133 1.043.527 1.105.527.02 0 .043.008.055.02s.063.031.105.043l.348.117c.066.031.426.129.762.211.27.063.633.121 1.145.184.238.027 1.395.027 1.625 0l.379-.047c.582-.07 1.582-.328 1.93-.496.039-.02.078-.031.094-.031s.102-.035.195-.078l.355-.164c.105-.047.27-.133.367-.187l.184-.102c.008 0 .059-.031.113-.066l.246-.156c.523-.332 1.109-.812 1.527-1.254l.25-.262c.047-.051.195-.234.332-.406l.262-.332.09-.137.105-.164c.18-.266.535-.914.668-1.219l.117-.289.07-.184c.031-.07.066-.176.086-.23l.07-.23.227-.883c.082-.434.645-.477.645-.047 0 .172.02.105.039-.121l.039-.344a9.23 9.23 0 0 0 .051-.531l.027-.391-.086.039-.207.113-.078.035c-.059.02-.195.078-.27.113-.039.02-.082.035-.098.035s-.066.02-.117.047-.117.043-.152.047-.086.016-.113.031-.094.035-.148.035-.145.016-.191.035-.16.035-.27.035c-.102 0-.23-.016-.285-.035s-.125-.035-.156-.035-.066-.016-.082-.035-.051-.035-.078-.035-.141-.094-.273-.223c-.273-.27-.496-.348-.711-.258m7.527.426c0 .016.012.031.023.031s.023-.016.023-.031-.012-.035-.023-.035-.023.016-.023.035M0 11.125c0 .027.012.047.023.047s.023-.02.023-.047-.012-.043-.023-.043-.023.02-.023.043m19.461 1.168c-.012.008-.016.031-.016.051 0 .027.004.027.023.012s.023-.039.02-.055-.02-.02-.027-.008m4.492.191c0 .027.012.047.023.047s.023-.02.023-.047-.012-.047-.023-.047-.023.023-.023.047m-23.906.43c0 .043.012.082.027.09.047.027.051-.012.012-.086l-.039-.074v.07m23.859.223c-.02.035-.027.07-.016.078.027.027.066-.031.059-.086s-.008-.051-.043.008m-23.785.336c0 .023.016.051.035.059s.035-.004.035-.031-.016-.047-.035-.055-.035 0-.035.027m23.715.145c-.016.023-.023.055-.016.063.023.02.066-.035.059-.074-.008-.031-.016-.031-.043.012m-23.645.211c0 .063.008.086.035.086s.031-.012.023-.027a.53.53 0 0 1-.035-.086c-.02-.055-.02-.055-.023.027m23.598.125c-.004.027-.016.051-.027.051s-.023.016-.023.035c0 .047.043.047.063.004a.16.16 0 0 0 0-.086l-.008-.055-.004.051m-23.52.246a.16.16 0 0 1 .016.063c0 .012.016.02.035.02.055 0 .047-.051-.012-.09-.047-.027-.051-.023-.039.008m23.438.059c-.004.039 0 .07.012.07s.02-.031.02-.07-.004-.066-.012-.066-.012.031-.02.066m-23.348.273c0 .031.012.051.039.051s.031-.008.004-.039c-.016-.023-.035-.047-.039-.051s-.004.012-.004.039m.07.23c0 .031.012.051.043.051.023 0 .031-.008.016-.02s-.035-.031-.043-.051-.012-.016-.016.02m23.121.078c-.004.023-.016.043-.027.043s-.023.016-.023.031.012.035.023.035c.031 0 .055-.055.039-.105-.008-.039-.012-.039-.012-.004M.5 15.004c0 .059.027.109.063.109.047 0 .043-.039-.016-.094C.516 14.984.5 14.98.5 15.004m22.945.137c-.055.082-.051.098.008.043.027-.023.047-.059.043-.074s-.027-.004-.051.031m-22.871.074c0 .035.051.125.07.125.039 0 .027-.055-.023-.098-.027-.02-.047-.035-.047-.027m22.828.074c0 .027-.016.066-.035.086-.035.031-.035.035-.004.035a.15.15 0 0 0 .055-.156c-.008-.004-.016.008-.016.035M.668 15.5c0 .023.016.051.035.059s.035-.004.035-.031-.016-.047-.035-.055-.035 0-.035.027m22.594.109c0 .02.012.031.027.027.043-.016.051-.066.008-.066-.02 0-.035.02-.035.039m-.043.148c-.02.027-.02.043-.004.043s.031-.016.039-.035c.02-.055-.004-.059-.035-.008m-22.406.086c0 .047.012.082.035.09.055.02.074-.012.031-.047-.023-.016-.043-.047-.051-.074s-.012-.016-.016.031m22.352.098c0 .016-.008.02-.02.012s-.027.008-.035.035c-.008.035-.004.039.035.02s.066-.09.031-.09c-.004 0-.012.012-.012.023m-22.281.082c0 .035.043.086.066.074.012-.004.004-.027-.023-.051s-.043-.035-.043-.023m22.203.063c-.027.066-.02.098.008.07.016-.016.023-.047.02-.07-.008-.039-.012-.039-.027 0m-22.109.152c0 .012.02.031.039.047.027.023.035.023.035-.004 0-.02-.016-.043-.035-.051s-.039-.004-.039.008m.074.156c0 .027.012.059.023.066.047.027.055-.008.016-.062l-.039-.055v.051m21.859.07c-.02.004-.031.027-.031.047 0 .035.004.035.039 0 .043-.043.039-.066-.008-.047m-21.781.098c0 .027.02.047.047.047.039 0 .039-.004 0-.047l-.047-.047c-.004 0-.004.023 0 .047m21.703.055c-.016.023-.023.047-.016.055.023.02.07-.031.059-.062-.008-.02-.02-.016-.043.008m-21.613.113c0 .02.016.039.035.039s.035-.012.035-.023-.012-.02-.023-.012-.027 0-.031-.016-.016-.012-.016.012m21.527.063c-.035.039-.035.047-.004.047.02 0 .043-.023.047-.047s.012-.047.008-.047-.027.023-.051.047m-21.457.074c0 .02.016.043.035.051s.035.004.035-.008-.016-.031-.035-.047c-.031-.023-.035-.023-.035.004m21.352.074c0 .02.016.035.035.035s.035-.016.035-.035-.016-.035-.035-.035-.035.016-.035.035m-21.281.07c0 .02.023.043.051.059.047.023.047.023.008-.035-.047-.066-.059-.07-.059-.023m21.242.051c-.016.012-.035.047-.047.082s-.031.066-.055.07c-.035.008-.035.012 0 .012.023.004.059-.035.09-.09l.043-.09c-.004 0-.016.008-.031.016m-21.16.086c.008.023.016.043.016.051s.016.008.035.008c.051 0 .043-.031-.016-.066-.047-.027-.051-.023-.035.008m21 .188c-.012.023-.004.035.012.027.035-.012.055-.062.023-.062-.012 0-.027.016-.035.035m-.086.137c-.027.027-.023.035.008.035.02 0 .039-.016.039-.035s-.004-.035-.008-.035-.023.016-.039.035m-20.684.055c0 .023.012.055.027.066s.043.035.055.063c.031.051.082.074.082.035 0-.012-.016-.023-.035-.023s-.035-.016-.035-.035-.023-.062-.047-.098c-.047-.055-.047-.055-.047-.008m20.609.07c-.051.047-.082.141-.047.141.012 0 .023-.023.023-.047s.012-.047.023-.047c.02 0 .059-.07.043-.082-.004 0-.023.012-.043.035m-.191.258c0 .055.059.047.07-.012.004-.023-.008-.039-.031-.039s-.039.023-.039.051m-20.18.055c0 .02.016.043.035.051s.035.027.035.047.004.031.012.023.008-.039 0-.07c-.02-.066-.082-.105-.082-.051m20.063.168c-.086.09-.102.121-.074.121.016 0 .035-.023.043-.047s.027-.047.047-.047.031-.016.031-.035c0-.043-.004-.039-.047.008m-19.922 0c0 .047.031.098.074.121.059.031.059.023-.012-.07-.035-.043-.062-.066-.062-.051m19.719.258c-.008.039-.027.063-.039.059s-.02-.004-.02.008c0 .043.051.027.063-.02.008-.023.027-.051.047-.055.043-.016.043-.062 0-.062-.02 0-.043.031-.051.07m-19.48.102c0 .02.02.043.039.051.055.023.059.004.008-.047-.043-.039-.047-.039-.047-.004m19.324.09c0 .02-.016.039-.035.047-.047.02-.047.063 0 .063.035 0 .078-.105.051-.133-.008-.008-.016.004-.016.023M2.5 18.664c.016.016.027.047.027.07s.02.047.039.055.035.027.035.047.008.031.02.031.016-.027 0-.07-.035-.062-.043-.059-.027-.012-.035-.047-.027-.055-.043-.055c-.023 0-.023.004 0 .027m18.805.25c-.043.051-.07.098-.062.105.016.02.086-.035.086-.066 0-.016.02-.043.039-.066s.035-.051.027-.055-.047.031-.09.082m-18.465.18c0 .035.109.141.141.141.023 0 .016-.012-.016-.035s-.055-.051-.055-.066a.05.05 0 0 0-.035-.043c-.02-.008-.035-.008-.035.004m.141.188c0 .027.07.059.09.039.004-.008-.012-.023-.039-.039-.035-.016-.051-.016-.051 0m.246.219c.004.027.027.047.055.051.035.004.035 0 .008-.008s-.047-.027-.055-.051-.008-.027-.008.008m17.477.082c-.016.023-.043.043-.062.043s-.027.012-.027.023c0 .031-.145.172-.199.191-.023.008-.039.031-.039.051s-.016.035-.035.035-.039.016-.039.035-.016.035-.035.035-.035.016-.035.035c0 .047.039.02.184-.121.043-.043.09-.078.102-.078s.023-.016.023-.031.02-.035.039-.035.035-.012.035-.023.035-.059.082-.105c.09-.09.098-.102.059-.102-.012 0-.035.02-.051.047m-17.164.219c.004.023.023.047.051.047.035.004.039.004.008-.004-.023-.008-.047-.031-.051-.051-.012-.027-.012-.027-.008.008m.305.297c.004.02.02.035.031.035s.031.012.039.027.023.02.023.008-.023-.043-.051-.066c-.043-.035-.047-.035-.043-.004m.133.121c.02.004.031.023.031.043s.016.031.035.031.035.016.035.035.02.035.039.035c.027 0 .031-.008.004-.047-.016-.023-.043-.047-.059-.047s-.031-.016-.039-.031-.027-.035-.043-.035c-.027.004-.027.004-.004.016m.199.176c0 .035.113.074.137.051.008-.008-.004-.012-.023-.012s-.043-.016-.051-.035c-.02-.043-.062-.047-.062-.004m15.621.012c-.059.063-.137.117-.16.117-.012 0-.027.016-.035.035s0 .035.023.035.039-.016.047-.035.031-.035.047-.035.035-.012.035-.031.02-.035.047-.043.047-.027.047-.051c0-.043 0-.043-.051.008m-15.246.281c.008.035.102.082.102.047 0-.027-.035-.062-.074-.078-.031-.008-.035-.004-.027.031m14.895.012c0 .016-.02.031-.043.031s-.078.035-.121.07c-.078.074-.109.129-.031.063.023-.023.059-.039.082-.039s.039-.016.039-.031.023-.039.047-.043c.043-.012.074-.086.039-.086-.008 0-.012.016-.012.035m-.453.313c-.031.023-.043.043-.023.043.051 0 .102-.039.09-.066-.004-.012-.031-.004-.066.023m-13.98.023c0 .012.012.02.031.02s.039.016.047.035.027.035.039.035c.02 0 .02-.016 0-.043-.023-.047-.117-.086-.117-.047m.164.109c0 .012.02.027.039.035.066.023.086.016.051-.02-.043-.039-.09-.047-.09-.016m.238.141c0 .012.023.031.047.043.039.023.043.02.031-.02-.012-.047-.078-.066-.078-.023m13.137.027c-.043.035-.043.043-.004.043.02 0 .047-.016.055-.035.02-.055 0-.059-.051-.008m-12.992.074c0 .02.02.035.051.035.043 0 .043-.004.012-.035-.02-.016-.043-.031-.051-.031s-.012.016-.012.031m12.75.063c-.008.012-.008.027-.004.035.02.016.066-.012.066-.039s-.043-.027-.062.004m-12.512.078c0 .02.02.035.039.035.031 0 .035-.008.008-.035-.016-.02-.031-.035-.039-.035s-.008.016-.008.035m.145.07c0 .02.016.039.035.047.055.02.059.004.008-.043-.039-.035-.043-.035-.043-.004m12.109-.004c-.004.016-.043.039-.082.047-.074.016-.125.082-.062.082.02 0 .043-.016.051-.035s.031-.035.055-.035c.039 0 .086-.062.063-.082-.004-.008-.016.004-.023.023m-11.848.164c.016.02.039.035.051.035s.012-.016.004-.035-.027-.035-.047-.035c-.031 0-.031.008-.008.035m11.57 0c-.023.027-.023.035.008.035.023 0 .039-.016.039-.035s-.004-.035-.008-.035-.023.016-.039.035m-11.426.066c0 .016.02.035.043.043.035.008.043 0 .031-.031-.012-.051-.074-.059-.074-.012m11.277.016c-.023.023-.031.043-.02.043.023 0 .082-.066.07-.078s-.031.008-.051.035m-11.137.055c0 .016.02.035.039.043.066.027.082.016.039-.031-.047-.055-.078-.059-.078-.012m11-.004c-.016.02-.059.039-.098.047-.047.008-.07.027-.07.055 0 .039.004.039.031 0 .02-.02.059-.039.094-.039s.063-.016.074-.047c.012-.055.008-.059-.031-.016m-10.832.098c0 .02.016.035.035.035s.035-.012.035-.023-.016-.023-.035-.031-.035 0-.035.02m.148.066c.008.012.031.027.055.031s.035 0 .016-.008-.023-.023-.016-.031-.008-.016-.027-.016-.031.008-.027.023m.199.082c.047.051.066.051.043-.008-.008-.02-.031-.039-.051-.039-.031 0-.031.008.008.047m9.816.066c-.035.031-.043.051-.023.051.051-.004.102-.039.09-.07-.004-.016-.027-.012-.066.02m-9.473.082c0 .023.023.035.051.035.043 0 .047-.004.02-.035-.016-.016-.039-.031-.051-.031s-.02.016-.02.031m9.258.004c-.059.031-.059.031-.008.031.027 0 .055-.016.063-.035s.012-.031.008-.031-.031.016-.062.035m-9.066.066c.016.02.039.035.051.035s.012-.016.004-.035-.027-.035-.047-.035c-.031 0-.031.008-.008.035m8.898 0c-.059.031-.059.035-.008.035.027 0 .059-.012.066-.023.027-.039.004-.043-.059-.012m-8.707.059c0 .012.02.031.047.047.047.023.051.02.023-.023s-.07-.062-.07-.023m.23.09c.008.027.027.047.047.047.027 0 .027-.008.008-.047-.016-.023-.035-.043-.047-.043s-.016.02-.008.043m8.074-.016c-.039.039-.035.063.02.047s.086-.074.039-.074c-.016 0-.043.012-.059.027m-.246.102c-.027.031-.023.035.016.027.023-.004.047-.02.055-.035.012-.043-.031-.035-.07.008m-.234.066c-.023.027-.023.035.02.035.023 0 .055-.016.063-.035s0-.035-.02-.035-.047.016-.062.035m-6.891.063c.008.016.023.031.039.035s.023-.004.016-.027c-.02-.043-.066-.051-.055-.008m6.621.008c-.031.031-.016.055.02.039.02-.004.035-.02.035-.031 0-.023-.031-.027-.055-.008m-.223.055c-.055.023-.098.07-.062.07.016 0 .051-.02.082-.047.063-.047.059-.051-.02-.023m-6.09.023c.008.02.047.035.094.039.059.004.066 0 .023-.008a.26.26 0 0 1-.094-.039c-.027-.02-.031-.02-.023.008m.313.074c.008.016.031.035.055.039.039.008.043.004.016-.031-.039-.043-.082-.047-.07-.008m5.363.008l-.059.031.063.004c.043 0 .066-.012.066-.035s0-.035-.004-.031-.035.016-.066.031m-4.98.063c.012.031.066.051.066.023 0-.016-.02-.031-.039-.039s-.035-.004-.027.016m4.656-.004c-.008.012-.008.031 0 .035.02.02.086-.008.086-.035s-.066-.031-.086 0m-4.258.066c0 .012.016.023.035.023s.039-.012.039-.023-.016-.023-.039-.023-.035.012-.035.023"
          fill="rgb(88.627451%,30.196078%,22.745098%)"/>
    <path d="M14.172 3.895c-.215.027-.27.094-.258.289.016.246.082.273.691.293.281.012.457.027.527.051.055.02.125.031.16.035s.082.012.105.031a.76.76 0 0 0 .113.047c.102.023.426.176.426.199 0 .012.008.02.023.02.113 0 .625.512.762.762.129.234.238.469.238.5 0 .012.016.055.035.09a.31.31 0 0 1 .039.109c0 .023.012.063.023.09s.035.098.047.164l.043.211c.043.16.082.473.094.75l.012.27-.078.039c-.043.023-.133.047-.199.059-.121.016-.258.059-.324.094a.59.59 0 0 1-.07.035c-.082.027-.254.113-.281.141-.02.016-.051.027-.07.027s-.039.016-.047.035-.023.035-.039.035c-.027 0-.52.469-.52.492a.75.75 0 0 1-.121.176c-.016.012-.051.078-.137.246l-.094.18a.97.97 0 0 0 .012.566c.168.301.539.438.848.313.07-.027.207-.059.434-.102a.63.63 0 0 1 .438.164c.277.285.488.43.625.43.023 0 .109.016.184.035.172.043.297.043.449 0 .063-.02.152-.035.203-.035s.109-.016.145-.035.078-.031.105-.031c.063-.004.363-.117.543-.203.035-.016.078-.031.098-.031s.047-.016.063-.031.047-.035.063-.035c.078 0 .391-.266.391-.328 0-.016.02-.047.043-.07.055-.059.055-.473-.004-.559-.02-.031-.039-.07-.039-.086 0-.039-.168-.367-.207-.406-.016-.016-.031-.039-.031-.055 0-.031-.215-.293-.328-.406-.195-.187-.547-.418-.637-.418-.016 0-.043-.016-.059-.035s-.055-.035-.082-.035-.074-.012-.098-.031a.6.6 0 0 0-.176-.043c-.074-.008-.141-.027-.156-.039s-.062-.023-.113-.023c-.145 0-.152-.016-.184-.508l-.062-.539c-.02-.051-.039-.145-.047-.207s-.023-.145-.035-.184-.047-.148-.074-.242l-.086-.246a.34.34 0 0 1-.031-.109c0-.016-.02-.047-.039-.062s-.035-.043-.035-.059c0-.191-.832-1.23-.988-1.23-.016 0-.148-.09-.199-.133-.016-.016-.047-.027-.062-.027s-.043-.016-.062-.035-.047-.035-.066-.035-.055-.012-.07-.027c-.027-.027-.141-.07-.293-.113a.64.64 0 0 1-.109-.047c-.012-.012-.078-.027-.141-.035s-.137-.023-.164-.035c-.043-.023-.297-.047-.73-.074-.098-.004-.246 0-.332.012m4.043 4.637c.316.109.637.32.766.504l.082.109c.031.023.184.297.199.348.012.031.027.078.043.105.043.086-.137.238-.277.238-.016 0-.043.016-.062.035s-.051.035-.074.035-.078.012-.113.031a1.48 1.48 0 0 1-.371.121c-.055.008-.129.027-.172.047-.215.086-.543.016-.684-.145s-.266-.262-.375-.312c-.059-.023-.137-.062-.176-.082a2.38 2.38 0 0 0-.848 0c-.32.156-.348.051-.09-.348.184-.277.719-.668.922-.672a.27.27 0 0 0 .098-.035 4.12 4.12 0 0 1 1.133.02m-2.656 2.586c-.055.066-.074.113-.086.227-.027.262-.09.645-.121.762a.86.86 0 0 0-.035.184c0 .031-.012.082-.023.105s-.035.09-.047.141a2.44 2.44 0 0 1-.137.402c-.016.039-.031.082-.031.098s-.016.051-.035.086l-.398.746c-.012 0-.02.012-.02.023 0 .027-.109.18-.32.449-.156.203-.652.684-.809.785l-.113.086c-.012.012-.039.031-.066.047l-.187.117-.176.109-.105.063c-.074.047-.355.184-.586.285a4.18 4.18 0 0 1-.668.227c-.059.012-.141.039-.184.059a.51.51 0 0 1-.141.031 2.03 2.03 0 0 0-.219.031c-.395.082-2.824.09-3.277.012l-.375-.043-.316-.043c-.043-.012-.156-.035-.246-.051-.32-.047-.645-.121-.93-.203-.59-.176-1.152-.215-1.375-.102-.168.086-.309.191-.309.23 0 .008-.016.031-.031.051a.75.75 0 0 0-.121.395c0 .371.25.676.852 1.047l.543.336.086.051.555.316c.059.031.355.172.563.262l.262.117a.71.71 0 0 0 .137.047c.039.008.074.027.082.035s.027.023.051.023.082.02.133.043c.137.059.27.105.398.137l.238.063.488.121c.938.227 2.699.289 3.363.121a1.07 1.07 0 0 1 .191-.023c.051 0 .145-.016.211-.035l.254-.059.398-.098c.012-.008.07-.023.129-.031a.35.35 0 0 0 .129-.035c.016-.008.07-.027.121-.039.121-.027.234-.066.359-.121a.51.51 0 0 1 .137-.043c.02 0 .043-.012.051-.023a.21.21 0 0 1 .078-.035c.074-.016.086-.02.555-.242l.488-.242.203-.109c.031-.016.07-.039.086-.051s.09-.059.164-.105a4.93 4.93 0 0 0 .305-.199l.184-.121c.008 0 .047-.031.086-.066s.145-.117.238-.187a9.76 9.76 0 0 0 1.707-1.75c.02-.031.043-.066.059-.078l.094-.129.086-.117c.008-.008.023-.035.031-.062s.027-.051.039-.051.023-.012.023-.023a.48.48 0 0 1 .078-.133l.133-.215.148-.266.105-.195a.37.37 0 0 1 .039-.066.59.59 0 0 0 .035-.07c.008-.02.051-.109.094-.199s.082-.176.082-.187.016-.055.035-.09.051-.113.074-.168.055-.137.07-.172a4.37 4.37 0 0 0 .129-.371l.047-.137.059-.195.074-.242.059-.242.047-.219c.094-.348-.008-.566-.262-.562-.191 0-.285.098-.332.336a8.97 8.97 0 0 1-.227.883l-.07.23-.086.23-.07.184c-.016.051-.062.168-.117.289-.133.305-.488.953-.668 1.219l-.105.164-.09.137c-.012.012-.129.164-.262.332l-.332.406-.25.262c-.418.441-1.004.922-1.527 1.254l-.246.156-.113.066a2.89 2.89 0 0 0-.184.102l-.359.184-.355.164-.203.082c-.016 0-.055.012-.094.031-.098.047-.324.125-.617.211a7.98 7.98 0 0 1-1.312.285l-.379.047c-.23.027-1.387.027-1.625 0-.727-.086-.957-.129-1.656-.316-.219-.059-.629-.191-.695-.227-.035-.02-.074-.031-.09-.031-.043 0-.59-.254-.824-.379l-.203-.109c-.156-.082-.477-.273-.574-.344L5.309 17c-.547-.312-.738-.539-.57-.668.125-.09.402-.066.977.09.875.242 1.531.344 2.684.418.719.047 2.504-.004 2.887-.082l.594-.148c.023-.012.063-.023.086-.023s.074-.016.113-.031l.219-.082c.238-.086.734-.316.824-.379.02-.016.074-.047.117-.07.547-.293 1.176-.832 1.598-1.371.254-.324.379-.516.527-.809l.121-.23a.59.59 0 0 0 .035-.07c.008-.016.035-.086.063-.148l.066-.16c.113-.246.262-.789.336-1.234l.063-.344c.074-.441-.008-.621-.293-.621-.113 0-.129.008-.195.082"
          fill="rgb(3.137255%,2.352941%,1.960784%)"/>
    <path d="M11.426 1.039l-.699.055-.301.035c-.047 0-.141.016-.203.031s-.18.039-.25.047-.168.027-.215.039l-.297.066c-.316.07-.918.246-1.078.313a.39.39 0 0 1-.113.035.39.39 0 0 0-.113.035l-.238.102a.68.68 0 0 0-.137.047l-.254.109c-.504.215-1.18.586-1.668.906l-.66.48c-.004.008-.027.023-.051.035-.156.086-1.129 1.004-1.453 1.371-.266.301-.703.887-.922 1.23a11.07 11.07 0 0 0-.746 1.367l-.133.297c-.02.039-.035.086-.035.105s-.008.039-.02.051c-.023.023-.246.648-.289.813l-.07.258-.156.668-.059.301c-.187.977-.184 2.559.012 3.488l.047.254a8.91 8.91 0 0 0 .121.531l.191.645.191.527c.016.035.031.074.031.086s.016.059.035.098.063.141.098.223c.313.738.832 1.586 1.434 2.336.617.777 1.5 1.598 2.281 2.117l.793.5c.008 0 .102.051.211.109.301.172 1.129.559 1.195.559.02 0 .066.016.102.035a3.19 3.19 0 0 0 .426.16l.227.07.453.137c.07.023.18.047.238.059l.25.055.586.117.848.105c.313.031 1.676.031 1.969 0l1.27-.184.254-.059.301-.07.535-.156.133-.039c.152-.039.648-.223.93-.348l.824-.391.309-.176c.27-.152.617-.371.82-.52l.156-.109c.41-.27 1.148-.934 1.73-1.555.113-.121.633-.766.633-.785 0-.008.047-.074.102-.145l.16-.223.16-.246.129-.207c.012-.031.063-.117.105-.191.133-.219.441-.836.535-1.074l.086-.191c.02-.035.035-.074.035-.086s.016-.059.031-.098c.035-.074.172-.473.211-.602.008-.039.039-.141.066-.23.051-.164.102-.367.156-.633l.055-.254c.234-.957.23-2.773-.008-3.883l-.203-.852-.066-.23c-.059-.195-.266-.77-.348-.945l-.098-.219-.418-.828-.145-.246a4.06 4.06 0 0 0-.176-.285l-.133-.207c-.016-.031-.043-.07-.059-.082l-.145-.195-.547-.699-.281-.301a9.98 9.98 0 0 0-1.234-1.137l-.234-.18a2.19 2.19 0 0 0-.199-.148l-.734-.473a.39.39 0 0 1-.074-.047c-.02-.016-.109-.066-.203-.113l-.262-.141c-.168-.09-.723-.348-.918-.422l-.207-.086a.51.51 0 0 0-.098-.031c-.016 0-.055-.012-.094-.031a2.79 2.79 0 0 0-.437-.152l-.238-.074c-.059-.023-.172-.055-.465-.125-.699-.168-1.418-.273-1.98-.297l-.57-.02a12.99 12.99 0 0 0-.73.012m3.367 2.809a3.84 3.84 0 0 0 .324.043c.094.012.184.027.199.039s.078.027.129.035c.102.016.266.07.383.125.352.156.418.195.668.375a3.48 3.48 0 0 1 .555.547c.238.293.605 1.063.605 1.258-.004.023.008.047.02.055s.031.063.039.121a2.04 2.04 0 0 0 .047.211.71.71 0 0 1 .035.195c0 .051.016.188.035.301s.035.301.035.418v.211l.133.012a.55.55 0 0 1 .164.035c.016.012.078.027.145.039s.141.031.168.047.07.035.098.035.066.012.082.031.051.035.074.035a.13.13 0 0 1 .078.035c.02.02.051.035.07.035s.043.012.055.023.063.059.125.094c.301.184.84.875.84 1.074a.13.13 0 0 0 .035.074c.02.023.043.102.051.184s.023.148.035.152.012.031 0 .051-.027.09-.039.148-.031.121-.051.133-.031.043-.035.055-.027.059-.066.098l-.07.07-.016.426-.051.539a.98.98 0 0 0-.035.242.98.98 0 0 1-.035.242c-.02.063-.035.152-.035.203s-.016.121-.035.168-.035.113-.035.148a.41.41 0 0 1-.035.145c-.016.043-.039.121-.047.176a.92.92 0 0 1-.051.156c-.02.035-.035.09-.035.121s-.016.078-.035.105-.035.07-.035.102a.2.2 0 0 1-.035.105c-.02.023-.035.063-.035.09a.49.49 0 0 1-.039.113c-.02.035-.035.074-.035.09a.71.71 0 0 1-.051.129l-.078.176-.066.148a.8.8 0 0 0-.055.133c-.008.027-.023.051-.039.051s-.02.012-.02.027c0 .035-.121.27-.145.285-.012.008-.023.031-.023.055s-.016.055-.035.07-.035.047-.035.07-.023.059-.051.082-.047.047-.047.059-.16.289-.195.332-.187.27-.187.281c0 .004-.043.07-.102.141l-.141.191c-.023.035-.066.086-.094.121a1 1 0 0 0-.09.105 4.68 4.68 0 0 1-.246.289 6.78 6.78 0 0 0-.137.152c-.324.375-1.332 1.246-1.527 1.328-.016.008-.051.027-.074.051-.074.066-.152.113-.18.113-.016 0-.031.012-.035.02-.012.023-.219.152-.426.27l-.191.105a8.86 8.86 0 0 1-.312.148l-.309.152a.59.59 0 0 1-.07.035c-.02.004-.066.027-.105.043s-.078.035-.094.035a.47.47 0 0 0-.125.047c-.051.023-.109.043-.125.043s-.047.016-.066.035-.066.035-.102.035-.086.016-.109.035-.07.035-.098.035-.074.012-.109.031-.105.035-.156.043-.129.031-.168.051a.34.34 0 0 1-.141.035.29.29 0 0 0-.129.035c-.031.02-.102.031-.148.035a.54.54 0 0 0-.176.035.61.61 0 0 1-.187.031.94.94 0 0 0-.219.035c-.062.02-.176.035-.25.035a2.21 2.21 0 0 0-.32.035c-.266.047-.941.066-1.312.039l-.93-.102-.262-.043c-.137-.012-.211-.027-.465-.09a3.73 3.73 0 0 0-.223-.047c-.066-.012-.129-.031-.145-.043a.47.47 0 0 0-.125-.039c-.051-.008-.129-.031-.172-.047s-.105-.031-.145-.031-.082-.016-.098-.035-.055-.035-.086-.035-.07-.016-.09-.031a.31.31 0 0 0-.113-.051.47.47 0 0 1-.117-.035l-.133-.059-.344-.148c-.02-.012-.062-.031-.098-.047-.203-.082-.441-.207-.973-.516a3.24 3.24 0 0 1-.184-.113l-.234-.145-.137-.086c-.02-.02-.051-.035-.066-.035s-.039-.016-.055-.031a3.1 3.1 0 0 0-.141-.098c-.437-.281-.668-.609-.668-.957 0-.125.012-.211.031-.238a.47.47 0 0 0 .051-.109c.035-.148.402-.41.566-.41a.67.67 0 0 0 .137-.023c.098-.027.602.023.797.082l.254.07.203.059c.039.016.133.035.203.047s.141.027.152.039c.027.016.227.051.539.098.102.012.238.039.313.059s.195.031.273.031a3.24 3.24 0 0 1 .379.035c.344.051 2.691.051 2.938 0 .09-.02.211-.035.27-.035s.133-.016.168-.031a.75.75 0 0 1 .176-.047c.063-.008.133-.023.156-.035a2.23 2.23 0 0 1 .344-.109c.035-.008.078-.027.094-.043s.047-.035.074-.035.074-.016.109-.031.156-.078.266-.129c.258-.121.344-.168.355-.191.004-.008.016-.016.027-.016s.09-.043.168-.098l.184-.121c.121-.07.465-.344.633-.508.266-.258.711-.809.711-.883 0-.012.012-.031.027-.043.027-.016.25-.43.293-.535.008-.02.02-.051.031-.07.063-.105.102-.191.102-.227 0-.02.016-.066.031-.098s.039-.098.051-.148.023-.102.039-.125c.027-.047.09-.281.117-.43.008-.066.031-.156.043-.195s.035-.176.051-.297l.047-.359c.012-.074.023-.355.023-.625l.004-.488-.086-.086c-.199-.211-.27-.695-.117-.816.02-.016.035-.047.035-.07s.012-.055.031-.07.039-.059.047-.094.027-.062.039-.062.023-.012.023-.023c0-.082.387-.512.637-.711.145-.117.531-.324.605-.324.02 0 .059-.016.086-.035s.098-.035.16-.047c.223-.031.277-.07.277-.207 0-.187-.062-.777-.094-.848a.5.5 0 0 1-.023-.129c0-.031-.016-.109-.035-.164l-.168-.496-.16-.309c-.012-.004-.02-.02-.02-.035a.39.39 0 0 0-.078-.133l-.121-.168a2.61 2.61 0 0 0-.422-.402c-.012 0-.035-.016-.051-.031-.047-.043-.328-.199-.359-.199-.02 0-.051-.016-.078-.031s-.121-.051-.215-.078c-.352-.102-.496-.121-.891-.121h-.383L14 4.441c-.234-.176-.203-.457.063-.574.113-.051.473-.059.73-.02"
          fill="rgb(85.882353%,85.882353%,85.882353%)"/>
    <path d="M14.063 3.867c-.266.117-.297.398-.062.574l.102.074h.383c.395 0 .539.02.891.121.094.027.188.063.215.078s.059.031.078.031c.031 0 .313.156.359.199.016.016.039.031.051.031a2.61 2.61 0 0 1 .422.402c.023.039.078.113.121.168a.39.39 0 0 1 .078.133c0 .016.008.031.02.035s.074.121.16.309c.027.063.066.172.168.496.02.055.035.133.035.164a.5.5 0 0 0 .023.129c.031.07.094.66.094.848 0 .137-.055.176-.277.207-.062.012-.137.031-.16.047s-.066.035-.086.035c-.074 0-.461.207-.605.324-.25.199-.637.629-.637.711 0 .012-.008.023-.023.023s-.027.027-.039.063-.031.078-.047.094-.031.051-.031.07-.016.055-.035.07c-.094.074-.102.457-.012.637.051.105.203.27.238.258.012-.004-.016-.047-.066-.094-.18-.184-.25-.547-.145-.742l.094-.18.137-.246a.75.75 0 0 0 .121-.176c0-.023.492-.492.52-.492.016 0 .031-.016.039-.035s.031-.035.047-.035.051-.012.07-.027.082-.055.148-.086a1.59 1.59 0 0 0 .156-.074c.02-.008.047-.023.059-.027l.105-.035c.047-.016.141-.039.207-.047s.156-.035.199-.059l.078-.039-.012-.27c-.012-.277-.051-.59-.094-.75l-.043-.211c-.012-.066-.031-.141-.047-.164s-.023-.066-.023-.09a.31.31 0 0 0-.039-.109c-.02-.035-.035-.078-.035-.09 0-.031-.109-.266-.238-.5-.137-.25-.648-.762-.762-.762-.016 0-.023-.008-.023-.02 0-.023-.324-.176-.426-.199a.76.76 0 0 1-.113-.047c-.023-.02-.074-.031-.105-.031s-.105-.016-.16-.035c-.07-.023-.246-.039-.527-.051-.609-.02-.676-.047-.691-.293-.016-.203.039-.258.281-.289.207-.027.824.008 1.012.059l.215.043c.055.008.109.023.121.035s.063.027.105.043c.152.043.266.086.293.113.016.016.047.027.07.027s.051.016.066.035.047.035.063.035.047.012.063.027c.051.043.184.133.199.133.156 0 .988 1.039.988 1.23 0 .016.016.043.035.059s.039.047.039.063a.34.34 0 0 0 .031.109l.086.246.074.242c.012.039.027.121.035.184s.027.156.047.207.043.293.063.539c.031.492.039.508.184.508.051 0 .102.012.113.023s.082.031.156.039a.6.6 0 0 1 .176.043c.023.02.07.031.098.031s.066.016.082.035.043.035.059.035c.09 0 .441.23.637.418.113.113.328.375.328.406 0 .016.016.039.031.055.039.039.207.367.207.406 0 .016.02.055.039.086.059.086.059.5.004.559-.023.023-.043.055-.043.07s-.043.07-.094.121c-.102.105-.121.141-.055.09.098-.07.176-.148.176-.172 0-.016.016-.043.031-.059s.043-.074.051-.133.027-.125.039-.148.012-.043 0-.051-.027-.074-.035-.152-.031-.16-.051-.184a.13.13 0 0 1-.035-.074c0-.199-.539-.891-.84-1.074-.062-.035-.117-.078-.125-.094s-.035-.023-.055-.023-.051-.016-.07-.035a.13.13 0 0 0-.078-.035c-.023 0-.059-.016-.074-.035s-.055-.031-.082-.031-.07-.016-.098-.035-.102-.039-.168-.047-.129-.027-.145-.039A.55.55 0 0 0 18 7.793l-.133-.012V7.57c0-.117-.016-.305-.035-.418s-.035-.25-.035-.301a.71.71 0 0 0-.035-.195l-.047-.211c-.008-.059-.027-.117-.039-.121s-.023-.031-.02-.055c0-.043-.09-.328-.133-.43-.137-.301-.348-.676-.473-.828a3.48 3.48 0 0 0-.555-.547c-.25-.18-.316-.219-.668-.375-.117-.055-.281-.109-.383-.125-.051-.008-.109-.027-.129-.035s-.105-.027-.199-.039l-.324-.043c-.258-.039-.617-.031-.73.02m3.02 4.645a.27.27 0 0 1-.098.035c-.203.004-.738.395-.922.672-.258.398-.23.504.09.348a2.38 2.38 0 0 1 .848 0l.176.082c.109.051.234.152.375.313s.469.23.684.145c.043-.02.117-.039.172-.047a1.48 1.48 0 0 0 .371-.121c.035-.02.086-.031.113-.031s.059-.016.074-.035.047-.035.063-.035c.141 0 .32-.152.277-.238-.016-.027-.031-.074-.043-.105-.016-.051-.168-.324-.199-.348-.008-.004-.043-.055-.082-.109-.129-.184-.449-.395-.766-.504a4.12 4.12 0 0 0-1.133-.02m-.531 1.641c.031.004.078.004.105 0s.008-.012-.051-.012-.086.004-.055.012m-.727.137c.023.008.059.008.082 0s.004-.012-.043-.012-.062.008-.039.012m1.902.48a.58.58 0 0 0 .141.031c.035 0 .012-.012-.059-.031-.148-.043-.191-.039-.082 0m-2.254.414c-.02.023-.039.074-.039.121s-.012.133-.023.188-.035.191-.047.301l-.047.297-.051.195-.047.199c-.012.059-.035.121-.047.145s-.031.078-.043.125a2.92 2.92 0 0 1-.191.492c-.027.059-.051.121-.051.133s-.012.027-.023.027-.027.031-.035.07-.027.074-.039.078-.047.07-.082.141-.07.125-.082.125-.023.012-.023.027c0 .105-.59.797-.898 1.059l-.426.32c-.008 0-.086.051-.172.113s-.172.117-.187.117-.035.008-.039.016c-.012.023-.098.07-.355.191l-.266.129c-.035.016-.082.031-.109.031s-.059.016-.078.035-.051.035-.078.035-.074.016-.102.031-.09.039-.148.047-.105.027-.113.039a.38.38 0 0 1-.125.031c-.062.012-.145.031-.187.051s-.117.031-.168.031a1.64 1.64 0 0 0-.258.035c-.246.051-2.637.051-2.98 0a3.15 3.15 0 0 0-.367-.035c-.07 0-.199-.016-.285-.035l-.316-.059-.336-.055-.207-.043c-.016-.012-.078-.027-.141-.039s-.148-.027-.187-.043l-.203-.059-.258-.07c-.645-.187-1.309-.043-1.477.32l-.066.137c-.172.332.105.859.633 1.199l.141.098c.016.016.039.031.051.031s.066.027.125.063l.141.086.188.121.156.098c.004 0 .063.039.133.082l.223.129a1.64 1.64 0 0 1 .168.09 5.13 5.13 0 0 0 .465.227l.098.047c.086.047.422.188.449.188.012 0 .051.016.09.035s.086.031.105.031.055.016.07.035.051.035.078.035.082.016.113.031.105.039.156.047a.63.63 0 0 1 .117.035.32.32 0 0 0 .117.035c.055.012.125.031.16.051s.09.031.117.031a.78.78 0 0 1 .164.035 3.44 3.44 0 0 0 .516.102c.078.008.195.031.262.043.125.027.445.063.941.102.328.023.984.012 1.195-.027l.367-.047c.27-.023.5-.059.656-.098l.227-.039c.066-.008.145-.027.172-.043s.082-.027.121-.027a.39.39 0 0 0 .129-.031c.035-.02.102-.039.145-.051.117-.023.309-.082.379-.117.035-.016.09-.031.125-.031s.07-.016.086-.035.047-.035.07-.035.082-.02.133-.043a.47.47 0 0 1 .125-.047c.023 0 .125-.043.223-.098l.07-.031c.16-.059.82-.398.832-.426.004-.012.02-.023.035-.023.031 0 .336-.184.348-.211.004-.008.02-.02.035-.02.027 0 .105-.047.18-.113.023-.023.059-.043.074-.051.195-.078 1.191-.945 1.527-1.328l.145-.16a6.66 6.66 0 0 0 .25-.301.47.47 0 0 1 .063-.066l.129-.168.141-.195.059-.082c.02-.016.07-.098.102-.16.016-.031.035-.062.043-.066.027-.027.191-.277.211-.328.012-.031.051-.094.086-.141s.063-.102.063-.121.008-.039.02-.043c.027-.016.145-.254.145-.289 0-.012.012-.023.023-.023s.027-.031.039-.07.027-.078.047-.094.035-.051.035-.078.016-.066.035-.082.035-.051.035-.082.016-.066.035-.086.043-.07.051-.113.031-.098.051-.113.031-.055.031-.09.016-.074.035-.09.035-.062.035-.105.02-.086.039-.102.035-.059.035-.09.016-.09.031-.121a.58.58 0 0 0 .051-.164c.012-.055.031-.117.051-.145s.031-.086.031-.137l-.004-.094-.02.082-.121.402c-.016.039-.035.098-.047.137a4.37 4.37 0 0 1-.129.371l-.07.172-.074.168c-.02.035-.035.074-.035.09s-.152.344-.191.41c-.012.02-.027.043-.031.059-.031.074-.047.105-.133.25l-.148.266c-.031.059-.09.152-.133.215a.48.48 0 0 0-.078.133c0 .012-.012.023-.023.023s-.027.023-.039.051-.023.055-.031.063a1.32 1.32 0 0 0-.086.117l-.094.129c-.016.012-.039.047-.059.078a9.76 9.76 0 0 1-1.707 1.75l-.238.188c-.039.035-.078.066-.086.066s-.09.055-.184.121l-.305.199-.164.105c-.016.012-.055.035-.086.051l-.203.109-.488.242-.555.242a.21.21 0 0 0-.078.035c-.008.012-.031.023-.051.023a.51.51 0 0 0-.137.043c-.125.055-.238.094-.359.121-.051.012-.105.031-.121.039a.35.35 0 0 1-.129.035c-.059.008-.117.023-.129.031-.031.02-.18.055-.398.098l-.254.059c-.066.02-.16.035-.211.035a1.07 1.07 0 0 0-.191.023c-.664.168-2.426.105-3.363-.121l-.488-.121-.238-.062c-.129-.031-.262-.078-.398-.137-.051-.023-.113-.043-.133-.043s-.047-.012-.051-.023-.043-.027-.082-.035a.71.71 0 0 1-.137-.047l-.262-.117-.562-.262-.555-.316-.086-.051-.543-.336c-.602-.371-.852-.676-.852-1.047a.75.75 0 0 1 .121-.395c.016-.02.031-.043.031-.051 0-.039.141-.145.309-.23.223-.113.785-.074 1.375.102.285.082.609.156.93.203l.246.051c.043.012.188.031.316.043l.375.043c.453.078 2.883.07 3.277-.012l.219-.031a.51.51 0 0 0 .141-.031c.043-.02.125-.047.184-.059a4.18 4.18 0 0 0 .668-.227l.586-.285.105-.062c.023-.008.102-.059.176-.109l.188-.117c.027-.016.055-.035.066-.047s.059-.047.113-.086c.156-.102.652-.582.809-.785l.32-.449c0-.012.008-.023.02-.023s.137-.227.398-.746c.02-.035.035-.074.035-.086s.016-.059.031-.098a2.44 2.44 0 0 0 .137-.402c.012-.051.031-.117.047-.141s.023-.074.023-.105a.86.86 0 0 1 .035-.184 7.33 7.33 0 0 0 .121-.762c.008-.074.027-.148.039-.164.035-.043.004-.039-.039.004m4.094.473c-.004.082-.016.191-.031.242-.059.223-.082.402-.051.375.016-.012.031-.07.031-.129s.016-.137.035-.176c.027-.055.035-.129.031-.27-.008-.18-.012-.184-.016-.043M8.164 16.832c.023.004.063.004.086 0s.004-.012-.043-.012-.066.004-.043.012m2.352 0a.89.89 0 0 0 .145 0c.035-.004 0-.008-.078-.008s-.109.004-.066.008m-2.102.023c.031.004.074.004.098 0s-.004-.012-.055-.012-.07.008-.043.012m1.695 0c.031.004.078.004.105 0s.008-.012-.051-.012-.086.008-.055.012m-1.004.023h.441c.125-.004.023-.008-.219-.008l-.223.008"
          fill="rgb(35.686275%,60.784314%,20%)"/>
</svg>
