<svg width="24" height="24" viewBox="0 0 24 24" fill="none" xmlns="http://www.w3.org/2000/svg">
<rect width="24" height="24" rx="12" fill="#292B3F"/>
<path d="M8.23988 6.66124L6.66275 8.23837C6.42037 8.48076 6.42037 8.87374 6.66275 9.11612L14.8857 17.339C15.1281 17.5814 15.521 17.5814 15.7634 17.339L17.3406 15.7619C17.5829 15.5195 17.5829 15.1266 17.3406 14.8842L9.11763 6.66124C8.87525 6.41886 8.48227 6.41886 8.23988 6.66124Z" fill="white"/>
<path d="M14.9889 6.76459C15.2313 6.52216 15.6243 6.52216 15.8667 6.76459L17.3177 8.21555C17.56 8.45792 17.56 8.85089 17.3177 9.09332L9.09477 17.3162C8.85234 17.5586 8.45937 17.5586 8.217 17.3162L6.76604 15.8652C6.52363 15.6229 6.52363 15.2298 6.76604 14.9875L14.9889 6.76459Z" fill="url(#paint0_linear_8606_10086)"/>
<defs>
<linearGradient id="paint0_linear_8606_10086" x1="16.5921" y1="7.49004" x2="7.49149" y2="16.5908" gradientUnits="userSpaceOnUse">
<stop stop-color="#B479FF"/>
<stop offset="1" stop-color="#7C79FF"/>
</linearGradient>
</defs>
</svg>
