<svg width="64" height="64" viewBox="0 0 64 64" fill="none"
  xmlns="http://www.w3.org/2000/svg">
  <circle cx="32" cy="32" r="32" fill="#00E0FF"/>
  <path d="M36.4404 51.9999C33.817 51.9999 31.9021 51.364 30.6958 50.0921C29.5783 49.0156 28.9298 47.5374 28.8921 45.981C28.8785 45.5081 28.9875 45.0399 29.2081 44.6223C29.414 44.2613 29.7112 43.9619 30.0696 43.7545C30.9143 43.3306 31.9076 43.3306 32.7523 43.7545C33.1101 43.9612 33.4059 44.2608 33.609 44.6223C33.8361 45.038 33.949 45.507 33.9363 45.981C33.9598 46.5473 33.7983 47.1056 33.4768 47.5709C33.2088 47.9506 32.8257 48.2328 32.3849 48.375C32.816 48.9273 33.4258 49.3098 34.1082 49.4562C34.8717 49.6794 35.6626 49.7941 36.4577 49.7971C37.5103 49.8064 38.5412 49.4961 39.4162 48.9069C40.3236 48.2616 41.0005 47.3393 41.3463 46.2765C41.7845 45.0115 41.9985 43.679 41.9782 42.3395C42.0135 40.9432 41.7795 39.5531 41.2888 38.2463C40.9198 37.2011 40.2193 36.3074 39.2955 35.7026C38.4367 35.1556 37.4399 34.8687 36.4237 34.8759C35.5382 34.9514 34.6845 35.2431 33.9363 35.7258L32.0918 36.6565V35.7258L40.3811 24.5345H28.8921V36.1478C28.8596 36.9858 29.08 37.8141 29.524 38.5239C29.9612 39.1529 30.6932 39.5059 31.4541 39.4546C32.1454 39.4404 32.814 39.2035 33.3612 38.7782C33.9815 38.3207 34.5213 37.7618 34.9582 37.1247C34.9975 37.013 35.0702 36.9161 35.1659 36.8474C35.2428 36.7805 35.3411 36.7436 35.4429 36.7433C35.6425 36.7617 35.8313 36.8425 35.9829 36.9744C36.175 37.1904 36.2795 37.471 36.2758 37.7607C36.2537 37.9553 36.219 38.1485 36.1724 38.3388C35.7644 39.3329 35.0801 40.1876 34.2019 40.8008C33.3863 41.3564 32.4228 41.6509 31.438 41.6458C28.9505 41.6458 27.2272 41.1524 26.2683 40.1658C25.2724 39.0641 24.7591 37.6055 24.8436 36.1188V24.5345H19V22.3768H24.8708V17.4569L23.5267 16.1033V15H27.4271L28.8921 15.7632V22.3768L44.0689 22.3303L45.5799 23.8565L36.2737 33.2677C36.8359 33.0401 37.4281 32.8961 38.0314 32.8399C39.2258 32.8926 40.3908 33.2273 41.4328 33.817C42.6394 34.3942 43.6562 35.3075 44.3627 36.4484C44.9958 37.4144 45.444 38.4907 45.684 39.6223C45.8813 40.5149 45.9872 41.4253 45.9999 42.3398C46.0062 44.0848 45.6129 45.8077 44.8511 47.3751C44.1284 48.8929 42.9124 50.1167 41.4042 50.844C39.8604 51.6095 38.1614 52.0053 36.4404 51.9999Z" fill="#0D1F39"/>
</svg>
