<svg width="24" height="24" viewBox="0 0 24 24" fill="none" xmlns="http://www.w3.org/2000/svg">
<g clip-path="url(#clip0_8213_9514)">
<path d="M12.0001 24.0003C18.6276 24.0003 24.0003 18.6276 24.0003 12.0001C24.0003 5.37264 18.6276 0 12.0001 0C5.37264 0 0 5.37264 0 12.0001C0 18.6276 5.37264 24.0003 12.0001 24.0003Z" fill="#143A3A"/>
<path d="M13.1533 7.84648C12.8936 8.62034 10.931 14.667 10.6212 15.3903C10.3881 15.9596 9.74204 17.4322 8.14183 17.7661C7.84266 17.8238 7.53861 17.8525 7.23392 17.8519C6.66693 17.8447 6.10325 17.7642 5.55695 17.6123C5.52046 17.611 5.48544 17.5976 5.45754 17.574C5.42963 17.5505 5.41047 17.5182 5.40314 17.4824L4.83389 15.8297C4.82922 15.8057 4.82955 15.7809 4.83488 15.757C4.8402 15.7331 4.8504 15.7105 4.86483 15.6907C4.87926 15.6709 4.89762 15.6543 4.91876 15.6419C4.9399 15.6295 4.96337 15.6216 4.98771 15.6186C4.9966 15.6191 5.00542 15.6206 5.01395 15.6232C5.66578 15.8338 6.34298 15.9558 7.02733 15.9858C7.78115 15.9858 8.49998 15.7572 8.73507 14.9506H7.51981C7.44144 14.9642 7.36082 14.9477 7.29404 14.9045C7.22725 14.8613 7.17918 14.7945 7.15941 14.7175L4.75685 7.84648C4.73483 7.77875 4.77011 7.71243 4.82938 7.71243C4.83993 7.71172 4.85051 7.71326 4.86042 7.71694H6.71971C6.87292 7.71382 7.02312 7.75969 7.14845 7.84786C7.27378 7.93604 7.3677 8.06191 7.41652 8.20716L9.122 13.3747H9.27807L10.7245 8.23341C10.7595 8.07609 10.8482 7.93587 10.9753 7.83683C11.1025 7.73779 11.2602 7.68612 11.4213 7.6907H13.05C13.0683 7.69121 13.0862 7.69612 13.1023 7.70501C13.1183 7.7139 13.1319 7.72651 13.1421 7.74179C13.1522 7.75706 13.1585 7.77455 13.1604 7.79277C13.1624 7.81099 13.1599 7.82941 13.1533 7.84648V7.84648ZM18.4856 13.6134H18.4884C18.4299 14.0562 18.2779 14.4814 18.0425 14.8609C17.8035 15.2437 17.4873 15.5724 17.114 15.8261C16.6983 16.1049 16.2397 16.3137 15.7565 16.4441C15.467 16.5237 15.1716 16.5804 14.8731 16.6135L14.4583 17.8778H12.4178L12.8552 16.5683C12.5167 16.5158 12.184 16.4308 11.8618 16.3143C11.665 16.2411 11.4752 16.1504 11.2946 16.0434C11.3425 15.9418 11.3877 15.8374 11.4328 15.7301C11.5316 15.493 11.763 14.8326 12.0735 13.9154L12.1271 13.8731L12.2202 13.9944C12.4568 14.3012 12.7774 14.5326 13.1431 14.6605C13.5345 14.809 13.9494 14.8855 14.368 14.8863C14.7781 14.9109 15.1854 14.8042 15.5307 14.5815C15.6627 14.4888 15.7734 14.3692 15.8557 14.2306C15.9379 14.0919 15.9897 13.9373 16.0077 13.7771C16.0314 13.6922 16.0316 13.6025 16.0083 13.5174C15.9849 13.4324 15.9388 13.3554 15.875 13.2945C15.6493 13.146 15.3942 13.0478 15.1271 13.0067L14.1902 12.8147C13.6168 12.7421 13.0883 12.4668 12.7 12.0386C13.002 11.1299 13.3322 10.1252 13.6652 9.10351C13.7809 8.75355 13.8741 8.4685 13.9333 8.28224C14.2671 8.09547 14.6238 7.95316 14.9945 7.8589C15.257 7.79026 15.5238 7.73934 15.7932 7.7065L16.2081 6.44214H18.2485L17.8111 7.77141C18.0575 7.82136 18.2992 7.89218 18.5336 7.98308C19.0316 8.15038 19.4616 8.47533 19.7584 8.90877L19.8346 9.03013L18.0905 10.2776L18.003 10.1506C17.8374 9.91144 17.6088 9.7229 17.3426 9.60586C17.0227 9.46577 16.6757 9.3983 16.3266 9.40831C15.9413 9.38515 15.5581 9.48069 15.2287 9.68206C15.1116 9.76162 15.013 9.86564 14.9399 9.98697C14.8669 10.1083 14.821 10.244 14.8054 10.3848C14.786 10.4587 14.7873 10.5365 14.8092 10.6097C14.8311 10.6829 14.8728 10.7486 14.9296 10.7997C15.1717 10.9603 15.4464 11.0654 15.7339 11.1073L16.6286 11.3105C18.0284 11.6294 18.6549 12.4055 18.4856 13.6134V13.6134Z" fill="white"/>
<path d="M6.61671 14.7443L5.94502 12.8842C5.91604 12.7985 5.86011 12.7245 5.78558 12.6732C5.71106 12.6219 5.62195 12.5961 5.53157 12.5997H3.87802C3.78561 12.601 3.69484 12.6242 3.61317 12.6674C3.5315 12.7107 3.46128 12.7727 3.40831 12.8484C3.35533 12.9242 3.32111 13.0114 3.30846 13.1029C3.29582 13.1945 3.30511 13.2877 3.33558 13.375C3.49053 13.8141 3.56785 14.0466 3.72308 14.4601C3.77076 14.6012 3.8609 14.7241 3.98114 14.812C4.10138 14.8999 4.24585 14.9485 4.39477 14.9512H6.48746C6.51213 14.952 6.53658 14.9462 6.55836 14.9346C6.58014 14.923 6.59849 14.9058 6.61157 14.8849C6.62465 14.864 6.63201 14.84 6.63292 14.8153C6.63382 14.7906 6.62823 14.7661 6.61671 14.7443V14.7443Z" fill="white"/>
</g>
<defs>
<clipPath id="clip0_8213_9514">
<rect width="24" height="24" fill="white"/>
</clipPath>
</defs>
</svg>
