<svg width="44" height="16" viewBox="0 0 44 16" fill="none" xmlns="http://www.w3.org/2000/svg">
<g clip-path="url(#clip0_12585_342048)">
<path d="M0.13096 9.44055C0.41263 10.9843 1.15031 12.4616 2.34299 13.6551C5.46736 16.7816 10.5328 16.7816 13.6568 13.6551C16.0612 11.2491 16.6152 7.69262 15.3189 4.75657C14.9395 3.89731 14.4015 3.09108 13.7051 2.38258C13.6891 2.36624 13.6731 2.3499 13.6568 2.33355C13.6405 2.31721 13.6241 2.3012 13.6078 2.28518C12.8998 1.59437 12.0475 1.13972 11.1491 0.921898C9.92739 0.624692 8.62106 0.765126 7.47906 1.34286C7.28106 1.44326 7.08806 1.55667 6.90106 1.68343C6.72906 1.79951 6.56237 1.92727 6.40204 2.0657C6.30371 2.15076 6.20771 2.24015 6.11437 2.33355C4.03168 4.41768 4.03168 7.79702 6.11437 9.88114C6.66773 10.4349 7.31273 10.8415 8.00006 11.1013C8.59739 11.3268 9.22739 11.4413 9.85739 11.4446V9.84314C9.19406 9.83848 8.55772 9.66134 8.00006 9.33308C7.72806 9.17368 7.47473 8.97821 7.24573 8.74902C6.54071 8.04355 6.15237 7.10523 6.15237 6.10752C6.15237 5.10983 6.54071 4.17117 7.24573 3.46568C7.95106 2.76018 8.88839 2.37158 9.88572 2.37158C10.1381 2.37158 10.3865 2.3966 10.6285 2.4453C11.3165 2.58306 11.9511 2.91363 12.4678 3.40897C12.4871 3.42765 12.5065 3.44666 12.5255 3.46568C12.5445 3.48469 12.5635 3.50404 12.5821 3.52338C13.0911 4.04475 13.5001 4.63783 13.8005 5.28028C14.1931 6.11886 14.4001 7.04049 14.4001 7.99415C14.4001 8.14362 14.3951 8.29235 14.3851 8.43982C14.3698 8.66028 14.3438 8.87848 14.3065 9.09395C14.2701 9.30608 14.2235 9.51521 14.1661 9.72108C13.8745 10.7705 13.3161 11.7318 12.5255 12.523C11.3168 13.7325 9.70939 14.3986 8.00006 14.3986C6.29071 14.3986 4.68335 13.7325 3.47434 12.523C2.61399 11.6621 2.02865 10.599 1.76298 9.44055C1.65531 8.97155 1.59998 8.48715 1.59998 7.99415C1.59998 7.85609 1.60431 7.71862 1.61298 7.58189H0.0106249C-0.0213755 8.20295 0.0189583 8.82708 0.13096 9.44055Z" fill="white"/>
<path d="M1.61117 7.63315C1.60298 7.76615 1.59888 7.89981 1.59888 8.03408C1.59888 8.18375 1.60667 8.33268 1.61679 8.48061H0.0137757C-0.00211098 8.19455 -0.0052162 7.90788 0.009523 7.62175H0.010094C0.0251017 7.33628 0.0490736 7.05142 0.0944796 6.76855H1.71728C1.6603 7.05195 1.63028 7.34068 1.61186 7.63315H1.61117Z" fill="white"/>
<path d="M9.85855 11.4459C9.66255 11.4448 9.46648 11.433 9.27148 11.4105V9.79443C9.46215 9.8259 9.65662 9.84277 9.85342 9.84437V9.8443C9.85508 9.84437 9.85682 9.84437 9.85848 9.84443C9.86622 9.84463 9.87408 9.84463 9.88168 9.84463H9.88175C10.079 9.84463 10.2738 9.82943 10.4651 9.79957V11.4139C10.2636 11.436 10.0611 11.4466 9.85855 11.4458V11.4459Z" fill="white"/>
<path d="M9.85059 9.84266V11.4441C11.2249 11.4511 12.6013 10.9301 13.65 9.88073C13.7436 9.787 13.833 9.69093 13.918 9.5922C14.0566 9.43173 14.1836 9.26527 14.2996 9.09353C14.337 8.878 14.363 8.65987 14.3783 8.4394C14.3883 8.29194 14.3933 8.14314 14.3933 7.99374C14.3933 7.04008 14.1863 6.11843 13.7936 5.27984C13.4933 4.63739 13.0843 4.04431 12.5753 3.52295C13.0706 4.03997 13.401 4.67542 13.539 5.36456C13.5876 5.6064 13.6123 5.85491 13.6123 6.10709C13.6123 7.10481 13.224 8.04307 12.5186 8.7486C11.8137 9.4544 10.8759 9.843 9.87892 9.843C9.86959 9.843 9.85992 9.843 9.85059 9.84266Z" fill="url(#paint0_radial_12585_342048)"/>
<path d="M0.0117188 7.59315H1.61407C1.71207 6.0377 2.36441 4.58869 3.47543 3.47691C4.2661 2.68603 5.22679 2.12731 6.27547 1.8351C6.48113 1.77806 6.69017 1.73103 6.90217 1.69467C7.08917 1.56792 7.28217 1.4545 7.48017 1.3541C8.62217 0.776362 9.9285 0.635931 11.1502 0.933141C12.0486 1.15096 12.9009 1.60561 13.6089 2.29643C12.9009 1.59927 12.0949 1.06089 11.2362 0.681629C8.30217 -0.61561 4.74845 -0.0612232 2.34408 2.34479C0.886727 3.80314 0.109387 5.68379 0.0117188 7.59315Z" fill="url(#paint1_radial_12585_342048)"/>
<path d="M21.1791 9.9107L24.3786 13.3335H22.4385L19.8688 10.3961V13.3335H18.4326V4.3335H19.8688V9.46376L22.3882 6.29408H24.3786L21.1791 9.9107Z" fill="white"/>
<path d="M26.076 12.9513C25.5477 12.6519 25.1325 12.23 24.8307 11.6858C24.5288 11.1416 24.3779 10.5113 24.3779 9.79393C24.3779 9.0766 24.5331 8.45713 24.8434 7.90866C25.1534 7.36053 25.5771 6.9386 26.1138 6.64317C26.6505 6.34808 27.25 6.2002 27.9125 6.2002C28.575 6.2002 29.1744 6.34774 29.7111 6.64317C30.2478 6.9386 30.6712 7.3602 30.9815 7.90866C31.2915 8.45713 31.447 9.08546 31.447 9.79393C31.447 10.5025 31.2876 11.1311 30.9691 11.6792C30.6502 12.2277 30.2165 12.6516 29.6673 12.951C29.1178 13.2503 28.5122 13.4002 27.8498 13.4002C27.1873 13.4002 26.6045 13.2507 26.0763 12.951L26.076 12.9513ZM28.8873 11.8823C29.21 11.7052 29.4723 11.4393 29.6735 11.0851C29.8748 10.7309 29.9754 10.3007 29.9754 9.79426C29.9754 9.28786 29.879 8.86 29.6859 8.51006C29.4929 8.16006 29.2371 7.8962 28.9186 7.71906C28.5997 7.54193 28.2561 7.4532 27.887 7.4532C27.5179 7.4532 27.1762 7.5416 26.8619 7.71906C26.5473 7.8962 26.2977 8.16006 26.1135 8.51006C25.929 8.86033 25.8368 9.28819 25.8368 9.79426C25.8368 10.5452 26.0276 11.1252 26.4091 11.534C26.7907 11.9431 27.2709 12.1479 27.8494 12.1479C28.2182 12.1479 28.5641 12.0591 28.8873 11.882V11.8823Z" fill="white"/>
<path d="M36.9309 11.877H35.75C34.61 11.877 33.6855 10.9456 33.6855 9.79636V4.3335H32.2402V9.79863C32.2402 11.7509 33.8106 13.3335 35.7477 13.3335H36.9306V11.877H36.9309Z" fill="white"/>
<path d="M38.6287 12.9513C38.1004 12.6519 37.6853 12.23 37.3834 11.6858C37.0816 11.1416 36.9307 10.5113 36.9307 9.79393C36.9307 9.0766 37.0859 8.45713 37.3962 7.90866C37.7061 7.36053 38.1298 6.9386 38.6666 6.64317C39.2033 6.34808 39.8027 6.2002 40.4652 6.2002C41.1277 6.2002 41.7271 6.34774 42.2638 6.64317C42.8006 6.9386 43.2239 7.3602 43.5342 7.90866C43.8442 8.45713 43.9997 9.08546 43.9997 9.79393C43.9997 10.5025 43.8403 11.1311 43.5218 11.6792C43.203 12.2277 42.7692 12.6516 42.22 12.951C41.6706 13.2503 41.0649 13.4002 40.4025 13.4002C39.74 13.4002 39.1572 13.2507 38.629 12.951L38.6287 12.9513ZM41.44 11.8823C41.7627 11.7052 42.025 11.4393 42.2263 11.0851C42.4275 10.7309 42.5281 10.3007 42.5281 9.79426C42.5281 9.28786 42.4317 8.86 42.2387 8.51006C42.0456 8.16006 41.7898 7.8962 41.4713 7.71906C41.1525 7.54193 40.8089 7.4532 40.4397 7.4532C40.0706 7.4532 39.7289 7.5416 39.4146 7.71906C39.1001 7.8962 38.8505 8.16006 38.6662 8.51006C38.4817 8.86033 38.3895 9.28819 38.3895 9.79426C38.3895 10.5452 38.5803 11.1252 38.9619 11.534C39.3434 11.9431 39.8236 12.1479 40.4022 12.1479C40.771 12.1479 41.1169 12.0591 41.44 11.882V11.8823Z" fill="white"/>
</g>
<defs>
<radialGradient id="paint0_radial_12585_342048" cx="0" cy="0" r="1" gradientTransform="matrix(6.20028 -2.50182 2.66232 6.60707 9.85245 9.95586)" gradientUnits="userSpaceOnUse">
<stop offset="0.291041" stop-color="white"/>
<stop offset="1" stop-color="white" stop-opacity="0"/>
</radialGradient>
<radialGradient id="paint1_radial_12585_342048" cx="0" cy="0" r="1" gradientTransform="matrix(-16.7341 2.80205 -7.23406 -18.7022 11.9233 1.76776)" gradientUnits="userSpaceOnUse">
<stop stop-color="white" stop-opacity="0"/>
<stop offset="0.5" stop-color="white"/>
</radialGradient>
<clipPath id="clip0_12585_342048">
<rect width="44" height="16" fill="white"/>
</clipPath>
</defs>
</svg>
