<svg width="24" height="24" viewBox="0 0 24 24" fill="none" xmlns="http://www.w3.org/2000/svg">
<rect x="2" y="2" width="20" height="20" rx="10" fill="#FF5B00"/>
<path fill-rule="evenodd" clip-rule="evenodd" d="M16.6286 7.87239C15.7655 7.46484 14.8426 7.16865 13.8778 7C13.7593 7.21621 13.6209 7.50701 13.5254 7.73835C12.4998 7.58268 11.4836 7.58268 10.4769 7.73835C10.3814 7.50701 10.2398 7.21621 10.1203 7C9.15443 7.16865 8.23052 7.46593 7.36742 7.87455C5.62656 10.5295 5.15464 13.1186 5.3906 15.6708C6.54524 16.541 7.66421 17.0697 8.7643 17.4156C9.03592 17.0383 9.27817 16.6373 9.48686 16.2146C9.0894 16.0622 8.70872 15.8741 8.34903 15.6557C8.44445 15.5844 8.53779 15.5098 8.62797 15.433C10.8219 16.4686 13.2056 16.4686 15.3733 15.433C15.4645 15.5098 15.5578 15.5844 15.6522 15.6557C15.2915 15.8751 14.9098 16.0632 14.5123 16.2157C14.721 16.6373 14.9622 17.0394 15.2348 17.4167C16.336 17.0707 17.456 16.5421 18.6106 15.6708C18.8875 12.7121 18.1377 10.1468 16.6286 7.87239ZM9.78575 14.1012C9.12716 14.1012 8.58707 13.4807 8.58707 12.7251C8.58707 11.9694 9.11563 11.3479 9.78575 11.3479C10.4559 11.3479 10.996 11.9683 10.9844 12.7251C10.9855 13.4807 10.4559 14.1012 9.78575 14.1012ZM13.0168 12.7251C13.0168 13.4807 13.5569 14.1012 14.2155 14.1012C14.8856 14.1012 15.4142 13.4807 15.4142 12.7251C15.4257 11.9683 14.8856 11.3479 14.2155 11.3479C13.5454 11.3479 13.0168 11.9694 13.0168 12.7251Z" fill="white"/>
</svg>
