<svg width="24" height="24" viewBox="0 0 24 24" fill="none" xmlns="http://www.w3.org/2000/svg">
<path d="M7.31543 21.1729C5.43457 21.1729 4.45898 20.1885 4.45898 18.29V5.02734C4.45898 3.1377 5.43457 2.14453 7.31543 2.14453H11.5518C12.6504 2.14453 13.2568 2.32031 13.9951 3.06738L18.6094 7.76074C19.374 8.53418 19.5322 9.09668 19.5322 10.3184V18.29C19.5322 20.1797 18.5566 21.1729 16.6758 21.1729H7.31543ZM7.45605 19.4502H16.5264C17.3789 19.4502 17.8096 19.002 17.8096 18.1846V10.5469H13.0723C11.8242 10.5469 11.2002 9.94043 11.2002 8.68359V3.86719H7.45605C6.60352 3.86719 6.18164 4.32422 6.18164 5.13281V18.1846C6.18164 19.002 6.60352 19.4502 7.45605 19.4502ZM13.2305 9.03516H17.5723L12.7207 4.10449V8.5166C12.7207 8.87695 12.8701 9.03516 13.2305 9.03516ZM15.1289 12.8584C15.4453 12.8584 15.6826 13.1045 15.6826 13.4121C15.6826 13.7285 15.4453 13.9746 15.1289 13.9746H8.69531C8.36133 13.9746 8.12402 13.7285 8.12402 13.4121C8.12402 13.1045 8.36133 12.8584 8.69531 12.8584H15.1289ZM15.1289 15.8115C15.4453 15.8115 15.6826 16.0576 15.6826 16.374C15.6826 16.6816 15.4453 16.9189 15.1289 16.9189H8.69531C8.36133 16.9189 8.12402 16.6816 8.12402 16.374C8.12402 16.0576 8.36133 15.8115 8.69531 15.8115H15.1289Z" />
</svg>
