<svg width="24" height="24" viewBox="0 0 24 24" fill="none" xmlns="http://www.w3.org/2000/svg">
  <path d="M12 19.126C8.1377 19.126 4.93848 15.9336 4.93848 12.0645C4.93848 8.20215 8.13086 5.00293 11.9932 5.00293C15.8623 5.00293 19.0615 8.20215 19.0615 12.0645C19.0615 15.9336 15.8623 19.126 12 19.126ZM11.959 9.72656C12.499 9.72656 12.9297 9.28906 12.9297 8.74902C12.9297 8.19531 12.499 7.76465 11.959 7.76465C11.4189 7.76465 10.9814 8.19531 10.9814 8.74902C10.9814 9.28906 11.4189 9.72656 11.959 9.72656ZM10.7422 16.002H13.627C13.9482 16.002 14.2012 15.7695 14.2012 15.4414C14.2012 15.1406 13.9482 14.8945 13.627 14.8945H12.8408V11.5381C12.8408 11.1074 12.6221 10.8271 12.2188 10.8271H10.8721C10.5508 10.8271 10.3047 11.0732 10.3047 11.374C10.3047 11.7021 10.5508 11.9346 10.8721 11.9346H11.5898V14.8945H10.7422C10.4209 14.8945 10.1748 15.1406 10.1748 15.4414C10.1748 15.7695 10.4209 16.002 10.7422 16.002Z" stroke="none" />
</svg>
