<svg width="24" height="24" viewBox="0 0 24 24" fill="none" xmlns="http://www.w3.org/2000/svg">
<rect x="2" y="2" width="20" height="20" rx="10" fill="#FF5B00"/>
<g clip-path="url(#clip0_5130_92049)">
<path d="M17.2174 15.0612C17.6504 15.0612 18 14.7331 18 14.3265V9.91837C18 9.51184 17.6504 9.18367 17.2174 9.18367C16.7843 9.18367 16.4348 9.51184 16.4348 9.91837C16.4348 10.0555 16.5496 10.1633 16.6957 10.1633C16.8417 10.1633 16.9565 10.0555 16.9565 9.91837C16.9565 9.78122 17.0713 9.67347 17.2174 9.67347C17.3635 9.67347 17.4783 9.78122 17.4783 9.91837V14.3265C17.4783 14.4637 17.3635 14.5714 17.2174 14.5714C17.0713 14.5714 16.9565 14.4637 16.9565 14.3265V11.3878C16.9565 10.9812 16.607 10.6531 16.1739 10.6531C16.0278 10.6531 15.913 10.5453 15.913 10.4082V8.44898C15.913 8.31184 16.0278 8.20408 16.1739 8.20408C16.32 8.20408 16.4348 8.31184 16.4348 8.44898C16.4348 8.58612 16.5496 8.69388 16.6957 8.69388C16.8417 8.69388 16.9565 8.58612 16.9565 8.44898C16.9565 8.04245 16.607 7.71429 16.1739 7.71429C15.7409 7.71429 15.3913 8.04245 15.3913 8.44898V11.3878V12.3673C15.3913 12.5045 15.2765 12.6122 15.1304 12.6122C14.9843 12.6122 14.8696 12.5045 14.8696 12.3673V11.3878V8.69388C14.8696 7.2098 13.5809 6 12 6C10.4191 6 9.13043 7.2098 9.13043 8.69388V11.3878V12.3673C9.13043 12.5045 9.01565 12.6122 8.86957 12.6122C8.72348 12.6122 8.6087 12.5045 8.6087 12.3673V11.3878V8.44898C8.6087 8.04245 8.25913 7.71429 7.82609 7.71429C7.39304 7.71429 7.04348 8.04245 7.04348 8.44898C7.04348 8.58612 7.15826 8.69388 7.30435 8.69388C7.45043 8.69388 7.56522 8.58612 7.56522 8.44898C7.56522 8.31184 7.68 8.20408 7.82609 8.20408C7.97217 8.20408 8.08696 8.31184 8.08696 8.44898V10.4082C8.08696 10.5453 7.97217 10.6531 7.82609 10.6531C7.39304 10.6531 7.04348 10.9812 7.04348 11.3878V14.3265C7.04348 14.4637 6.9287 14.5714 6.78261 14.5714C6.63652 14.5714 6.52174 14.4637 6.52174 14.3265V9.91837C6.52174 9.78122 6.63652 9.67347 6.78261 9.67347C6.9287 9.67347 7.04348 9.78122 7.04348 9.91837C7.04348 10.0555 7.15826 10.1633 7.30435 10.1633C7.45043 10.1633 7.56522 10.0555 7.56522 9.91837C7.56522 9.51184 7.21565 9.18367 6.78261 9.18367C6.34957 9.18367 6 9.51184 6 9.91837V14.3265C6 14.7331 6.34957 15.0612 6.78261 15.0612C7.21565 15.0612 7.56522 14.7331 7.56522 14.3265V11.3878C7.56522 11.2506 7.68 11.1429 7.82609 11.1429C7.97217 11.1429 8.08696 11.2506 8.08696 11.3878V12.3673C8.08696 12.7739 8.43652 13.102 8.86957 13.102C9.30261 13.102 9.65217 12.7739 9.65217 12.3673V11.3878C9.65217 11.2506 9.76696 11.1429 9.91304 11.1429C10.0591 11.1429 10.1739 11.2506 10.1739 11.3878V11.8776V14.8163C10.1739 14.9535 10.0591 15.0612 9.91304 15.0612C9.76696 15.0612 9.65217 14.9535 9.65217 14.8163V14.3265C9.65217 13.92 9.30261 13.5918 8.86957 13.5918C8.43652 13.5918 8.08696 13.92 8.08696 14.3265V15.7959C8.08696 15.9331 7.97217 16.0408 7.82609 16.0408C7.68 16.0408 7.56522 15.9331 7.56522 15.7959C7.56522 15.6588 7.45043 15.551 7.30435 15.551C7.15826 15.551 7.04348 15.6588 7.04348 15.7959C7.04348 16.2024 7.39304 16.5306 7.82609 16.5306C8.25913 16.5306 8.6087 16.2024 8.6087 15.7959V14.3265C8.6087 14.1894 8.72348 14.0816 8.86957 14.0816C9.01565 14.0816 9.13043 14.1894 9.13043 14.3265V14.8163C9.13043 15.2229 9.48 15.551 9.91304 15.551C10.3461 15.551 10.6957 15.2229 10.6957 14.8163V11.8776C10.6957 11.7404 10.8104 11.6327 10.9565 11.6327C11.1026 11.6327 11.2174 11.7404 11.2174 11.8776V17.2653C11.2174 17.4024 11.1026 17.5102 10.9565 17.5102C10.8104 17.5102 10.6957 17.4024 10.6957 17.2653V16.7755C10.6957 16.369 10.3461 16.0408 9.91304 16.0408C9.48 16.0408 9.13043 16.369 9.13043 16.7755C9.13043 16.9127 9.24522 17.0204 9.3913 17.0204C9.53739 17.0204 9.65217 16.9127 9.65217 16.7755C9.65217 16.6384 9.76696 16.5306 9.91304 16.5306C10.0591 16.5306 10.1739 16.6384 10.1739 16.7755V17.2653C10.1739 17.6718 10.5235 18 10.9565 18C11.3896 18 11.7391 17.6718 11.7391 17.2653V11.8776V10.898C11.7391 10.7608 11.8539 10.6531 12 10.6531C12.1461 10.6531 12.2609 10.7608 12.2609 10.898V11.8776V17.2653C12.2609 17.6718 12.6104 18 13.0435 18C13.4765 18 13.8261 17.6718 13.8261 17.2653V16.7755C13.8261 16.6384 13.9409 16.5306 14.087 16.5306C14.233 16.5306 14.3478 16.6384 14.3478 16.7755C14.3478 16.9127 14.4626 17.0204 14.6087 17.0204C14.7548 17.0204 14.8696 16.9127 14.8696 16.7755C14.8696 16.369 14.52 16.0408 14.087 16.0408C13.6539 16.0408 13.3043 16.369 13.3043 16.7755V17.2653C13.3043 17.4024 13.1896 17.5102 13.0435 17.5102C12.8974 17.5102 12.7826 17.4024 12.7826 17.2653V11.8776C12.7826 11.7404 12.8974 11.6327 13.0435 11.6327C13.1896 11.6327 13.3043 11.7404 13.3043 11.8776V14.8163C13.3043 15.2229 13.6539 15.551 14.087 15.551C14.52 15.551 14.8696 15.2229 14.8696 14.8163V14.3265C14.8696 14.1894 14.9843 14.0816 15.1304 14.0816C15.2765 14.0816 15.3913 14.1894 15.3913 14.3265V15.7959C15.3913 16.2024 15.7409 16.5306 16.1739 16.5306C16.607 16.5306 16.9565 16.2024 16.9565 15.7959C16.9565 15.6588 16.8417 15.551 16.6957 15.551C16.5496 15.551 16.4348 15.6588 16.4348 15.7959C16.4348 15.9331 16.32 16.0408 16.1739 16.0408C16.0278 16.0408 15.913 15.9331 15.913 15.7959V14.3265C15.913 13.92 15.5635 13.5918 15.1304 13.5918C14.6974 13.5918 14.3478 13.92 14.3478 14.3265V14.8163C14.3478 14.9535 14.233 15.0612 14.087 15.0612C13.9409 15.0612 13.8261 14.9535 13.8261 14.8163V11.8776V11.3878C13.8261 11.2506 13.9409 11.1429 14.087 11.1429C14.233 11.1429 14.3478 11.2506 14.3478 11.3878V12.3673C14.3478 12.7739 14.6974 13.102 15.1304 13.102C15.5635 13.102 15.913 12.7739 15.913 12.3673V11.3878C15.913 11.2506 16.0278 11.1429 16.1739 11.1429C16.32 11.1429 16.4348 11.2506 16.4348 11.3878V14.3265C16.4348 14.7331 16.7843 15.0612 17.2174 15.0612ZM12 6.4898C13.2939 6.4898 14.3478 7.47918 14.3478 8.69388C14.3478 8.83102 14.233 8.93878 14.087 8.93878H13.5652C13.2261 8.93878 12.9339 9.14449 12.8296 9.42857H11.1757C11.0661 9.14449 10.7791 8.93878 10.44 8.93878H9.91304C9.76696 8.93878 9.65217 8.83102 9.65217 8.69388C9.65217 7.47918 10.7061 6.4898 12 6.4898ZM13.8261 9.67347V9.91837C13.8261 10.0555 13.7113 10.1633 13.5652 10.1633C13.4191 10.1633 13.3043 10.0555 13.3043 9.91837V9.67347C13.3043 9.53633 13.4191 9.42857 13.5652 9.42857C13.7113 9.42857 13.8261 9.53633 13.8261 9.67347ZM10.4348 9.42857C10.5809 9.42857 10.6957 9.53633 10.6957 9.67347V9.91837C10.6957 10.0555 10.5809 10.1633 10.4348 10.1633C10.2887 10.1633 10.1739 10.0555 10.1739 9.91837V9.67347C10.1739 9.53633 10.2887 9.42857 10.4348 9.42857Z" fill="white"/>
</g>
<defs>
<clipPath id="clip0_5130_92049">
<rect width="12" height="12" fill="white" transform="translate(6 6)"/>
</clipPath>
</defs>
</svg>
