<svg width="24" height="24" viewBox="0 0 24 24" fill="none" xmlns="http://www.w3.org/2000/svg">
  <path
    d="m 6.2340134,11.000494 c 0,0.423243 0.3431425,0.766385 0.7664456,0.766385 0.4232431,0 0.7663856,-0.343142 0.7663856,-0.766385 z M 7.000459,7.0004443 H 6.2340134 Z M 12.000476,2.0004096 V 1.234 Z m 4.233631,9.0000844 c 0,0.423243 0.343142,0.766385 0.766385,0.766385 0.423303,0 0.766446,-0.343142 0.766446,-0.766385 z M 5.0004223,11.766879 H 19.000547 V 10.234048 H 5.0004223 Z m 14.0001247,0 c 0.681305,0 1.233609,0.552304 1.233609,1.233609 h 1.532771 c 0,-1.527851 -1.238529,-2.76644 -2.76638,-2.76644 z m 1.233609,1.233609 v 7.000072 h 1.532771 v -7.000072 z m 0,7.000072 c 0,0.681305 -0.552304,1.233609 -1.233609,1.233609 V 22.767 c 1.527851,0 2.76638,-1.238589 2.76638,-2.76644 z m -1.233609,1.233609 H 5.0004223 V 22.767 H 19.000547 Z m -14.0001247,0 c -0.681299,0 -1.2336031,-0.552304 -1.2336031,-1.233609 H 2.234 c 0,1.527851 1.2385711,2.76644 2.7664223,2.76644 z M 3.7668192,20.00056 V 13.000488 H 2.234 v 7.000072 z m 0,-7.000072 c 0,-0.681305 0.5523041,-1.233609 1.2336031,-1.233609 V 10.234048 C 3.4725711,10.234048 2.234,11.472637 2.234,13.000488 Z M 7.7668446,11.000494 V 7.0004443 H 6.2340134 v 4.0000497 z m 0,-4.0000497 c 0,-1.1228242 0.4460433,-2.1996641 1.2400294,-2.99362 L 7.9229657,2.9229524 C 6.8415778,4.0043703 6.2340134,5.4710931 6.2340134,7.0004443 Z M 9.006874,4.0068243 C 9.8008,3.2128625 10.877627,2.7668252 12.000476,2.7668252 V 1.234 c -1.529352,0 -2.996062,0.6075345 -4.0775103,1.6889524 z m 2.993602,-1.2399991 c 1.122848,0 2.199676,0.4460373 2.993602,1.2399991 L 16.077986,2.9229524 C 14.996538,1.8415345 13.529827,1.234 12.000476,1.234 Z m 2.993602,1.2399991 c 0.793985,0.7939559 1.240029,1.8707958 1.240029,2.99362 h 1.532831 c 0,-1.5293512 -0.607564,-2.996074 -1.688952,-4.0774919 z m 1.240029,2.99362 v 4.0000497 h 1.532831 V 7.0004443 Z"
  />
</svg>
