<svg width="24" height="24" viewBox="0 0 24 24" fill="none" xmlns="http://www.w3.org/2000/svg">
<rect x="2" y="2" width="20" height="20" rx="10" fill="#FF5B00"/>
<path fill-rule="evenodd" clip-rule="evenodd" d="M17.7551 10.8064C18.289 11.0192 18.6461 11.5209 18.6671 12.0877C18.6759 12.6419 18.3605 13.1518 17.8564 13.3985C17.8676 13.5428 17.8676 13.6878 17.8564 13.8322C17.8564 16.0399 15.2439 17.8337 12.0208 17.8337C8.79775 17.8337 6.18527 16.0399 6.18527 13.8322C6.174 13.6878 6.174 13.5428 6.18527 13.3985C5.65917 13.1605 5.32537 12.6391 5.33415 12.0691C5.34294 11.4991 5.69264 10.9879 6.22583 10.7657C6.75902 10.5436 7.37514 10.6523 7.7968 11.0429C8.95017 10.2727 10.3071 9.85133 11.7005 9.83064L12.4412 6.41063C12.458 6.33066 12.5066 6.26064 12.5762 6.2162C12.6458 6.17175 12.7306 6.15659 12.8116 6.17409L15.2639 6.65703C15.5113 6.23851 16.0308 6.05896 16.4896 6.23341C16.9484 6.40786 17.2105 6.88464 17.108 7.35825C17.0055 7.83187 16.5687 8.162 16.0776 8.13712C15.5864 8.11223 15.1864 7.73972 15.1338 7.25824L12.9917 6.81473L12.3411 9.88978C13.7176 9.91885 15.0561 10.3399 16.1948 11.1021C16.6103 10.7094 17.2213 10.5936 17.7551 10.8064ZM9.65857 12.0877C9.10576 12.0877 8.65762 12.5289 8.65762 13.0732C8.65762 13.3346 8.76308 13.5853 8.95079 13.7702C9.13851 13.955 9.3931 14.0588 9.65857 14.0588C10.2114 14.0588 10.6595 13.6176 10.6595 13.0732C10.6595 12.5289 10.2114 12.0877 9.65857 12.0877ZM14.4732 15.7836C13.763 16.3106 12.8893 16.5788 12.0008 16.5425C11.1123 16.5788 10.2386 16.3106 9.52845 15.7836C9.44026 15.6778 9.44797 15.5234 9.54626 15.4266C9.64455 15.3299 9.80136 15.3223 9.90881 15.4091C10.5106 15.8437 11.2452 16.0628 11.9908 16.03C12.7373 16.07 13.4753 15.8579 14.0828 15.4288C14.1543 15.3601 14.2576 15.3343 14.3537 15.3609C14.4499 15.3876 14.5243 15.4627 14.5489 15.558C14.5736 15.6534 14.5447 15.7544 14.4732 15.823V15.7836ZM13.292 13.1127C13.292 13.657 13.7402 14.0983 14.293 14.0983L14.283 14.1377C14.5573 14.1406 14.8207 14.0326 15.0118 13.8388C15.2029 13.645 15.3049 13.3825 15.2939 13.1127C15.2939 12.5683 14.8458 12.1271 14.293 12.1271C13.7402 12.1271 13.292 12.5683 13.292 13.1127Z" fill="white"/>
</svg>
