<svg viewBox="0 0 92 92" xmlns="http://www.w3.org/2000/svg">
  <g fill-rule="evenodd" clip-rule="evenodd" stroke="none">
    <path
      d="M46 71.7143C60.2016 71.7143 71.7143 60.2016 71.7143 46C71.7143 31.7984 60.2016 20.2857 46 20.2857C31.7984 20.2857 20.2857 31.7984 20.2857 46C20.2857 60.2016 31.7984 71.7143 46 71.7143ZM76 46C76 62.5685 62.5685 76 46 76C29.4315 76 16 62.5685 16 46C16 29.4315 29.4315 16 46 16C62.5685 16 76 29.4315 76 46Z"
    />
    <path
      d="M41.2734 39.3215C41.2734 41.1558 39.6863 42.643 37.7284 42.643C35.7706 42.643 34.1834 41.1558 34.1834 39.3215C34.1834 37.4871 35.7706 36 37.7284 36C39.6863 36 41.2734 37.4871 41.2734 39.3215ZM58.1994 55.4466C59.1786 54.638 59.2726 53.2387 58.4093 52.3214C56.8568 50.6715 54.9475 49.3499 52.8077 48.4447C50.6682 47.5397 48.3476 47.0716 45.9999 47.0716C43.6524 47.0716 41.3318 47.5397 39.1922 48.4447C37.0525 49.3499 35.1431 50.6715 33.5906 52.3214C32.7274 53.2387 32.8214 54.638 33.8005 55.4466C34.7795 56.2553 36.273 56.1674 37.1361 55.25C38.245 54.0716 39.609 53.1276 41.1372 52.481C42.6654 51.8346 44.3231 51.5003 45.9999 51.5003C47.6769 51.5003 49.3346 51.8346 50.8627 52.481C52.3911 53.1276 53.7549 54.0716 54.8638 55.25C55.7269 56.1674 57.2203 56.2553 58.1994 55.4466ZM54.2718 42.643C56.2296 42.643 57.8168 41.1558 57.8168 39.3215C57.8168 37.4871 56.2296 36 54.2718 36C52.314 36 50.7268 37.4871 50.7268 39.3215C50.7268 41.1558 52.314 42.643 54.2718 42.643Z"
    />
  </g>
</svg>
