<svg width="24" height="24" viewBox="0 0 24 24" fill="none" xmlns="http://www.w3.org/2000/svg">
<rect x="2" y="2" width="20" height="20" rx="10" fill="#FF5B00"/>
<path d="M6.49474 12.0168C9.40278 10.782 11.3419 9.96792 12.3122 9.5746C15.0825 8.45159 15.6581 8.25651 16.0333 8.25007C16.1158 8.24865 16.3003 8.26858 16.4199 8.3631C16.5208 8.44291 16.5485 8.55072 16.5618 8.62639C16.5751 8.70206 16.5917 8.87444 16.5785 9.00912C16.4284 10.5464 15.7788 14.2771 15.4483 15.9989C15.3085 16.7275 15.0332 16.9718 14.7666 16.9957C14.1873 17.0476 13.7474 16.6225 13.1864 16.2641C12.3084 15.7032 11.8124 15.354 10.9602 14.8067C9.97529 14.1741 10.6137 13.8265 11.175 13.2583C11.3219 13.1096 13.8743 10.8469 13.9237 10.6417C13.9299 10.616 13.9356 10.5203 13.8773 10.4698C13.819 10.4193 13.7329 10.4365 13.6708 10.4503C13.5827 10.4698 12.1801 11.3733 9.46305 13.1608C9.06494 13.4273 8.70434 13.5571 8.38125 13.5503C8.02508 13.5428 7.33994 13.354 6.83061 13.1926C6.2059 12.9947 5.70939 12.8901 5.75262 12.554C5.77514 12.3789 6.02251 12.1998 6.49474 12.0168Z" fill="white"/>
</svg>
