<svg width="24" height="24" viewBox="0 0 24 24" fill="none" xmlns="http://www.w3.org/2000/svg">
<rect x="2" y="2" width="20" height="20" rx="10" fill="#FF5B00"/>
<path fill-rule="evenodd" clip-rule="evenodd" d="M17.1953 7.69401C17.7687 7.84511 18.2223 8.29001 18.3763 8.85243C18.6588 9.87655 18.6673 12.0003 18.6673 12.0003C18.6673 12.0003 18.6673 14.1325 18.3849 15.1482C18.2309 15.7106 17.7773 16.1555 17.2039 16.3066C16.1684 16.5837 12.0007 16.5837 12.0007 16.5837C12.0007 16.5837 7.83291 16.5837 6.7974 16.3066C6.22401 16.1555 5.77044 15.7106 5.6164 15.1482C5.33398 14.1241 5.33398 12.0003 5.33398 12.0003C5.33398 12.0003 5.33398 9.87655 5.60784 8.86083C5.76188 8.2984 6.21546 7.8535 6.78884 7.7024C7.82436 7.42539 11.9921 7.41699 11.9921 7.41699C11.9921 7.41699 16.1598 7.41699 17.1953 7.69401ZM14.123 12.0003L10.6656 13.9646V10.036L14.123 12.0003Z" fill="white"/>
</svg>
