<svg width="36" height="36" viewBox="0 0 36 36" fill="none" xmlns="http://www.w3.org/2000/svg">
<circle cx="18" cy="18" r="15" fill="#2E5CFF"/>
<path d="M24 24.6711C24 25.3786 24 25.7324 23.7735 25.9077C23.5471 26.0831 23.2138 25.9875 22.5472 25.7964L11.8347 22.7247C11.4331 22.6095 11.2322 22.5519 11.1161 22.3954C11 22.2388 11 22.0257 11 21.5994V14.4006C11 13.9744 11 13.7612 11.1161 13.6047C11.2322 13.4481 11.4331 13.3905 11.8347 13.2754L22.5472 10.2036C23.2138 10.0125 23.5471 9.9169 23.7735 10.0923C24 10.2677 24 10.6214 24 11.3289V24.6711ZM13.6716 21.7232L22.5416 24.2669V19.1798L13.6716 21.7232ZM12.4582 20.5431L21.3264 18L12.4582 15.4569V20.5431ZM13.6715 14.2769L22.5416 16.8203V11.7332L13.6715 14.2769Z" fill="white"/>
</svg>
