<svg width="20px" height="20px" viewBox="0 0 20 20" xmlns="http://www.w3.org/2000/svg">
  <path d="M 1.808594 6.078125 L 1.808594 13.921875 C 1.808594 14.425781 2.070312 14.878906 2.511719 15.136719 L 9.304688 19.054688 C 9.734375 19.304688 10.273438 19.304688 10.703125 19.054688 L 17.496094 15.136719 C 17.929688 14.886719 18.199219 14.425781 18.199219 13.921875 L 18.199219 6.078125 C 18.199219 5.574219 17.9375 5.121094 17.496094 4.863281 L 10.703125 0.945312 C 10.273438 0.695312 9.734375 0.695312 9.304688 0.945312 L 2.511719 4.863281 C 2.078125 5.113281 1.816406 5.574219 1.816406 6.078125 Z M 1.808594 6.078125"
  fill="#213148" />
  <path d="M 11.480469 11.519531 L 10.511719 14.175781 C 10.488281 14.246094 10.488281 14.328125 10.511719 14.40625 L 12.175781 18.976562 L 14.105469 17.863281 L 11.792969 11.519531 C 11.734375 11.375 11.535156 11.375 11.480469 11.519531 Z M 11.480469 11.519531"
  fill="#12AAFF"
  />
  <path d="M 13.425781 7.054688 C 13.367188 6.910156 13.167969 6.910156 13.113281 7.054688 L 12.144531 9.710938 C 12.121094 9.785156 12.121094 9.863281 12.144531 9.945312 L 14.871094 17.425781 L 16.800781 16.3125 L 13.425781 7.0625 Z M 13.425781 7.054688"
  fill="#12AAFF"
  />
  <path d="M 10 1.238281 C 10.046875 1.238281 10.097656 1.257812 10.136719 1.28125 L 17.480469 5.519531 C 17.566406 5.566406 17.617188 5.664062 17.617188 5.761719 L 17.617188 14.238281 C 17.617188 14.335938 17.558594 14.433594 17.480469 14.480469 L 10.136719 18.71875 C 10.097656 18.742188 10.046875 18.761719 10 18.761719 C 9.953125 18.761719 9.902344 18.742188 9.863281 18.71875 L 2.519531 14.480469 C 2.433594 14.433594 2.382812 14.335938 2.382812 14.238281 L 2.382812 5.753906 C 2.382812 5.65625 2.441406 5.558594 2.519531 5.511719 L 9.863281 1.273438 C 9.902344 1.246094 9.953125 1.230469 10 1.230469 Z M 10 0 C 9.734375 0 9.480469 0.0625 9.238281 0.199219 L 1.894531 4.441406 C 1.425781 4.710938 1.136719 5.207031 1.136719 5.753906 L 1.136719 14.230469 C 1.136719 14.777344 1.425781 15.273438 1.894531 15.542969 L 9.238281 19.785156 C 9.472656 19.921875 9.734375 19.984375 10 19.984375 C 10.265625 19.984375 10.519531 19.921875 10.761719 19.785156 L 18.105469 15.542969 C 18.574219 15.273438 18.863281 14.777344 18.863281 14.230469 L 18.863281 5.753906 C 18.863281 5.207031 18.574219 4.710938 18.105469 4.441406 L 10.753906 0.199219 C 10.519531 0.0625 10.257812 0 9.992188 0 Z M 10 0"
  fill="#9DD0ED"
  />
  <path d="M 5.136719 17.433594 L 5.816406 15.574219 L 7.175781 16.703125 L 5.902344 17.871094 Z M 5.136719 17.433594"
  fill="#213148" />
  <path d="M 9.375 5.152344 L 7.511719 5.152344 C 7.375 5.152344 7.246094 5.238281 7.199219 5.367188 L 3.207031 16.3125 L 5.136719 17.425781 L 9.535156 5.367188 C 9.574219 5.257812 9.496094 5.144531 9.382812 5.144531 Z M 9.375 5.152344"
  fill="#FFFFFF" />
  <path d="M 12.640625 5.152344 L 10.777344 5.152344 C 10.640625 5.152344 10.511719 5.238281 10.464844 5.367188 L 5.902344 17.863281 L 7.832031 18.976562 L 12.792969 5.367188 C 12.832031 5.257812 12.753906 5.144531 12.640625 5.144531 Z M 12.640625 5.152344"
  fill="#FFFFFF" />
</svg>
