<svg width="20px" height="20px" viewBox="0 0 20 20" xmlns="http://www.w3.org/2000/svg">
  <path
    d="M 3.820312 3.429688 L 16.167969 3.429688 L 16.167969 14.652344 L 3.820312 14.652344 Z M 3.820312 3.429688"
    fill="#FFFFFF" />
  <path
    d="M 19.992188 10 C 19.992188 15.515625 15.519531 19.988281 10 19.988281 C 4.480469 19.988281 0.0078125 15.515625 0.0078125 10 C 0.0078125 4.484375 4.480469 0.0117188 10 0.0117188 C 15.519531 0.0117188 19.992188 4.484375 19.992188 10 Z M 7.167969 13.972656 L 5.230469 13.972656 C 4.820312 13.972656 4.621094 13.972656 4.496094 13.894531 C 4.363281 13.808594 4.285156 13.667969 4.273438 13.511719 C 4.265625 13.367188 4.367188 13.1875 4.566406 12.835938 L 9.355469 4.402344 C 9.5625 4.042969 9.664062 3.863281 9.792969 3.796875 C 9.933594 3.726562 10.101562 3.726562 10.242188 3.796875 C 10.371094 3.863281 10.472656 4.042969 10.679688 4.402344 L 11.664062 6.117188 L 11.667969 6.125 C 11.886719 6.511719 12 6.707031 12.046875 6.910156 C 12.101562 7.132812 12.101562 7.371094 12.046875 7.59375 C 12 7.796875 11.886719 7.996094 11.664062 8.386719 L 9.148438 12.828125 L 9.144531 12.839844 C 8.921875 13.226562 8.808594 13.421875 8.652344 13.570312 C 8.484375 13.734375 8.28125 13.851562 8.058594 13.917969 C 7.851562 13.972656 7.625 13.972656 7.167969 13.972656 Z M 12.066406 13.972656 L 14.84375 13.972656 C 15.253906 13.972656 15.460938 13.972656 15.582031 13.894531 C 15.714844 13.808594 15.800781 13.664062 15.808594 13.503906 C 15.8125 13.367188 15.714844 13.195312 15.523438 12.863281 C 15.515625 12.851562 15.507812 12.839844 15.503906 12.828125 L 14.109375 10.449219 L 14.09375 10.421875 C 13.898438 10.089844 13.800781 9.925781 13.675781 9.859375 C 13.535156 9.789062 13.371094 9.789062 13.230469 9.859375 C 13.101562 9.925781 13 10.101562 12.796875 10.453125 L 11.40625 12.832031 L 11.402344 12.839844 C 11.199219 13.191406 11.097656 13.363281 11.105469 13.507812 C 11.117188 13.664062 11.195312 13.808594 11.328125 13.894531 C 11.449219 13.972656 11.65625 13.972656 12.066406 13.972656 Z M 12.066406 13.972656"
    fill="#E84142" fill-rule="evenodd" />
</svg>
