<svg width="20" height="20" viewBox="0 0 20 20" xmlns="http://www.w3.org/2000/svg">
  <path
    d="M11.5497 15.5076V17.3754L9.92137 18.3333L8.34092 17.3754V15.5076L9.92137 16.4655L11.5497 15.5076ZM2.83325 9.04211L4.41371 9.99996V13.2088L7.1436 14.8371V16.7049L2.83325 14.1666V9.04211ZM17.0095 9.04211V14.1666L12.6513 16.7049V14.8371L15.3811 13.2088V9.99996L17.0095 9.04211ZM12.6513 6.50379L14.2796 7.46165V9.32946L11.5497 10.9578V14.2145L9.96927 15.1724L8.38881 14.2145V10.9578L5.56314 9.32946V7.46165L7.19149 6.50379L9.92137 8.13214L12.6513 6.50379ZM5.56314 10.6705L7.1436 11.6283V13.4961L5.56314 12.5383V10.6705ZM14.2796 10.6705V12.5383L12.6992 13.4961V11.6283L14.2796 10.6705ZM4.41371 4.87544L6.04206 5.83329L4.41371 6.79115V8.65896L2.83325 7.70111V5.83329L4.41371 4.87544ZM15.429 4.87544L17.0574 5.83329V7.70111L15.429 8.65896V6.79115L13.8486 5.83329L15.429 4.87544ZM9.92137 4.87544L11.5497 5.83329L9.92137 6.79115L8.34092 5.83329L9.92137 4.87544ZM9.92137 1.66663L14.2796 4.20494L12.6992 5.1628L9.96927 3.53444L7.19149 5.1628L5.61103 4.20494L9.92137 1.66663Z"
    fill="#F3BA2F" />
</svg>
