<svg width="20" height="20" viewBox="0 0 20 20" xmlns="http://www.w3.org/2000/svg">
  <path
    d="M10.1044 1.66663V7.80157C10.1044 7.82762 10.0784 7.85366 10.0523 7.85366C9.87001 7.93328 9.71375 8.01215 9.53145 8.09102C9.29707 8.19594 9.03664 8.3016 8.80225 8.4333L7.94284 8.82766L7.23968 9.14389L6.38027 9.539C6.14588 9.64466 5.9115 9.74958 5.65107 9.88128C5.46877 9.96015 5.26043 10.0658 5.07813 10.1447C5.05209 10.1447 5.05209 10.1707 5.02604 10.1447H5C5.07813 10.013 5.15626 9.90732 5.23439 9.77636C5.65107 9.06502 6.0938 8.35442 6.51048 7.64308C6.95321 6.8804 7.42198 6.11623 7.86471 5.3528C8.2814 4.64221 8.69808 3.93161 9.11477 3.24705C9.42728 2.7195 9.7398 2.22022 10.0263 1.69267C10.0784 1.69267 10.0784 1.66663 10.1044 1.66663C10.1044 1.66663 10.0784 1.66663 10.1044 1.66663Z"
    fill="#8C8C8C" />
  <path
    d="M15.1567 10.1447C14.7661 10.4081 14.3494 10.6447 13.9588 10.8813C12.6827 11.6455 11.4326 12.3829 10.1565 13.1463C10.1305 13.1463 10.1305 13.1724 10.1044 13.1724C10.0784 13.1724 10.0784 13.1463 10.0784 13.1463V7.85368C10.0784 7.82764 10.1044 7.82764 10.1305 7.82764C10.2346 7.87972 10.3388 7.9333 10.469 7.98538C10.7815 8.14387 11.1201 8.27557 11.4326 8.43332C11.7191 8.56502 11.9795 8.69672 12.266 8.80164C12.5524 8.93334 12.8129 9.06504 13.0993 9.19675C13.3337 9.30241 13.5942 9.40732 13.8285 9.53902C14.0629 9.64468 14.3234 9.7496 14.5577 9.8813C14.74 9.96017 14.9223 10.0658 15.1307 10.1447C15.1307 10.1187 15.1307 10.1447 15.1567 10.1447Z"
    fill="#141414" />
  <path
    d="M10.1045 18.3333C10.0784 18.3333 10.1045 18.3333 10.1045 18.3333C10.0784 18.3333 10.0784 18.3333 10.0524 18.3065C9.53153 17.5699 9.03672 16.8586 8.51586 16.1212L6.95329 13.9098C6.45848 13.1992 5.93762 12.4886 5.44281 11.7504L5.05217 11.1976C5.05217 11.1716 5.02612 11.1716 5.02612 11.1455C5.05217 11.1455 5.05217 11.1716 5.07821 11.1716C5.78137 11.5927 6.51056 12.0139 7.21372 12.435C8.02105 12.9358 8.85442 13.4097 9.66175 13.9098C9.79196 13.9886 9.94822 14.0675 10.0784 14.1464C10.1045 14.1464 10.1045 14.1732 10.1045 14.1992V18.3333Z"
    fill="#8C8C8C" />
  <path
    d="M5 9.86915C5 9.84311 5 9.84311 5 9.86915C5.26043 9.73745 5.52086 9.63254 5.78128 9.50083L6.79696 9.02685C7.05738 8.89515 7.31781 8.79024 7.57824 8.65853C7.94284 8.474 8.33348 8.31626 8.69808 8.13172C8.95851 8.02607 9.21894 7.89436 9.47937 7.78945C9.66167 7.71057 9.84397 7.6317 10.0263 7.52604C10.0523 7.52604 10.0523 7.5 10.0784 7.5V12.8708C10.0523 12.8976 10.0523 12.8708 10.0263 12.8708C9.94814 12.8187 9.87001 12.7919 9.81792 12.7391L5.05209 9.89594C5.02604 9.86915 5 9.86915 5 9.86915ZM15.0786 10.8439C15.0786 10.8699 15.0786 10.8699 15.0525 10.896C13.542 13.0553 12.0316 15.1878 10.5211 17.3472C10.3648 17.5838 10.2086 17.7944 10.0523 18.0317V13.8448C10.3909 13.6342 10.7294 13.4236 11.068 13.2398L15.0525 10.8699C15.0525 10.8439 15.0786 10.8439 15.0786 10.8439Z"
    fill="#3C3C3B" />
  <path
    d="M10.1045 7.82755V1.69409L15.1047 10.0665C15.1308 10.0925 15.1568 10.1186 15.1568 10.1454C15.0526 10.0933 14.9485 10.0397 14.8182 9.98762C14.688 9.93479 14.5578 9.85592 14.4276 9.80309C14.3495 9.77704 14.2713 9.72421 14.1672 9.69743C14.037 9.64534 13.8807 9.56572 13.7505 9.51364C13.6724 9.48685 13.5942 9.43477 13.5161 9.40798L12.9692 9.17136C12.865 9.11853 12.7869 9.09249 12.6827 9.03966C12.5525 8.98683 12.4223 8.90796 12.2921 8.85513C12.214 8.82908 12.1358 8.77625 12.0577 8.75021L11.5108 8.51285C11.4066 8.46076 11.3285 8.43398 11.2243 8.38115C11.0941 8.32906 10.9639 8.24944 10.8337 8.19661C10.7556 8.14453 10.6514 8.11774 10.5733 8.06566L10.1045 7.82829V7.82755Z"
    fill="#343434" />
</svg>
