<svg width="20" height="20" viewBox="0 0 20 20" xmlns="http://www.w3.org/2000/svg">
  <path
    d="M10.0001 18.3333C14.6025 18.3333 18.3334 14.6023 18.3334 9.99996C18.3334 5.39759 14.6025 1.66663 10.0001 1.66663C5.39771 1.66663 1.66675 5.39759 1.66675 9.99996C1.66675 14.6023 5.39771 18.3333 10.0001 18.3333Z"
    fill="#FF0420" />
  <path
    d="M7.57013 12.2133C7.07346 12.2133 6.66679 12.0966 6.35013 11.8633C6.03679 11.6266 5.88013 11.2866 5.88013 10.85C5.88013 10.7566 5.89013 10.6466 5.91013 10.5133C5.96346 10.2133 6.04013 9.85329 6.14013 9.42996C6.42346 8.28329 7.15679 7.70996 8.33679 7.70996C8.65679 7.70996 8.94679 7.76329 9.20013 7.87329C9.45346 7.97663 9.65346 8.13663 9.80013 8.34996C9.94679 8.55996 10.0201 8.80996 10.0201 9.09996C10.0201 9.18663 10.0101 9.29663 9.99013 9.42996C9.92679 9.79996 9.85346 10.1633 9.76346 10.5133C9.61679 11.0833 9.36679 11.5133 9.00679 11.7966C8.65013 12.0766 8.17013 12.2133 7.57013 12.2133ZM7.66013 11.3133C7.89346 11.3133 8.09013 11.2433 8.25346 11.1066C8.42013 10.97 8.54013 10.76 8.61013 10.4733C8.70679 10.08 8.78013 9.73996 8.83013 9.44663C8.84679 9.35996 8.85679 9.26996 8.85679 9.17663C8.85679 8.79663 8.66013 8.60663 8.26346 8.60663C8.03013 8.60663 7.83013 8.67663 7.66346 8.81329C7.50013 8.94996 7.38346 9.15996 7.31346 9.44663C7.23679 9.72663 7.16346 10.0666 7.08679 10.4733C7.07013 10.5566 7.06013 10.6433 7.06013 10.7366C7.05679 11.1233 7.26013 11.3133 7.66013 11.3133Z"
    fill="white" />
  <path
    d="M10.3101 12.1533C10.2634 12.1533 10.2301 12.14 10.2034 12.11C10.1834 12.0766 10.1767 12.04 10.1834 11.9966L11.0467 7.92998C11.0534 7.88332 11.0767 7.84665 11.1167 7.81665C11.1534 7.78665 11.1934 7.77332 11.2367 7.77332H12.9001C13.3634 7.77332 13.7334 7.86998 14.0134 8.05998C14.2967 8.25332 14.4401 8.52998 14.4401 8.89332C14.4401 8.99665 14.4267 9.10665 14.4034 9.21998C14.3001 9.69998 14.0901 10.0533 13.7701 10.2833C13.4567 10.5133 13.0267 10.6266 12.4801 10.6266H11.6367L11.3501 11.9966C11.3401 12.0433 11.3201 12.08 11.2801 12.11C11.2434 12.14 11.2034 12.1533 11.1601 12.1533H10.3101ZM12.5234 9.76332C12.7001 9.76332 12.8501 9.71665 12.9801 9.61998C13.1134 9.52332 13.2001 9.38665 13.2434 9.20665C13.2567 9.13665 13.2634 9.07332 13.2634 9.01998C13.2634 8.89998 13.2267 8.80665 13.1567 8.74332C13.0867 8.67665 12.9634 8.64332 12.7934 8.64332H12.0434L11.8067 9.76332H12.5234Z"
    fill="white" />
</svg>
