<svg width="20" height="20" viewBox="0 0 20 20" xmlns="http://www.w3.org/2000/svg">
  <path
    d="M13.8192 7.42821C13.5424 7.2651 13.1826 7.2651 12.8782 7.42821L10.7195 8.67871L9.25275 9.49428L7.09409 10.7448C6.81734 10.9079 6.45756 10.9079 6.15313 10.7448L4.43727 9.76608C4.16051 9.60297 3.96679 9.30397 3.96679 8.97775V7.04762C3.96679 6.7214 4.13284 6.42237 4.43727 6.25926L6.12546 5.30779C6.40221 5.14468 6.76199 5.14468 7.06642 5.30779L8.75462 6.25926C9.03134 6.42237 9.22509 6.7214 9.22509 7.04762V8.29813L10.6919 7.45539V6.20489C10.6919 5.87867 10.5258 5.57964 10.2214 5.41653L7.09409 3.62233C6.81734 3.45922 6.45756 3.45922 6.15313 3.62233L2.97048 5.41653C2.66605 5.57964 2.5 5.87867 2.5 6.20489V9.82048C2.5 10.1467 2.66605 10.4458 2.97048 10.6089L6.15313 12.403C6.42988 12.5661 6.78967 12.5661 7.09409 12.403L9.25275 11.1797L10.7195 10.337L12.8782 9.11367C13.155 8.95056 13.5147 8.95056 13.8192 9.11367L15.5074 10.0651C15.7841 10.2282 15.9778 10.5273 15.9778 10.8535V12.7836C15.9778 13.1099 15.8118 13.4089 15.5074 13.572L13.8192 14.5506C13.5424 14.7138 13.1826 14.7138 12.8782 14.5506L11.1901 13.5992C10.9133 13.4361 10.7195 13.137 10.7195 12.8108V11.5603L9.25275 12.403V13.6535C9.25275 13.9797 9.41883 14.2788 9.72322 14.4419L12.9059 16.2361C13.1826 16.3992 13.5424 16.3992 13.8468 16.2361L17.0295 14.4419C17.3063 14.2788 17.5 13.9797 17.5 13.6535V10.0379C17.5 9.71173 17.3339 9.41272 17.0295 9.24962L13.8192 7.42821Z"
    fill="#8247E5" />
</svg>
