<?xml version="1.0" encoding="UTF-8"?>
<svg xmlns="http://www.w3.org/2000/svg" xmlns:xlink="http://www.w3.org/1999/xlink" width="30px" height="30px" viewBox="0 0 30 30" version="1.1">
<g id="surface1">
<path style=" stroke:none;fill-rule:nonzero;fill:rgb(100%,57.647061%,11.764706%);fill-opacity:1;" d="M 19.578125 4.128906 C 19.578125 6.40625 17.53125 8.25 15.007812 8.25 C 12.484375 8.25 10.441406 6.40625 10.441406 4.128906 C 10.441406 1.851562 12.484375 0.0078125 15.007812 0.0078125 C 17.53125 0.0078125 19.578125 1.851562 19.578125 4.128906 Z M 19.578125 4.128906 "/>
<path style=" stroke:none;fill-rule:nonzero;fill:rgb(100%,57.647061%,11.764706%);fill-opacity:1;" d="M 27.710938 16.867188 C 25.527344 15.730469 22.730469 16.40625 21.472656 18.378906 C 21.039062 19.058594 20.84375 19.800781 20.863281 20.53125 C 20.90625 22.34375 19.097656 23.289062 17.375 22.351562 C 17.308594 22.316406 17.238281 22.277344 17.167969 22.246094 C 15.425781 21.367188 15.425781 19.5 17.167969 18.625 C 18.59375 17.929688 19.5625 16.566406 19.5625 15 C 19.5625 14.96875 19.5625 14.9375 19.5625 14.90625 L 19.5625 14.910156 C 19.519531 13.089844 21.332031 12.144531 23.058594 13.089844 C 24.4375 13.847656 26.21875 13.917969 27.71875 13.136719 C 29.902344 12 30.648438 9.476562 29.386719 7.507812 C 28.125 5.539062 25.332031 4.863281 23.144531 6 C 21.648438 6.78125 20.828125 8.207031 20.863281 9.664062 C 20.90625 11.476562 19.097656 12.421875 17.378906 11.484375 C 16.683594 11.101562 15.871094 10.878906 14.996094 10.878906 C 14.125 10.878906 13.308594 11.101562 12.617188 11.484375 C 10.898438 12.417969 9.09375 11.472656 9.140625 9.664062 C 9.175781 8.207031 8.351562 6.777344 6.851562 5.996094 C 4.664062 4.863281 1.871094 5.542969 0.613281 7.515625 C -0.644531 9.488281 0.109375 12.007812 2.296875 13.140625 C 3.789062 13.917969 5.566406 13.84375 6.945312 13.089844 C 8.664062 12.148438 10.476562 13.09375 10.429688 14.90625 C 10.429688 14.9375 10.429688 14.96875 10.429688 15 C 10.429688 16.566406 11.398438 17.929688 12.824219 18.625 C 14.566406 19.503906 14.566406 21.371094 12.824219 22.246094 C 12.753906 22.28125 12.683594 22.316406 12.617188 22.355469 C 10.898438 23.285156 9.097656 22.34375 9.140625 20.53125 C 9.160156 19.800781 8.964844 19.054688 8.527344 18.371094 C 7.261719 16.402344 4.46875 15.730469 2.285156 16.871094 C 0.0976562 18.011719 -0.648438 20.53125 0.617188 22.5 C 1.878906 24.472656 4.675781 25.140625 6.859375 24.003906 C 6.886719 23.988281 6.914062 23.972656 6.941406 23.957031 L 6.941406 23.960938 C 8.660156 23.019531 10.472656 23.960938 10.425781 25.777344 L 10.425781 25.773438 C 10.425781 25.808594 10.425781 25.839844 10.425781 25.875 C 10.425781 28.152344 12.472656 29.992188 14.996094 29.992188 C 17.519531 29.988281 19.566406 28.144531 19.5625 25.867188 C 19.5625 25.835938 19.558594 25.804688 19.558594 25.777344 L 19.5625 25.777344 C 19.515625 23.960938 21.332031 23.015625 23.054688 23.960938 L 23.054688 23.957031 C 23.085938 23.972656 23.113281 23.992188 23.148438 24.007812 C 25.332031 25.144531 28.125 24.46875 29.386719 22.496094 C 30.648438 20.523438 29.898438 18.003906 27.710938 16.867188 Z M 27.710938 16.867188 "/>
</g>
</svg>
