<svg width="36" height="36" viewBox="0 0 36 36" fill="none" xmlns="http://www.w3.org/2000/svg">
<path d="M33 18.0026C33.0102 26.21 26.3584 33 18.0026 33C9.64677 33 2.99489 26.2048 3 17.9923C3.00512 9.77981 9.64677 3 18.0077 3C26.3686 3 33.0153 9.80027 33 18.0026Z" fill="#151618"/>
<path d="M28.1442 21.2517C28.1429 21.2711 28.1372 21.29 28.1274 21.3069C28.1176 21.3237 28.1041 21.3381 28.0879 21.3489C27.7143 21.7224 27.3408 22.0959 26.9724 22.4746C26.9424 22.5099 26.9017 22.5344 26.8564 22.5446C26.8112 22.5547 26.7639 22.5499 26.7217 22.5309C25.8416 22.2034 25.2191 21.6081 24.8541 20.7451C24.7978 20.6172 24.808 20.5762 24.9103 20.4892C25.2736 20.172 25.642 19.8548 26.0053 19.5426C26.0283 19.5169 26.0587 19.499 26.0923 19.4915C26.1281 19.5273 26.1179 19.5733 26.123 19.6143C26.1414 19.8549 26.202 20.0905 26.3021 20.3102C26.5426 20.8116 26.9519 21.0981 27.479 21.2261C27.5913 21.2517 27.7067 21.262 27.8218 21.2568C27.9241 21.2465 28.0316 21.2517 28.1442 21.2517Z" fill="#191C31"/>
<g clip-path="url(#clip0_12165_15801)">
<path d="M18.005 13.497C19.519 13.497 20.7463 12.2665 20.7463 10.7485C20.7463 9.23055 19.519 8 18.005 8C16.491 8 15.2637 9.23055 15.2637 10.7485C15.2637 12.2665 16.491 13.497 18.005 13.497Z" fill="#FF931E"/>
<path d="M25.6271 19.2451C24.3152 18.4868 22.6392 18.9384 21.883 20.2538C21.6226 20.7064 21.5056 21.2019 21.5167 21.6885C21.5443 22.8999 20.4578 23.5302 19.4248 22.9046C19.384 22.8797 19.3422 22.8553 19.2999 22.8325C18.2552 22.2478 18.2558 21.0024 19.3009 20.4182C20.1567 19.9534 20.7383 19.0445 20.7383 18.0003C20.7383 17.9791 20.7372 17.9584 20.7367 17.9377L20.7377 17.9393C20.7108 16.7263 21.7999 16.0965 22.8339 16.7268C23.6622 17.2309 24.7322 17.2781 25.6303 16.7576C26.9411 15.9983 27.3899 14.3168 26.6326 13.0025C25.8753 11.6882 24.1982 11.2383 22.8874 11.9976C21.9899 12.5176 21.4972 13.4689 21.5178 14.4394C21.5448 15.6497 20.4594 16.2795 19.4274 15.655C19.0109 15.3993 18.5219 15.2518 17.998 15.2518C17.4741 15.2518 16.9851 15.3993 16.5692 15.6545C15.5393 16.2769 14.4571 15.6481 14.4846 14.4405C14.5058 13.4679 14.0104 12.5144 13.1102 11.9949C11.7978 11.2383 10.1218 11.6914 9.36715 13.0073C8.6125 14.3232 9.06444 16.0036 10.3769 16.7603C11.2739 17.2776 12.3408 17.2293 13.1674 16.7268C14.1988 16.0991 15.2853 16.7284 15.2578 17.9382L15.2588 17.9366C15.2588 17.9578 15.2573 17.9791 15.2573 18.0008C15.2573 19.0456 15.8383 19.954 16.6946 20.4188C17.7403 21.0035 17.7398 22.2504 16.6935 22.8341C16.6512 22.8569 16.6099 22.8813 16.5692 22.9062C15.5393 23.5276 14.4576 22.8983 14.4851 21.6906C14.4968 21.2019 14.3788 20.7037 14.1168 20.2495C13.3579 18.9357 11.6809 18.4879 10.3705 19.2483C9.05756 20.0086 8.61091 21.6901 9.36927 23.0039C10.1282 24.3176 11.8052 24.7655 13.1155 24.0051C13.1325 23.995 13.1489 23.9844 13.1658 23.9743L13.1642 23.9765C14.1967 23.3482 15.2832 23.9781 15.2551 25.1884L15.2562 25.1868C15.2562 25.209 15.2546 25.2319 15.2546 25.2541C15.2562 26.7722 16.4845 28.0016 17.9986 28C19.5126 27.9984 20.7388 26.7669 20.7372 25.2488C20.7372 25.2287 20.7362 25.2085 20.7356 25.1884L20.7367 25.1899C20.7092 23.9765 21.7988 23.3461 22.8334 23.9765L22.8318 23.9738C22.8509 23.9855 22.8689 23.9972 22.8879 24.0083C24.1998 24.7665 25.8758 24.315 26.6321 22.9996C27.3883 21.6843 26.938 20.0038 25.6261 19.2456L25.6271 19.2451Z" fill="#FF931E"/>
</g>
<defs>
<clipPath id="clip0_12165_15801">
<rect width="18" height="20" fill="white" transform="translate(9 8)"/>
</clipPath>
</defs>
</svg>
