<svg width="20" height="20" viewBox="0 0 20 20" xmlns="http://www.w3.org/2000/svg">
  <path
    d="M11.4436 18.25C10.2469 18.25 9.37691 17.9634 8.82691 17.39C8.28024 16.8167 8.00691 16.2 8.00691 15.5367C8.00691 15.2934 8.05358 15.09 8.15024 14.9267C8.24358 14.7634 8.38024 14.6267 8.54024 14.5367C8.70691 14.44 8.91024 14.3934 9.15024 14.3934C9.39358 14.3934 9.59691 14.44 9.76024 14.5367C9.92691 14.6334 10.0569 14.7634 10.1502 14.9267C10.2469 15.0934 10.2936 15.2967 10.2936 15.5367C10.2936 15.83 10.2236 16.0667 10.0836 16.2534C9.94358 16.4367 9.77691 16.56 9.58691 16.6167C9.75358 16.8467 10.0136 17.0067 10.3702 17.1034C10.7269 17.2067 11.0836 17.2567 11.4402 17.2567C11.9369 17.2567 12.3836 17.1234 12.7869 16.8567C13.1869 16.59 13.4836 16.1934 13.6736 15.6734C13.8636 15.15 13.9602 14.56 13.9602 13.8967C13.9602 13.1767 13.8536 12.5634 13.6436 12.0534C13.4402 11.5367 13.1369 11.1567 12.7369 10.9067C12.3469 10.6634 11.8969 10.5334 11.4402 10.5334C11.1336 10.5334 10.7536 10.66 10.2936 10.9167L9.45358 11.3367V10.9167L13.2336 5.87671H8.00691V11.1067C8.00691 11.54 8.10358 11.8967 8.29358 12.1767C8.48358 12.4567 8.77691 12.5967 9.17358 12.5967C9.48024 12.5967 9.77024 12.4934 10.0502 12.29C10.3336 12.0834 10.5769 11.8334 10.7769 11.5467C10.8036 11.49 10.8336 11.4467 10.8736 11.4234C10.9069 11.3934 10.9536 11.3767 10.9969 11.3767C11.0669 11.3767 11.1502 11.41 11.2436 11.4834C11.3336 11.5834 11.3769 11.7034 11.3769 11.8367C11.3669 11.9267 11.3502 12.0167 11.3302 12.1034C11.1136 12.5867 10.8136 12.9567 10.4336 13.21C10.0602 13.46 9.62358 13.5934 9.17358 13.5934C8.04024 13.5934 7.25691 13.37 6.82358 12.9267C6.39024 12.48 6.17358 11.8767 6.17358 11.1134V5.88004H3.50024V4.90671H6.17358V2.69004L5.56358 2.08004V1.58337H7.34024L8.00691 1.92671V4.90337L14.9169 4.88671L15.6036 5.57337L11.3669 9.81004C11.6236 9.70671 11.8936 9.64337 12.1702 9.62004C12.6269 9.62004 13.1436 9.76671 13.7169 10.06C14.2969 10.3467 14.7402 10.74 15.0536 11.2434C15.3669 11.74 15.5669 12.2167 15.6536 12.6767C15.7502 13.1367 15.7969 13.5434 15.7969 13.9C15.7969 14.7134 15.6236 15.4734 15.2802 16.1734C14.9369 16.8734 14.4136 17.3934 13.7136 17.74C13.0136 18.0767 12.2569 18.25 11.4436 18.25Z"
    fill="#2C7DF7" />
</svg>
