<svg width="256" height="64" viewBox="0 0 256 64" fill="none" xmlns="http://www.w3.org/2000/svg">
<g clip-path="url(#clip0_1636_4905)">
<path fill-rule="evenodd" clip-rule="evenodd" d="M143.36 44.4387C133.284 44.4387 125.116 36.3656 125.116 26.4058V8.39484H143.36C153.436 8.39484 161.604 16.468 161.604 26.4278C161.604 36.3656 153.436 44.4387 143.36 44.4387Z" fill="#18FFFF"/>
<path fill-rule="evenodd" clip-rule="evenodd" d="M111.244 8C121.321 8 129.488 16.0731 129.488 26.0329V44.0658H111.244C101.168 44.0658 93 35.9927 93 26.0329C93 16.0731 101.168 8 111.244 8Z" fill="#EF4747"/>
<path fill-rule="evenodd" clip-rule="evenodd" d="M129.488 38.0987C126.781 34.9616 125.138 30.8811 125.138 26.4058V14.34C127.846 17.4771 129.488 21.5576 129.488 26.0329V38.0987Z" fill="#860EB5"/>
<path fill-rule="evenodd" clip-rule="evenodd" d="M147.533 49.638L148.065 51.0859H148.82C149.73 51.1298 150.462 51.8976 150.462 52.819C150.462 53.7623 149.686 54.5082 148.753 54.5082C147.843 54.5082 147.089 53.8062 147.044 52.9068V52.819V47.4442H145.513V52.819C145.513 54.5521 147 55.9561 148.753 55.9561C150.485 55.9561 151.905 54.596 151.927 52.8848C151.927 52.8629 151.927 52.8409 151.927 52.819C151.927 51.1517 150.862 49.7477 149.064 49.638C148.953 49.638 148.842 49.6161 148.731 49.6161L147.533 49.638Z" fill="black"/>
<path fill-rule="evenodd" clip-rule="evenodd" d="M126.914 54.7057L125.56 54.1133C125.404 54.2889 125.227 54.4424 125.005 54.5302C124.805 54.596 124.583 54.6179 124.361 54.6179C124.117 54.6179 123.873 54.574 123.651 54.4424C123.451 54.3328 123.274 54.1792 123.118 54.0037C122.963 53.8282 122.852 53.6307 122.785 53.4333C122.719 53.2358 122.674 53.0384 122.674 52.819C122.674 52.5777 122.719 52.3364 122.808 52.0951C122.896 51.8757 123.007 51.6782 123.163 51.5247C123.318 51.3711 123.496 51.2395 123.718 51.1517C123.94 51.064 124.161 50.9982 124.383 50.9982C124.761 50.9982 125.116 51.1078 125.404 51.3492C125.693 51.5686 125.87 51.8757 126.004 52.2048H123.385L123.829 53.4772H127.513C127.557 53.2578 127.579 53.0384 127.579 52.819C127.579 52.3803 127.491 51.9854 127.335 51.5905C127.18 51.2176 126.936 50.8666 126.647 50.5813C126.359 50.2962 126.004 50.0548 125.626 49.9013C125.227 49.7258 124.827 49.66 124.383 49.66C123.94 49.66 123.518 49.7477 123.118 49.9013C122.741 50.0548 122.386 50.2962 122.097 50.5813C121.809 50.8666 121.565 51.2176 121.409 51.5905C121.232 51.9854 121.165 52.4022 121.165 52.819C121.165 53.2358 121.254 53.6527 121.409 54.0475C121.565 54.4205 121.809 54.7715 122.097 55.0567C122.386 55.3419 122.741 55.5613 123.118 55.7368C123.518 55.9123 123.94 55.978 124.383 55.978C124.894 55.978 125.382 55.8684 125.848 55.627C126.248 55.3858 126.625 55.0786 126.914 54.7057Z" fill="black"/>
<path fill-rule="evenodd" clip-rule="evenodd" d="M119.7 53.6307C119.567 53.9159 119.367 54.1573 119.101 54.3328C118.835 54.5083 118.524 54.596 118.213 54.596C117.991 54.596 117.747 54.5521 117.547 54.4644C117.348 54.3766 117.17 54.245 117.015 54.0914C116.859 53.9159 116.748 53.7404 116.66 53.521C116.571 53.3017 116.526 53.0603 116.526 52.819C116.526 52.5777 116.571 52.3364 116.66 52.117C116.748 51.8977 116.859 51.7002 117.015 51.5247C117.17 51.3492 117.348 51.2176 117.547 51.1298C117.769 51.0201 117.991 50.9762 118.213 50.9762C118.546 50.9762 118.857 51.0859 119.123 51.2834C119.39 51.4808 119.567 51.7222 119.7 52.0073L120.965 51.1956C120.677 50.7349 120.3 50.362 119.811 50.0987C119.323 49.8136 118.79 49.6819 118.213 49.6819C117.769 49.6819 117.37 49.7697 116.97 49.9232C116.593 50.0768 116.238 50.3181 115.949 50.6033C115.661 50.8885 115.417 51.2395 115.261 51.6124C115.084 52.0073 115.017 52.4022 115.017 52.8409C115.017 53.2797 115.106 53.6746 115.261 54.0695C115.417 54.4424 115.661 54.7934 115.949 55.0786C116.238 55.3638 116.593 55.6051 116.97 55.7587C117.37 55.9342 117.792 56 118.213 56C118.79 56 119.323 55.8684 119.811 55.5832C119.989 55.4735 120.144 55.3638 120.3 55.2322C120.566 55.0128 120.766 54.7495 120.943 54.4644L119.7 53.6307Z" fill="black"/>
<path fill-rule="evenodd" clip-rule="evenodd" d="M112.687 47.4442V48.7824H114.218V47.4442H112.687Z" fill="black"/>
<path fill-rule="evenodd" clip-rule="evenodd" d="M112.687 55.8684H114.218V49.7477H112.687V55.8684Z" fill="black"/>
<path fill-rule="evenodd" clip-rule="evenodd" d="M110.157 47.4442V55.8684H111.688V47.4442H110.157Z" fill="black"/>
<path fill-rule="evenodd" clip-rule="evenodd" d="M128.756 52.2048V53.4552H130.398V52.2048H128.756Z" fill="black"/>
<path fill-rule="evenodd" clip-rule="evenodd" d="M141.718 49.6381C141.274 49.6381 140.874 49.7258 140.475 49.8793C140.097 50.0329 139.742 50.2742 139.454 50.5594C139.165 50.8446 138.921 51.1956 138.766 51.5686C138.433 52.3364 138.433 53.2578 138.766 54.0256C138.921 54.3985 139.165 54.7495 139.454 55.0348C139.742 55.3199 140.097 55.5613 140.475 55.7148C140.874 55.8903 141.296 55.9561 141.718 55.9561C142.162 55.9561 142.561 55.8684 142.961 55.7148C143.338 55.5613 143.693 55.3199 143.981 55.0348C144.27 54.7495 144.514 54.3985 144.67 54.0256C144.847 53.6307 144.914 53.2358 144.914 52.7971C144.914 52.3803 144.825 51.9634 144.67 51.5686C144.514 51.1956 144.27 50.8446 143.981 50.5594C143.693 50.2742 143.338 50.0329 142.961 49.8793C142.583 49.7258 142.162 49.6381 141.718 49.6381ZM141.718 54.6179C141.496 54.6179 141.296 54.574 141.096 54.4644C140.896 54.3766 140.719 54.223 140.586 54.0695C140.43 53.894 140.319 53.6965 140.253 53.4772C140.164 53.2358 140.12 52.9945 140.12 52.7532C140.12 52.5119 140.164 52.2706 140.253 52.0512C140.342 51.8318 140.453 51.6563 140.586 51.4808C140.741 51.3272 140.896 51.1956 141.096 51.0859C141.296 50.9982 141.496 50.9323 141.718 50.9323C141.94 50.9323 142.139 50.9762 142.339 51.0859C142.539 51.1737 142.694 51.3053 142.85 51.4808C143.005 51.6563 143.116 51.8538 143.182 52.0512C143.271 52.2706 143.316 52.5119 143.316 52.7532C143.316 52.9945 143.271 53.2358 143.182 53.4772C143.094 53.6965 142.983 53.894 142.85 54.0695C142.716 54.245 142.539 54.3766 142.339 54.4644C142.139 54.574 141.94 54.6179 141.718 54.6179Z" fill="black"/>
<path fill-rule="evenodd" clip-rule="evenodd" d="M107.427 55.8684L106.938 54.5082H106.184C105.274 54.4643 104.541 53.7184 104.541 52.7971C104.541 51.8537 105.318 51.0859 106.273 51.0859C107.183 51.0859 107.893 51.7879 107.937 52.6874V52.7752V55.8245H109.469V52.7752C109.469 51.0201 108.026 49.6161 106.25 49.6161C104.541 49.6161 103.121 50.9543 103.054 52.6435V52.6654C103.054 52.6874 103.054 52.6874 103.054 52.7093C103.054 52.7313 103.054 52.7532 103.054 52.7752C103.054 52.7971 103.054 52.819 103.054 52.8629C103.054 52.8848 103.054 52.9068 103.054 52.9507C103.054 52.9726 103.054 52.9945 103.054 53.0384C103.054 53.0603 103.054 53.0823 103.054 53.1262C103.054 53.1481 103.054 53.17 103.054 53.2139C103.054 53.2358 103.054 53.2578 103.076 53.3017C103.076 53.3236 103.076 53.3455 103.099 53.3894C103.099 53.4113 103.099 53.4333 103.121 53.4772C103.121 53.4991 103.121 53.521 103.143 53.5649C103.143 53.5868 103.165 53.6088 103.165 53.6307C103.165 53.6527 103.187 53.6746 103.187 53.6965C103.187 53.7184 103.21 53.7404 103.21 53.7623C103.21 53.7843 103.232 53.8062 103.232 53.8282C103.232 53.8501 103.254 53.872 103.254 53.8939C103.254 53.9159 103.276 53.9378 103.276 53.9598C103.276 53.9817 103.298 54.0037 103.298 54.0256C103.298 54.0475 103.321 54.0694 103.321 54.0914C103.321 54.1133 103.343 54.1353 103.343 54.1572C103.365 54.1792 103.365 54.2011 103.387 54.223C103.409 54.2449 103.409 54.2669 103.432 54.2888C103.454 54.3108 103.454 54.3327 103.476 54.3547C103.498 54.3766 103.498 54.3985 103.52 54.4204C103.543 54.4424 103.543 54.4643 103.565 54.4863C103.587 54.5082 103.587 54.5302 103.609 54.5521C103.631 54.574 103.631 54.596 103.654 54.6179C103.676 54.6399 103.676 54.6618 103.698 54.6838C103.72 54.7057 103.72 54.7276 103.742 54.7495C103.765 54.7715 103.765 54.7934 103.787 54.8154C103.809 54.8373 103.809 54.8593 103.831 54.8812C103.853 54.9031 103.876 54.925 103.876 54.947C103.898 54.9689 103.92 54.9909 103.92 55.0128C103.942 55.0348 103.964 55.0567 103.964 55.0567C103.986 55.0786 104.009 55.1005 104.009 55.1005C104.031 55.1225 104.053 55.1444 104.075 55.1444C104.097 55.1664 104.12 55.1883 104.142 55.1883C104.186 55.2322 104.231 55.2541 104.253 55.276C104.275 55.298 104.297 55.298 104.319 55.3199C104.342 55.3419 104.364 55.3419 104.386 55.3638C104.408 55.3858 104.43 55.3858 104.453 55.4077C104.475 55.4296 104.497 55.4296 104.519 55.4515C104.541 55.4735 104.564 55.4735 104.586 55.4954C104.63 55.5174 104.675 55.5393 104.719 55.5613C105.074 55.7587 105.607 55.8245 106.206 55.8245H107.427V55.8684Z" fill="black"/>
<path fill-rule="evenodd" clip-rule="evenodd" d="M133.528 49.638L134.06 51.0859H134.815C135.725 51.1298 136.457 51.8976 136.457 52.819C136.457 53.7623 135.681 54.5082 134.748 54.5082C133.838 54.5082 133.084 53.8062 133.039 52.9068V52.819V47.4442H131.508V52.819C131.508 54.5521 132.995 55.9561 134.748 55.9561C136.48 55.9561 137.9 54.596 137.922 52.8848C137.922 52.8629 137.922 52.8409 137.922 52.819C137.922 51.1517 136.857 49.7477 135.059 49.638C134.948 49.638 134.837 49.6161 134.726 49.6161L133.528 49.638Z" fill="black"/>
</g>
<defs>
<clipPath id="clip0_1636_4905">
<rect width="69" height="48" fill="white" transform="translate(93 8)"/>
</clipPath>
</defs>
</svg>
