<svg width="256" height="64" viewBox="0 0 256 64" fill="none" xmlns="http://www.w3.org/2000/svg">
<g clip-path="url(#clip0_825_4353)">
<path d="M224.944 45.3126L216.582 26.1482H222.181L227.892 39.8925L234.493 26.1482H240L226.984 52.5455H221.384L224.944 45.3126ZM204.581 41.3447C205.076 41.2324 205.553 41.0551 206 40.8174C206.432 40.5878 206.834 40.3051 207.196 39.9757C207.557 39.6456 207.869 39.2656 208.123 38.8473C208.389 38.4079 208.594 37.9351 208.735 37.4415C208.887 36.9028 208.962 36.3454 208.957 35.7858C208.962 35.2201 208.888 34.6565 208.735 34.1117C208.594 33.6181 208.389 33.1453 208.123 32.7058C207.868 32.2859 207.556 31.903 207.196 31.5682C206.838 31.236 206.436 30.9558 206 30.7358C205.549 30.5096 205.073 30.3388 204.581 30.2271C204.065 30.1088 203.536 30.0499 203.005 30.0513C202.478 30.0495 201.952 30.1085 201.439 30.2271C200.953 30.3388 200.483 30.5097 200.039 30.7358C199.605 30.9587 199.202 31.2387 198.843 31.5682C198.478 31.9012 198.163 32.2842 197.906 32.7058C197.641 33.1443 197.438 33.6175 197.304 34.1117C197.157 34.6576 197.086 35.2208 197.091 35.7858C197.086 36.3448 197.158 36.9017 197.304 37.4415C197.438 37.9357 197.641 38.4089 197.906 38.8473C198.161 39.2673 198.477 39.6475 198.843 39.9757C199.207 40.3024 199.608 40.5849 200.039 40.8174C200.48 41.055 200.95 41.2323 201.439 41.3447C201.952 41.4634 202.478 41.5224 203.005 41.5204C203.536 41.5221 204.065 41.4631 204.581 41.3447ZM198.935 45.6363C198.077 45.4184 197.251 45.0887 196.479 44.6559C194.974 43.8119 193.733 42.5701 192.891 41.0672C192.457 40.2902 192.127 39.46 191.908 38.5977C191.451 36.7447 191.451 34.8086 191.908 32.9556C192.126 32.0959 192.456 31.2686 192.891 30.4953C193.737 28.9978 194.978 27.7599 196.479 26.9159C197.251 26.4831 198.077 26.1535 198.935 25.9355C199.854 25.7032 200.797 25.5882 201.745 25.5932C202.256 25.5921 202.767 25.623 203.274 25.6857C203.741 25.7434 204.203 25.8361 204.656 25.9632C205.075 26.082 205.487 26.2272 205.889 26.3979C206.264 26.5574 206.627 26.7461 206.973 26.9621C207.299 27.1655 207.603 27.401 207.882 27.6651C208.142 27.9118 208.384 28.1777 208.605 28.4605V26.1482H213.926V45.4236H208.605V43.1113C208.265 43.5371 207.876 43.922 207.446 44.2582C206.971 44.6302 206.451 44.941 205.898 45.1831C205.283 45.4526 204.639 45.6512 203.979 45.775C203.242 45.9141 202.494 45.9823 201.744 45.9785C200.797 45.9836 199.853 45.8686 198.935 45.6363ZM179.616 31.0318C180.379 31.0457 181.139 30.9586 181.879 30.7728C182.455 30.6276 182.992 30.3593 183.455 29.9866C183.872 29.6395 184.191 29.19 184.382 28.6824C184.589 28.1073 184.69 27.4992 184.678 26.8881C184.69 26.2799 184.59 25.6748 184.382 25.103C184.191 24.6009 183.871 24.1576 183.455 23.8173C182.99 23.4502 182.453 23.1854 181.879 23.0404C181.139 22.8548 180.379 22.7677 179.616 22.7814H174.388V31.0317L179.616 31.0318ZM168.881 18.2308H180.136C181.903 18.2308 183.436 18.4466 184.734 18.8783C186.032 19.3099 187.101 19.908 187.942 20.6726C188.778 21.4307 189.423 22.3751 189.824 23.4289C190.245 24.5398 190.455 25.719 190.445 26.9066C190.458 28.0914 190.247 29.2681 189.824 30.3751C189.416 31.4201 188.772 32.357 187.942 33.1128C187.101 33.8838 186.032 34.485 184.734 34.9164C183.436 35.3484 181.903 35.5642 180.136 35.5639H174.388V45.4236H168.881V18.2308ZM145.234 26.1482H150.518V28.4605C150.844 28.0117 151.231 27.6101 151.668 27.2673C152.13 26.9056 152.634 26.6013 153.17 26.3609C153.76 26.0976 154.379 25.9051 155.015 25.7874C155.721 25.655 156.438 25.5899 157.156 25.5932C158.275 25.5772 159.387 25.7653 160.438 26.1482C161.374 26.4923 162.223 27.0387 162.923 27.7483C163.626 28.4836 164.158 29.3648 164.48 30.3288C164.852 31.4373 165.034 32.6006 165.018 33.7695V45.4236H159.734V35.1384C159.746 34.3865 159.64 33.6374 159.418 32.9186C159.235 32.3252 158.929 31.7768 158.519 31.3092C158.125 30.8749 157.632 30.5417 157.082 30.3381C156.458 30.1129 155.798 30.0032 155.135 30.0143C154.469 30.0038 153.806 30.1135 153.179 30.3381C152.625 30.54 152.129 30.8733 151.733 31.3092C151.323 31.7768 151.017 32.3252 150.834 32.9186C150.612 33.6374 150.506 34.3865 150.518 35.1384V45.4236H145.234V26.1482ZM132.23 41.2892C132.735 41.1675 133.223 40.9874 133.686 40.7527C134.126 40.5282 134.529 40.2381 134.882 39.8925C135.231 39.5514 135.533 39.1658 135.781 38.7456C136.034 38.3128 136.221 37.8454 136.337 37.3582C136.463 36.8311 136.526 36.2907 136.523 35.7488C136.526 35.2099 136.464 34.6726 136.337 34.1487C136.103 33.1831 135.598 32.3039 134.882 31.6144C134.524 31.2718 134.122 30.9793 133.686 30.745C133.227 30.4994 132.738 30.3159 132.23 30.1993C131.68 30.0732 131.117 30.0111 130.552 30.0143C129.994 30.0118 129.437 30.0739 128.893 30.1993C128.388 30.3148 127.901 30.4984 127.446 30.745C127.014 30.9809 126.615 31.2733 126.26 31.6144C125.91 31.9503 125.613 32.337 125.379 32.7613C125.14 33.1972 124.953 33.6598 124.823 34.1395C124.683 34.6644 124.614 35.2057 124.619 35.7489C124.616 36.2919 124.684 36.833 124.823 37.3582C124.95 37.842 125.137 38.308 125.379 38.7456C125.616 39.168 125.913 39.5543 126.26 39.8925C126.61 40.2367 127.01 40.5266 127.446 40.7527C127.905 40.9885 128.391 41.1686 128.893 41.2892C129.436 41.4208 129.993 41.486 130.552 41.4834C131.117 41.4867 131.681 41.4215 132.23 41.2892V41.2892ZM127.437 45.627C126.484 45.4057 125.56 45.0735 124.684 44.6374C123.86 44.2276 123.096 43.708 122.412 43.0927C121.75 42.495 121.176 41.8068 120.707 41.0487C120.231 40.277 119.866 39.4426 119.622 38.5699C119.115 36.7232 119.115 34.7746 119.622 32.9279C119.865 32.0577 120.23 31.2263 120.707 30.4583C121.179 29.7026 121.753 29.0149 122.412 28.4143C123.094 27.7941 123.858 27.2712 124.684 26.8604C125.56 26.4244 126.484 26.0923 127.437 25.8707C129.5 25.4021 131.642 25.4021 133.704 25.8707C134.652 26.0903 135.57 26.4226 136.439 26.8604C137.261 27.2773 138.025 27.7997 138.71 28.4143C139.38 29.0127 139.963 29.7006 140.444 30.4583C140.926 31.2246 141.295 32.0564 141.538 32.9279C142.045 34.7746 142.045 36.7232 141.538 38.5699C141.294 39.4439 140.925 40.2786 140.444 41.0487C139.967 41.8089 139.383 42.4972 138.71 43.0927C138.023 43.7024 137.259 44.2215 136.439 44.6374C135.573 45.0744 134.658 45.4067 133.714 45.627C131.648 46.0957 129.503 46.0957 127.437 45.627ZM106.817 41.2892C107.321 41.1675 107.81 40.9875 108.272 40.7527C108.712 40.5282 109.116 40.2381 109.468 39.8925C109.817 39.5514 110.12 39.1658 110.367 38.7456C110.62 38.3129 110.808 37.8454 110.924 37.3582C111.05 36.8311 111.112 36.2907 111.109 35.7488C111.112 35.2099 111.05 34.6726 110.924 34.1487C110.69 33.183 110.185 32.3039 109.468 31.6144C109.111 31.2718 108.709 30.9793 108.272 30.745C107.814 30.4994 107.324 30.3159 106.817 30.1993C106.266 30.0732 105.703 30.0111 105.139 30.0143C104.58 30.0118 104.023 30.0739 103.479 30.1993C102.975 30.3148 102.488 30.4984 102.033 30.745C101.6 30.9809 101.201 31.2733 100.846 31.6144C100.497 31.9503 100.2 32.337 99.9656 32.7613C99.7266 33.1973 99.5399 33.6599 99.4093 34.1395C99.2692 34.6643 99.2006 35.2057 99.2053 35.7488C99.2022 36.2919 99.2708 36.833 99.4093 37.3582C99.5364 37.8419 99.7232 38.3079 99.9656 38.7456C100.203 39.168 100.499 39.5542 100.846 39.8925C101.197 40.2366 101.597 40.5265 102.033 40.7527C102.492 40.9885 102.977 41.1686 103.479 41.2892C104.022 41.4208 104.58 41.486 105.139 41.4834C105.704 41.4867 106.267 41.4215 106.817 41.2892ZM102.024 45.627C101.07 45.4057 100.146 45.0736 99.2702 44.6374C98.4465 44.2277 97.6823 43.708 96.9989 43.0928C96.3367 42.495 95.7624 41.8069 95.2931 41.0488C94.8174 40.2771 94.4523 39.4427 94.2084 38.57C93.7016 36.7233 93.7016 34.7746 94.2084 32.928C94.4512 32.0578 94.8164 31.2264 95.2931 30.4584C95.7658 29.7028 96.3397 29.0151 96.9989 28.4144C97.6805 27.7943 98.4449 27.2714 99.2702 26.8605C100.146 26.4245 101.07 26.0924 102.024 25.8708C104.086 25.4022 106.228 25.4022 108.291 25.8708C109.239 26.0904 110.157 26.4226 111.026 26.8605C111.848 27.2773 112.611 27.7997 113.297 28.4144C113.967 29.0128 114.55 29.7006 115.031 30.4584C115.513 31.2247 115.881 32.0565 116.125 32.928C116.631 34.7746 116.631 36.7233 116.125 38.57C115.88 39.444 115.512 40.2787 115.031 41.0488C114.553 41.809 113.97 42.4973 113.297 43.0928C112.609 43.7026 111.846 44.2217 111.026 44.6374C110.16 45.0745 109.245 45.4067 108.3 45.627C106.234 46.0957 104.089 46.0957 102.024 45.627ZM60.3158 18.2308H65.8783L75.3902 32.7336L84.9392 18.2308H90.5017V45.4236H84.9948V26.7771L77.096 38.8011H73.7214L65.8227 26.7771V45.4236H60.3158V18.2308Z" fill="black"/>
<path d="M47.6146 23.0991C48.7148 23.0991 49.7902 22.7736 50.705 22.1638C51.6197 21.554 52.3327 20.6873 52.7537 19.6732C53.1747 18.6592 53.2848 17.5434 53.0702 16.4669C52.8556 15.3903 52.3258 14.4015 51.5479 13.6254C50.7699 12.8493 49.7788 12.3207 48.6998 12.1066C47.6208 11.8925 46.5023 12.0024 45.4859 12.4224C44.4695 12.8424 43.6008 13.5537 42.9895 14.4664C42.3783 15.379 42.0521 16.4519 42.0521 17.5495C42.052 18.2783 42.1959 19 42.4754 19.6733C42.7549 20.3466 43.1647 20.9584 43.6812 21.4737C44.1977 21.9891 44.811 22.3978 45.4859 22.6767C46.1608 22.9556 46.8841 23.0991 47.6146 23.0991ZM30.5586 48.0928C27.8769 48.0928 25.2555 47.2994 23.0258 45.8131C20.7961 44.3267 19.0583 42.2141 18.032 39.7423C17.0058 37.2706 16.7373 34.5508 17.2605 31.9268C17.7836 29.3028 19.075 26.8925 20.9712 25.0007C22.8674 23.1089 25.2833 21.8206 27.9134 21.2987C30.5435 20.7767 33.2697 21.0446 35.7472 22.0684C38.2248 23.0923 40.3423 24.8261 41.8321 27.0506C43.322 29.2751 44.1172 31.8904 44.1172 34.5658C44.1172 36.3422 43.7665 38.1012 43.0852 39.7424C42.4038 41.3836 41.4051 42.8748 40.146 44.1309C38.887 45.3871 37.3923 46.3834 35.7473 47.0632C34.1022 47.743 32.3391 48.0928 30.5586 48.0928Z" fill="#7D00FF"/>
</g>
<defs>
<clipPath id="clip0_825_4353">
<rect width="223" height="40.5455" fill="white" transform="translate(17 12)"/>
</clipPath>
</defs>
</svg>
