<svg width="256" height="64" viewBox="0 0 256 64" fill="none" xmlns="http://www.w3.org/2000/svg">
<path d="M85.0186 35.505L77.4363 43.1159C76.8069 43.774 76.8069 44.804 77.4363 45.4621L83.216 51.2704C84.1888 52.2432 85.8197 52.2432 86.7926 51.2704L104.532 33.7597C105.505 32.7868 105.505 31.1845 104.532 30.2117L86.7926 12.7296C85.8197 11.7568 84.1888 11.7568 83.216 12.7296L77.4363 18.5379C76.8069 19.1674 76.8069 20.226 77.4363 20.8841L85.0186 28.495C86.9928 30.3548 86.9928 33.5594 85.0186 35.505Z" fill="#0A6E5C"/>
<path d="M62.2432 35.505L69.8255 43.1159C70.4549 43.774 70.4549 44.804 69.8255 45.4621L64.0458 51.2704C63.073 52.2432 61.4421 52.2432 60.4692 51.2704L42.7296 33.7597C41.7568 32.7868 41.7568 31.1845 42.7296 30.2117L60.4692 12.7296C61.4421 11.7568 63.073 11.7568 64.0458 12.7296L69.8255 18.5379C70.4549 19.1674 70.4549 20.226 69.8255 20.8841L62.2432 28.495C60.269 30.3548 60.269 33.5594 62.2432 35.505Z" fill="#21BF73"/>
<path d="M64.2461 33.4162C63.4449 32.6151 63.4449 31.3275 64.2461 30.5264L72.2003 22.5722C73.0014 21.771 74.289 21.771 75.0901 22.5722L83.0443 30.5264C83.8455 31.3275 83.8455 32.6151 83.0443 33.4162L75.0901 41.3704C74.289 42.1716 73.0014 42.1716 72.2003 41.3704L64.2461 33.4162Z" fill="#21BF73"/>
<path d="M139.239 43.9456H133.574L130.455 35.7911C130.197 35.1616 129.825 34.7038 129.282 34.4463C128.767 34.1888 128.137 34.0743 127.365 34.0743H123.903V43.9456H118.638V19.4534H129.511C132.343 19.4534 134.489 20.0829 135.948 21.3132C137.408 22.5436 138.152 24.3175 138.152 26.6351C138.152 28.266 137.722 29.668 136.864 30.8411C136.006 32.0142 134.804 32.844 133.202 33.359C134.632 33.6451 135.691 34.6466 136.32 36.3633L139.239 43.9456ZM128.71 29.9828C130.226 29.9828 131.371 29.7252 132.057 29.2388C132.773 28.7238 133.116 27.8941 133.116 26.8068C133.116 25.7195 132.773 24.8898 132.057 24.4034C131.342 23.8883 130.226 23.6022 128.71 23.6022H123.845V30.0114H128.71V29.9828ZM159.954 26.5207V43.9742H154.861V41.3991C154.346 42.286 153.602 43.0014 152.629 43.4878C151.657 44.0028 150.598 44.2317 149.368 44.2317C147.851 44.2317 146.535 43.8597 145.362 43.1444C144.217 42.4005 143.33 41.3705 142.644 40.0257C142.014 38.6523 141.671 37.0786 141.671 35.276C141.671 33.4735 141.986 31.8998 142.644 30.4978C143.302 29.0958 144.217 28.0085 145.391 27.2646C146.564 26.4921 147.88 26.0915 149.368 26.0915C150.569 26.0915 151.657 26.349 152.629 26.8926C153.602 27.4076 154.318 28.123 154.861 29.0386V26.5207H159.954ZM150.884 40.2832C152.172 40.2832 153.144 39.854 153.831 38.967C154.518 38.1087 154.861 36.8211 154.861 35.1902C154.861 33.5307 154.518 32.2717 153.831 31.4134C153.144 30.5264 152.172 30.0686 150.884 30.0686C149.597 30.0686 148.624 30.5264 147.908 31.442C147.193 32.3576 146.85 33.6451 146.85 35.276C146.85 36.9069 147.193 38.1659 147.88 39.0242C148.566 39.854 149.597 40.2832 150.884 40.2832ZM185.391 26.0629C187.365 26.0629 188.853 26.6637 189.797 27.8941C190.77 29.0958 191.256 30.927 191.256 33.3876V43.9456H186.077V33.5593C186.077 32.3576 185.877 31.4706 185.505 30.9556C185.104 30.4119 184.475 30.1258 183.588 30.1258C182.529 30.1258 181.728 30.4978 181.156 31.2131C180.584 31.957 180.298 32.9871 180.298 34.3032V43.9456H175.119V33.5593C175.119 32.3576 174.918 31.4992 174.489 30.9556C174.089 30.4119 173.459 30.1258 172.601 30.1258C171.542 30.1258 170.741 30.4978 170.14 31.2131C169.568 31.957 169.282 32.9871 169.282 34.3032V43.9456H164.103V31.4992C164.103 29.6394 164.017 27.9799 163.817 26.5207H168.681L168.996 29.1244C169.511 28.1516 170.255 27.379 171.199 26.864C172.172 26.349 173.259 26.0629 174.489 26.0629C177.064 26.0629 178.781 27.1501 179.639 29.2961C180.212 28.3232 180.984 27.5221 182.014 26.9499C183.044 26.349 184.16 26.0629 185.391 26.0629ZM205.963 26.0629C207.451 26.0629 208.767 26.4634 209.94 27.236C211.113 27.9799 212 29.0672 212.658 30.4692C213.316 31.8712 213.659 33.4735 213.659 35.2474C213.659 37.05 213.345 38.6237 212.687 39.9971C212.057 41.3418 211.142 42.4005 209.968 43.1158C208.795 43.8597 207.479 44.2031 205.963 44.2031C204.761 44.2031 203.674 43.9456 202.701 43.4592C201.728 42.9441 201.013 42.2574 200.498 41.3705V51.957H195.319V31.4992C195.319 29.6394 195.233 27.9799 195.033 26.5207H199.897L200.24 29.4105C200.698 28.3805 201.442 27.5507 202.443 26.9785C203.502 26.349 204.675 26.0629 205.963 26.0629ZM204.504 40.2832C205.791 40.2832 206.764 39.854 207.451 38.9956C208.137 38.1373 208.481 36.8783 208.481 35.2474C208.481 33.6165 208.137 32.3576 207.422 31.4134C206.735 30.4978 205.762 30.04 204.504 30.04C203.216 30.04 202.243 30.4978 201.528 31.3848C200.841 32.2431 200.498 33.5307 200.498 35.1616C200.498 36.8211 200.841 38.08 201.528 38.9384C202.243 39.854 203.216 40.2832 204.504 40.2832Z" fill="#22272F"/>
</svg>
