<svg width="256" height="64" viewBox="0 0 256 64" fill="none" xmlns="http://www.w3.org/2000/svg">
<g clip-path="url(#clip0_3089_14653)">
<path fill-rule="evenodd" clip-rule="evenodd" d="M50.8993 46.1122C48.4123 43.9114 47.1699 40.9598 47.1699 37.2588V13.7003H53.9827V36.7088C53.9827 40.36 56.0221 42.6608 60.4482 42.6608C64.8742 42.6608 66.9126 40.36 66.9126 36.7088V13.7003H73.7749V37.2588C73.7749 40.9598 72.5325 43.9114 70.0456 46.1122C67.5587 48.3132 64.376 49.4132 60.4482 49.4132C56.5678 49.4132 53.3852 48.3132 50.8993 46.1122ZM102.969 13.7V20.3017H93.5698V48.7132H86.7063V20.3017H77.357V13.7H102.969ZM121.27 42.661C124.452 42.661 127.138 41.611 129.276 39.46C131.415 37.309 132.508 34.558 132.508 31.2063C132.508 27.8555 131.415 25.1035 129.276 22.9535C127.138 20.8025 124.452 19.7015 121.27 19.7015C118.087 19.7015 115.402 20.8025 113.263 22.9535C111.124 25.1035 110.031 27.8555 110.031 31.2063C110.031 34.558 111.124 37.309 113.263 39.46C115.402 41.611 118.087 42.661 121.27 42.661ZM121.27 49.4136C116.247 49.4136 111.97 47.6628 108.439 44.1612C104.958 40.6098 103.217 36.309 103.217 31.2063C103.217 26.1047 104.958 21.8027 108.439 18.3011C111.97 14.7508 116.247 13 121.27 13C126.292 13 130.569 14.7508 134.101 18.3011C137.631 21.8027 139.372 26.1047 139.372 31.2063C139.372 36.309 137.631 40.6098 134.101 44.1612C130.569 47.6628 126.292 49.4136 121.27 49.4136ZM151.06 20.1523V30.5061H158.122C160.708 30.5061 162.847 28.1555 162.847 25.3048C162.847 22.453 160.708 20.1523 158.122 20.1523H151.06ZM163.293 48.7132L156.282 36.5588H151.06V48.7132H144.196V13.7002H158.122C161.354 13.7002 164.089 14.85 166.327 17.1008C168.564 19.3516 169.709 22.1025 169.709 25.3047C169.709 29.6555 167.023 33.6572 162.995 35.5088L170.703 48.7132H163.293ZM208.5 29.9059V32.6069C208.5 37.6096 206.908 41.66 203.725 44.7614C200.542 47.8638 196.415 49.4138 191.392 49.4138C186.021 49.4138 181.545 47.663 178.014 44.1616C174.483 40.6102 172.743 36.308 172.743 31.2564C172.743 26.1549 174.483 21.8528 177.965 18.3014C181.496 14.7499 185.823 13.0002 190.995 13.0002C197.509 13.0002 203.178 16.2013 206.162 21.1531L200.295 24.5538C198.653 21.7031 195.073 19.7018 190.945 19.7018C187.613 19.7018 184.878 20.8028 182.739 23.0037C180.6 25.1547 179.557 27.9056 179.557 31.2564C179.557 34.5584 180.65 37.3092 182.789 39.4602C184.977 41.6112 187.861 42.6614 191.443 42.6614C196.764 42.6614 200.344 40.16 201.586 36.0086H191.043V29.9059H208.5Z" fill="black"/>
</g>
<defs>
<clipPath id="clip0_3089_14653">
<rect width="161.5" height="38" fill="white" transform="translate(47 13)"/>
</clipPath>
</defs>
</svg>
