<svg viewBox="0 0 24 24" xmlns="http://www.w3.org/2000/svg">
  <path
    d="M12 19.126C8.1377 19.126 4.93848 15.9336 4.93848 12.0645C4.93848 8.20215 8.13086 5.00293 11.9932 5.00293C15.8623 5.00293 19.0615 8.20215 19.0615 12.0645C19.0615 15.9336 15.8623 19.126 12 19.126ZM12 17.7383C15.1445 17.7383 17.6738 15.209 17.6738 12.0645C17.6738 8.91992 15.1377 6.39746 11.9932 6.39746C8.84863 6.39746 6.33301 8.91992 6.33301 12.0645C6.33301 15.209 8.85547 17.7383 12 17.7383ZM9.23145 15.4619C8.75293 15.6807 8.37695 15.3115 8.60254 14.8262L10.4277 10.9844C10.5439 10.7383 10.6943 10.5879 10.9199 10.4854L14.7549 8.66699C15.2607 8.43457 15.623 8.80371 15.3906 9.30273L13.5723 13.1377C13.4629 13.3633 13.3057 13.5273 13.0732 13.6367L9.23145 15.4619ZM12 12.9395C12.4785 12.9395 12.8682 12.5498 12.8682 12.0713C12.8682 11.5928 12.4785 11.2031 12 11.2031C11.5215 11.2031 11.1318 11.5928 11.1318 12.0713C11.1318 12.5498 11.5215 12.9395 12 12.9395Z"
    stroke="none"
  />
</svg>
