<svg width="36" height="36" viewBox="0 0 36 36" fill="none" xmlns="http://www.w3.org/2000/svg">
  <rect width="36" height="36" rx="18" fill="url(#paint0_linear_5680_33534)"/>
  <g clip-path="url(#clip0_5680_33534)">
    <path
      d="M18 25.126C14.1035 25.126 10.9385 21.9609 10.9385 18.0645C10.9385 14.168 14.1035 11.0029 18 11.0029C21.8965 11.0029 25.0615 14.168 25.0615 18.0645C25.0615 21.9609 21.8965 25.126 18 25.126ZM18 23.7314C21.1377 23.7314 23.6738 21.2021 23.6738 18.0645C23.6738 14.9268 21.1377 12.3906 18 12.3906C14.8623 12.3906 12.3262 14.9268 12.3262 18.0645C12.3262 21.2021 14.8623 23.7314 18 23.7314ZM15.2314 21.4619C14.7529 21.6807 14.377 21.3115 14.6025 20.8262L16.4277 16.9844C16.5439 16.7383 16.6943 16.5879 16.9199 16.4854L20.7549 14.667C21.2607 14.4346 21.623 14.8037 21.3906 15.3027L19.5723 19.1377C19.4629 19.3633 19.3057 19.5273 19.0732 19.6367L15.2314 21.4619ZM18 18.9395C18.4785 18.9395 18.8682 18.5498 18.8682 18.0713C18.8682 17.5928 18.4785 17.2031 18 17.2031C17.5215 17.2031 17.1318 17.5928 17.1318 18.0713C17.1318 18.5498 17.5215 18.9395 18 18.9395Z"
      fill="white"
    />
  </g>
  <defs>
    <linearGradient id="paint0_linear_5680_33534" x1="-1.5" y1="-3.02059e-07" x2="36" y2="38.5" gradientUnits="userSpaceOnUse">
      <stop stop-color="#FF5B00"/>
      <stop offset="1" stop-color="#F4BE38"/>
    </linearGradient>
    <clipPath id="clip0_5680_33534">
      <rect width="24" height="24" fill="white" transform="translate(6 6)"/>
    </clipPath>
  </defs>
</svg>
