<svg width="360" height="240" viewBox="0 0 360 240" fill="none" xmlns="http://www.w3.org/2000/svg">
<path d="M123.393 100H30C27.7909 100 26 101.791 26 104V192C26 194.209 27.7909 196 30 196H180.5H331C333.209 196 335 194.209 335 192V104C335 101.791 333.209 100 331 100H236.722" stroke="#C2C2C2"/>
<path d="M112.068 123.727H108.648L102.841 127.523V130.886L108.409 127.25H108.545V147H112.068V123.727ZM126.466 147.386C131.841 147.386 134.989 143 134.989 135.375C134.989 127.807 131.795 123.409 126.466 123.409C121.125 123.409 117.943 127.795 117.932 135.375C117.932 142.989 121.08 147.375 126.466 147.386ZM126.466 144.352C123.318 144.352 121.42 141.193 121.42 135.375C121.432 129.58 123.33 126.386 126.466 126.386C129.591 126.386 131.5 129.58 131.5 135.375C131.5 141.193 129.602 144.352 126.466 144.352ZM142.611 143.818H139.338L139.224 145.091C138.963 148.17 138.236 151.273 137.929 152.682H140.338C140.884 151.193 142.088 147.784 142.44 145.057L142.611 143.818ZM154.591 147.386C159.966 147.386 163.114 143 163.114 135.375C163.114 127.807 159.92 123.409 154.591 123.409C149.25 123.409 146.068 127.795 146.057 135.375C146.057 142.989 149.205 147.375 154.591 147.386ZM154.591 144.352C151.443 144.352 149.545 141.193 149.545 135.375C149.557 129.58 151.455 126.386 154.591 126.386C157.716 126.386 159.625 129.58 159.625 135.375C159.625 141.193 157.727 144.352 154.591 144.352ZM175.247 147.386C180.622 147.386 183.77 143 183.77 135.375C183.77 127.807 180.577 123.409 175.247 123.409C169.906 123.409 166.724 127.795 166.713 135.375C166.713 142.989 169.861 147.375 175.247 147.386ZM175.247 144.352C172.099 144.352 170.202 141.193 170.202 135.375C170.213 129.58 172.111 126.386 175.247 126.386C178.372 126.386 180.281 129.58 180.281 135.375C180.281 141.193 178.384 144.352 175.247 144.352ZM195.903 147.386C201.278 147.386 204.426 143 204.426 135.375C204.426 127.807 201.233 123.409 195.903 123.409C190.562 123.409 187.381 127.795 187.369 135.375C187.369 142.989 190.517 147.375 195.903 147.386ZM195.903 144.352C192.756 144.352 190.858 141.193 190.858 135.375C190.869 129.58 192.767 126.386 195.903 126.386C199.028 126.386 200.938 129.58 200.938 135.375C200.938 141.193 199.04 144.352 195.903 144.352ZM209.866 147.216C211.105 147.216 212.139 146.205 212.139 144.943C212.139 143.705 211.105 142.682 209.866 142.682C208.616 142.682 207.594 143.705 207.594 144.943C207.594 146.205 208.616 147.216 209.866 147.216ZM223.872 147.386C229.247 147.386 232.395 143 232.395 135.375C232.395 127.807 229.202 123.409 223.872 123.409C218.531 123.409 215.349 127.795 215.338 135.375C215.338 142.989 218.486 147.375 223.872 147.386ZM223.872 144.352C220.724 144.352 218.827 141.193 218.827 135.375C218.838 129.58 220.736 126.386 223.872 126.386C226.997 126.386 228.906 129.58 228.906 135.375C228.906 141.193 227.009 144.352 223.872 144.352Z" fill="#1B262C"/>
<path d="M248.25 149.909H250.386L250.398 147.352C255.205 147 257.955 144.25 257.955 140.568C257.955 136.375 254.216 134.75 251.261 134.023L250.432 133.807L250.455 126.511C252.58 126.795 254.034 127.977 254.25 129.841H257.636C257.545 126.375 254.682 123.784 250.466 123.443L250.477 120.818H248.341L248.33 123.466C244.25 123.875 241.261 126.42 241.261 130.091C241.261 133.33 243.58 135.227 247.318 136.239L248.295 136.5L248.273 144.239C246.057 143.966 244.341 142.761 244.159 140.568H240.636C240.852 144.489 243.682 147.011 248.261 147.352L248.25 149.909ZM250.409 144.239L250.432 137.091C252.739 137.727 254.477 138.568 254.477 140.534C254.477 142.523 252.818 143.92 250.409 144.239ZM248.307 133.239C246.614 132.739 244.75 131.841 244.761 129.886C244.761 128.182 246.114 126.852 248.318 126.523L248.307 133.239Z" fill="#4A5568"/>
<path d="M142.626 163.636H141.129L138.038 165.689V167.21L141.057 165.206H141.129V176H142.626V163.636ZM147.601 174.31H146.055L145.983 174.986C145.808 176.622 145.464 178.252 145.307 179.018H146.393C146.683 178.197 147.299 176.338 147.504 174.962L147.601 174.31ZM153.929 176.169C156.326 176.169 158.107 174.666 158.107 172.643C158.107 171.074 157.177 169.933 155.619 169.673V169.577C156.869 169.196 157.648 168.17 157.648 166.776C157.648 165.025 156.265 163.467 153.977 163.467C151.84 163.467 150.065 164.783 149.993 166.727H151.442C151.496 165.496 152.667 164.771 153.953 164.771C155.318 164.771 156.199 165.598 156.199 166.848C156.199 168.152 155.179 168.997 153.712 168.997H152.722V170.325H153.712C155.589 170.325 156.634 171.279 156.634 172.643C156.634 173.953 155.493 174.841 153.905 174.841C152.474 174.841 151.339 174.104 151.249 172.909H149.727C149.818 174.853 151.532 176.169 153.929 176.169ZM164.512 163.467C162 163.437 160.383 165.327 160.383 167.597C160.383 169.987 162.145 171.702 164.27 171.702C165.55 171.702 166.637 171.074 167.313 170.06H167.41C167.41 173.102 166.226 174.841 164.319 174.841C163.015 174.841 162.218 174.02 161.952 172.885H160.479C160.769 174.841 162.242 176.169 164.319 176.169C167.096 176.169 168.81 173.706 168.81 169.311C168.81 164.771 166.54 163.491 164.512 163.467ZM164.512 164.795C166.057 164.795 167.192 166.124 167.192 167.572C167.192 169.045 165.985 170.374 164.464 170.374C162.942 170.374 161.831 169.142 161.831 167.597C161.831 166.051 162.991 164.795 164.512 164.795ZM175.217 176.169C177.945 176.169 179.515 173.857 179.515 169.818C179.515 165.81 177.921 163.467 175.217 163.467C172.512 163.467 170.919 165.81 170.919 169.818C170.919 173.857 172.488 176.169 175.217 176.169ZM175.217 174.841C173.418 174.841 172.367 173.036 172.367 169.818C172.367 166.607 173.43 164.771 175.217 164.771C177.004 164.771 178.066 166.607 178.066 169.818C178.066 173.036 177.016 174.841 175.217 174.841ZM182.44 176.097C183.038 176.097 183.527 175.608 183.527 175.01C183.527 174.412 183.038 173.923 182.44 173.923C181.842 173.923 181.353 174.412 181.353 175.01C181.353 175.608 181.842 176.097 182.44 176.097ZM185.769 173.464H191.589V176H193.014V173.464H194.704V172.136H193.014V163.636H191.203L185.769 172.233V173.464ZM191.589 172.136H187.387V172.04L191.492 165.544H191.589V172.136ZM197.353 176H198.922L204.428 165.037V163.636H196.508V164.964H202.883V165.061L197.353 176Z" fill="#1B262C"/>
<path d="M214.42 174.929C214.692 174.929 214.947 174.912 215.185 174.878C215.423 174.833 215.65 174.782 215.865 174.725V175.881C215.65 175.96 215.389 176.028 215.083 176.085C214.788 176.142 214.465 176.17 214.114 176.17C213.309 176.17 212.68 175.96 212.227 175.541C211.785 175.11 211.564 174.379 211.564 173.348V168.061H210.272V167.347L211.632 166.786L212.176 164.78H213.06V166.871H222.784V167.891L218.738 172.158C220.302 172.237 221.424 172.611 222.104 173.28C222.784 173.949 223.124 174.855 223.124 176C223.135 176.793 222.96 177.502 222.597 178.125C222.246 178.748 221.736 179.23 221.067 179.57C220.398 179.921 219.594 180.091 218.653 180.08C217.429 180.08 216.358 179.882 215.44 179.485V178.108C215.961 178.357 216.483 178.539 217.004 178.652C217.537 178.765 218.058 178.822 218.568 178.822C219.588 178.822 220.347 178.55 220.846 178.006C221.345 177.462 221.594 176.776 221.594 175.949C221.594 175.122 221.316 174.481 220.761 174.028C220.206 173.563 219.288 173.331 218.007 173.331H216.987V172.209L220.897 168.061H213.06V173.28C213.06 174.379 213.513 174.929 214.42 174.929Z" fill="#4A5568"/>
<rect x="91" y="44" width="180" height="32" rx="8" fill="#EDF2F7"/>
<path d="M113.377 56.6364H111.164V54.1534H109.571V56.6364H108.006V57.9858H109.571V64.4631C109.571 66.2713 111.029 67.1349 112.378 67.1349C112.972 67.1349 113.35 67.027 113.566 66.946L113.242 65.5156C113.107 65.5426 112.891 65.5966 112.54 65.5966C111.838 65.5966 111.164 65.3807 111.164 64.0312V57.9858H113.377V56.6364ZM115.475 67H123.599V65.5156H117.688V65.4077L123.41 57.9048V56.6364H115.664V58.1207H121.358V58.2287L115.475 65.7855V67ZM130.882 53.1818H129.209L125.754 55.4759V57.1761L129.128 54.9361H129.209V67H130.882V53.1818ZM146.056 53.1818H144.41V64.0582H144.275L136.718 53.1818H135.099V67H136.772V56.1506H136.907L144.437 67H146.056V53.1818ZM151.915 67H153.642L156.692 55.9886H156.8L159.849 67H161.577L165.355 53.1818H163.655L160.767 64.4361H160.632L157.69 53.1818H155.801L152.859 64.4361H152.724L149.837 53.1818H148.136L151.915 67ZM168.816 60.7656C168.816 58.9574 169.97 57.9318 171.542 57.9318C173.04 57.9318 173.944 58.8764 173.944 60.5227V67H175.536V60.4148C175.536 57.7496 174.12 56.5014 172.001 56.5014C170.368 56.5014 169.437 57.1829 168.951 58.2557H168.816V53.1818H167.224V67H168.816V60.7656ZM179.61 67.108C180.278 67.108 180.825 66.5614 180.825 65.8935C180.825 65.2255 180.278 64.679 179.61 64.679C178.942 64.679 178.396 65.2255 178.396 65.8935C178.396 66.5614 178.942 67.108 179.61 67.108ZM184.843 67.108C185.51 67.108 186.057 66.5614 186.057 65.8935C186.057 65.2255 185.51 64.679 184.843 64.679C184.175 64.679 183.628 65.2255 183.628 65.8935C183.628 66.5614 184.175 67.108 184.843 67.108ZM190.075 67.108C190.743 67.108 191.289 66.5614 191.289 65.8935C191.289 65.2255 190.743 64.679 190.075 64.679C189.407 64.679 188.86 65.2255 188.86 65.8935C188.86 66.5614 189.407 67.108 190.075 67.108ZM198.119 67.1889C200.879 67.1889 202.802 65.5763 202.815 63.3295C202.802 61.582 201.634 60.0977 200.143 59.821V59.7401C201.439 59.4027 202.289 58.1342 202.302 56.6634C202.289 54.5582 200.521 52.9929 198.119 52.9929C195.69 52.9929 193.922 54.5582 193.936 56.6634C193.922 58.1342 194.773 59.4027 196.095 59.7401V59.821C194.577 60.0977 193.41 61.582 193.423 63.3295C193.41 65.5763 195.333 67.1889 198.119 67.1889ZM198.119 65.7045C196.223 65.7045 195.056 64.733 195.07 63.2486C195.056 61.69 196.345 60.5767 198.119 60.5767C199.867 60.5767 201.155 61.69 201.169 63.2486C201.155 64.733 199.988 65.7045 198.119 65.7045ZM198.119 59.1463C196.608 59.1463 195.542 58.2017 195.555 56.7713C195.542 55.3679 196.567 54.4503 198.119 54.4503C199.644 54.4503 200.67 55.3679 200.683 56.7713C200.67 58.2017 199.604 59.1463 198.119 59.1463ZM205.401 67H214.118V65.5156H207.695V65.4077L210.799 62.0881C213.174 59.5444 213.876 58.3569 213.876 56.8253C213.876 54.6932 212.148 52.9929 209.719 52.9929C207.297 52.9929 205.455 54.6392 205.455 57.0682H207.047C207.047 55.4961 208.066 54.4503 209.665 54.4503C211.163 54.4503 212.31 55.3679 212.31 56.8253C212.31 58.1005 211.561 59.0451 209.962 60.7926L205.401 65.7855V67ZM217.337 67H219.091L225.244 54.7472V53.1818H216.392V54.6662H223.517V54.7741L217.337 67ZM228.002 53.1818V67H229.568V56.5014H229.703L234.021 67H235.532L239.85 56.5014H239.985V67H241.551V53.1818H239.554L234.858 64.652H234.696L230 53.1818H228.002ZM244.906 67H253.353V65.5156H246.579V60.8196H252.813V59.3352H246.579V54.6662H253.245V53.1818H244.906V67Z" fill="#4A5568"/>
<path d="M161.616 96.1406H164.788V105H166.32V96.1406H169.496V94.8182H161.616V96.1406ZM173.302 105.154C174.968 105.154 176.146 104.334 176.484 103.091L175.077 102.837C174.809 103.558 174.162 103.926 173.317 103.926C172.044 103.926 171.189 103.101 171.15 101.629H176.578V101.102C176.578 98.343 174.928 97.2642 173.198 97.2642C171.07 97.2642 169.668 98.8849 169.668 101.232C169.668 103.603 171.05 105.154 173.302 105.154ZM171.154 100.516C171.214 99.4318 172 98.4922 173.208 98.4922C174.361 98.4922 175.117 99.3473 175.122 100.516H171.154ZM178.069 105H184.199V103.707H180.082V103.638L184.059 98.4474V97.3636H178.203V98.6562H182.205V98.7259L178.069 103.981V105ZM188.95 105.154C191.103 105.154 192.51 103.578 192.51 101.217C192.51 98.8402 191.103 97.2642 188.95 97.2642C186.798 97.2642 185.391 98.8402 185.391 101.217C185.391 103.578 186.798 105.154 188.95 105.154ZM188.955 103.906C187.548 103.906 186.892 102.678 186.892 101.212C186.892 99.75 187.548 98.5071 188.955 98.5071C190.352 98.5071 191.009 99.75 191.009 101.212C191.009 102.678 190.352 103.906 188.955 103.906ZM199.892 99.228C199.583 98.0398 198.654 97.2642 197.003 97.2642C195.278 97.2642 194.055 98.174 194.055 99.5263C194.055 100.61 194.711 101.331 196.143 101.649L197.436 101.933C198.171 102.097 198.514 102.425 198.514 102.902C198.514 103.494 197.883 103.956 196.909 103.956C196.019 103.956 195.447 103.573 195.268 102.822L193.831 103.041C194.08 104.393 195.203 105.154 196.919 105.154C198.763 105.154 200.041 104.175 200.041 102.793C200.041 101.714 199.355 101.048 197.953 100.724L196.74 100.446C195.899 100.247 195.536 99.9638 195.541 99.4467C195.536 98.8601 196.173 98.4425 197.018 98.4425C197.943 98.4425 198.37 98.9545 198.544 99.4666L199.892 99.228Z" fill="#718096"/>
</svg>
