<svg width="360" height="240" viewBox="0 0 360 240" fill="none" xmlns="http://www.w3.org/2000/svg">
<g filter="url(#filter0_d_50:944)">
<rect x="82.3533" y="24" width="72" height="72" rx="8" fill="#4299E1"/>
<rect x="83.969" y="25.6157" width="68.7686" height="68.7686" rx="6.3843" stroke="#4299E1" stroke-width="3.23141"/>
</g>
<path d="M117.899 45.0042V66.0083" stroke="white" stroke-width="3.23141" stroke-linecap="round" stroke-linejoin="round"/>
<path d="M109.82 59.5455L117.899 67.624L125.977 59.5455" stroke="white" stroke-width="3.23141" stroke-linecap="round" stroke-linejoin="round"/>
<path d="M130.824 74.0868H104.973" stroke="white" stroke-width="3.23141" stroke-linecap="round" stroke-linejoin="round"/>
<path d="M90.0593 122H91.4684V117.455H94.0138C94.1161 117.455 94.2127 117.455 94.3093 117.449L96.7638 122H98.4002L95.7695 117.193C97.2525 116.688 97.9456 115.477 97.9456 113.932C97.9456 111.875 96.7184 110.364 93.9911 110.364H90.0593V122ZM91.4684 116.182V111.614H93.9456C95.832 111.614 96.5593 112.534 96.5593 113.932C96.5593 115.33 95.832 116.182 93.9684 116.182H91.4684ZM103.677 122.182C105.45 122.182 106.745 121.295 107.154 119.977L105.859 119.614C105.518 120.523 104.728 120.977 103.677 120.977C102.103 120.977 101.018 119.96 100.956 118.091H107.291V117.523C107.291 114.273 105.359 113.159 103.541 113.159C101.177 113.159 99.609 115.023 99.609 117.705C99.609 120.386 101.154 122.182 103.677 122.182ZM100.956 116.932C101.046 115.574 102.007 114.364 103.541 114.364C104.995 114.364 105.927 115.455 105.927 116.932H100.956ZM112.876 122.182C114.808 122.182 116.081 121 116.308 119.455H114.967C114.717 120.409 113.921 120.977 112.876 120.977C111.285 120.977 110.262 119.659 110.262 117.636C110.262 115.659 111.308 114.364 112.876 114.364C114.058 114.364 114.762 115.091 114.967 115.886H116.308C116.081 114.25 114.694 113.159 112.853 113.159C110.49 113.159 108.921 115.023 108.921 117.682C108.921 120.295 110.421 122.182 112.876 122.182ZM121.927 122.182C123.7 122.182 124.995 121.295 125.404 119.977L124.109 119.614C123.768 120.523 122.978 120.977 121.927 120.977C120.353 120.977 119.268 119.96 119.206 118.091H125.541V117.523C125.541 114.273 123.609 113.159 121.791 113.159C119.427 113.159 117.859 115.023 117.859 117.705C117.859 120.386 119.404 122.182 121.927 122.182ZM119.206 116.932C119.296 115.574 120.257 114.364 121.791 114.364C123.245 114.364 124.177 115.455 124.177 116.932H119.206ZM127.581 122H128.921V113.273H127.581V122ZM128.262 111.818C128.785 111.818 129.217 111.409 129.217 110.909C129.217 110.409 128.785 110 128.262 110C127.74 110 127.308 110.409 127.308 110.909C127.308 111.409 127.74 111.818 128.262 111.818ZM138.514 113.273H137.059L134.65 120.227H134.559L132.15 113.273H130.696L133.923 122H135.287L138.514 113.273ZM143.63 122.182C145.403 122.182 146.698 121.295 147.108 119.977L145.812 119.614C145.471 120.523 144.681 120.977 143.63 120.977C142.056 120.977 140.971 119.96 140.909 118.091H147.244V117.523C147.244 114.273 145.312 113.159 143.494 113.159C141.13 113.159 139.562 115.023 139.562 117.705C139.562 120.386 141.108 122.182 143.63 122.182ZM140.909 116.932C141 115.574 141.96 114.364 143.494 114.364C144.948 114.364 145.88 115.455 145.88 116.932H140.909Z" fill="#4299E1"/>
<g filter="url(#filter1_d_50:944)">
<rect x="206.409" y="24" width="72" height="72" rx="8" fill="#4299E1"/>
<rect x="208.025" y="25.6157" width="68.7686" height="68.7686" rx="6.3843" stroke="#4299E1" stroke-width="3.23141"/>
</g>
<path d="M232.26 49.8513H256.496L254.072 64.3926H234.684L232.26 49.8513Z" stroke="white" stroke-width="3.23141" stroke-linecap="round" stroke-linejoin="round"/>
<path d="M237.108 72.4711C238 72.4711 238.723 71.7477 238.723 70.8554C238.723 69.9631 238 69.2397 237.108 69.2397C236.215 69.2397 235.492 69.9631 235.492 70.8554C235.492 71.7477 236.215 72.4711 237.108 72.4711Z" stroke="white" stroke-width="3.23141" stroke-linecap="round" stroke-linejoin="round"/>
<path d="M251.649 72.4711C252.541 72.4711 253.264 71.7477 253.264 70.8554C253.264 69.9631 252.541 69.2397 251.649 69.2397C250.756 69.2397 250.033 69.9631 250.033 70.8554C250.033 71.7477 250.756 72.4711 251.649 72.4711Z" stroke="white" stroke-width="3.23141" stroke-linecap="round" stroke-linejoin="round"/>
<path d="M232.26 49.8513L229.029 46.6199" stroke="white" stroke-width="3.23141" stroke-linecap="round" stroke-linejoin="round"/>
<path d="M229.506 122H233.71C236.46 122 237.597 120.659 237.597 118.909C237.597 117.068 236.324 116.068 235.256 116V115.886C236.256 115.614 237.142 114.955 237.142 113.455C237.142 111.75 236.006 110.364 233.574 110.364H229.506V122ZM230.915 120.75V116.705H233.778C235.301 116.705 236.256 117.727 236.256 118.909C236.256 119.932 235.551 120.75 233.71 120.75H230.915ZM230.915 115.477V111.614H233.574C235.119 111.614 235.801 112.432 235.801 113.455C235.801 114.682 234.801 115.477 233.528 115.477H230.915ZM245.23 118.432C245.23 120.068 243.98 120.818 242.98 120.818C241.866 120.818 241.071 120 241.071 118.727V113.273H239.73V118.818C239.73 121.045 240.912 122.114 242.548 122.114C243.866 122.114 244.73 121.409 245.139 120.523H245.23V122H246.571V113.273H245.23V118.432ZM249.891 125.273C251.101 125.273 251.953 124.631 252.459 123.273L256.175 113.295L254.709 113.273L252.3 120.227H252.209L249.8 113.273H248.345L251.572 122.045L251.322 122.727C250.834 124.057 250.232 124.182 249.254 123.932L248.913 125.114C249.05 125.182 249.436 125.273 249.891 125.273Z" fill="#4299E1"/>
<g filter="url(#filter2_d_50:944)">
<path d="M82.2046 156.236C82.2046 154.026 83.9955 152.236 86.2046 152.236H122.205C124.414 152.236 126.205 154.026 126.205 156.236V192.236C126.205 194.445 124.414 196.236 122.205 196.236H86.2046C83.9954 196.236 82.2046 194.445 82.2046 192.236V156.236Z" fill="#4299E1"/>
<path d="M83.2046 156.236C83.2046 154.579 84.5477 153.236 86.2046 153.236H122.205C123.861 153.236 125.205 154.579 125.205 156.236V192.236C125.205 193.892 123.861 195.236 122.205 195.236H86.2046C84.5477 195.236 83.2046 193.892 83.2046 192.236V156.236Z" stroke="#4299E1" stroke-width="2"/>
</g>
<path d="M108.205 166.236L111.205 169.236L108.205 172.236" stroke="white" stroke-width="2" stroke-linecap="round" stroke-linejoin="round"/>
<path d="M96.2046 169.236H110.205" stroke="white" stroke-width="2" stroke-linecap="round" stroke-linejoin="round"/>
<path d="M99.2046 182.236L96.2046 179.236L99.2046 176.236" stroke="white" stroke-width="2" stroke-linecap="round" stroke-linejoin="round"/>
<path d="M111.205 179.236H97.2046" stroke="white" stroke-width="2" stroke-linecap="round" stroke-linejoin="round"/>
<path d="M94.2959 205.69H95.3186C95.2717 204.373 94.0572 203.389 92.3697 203.389C90.6993 203.389 89.3868 204.361 89.3868 205.826C89.3868 207.003 90.239 207.701 91.6027 208.094L92.6765 208.4C93.597 208.656 94.4152 208.98 94.4152 209.849C94.4152 210.804 93.4947 211.434 92.2845 211.434C91.2447 211.434 90.3243 210.974 90.239 209.986H89.1481C89.2504 211.417 90.4095 212.389 92.2845 212.389C94.2959 212.389 95.4379 211.281 95.4379 209.866C95.4379 208.23 93.8868 207.701 92.9834 207.463L92.097 207.224C91.4493 207.054 90.4095 206.713 90.4095 205.775C90.4095 204.94 91.1765 204.326 92.3356 204.326C93.3924 204.326 94.1936 204.829 94.2959 205.69ZM98.5221 212.236H99.5107L100.943 207.207H101.045L102.477 212.236H103.465L105.46 205.69H104.403L102.988 210.684H102.92L101.539 205.69H100.465L99.0675 210.701H98.9993L97.5846 205.69H96.5277L98.5221 212.236ZM108.715 212.389C109.857 212.389 110.454 211.775 110.658 211.349H110.71V212.236H111.715V207.923C111.715 205.844 110.13 205.605 109.295 205.605C108.306 205.605 107.181 205.946 106.67 207.139L107.624 207.48C107.846 207.003 108.37 206.491 109.329 206.491C110.254 206.491 110.71 206.981 110.71 207.821V207.855C110.71 208.341 110.215 208.298 109.022 208.451C107.808 208.609 106.482 208.878 106.482 210.378C106.482 211.656 107.471 212.389 108.715 212.389ZM108.869 211.486C108.068 211.486 107.488 211.128 107.488 210.429C107.488 209.662 108.187 209.423 108.971 209.321C109.397 209.27 110.539 209.15 110.71 208.946V209.866C110.71 210.684 110.062 211.486 108.869 211.486ZM113.551 214.69H114.557V211.23H114.642C114.863 211.588 115.289 212.372 116.551 212.372C118.187 212.372 119.329 211.059 119.329 208.98C119.329 206.917 118.187 205.605 116.534 205.605C115.255 205.605 114.863 206.389 114.642 206.73H114.522V205.69H113.551V214.69ZM114.539 208.963C114.539 207.497 115.187 206.508 116.414 206.508C117.693 206.508 118.324 207.582 118.324 208.963C118.324 210.361 117.676 211.469 116.414 211.469C115.204 211.469 114.539 210.446 114.539 208.963Z" fill="#4299E1"/>
<g filter="url(#filter3_d_50:944)">
<path d="M158.205 156.236C158.205 154.026 159.995 152.236 162.205 152.236H198.205C200.414 152.236 202.205 154.026 202.205 156.236V192.236C202.205 194.445 200.414 196.236 198.205 196.236H162.205C159.995 196.236 158.205 194.445 158.205 192.236V156.236Z" fill="#4299E1"/>
<path d="M159.205 156.236C159.205 154.579 160.548 153.236 162.205 153.236H198.205C199.861 153.236 201.205 154.579 201.205 156.236V192.236C201.205 193.892 199.861 195.236 198.205 195.236H162.205C160.548 195.236 159.205 193.892 159.205 192.236V156.236Z" stroke="#4299E1" stroke-width="2"/>
</g>
<path d="M178.204 165.236H171.204V172.236H178.204V165.236Z" stroke="white" stroke-width="2" stroke-linecap="round" stroke-linejoin="round"/>
<path d="M189.204 165.236H182.204V172.236H189.204V165.236Z" stroke="white" stroke-width="2" stroke-linecap="round" stroke-linejoin="round"/>
<path d="M178.204 176.236H171.204V183.236H178.204V176.236Z" stroke="white" stroke-width="2" stroke-linecap="round" stroke-linejoin="round"/>
<path d="M189.204 176.236H182.204V183.236H189.204V176.236Z" stroke="white" stroke-width="2" stroke-linecap="round" stroke-linejoin="round"/>
<path d="M165.345 212.236C168.004 212.236 169.504 210.582 169.504 207.855C169.504 205.145 168.004 203.508 165.465 203.508H162.652V212.236H165.345ZM163.709 211.298V204.446H165.396C167.442 204.446 168.482 205.741 168.482 207.855C168.482 209.986 167.442 211.298 165.277 211.298H163.709ZM171.225 212.236L172.103 209.764H175.631L176.509 212.236H177.617L174.412 203.508H173.321L170.117 212.236H171.225ZM172.435 208.826L173.833 204.889H173.901L175.299 208.826H172.435ZM178.84 214.69H179.846V211.23H179.931C180.152 211.588 180.579 212.372 181.84 212.372C183.476 212.372 184.618 211.059 184.618 208.98C184.618 206.917 183.476 205.605 181.823 205.605C180.544 205.605 180.152 206.389 179.931 206.73H179.811V205.69H178.84V214.69ZM179.829 208.963C179.829 207.497 180.476 206.508 181.704 206.508C182.982 206.508 183.613 207.582 183.613 208.963C183.613 210.361 182.965 211.469 181.704 211.469C180.493 211.469 179.829 210.446 179.829 208.963ZM186.152 214.69H187.158V211.23H187.243C187.465 211.588 187.891 212.372 189.152 212.372C190.789 212.372 191.931 211.059 191.931 208.98C191.931 206.917 190.789 205.605 189.135 205.605C187.857 205.605 187.465 206.389 187.243 206.73H187.124V205.69H186.152V214.69ZM187.141 208.963C187.141 207.497 187.789 206.508 189.016 206.508C190.294 206.508 190.925 207.582 190.925 208.963C190.925 210.361 190.277 211.469 189.016 211.469C187.806 211.469 187.141 210.446 187.141 208.963ZM198.101 207.156C197.786 206.227 197.079 205.605 195.783 205.605C194.402 205.605 193.38 206.389 193.38 207.497C193.38 208.4 193.917 209.005 195.118 209.287L196.209 209.542C196.87 209.696 197.181 210.011 197.181 210.463C197.181 211.025 196.584 211.486 195.647 211.486C194.824 211.486 194.309 211.132 194.13 210.429L193.175 210.667C193.409 211.78 194.326 212.372 195.664 212.372C197.185 212.372 198.221 211.541 198.221 210.412C198.221 209.5 197.65 208.924 196.482 208.639L195.51 208.4C194.735 208.209 194.385 207.949 194.385 207.446C194.385 206.883 194.982 206.474 195.783 206.474C196.661 206.474 197.023 206.96 197.198 207.412L198.101 207.156Z" fill="#4299E1"/>
<g filter="url(#filter4_d_50:944)">
<path d="M234.205 156.236C234.205 154.026 235.995 152.236 238.205 152.236H274.205C276.414 152.236 278.205 154.026 278.205 156.236V192.236C278.205 194.445 276.414 196.236 274.205 196.236H238.205C235.995 196.236 234.205 194.445 234.205 192.236V156.236Z" fill="#4299E1"/>
<path d="M235.205 156.236C235.205 154.579 236.548 153.236 238.205 153.236H274.205C275.861 153.236 277.205 154.579 277.205 156.236V192.236C277.205 193.892 275.861 195.236 274.205 195.236H238.205C236.548 195.236 235.205 193.892 235.205 192.236V156.236Z" stroke="#4299E1" stroke-width="2"/>
</g>
<path d="M256.204 166.236V179.236" stroke="white" stroke-width="2" stroke-linecap="round" stroke-linejoin="round"/>
<path d="M251.204 170.236L256.204 165.236L261.204 170.236" stroke="white" stroke-width="2" stroke-linecap="round" stroke-linejoin="round"/>
<path d="M264.204 183.236H248.204" stroke="white" stroke-width="2" stroke-linecap="round" stroke-linejoin="round"/>
<path d="M247.479 205.69H248.502C248.455 204.373 247.241 203.389 245.553 203.389C243.883 203.389 242.57 204.361 242.57 205.826C242.57 207.003 243.423 207.701 244.786 208.094L245.86 208.4C246.781 208.656 247.599 208.98 247.599 209.849C247.599 210.804 246.678 211.434 245.468 211.434C244.428 211.434 243.508 210.974 243.423 209.986H242.332C242.434 211.417 243.593 212.389 245.468 212.389C247.479 212.389 248.621 211.281 248.621 209.866C248.621 208.23 247.07 207.701 246.167 207.463L245.281 207.224C244.633 207.054 243.593 206.713 243.593 205.775C243.593 204.94 244.36 204.326 245.519 204.326C246.576 204.326 247.377 204.829 247.479 205.69ZM252.967 212.372C254.297 212.372 255.268 211.707 255.575 210.719L254.603 210.446C254.348 211.128 253.755 211.469 252.967 211.469C251.787 211.469 250.973 210.706 250.926 209.304H255.677V208.878C255.677 206.44 254.228 205.605 252.865 205.605C251.092 205.605 249.916 207.003 249.916 209.014C249.916 211.025 251.075 212.372 252.967 212.372ZM250.926 208.434C250.994 207.416 251.714 206.508 252.865 206.508C253.956 206.508 254.655 207.326 254.655 208.434H250.926ZM258.213 208.298C258.213 207.156 258.92 206.508 259.883 206.508C260.816 206.508 261.383 207.118 261.383 208.145V212.236H262.389V208.076C262.389 206.406 261.498 205.605 260.173 205.605C259.184 205.605 258.571 206.048 258.264 206.713H258.179V205.69H257.207V212.236H258.213V208.298ZM266.698 212.372C267.96 212.372 268.386 211.588 268.607 211.23H268.727V212.236H269.698V203.508H268.693V206.73H268.607C268.386 206.389 267.994 205.605 266.715 205.605C265.062 205.605 263.92 206.917 263.92 208.98C263.92 211.059 265.062 212.372 266.698 212.372ZM266.835 211.469C265.573 211.469 264.925 210.361 264.925 208.963C264.925 207.582 265.556 206.508 266.835 206.508C268.062 206.508 268.71 207.497 268.71 208.963C268.71 210.446 268.045 211.469 266.835 211.469Z" fill="#4299E1"/>
<defs>
<filter id="filter0_d_50:944" x="79.1219" y="22.3843" width="78.4628" height="78.4628" filterUnits="userSpaceOnUse" color-interpolation-filters="sRGB">
<feFlood flood-opacity="0" result="BackgroundImageFix"/>
<feColorMatrix in="SourceAlpha" type="matrix" values="0 0 0 0 0 0 0 0 0 0 0 0 0 0 0 0 0 0 127 0" result="hardAlpha"/>
<feOffset dy="1.6157"/>
<feGaussianBlur stdDeviation="1.6157"/>
<feColorMatrix type="matrix" values="0 0 0 0 0 0 0 0 0 0 0 0 0 0 0 0 0 0 0.05 0"/>
<feBlend mode="normal" in2="BackgroundImageFix" result="effect1_dropShadow_50:944"/>
<feBlend mode="normal" in="SourceGraphic" in2="effect1_dropShadow_50:944" result="shape"/>
</filter>
<filter id="filter1_d_50:944" x="203.178" y="22.3843" width="78.4628" height="78.4628" filterUnits="userSpaceOnUse" color-interpolation-filters="sRGB">
<feFlood flood-opacity="0" result="BackgroundImageFix"/>
<feColorMatrix in="SourceAlpha" type="matrix" values="0 0 0 0 0 0 0 0 0 0 0 0 0 0 0 0 0 0 127 0" result="hardAlpha"/>
<feOffset dy="1.6157"/>
<feGaussianBlur stdDeviation="1.6157"/>
<feColorMatrix type="matrix" values="0 0 0 0 0 0 0 0 0 0 0 0 0 0 0 0 0 0 0.05 0"/>
<feBlend mode="normal" in2="BackgroundImageFix" result="effect1_dropShadow_50:944"/>
<feBlend mode="normal" in="SourceGraphic" in2="effect1_dropShadow_50:944" result="shape"/>
</filter>
<filter id="filter2_d_50:944" x="80.2046" y="151.236" width="48" height="48" filterUnits="userSpaceOnUse" color-interpolation-filters="sRGB">
<feFlood flood-opacity="0" result="BackgroundImageFix"/>
<feColorMatrix in="SourceAlpha" type="matrix" values="0 0 0 0 0 0 0 0 0 0 0 0 0 0 0 0 0 0 127 0" result="hardAlpha"/>
<feOffset dy="1"/>
<feGaussianBlur stdDeviation="1"/>
<feColorMatrix type="matrix" values="0 0 0 0 0 0 0 0 0 0 0 0 0 0 0 0 0 0 0.05 0"/>
<feBlend mode="normal" in2="BackgroundImageFix" result="effect1_dropShadow_50:944"/>
<feBlend mode="normal" in="SourceGraphic" in2="effect1_dropShadow_50:944" result="shape"/>
</filter>
<filter id="filter3_d_50:944" x="156.205" y="151.236" width="48" height="48" filterUnits="userSpaceOnUse" color-interpolation-filters="sRGB">
<feFlood flood-opacity="0" result="BackgroundImageFix"/>
<feColorMatrix in="SourceAlpha" type="matrix" values="0 0 0 0 0 0 0 0 0 0 0 0 0 0 0 0 0 0 127 0" result="hardAlpha"/>
<feOffset dy="1"/>
<feGaussianBlur stdDeviation="1"/>
<feColorMatrix type="matrix" values="0 0 0 0 0 0 0 0 0 0 0 0 0 0 0 0 0 0 0.05 0"/>
<feBlend mode="normal" in2="BackgroundImageFix" result="effect1_dropShadow_50:944"/>
<feBlend mode="normal" in="SourceGraphic" in2="effect1_dropShadow_50:944" result="shape"/>
</filter>
<filter id="filter4_d_50:944" x="232.205" y="151.236" width="48" height="48" filterUnits="userSpaceOnUse" color-interpolation-filters="sRGB">
<feFlood flood-opacity="0" result="BackgroundImageFix"/>
<feColorMatrix in="SourceAlpha" type="matrix" values="0 0 0 0 0 0 0 0 0 0 0 0 0 0 0 0 0 0 127 0" result="hardAlpha"/>
<feOffset dy="1"/>
<feGaussianBlur stdDeviation="1"/>
<feColorMatrix type="matrix" values="0 0 0 0 0 0 0 0 0 0 0 0 0 0 0 0 0 0 0.05 0"/>
<feBlend mode="normal" in2="BackgroundImageFix" result="effect1_dropShadow_50:944"/>
<feBlend mode="normal" in="SourceGraphic" in2="effect1_dropShadow_50:944" result="shape"/>
</filter>
</defs>
</svg>
