<svg viewBox="0 0 600 400" xmlns="http://www.w3.org/2000/svg" xmlns:xlink="http://www.w3.org/1999/xlink">
    <path fill="red" d="M0 0h600v400H0z"/>
    <path fill="#060" d="M0 0h240v400H0z"/>
    <g stroke-linejoin="round" fill-rule="evenodd" stroke="#000" stroke-linecap="round" stroke-width=".573" fill="#ff0">
        <path d="M318.24 262.04c-30.21-.91-168.74-87.38-169.69-101.15l7.65-12.757c13.74 19.966 155.36 104.06 169.27 101.08l-7.23 12.823"/>
        <path d="M154.59 146.4c-2.71 7.294 36.15 31.318 82.903 59.754 46.752 28.434 87.065 46.006 90.053 43.486.183-.325 1.47-2.54 1.352-2.523-.56.844-1.923 1.11-4.05.497-12.632-3.643-45.576-18.765-86.375-43.506-40.798-24.743-76.294-47.544-81.81-57.232-.384-.67-.658-1.896-.602-2.848l-.13-.002-1.17 2.053-.16.32zm164.36 116.04c-.512.93-1.467.96-3.282.76-11.3-1.25-45.59-17.924-86.162-42.212-47.21-28.26-86.2-54.01-81.97-60.74l1.15-2.034.228.07c-3.804 11.405 76.948 57.578 81.702 60.522 46.724 28.947 86.115 45.85 89.6 41.458l-1.267 2.18z"/>
        <path d="M240.17 169.23c30.237-.24 67.55-4.132 89.023-12.69l-4.627-7.517c-12.692 7.025-50.21 11.644-84.652 12.335-40.736-.375-69.49-4.168-83.897-13.835l-4.367 8.005c26.484 11.207 53.623 13.587 88.52 13.703"/>
        <path d="M330.44 156.71c-.74 1.182-14.743 6.01-35.373 9.575-13.988 2.133-32.234 3.956-55.004 3.978-21.633.02-39.305-1.52-52.684-3.333-21.66-3.396-32.84-8.12-36.97-9.79.39-.785.65-1.337 1.03-2.07 11.89 4.736 23.12 7.59 36.28 9.615 13.29 1.8 30.75 3.362 52.27 3.342 22.66-.023 40.71-1.984 54.61-4.053 21.15-3.412 32.71-7.804 34.33-9.843l1.49 2.58h-.01zm-4.06-7.623c-2.293 1.842-13.718 5.894-33.82 9.104-13.414 1.93-30.47 3.65-52.264 3.67-20.704.02-37.62-1.37-50.485-3.25-20.41-2.66-31.27-7.47-35.19-8.87.39-.67.79-1.34 1.2-2.01 3.05 1.54 13.54 5.79 34.23 8.73 12.72 1.81 29.66 3.15 50.26 3.13 21.69-.02 38.56-1.77 51.89-3.69 20.21-2.78 31.08-7.94 32.73-9.24l1.47 2.45v.01zm-185.5 56.573c18.598 10.003 59.905 15.044 98.994 15.39 35.59.057 81.958-5.5 99.297-14.69l-.47-10.01c-5.42 8.476-55.11 16.608-99.2 16.275-44.09-.333-85.04-7.143-98.68-15.96l.08 8.992"/>
        <path d="M340.12 204.22v2.387c-2.605 3.116-18.945 7.826-39.436 11.142-15.595 2.39-35.927 4.19-61.262 4.19-24.07 0-43.263-1.72-58.148-4-23.53-3.43-38.58-9.43-41.6-11.22l.013-2.79c9.075 6.03 33.66 10.44 41.917 11.79 14.788 2.27 33.868 3.97 57.817 3.97 25.22 0 45.44-1.79 60.94-4.17 14.7-2.13 35.65-7.65 39.77-11.33zm.01-8.492v2.387c-2.605 3.114-18.945 7.824-39.436 11.14-15.595 2.39-35.927 4.195-61.262 4.195-24.07 0-43.263-1.715-58.148-4.002-23.53-3.424-38.58-9.424-41.6-11.216l.013-2.785c9.075 6.033 33.66 10.447 41.917 11.796 14.788 2.272 33.868 3.976 57.817 3.976 25.22 0 45.44-1.8 60.94-4.17 14.7-2.13 35.65-7.65 39.77-11.33zM239.79 260.32c-42.772-.255-79.42-11.66-87.16-13.544l5.643 8.834c13.67 5.75 49.424 14.32 81.927 13.37 32.504-.947 60.91-3.465 80.928-13.21l5.787-9.155c-13.642 6.425-60.068 13.64-87.125 13.705"/>
        <path stroke-width=".55"
              d="M323.3 253.72a134.08 134.08 0 0 1-2.596 3.83c-9.442 3.33-24.32 6.824-30.597 7.843-12.824 2.643-32.665 4.594-50.274 4.603-37.89-.554-68.905-7.972-83.496-14.3l-1.178-2.023.19-.304 1.99.77c25.95 9.28 55.09 12.98 82.7 13.65 17.54.06 35.09-2.01 49.29-4.55 21.77-4.36 30.57-7.65 33.27-9.14l.68-.39zm5.017-8.275l.066.077a269.275 269.275 0 0 1-1.963 3.263c-5.035 1.8-18.702 5.798-38.66 8.59-13.148 1.79-21.32 3.525-47.478 4.033-49.015-1.247-80.75-10.83-88.29-13.195l-1.116-2.143c28.406 7.415 57.422 12.592 89.408 13.12 23.93-.51 34.112-2.27 47.152-4.05 23.27-3.618 34.996-7.45 38.515-8.555a2.667 2.667 0 0 0-.15-.2l2.53-.942v.002z"/>
        <path d="M328.83 197.76c.14 28.137-14.26 53.386-25.858 64.525-16.408 15.76-38.163 25.896-63.57 26.363-28.37.52-55.12-17.974-62.294-26.1-14.028-15.884-25.45-36.056-25.815-63.242 1.738-30.71 13.793-52.1 31.268-66.77s40.75-21.812 60.13-21.3c22.36.59 48.48 11.557 66.52 33.33 11.83 14.267 16.95 29.75 19.63 53.194zm-89.186-96.342c54.485 0 99.296 44.338 99.296 98.703s-44.81 98.71-99.296 98.71-98.924-44.34-98.924-98.7 44.44-98.7 98.924-98.7"/>
        <path d="M239.91 101.08c54.534 0 99.01 44.483 99.01 99.022 0 54.538-44.477 99.02-99.01 99.02-54.534 0-99.01-44.48-99.01-99.02s44.477-99.022 99.01-99.022zm-96.832 99.022c0 53.26 43.736 96.842 96.832 96.842 53.097 0 96.833-43.582 96.833-96.842 0-53.262-43.737-96.844-96.833-96.844s-96.832 43.584-96.832 96.844z"/>
        <path d="M239.99 109.31c49.73 0 90.693 40.82 90.693 90.704 0 49.884-40.963 90.703-90.693 90.703s-90.693-40.82-90.693-90.703 40.964-90.704 90.693-90.704zm-88.515 90.703c0 48.685 39.98 88.524 88.515 88.524s88.515-39.84 88.515-88.524c0-48.686-39.978-88.525-88.515-88.525-48.536 0-88.515 39.84-88.515 88.525z"/>
        <path d="M243.98 100.68h-8.485l.01 198.96h8.514z"/>
        <path d="M243.13 99.546h2.16l.018 201.25h-2.16l-.017-201.25zm-8.42.002h2.175l.003 201.25h-2.178V99.548z"/>
        <path d="M338.99 203.94v-7.355l-5.99-5.58-34-9-49-5-59 3-42 10-8.48 6.28v7.357l21.48-9.637 51-8h49l36 4 25 6z"/>
        <path d="M239.95 184.77c23.383-.043 46.07 2.215 64.065 5.72 18.57 3.712 31.637 8.355 36.105 13.57l-.005 2.583c-5.388-6.49-22.973-11.248-36.518-13.968-17.858-3.474-40.393-5.717-63.647-5.674-24.538.05-47.387 2.37-64.984 5.81-14.12 2.8-32.95 8.37-35.302 13.86v-2.69c1.29-3.8 15.313-9.48 34.984-13.41 17.73-3.45 40.62-5.74 65.302-5.78zm.01-8.492c23.383-.042 46.07 2.217 64.065 5.72 18.57 3.713 31.637 8.355 36.105 13.57l-.005 2.583c-5.388-6.48-22.973-11.24-36.518-13.96-17.858-3.47-40.393-5.72-63.647-5.67-24.538.05-47.276 2.37-64.875 5.8-13.626 2.59-33.226 8.37-35.412 13.86v-2.69c1.29-3.76 15.597-9.64 34.985-13.41 17.73-3.46 40.62-5.74 65.302-5.78zm-.48-43.318c36.85-.184 68.99 5.152 83.695 12.685l5.364 9.28c-12.79-6.89-47.46-14.05-89.01-12.98-33.86.208-70.03 3.727-88.18 13.41l6.4-10.71c14.89-7.723 50.02-11.642 81.72-11.683"/>
        <path d="M239.97 140.62c21.017-.056 41.325 1.13 57.476 4.044 15.04 2.8 29.385 7 31.436 9.26l1.59 2.81c-4.988-3.257-17.4-6.884-33.34-9.906-16.005-3.008-36.3-4.005-57.2-3.95-23.72-.08-42.15 1.17-57.968 3.93-16.728 3.13-28.334 7.6-31.197 9.725l1.558-2.97c5.564-2.838 14.39-6.26 29.223-8.93 16.357-2.988 34.983-3.884 58.423-4.013zm-.01-8.484c20.114-.053 39.973 1.068 55.453 3.85 12.21 2.377 24.283 6.088 28.704 9.39l2.326 3.695c-3.954-4.39-18.836-8.55-31.974-10.89-15.37-2.65-34.4-3.7-54.51-3.86-21.11.06-40.62 1.35-55.75 4.11-14.45 2.75-23.76 6.01-27.71 8.55l2.04-3.08c5.44-2.86 14.23-5.49 25.3-7.64 15.25-2.77 34.87-4.03 56.11-4.09zm49.19 109.124c-18.218-3.4-36.47-3.895-49.217-3.745-61.407.72-81.244 12.61-83.665 16.21l-4.59-7.482c15.635-11.332 49.074-17.687 88.588-17.037 20.518.336 38.224 1.698 53.12 4.583l-4.237 7.47"/>
        <path stroke-width=".55"
              d="M239.58 236.46c17.082.255 33.85.96 50.033 3.978l-1.172 2.07c-15.03-2.775-31.05-3.837-48.8-3.75-22.66-.178-45.58 1.94-65.54 7.666-6.3 1.753-16.72 5.8-17.78 9.146l-1.16-1.923c.34-1.977 6.64-6.08 18.42-9.39 22.86-6.545 44.24-7.65 66.02-7.8v.003zm.775-8.596c17.698.33 35.975 1.15 53.74 4.668l-1.22 2.153c-16.042-3.184-31.37-4.246-52.415-4.57-22.735.042-46.85 1.663-68.778 8.037-7.08 2.063-19.297 6.52-19.704 10.05l-1.166-2.065c.265-3.206 10.842-7.388 20.358-10.156 22.096-6.42 46.275-8.07 69.186-8.11z"/>
        <path d="M327.58 247.38l-7.38 11.45L299 240l-55-37-62-34-32.19-11.01 6.86-12.72L159 144l20 5 66 34 38 24 32 23 13 15z"/>
        <path d="M148.65 158.29c5.646-3.83 47.14 14.655 90.555 40.834 43.3 26.254 84.677 55.92 80.942 61.473l-1.228 1.932-.57.44c.12-.09.74-.85-.06-2.91-1.85-6.07-31.2-29.49-79.9-58.9-47.48-28.31-87.04-45.37-91-40.5l1.24-2.39zm180.44 88.927c3.57-7.052-34.916-36.044-82.632-64.272-48.813-27.666-83.994-43.95-90.42-39.095l-1.428 2.6c-.012.142.052-.178.354-.41 1.168-1.02 3.105-.952 3.98-.968 11.064.166 42.666 14.71 87.005 40.128 19.42 11.315 82.07 51.49 81.83 62.79.01.97.08 1.17-.29 1.65l1.59-2.422v-.002z"/>
    </g>
    <path stroke="#000" stroke-width=".67"
          d="M180.6 211.01c0 16.27 6.663 30.987 17.457 41.742 10.815 10.778 25.512 17.58 41.81 17.58 16.38 0 31.246-6.654 42.015-17.39 10.77-10.735 17.443-25.552 17.446-41.88h-.002v-79.19l-118.74-.14.012 79.278h.002z"
          fill="#fff"/>
    <path stroke="#000" stroke-width=".507"
          d="M182.82 211.12v.045c0 15.557 6.44 29.724 16.775 40.01 10.354 10.304 24.614 16.71 40.214 16.71 15.68 0 29.91-6.36 40.22-16.625 10.31-10.265 16.69-24.433 16.7-40.044h-.01V134.39l-113.84-.02-.07 76.75m91.02-53.748v48.89l-.04 5.173c0 1.36-.08 2.912-.24 4.233-.93 7.73-4.48 14.467-9.75 19.708-6.17 6.136-14.67 9.942-24.05 9.942-9.33 0-17.64-3.938-23.83-10.1-6.35-6.32-10.03-14.986-10.03-23.947l-.02-54.02 67.94.12v.01z"
          fill="red"/>
    <g id="e">
        <g id="d" stroke="#000" stroke-width=".5" fill="#ff0">
            <path stroke="none"
                  d="M190.19 154.43c.135-5.52 4.052-6.828 4.08-6.847.03-.02 4.232 1.407 4.218 6.898l-8.298-.05"/>
            <path d="M186.81 147.69l-.682 6.345 4.14.01c.04-5.25 3.975-6.124 4.07-6.104.09 0 3.99 1.16 4.093 6.11h4.16l-.75-6.39-15.02.04zm-.96 6.37h16.946c.357 0 .65.353.65.784 0 .43-.293.78-.65.78H185.85c-.357 0-.65-.35-.65-.78 0-.43.293-.784.65-.784z"/>
            <path d="M192.01 154.03c.018-3.313 2.262-4.25 2.274-4.248 0 0 2.342.966 2.36 4.248h-4.634m-5.8-8.98h16.245c.342 0 .623.318.623.705 0 .387-.28.704-.623.704H186.21c-.342 0-.623-.32-.623-.71 0-.39.28-.71.623-.71zm.34 1.42h15.538c.327 0 .595.317.595.704 0 .388-.268.704-.595.704H186.55c-.327 0-.595-.316-.595-.704 0-.387.268-.704.595-.704zm5.02-10.59l1.227.002v.87h.895v-.89l1.257.005v.887h.89v-.89h1.26v2.01c0 .317-.26.52-.55.52h-4.41c-.3 0-.57-.236-.57-.525l-.01-1.99zm4.62 2.69l.277 6.45-4.303-.015.285-6.452 3.74.017"/>
            <path id="a" d="M190.94 141.56l.13 3.478h-4.124l.116-3.478h3.88-.002z"/>
            <use x="10.609" xlink:href="#a"/>
            <path id="b"
                  d="M186.3 139.04l1.2.003v.872h.877v-.892l1.23.004v.89h.88v-.894l1.23.002-.003 2.012c0 .314-.25.518-.536.518h-4.317c-.29 0-.55-.235-.55-.525v-1.99z"/>
            <use x="10.609" xlink:href="#b"/>
            <path stroke="none" d="M193.9 140.61c-.026-.627.877-.634.866 0v1.536h-.866v-1.536" fill="#000"/>
            <path id="c" d="M188.57 142.84c-.003-.606.837-.618.826 0v1.187h-.826v-1.187" stroke="none" fill="#000"/>
            <use x="10.641" xlink:href="#c"/>
        </g>
        <use y="46.32" xlink:href="#d"/>
        <use xlink:href="#d" transform="rotate(-45.202 312.765 180.003)"/>
    </g>
    <use x="45.714" xlink:href="#d"/>
    <use xlink:href="#e" transform="matrix(-1 0 0 1 479.79 0)"/>
    <g id="f" fill="#fff">
        <path d="M232.64 202.41v.005a8.34 8.34 0 0 0 2.212 5.69c1.365 1.466 3.245 2.377 5.302 2.377 2.067 0 3.944-.905 5.303-2.365 1.358-1.46 2.202-3.472 2.202-5.693v-10.768l-15-.013-.03 10.766"
              fill="#039"/>
        <circle cy="195.74" cx="236.07" r="1.486"/>
        <circle cy="195.74" cx="244.39" r="1.486"/>
        <circle cy="199.74" cx="240.22" r="1.486"/>
        <circle cy="203.92" cx="236.07" r="1.486"/>
        <circle cy="203.9" cx="244.38" r="1.486"/>
    </g>
    <use y="-26.016" xlink:href="#f"/>
    <use x="-20.799" xlink:href="#f"/>
    <use x="20.745" xlink:href="#f"/>
    <use y="25.784" xlink:href="#f"/>
</svg>
