<svg width="32" height="32" viewBox="0 0 32 32" fill="none" xmlns="http://www.w3.org/2000/svg">
<path fill-rule="evenodd" clip-rule="evenodd" d="M16 0C7.16344 0 0 7.16344 0 16C0 24.8366 7.16344 32 16 32C24.8366 32 32 24.8366 32 16C32 7.16344 24.8366 0 16 0ZM14.5858 8.92893L8.92893 14.5858C8.14788 15.3668 8.14788 16.6332 8.92893 17.4142L14.5858 23.0711C15.3668 23.8521 16.6332 23.8521 17.4142 23.0711L23.0711 17.4142C23.8521 16.6332 23.8521 15.3668 23.0711 14.5858L17.4142 8.92893C16.6332 8.14788 15.3668 8.14788 14.5858 8.92893Z" fill="#E4E4E4"/>
</svg>
