<svg width="64" height="64" viewBox="0 0 64 64" fill="none" xmlns="http://www.w3.org/2000/svg">
<rect x="6.40002" y="6.40002" width="51.2" height="51.2" rx="25.6" fill="#2C7DF7"/>
<path d="M35.2691 48C33.0926 48 31.504 47.4499 30.5032 46.3499C29.5761 45.4188 29.0382 44.1405 29.0069 42.7944C28.9956 42.3855 29.0859 41.9805 29.269 41.6192C29.4397 41.3071 29.6864 41.0482 29.9837 40.8688C30.3294 40.6879 30.7103 40.5938 31.0966 40.5938C31.4828 40.5938 31.8638 40.6879 32.2094 40.8688C32.5062 41.0475 32.7517 41.3067 32.9201 41.6192C33.1085 41.9787 33.2022 42.3843 33.1916 42.7944C33.2111 43.2841 33.0772 43.767 32.8104 44.1694C32.588 44.4978 32.2702 44.7418 31.9046 44.8648C32.2622 45.3425 32.7681 45.6734 33.3343 45.7999C33.9678 45.993 34.6238 46.0922 35.2835 46.0948C36.1568 46.1028 37.0121 45.8345 37.7379 45.3249C38.4908 44.7668 39.0523 43.9691 39.3392 43.0499C39.7028 41.956 39.8803 40.8034 39.8634 39.645C39.8928 38.4373 39.6985 37.2351 39.2915 36.1049C38.9854 35.201 38.4042 34.4279 37.6378 33.9049C36.9254 33.4319 36.0984 33.1838 35.2553 33.19C34.5207 33.2553 33.8123 33.5076 33.1916 33.925L31.6614 34.7299V33.925L38.5385 24.2461H29.0069V34.29C28.9799 35.0148 29.1627 35.7312 29.5311 36.345C29.7094 36.6124 29.9504 36.8271 30.231 36.9681C30.5115 37.1091 30.822 37.1717 31.1324 37.1499C31.7059 37.1377 32.2604 36.9327 32.7145 36.5649C33.2292 36.1692 33.677 35.6859 34.0395 35.1349C34.0721 35.0383 34.1323 34.9545 34.2118 34.895C34.2756 34.8371 34.3572 34.8052 34.4416 34.805C34.6071 34.8209 34.7638 34.8908 34.8896 35.0049C35.0489 35.1917 35.1356 35.4343 35.1326 35.6849C35.1142 35.8533 35.0855 36.0203 35.0468 36.1849C34.7082 37.0447 34.1406 37.784 33.412 38.3142C32.7353 38.7946 31.936 39.0493 31.119 39.045C29.0553 39.045 27.6257 38.6183 26.83 37.765C26.4211 37.2933 26.1059 36.7409 25.903 36.1399C25.7 35.5389 25.6134 34.9014 25.6481 34.2649V24.2461H20.8V22.3799H25.6707V18.1249L24.5556 16.9542V16H27.7914L29.0069 16.6601V22.3799L41.598 22.3397L42.8515 23.6597L35.1308 31.7991C35.5973 31.6023 36.0885 31.4777 36.5891 31.4291C37.5799 31.4746 38.5466 31.7641 39.411 32.2742C40.412 32.7733 41.2555 33.5631 41.8417 34.5499C42.3669 35.3853 42.7387 36.3163 42.9379 37.2949C43.1016 38.0669 43.1895 38.8544 43.2 39.6452C43.2051 41.1543 42.879 42.6444 42.2469 44.0001C41.6474 45.3128 40.6385 46.3713 39.3872 47.0002C38.1064 47.6623 36.6969 48.0045 35.2691 48Z" fill="white"/>
</svg>
