<svg width="32" height="32" viewBox="0 0 32 32" fill="none" xmlns="http://www.w3.org/2000/svg">
<rect width="32" height="32" rx="16" fill="#4299E1"/>
<path d="M9.68359 15.5195H22.3164V14.1133H20.0312C20.8047 13.5273 21.1328 12.7422 21.1328 11.8633V11.8398C21.1328 9.95312 19.3633 8.33594 16.1523 8.33594C13.0117 8.33594 10.9375 9.89453 10.7266 12.0039L10.7148 12.1211H12.8008L12.8359 11.9688C13.0938 10.8438 14.3125 10.1641 16.0703 10.1641C18.0859 10.1641 19.0938 11.0664 19.0938 11.9805V12.0039C19.0938 13.0234 18.4023 13.6562 17.1719 14.1133H9.68359V15.5195ZM9.68359 18.918H11.582C10.8086 19.5039 10.4805 20.2891 10.4805 21.168V21.1914C10.4805 23.0781 12.332 24.6953 15.6953 24.6953C18.9766 24.6953 21.1445 23.1367 21.3555 21.0273L21.3672 20.9102H19.2812L19.2461 21.0625C18.9883 22.1875 17.6641 22.8672 15.7773 22.8672C13.6094 22.8672 12.5195 21.9648 12.5195 21.0508V21.0273C12.5195 20.0078 13.2109 19.375 14.4414 18.918H22.3164V17.5117H9.68359V18.918Z" fill="#FFE600"/>
</svg>
