<svg version="1.1" xmlns="http://www.w3.org/2000/svg" viewBox="0 0 1587.9632107023413 1199.4379552032638">
  <!-- svg-source:excalidraw -->
  <defs>
    <style>
      @font-face {
        font-family: "Virgil";
        src: url("https://excalidraw.com/FG_Virgil.woff2");
      }

      @font-face {
        font-family: "Cascadia";
        src: url("https://excalidraw.com/Cascadia.woff2");
      }
    </style>
  </defs>
  <rect x="0" y="0" width="1587.9632107023413" height="1199.4379552032638" fill="#ffffff"></rect>
  <g transform="translate(978.3767482517482 835.1967873489373) rotate(0 85.68181818181813 86.04545454545456)">
    <path
      d="M0.8437323048710823 -0.1979115679860115 C53.35953310047358 2.8896037688478815, 108.33865939656435 3.456790362857281, 172.86871248144985 -0.47071702033281326 M0.23448845371603966 0.9921493269503117 C34.47321215187282 -0.22863126811994672, 68.01707729900421 -0.11571920928968549, 170.89260359142304 0.7770524956285954 M171.7057924832809 0.21805136650800705 C171.4874402406709 34.85251201035625, 169.08335865764784 71.58700164590371, 170.6124442185867 171.29487540301955 M171.12770433757782 -0.6748298667371273 C171.65633025778615 39.123080787706115, 171.7587101758846 79.182805559581, 170.88516147468567 171.62954455715692 M169.5766604508865 172.97662474689162 C127.37284355492068 174.67764584921642, 85.84963731569317 173.28214018248363, 0.7744075730443001 173.51886751231825 M170.92827613685608 172.81740218502557 C112.09764928319908 172.9414884504439, 52.115865050391676 174.25730425683275, 0.12528523430228233 171.73445409637964 M-1.1986930891871452 173.97680093822157 C3.511392515230585 128.3098566147753, 3.2089192085747014 83.54909362677824, -0.4403415247797966 0.2742573544383049 M0.2117653749883175 172.21732515198266 C-1.2273139087686489 130.9298192252151, -1.719561371041293 91.41120749400422, -0.46309712901711464 -0.1615147851407528"
      stroke="#000000" stroke-width="1" fill="none"></path>
  </g>
  <g transform="translate(1020.4790209790209 793.2820146216648) rotate(0 44.53272727272724 23.194128787878753)"><text
      x="0" y="33" font-family="Virgil" font-size="36.73949999999999px" fill="#000000" text-anchor="start"
      style="white-space: pre;" direction="ltr">Vault</text></g>
  <g transform="translate(630.2949673277545 665.7820146216646) rotate(0 177.99999999999977 24.999999999999943)"><text
      x="0" y="35" font-family="Virgil" font-size="39.599999999999945px" fill="#000000" text-anchor="start"
      style="white-space: pre;" direction="ltr">Background Script</text></g>
  <g transform="translate(217.61538461538458 719.6456509853009) rotate(0 533.9090909090909 199.54545454545462)">
    <path
      d="M568.6346641188924 0.42541447057931236 C602.2167235737576 -1.7548219265003127, 639.068465339396 4.344887481359544, 672.5182517807326 7.523301983088572 C705.9680382220693 10.7017164848176, 738.3911999421796 14.036690413684536, 769.3333827669121 19.495901480953478 C800.2755655916446 24.95511254822242, 830.632264500603 32.276574602380514, 858.1713487291281 40.27856838670223 C885.7104329576532 48.28056217102395, 911.6782724494487 57.60814548695425, 934.5678881380625 67.50786418688378 C957.4575038266762 77.4075828868133, 978.200576277741 88.378271984882, 995.5090428608107 99.6768805862794 C1012.8175094438805 110.97548918767679, 1027.3162923223458 122.89862990344439, 1038.4186876364806 135.29951579526815 C1049.5210829506154 147.7004016870919, 1057.5613085117086 161.28190708693862, 1062.1234147456194 174.08219593722194 C1066.68552097953 186.88248478750526, 1067.8381812142406 199.28429471154072, 1065.7913250399456 212.1012488969681 C1063.7444688656506 224.91820308239545, 1058.6694575060667 238.4856479434888, 1049.8422776998495 250.9839210497862 C1041.0150978936324 263.4821941560836, 1028.0880299866994 275.4718661381114, 1012.8282462026425 287.0908875347525 C997.5684624185855 298.70990893139356, 979.1639349854048 310.35062426112717, 958.2835749955074 320.69804942963265 C937.4032150056099 331.0454745981381, 913.5014979875928 340.59825319391894, 887.5460862632581 349.17543854578525 C861.5906745389234 357.7526238976516, 832.7085345407962 365.56898373413793, 802.5511046494994 372.16116154083056 C772.3936747582026 378.7533393475232, 739.507053784885 384.66460087269724, 706.6015069154771 388.72850538594093 C673.6959600460692 392.79240989918463, 639.4892106172651 394.82946164970133, 605.1178234330519 396.5445886202927 C570.7464362488386 398.25971559088407, 534.856407637188 399.70280235434865, 500.3731838101976 399.019267209489 C465.8899599832072 398.3357320646293, 431.8134278818766 395.76062063740903, 398.2184804711093 392.44337775113485 C364.62353306034197 389.12613486486066, 329.95659249701384 384.77981811070197, 298.80349934559376 379.1158098918437 C267.6504061941737 373.4518016729854, 238.66183341134126 366.2910472013634, 211.29992156258862 358.4593284379854 C183.93800971383598 350.62760967460736, 157.81190767969142 342.0204727745888, 134.63202825307798 332.12549731157566 C111.45214882646454 322.2305218485625, 89.86842396230297 310.3210843737805, 72.22064500290799 299.0894756599064 C54.572866043513 287.8578669460323, 39.96057783852331 276.92792919838035, 28.745354496708046 264.73584502833097 C17.530131154892786 252.54376085828156, 9.661851542699935 238.70533042997732, 4.929304952016423 225.93697063960997 C0.19675836133291114 213.1686108492426, -1.8748834750456354 201.0544630357861, 0.35007495260697397 188.12568628612686 C2.5750333802595833 175.19690953646761, 9.245615334644262 160.98323459262818, 18.27905551793208 148.36431014165453 C27.312495701219895 135.74538569068088, 39.520229607502436 123.84058602890528, 54.55071605233388 112.41213958028503 C69.58120249716534 100.98369313166478, 87.60363778656652 90.05074672210618, 108.46197418692077 79.79363144993303 C129.320310587275 69.53651617775988, 153.56080656179725 59.51631347407774, 179.70073445445934 50.8694479472461 C205.84066234712142 42.22258242041446, 235.48078836877625 34.69227344842434, 265.30154154289323 27.912438288943207 C295.1222947170102 21.132603129462073, 326.11572398622445 14.666260369869253, 358.62525349916126 10.190436990359302 C391.13478301209807 5.714613610849351, 423.5972066639292 2.51831789322884, 460.35871862051414 1.0574980118834958 C497.12023057709905 -0.40332186946184834, 557.7861860699968 0.6654479949029195, 579.1943252386708 1.4255177022872374 C600.6024644073448 2.1855874096715553, 589.6927911558706 2.55729975724059, 588.8075536325578 5.617916256189403 M624.5512204161123 2.1423998436617353 C658.6138826144977 0.971184245592293, 693.5261627636415 7.3151074622896886, 725.6039150892666 12.212465316247403 C757.6816674148916 17.109823170205118, 787.7643930572509 24.356790370812163, 817.0177343698629 31.526546967408024 C846.2710756824748 38.696303564003884, 875.7318940881005 46.32999178715768, 901.1239629649385 55.231004895822565 C926.5160318417766 64.13201800448745, 949.20260760423 74.46339015652683, 969.3701476308909 84.93262561939731 C989.5376876575517 95.4018610822678, 1007.7762651481719 106.34325694539777, 1022.1292031249034 118.04641767304545 C1036.4821411016349 129.74957840069314, 1047.6743105779851 142.2669854660769, 1055.4877754912795 155.1515899852834 C1063.301240404574 168.0361945044899, 1068.0123424745766 182.60373197643642, 1069.0099926046692 195.35404478828454 C1070.0076427347617 208.10435760013266, 1067.545817234119 219.160321902933, 1061.4736762718346 231.65346685637212 C1055.4015353095501 244.14661180981125, 1045.3867796196173 258.05037201463585, 1032.5771468309617 270.3129145089192 C1019.7675140423063 282.5754570032026, 1003.1904992087705 294.0644559814298, 984.6158795399019 305.2287218220723 C966.0412598710334 316.39298766271486, 944.8120458722354 328.03910071538564, 921.1294288177504 337.2985095527746 C897.4468117632654 346.55791839016354, 870.4339908419902 353.22244575660415, 842.5201772129915 360.785174846406 C814.6063635839928 368.34790393620784, 785.1675278273733 377.1345260022913, 753.6465470437586 382.6748840915858 C722.1255662601438 388.2152421808803, 687.630328496937 391.420344377677, 653.3942925113029 394.02732338217317 C619.1582565256688 396.63430238666933, 583.0053393359595 397.6941776940122, 548.230331129954 398.3167581185627 C513.4553229239485 398.9393385431132, 478.5854581601431 399.8738953174652, 444.7442432752701 397.7628059294764 C410.9030283903971 395.65171654148753, 377.8095703571225 390.5044534766074, 345.18304182071586 385.65022179062976 C312.55651328430923 380.7959901046521, 278.79575645069957 375.5701433619516, 248.98507205683046 368.6374158136106 C219.17438766296135 361.70468826526957, 191.3775911177637 352.79560268285013, 166.31893545750114 344.05385650058383 C141.26027979723858 335.31211031831754, 118.64933517023552 326.4360314880425, 98.63313809525505 316.1869387200128 C78.61694102027458 305.9378459519831, 60.52548079538794 294.55746728359173, 46.22175300761836 282.5592998924057 C31.91802521984878 270.5611325012197, 20.319559619957555 256.8083559021489, 12.810771368637575 244.19793437289647 C5.301983117317595 231.58751284364402, 1.8463840577518718 219.68398855550896, 1.1690234996984827 206.89677071689107 C0.4916629416450936 194.10955287827318, 3.0509932761220098 180.28564922369856, 8.74660802031724 167.4746273411891 C14.442222764512469 154.66360545867963, 23.166550472697168 142.07651949579332, 35.34271196486986 130.03063942183428 C47.51887345704256 117.98475934787524, 63.402327305291934 106.63651239275376, 81.80357697335342 95.19934689743482 C100.2048266414149 83.76218140211589, 122.16175688763018 70.91824779703519, 145.75020997323873 61.40764644992069 C169.33866305884726 51.897045102806196, 195.28938304645968 45.50633831080129, 223.33429548700468 38.13573881474784 C251.3792079275497 30.76513931869439, 282.34442479934506 22.882027344942085, 314.0196846165087 17.1840494736 C345.69494443367233 11.486071602257912, 379.3976537986125 6.695015878459927, 413.3858543899864 3.947871586695328 C447.37405498136025 1.2007272949307293, 482.9161967104667 1.0168137359097689, 517.9488881647518 0.7011837230124058 C552.9815796190369 0.38555371011504275, 606.0375336920138 0.9415674828623537, 623.582003115697 2.0540915093111494 C641.1264725393803 3.166615535759945, 624.4127111969658 3.982670722758636, 623.2157047068515 7.37632788170518"
      stroke="#000000" stroke-width="1" fill="none"></path>
  </g>
  <g transform="translate(983.9287384405216 873.7558372858502) rotate(0 81.99999999999994 44)"><text x="0" y="18"
      font-family="Helvetica" font-size="19.49775466708208px" fill="#000000" text-anchor="start"
      style="white-space: pre;" direction="ltr">Private keys,</text><text x="0" y="40" font-family="Helvetica"
      font-size="19.49775466708208px" fill="#000000" text-anchor="start" style="white-space: pre;"
      direction="ltr">Encrypted storage,</text><text x="0" y="62" font-family="Helvetica"
      font-size="19.49775466708208px" fill="#000000" text-anchor="start" style="white-space: pre;"
      direction="ltr">Migrations,</text><text x="0" y="84" font-family="Helvetica" font-size="19.49775466708208px"
      fill="#000000" text-anchor="start" style="white-space: pre;" direction="ltr">Core logic</text></g>
  <g transform="translate(631.7383354350569 901.3885719987137) rotate(0 109.8360655737705 103.27868852459017)">
    <path
      d="M148.71253960082797 6.593724267164305 C161.38546772997762 9.255475283025463, 174.83471443132981 18.40500750938625, 185.03742476519596 27.25057609542462 C195.24013509906212 36.09614468146299, 204.10145780260905 48.04279431048083, 209.92880160402484 59.66713578339453 C215.75614540544063 71.29147725630823, 219.32059067230787 84.21935525962708, 220.00148757369072 96.9966249329068 C220.68238447507358 109.77389460618652, 218.31330025333173 124.1036707643996, 214.014183012322 136.33075382307285 C209.71506577131228 148.5578368817461, 202.99050351343024 160.573154936834, 194.20678412763237 170.35912328494635 C185.4230647418345 180.1450916330587, 173.47022063319284 189.23757416456021, 161.3118666975348 195.0465639117471 C149.15351276187678 200.855553658934, 134.87258293389442 204.06833496638453, 121.25666051368421 205.21306176806772 C107.64073809347401 206.3577885697509, 92.83991763012237 205.19136521752688, 79.61633217627363 201.91492472184626 C66.39274672242489 198.63848422616564, 52.535543629412466 193.42621603295834, 41.91514779059179 185.55441879398398 C31.29475195177111 177.68262155500963, 22.568601302471006 165.85716365444276, 15.893957143349553 154.68414128800015 C9.2193129842281 143.51111892155754, 3.969539774606455 131.09874616030817, 1.8672828358630795 118.51628459532836 C-0.23497410288029608 105.93382303034856, 0.3336023500858971 91.62876702869687, 3.2804155108892985 79.18937189812135 C6.2272286716927 66.74997676754583, 11.892164564376074 54.266687387859676, 19.548161800683488 43.879913811875234 C27.2041590369909 33.49314023589079, 37.567562465992495 23.90234924412176, 49.21639892873378 16.868730442214698 C60.86523539147507 9.835111640307638, 76.02149958716427 4.258571741242795, 89.4411805771312 1.6782010004328782 C102.86086156709814 -0.9021697403770381, 117.48518288845376 -0.5576881405162648, 129.73448486853536 1.3865059973552007 C141.98378684861697 3.3307001352266665, 155.64465495232878 10.041769691156693, 162.93699245762082 13.343365827661671 C170.22932996291286 16.64496196416665, 174.55827319185826 19.960314670586854, 173.48850990028765 21.196082816385072 M121.60713263508343 1.1745997049486476 C134.72403323851265 0.7603832008540128, 149.13905832337105 6.200352551855363, 161.18163032258346 11.908159553044584 C173.22420232179587 17.615966554233804, 185.08130985046643 25.544168231475197, 193.86256463035784 35.421441712083976 C202.64381941024925 45.298715192692754, 209.68119344208824 58.8253007844206, 213.86915900193185 71.17180043669727 C218.05712456177545 83.51830008897393, 219.74899777374253 96.52466637337005, 218.99035798941952 109.50043962574398 C218.2317182050965 122.4762128781179, 214.8713822104705 137.5870094230734, 209.31732029599374 149.02643995094087 C203.76325838151698 160.46587047880834, 195.93989034464914 169.8983229370587, 185.66598650255892 178.13702279294887 C175.3920826604687 186.37572264883903, 160.85118332530496 193.78210489475865, 147.67389724345242 198.4586390862819 C134.49661116159987 203.13517327780514, 119.89513335226205 206.398177305288, 106.60227001144371 206.1962279420884 C93.30940667062536 205.9942785788888, 80.39179348001116 201.94180288223447, 67.91671719854233 197.24694290708442 C55.4416409170735 192.55208293193436, 41.674363468519104 187.06954514855084, 31.75181232263074 178.02706809118814 C21.829261176742378 168.98459103382544, 13.537412284050358 155.01760337647605, 8.381410323212137 142.9920805629082 C3.2254083623739165 130.96655774934035, 1.2746128407725668 118.42256609630803, 0.8158005576014205 105.873931209781 C0.3569882744302741 93.32529632325398, 0.917375563247198 79.89730964437396, 5.628536624185259 67.70027124374602 C10.339697685123319 55.50323284311807, 19.756884494922218 42.44997056913801, 29.082766923229784 32.691700806013316 C38.40864935153735 22.93343104288862, 49.69129541353079 14.356481697963194, 61.583831194030665 9.150652664997864 C73.47636697453055 3.944823632032535, 90.50331216812867 2.8215990671778357, 100.43798160622906 1.456726608221345 C110.37265104432944 0.09185414926485436, 117.82503973995483 0.709425057580513, 121.191847822633 0.9614179112589198 C124.55865590531116 1.2134107649373267, 120.71738321990546 1.534853666981957, 120.63883010229804 2.9686837302917866"
      stroke="#000000" stroke-width="1" fill="none"></path>
  </g>
  <g transform="translate(687.3448928121057 859.3803752774023) rotate(0 44.52459016393436 19.877049180327845)"><text
      x="0" y="28" font-family="Virgil" font-size="31.80327868852453px" fill="#000000" text-anchor="start"
      style="white-space: pre;" direction="ltr">Store</text></g>
  <g transform="translate(665.7711223203024 947.9049654413369) rotate(0 75 57.5)"><text x="0" y="18"
      font-family="Helvetica" font-size="20px" fill="#000000" text-anchor="start" style="white-space: pre;"
      direction="ltr">In-memory state:</text><text x="0" y="41" font-family="Helvetica" font-size="20px" fill="#000000"
      text-anchor="start" style="white-space: pre;" direction="ltr">- status</text><text x="0" y="64"
      font-family="Helvetica" font-size="20px" fill="#000000" text-anchor="start" style="white-space: pre;"
      direction="ltr">- accounts</text><text x="0" y="87" font-family="Helvetica" font-size="20px" fill="#000000"
      text-anchor="start" style="white-space: pre;" direction="ltr">- networks</text><text x="0" y="110"
      font-family="Helvetica" font-size="20px" fill="#000000" text-anchor="start" style="white-space: pre;"
      direction="ltr">- settings</text></g>
  <g>
    <g transform="translate(290.7617259790795 927.0997520263245) rotate(0 156.27470199862708 -69.10572591117415)">
      <path
        d="M0.8266692325472833 -0.6494757100939751 C52.62546230388877 -23.391096198530317, 259.8174338198303 -114.4619190393454, 311.7227347647069 -137.5619761122544"
        stroke="#000000" stroke-width="4.5" fill="none" stroke-dasharray="12 8"></path>
    </g>
  </g>
  <g
    transform="translate(268.38096344664916 843.1021472869013) rotate(336.0375110254217 60.400299147441444 21.571535409800504)">
    <text x="0" y="30" font-family="Virgil" font-size="34.12264079255365px" fill="#000000" text-anchor="start"
      style="white-space: pre;" direction="ltr">Actions</text></g>
  <g>
    <g transform="translate(399.86937705530966 896.4963281473453) rotate(0 114.1091817409498 50.080493633839865)">
      <path
        d="M-0.15048641413450237 0.6703033134341239 C37.588565873387246 17.261168404222968, 189.47996660710766 83.85756233633279, 227.50413699765676 100.1843786600318 M-1.6886305108945818 -0.023391392352059448 C36.35727469459639 16.184676990985437, 191.76268898604891 81.92951620954804, 229.90699399279416 98.5343909378715"
        stroke="#000000" stroke-width="1" fill="none"></path>
    </g>
    <g transform="translate(399.86937705530966 896.4963281473453) rotate(0 114.1091817409498 50.080493633839865)">
      <path
        d="M201.07045771640873 95.88719097800316 C213.11897927421322 97.39038905606823, 222.1868940077395 98.32787874623256, 228.1506131442076 100.27444881606775 M200.70827678677773 97.05153676025333 C206.0854901609037 97.70262210107727, 211.97552128455212 97.89157919184491, 230.48599741252124 97.60846458408909"
        stroke="#000000" stroke-width="1" fill="none"></path>
    </g>
    <g transform="translate(399.86937705530966 896.4963281473453) rotate(0 114.1091817409498 50.080493633839865)">
      <path
        d="M209.14913851727601 77.02307374703958 C218.15430676997735 85.85714853263393, 224.07838720223688 94.13564602786639, 228.1506131442076 100.27444881606775 M208.78695758764502 78.18741952928974 C212.48092361859034 82.99549201499534, 216.62036988411947 87.27215089771478, 230.48599741252124 97.60846458408909"
        stroke="#000000" stroke-width="1" fill="none"></path>
    </g>
  </g>
  <g>
    <g transform="translate(565.4924337957125 816.1918506872383) rotate(0 203.1300496365748 20.46403988674581)">
      <path
        d="M0.4395186021924018 0.0024464294314383572 C68.44659850495599 7.12911032559604, 339.2418327221046 34.97071669112298, 407.0489721341456 41.969952913947736 M-0.7888728609960527 -1.041873140456155 C67.19013221010297 5.834591475625267, 338.41132357324057 33.49359187333251, 406.35901409012513 40.36521000236865"
        stroke="#000000" stroke-width="1" fill="none"></path>
    </g>
    <g transform="translate(565.4924337957125 816.1918506872383) rotate(0 203.1300496365748 20.46403988674581)">
      <path
        d="M377.2795250400621 48.54294282290754 C385.2849783127569 47.2270883171852, 391.64867174239146 43.103381576830074, 408.2856047190471 38.82145869553681 M377.97555519861163 48.61472616810021 C388.98136070395833 44.9502630478452, 400.2267492674752 42.04353255209262, 406.28014459458427 41.25579074964519"
        stroke="#000000" stroke-width="1" fill="none"></path>
    </g>
    <g transform="translate(565.4924337957125 816.1918506872383) rotate(0 203.1300496365748 20.46403988674581)">
      <path
        d="M379.3538937378132 28.12684630835244 C386.7743669502982 31.25312340674014, 392.6874914712468 31.563950573574495, 408.2856047190471 38.82145869553681 M380.04992389636277 28.19862965354511 C390.31246927419676 32.26296788163717, 400.7716028256064 37.09461978127935, 406.28014459458427 41.25579074964519"
        stroke="#000000" stroke-width="1" fill="none"></path>
    </g>
  </g>
  <g transform="translate(737.5964452214452 349.54337825802804) rotate(0 82.95454545454544 73.57954545454547)">
    <path
      d="M27.9049581419064 18.957358058680924 C27.9049581419064 18.957358058680924, 27.9049581419064 18.957358058680924, 27.9049581419064 18.957358058680924 M27.9049581419064 18.957358058680924 C27.9049581419064 18.957358058680924, 27.9049581419064 18.957358058680924, 27.9049581419064 18.957358058680924 M0.29516274224678085 75.8281914591484 C19.487568588252252 52.531547466110524, 38.796233880766074 28.913378871125154, 62.372646135306766 2.919749662646307 M-0.21832634393414452 75.1965124196999 C14.499742168068503 59.07205939809736, 29.014165766194697 43.380364419889986, 62.449729287094286 3.8005695979979173 M5.72250145537442 95.1948841631893 C29.391508516519725 63.694895785589125, 55.702191764401064 33.455206165668585, 76.67278404061622 12.474778460708926 M5.687162617721022 93.35385179598964 C33.182787206854606 62.60677033128683, 59.833645139928635 30.65234601971477, 76.20095979322619 11.046532696483204 M11.652677594829036 110.88668915439393 C46.32015402987512 68.71985074522058, 79.8027829772467 29.40396666728779, 105.2001897289853 5.631199670718679 M10.934916953701212 109.86278127316382 C31.990685751135327 88.72962284491102, 50.25332716586969 66.62110220171625, 103.67989677260326 5.5699021534488296 M24.939175323447692 121.91723881499621 C44.537162669092126 98.0037848248593, 68.06804039972732 71.8660972842138, 117.62029176161171 9.214422223374818 M23.567751881530988 121.93627405376884 C58.958268759888945 80.47395801415566, 94.52596598359551 40.186530076576545, 118.94051859111072 11.883708969906543 M33.273516985171796 131.4222834096805 C70.26055081439907 94.6602199972229, 106.23689278893717 52.637496710867495, 135.2061576492186 17.384688538237988 M34.69698954983926 133.86645247280157 C75.44598636601684 87.16838197282374, 114.00417498809747 41.5660174543482, 135.7499113141592 16.91784888572949 M49.68067980081942 139.7966611602352 C68.07560750711737 116.88003179693243, 89.93148810693074 95.12490027414681, 147.04012570675687 30.735583460215366 M49.8728757341316 139.28655807236294 C77.64452617097298 108.87903147387233, 106.34337751066539 77.03952843080356, 146.6649005613871 28.24259131613735 M65.52367917231302 146.05732817089915 C99.21004866114895 109.32542190006825, 129.89645093835756 73.24899224026613, 157.00616621302564 41.35565105064977 M64.96416314101796 145.65898152700424 C101.74439700381922 104.946418028831, 137.4777149760713 63.95740378439069, 156.89941266628105 40.25519614278544 M86.99898537845166 144.9803285030152 C112.89891463215336 121.69375116315167, 134.03691077107968 93.2171505813148, 170.10658277288087 52.68200535222067 M87.52852810398491 144.53723271838084 C103.67608970382199 125.94124970261507, 121.24058026373743 105.17874405825874, 169.51617603838451 51.158524478665726 M104.92445756024321 148.76562948282708 C124.82194356897519 122.5374563253275, 146.45518631162977 98.38467472076778, 170.05900882439695 75.58039325273126 M105.47550456872781 148.355776043049 C122.51646349864232 130.0013383199121, 139.6701844882649 110.51056199738802, 167.89871767045938 76.1661015318939"
      stroke="#000" stroke-width="2" fill="none"></path>
    <path
      d="M65.95281976788394 2.335887777027949 C76.77734354972952 -0.6529919607134453, 90.15537345010874 0.5250449477277974, 101.66342177592455 2.979274247191398 C113.17147010174035 5.433503546654999, 125.65622540762493 10.551673175592402, 135.00110972277875 17.061263573809555 C144.34599403793257 23.570853972026708, 152.63771089796654 32.518639318260355, 157.73272766684744 42.03681663649432 C162.82774443572833 51.55499395472829, 165.5004635447975 63.780246059274205, 165.57121033606415 74.17032748321334 C165.6419571273308 84.56040890715248, 163.33767733644373 95.02253794834859, 158.1572084144474 104.37730518012913 C152.9767394924511 113.73207241190967, 143.89172482644585 123.63247708691041, 134.4883968040863 130.2989308738966 C125.08506878172678 136.96538466088282, 113.23247114645861 141.81100021072916, 101.7372402802902 144.37602790204633 C90.24200941412178 146.9410555933635, 77.17934493781505 147.85566865775274, 65.51701160707583 145.68909702179968 C53.85467827633662 143.52252538584662, 41.2706394838598 137.73715713830546, 31.76324029585492 131.37659808632793 C22.25584110785004 125.01603903435041, 13.83830369918335 116.83305500829843, 8.472616479046522 107.52574270993455 C3.1069292589096955 98.21843041157067, -0.2091736409001849 86.11491944188722, -0.43088302496603603 75.53272429614464 C-0.6525924090318872 64.95052915040205, 2.3654210287498456 53.52426333998502, 7.142360174651415 44.03257183547902 C11.919299320552984 34.54088033097302, 19.051819413490843 25.366138739363386, 28.230751850443383 18.582575269108617 C37.40968428739592 11.799011798853847, 54.74907267685967 6.375530534366099, 62.21595479636665 3.331191013950402 C69.68283691587364 0.28685149353470507, 70.18052940223993 0.4856151973835594, 73.0320445674853 0.3165381466144339 C75.88355973273067 0.14746109584530842, 79.23307743218331 1.141854725498246, 79.32504578783887 2.3167287093356492 M66.43000461407797 0.5019365489901872 C77.09297186623809 -2.5367435207282454, 90.55221537600731 -1.1690150339652021, 101.93355816091807 1.570116428679654 C113.31490094582882 4.30924789132451, 125.2200520460839 10.091968888227655, 134.71806132354254 16.936725324859324 C144.2160706010012 23.781481761490994, 153.53458852668697 33.255998167580124, 158.92161382566997 42.638655048469666 C164.30863912465296 52.02131192935921, 167.176201174511 62.93187886748758, 167.04021311744054 73.23266661019659 C166.9042250603701 83.5334543529056, 163.22681327194522 94.97414068882006, 158.1056854832472 104.44338150472369 C152.9845576945492 113.91262232062732, 145.49127181140597 123.32775870884325, 136.3134463852525 130.0481115056184 C127.135620959099 136.76846430239357, 114.70781247395118 141.95448475412988, 103.03873292632628 144.7654982853746 C91.36965337870137 147.57651181661933, 78.16747122965957 149.09968253371568, 66.29896909950307 146.91419269308676 C54.43046696934657 144.72870285245784, 41.37733394840834 138.1896023978373, 31.827720145387275 131.65255924160115 C22.278106342366208 125.11551608536502, 14.491295317485577 116.72095677363467, 9.00128628137665 107.6919337556699 C3.511277245267725 98.66291073770512, -0.7227534520671643 88.10346762054252, -1.1123340712662753 77.47842113381247 C-1.5019146904653862 66.85337464708243, 1.8825214479738923 54.02252182595449, 6.663802566181985 43.94165483528961 C11.445083684390077 33.86078784462473, 18.60138231219493 23.98246880222379, 27.575352637982284 16.993219189823193 C36.54932296376964 10.003969577422598, 54.095353142391104 4.653914988945898, 60.507624520906106 2.0061571608860476 C66.9198958994211 -0.6416006671738024, 64.98550290887107 0.8058518631367022, 66.04898090907231 1.1066722214640947 C67.11245890927356 1.4074925797914872, 66.93755640998283 2.4745656678555674, 66.88849252211361 3.8110793108504026"
      stroke="#000000" stroke-width="4" fill="none"></path>
  </g>
  <g transform="translate(945.6356609077199 349.7394566894006) rotate(0 82.95454545454538 73.57954545454547)">
    <path
      d="M19.270615299561705 26.026781262909143 C19.270615299561705 26.026781262909143, 19.270615299561705 26.026781262909143, 19.270615299561705 26.026781262909143 M19.270615299561705 26.026781262909143 C19.270615299561705 26.026781262909143, 19.270615299561705 26.026781262909143, 19.270615299561705 26.026781262909143 M9.032255128933652 60.80481177816195 C22.132933519224505 45.534495760272804, 35.357556812326465 29.60571051845988, 57.97543632817458 7.117523686303265 M10.4308186741309 60.865701994542306 C22.212167746915476 46.38114195224187, 33.93938995094824 31.120547059175593, 55.38261715528559 7.14322916166342 M6.449114360022314 89.63779871274355 C31.44034496957052 62.675666688938925, 53.25472266219615 30.902962865684387, 80.20975190466979 2.6614485759461743 M5.697852689879902 91.48571926836493 C26.684306294838386 66.4101179287549, 47.3329648975197 43.055027761278005, 79.99131939998605 4.706014987471185 M12.27688829378608 107.51253683842452 C44.50158386038835 67.98513861127452, 77.24781896562938 34.39522997771441, 97.24406526499038 6.699376311273845 M13.840717637552054 105.11878976575764 C37.95882411742967 79.45595059635369, 59.755618961667295 51.99374476342389, 98.97907139994746 7.180516824246915 M22.560953426280314 119.0197288825625 C56.67688433303323 80.87845228818716, 90.59011007696952 43.08281658674653, 115.57953418793542 13.577663453629086 M22.42224606789022 121.47683203439055 C56.951728155757635 82.32310438698883, 90.49470900283907 41.61893131021945, 116.06370573865635 13.022588303645918 M35.458908507313566 131.94794098672313 C57.94806709676941 103.25592264910804, 82.67382836629255 76.54726690267886, 134.24170880735144 17.486526965468585 M33.84796153539045 129.9266592861418 C68.53770520379338 92.86866153380168, 102.22116745313869 54.27038162970642, 132.09291610464678 17.113974708437382 M45.09215435183678 139.47669549581357 C68.41010695379339 114.44920355342232, 93.2930888876488 86.39438607225804, 144.9381184091989 28.9930112719223 M46.0926584096912 140.8080721862311 C77.08699549274938 104.26569896110645, 109.47913218299536 68.48922903537436, 144.07684408856667 28.420280034063765 M63.28978276763953 147.27576439095384 C94.35630711152801 112.85853275620215, 120.73605494695045 79.50702068739562, 156.4900423012673 35.649700854110264 M63.31929080326952 145.6581522860909 C100.79788997765226 102.11462425151956, 138.67906106279835 59.331486089087946, 158.49485005289307 37.7246795819576 M82.03256956967275 150.41529501705116 C100.06969200949624 130.5322192955519, 117.71575809348354 106.05825905166871, 163.96438476951712 52.414265137162445 M81.19796558576385 149.24638775094098 C108.11759037909945 119.39761846927095, 132.6795708939267 90.55056505590545, 165.30238808827394 53.17246484756136 M106.47715865269751 144.69155561455725 C121.03467193224917 128.83865881713143, 137.1831649618281 110.67245520508607, 173.0418001217379 69.72991360219888 M106.80512645662279 146.0254188915455 C120.86276274704873 128.90356542013603, 135.13931464393823 111.57625873568841, 173.17413105718632 67.47649863230757"
      stroke="#000" stroke-width="2" fill="none"></path>
    <path
      d="M53.38559766581015 5.109854187407038 C63.317577242978714 0.19381717216072847, 77.04407848647968 -1.4525353398530143, 88.83071997669103 -0.5883109536990645 C100.61736146690238 0.2759134324548853, 113.6858209711069 4.844692709169263, 124.10544660707825 10.295200504330737 C134.5250722430496 15.745708299492211, 144.5782320075325 23.617306532580727, 151.34847379251912 32.114735817269775 C158.11871557750572 40.61216510195882, 162.85466797299955 50.971907758821835, 164.72689731699793 61.27977621246503 C166.59912666099632 71.58764466610822, 165.857800535769 83.82347538105368, 162.5818498565094 93.96194653912895 C159.30589917724978 104.10041769720421, 152.96674980349732 114.17842513060506, 145.0711932414403 122.11060316091664 C137.1756366793833 130.04278119122822, 126.16785323162259 137.24773234954918, 115.20851048416739 141.55501472099837 C104.2491677367122 145.86229709244756, 91.34718767063977 148.48248371291277, 79.31513675670917 147.95429738961178 C67.28308584277856 147.4261110663108, 53.40198989602736 143.63932033082827, 43.01620500058379 138.3858967811925 C32.63042010514022 133.13247323155676, 24.034908815516268 125.04229173907365, 17.000427384047754 116.43375609179722 C9.96594595257924 107.8252204445208, 3.156751002507832 96.96582984539931, 0.8093164117727127 86.73468289753392 C-1.5381181789624065 76.50353594966852, -0.16529688814809296 65.16972818685032, 2.915819839637038 55.04687440460481 C5.9969365674221695 44.92402062235929, 11.681726584036642 34.05051045411376, 19.296016778483498 25.997560204060825 C26.910306972930353 17.944609954007888, 41.63960067472397 10.544641275891914, 48.60156100631817 6.729172904287182 C55.56352133791237 2.9137045326824507, 57.187823387717394 3.8645605053081034, 61.067778768048676 3.104749974432437 C64.94773414837996 2.3449394435567705, 71.34695241228442 1.029215427934093, 71.88129328830587 2.1703097190331846 M76.42742855403228 1.3478630123500466 C87.76776125352951 -0.7351915209044875, 102.27636942408101 0.987916490964512, 113.34797209927366 4.437555934250895 C124.41957477446631 7.887195377537278, 134.5314464967621 14.3526738856131, 142.85704460518815 22.045699672068345 C151.1826427136142 29.73872545852359, 159.61486781279893 40.426405747062475, 163.3015607498299 50.595710652982355 C166.98825368686084 60.765015558902235, 166.67129119884441 72.37441462031265, 164.97720222737385 83.0615291075876 C163.2831132559033 93.74864359486256, 159.73047393548111 105.71934391395516, 153.13702692100657 114.7183975766321 C146.54357990653202 123.71745123930904, 135.83049416188265 131.7398490776336, 125.41652014052654 137.05585108364926 C115.00254611917043 142.3718530896649, 102.52317135278294 145.86999931568275, 90.65318279286987 146.61440961272592 C78.7831942329568 147.3588199097691, 65.32145080294065 144.86354511156944, 54.19658878104812 141.52231286590836 C43.0717267591556 138.1810806202473, 32.25712405157051 134.03294951004165, 23.904010661514754 126.56701613875953 C15.550897271458998 119.10108276747742, 7.7930950177735205 106.95584213012106, 4.0779084407135855 96.72671263821573 C0.36272186365365044 86.4975831463104, 0.362710461482024 75.64520700989846, 1.6128911991551433 65.19223918732754 C2.8630719368282627 54.739271364756625, 5.283943662623508 42.783985458880665, 11.578992866752301 34.00890570279023 C17.874042070881096 25.2338259466998, 29.223264912623208 18.209550231313827, 39.3831864239279 12.541760650784958 C49.5431079352326 6.87397107025609, 66.07976851989932 1.9837147960564832, 72.53852193458049 0.0021682196170189627 C78.99727534926166 -1.9793783568224452, 77.30438311781694 0.6233276647452494, 78.13570691201488 0.6524811921481728 C78.96703070621282 0.6816347195510962, 77.50776469570617 -0.8703363206953654, 77.52646469976814 0.17708938403455932"
      stroke="#000000" stroke-width="4" fill="none"></path>
  </g>
  <g transform="translate(1159.5572295351708 351.8963194344986) rotate(0 82.95454545454538 73.57954545454547)">
    <path
      d="M10.744934252216074 35.84068871113497 C10.744934252216074 35.84068871113497, 10.744934252216074 35.84068871113497, 10.744934252216074 35.84068871113497 M10.744934252216074 35.84068871113497 C10.744934252216074 35.84068871113497, 10.744934252216074 35.84068871113497, 10.744934252216074 35.84068871113497 M2.4253746957287703 68.90287047150494 C15.93753906538484 56.18949142010793, 26.972919080662106 40.6099138234008, 46.43188772148562 18.96686599622886 M3.759237972717038 69.81711397218467 C19.276302982319677 51.110760334082514, 34.469828821782414 31.886486780780167, 44.17847275159431 20.37285437281649 M4.30574994874646 88.93667415116902 C27.078121771895756 66.43579006666013, 51.85656341877447 39.990641983237026, 76.65327841792993 8.672632196094632 M6.93485279349138 90.3600928332376 C33.4905842576424 58.367415256282314, 59.98654918770776 27.950693703185898, 78.1700976752191 7.055000801678538 M12.482228216039218 107.87849201697692 C45.37312839787034 69.90278329169338, 78.63676248363195 32.33506957731943, 97.7414112030211 6.487719089771318 M13.144474223511494 107.15551871124491 C31.021980230065036 83.03519784757502, 50.29685860676519 61.657697753882914, 97.61902941527396 8.996442747349548 M22.112471171741547 118.59509419602642 C42.24755446503603 95.36948490049281, 60.66196502793767 73.99953807962241, 118.76399985969432 8.422183119678472 M23.823229757224382 118.62277403799186 C41.80531331187217 97.60127501821597, 61.93927467401696 74.80943055243932, 117.85872882500657 10.084067706936573 M33.894157845035394 131.03148621652917 C72.2966726428254 87.65511768289007, 108.77984194123562 44.138072603733605, 131.83335883016002 16.427346054696038 M33.40329549412449 132.6149453963776 C67.84558681177742 91.8507804085545, 102.87980065054086 51.82018571071636, 132.84928866693986 18.376497254007056 M45.78010617096983 142.621426983578 C80.50414518650149 102.05968896961554, 113.29468966823234 63.05807695718431, 146.1911775784577 27.674444719694087 M46.154017689573394 141.70434149618248 C72.48831455773318 110.42764697576382, 100.23652123851035 79.2659302061868, 146.38720797542584 26.25773676811857 M62.514679207717315 147.41458744516174 C87.14571351377649 118.00703833614666, 109.84344783754457 90.88147983066048, 157.1525136047789 40.96475672310699 M60.843318972056046 147.1846518400828 C90.1893832396108 115.14041473576478, 117.52618516515848 85.04860457434505, 156.17438507096853 39.72230116239298 M81.97314280335539 147.46823024704156 C100.62167722829358 129.96162161848528, 120.7004524434105 108.74475486251849, 165.03756331518215 54.83831305025038 M82.20205600996249 149.33762637852726 C114.29076705742276 113.13368723115778, 147.6595186938006 74.80290572637558, 165.87488842993898 53.35892747683343 M98.66624890009446 151.71023965809738 C121.75997686941241 125.96472947770148, 147.8712358615993 97.02699667021992, 166.73989115187783 74.96518547000417 M99.55360281581564 153.17110543508326 C114.84956754353372 134.2429032937668, 130.07230801726442 117.15175644402592, 167.80818581486005 74.61686228500733"
      stroke="#000" stroke-width="2" fill="none"></path>
    <path
      d="M112.13674551746996 5.081533372168508 C123.28107797918459 7.715559885017525, 134.40734008363984 15.338263520076818, 142.48030701326311 22.75396610879904 C150.5532739428864 30.169668697521264, 156.6583243532261 39.70276157717446, 160.57454709520954 49.57574890450185 C164.49076983719297 59.44873623182924, 167.29150105427345 71.56621365674462, 165.97764346516374 81.99189007276335 C164.66378587605402 92.41756648878209, 158.98978231312307 103.10403055241136, 152.69140156055118 112.12980740061424 C146.3930208079793 121.15558424881712, 137.99838255174052 130.41572542865492, 128.18735894973244 136.1465511619806 C118.37633534772436 141.87737689530627, 105.73102792502894 145.20228491594654, 93.82525994850275 146.51476180056835 C81.91949197197656 147.82723868519017, 68.1442752867022 147.22232519083607, 56.752751090575245 144.0214124697115 C45.361226894448286 140.8204997485869, 34.042259597478655 134.66616647718138, 25.476114771741017 127.30928547382081 C16.90996994600338 119.95240447046025, 9.55260350666477 110.00114230123441, 5.355882136149404 99.88012644954813 C1.159160765634038 89.75911059786185, -0.6208814866767488 77.27770338465481, 0.29578654864882026 66.58319036370317 C1.2124545839743894 55.88867734275153, 4.748827534915854 44.65748483759431, 10.855890348102818 35.71304832383828 C16.962953161289782 26.76861181008225, 26.90058189756597 18.677721769524506, 36.938163427770604 12.91657128116698 C46.97574495797524 7.155420792809454, 59.52380534987589 2.8177112666647703, 71.08137952933062 1.1461453936931179 C82.63895370878535 -0.5254204792785349, 98.23662638744005 1.844198386085239, 106.28360850449896 2.887176043337064 C114.33059062155786 3.930153700588889, 115.95439698782062 5.811816544392186, 119.36327223168402 7.404011337204068 C122.77214747554743 8.99620613001595, 127.38181067529634 11.425522288098772, 126.7368599676794 12.440344800208358 M74.43496471234995 1.2312450742724366 C85.59360160262632 -0.7505412406987897, 99.52956792252348 0.5749764106890551, 110.96425849663552 3.8769944161004304 C122.39894907074756 7.179012421511805, 134.7454599321171 13.711535727905325, 143.04310815702223 21.04335310674069 C151.34075638192738 28.375170485576053, 157.03489139913833 37.71216148681846, 160.7501478460664 47.867898689112614 C164.46540429299446 58.02363589140677, 166.51916248047485 71.4820209449231, 165.3346468385907 81.97777632050563 C164.15013119670652 92.47353169608816, 159.70399739639458 101.95419687256845, 153.64305399476143 110.84243094260782 C147.58211059312828 119.7306650126472, 139.0269890534575 129.6025888764434, 128.96898642879177 135.30718074074184 C118.91098380412603 141.01177260504028, 105.28767741651733 143.4753801242877, 93.29503824676708 145.0699821283984 C81.30239907701683 146.6645841325091, 68.01036196461035 148.01144047998102, 57.01315141029026 144.87479276540608 C46.015940855970165 141.73814505083115, 35.9001519241616 133.94428276454207, 27.311774920846503 126.25009584094876 C18.723397917531408 118.55590891735545, 10.131923518187044 108.67846077137798, 5.482889390399706 98.70967122384627 C0.8338552626123672 88.74088167631456, -1.7556262847134765 76.62597297133375, -0.5824298458775274 66.4373585557585 C0.5907665929584216 56.248744140183234, 6.39090569866077 46.59533150245518, 12.5220680234154 37.57798473039473 C18.65323034817003 28.560637958334283, 26.629633386417908 18.413017950907882, 36.20454410265025 12.333277923395812 C45.7794548188826 6.253537895883741, 63.653657915626226 2.940012576113827, 69.97153232080946 1.0995445653223044 C76.28940672599269 -0.7409234454692186, 73.33419167105967 0.9390932297004515, 74.11179053374963 1.2904698586466736 C74.88938939643958 1.6418464875928958, 74.42329469063668 2.319847932270742, 74.63712549694915 3.2078043389996367"
      stroke="#000000" stroke-width="4" fill="none"></path>
  </g>
  <g transform="translate(745.7701400005616 308.4973760674476) rotate(0 69.5 16.087962962962976)"><text x="0" y="23"
      font-family="Virgil" font-size="25.491188585838813px" fill="#000000" text-anchor="start" style="white-space: pre;"
      direction="ltr">Temple UI</text></g>
  <g transform="translate(953.8093556868363 308.69345449882013) rotate(0 69.5 16.087962962962976)"><text x="0" y="23"
      font-family="Virgil" font-size="25.491188585838813px" fill="#000000" text-anchor="start" style="white-space: pre;"
      direction="ltr">Temple UI</text></g>
  <g transform="translate(1167.7309243142877 310.85031724391814) rotate(0 69.5 16.087962962962976)"><text x="0" y="23"
      font-family="Virgil" font-size="25.491188585838813px" fill="#000000" text-anchor="start" style="white-space: pre;"
      direction="ltr">Temple UI</text></g>
  <g>
    <g transform="translate(814.3316008316009 498.4306632703132) rotate(0 -240.0584854141131 150.84690850885409)">
      <path
        d="M-0.9265869542956352 -0.8788708046078682 C-76.02425056262328 -0.5016110909280465, -377.76093294970894 -50.81783882297642, -450.523960577757 3.2827348769919356 C-523.2869882058051 57.383308576960296, -439.55367975091343 270.2580769908992, -437.50475272258393 323.7245713952023 M0.7878161653596907 1.2741180776339025 C-74.40089888290889 1.817320402710037, -377.8903929686101 -51.95241120060042, -451.03762588524717 1.4646770197150634 C-524.1848588018843 54.881765240030546, -440.23692003854336 268.3361528086016, -438.0955813344626 321.7766473995268"
        stroke="#000000" stroke-width="2" fill="none"></path>
    </g>
    <g transform="translate(814.3316008316009 498.4306632703132) rotate(0 -240.0584854141131 150.84690850885409)">
      <path
        d="M-455.4564613731969 297.71326278961675 C-447.9578844988411 304.77637033533836, -442.82095440308854 311.3311685480602, -436.24770078473375 320.81866336182946 M-453.2591072762776 296.1928751810588 C-447.82852148033146 305.11882612300246, -443.355965684114 315.3676879761728, -438.65505810119794 321.27364031912083"
        stroke="#000000" stroke-width="2" fill="none"></path>
    </g>
    <g transform="translate(814.3316008316009 498.4306632703132) rotate(0 -240.0584854141131 150.84690850885409)">
      <path
        d="M-435.38344182622336 293.4478333091705 C-433.9742897830764 301.6576202577972, -434.9630114009803 309.5140928571369, -436.24770078473375 320.81866336182946 M-433.18608772930406 291.92744570061257 C-434.9103534345394 302.3047579396075, -437.6164276262636 314.07904748979803, -438.65505810119794 321.27364031912083"
        stroke="#000000" stroke-width="2" fill="none"></path>
    </g>
  </g>
  <g>
    <g transform="translate(1025.1424116424118 501.1333659730159) rotate(0 -316.43171820202934 158.9116079929207)">
      <path
        d="M0.9599416896700859 0.5453020647168159 C0.6461152717471121 8.062714937289018, 104.79054536396589 41.53238111373271, -0.9240340545773507 44.54674609130298 C-106.63861347312059 47.561111068873245, -527.6276554042558 -26.802667477176552, -633.3275348215893 18.631491930138406 C-739.0274142389228 64.06565133745336, -634.7185475451855 267.19865355807116, -635.1233105585785 317.1517025351927 M0.0047723474074155 -0.2140182966459543 C-0.021834228737279842 7.55237705520052, 106.45412497325752 42.72370122990805, 1.3028026031423359 46.05905087829617 C-103.84851976697284 49.39440052668429, -524.874327504485 -25.53161764034912, -630.9031618732837 19.79807959368275 C-736.9319962420824 65.12777682771463, -634.3718740477303 268.1450492177694, -634.8702036096496 318.03723428248736"
        stroke="#000000" stroke-width="2" fill="none"></path>
    </g>
    <g transform="translate(1025.1424116424118 501.1333659730159) rotate(0 -316.43171820202934 158.9116079929207)">
      <path
        d="M-650.6018125627058 291.53529526435324 C-645.3845357576894 300.9336771792606, -639.4619553222003 311.92850007456127, -635.563311996941 317.00227133780095 M-651.502925435813 293.9157975069482 C-646.44457917819 302.42851716519505, -638.5970868606838 310.7644076605967, -634.2020081496579 318.50028354152414"
        stroke="#000000" stroke-width="2" fill="none"></path>
    </g>
    <g transform="translate(1025.1424116424118 501.1333659730159) rotate(0 -316.43171820202934 158.9116079929207)">
      <path
        d="M-630.6634991842534 286.6789939960558 C-633.0435653340767 298.08183194649257, -634.6957569329056 310.92161405870854, -635.563311996941 317.00227133780095 M-631.5646120573606 289.05949623865075 C-633.8175467729769 299.3672660791524, -633.2512244778711 309.4766042350109, -634.2020081496579 318.50028354152414"
        stroke="#000000" stroke-width="2" fill="none"></path>
    </g>
  </g>
  <g>
    <g transform="translate(1245.4126819126818 498.4306632703132) rotate(0 -422.7300807841897 158.57531840509438)">
      <path
        d="M1.030457179248333 1.198499496281147 C-0.28393171063146383 15.878342054703749, 130.96111944179546 78.3983767102833, -7.3389231208611365 88.1177085886533 C-145.6389656835177 97.8370404670233, -686.2352953910158 21.67960370740108, -828.7697981966912 59.514490766501126 C-971.3043010023666 97.34937782560118, -856.9503409440855 272.59499074804626, -862.5459399549138 315.1270309432536 M0.11230846901424218 0.7821077864896506 C-1.3406964174051474 15.569181382230957, 130.30749368519088 79.07947964978284, -7.883146466183671 89.09260652459325 C-146.0737866175582 99.10573339940366, -686.5953028086183 22.98154861883446, -829.0315324392329 60.860869035352096 C-971.4677620698476 98.74018945186972, -856.687521143215 274.00959856761654, -862.5005242498719 316.36852902369907"
        stroke="#000000" stroke-width="2" fill="none"></path>
    </g>
    <g transform="translate(1245.4126819126818 498.4306632703132) rotate(0 -422.7300807841897 158.57531840509438)">
      <path
        d="M-877.451757084063 292.8969086318076 C-875.3693051683008 301.6245545519976, -867.6340066336821 307.9403152075764, -862.0635807858907 316.066478857867 M-878.764735072336 292.13643671039347 C-874.8734881401914 298.0161925574503, -869.9385023621718 305.2791158615996, -862.7893243963026 315.69666066589167"
        stroke="#000000" stroke-width="2" fill="none"></path>
    </g>
    <g transform="translate(1245.4126819126818 498.4306632703132) rotate(0 -422.7300807841897 158.57531840509438)">
      <path
        d="M-857.5752026523861 287.7937148954872 C-862.3607923583411 298.4557967881659, -861.495179236795 306.53531059779306, -862.0635807858907 316.066478857867 M-858.888180640659 287.03324297407306 C-860.6484081874287 294.4171058270913, -861.4144605944675 303.14373867187146, -862.7893243963026 315.69666066589167"
        stroke="#000000" stroke-width="2" fill="none"></path>
    </g>
  </g>
  <g>
    <g transform="translate(746.4776179954392 494.2952046914497) rotate(0 23.542878344403505 0.9086726575050363)">
      <path
        d="M1.0272754356265066 -1.1874468728899956 C8.931450078321282 -0.6913958157371156, 39.1979401282111 1.3772965663320464, 46.97830037881604 2.0288270546372704 M0.10745630999095734 0.8035395735036581 C7.888499956756493 1.4932861302555183, 38.13923285391013 2.49845878384291, 46.00505424687623 3.004792187900068"
        stroke="#000000" stroke-width="2" fill="none"></path>
    </g>
    <g transform="translate(746.4776179954392 494.2952046914497) rotate(0 23.542878344403505 0.9086726575050363)">
      <path
        d="M21.52397656015067 9.919652764256611 C27.68874457931496 9.107535065942145, 34.75646682429762 4.953571395456388, 45.78178090253829 1.3771876511878984 M22.951083458428666 9.796739541496649 C31.50539677697904 8.014694911375614, 40.980343556957855 5.28096440240353, 46.89665471041559 3.450767696440937"
        stroke="#000000" stroke-width="2" fill="none"></path>
    </g>
    <g transform="translate(746.4776179954392 494.2952046914497) rotate(0 23.542878344403505 0.9086726575050363)">
      <path
        d="M22.292233325650837 -6.180840747266093 C28.12800167838348 -2.755638202962063, 34.99384829137828 -2.6788583916914224, 45.78178090253829 1.3771876511878984 M23.719340223928835 -6.303753970026055 C31.880239035389017 -1.7301667076647949, 41.05167029362688 1.896931490488316, 46.89665471041559 3.450767696440937"
        stroke="#000000" stroke-width="2" fill="none"></path>
    </g>
  </g>
  <g>
    <g transform="translate(1058.937281403796 521.6344994961867) rotate(0 -17.55254265972951 -10.344307420513331)">
      <path
        d="M0.9174381896853447 0.8588543012738226 C-4.787270307801892 -2.3708877781821194, -29.31641718875731 -16.203417869306058, -35.15636585958439 -19.611567236359654 M-0.06004549006931481 0.26414886410348126 C-5.82791725582466 -3.3197157852114882, -30.32200517318326 -17.881014094197077, -36.02252350914429 -21.5474691423005"
        stroke="#000000" stroke-width="2" fill="none"></path>
    </g>
    <g transform="translate(1058.937281403796 521.6344994961867) rotate(0 -17.55254265972951 -10.344307420513331)">
      <path
        d="M-14.720831466538392 -17.215107700326275 C-19.975988135967707 -16.246421912795512, -24.364368748712884 -17.40406928950588, -34.52033823150347 -21.561932142300023 M-16.330929072273456 -18.236634137579035 C-23.476329814380065 -18.110756355091727, -31.678229537925375 -21.18605678463228, -36.412784589260326 -21.84006742335619"
        stroke="#000000" stroke-width="2" fill="none"></path>
    </g>
    <g transform="translate(1058.937281403796 521.6344994961867) rotate(0 -17.55254265972951 -10.344307420513331)">
      <path
        d="M-21.987279473944042 -5.3955061352879135 C-25.601548918139596 -7.114092789390119, -28.372003335465052 -10.903458300188817, -34.52033823150347 -21.561932142300023 M-23.597377079679106 -6.417032572540673 C-27.91290608573535 -10.980130523236477, -33.26035355270399 -18.698481907628164, -36.412784589260326 -21.84006742335619"
        stroke="#000000" stroke-width="2" fill="none"></path>
    </g>
  </g>
  <g>
    <g transform="translate(1268.7149900797021 523.659780168621) rotate(0 -12.004100032769315 -9.723416216885028)">
      <path
        d="M0.05820419043302527 -0.8255236074328423 C-3.8238751110835585 -4.338349535478992, -19.440024434230583 -17.733776849577044, -23.51208023721201 -20.80230498709585 M-1.3703773389291019 1.355472553325817 C-5.325642300986744 -2.0623733521110994, -20.09501982331771 -16.00620347421973, -24.066404255971666 -19.777014534304474"
        stroke="#000000" stroke-width="2" fill="none"></path>
    </g>
    <g transform="translate(1268.7149900797021 523.659780168621) rotate(0 -12.004100032769315 -9.723416216885028)">
      <path
        d="M-10.764200799133576 -12.580700146103677 C-15.02505117099922 -15.450555508707847, -17.031915483981237 -17.092778053036366, -23.747191033739142 -20.537543964050997 M-9.719841819843177 -13.33819208152257 C-15.85900199303801 -16.349365820189735, -20.65016177169878 -17.86174361809208, -24.740139372112587 -19.699746907586356"
        stroke="#000000" stroke-width="2" fill="none"></path>
    </g>
    <g transform="translate(1268.7149900797021 523.659780168621) rotate(0 -12.004100032769315 -9.723416216885028)">
      <path
        d="M-18.124831609880953 -4.792000063176978 C-20.33002142353768 -9.859499528016713, -20.26339875327394 -13.695796011602326, -23.747191033739142 -20.537543964050997 M-17.080472630590553 -5.54949199859587 C-20.5004832496576 -11.43537031804391, -22.51994833315654 -15.880635154722007, -24.740139372112587 -19.699746907586356"
        stroke="#000000" stroke-width="2" fill="none"></path>
    </g>
  </g>
  <g transform="translate(77.00000000000006 339.97432231397227) rotate(0 71.15384615384616 72.11538461538461)">
    <path
      d="M28.169687347343494 13.88743167268477 C28.169687347343494 13.88743167268477, 28.169687347343494 13.88743167268477, 28.169687347343494 13.88743167268477 M28.169687347343494 13.88743167268477 C28.169687347343494 13.88743167268477, 28.169687347343494 13.88743167268477, 28.169687347343494 13.88743167268477 M0.04799438147718149 70.33094469083534 C15.565611398818874 52.68540374374794, 34.083606432521435 30.590135796540075, 58.36980221344455 3.3477873356851653 M-0.5044850830835657 71.59471087900982 C18.128816391312853 49.026173055870224, 38.39689969744663 26.446308255356698, 59.28976525662764 0.8838448265406207 M4.541289210327477 90.46529944321611 C24.57127779175876 70.42119026242716, 42.539299313866906 48.68336952634445, 79.59789385702572 5.116932399680451 M4.2781210355540225 89.07433495378592 C26.880313202046914 65.12622065805986, 49.22497371314737 39.907431886470164, 80.17818183135353 2.197741177042559 M13.17243123112975 108.48116296713559 C32.038169344910926 82.05009876796021, 56.02658229766732 57.84438134033113, 97.23190885351933 9.492833785344402 M11.669472020704134 107.13711651225893 C31.003439431966946 84.5689648251516, 50.851876373207915 62.47138092839699, 95.10833642573989 8.528172444183866 M20.209349048740037 120.80002430527323 C43.54652315024162 94.29507021833479, 62.941773657250195 70.48438265146845, 110.1561994237434 14.760954714465385 M20.47448378191031 119.1187291674208 C56.475856337567855 79.92963831154594, 89.43061142455636 42.18138127235525, 111.32578731529227 15.938067670065408 M30.97618653609029 133.4513616420907 C59.05592391719806 102.66014133870056, 84.60890067825352 70.79656060180432, 124.43709694062989 25.08358587150503 M30.409756246791993 133.2948669240457 C56.10655131377938 103.49818404356947, 78.98194549460712 75.658972130255, 122.98854067763011 25.824214609461315 M46.348719529960576 139.2096123784852 C74.74269089018593 106.58822979058598, 102.56985683519603 78.25737851151285, 137.16226959600635 36.39152505847447 M45.47399005681676 139.14321425334333 C72.52363192526681 108.40993597680634, 99.72051734951518 78.0420806962143, 135.88140825926848 35.93393938469522 M60.542289816311325 147.25900843958678 C85.4768443803296 118.81107710438768, 108.22974143199878 92.5199334537036, 141.4453057048237 53.7471071202809 M60.610920552632535 146.13328140075626 C83.24720746209587 120.01990004264339, 105.15913742712064 95.07400104112219, 141.2955906798458 54.85313641098682 M82.79204823192262 145.76461222629266 C108.10128529078129 116.90172943776327, 131.9610477316865 88.06995202918344, 148.82566166184307 69.68878779737604 M84.2645608757069 145.42244033749418 C103.30631945467343 122.28260417443778, 124.57830344747413 97.81893212326646, 149.30362538881064 71.47585224910033 M28.363583850410187 130.46650950044622 C28.363583850410187 130.46650950044622, 28.363583850410187 130.46650950044622, 28.363583850410187 130.46650950044622 M28.363583850410187 130.46650950044622 C28.363583850410187 130.46650950044622, 28.363583850410187 130.46650950044622, 28.363583850410187 130.46650950044622 M61.97858176335279 140.04656032378017 C44.805380091408836 120.32086836187351, 25.79421943236766 106.37329944099093, 14.50811531297905 96.68616021687708 M62.128216284807365 139.0545454574579 C48.23318695673476 125.61743885499291, 35.35944574153872 114.75949734929132, 13.890701833144256 95.52007511148773 M82.97014058749376 136.6894983614999 C65.09418556793123 119.8218386384688, 46.149562118175886 103.2319979486922, 2.2101085521422767 65.63261358887776 M85.08808343853055 137.90886075824676 C59.164679825698656 117.96230561707651, 36.307663151480675 95.92979138540731, 2.588144972934618 65.82868165598138 M101.91002821648527 130.48296647863705 C69.85987798005027 102.8590356446772, 39.10516791965653 74.67801781980194, 8.094593764268637 48.9774236801551 M101.59693781385232 131.29614098342378 C75.49407537636654 108.82706559114263, 47.61041084097417 84.22625589432049, 8.151624244623662 49.89574089753491 M114.02450017853891 120.42703955225974 C88.03135516322634 96.83070704662703, 61.61756584977784 74.3900098866755, 12.771693632446018 34.76412020099548 M115.61724099367177 121.61892683036953 C92.89759061865001 101.55928184597532, 70.77293921658097 81.3986276059708, 14.626687135986773 33.155529616747174 M131.33037076119803 112.37392787246445 C95.69612733982457 84.3950422976204, 64.53995421987045 56.27791780282796, 21.750409944217722 22.227725941495425 M129.63248207021974 113.588925659493 C97.89514274067903 85.44872108175869, 65.35375938488224 56.907514625604726, 22.563228989254753 19.81584892402721 M138.10204594977824 97.68556393944264 C102.53121076536013 70.01970206494198, 66.45038196909074 37.00581057387368, 33.056755345344904 6.675103959827407 M138.98921058349936 100.00959829129816 C99.08640222630146 64.8489098582165, 59.320368249990906 28.96075250692064, 33.50862475487626 6.863371447859986 M149.73455335271387 84.22901915925286 C125.60931213129524 64.13921813773052, 100.79380511446638 46.016215758106355, 50.58736410470749 1.1682562200309867 M147.63506644663244 85.89657570215604 C114.35709218275667 55.667486335900726, 79.86685758107646 26.417256241177654, 50.236339756418715 0.8719399725975627 M144.81457815309287 62.6962607421815 C125.0420644750404 44.972186274053215, 105.99304089191915 26.720997531818654, 63.199366386730006 -6.531683393664416 M143.06481589739442 61.92241592266556 C126.35036385921325 43.98681252211732, 107.25438574943688 28.774189048341682, 64.71080396299415 -7.92843954721814"
      stroke="#000" stroke-width="2" fill="none"></path>
    <path
      d="M75.70692090488114 -0.7589809154273155 C85.75568320805785 -1.016870442035761, 97.20983366817624 4.971373910622085, 106.49161042607307 10.594811615784835 C115.77338718396989 16.218249320947585, 125.66466930268709 23.95988385035063, 131.3975814522621 32.98164531554918 C137.13049360183712 42.00340678074773, 139.71041684890432 54.06052964511222, 140.88908332352318 64.72538040697616 C142.06774979814205 75.3902311688401, 141.90002847959715 87.09580923610636, 138.4695802999753 96.97074988673282 C135.03913212035343 106.84569053735927, 128.02216430428788 116.55743779219084, 120.306394245792 123.9750243107349 C112.59062418729613 131.39261082927894, 102.5991698153527 138.33534007272198, 92.174959949 141.47626899799712 C81.7507500826473 144.61719792327227, 68.37420508698611 144.6362949839469, 57.76113504767586 142.82059786238585 C47.148065008365606 141.0049007408248, 36.92319229579768 137.13270092342438, 28.496539713138475 130.58208626863083 C20.069887130479266 124.03147161383727, 11.975825344694865 113.47477796347067, 7.201219551720612 103.5169099336245 C2.4266137587463588 93.55904190377834, -0.24156937099702108 81.43491137588498, -0.1510950447070485 70.83487808955378 C-0.06062071841707588 60.23484480322258, 3.0001538720647893 49.43530847082418, 7.744065509460448 39.916710215637295 C12.487977146856107 30.398111960450404, 19.840429592779813 20.3413017141377, 28.312374779666904 13.723288558432436 C36.784319966553994 7.105275402727173, 50.280478014023515 2.275252857382648, 58.575736630783005 0.20863128140571519 C66.8709952475425 -1.8579902945712177, 74.09538447457952 1.1507846753743394, 78.08392648022382 1.3235591025708402 C82.07246848586813 1.496333529767341, 82.53819066810351 0.08553226937001068, 82.50698866464886 1.2452778445847201 M102.403396415321 5.551787312457748 C112.3069779070167 8.94046802401967, 121.65113636323868 19.588381898202783, 127.90892103162719 28.495165812732466 C134.1667057000157 37.40194972726215, 138.20499448555628 48.55319652458355, 139.95010442565206 58.99249079963583 C141.69521436574783 69.43178507468812, 141.0832977237448 80.80785831404694, 138.37958067220188 91.13093146304617 C135.67586362065896 101.4540046120454, 130.38059723110436 112.69655123968592, 123.7278021163945 120.93092969363119 C117.07500700168464 129.16530814757644, 108.31912535056045 136.65471163026794, 98.46280998394269 140.53720218671776 C88.60649461732493 144.4196927431676, 75.5432348070756 145.32422862527088, 64.58990991668793 144.22587303233018 C53.63658502630025 143.1275174393895, 41.8367902407528 139.78119618510124, 32.74286064161662 133.9470686290736 C23.64893104248045 128.112941073046, 15.496426971691466 118.65496899842294, 10.026332321870882 109.22110769616447 C4.5562376720502975 99.78724639390599, 0.6667843143879301 88.04673613008308, -0.07770725730688355 77.34390081552277 C-0.8221988290016972 66.64106550096247, 1.4519082630560467 54.80480943978294, 5.5593828917020005 45.004095808802674 C9.666857520347953 35.203382177822405, 16.558280846079214 25.850641946713637, 24.56714051456884 18.539619029641152 C32.57600018305847 11.228596112568667, 43.61186358169675 3.8451450334370456, 53.61254090263975 1.1379583063677643 C63.61321822358275 -1.569228420701517, 76.4752227652274 1.4938353745170971, 84.57120444022684 2.296498667225464 C92.66718611522627 3.0991619599338307, 99.46507140087178 4.730257459508178, 102.18843095263635 5.953938062617965 C104.91179050440093 7.177618665727752, 101.42077904855093 8.477556850312839, 100.91136175081425 9.638582285884183"
      stroke="#000000" stroke-width="4" fill="none"></path>
  </g>
  <g transform="translate(38.46153846153851 288.08970692935685) rotate(0 118.46153846153848 21.15384615384616)"><text
      x="0" y="30" font-family="Virgil" font-size="33.84615384615385px" fill="#000000" text-anchor="start"
      style="white-space: pre;" direction="ltr">In-page Scirpt</text></g>
  <g transform="translate(10 137.58970692935685) rotate(0 202.88461538461542 182.6923076923077)">
    <path
      d="M145.05187364637527 7.979704883874859 C161.25120714136156 0.6822404963013895, 183.32667624103408 0.3697375235943478, 202.40429614415817 0.3330826690947788 C221.48191604728225 0.2964278145952098, 241.38934565506491 3.080518629364012, 259.51759306511974 7.7597757568774455 C277.64584047517457 12.43903288439088, 295.22206737582275 19.446492260447627, 311.17378060448715 28.408625434175377 C327.12549383315155 37.37075860790313, 342.7458319491967 48.85092595675772, 355.22787243710604 61.53257479924396 C367.7099129250154 74.2142236417302, 377.93592041112527 89.10800152157132, 386.0660235319433 104.4985184890928 C394.19612665276134 119.88903545661428, 400.91362427051916 136.86118630840502, 404.00849116201414 153.87567660437284 C407.1033580535091 170.89016690034066, 407.30029451167803 189.71625842203775, 404.63522488091314 206.58546026489967 C401.97015525014825 223.45466210776158, 395.8154357868376 239.75505564684389, 388.0180733774247 255.09088766154423 C380.22071096801176 270.42671967624455, 369.77435605934886 285.40556831223387, 357.85105042443547 298.6004523531017 C345.9277447895221 311.7953363939695, 332.1488999409676 324.64215948428154, 316.47823956794423 334.26019190675095 C300.80757919492083 343.87822432922036, 281.8630624742377 351.1566184587036, 263.8270881862951 356.30864688791803 C245.79111389835245 361.4606753171325, 227.0031391096391 364.8097484278176, 208.26239384028835 365.17236248203767 C189.5216485709376 365.5349765362577, 169.6288897727166 362.67740388533286, 151.38261657019058 358.4843312132384 C133.13634336766455 354.291258541144, 114.87743563126521 348.67732471354867, 98.78475462513212 340.0139264494711 C82.69207361899903 331.35052818539356, 67.72151478357642 319.1033017996465, 54.826530533392 306.50394162877313 C41.93154628320759 293.9045814578998, 30.0780388874902 279.7339396188514, 21.414849124025636 264.4177654242311 C12.751659360561073 249.1015912296108, 6.294871644598251 231.52396401644302, 2.8473919526046245 214.60689646105132 C-0.6000877393890014 197.68982890565962, -1.2931665042197884 179.89273841410224, 0.7299709720638816 162.91536009188098 C2.7531084483475516 145.93798176965973, 7.613077570790954 128.29686283474206, 14.986216810306644 112.74262652772376 C22.359356049822335 97.18839022070547, 33.35428764371729 82.77766156075916, 44.96880640915802 69.58994224977124 C56.58332517459875 56.402222938783325, 69.49351389099597 43.5097030880194, 84.673329402951 33.61631066179626 C99.85314491490603 23.722918235573125, 122.97802764980982 15.170063929804641, 136.0476994808882 10.229587692432403 C149.11737131196662 5.289111455060166, 155.41212991309484 4.89632596678742, 163.09136038942137 3.973453237562836 C170.7705908657479 3.050580508338252, 181.50793245558205 1.6838865296589867, 182.1230823388473 4.692351317084899 M230.0257921887116 2.3666167142377788 C248.18595855891104 1.6685767718448354, 266.64245338546607 8.895855452407947, 283.850152736394 15.570499885853536 C301.057852087322 22.245144319299126, 318.7139992191923 31.41288805612865, 333.27198829427914 42.41448331491131 C347.82997736936596 53.416078573693966, 360.55326754345646 67.28553693130615, 371.198087186915 81.58007143854948 C381.8429068303736 95.87460594579281, 391.2115842454648 111.99507171100598, 397.1409061550304 128.18169035837127 C403.070228064596 144.36830900573656, 406.39723949681024 161.73584948063996, 406.7740186443085 178.69978332274127 C407.1507977918068 195.66371716484258, 404.47570297693767 213.38661950042163, 399.40158104002 229.96529341097917 C394.32745910310234 246.5439673215367, 386.37419320805776 263.5177789742273, 376.32928702280236 278.1718267860865 C366.28438083754696 292.8258745979457, 353.383251569765 306.409055370735, 339.1321439284877 317.88958028213415 C324.88103628721046 329.3701051935333, 307.85619315979733 339.5512585035086, 290.822641175139 347.0549762544811 C273.78908919048064 354.5586940054536, 255.31545864489837 360.10701720768157, 236.93083202053765 362.9118867879693 C218.54620539617693 365.71675636825705, 198.982322871261 365.8086895041747, 180.51488142897463 363.88419373620764 C162.04743998668826 361.95969796824056, 143.75253404827325 357.7766502667481, 126.1261833668194 351.36491218016704 C108.49983268536558 344.953174093586, 89.64477340955912 336.2475162705063, 74.75677734025163 325.41376521672123 C59.86878127094414 314.58001416293615, 47.25099485984885 300.2090577461476, 36.798206950974446 286.3624058574566 C26.34541904210004 272.51575396876564, 18.217554046402654 258.44599431097697, 12.040049887005182 242.33385388457538 C5.86254572760771 226.22171345817378, 0.7835785288722359 207.007986799501, -0.2668180054103857 189.68956329904705 C-1.3172145396930073 172.3711397985931, 0.8984614526127599 154.61734722628177, 5.737670681309453 138.42331288185167 C10.576879910006145 122.22927853742158, 19.43404509930064 107.03880111190587, 28.768437366769774 92.52535723246648 C38.10282963423891 78.01191335302708, 48.49950207225342 63.436665571841765, 61.74402428612427 51.342649605215286 C74.98854649999512 39.24863363858881, 91.35872403840881 27.74581110428477, 108.23557064999487 19.9612614327076 C125.11241726158093 12.176711761130434, 144.44184528645496 8.081674729755647, 163.0051039556406 4.635351575752281 C181.56836262482625 1.1890284217489153, 208.67231524943577 0.011632793881711678, 219.6151226651088 -0.7166774913125948 C230.55793008078183 -1.4449877765069012, 227.1540829794855 -0.7779792363951021, 228.6619484496788 0.2654898645864421 C230.16981391987207 1.3089589655679863, 229.12802987872467 2.409055341529438, 228.6623154862685 5.544137114576671"
      stroke="#000000" stroke-width="1" fill="none"></path>
  </g>
  <g transform="translate(87.57692307692324 57.24355308320297) rotate(0 106.5 39)"><text x="106.5" y="27"
      font-family="Virgil" font-size="30.76923076923078px" fill="#000000" text-anchor="middle" style="white-space: pre;"
      direction="ltr">Decentralized</text><text x="106.5" y="66" font-family="Virgil" font-size="30.76923076923078px"
      fill="#000000" text-anchor="middle" style="white-space: pre;" direction="ltr">Application</text></g>
  <g>
    <g transform="translate(120.46153846153851 485.89739923704917) rotate(0 112.24225762520607 166.23222329334254)">
      <path
        d="M0.8639703825116156 -0.0856657817959785 C-1.1984745501325695 29.247811063627402, -53.19273286465651 119.36112093486082, -11.511414612141948 174.98218037337065 C30.169903640372617 230.60323981188048, 207.1455697439802 307.34839371950966, 250.951879897599 333.64069084926297 M-0.14158389600925148 -1.1762442625779659 C-2.435218322488409 28.44917567489358, -54.69157494909226 121.0148631369621, -12.445260439451364 176.51025032061153 C29.801054070189533 232.00563750426096, 209.38540737464137 305.57066336651, 253.33630316183613 331.79607883931857"
        stroke="#000000" stroke-width="2" fill="none"></path>
    </g>
    <g transform="translate(120.46153846153851 485.89739923704917) rotate(0 112.24225762520607 166.23222329334254)">
      <path
        d="M223.39891106385244 328.3367498776023 C234.56398634248578 327.7619179759412, 247.25607160138577 329.68961722727255, 253.4090622611408 331.95056137533646 M223.97704311582697 327.3490307403807 C233.82404520190917 329.2975441763982, 245.26998166683057 330.4061258106459, 253.89921034724162 331.8888255478607"
        stroke="#000000" stroke-width="2" fill="none"></path>
    </g>
    <g transform="translate(120.46153846153851 485.89739923704917) rotate(0 112.24225762520607 166.23222329334254)">
      <path
        d="M232.62211650384376 310.0050155407329 C240.20111377905448 316.31485549511507, 249.46273923412582 325.06082179972316, 253.4090622611408 331.95056137533646 M233.2002485558183 309.01729640351135 C239.98969538694777 317.4969128964175, 248.19529099005956 325.04588754002344, 253.89921034724162 331.8888255478607"
        stroke="#000000" stroke-width="2" fill="none"></path>
    </g>
  </g>
  <g>
    <g transform="translate(112.76923076923083 520.5127838524338) rotate(0 3.410284875356954 -16.534166260029963)">
      <path
        d="M0.5415678665041923 -1.1775159761309624 C1.1966850004517122 -6.690138067228669, 4.050865303438448 -26.839912081872793, 5.095546951546123 -32.083871148068155 M-0.6332477329205721 0.818684191061184 C0.3129769152295424 -5.133119826585005, 6.249912257252551 -28.534404521248987, 7.453817483634477 -33.88701671112113"
        stroke="#000000" stroke-width="2" fill="none"></path>
    </g>
    <g transform="translate(112.76923076923083 520.5127838524338) rotate(0 3.410284875356954 -16.534166260029963)">
      <path
        d="M7.699585517978271 -18.32633531713576 C9.28932014764159 -22.49556881636774, 7.773985982504299 -32.11226700814787, 5.945293609876515 -33.22579932417676 M8.684337764388273 -17.12631974813028 C9.040162240712386 -24.127857678329214, 6.984619250323142 -30.34724981838138, 6.805851635291592 -33.20455930564296"
        stroke="#000000" stroke-width="2" fill="none"></path>
    </g>
    <g transform="translate(112.76923076923083 520.5127838524338) rotate(0 3.410284875356954 -16.534166260029963)">
      <path
        d="M-3.3401734624743957 -20.979925264622587 C2.655055360142809 -24.14532004216049, 5.523282109322672 -32.70835635626517, 5.945293609876515 -33.22579932417676 M-2.355421216064394 -19.779909695617103 C2.3869313024077323 -25.721670804855723, 4.701770901692847 -30.890568697056494, 6.805851635291592 -33.20455930564297"
        stroke="#000000" stroke-width="2" fill="none"></path>
    </g>
  </g>
  <g>
    <g transform="translate(1481.8979933110372 10.695058099925404) rotate(0 7.760063833581285 589.0239195017064)">
      <path
        d="M-0.5477221325039864 -0.695058099925518 C1.9751319420294369 195.92150993539371, 13.448448789098066 982.1091797149917, 16.067849799666647 1178.7428971033382 M1.3655850185919554 1.5544324522744866 C3.7233944543128366 197.8912403673807, 13.397656838769791 980.9309454188021, 15.566295046081859 1176.873386812073"
        stroke="#000000" stroke-width="4" fill="none"></path>
    </g>
  </g>
  <g transform="translate(1468.7240802675574 570.108101578186) rotate(90 68.47826086956604 40.76086956521789)"><text
      x="68.47826086956603" y="57" font-family="Virgil" font-size="64.10278745644676px" fill="#000000"
      text-anchor="middle" style="white-space: pre;" direction="ltr">RPC</text></g>
  <g>
    <g transform="translate(1155.3504475084665 907.4070146216645) rotate(0 170.83333333333337 2.0833333333333712)">
      <path
        d="M0 0 C56.94444444444446 0.6944444444444571, 284.7222222222223 3.4722222222222854, 341.66666666666674 4.1666666666667425"
        stroke="#555" stroke-width="2.5" fill="none" stroke-dasharray="12 8"></path>
    </g>
    <g transform="translate(1155.3504475084665 907.4070146216645) rotate(0 170.83333333333337 2.0833333333333712)">
      <path
        d="M313.3528640725954 14.082743646196514 C321.7956281306804 11.125913738174624, 330.2383921887654 8.169083830152733, 341.66666666666674 4.1666666666667425"
        stroke="#555" stroke-width="2.5" fill="none"></path>
    </g>
    <g transform="translate(1155.3504475084665 907.4070146216645) rotate(0 170.83333333333337 2.0833333333333712)">
      <path
        d="M313.603104106771 -6.436939156204103 C321.97125022685873 -3.275098148448396, 330.33939634694644 -0.11325714069268944, 341.66666666666674 4.1666666666667425"
        stroke="#555" stroke-width="2.5" fill="none"></path>
    </g>
  </g>
  <g transform="translate(1314.1405418480895 878.2191215399035) rotate(0 27.5 14)"><text x="27.5" y="23"
      font-family="Cascadia" font-size="23.311698113207555px" fill="#555" text-anchor="middle" style="white-space: pre;"
      direction="ltr">PUSH</text></g>
  <g transform="translate(774.0272128892817 218.99731081971936) rotate(0 26 13.5)"><text x="26" y="22"
      font-family="Cascadia" font-size="22.370370370370342px" fill="#555" text-anchor="middle" style="white-space: pre;"
      direction="ltr">PULL</text></g>
  <g transform="translate(1389.5827684448373 385.9417552641638) rotate(0 26 13.5)"><text x="26" y="22"
      font-family="Cascadia" font-size="22.370370370370342px" fill="#555" text-anchor="middle" style="white-space: pre;"
      direction="ltr">PULL</text></g>
  <g>
    <g transform="translate(1483.05343771273 417.27758984290347) rotate(0 -290.2946731445306 2.9901624902983883)">
      <path
        d="M-0.22709094621241088 -1.1070646192878484 C-96.98236699516949 0.015283548580288242, -483.7073626709668 5.959046635263559, -580.3622553428487 7.0873895998846255"
        stroke="#555" stroke-width="2.5" fill="none" stroke-dasharray="12 8"></path>
    </g>
    <g transform="translate(1483.05343771273 417.27758984290347) rotate(0 -290.2946731445306 2.9901624902983883)">
      <path
        d="M-554.1601644057073 -4.753153821587807 C-559.6059732027396 -1.1188745138972451, -570.7900620225058 3.158564169679471, -579.7660517418609 6.431412881592985"
        stroke="#555" stroke-width="2.5" fill="none"></path>
    </g>
    <g transform="translate(1483.05343771273 417.27758984290347) rotate(0 -290.2946731445306 2.9901624902983883)">
      <path
        d="M-553.8783222498952 15.766119249967325 C-559.4730746489164 12.954417907011786, -570.745694809526 10.786409304957782, -579.7660517418609 6.431412881592985"
        stroke="#555" stroke-width="2.5" fill="none"></path>
    </g>
  </g>
  <g>
    <g transform="translate(1382.1684819605175 417.27758984290347) rotate(0 -29.36518485137651 0.390357789611528)">
      <path
        d="M0.5373314347118139 0.7256849739700555 C-9.526916796842656 0.7420724703092445, -49.390542825954356 0.2211126676296542, -59.26770113746488 0.055030605253022946"
        stroke="#555" stroke-width="2.5" fill="none" stroke-dasharray="12 8"></path>
    </g>
    <g transform="translate(1382.1684819605175 417.27758984290347) rotate(0 -29.36518485137651 0.390357789611528)">
      <path
        d="M-30.471832488813128 -10.972742944606122 C-40.96368835916625 -6.174108921771513, -52.35231537436424 -0.613080632189603, -58.56357587653065 0.8855011616462887"
        stroke="#555" stroke-width="2.5" fill="none"></path>
    </g>
    <g transform="translate(1382.1684819605175 417.27758984290347) rotate(0 -29.36518485137651 0.390357789611528)">
      <path
        d="M-30.759301105980782 9.003879384758513 C-41.130931676479065 5.947436680109046, -52.40654068627267 3.6546754582443572, -58.56357587653065 0.8855011616462887"
        stroke="#555" stroke-width="2.5" fill="none"></path>
    </g>
  </g>
  <g>
    <g transform="translate(1142.3653846153848 420.53201462166453) rotate(0 -14.60469554401925 0.6913946423679818)">
      <path
        d="M0.9397774782031776 -0.8013496544212102 C-4.263332545136412 -0.2752862797429163, -25.204327662164967 1.5494196349134048, -30.149168566241862 2.1841389391571284"
        stroke="#555" stroke-width="2.5" fill="none" stroke-dasharray="12 8"></path>
    </g>
    <g transform="translate(1142.3653846153848 420.53201462166453) rotate(0 -14.60469554401925 0.6913946423679818)">
      <path
        d="M-18.035197161779063 -5.57926502995741 C-22.590022691641064 -1.2761113057017168, -26.68411169533362 -0.38228879717719133, -30.528610625727417 3.523462166168518"
        stroke="#555" stroke-width="2.5" fill="none"></path>
    </g>
    <g transform="translate(1142.3653846153848 420.53201462166453) rotate(0 -14.60469554401925 0.6913946423679818)">
      <path
        d="M-17.00235863113844 4.322384698918432 C-21.878863454886957 4.780654578449931, -26.37485502657268 1.8215045890026242, -30.528610625727417 3.5234621661685175"
        stroke="#555" stroke-width="2.5" fill="none"></path>
    </g>
  </g>
  <g>
    <g transform="translate(1479.5729088125663 252.53999492590935) rotate(0 -539.1542664422362 -0.8032718491129316)">
      <path
        d="M1.0678742732852695 0.15904575325548653 C-178.9726078557064 0.04358430888678462, -899.4815720777162 -1.3788278819905804, -1079.3764071577577 -1.7655894514813526"
        stroke="#555" stroke-width="2.5" fill="none" stroke-dasharray="12 8"></path>
    </g>
    <g transform="translate(1479.5729088125663 252.53999492590935) rotate(0 -539.1542664422362 -0.8032718491129316)">
      <path
        d="M-1050.8998276404702 -12.473147692579865 C-1061.929146867165 -6.63216711370241, -1073.0895600150334 -4.401620078071233, -1077.5355210063396 -0.3501743488654001"
        stroke="#555" stroke-width="2.5" fill="none"></path>
    </g>
    <g transform="translate(1479.5729088125663 252.53999492590935) rotate(0 -539.1542664422362 -0.8032718491129316)">
      <path
        d="M-1050.9413925697288 8.048018812823681 C-1061.7717782501595 6.250504922056706, -1072.9167206348052 0.8429273723653372, -1077.5355210063396 -0.3501743488654001"
        stroke="#555" stroke-width="2.5" fill="none"></path>
    </g>
  </g>
</svg>
