<svg version="1.1" xmlns="http://www.w3.org/2000/svg" viewBox="0 0 810.8897075046413 449.0507287937369">
  <!-- svg-source:excalidraw -->
  <defs>
    <style>
      @font-face {
        font-family: "Virgil";
        src: url("https://excalidraw.com/FG_Virgil.woff2");
      }

      @font-face {
        font-family: "Cascadia";
        src: url("https://excalidraw.com/Cascadia.woff2");
      }
    </style>
  </defs>
  <rect x="0" y="0" width="810.8897075046413" height="449.0507287937369" fill="#ffffff"></rect>
  <g transform="translate(88.44449147574306 10) rotate(0 55.005455537370466 15.902891434806406)">
    <path
      d="M0.6645222119987011 1.1516953893005848 C36.56442476073215 2.4820316590554707, 70.07911536488552 2.6222364463098042, 109.7627363291514 0.3568556495010853 M-0.01652478240430355 0.3322285618633032 C41.793967465043444 0.8261832946198102, 84.88059229610936 0.6861966007607099, 110.0156885751468 0.6147220935672522 M111.8738555994761 -1.8048465065658092 C108.0649651443963 7.582139843931599, 110.0524134790902 14.857573002290335, 109.45595158012033 31.356018040483825 M110.48429123246491 0.5335934963077307 C109.2160214581616 11.30412960540767, 109.4996553459294 24.36673991799882, 110.38371584498704 31.464847421428196 M110.90328300864816 31.491404507463805 C69.89416176033251 33.961164744509524, 28.911693801811765 30.734235437525577, 1.3138653449714184 33.39984998494946 M110.35877297007859 31.447332715770237 C80.58520628666162 30.89410769086716, 52.92285519467532 31.14697759490845, 0.5517394039779902 30.818552291175358 M-1.7180207557976246 33.22587976247632 C1.7036681513343193 23.45363740899814, -0.2997816462959908 15.318132879006292, 0.46169332787394524 -1.601370196789503 M-0.7543466594070196 32.73818663336896 C-0.14921933522095426 22.52867364246191, -0.6565743695723032 12.039823722233567, -0.8255450632423162 0.11425223015248775"
      stroke="#000000" stroke-width="1" fill="none"></path>
  </g>
  <g transform="translate(122.17335126843255 14.998636115657064) rotate(0 23.872340425531945 11.477086743044197)"><text
      x="0" y="16" font-family="Virgil" font-size="18.36333878887072px" fill="#000000" text-anchor="start"
      style="white-space: pre;" direction="ltr">DApp</text></g>
  <g>
    <g transform="translate(145.9985012957103 41.1317512274959) rotate(0 -1.4555313193893369 46.38341438000032)">
      <path
        d="M0.22784057781100264 -1.1074684850871563 C-0.44110548427025087 14.198587230656388, -2.7486841137369273 76.67623800443532, -3.1389032165896653 92.4113426398566 M-1.1116818481776862 0.925506614902988 C-1.4936756688977986 16.373205074293633, -0.6645110785716319 78.8028184683905, -0.9578515923306847 93.87429724508766"
        stroke="#000000" stroke-width="1" fill="none"></path>
    </g>
    <g transform="translate(145.9985012957103 41.1317512274959) rotate(0 -1.4555313193893369 46.38341438000032)">
      <path
        d="M-13.035880686199995 63.987807950545644 C-7.47579997920783 76.19354974963193, -2.173856337238937 86.84854787053078, 0.03692076367283814 92.53069389114026 M-10.686355504623386 65.9178478350682 C-7.942264005707756 72.31745883475037, -6.08324659124469 79.5775037933862, 0.016619807229885986 94.58322543339673"
        stroke="#000000" stroke-width="1" fill="none"></path>
    </g>
    <g transform="translate(145.9985012957103 41.1317512274959) rotate(0 -1.4555313193893369 46.38341438000032)">
      <path
        d="M7.485317535897774 64.00844566385854 C5.392990441486573 76.245454719653, 3.0426251725303066 86.8927570834242, 0.03692076367283814 92.53069389114026 M9.834842717474384 65.9384855483811 C7.528144920567444 72.24329239483882, 4.3363807757863615 79.49825789462933, 0.016619807229885986 94.58322543339673"
        stroke="#000000" stroke-width="1" fill="none"></path>
    </g>
  </g>
  <g transform="translate(89.61552257230596 135.8126022913259) rotate(0 55.31914893617022 54.25531914893622)">
    <path
      d="M56.283655662089586 0.34246472641825676 C66.71609761873657 10.722700823348095, 78.9629854860795 23.753282291133036, 112.26349303657389 56.79577271267772 M55.1451022233814 -0.7705751564353704 C71.32814515939062 16.29766729588442, 88.02984800363119 30.784374736461867, 110.89043471934474 55.89774174429476 M112.48939464027262 53.292084854096174 C90.13488768801054 76.39826862022365, 66.55671922395481 96.2787065332574, 54.708158273249865 110.0186463420855 M109.7578382265774 54.332439372316 C91.74640686236361 73.65453007372537, 73.09005969978591 92.54650292471376, 55.551791271194816 109.027090142818 M56.95087506249547 108.20078001670709 C39.63705650496078 93.34355386164205, 27.128683582719095 80.18845203802152, 0.41049470379948616 53.98984710499644 M56.271382888779044 108.43406255111267 C41.44875212195825 94.43340965514416, 28.98726469311427 83.1964894590765, -0.003925779834389687 55.49868161417544 M1.7198313660919666 56.97987262532115 C14.662540575955063 38.14491931345314, 31.690527527127415 22.55020518504083, 54.35732652619481 -1.491254050284624 M0.36326410435140133 54.121581146493554 C15.850179337244484 40.574393853507935, 31.90197035400197 24.937002145648, 56.82222934626043 -0.16722666285932064"
      stroke="#000000" stroke-width="1" fill="none"></path>
  </g>
  <g transform="translate(109.07296938081652 173.55728314238968) rotate(0 36.478723404255334 17.04613243189499)"><text
      x="36.47872340425533" y="11.953867568104986" font-family="Virgil" font-size="13.413526465294805px" fill="#000000"
      text-anchor="middle" style="white-space: pre;" direction="ltr">Permissions</text><text x="36.47872340425533"
      y="29" font-family="Virgil" font-size="13.413526465294805px" fill="#000000" text-anchor="middle"
      style="white-space: pre;" direction="ltr">exists?</text></g>
  <g transform="translate(197.60072146222296 160.76095258426494) rotate(0 9 8)"><text x="9" y="11" font-family="Virgil"
      font-size="12.198581560283706px" fill="#000000" text-anchor="middle" style="white-space: pre;"
      direction="ltr">Yes</text></g>
  <g transform="translate(571.6783913651354 137.75124384640094) rotate(0 9 8)"><text x="9" y="11" font-family="Virgil"
      font-size="12.198581560283706px" fill="#000000" text-anchor="middle" style="white-space: pre;"
      direction="ltr">Yes</text></g>
  <g transform="translate(728.6870361317277 302.99436128223033) rotate(0 9 8)"><text x="9" y="11" font-family="Virgil"
      font-size="12.198581560283706px" fill="#000000" text-anchor="middle" style="white-space: pre;"
      direction="ltr">Yes</text></g>
  <g transform="translate(77.05724320135357 163.9348656277425) rotate(0 7.5 8)"><text x="7.5" y="11"
      font-family="Virgil" font-size="12.198581560283706px" fill="#000000" text-anchor="middle"
      style="white-space: pre;" direction="ltr">No</text></g>
  <g transform="translate(599.1435578708573 299.16827432570835) rotate(0 7.5 8)"><text x="7.5" y="11"
      font-family="Virgil" font-size="12.198581560283706px" fill="#000000" text-anchor="middle"
      style="white-space: pre;" direction="ltr">No</text></g>
  <g transform="translate(136.4213940087812 62.78858804411243) rotate(1.874063551865824 33.00000000000003 14)"><text
      x="33" y="10" font-family="Virgil" font-size="11.341502346050397px" fill="#000000" text-anchor="middle"
      style="white-space: pre;" direction="ltr">Transaction</text><text x="33" y="24" font-family="Virgil"
      font-size="11.341502346050397px" fill="#000000" text-anchor="middle" style="white-space: pre;"
      direction="ltr">Request</text></g>
  <g transform="translate(7.959855547242626 100.26111551663985) rotate(306.7423582483725 33 14)"><text x="33" y="10"
      font-family="Virgil" font-size="11.341502346050397px" fill="#000000" text-anchor="middle"
      style="white-space: pre;" direction="ltr">Transaction</text><text x="33" y="24" font-family="Virgil"
      font-size="11.341502346050397px" fill="#000000" text-anchor="middle" style="white-space: pre;"
      direction="ltr">Response</text></g>
  <g transform="translate(288.8588630856183 15.222954965587178) rotate(0 62.453189463662284 34.9539828625833)">
    <path
      d="M1.750676054507494 -1.11617286875844 C48.69300710697165 0.7050441480632743, 95.89451250635963 0.601397512054058, 126.72701474154428 -0.08861180022358894 M0.9949746336787939 0.4205423090606928 C28.849871471961062 0.2138955239638073, 57.06831468170329 0.37632885020816154, 125.0896431437327 0.34699023701250553 M125.72137948000864 0.8916786126792431 C122.70029884916285 18.105935335621567, 123.1841964159582 34.26188441085881, 126.52402432883218 71.26914189930062 M124.10577406795755 0.0028334949165582657 C125.22427149316017 26.22530123380922, 124.88909246226494 50.437402532882544, 124.6132374635531 69.67636801290314 M123.19243081534341 67.91865228290658 C82.4550217803826 72.13765698435728, 36.6078906079706 72.08022159102384, -0.157988291233778 71.65515957946877 M125.80138071687952 70.53934933233063 C94.48104247098922 69.56826859689735, 65.6989332137464 70.06178331352257, -0.871683755889535 70.86138518142502 M0.8905146308243275 67.93971024627785 C-1.570527350783386 44.81718871314628, -0.30801192510131803 19.15759976668462, -1.916299443691969 -1.6904464550316334 M-0.7942430172115564 69.00328190612595 C-0.18659196941212164 47.140409380083426, -0.7349935039694642 24.672565922034075, 0.358709117397666 -0.7521940972656012"
      stroke="#000000" stroke-width="1" fill="none"></path>
  </g>
  <g transform="translate(398.8588630856178 124.25208117917919) rotate(0 62.453189463662284 34.9539828625833)">
    <path
      d="M1.74982981197536 -1.9651461374014616 C29.30013072710117 -0.542577878424856, 58.184704026870534 -0.6962334670517176, 124.2435058808519 -1.5448262821882963 M0.47373920027166605 -0.1350636864081025 C48.37062165410923 -0.6238658079424091, 96.10850085019533 -1.2971119233884998, 124.6919845600246 0.9694960629567504 M124.58931247951523 -1.1145022045820951 C126.34164281869018 25.91060204489286, 125.09748174929702 49.79018513042738, 126.830034837742 70.70241748529475 M125.0769235153316 0.35780768748372793 C125.22095398944174 24.915534158800625, 125.09641196172987 49.548386324392425, 124.78456574274287 69.86373278207134 M124.34303198816315 68.58786546426813 C78.48750887877975 71.16995906509092, 27.50763998997742 68.21406882680586, -1.458078758791089 70.98820012050669 M125.79965453935847 69.21503421372722 C86.97184166821202 70.10852761006852, 50.09812368384536 70.77466175890466, -0.9716596370562911 68.92562538093875 M1.199159724637866 70.54703371959727 C0.13910370664402094 54.68973119285043, 0.3157685955028161 37.358416291225666, 0.7531412076205015 -1.1207669507712126 M-0.6782276397570968 69.18156701034854 C0.6416216047460603 51.47473386903442, 0.2536575647050905 30.98285796496394, 0.4325079256668687 -0.40992013458162546"
      stroke="#000000" stroke-width="1" fill="none"></path>
  </g>
  <g transform="translate(304.32125597676384 19.447968481278167) rotate(0 49.31021897810217 33.033059315427636)"><text
      x="49.31021897810218" y="12.955920912763116" font-family="Virgil" font-size="16.917776927682144px" fill="#000000"
      text-anchor="middle" style="white-space: pre;" direction="ltr">Open</text><text x="49.31021897810218"
      y="34.97796045638156" font-family="Virgil" font-size="16.917776927682144px" fill="#000000" text-anchor="middle"
      style="white-space: pre;" direction="ltr">confirmation</text><text x="49.31021897810218" y="57"
      font-family="Virgil" font-size="16.917776927682144px" fill="#000000" text-anchor="middle"
      style="white-space: pre;" direction="ltr">window</text></g>
  <g transform="translate(414.13147495486635 130.0101540102978) rotate(0 49.5 31.5)"><text x="49.5" y="15"
      font-family="Virgil" font-size="16.917776927682144px" fill="#000000" text-anchor="middle"
      style="white-space: pre;" direction="ltr">Close</text><text x="49.5" y="36" font-family="Virgil"
      font-size="16.917776927682144px" fill="#000000" text-anchor="middle" style="white-space: pre;"
      direction="ltr">confirmation</text><text x="49.5" y="57" font-family="Virgil" font-size="16.917776927682144px"
      fill="#000000" text-anchor="middle" style="white-space: pre;" direction="ltr">window</text></g>
  <g>
    <g transform="translate(88.99850129571024 189.71454493702436) rotate(0 -8.594212910112333 -74.0145905903671)">
      <path
        d="M0.9508017785847185 0.9526540629565716 C-6.45548658089145 -2.908688240347108, -49.691549177737755 2.2789167823460055, -45.183553110289814 -22.387838974432952 C-40.675557042841874 -47.05459473121191, 15.829681778008103 -126.2714734815707, 27.99877818327236 -147.04788047771717 M-0.009166016997769422 0.4071935006696732 C-6.971342271402394 -3.908724894102341, -47.46584006065488 0.5037074899956728, -42.910355261167005 -24.39446396739774 C-38.354870461679134 -49.29263542479116, 15.491930734895154 -128.18207558670952, 27.323742779929443 -148.9818352436908"
        stroke="#000000" stroke-width="1" fill="none"></path>
    </g>
    <g transform="translate(88.99850129571024 189.71454493702436) rotate(0 -8.594212910112333 -74.0145905903671)">
      <path
        d="M22.727774651930552 -121.01893826648384 C22.788034384750258 -126.36945200382773, 25.18773785908156 -133.63125512266578, 28.623419455278917 -148.2890394492336 M21.198509726882797 -120.1661352466771 C23.408942333280624 -131.32187917232565, 26.12564167442042 -142.01834130383375, 27.16928290671508 -148.91437517425794"
        stroke="#000000" stroke-width="1" fill="none"></path>
    </g>
    <g transform="translate(88.99850129571024 189.71454493702436) rotate(0 -8.594212910112333 -74.0145905903671)">
      <path
        d="M5.304962787059328 -131.86170678320235 C9.57970240384239 -134.7713357729835, 16.12338835412154 -139.45420714001656, 28.623419455278917 -148.2890394492336 M3.7756978620115724 -131.0089037633956 C12.985772773698795 -137.92876128923803, 22.624376025795307 -144.31750303763178, 27.16928290671508 -148.91437517425794"
        stroke="#000000" stroke-width="1" fill="none"></path>
    </g>
  </g>
  <g>
    <g transform="translate(201.39352892001978 192.58567152842443) rotate(0 43.431182589635 -71.78154149783416)">
      <path
        d="M-0.2692460518330335 -0.7761680323630571 C9.067932081306905 -3.0691507132523457, 48.513785685027294 7.584246728714254, 56.09788217855949 -14.441243628292204 C63.68197867209168 -36.46673398529866, 40.063044733936174 -111.65627722620134, 45.23533290936011 -132.92911017440179 C50.40762108478405 -154.20194312260224, 79.93379955205776 -140.7791338493667, 87.13161123110312 -142.0782413174949 M1.7902610416151585 1.4307398053072395 C10.962251322968484 -1.1250364672005868, 48.0214788863494 6.122767748213999, 55.146114361438485 -16.065543876039655 C62.27074983652757 -38.25385550029331, 39.25117700631751 -110.85335710675555, 44.53807389214966 -131.69912994021468 C49.82497077798181 -152.5449027736738, 79.7708853188687 -139.18208411926324, 86.86749567643139 -141.1401808767944"
        stroke="#000000" stroke-width="1" fill="none"></path>
    </g>
    <g transform="translate(201.39352892001978 192.58567152842443) rotate(0 43.431182589635 -71.78154149783416)">
      <path
        d="M56.561717624203524 -133.5169273776773 C68.36515745357933 -135.5608693370572, 75.39005915594093 -139.73852706812622, 86.34114504598412 -140.6114631968915 M56.862050502919814 -134.14853886364284 C68.16404181638049 -136.55640647390848, 79.77409968351108 -139.74767070051843, 87.10800732385698 -141.4024479960456"
        stroke="#000000" stroke-width="1" fill="none"></path>
    </g>
    <g transform="translate(201.39352892001978 192.58567152842443) rotate(0 43.431182589635 -71.78154149783416)">
      <path
        d="M58.44154605187509 -153.9518545238248 C69.55294968265368 -149.74213564553503, 76.00218316354984 -147.66191473574878, 86.34114504598412 -140.6114631968915 M58.74187893059138 -154.58346600979036 C69.23667572576744 -149.08854986389414, 80.12007401548557 -144.38056365578905, 87.10800732385698 -141.4024479960456"
        stroke="#000000" stroke-width="1" fill="none"></path>
    </g>
  </g>
  <g transform="translate(473.5167494708928 13.505722341023102) rotate(0 61.67883211678833 36.131386861313786)">
    <path
      d="M0.7036942709237337 0.026151759549975395 C25.240166383231212 -0.8523915824514344, 52.58149574956701 -0.8230655607801393, 121.7983897854948 0.2631166409701109 M-0.7075972938910127 -0.42897341307252645 C41.60359616474977 -0.16901289698851363, 84.76912063993107 -0.5975653159357335, 124.31453269490987 0.997497015632689 M125.263381831851 -1.1058136988431215 C124.30285056390169 23.58078926377483, 124.4736330703676 46.391459532911334, 123.81912534734249 71.45219631328564 M124.33004158506185 -0.3728664582595229 C123.2191928833125 24.61771374341965, 123.37947051817159 47.29072135140986, 123.49474289784223 73.18697648610305 M124.03611629506588 73.82223386898022 C84.6876094435634 72.02600874091706, 45.811562385151746 73.24984236146531, 0.8681543935090303 70.94350279703121 M122.94980409512311 72.44603043164443 C77.24874544299351 71.85667080841398, 31.950052475373184 70.93996493182516, 0.4700589096173644 72.47639986242484 M1.5554059613496065 73.26393402948361 C-1.4700812617534367 50.71765586480922, 0.08975077474177207 28.07120184259088, -1.4599831830710173 1.1517699789255857 M0.5563228046521544 72.52087708677482 C1.501743717200672 46.13656396186988, 0.9497048389982337 21.055588887807225, -0.7655347967520356 0.8698259824886918"
      stroke="#000000" stroke-width="1" fill="none"></path>
  </g>
  <g transform="translate(484.35981516432344 19.801342778979233) rotate(0 52.29562043795619 33.52283361407444)"><text
      x="52.29562043795619" y="12.302888514567343" font-family="Virgil" font-size="17.117134009484143px" fill="#000000"
      text-anchor="middle" style="white-space: pre;" direction="ltr">Fetch</text><text x="52.29562043795619"
      y="34.65144425728367" font-family="Virgil" font-size="17.117134009484143px" fill="#000000" text-anchor="middle"
      style="white-space: pre;" direction="ltr">confirmation</text><text x="52.29562043795619" y="57"
      font-family="Virgil" font-size="17.117134009484143px" fill="#000000" text-anchor="middle"
      style="white-space: pre;" direction="ltr">details</text></g>
  <g>
    <g transform="translate(413.66273487235253 49.272145698687154) rotate(0 29.815153067817334 0.21008440242087545)">
      <path
        d="M-0.5163492780178786 -0.695999201014638 C9.565440429336498 -1.0853761300761788, 50.32195532116627 -1.1963951440251321, 60.14665541365248 -1.1585713742341341 M1.4134286216832699 1.5529972731135788 C11.456778972352962 1.8374338176343057, 50.42057467465808 0.2484172592775078, 59.735458056791394 0.15381558434633025"
        stroke="#000000" stroke-width="1" fill="none"></path>
    </g>
    <g transform="translate(413.66273487235253 49.272145698687154) rotate(0 29.815153067817334 0.21008440242087545)">
      <path
        d="M31.075608019996302 12.711933616212228 C38.87611543735077 7.027322911046431, 47.48674327645277 4.696594640318425, 60.45705434435484 0.32821255931226023 M32.45985538726659 11.716599120421925 C37.56106274970492 8.667464364542038, 43.35792034681723 6.609608696750885, 59.40887004358199 -0.5761700467247008"
        stroke="#000000" stroke-width="1" fill="none"></path>
    </g>
    <g transform="translate(413.66273487235253 49.272145698687154) rotate(0 29.815153067817334 0.21008440242087545)">
      <path
        d="M30.53263826636382 -7.503945901928631 C38.67886808896396 -7.701117821743125, 47.43681797334808 -4.546743657455441, 60.45705434435484 0.32821255931226023 M31.91688563363411 -8.499280397718934 C37.328383766382615 -7.18426013450325, 43.24242451421431 -4.879146335485514, 59.40887004358199 -0.5761700467247008"
        stroke="#000000" stroke-width="1" fill="none"></path>
    </g>
  </g>
  <g transform="translate(595.8658378630242 272.834021549937) rotate(0 70.07299270072997 64.23357664233572)">
    <path
      d="M69.11104349605739 -1.8194018136709929 C89.15818636947532 18.47902183350155, 108.78054675761119 33.02216758182252, 140.8318748671943 65.57040046341717 M70.1683154636994 -0.2442517662420869 C98.00129139309678 26.33403999993802, 126.1126532296729 51.90965742275343, 141.0523147585252 64.42439489718527 M140.98822834085763 64.90892766602337 C112.40807033593526 89.84314145955443, 84.69683136134613 115.18631103665805, 72.70332662574947 129.74670483728005 M140.2351052763322 64.90547995921224 C115.18078606803905 88.56998409053898, 89.94035942251386 110.00647866295678, 70.59400331322104 128.6010857773672 M70.71437065117061 128.85285594125344 C55.27099426757904 114.4795374913084, 43.47500629952537 100.96351383971705, 0.3228126596659422 63.489894734695554 M70.56319367233664 129.38891064652307 C44.25464354448367 103.60281374674602, 16.92523081286226 78.28866333438644, 0.24159338418394327 64.95424794312567 M-1.8344019819051027 64.58193145878613 C17.588429016387096 47.24261906652711, 36.1612406094093 32.91614378665573, 70.35556582920253 0.5181414354592562 M0.6453769439831376 65.99046301003546 C19.21336402972229 48.064409727351745, 37.48377980082296 31.323000539680947, 71.4205412203446 -0.05475274566560984"
      stroke="#000000" stroke-width="1" fill="none"></path>
  </g>
  <g transform="translate(622.6578086659441 328.2172332287696) rotate(0 45.470802919708035 10.624019373763531)"><text
      x="45.47080291970802" y="15" font-family="Virgil" font-size="16.828446688041463px" fill="#000000"
      text-anchor="middle" style="white-space: pre;" direction="ltr">Confirmed?</text></g>
  <g transform="translate(595.702758203851 109.5607312538732) rotate(0 63.06945481702758 49.60791635548935)">
    <path
      d="M91.02871259605293 5.5468027383533425 C100.27029971368955 8.500691591307582, 110.0069232320654 15.203406615170437, 116.00303373749614 21.926099334215532 C121.99914424292687 28.648792053260628, 126.55733993450406 37.541009516054885, 127.00537562863735 45.88295905262392 C127.45341132277065 54.22490858919295, 123.62146040662473 64.48241891840824, 118.69124790229594 71.97779655362974 C113.76103539796715 79.47317418885125, 105.86719902904667 86.29807407181865, 97.4241006026646 90.85522486395291 C88.98100217628252 95.41237565608718, 78.52167620962476 98.63056977644459, 68.03265734400345 99.32070130643537 C57.54363847838215 100.01083283642615, 44.007796939792506 98.68507417059007, 34.48998740893676 94.99601404389762 C24.97217787808102 91.30695391720516, 16.747190827912384 84.05195639128578, 10.925800158868988 77.18634054628066 C5.104409489825592 70.32072470127554, 0.3527281798031344 61.927855064782946, -0.4383566053236123 53.802318973866875 C-1.2294413904503592 45.6767828829508, 1.5078799661161435 36.08460464277472, 6.179291448108508 28.433124000784254 C10.850702930100873 20.781643358793787, 18.735712798329573 12.514324248405327, 27.59011228663057 7.893435121924071 C36.44451177493157 3.2725459954428144, 47.142176144716736 0.45758459020224035, 59.30568837791449 0.7077892418967124 C71.46920061111226 0.9579938935911845, 92.62392560549985 6.8859499384547185, 100.57118568581711 9.394663032090904 C108.51844576613438 11.903376125727089, 107.7263854778848 14.97735815954645, 106.98924885981805 15.760067803713824 M71.31493741415122 -0.45909067758654487 C81.33061410248092 -0.035033829378279535, 93.78703403222794 4.994486423882349, 102.10739626996346 10.286634018675855 C110.42775850769898 15.57878161346936, 117.26142688707122 23.548977388613032, 121.23711084056433 31.29379489117449 C125.21279479405743 39.038612393735946, 127.34778408489053 48.73248327733185, 125.9614999909221 56.755539034044595 C124.57521589695368 64.77859479075734, 119.27320826490377 72.92522883429095, 112.91940627675376 79.43212943145096 C106.56560428860375 85.93903002861097, 97.56668194596973 92.77700057473685, 87.83868806202202 95.7969426170047 C78.1106941780743 98.81688465927256, 64.93136299384412 98.84117232490519, 54.551442973067466 97.55178168505809 C44.171522952290815 96.26239104521099, 34.043730391115815 92.75153690496956, 25.559167937362083 88.06059877792214 C17.07460548360835 83.36966065087472, 7.713259390057107 77.08149819299537, 3.644068250545061 69.4061529227736 C-0.42512288896698536 61.73080765255183, -0.49279449938872344 50.24369436102585, 1.1440211002898053 42.00852715659152 C2.780836699968334 33.773359952157186, 6.954401530467169 26.544570619082712, 13.464961848616234 19.995149696167616 C19.9755221667653 13.445728773252519, 30.700161462835247 5.7248651941858935, 40.2073830091842 2.7120016191009455 C49.71460455553315 -0.300861955984002, 65.38678620471195 2.0496493812666308, 70.50829112670995 1.9179682456579314 C75.62979604870795 1.7862871100492324, 70.61110399004654 1.4902192082736174, 70.93641254117215 1.9219148054487505"
      stroke="#000000" stroke-width="1" fill="none"></path>
  </g>
  <g transform="translate(607.1351704517975 130.26371005737292) rotate(0 51.18579859128124 30.354368932038824)"><text
      x="51.18579859128123" y="13.527508090614859" font-family="Virgil" font-size="15.596683603755979px" fill="#000000"
      text-anchor="middle" style="white-space: pre;" direction="ltr">Confirmation</text><text x="51.18579859128123"
      y="33.76375404530743" font-family="Virgil" font-size="15.596683603755979px" fill="#000000" text-anchor="middle"
      style="white-space: pre;" direction="ltr">expired</text><text x="51.18579859128123" y="54" font-family="Virgil"
      font-size="15.596683603755979px" fill="#000000" text-anchor="middle" style="white-space: pre;" direction="ltr">or
      closed?</text></g>
  <g>
    <g transform="translate(598.5227731403705 46.26498816201365) rotate(0 29.439821358858296 29.23105754623566)">
      <path
        d="M-0.8488752465695142 -0.857027157023549 C7.648497643527907 -1.1307670636385865, 42.138546534004384 -11.580774873776017, 51.66928778228178 -0.77256827222418 C61.20002903055917 10.035638329327655, 55.36105177719928 53.15687440407008, 56.33557224309486 63.99221245228746 M0.9063265196420254 1.307429640199989 C9.729420247451737 0.6542469434343091, 44.34552867307397 -12.85593984574231, 53.983346559692315 -2.2813238881924374 C63.62116444631066 8.293292069357435, 58.0826899921041 53.555146074392944, 58.7332338393521 64.75512538549923"
        stroke="#000000" stroke-width="1" fill="none"></path>
    </g>
    <g transform="translate(598.5227731403705 46.26498816201365) rotate(0 29.439821358858296 29.23105754623566)">
      <path
        d="M47.8714500150065 35.01371174021391 C54.82344897103157 44.936198196288835, 54.48281617870332 57.073491127090506, 57.38476105228481 64.62522086014472 M49.3311321862395 35.33179932827828 C53.29609656094653 47.46693839878153, 57.350222234848616 57.455630012870216, 59.52537291411725 64.10040337385111"
        stroke="#000000" stroke-width="1" fill="none"></path>
    </g>
    <g transform="translate(598.5227731403705 46.26498816201365) rotate(0 29.439821358858296 29.23105754623566)">
      <path
        d="M68.38391544491634 35.612681165638264 C68.00682676143543 45.17617873705201, 60.341448214879314 57.09958715110554, 57.38476105228481 64.62522086014472 M69.84359761614934 35.93076875370264 C66.23744584025471 47.84887195073336, 62.723849579788165 57.61658407923615, 59.52537291411725 64.10040337385111"
        stroke="#000000" stroke-width="1" fill="none"></path>
    </g>
  </g>
  <g>
    <g transform="translate(595.7266566355163 163.68246389016872) rotate(0 -36.4452431972241 -3.8521164907830325)">
      <path
        d="M-0.1942621786147356 -0.4296239119023084 C-12.187877011942062 -1.7709967863664662, -59.632137926157284 -6.328600193612594, -71.76085674813207 -7.274609069663666 M-1.7553885517269374 -1.700780410990119 C-13.922484496580756 -2.9688877806172407, -61.206689382429886 -5.0319459283876595, -72.69622421583351 -6.117642485636852"
        stroke="#000000" stroke-width="1" fill="none"></path>
    </g>
    <g transform="translate(595.7266566355163 163.68246389016872) rotate(0 -36.4452431972241 -3.8521164907830325)">
      <path
        d="M-44.60733019992567 -14.460460237614125 C-54.168610981461924 -13.861402986381426, -61.3439512841602 -8.686492336676569, -71.90885212032315 -6.87922010487654 M-43.900064693427154 -14.047196047767311 C-55.828025923598474 -11.936391166185206, -67.29120273034886 -8.414788426514466, -72.07634822504785 -6.083691271122179"
        stroke="#000000" stroke-width="1" fill="none"></path>
    </g>
    <g transform="translate(595.7266566355163 163.68246389016872) rotate(0 -36.4452431972241 -3.8521164907830325)">
      <path
        d="M-45.95787400081367 6.016259075491732 C-55.223400304652884 0.1317880584865847, -61.97097473769059 -1.1790158898886967, -71.90885212032315 -6.87922010487654 M-45.25060849431515 6.4295232653385455 C-56.534165054272265 0.4598611203715599, -67.46477235669701 -4.093265924823197, -72.07634822504785 -6.083691271122179"
        stroke="#000000" stroke-width="1" fill="none"></path>
    </g>
  </g>
  <g>
    <g transform="translate(398.7654915869724 157.99314350181953) rotate(0 -190.6791263522825 3.291534401892932)">
      <path
        d="M-0.3942518692463636 1.0680196087807416 C-13.920882601037894 3.1881952984697133, -58.63284969325693 -6.715073877003389, -81.02569032941922 12.775488596672721 C-103.41853096558151 32.26605107034883, -85.06845407725405 105.50616077656716, -134.75129568622015 118.0113944508374 C-184.43413729518625 130.51662812510764, -354.7841410015329 127.14740146300949, -379.1227399832158 87.80689064229418 C-403.46133896489874 48.46637982157887, -297.2372642262817 -83.5574734675456, -280.78288957631776 -118.03167047345445 M1.5996271700598301 0.5831259580515327 C-12.09898622858179 2.867990127044818, -59.15184854143814 -5.648474432573067, -81.98710467907577 14.103416325247444 C-104.8223608167134 33.855307083067956, -85.85667198120709 107.1497190591027, -135.41190965576595 119.09447050497461 C-184.96714733032482 131.03922195084652, -354.9122847292937 125.19151872326813, -379.318530726429 85.77192500047897 C-403.72477672356433 46.35233127768981, -298.06299428123765 -83.67295624521935, -281.84938563857787 -117.42309183176042"
        stroke="#000000" stroke-width="1" fill="none"></path>
    </g>
    <g transform="translate(398.7654915869724 157.99314350181953) rotate(0 -190.6791263522825 3.291534401892932)">
      <path
        d="M-286.61101289970264 -88.18744050006828 C-287.03380042876574 -96.90050223405534, -285.0772923347537 -107.75006354905739, -280.19486668970995 -116.13891102853597 M-287.59230314606265 -88.04892254381886 C-286.74942460146787 -98.32927388860827, -283.5983785507516 -108.38239620217647, -282.62327042021417 -117.61538619748683"
        stroke="#000000" stroke-width="1" fill="none"></path>
    </g>
    <g transform="translate(398.7654915869724 157.99314350181953) rotate(0 -190.6791263522825 3.291534401892932)">
      <path
        d="M-303.9001501318989 -99.24211083220051 C-298.9379843139913 -104.4584387074942, -291.60153749795734 -111.86806845273162, -280.19486668970995 -116.13891102853597 M-304.8814403782589 -99.1035928759511 C-298.14742662125803 -105.60005057069776, -289.21182214277655 -111.95452756859234, -282.62327042021417 -117.61538619748683"
        stroke="#000000" stroke-width="1" fill="none"></path>
    </g>
  </g>
  <g>
    <g transform="translate(599.4094601998199 45.624610452211755) rotate(0 87.9395655723859 108.88931052527573)">
      <path
        d="M-0.9115770298987627 -1.1348102431744336 C24.645921030421427 -1.1775004731612397, 125.07503456398881 -26.37417347007306, 152.75869565809887 -0.39124758399843806 C180.44235675220892 25.591678302076183, 177.76719088850595 123.27736824817535, 165.19038953476164 154.7627450732733 C152.61358818101732 186.24812189837124, 93.58842286956886 176.0153013891084, 77.29788753563302 188.52101336658922 C61.00735220169719 201.02672534407003, 68.84856656274191 223.16385605162236, 67.44717753114662 229.79701693815827 M0.8107063000649215 0.8838104338198902 C26.79927445926206 1.025863093237381, 127.23971932217515 -24.33621105723889, 155.03739485109966 0.9574977573025261 C182.83507038002418 26.251206571843944, 180.58082080660438 121.73714477844116, 167.59675947361202 152.6460633210684 C154.61269814061967 183.55498186369564, 93.55131533039192 174.0072777789933, 77.13302685314554 186.41100901306595 C60.71473837589916 198.8147402471386, 70.80088269910208 220.29607429331395, 69.08702861013374 227.06845072550416"
        stroke="#000000" stroke-width="1" fill="none"></path>
    </g>
    <g transform="translate(599.4094601998199 45.624610452211755) rotate(0 87.9395655723859 108.88931052527573)">
      <path
        d="M55.13762864076024 198.22299069188173 C59.4273530868297 205.03990332881028, 63.7715480510241 212.18060921266922, 70.50332942659519 225.3251621358627 M56.2647484603939 199.42380422841396 C61.64325107342289 210.77656266829894, 66.64954005907701 221.23159855722656, 68.55395213848463 226.93408775130004"
        stroke="#000000" stroke-width="1" fill="none"></path>
    </g>
    <g transform="translate(599.4094601998199 45.624610452211755) rotate(0 87.9395655723859 108.88931052527573)">
      <path
        d="M75.61608170531635 196.89899580193227 C74.76131020076363 203.89285546534347, 73.9624998803675 211.366072437531, 70.50332942659519 225.3251621358627 M76.74320152495001 198.0998093384645 C74.22498944584434 209.88709049168403, 71.33019011354966 220.8529560084662, 68.55395213848463 226.93408775130004"
        stroke="#000000" stroke-width="1" fill="none"></path>
    </g>
  </g>
  <g>
    <g transform="translate(598.2534032564946 336.08794647155105) rotate(0 -36.06326333483793 -88.66968552366325)">
      <path
        d="M0.949206079915166 0.7266835849732161 C-5.1784726201120295 -1.0248504446140865, -34.6632275039853 11.43522959929377, -37.318776461033984 -11.696580672602021 C-39.97432541808267 -34.82839094449781, -9.024594947617446 -110.03493714277225, -14.984087662376941 -138.06417804640154 C-20.943580377136435 -166.09341895003084, -63.23859805430412 -173.14184271357453, -73.07573274959095 -179.87202609437776 M-0.011599457468837393 0.06258852174505591 C-5.696396427297172 -1.894947078663055, -32.30419949926077 10.0660456571956, -34.95157354755224 -13.244743995427006 C-37.59894759584372 -36.55553364804961, -9.622663968406563 -112.17463965422067, -15.895843747217686 -139.8021493939906 C-22.16902352602881 -167.4296591337605, -63.228528180654486 -172.10897177243106, -72.59065222041897 -179.00980243404655"
        stroke="#000000" stroke-width="1" fill="none"></path>
    </g>
    <g transform="translate(598.2534032564946 336.08794647155105) rotate(0 -36.06326333483793 -88.66968552366325)">
      <path
        d="M-41.4079906040208 -178.79740447457462 C-48.39367826075333 -178.26141671624006, -55.90903390232702 -177.37347209106755, -73.35775453457825 -179.8056092163667 M-42.367093229979425 -177.64026212319314 C-53.77887561491312 -178.0587786597266, -65.88964052914974 -178.23855628225897, -73.52285793563567 -179.51188165919183"
        stroke="#000000" stroke-width="1" fill="none"></path>
    </g>
    <g transform="translate(598.2534032564946 336.08794647155105) rotate(0 -36.06326333483793 -88.66968552366325)">
      <path
        d="M-49.26002021290127 -159.83782553918937 C-54.06415185220852 -164.17856807501525, -59.585552796227404 -168.1052437919663, -73.35775453457825 -179.8056092163667 M-50.21912283885989 -158.6806831878079 C-58.58976990672255 -166.2924115606057, -67.71251930242667 -173.68707742295078, -73.52285793563567 -179.51188165919183"
        stroke="#000000" stroke-width="1" fill="none"></path>
    </g>
  </g>
  <g transform="translate(357.8612463937495 276.53892686370773) rotate(0 70.58823529411762 32.35294117647061)">
    <path
      d="M1.4178835581988096 -1.3427621852606535 C52.933014354175484 -2.180840341812547, 106.82257866760821 -2.207691578632768, 141.05007856459736 -1.0693730246275663 M0.6978282863274217 0.8692093109712005 C44.036025439608174 -1.3213135004591412, 89.08088095623121 -0.5717862546991772, 141.82028052610724 -0.6504889810457826 M142.39023941130756 1.8348585236817598 C139.48886146325174 20.765808404368528, 142.3340215303332 40.493497863302366, 140.73876892895817 64.40908738894063 M141.4045755605158 0.8551169550046325 C140.60473910478103 23.650842703933677, 141.12856019047248 46.99294658854387, 141.79363525313704 63.86142182739127 M141.20217501492618 65.48426315111715 C113.51168034872146 64.31293619259758, 81.83856353591028 65.28780538424415, 0.341440899297595 66.39953234715063 M141.1003652851042 65.02679491432059 C112.44881164463342 65.6561157361002, 83.00373326203618 65.8567175820799, 0.07478853408247232 64.82321104796279 M-1.626106994226575 62.89516404194433 C-0.7928111789309801 46.975020946167874, 1.9543760182774244 31.796563717700998, -1.7707148361951113 1.824142025783658 M-0.23222807701677084 64.82437667639601 C-0.5367291171980257 41.442522745196015, -1.1868525047731753 18.172659742645926, 0.45335757080465555 0.023300311528146267"
      stroke="#000000" stroke-width="1" fill="none"></path>
  </g>
  <g transform="translate(374.3710503153186 285.85265235390443) rotate(0 53.588235294117624 23.09837728194725)"><text
      x="53.588235294117624" y="15.901622718052746" font-family="Virgil" font-size="18.267382661098747px" fill="#000000"
      text-anchor="middle" style="white-space: pre;" direction="ltr">Process</text><text x="53.588235294117624" y="39"
      font-family="Virgil" font-size="18.267382661098747px" fill="#000000" text-anchor="middle"
      style="white-space: pre;" direction="ltr">Transaction</text></g>
  <g>
    <g transform="translate(433.0965405113966 274.5585347068452) rotate(0 55.04716325734887 -59.00964208513358)">
      <path
        d="M1.0020520348101856 0.45377232246100907 C0.4912095370562385 -5.960384470450823, -21.949227393304138 -29.641776692665168, -2.7170067983588524 -37.850849852952024 C16.515213796586433 -46.05992301323888, 100.27439254170972 -35.36363219929745, 116.39537560448191 -48.800666639260136 C132.5163586672541 -62.23770107922282, 97.42906197075021 -106.81104782565808, 94.00889157827434 -118.47305649272816 M0.06899062374606735 -0.3536011535860599 C-0.08649684668987892 -7.19523427928159, -19.72422985942769 -31.935818942601777, -0.4020690664185529 -39.77159136276584 C18.920091726590588 -47.6073637829299, 100.32094585158619 -34.448811152129224, 116.0019553818009 -47.368235674570435 C131.68296491201562 -60.28766019701165, 97.2158298281416 -105.43980368600538, 93.68398811486972 -117.28813849741312"
        stroke="#000000" stroke-width="1" fill="none"></path>
    </g>
    <g transform="translate(433.0965405113966 274.5585347068452) rotate(0 55.04716325734887 -59.00964208513358)">
      <path
        d="M116.5862370695183 -98.31100999955623 C109.0776431742082 -102.34209418927746, 101.51569439247747 -111.99739394829234, 93.94131226097656 -115.99428177417906 M116.41725409153942 -97.28834001832246 C109.29904600596467 -102.58914027412678, 102.83559259797377 -108.4799056773858, 93.89306495809419 -116.93983920922221"
        stroke="#000000" stroke-width="1" fill="none"></path>
    </g>
    <g transform="translate(433.0965405113966 274.5585347068452) rotate(0 55.04716325734887 -59.00964208513358)">
      <path
        d="M98.39665245083711 -88.81053560162871 C96.82230356859543 -96.1192049381328, 95.24480116996929 -108.90019892493468, 93.94131226097656 -115.99428177417906 M98.22766947285822 -87.78786562039494 C96.29984743892109 -95.99253454718813, 95.0730728817543 -104.61843296174898, 93.89306495809419 -116.93983920922221"
        stroke="#000000" stroke-width="1" fill="none"></path>
    </g>
  </g>
  <g>
    <g transform="translate(737.0965405113965 335.67618176566884) rotate(0 -120.57136883760904 51.86022539640385)">
      <path
        d="M-0.9550887186080217 0.9124640721827746 C9.306767697470447 3.4753014606641726, 57.25229676750916 0.28475188749460933, 60.73954844414925 16.09360871719241 C64.22680012078935 31.902465546890213, 73.41221442292075 83.49257449334198, 19.968421341232535 95.76560505036957 C-33.47537174045569 108.03863560739717, -205.93520309403135 105.11684396872835, -259.9232100459801 89.73179205935794 C-313.9112169979289 74.34674014998754, -296.62110713442985 17.74666425892761, -303.9596203704601 3.4552935941471787 M0.7443509747833015 0.3459037647396328 C10.98685771091487 2.9703404364394146, 56.590695945000824 1.5414485876503452, 60.1869478562448 17.150629981328247 C63.783199767488775 32.75981137500615, 75.7286276404057 82.28499570941264, 22.32186244224715 94.00099212680705 C-31.08490275591141 105.71698854420146, -205.71068214758827 102.42744972268657, -260.2536433327066 87.44660848569471 C-314.7966045178249 72.46576724870285, -297.36075781693876 18.108568869621067, -304.9359046684628 4.115944704855892"
        stroke="#000000" stroke-width="1" fill="none"></path>
    </g>
    <g transform="translate(737.0965405113965 335.67618176566884) rotate(0 -120.57136883760904 51.86022539640385)">
      <path
        d="M-289.7173694382837 32.06161043003091 C-296.08270192481484 22.822719694504475, -295.8830909507283 16.54946550669765, -304.07572836038224 5.686512061278435 M-292.16736971414144 30.098294500744725 C-296.8934206595875 21.880783909824757, -301.01740174542556 13.489925997396455, -304.57018705532454 3.6708485017298784"
        stroke="#000000" stroke-width="1" fill="none"></path>
    </g>
    <g transform="translate(737.0965405113965 335.67618176566884) rotate(0 -120.57136883760904 51.86022539640385)">
      <path
        d="M-310.0782215272949 34.62202145079462 C-311.7615781462904 24.95449527136138, -306.86470171666815 18.09055213855224, -304.07572836038224 5.686512061278435 M-312.52822180315263 32.65870552150844 C-310.2939154636049 23.38650918536397, -307.43731903030505 14.117832037612882, -304.57018705532454 3.6708485017298784"
        stroke="#000000" stroke-width="1" fill="none"></path>
    </g>
  </g>
</svg>
