<svg width="26" height="17" viewBox="0 0 26 17" fill="none" xmlns="http://www.w3.org/2000/svg">
<g clip-path="url(#clip0_6910_229372)">
<path d="M23.2622 0.534941H2.75658C2.67231 0.534941 2.58804 0.534941 2.50377 0.534941C2.43355 0.534941 2.36332 0.534941 2.28608 0.534941C2.13158 0.541928 1.97007 0.548915 1.81557 0.576862C1.66108 0.60481 1.50658 0.653718 1.36613 0.723587C1.08524 0.863325 0.853493 1.09389 0.713044 1.37337C0.642819 1.51311 0.593662 1.65983 0.565572 1.82053C0.537482 1.97424 0.53046 2.13494 0.523438 2.28865C0.523438 2.35852 0.523438 2.42839 0.523438 2.50525C0.523438 2.58909 0.523438 2.67293 0.523438 2.75677V14.2153C0.523438 14.2991 0.523438 14.383 0.523438 14.4738C0.523438 14.5437 0.523438 14.6135 0.523438 14.6904C0.53046 14.8441 0.537482 15.0048 0.565572 15.1585C0.593662 15.3122 0.642819 15.4659 0.713044 15.6057C0.783269 15.7454 0.87456 15.8712 0.98692 15.983C1.09928 16.0948 1.22568 16.1856 1.36613 16.2555C1.50658 16.3253 1.65405 16.3742 1.81557 16.4022C1.97007 16.4301 2.13158 16.4371 2.28608 16.4441C2.3563 16.4441 2.42653 16.4441 2.50377 16.4441C2.58804 16.4441 2.67231 16.4441 2.75658 16.4441H23.2622C23.3465 16.4441 23.4307 16.4441 23.515 16.4441C23.5852 16.4441 23.6555 16.4441 23.7327 16.4441C23.8872 16.4371 24.0487 16.4301 24.2032 16.4022C24.3577 16.3742 24.5122 16.3253 24.6526 16.2555C24.9335 16.1087 25.1653 15.8852 25.3057 15.6057C25.376 15.4659 25.4251 15.3192 25.4532 15.1585C25.4813 15.0048 25.4883 14.8441 25.4953 14.6904C25.4953 14.6205 25.4953 14.5507 25.4953 14.4738C25.4953 14.39 25.4953 14.3061 25.4953 14.2153V2.75677C25.4953 2.67293 25.4953 2.58909 25.4953 2.49826C25.4953 2.42839 25.4953 2.35852 25.4953 2.28167C25.4883 2.12795 25.4813 1.96726 25.4532 1.81354C25.4251 1.65983 25.376 1.50612 25.3057 1.36638C25.1653 1.08691 24.9335 0.856338 24.6526 0.7166C24.5122 0.646731 24.3647 0.597823 24.2032 0.569875C24.0487 0.541928 23.8872 0.534941 23.7327 0.527954C23.6625 0.527954 23.5923 0.527954 23.515 0.527954C23.4307 0.534941 23.3465 0.534941 23.2622 0.534941Z" fill="#010202"/>
<path d="M23.2597 1.06595H23.5126C23.5828 1.06595 23.646 1.06595 23.7162 1.06595C23.8356 1.06595 23.976 1.07294 24.1095 1.10088C24.2218 1.12184 24.3201 1.14979 24.4114 1.1987C24.594 1.28953 24.7415 1.43625 24.8328 1.61791C24.8819 1.70874 24.91 1.79957 24.9311 1.91835C24.9522 2.04411 24.9592 2.18385 24.9662 2.30263C24.9662 2.3725 24.9662 2.43538 24.9662 2.50525C24.9662 2.58909 24.9662 2.67294 24.9662 2.75678V14.2153C24.9662 14.2991 24.9662 14.383 24.9662 14.4668C24.9662 14.5367 24.9662 14.5996 24.9662 14.6694C24.9662 14.7882 24.9592 14.928 24.9311 15.0607C24.917 15.1655 24.8819 15.2633 24.8328 15.3542C24.7415 15.5358 24.594 15.6825 24.4114 15.7734C24.3201 15.8223 24.2288 15.8502 24.1165 15.8712C23.9831 15.8921 23.8356 15.8991 23.7303 15.9061C23.66 15.9061 23.5898 15.9061 23.5196 15.9061C23.4353 15.9061 23.351 15.9061 23.2668 15.9061H2.76115C2.67688 15.9061 2.59261 15.9061 2.50834 15.9061C2.43812 15.9061 2.37491 15.9061 2.30469 15.9061C2.19233 15.9061 2.04486 15.8991 1.91143 15.8712C1.80609 15.8572 1.70778 15.8223 1.60946 15.7734C1.51817 15.7245 1.4339 15.6686 1.36368 15.5987C1.29345 15.5288 1.23025 15.445 1.18812 15.3542C1.13896 15.2633 1.11087 15.1585 1.0898 15.0537C1.06873 14.921 1.06171 14.7882 1.05469 14.6694C1.05469 14.5996 1.05469 14.5367 1.05469 14.4668V14.2642V2.70787V2.51224C1.05469 2.44237 1.05469 2.37949 1.05469 2.30962C1.05469 2.19084 1.06171 2.0511 1.0898 1.91835C1.10384 1.81355 1.13896 1.71573 1.18812 1.61791C1.23727 1.52708 1.29345 1.44324 1.36368 1.37337C1.4339 1.3035 1.51817 1.24062 1.60946 1.1987C1.70076 1.14979 1.80609 1.12184 1.91143 1.10088C2.04486 1.07992 2.18531 1.07294 2.30469 1.06595C2.37491 1.06595 2.43812 1.06595 2.50834 1.06595H2.76115H23.2597Z" fill="white"/>
<path d="M7.08534 5.90785C7.29601 5.64235 7.44348 5.29301 7.40135 4.92969C7.09236 4.94366 6.71315 5.13231 6.49545 5.39781C6.29882 5.62139 6.12326 5.9917 6.17242 6.34104C6.51652 6.36899 6.86764 6.16637 7.08534 5.90785Z" fill="#010202"/>
<path d="M7.39278 6.40392C6.88716 6.37597 6.45879 6.69038 6.22003 6.69038C5.98126 6.69038 5.60907 6.41789 5.20879 6.42488C4.68913 6.43187 4.20458 6.72532 3.94475 7.19344C3.40402 8.1227 3.8043 9.5061 4.33098 10.2607C4.59082 10.638 4.8998 11.0502 5.30008 11.0362C5.68632 11.0223 5.83379 10.7917 6.3043 10.7917C6.7748 10.7917 6.90823 11.0362 7.31553 11.0292C7.73688 11.0223 8.00374 10.652 8.25655 10.2816C8.55149 9.85545 8.67087 9.44322 8.67789 9.41527C8.67087 9.40829 7.86329 9.10086 7.85626 8.17859C7.84924 7.40305 8.48829 7.03973 8.5234 7.01178C8.15823 6.48077 7.58941 6.41789 7.39278 6.40392Z" fill="#010202"/>
<path d="M12.4333 5.3559C13.5288 5.3559 14.2942 6.11048 14.2942 7.20742C14.2942 8.31135 13.5147 9.06594 12.4052 9.06594H11.1903V10.9873H10.3125V5.3559H12.4333ZM11.1903 8.33232H12.2015C12.967 8.33232 13.4024 7.92009 13.4024 7.21441C13.4024 6.50175 12.967 6.09651 12.2086 6.09651H11.1973C11.1903 6.09651 11.1903 8.33232 11.1903 8.33232Z" fill="#010202"/>
<path d="M14.5156 9.82054C14.5156 9.10089 15.0704 8.68167 16.0887 8.62578L17.1842 8.5629V8.24849C17.1842 7.79434 16.8822 7.54281 16.3415 7.54281C15.8991 7.54281 15.576 7.76639 15.5128 8.11574H14.7193C14.7403 7.3891 15.4356 6.85809 16.3696 6.85809C17.3738 6.85809 18.0269 7.38211 18.0269 8.19259V10.9943H17.2123V10.3166H17.1912C16.9594 10.7568 16.4468 11.0363 15.8991 11.0363C15.0844 11.0293 14.5156 10.5472 14.5156 9.82054ZM17.1842 9.45722V9.14281L16.208 9.20569C15.6603 9.24063 15.3724 9.44325 15.3724 9.79958C15.3724 10.1419 15.6673 10.3655 16.1378 10.3655C16.7347 10.3655 17.1842 9.98822 17.1842 9.45722Z" fill="#010202"/>
<path d="M18.7667 12.4965V11.8188C18.8229 11.8258 18.9563 11.8327 19.0265 11.8327C19.4127 11.8327 19.6375 11.672 19.7709 11.2458L19.8481 10.9943L18.3594 6.89999H19.2793L20.3116 10.2258H20.3327L21.365 6.89999H22.2639L20.7189 11.2039C20.3678 12.1891 19.9605 12.5175 19.1038 12.5175C19.0406 12.5175 18.8299 12.5105 18.7667 12.4965Z" fill="#010202"/>
</g>
<defs>
<clipPath id="clip0_6910_229372">
<rect width="25" height="16" fill="white" transform="translate(0.5 0.5)"/>
</clipPath>
</defs>
</svg>
