<svg width="21" height="10" viewBox="0 0 21 10" fill="none" xmlns="http://www.w3.org/2000/svg">
<path d="M18.7378 6.89746H18.7583L19.9136 3.09375H20.9116L19.188 8.0166C18.7945 9.14416 18.3436 9.5166 17.3862 9.5166C17.3127 9.51657 17.0699 9.5077 17.0132 9.49121V8.71875C17.074 8.72701 17.2241 8.73534 17.3013 8.73535C17.7353 8.73535 17.9793 8.54965 18.1294 8.06641L18.2182 7.78125L16.5552 3.09375H17.5815L18.7378 6.89746ZM4.29051 2.52344C4.50958 2.53996 5.14263 2.6065 5.54832 3.21777C5.5145 3.24334 4.79803 3.66488 4.80614 4.54785C4.81447 5.60488 5.71501 5.95561 5.72313 5.96387C5.71501 5.98865 5.58094 6.46387 5.25242 6.95117C4.96447 7.3806 4.66811 7.80206 4.19774 7.81055C3.74345 7.81881 3.59292 7.53331 3.06981 7.5332C2.55052 7.5332 2.37972 7.80184 1.94969 7.81836C1.49537 7.8348 1.15079 7.36408 0.862776 6.93457C0.274537 6.06722 -0.176391 4.48943 0.432112 3.42383C0.72822 2.89111 1.26809 2.55719 1.84813 2.54883C2.2943 2.54057 2.70424 2.84949 2.97606 2.84961C3.24379 2.84961 3.72666 2.49047 4.29051 2.52344ZM14.3198 3.03125C15.4433 3.03139 16.1733 3.63038 16.1733 4.55957V7.76465H15.2651V6.99219H15.2446C14.985 7.49599 14.4129 7.81435 13.7964 7.81445C12.8837 7.81445 12.2468 7.26082 12.2466 6.42676C12.2466 5.60071 12.8634 5.1249 14.0034 5.05469L15.228 4.98047V4.62598C15.228 4.10157 14.8916 3.81656 14.2915 3.81641C13.7966 3.81641 13.4348 4.07616 13.3618 4.47266H12.478C12.5064 3.63838 13.2772 3.03125 14.3198 3.03125ZM9.92235 1.32617C11.1471 1.3264 12.0032 2.18523 12.0034 3.44043C12.0034 4.69603 11.1306 5.56348 9.88914 5.56348H8.53074V7.76562H7.54832V1.32617H9.92235ZM14.1372 5.72461C13.5246 5.76178 13.2036 5.99758 13.2036 6.40234C13.2039 6.79445 13.5369 7.05078 14.06 7.05078C14.7253 7.0507 15.228 6.62054 15.228 6.01758V5.6543L14.1372 5.72461ZM8.53074 4.72461H9.65867C10.5144 4.72448 11.0014 4.25781 11.0014 3.44434C11.0014 2.63074 10.5144 2.16804 9.66258 2.16797H8.53074V4.72461ZM4.29539 0.833984C4.33594 1.24695 4.17727 1.65164 3.93797 1.95312C3.69456 2.24637 3.30497 2.47738 2.91551 2.44434C2.86704 2.04808 3.05778 1.62731 3.28074 1.36719C3.52416 1.06568 3.95056 0.850505 4.29539 0.833984Z" fill="black"/>
</svg>
