<svg width="20" height="13" viewBox="0 0 20 13" fill="none" xmlns="http://www.w3.org/2000/svg">
<g clip-path="url(#clip0_6910_229368)">
<path d="M7.17969 1.78885H12.8245V11.2102H7.17969V1.78885Z" fill="#FF5F00"/>
<path d="M7.76213 6.50037C7.76144 5.59318 7.96269 4.6977 8.35065 3.88172C8.73862 3.06574 9.30314 2.35063 10.0015 1.79051C9.13655 1.09589 8.09782 0.663938 7.00401 0.544037C5.9102 0.424136 4.80544 0.621119 3.81601 1.11247C2.82657 1.60383 1.99237 2.36973 1.40874 3.32264C0.825123 4.27555 0.515625 5.37703 0.515625 6.50119C0.515625 7.62534 0.825123 8.72682 1.40874 9.67974C1.99237 10.6326 2.82657 11.3986 3.81601 11.8899C4.80544 12.3813 5.9102 12.5782 7.00401 12.4583C8.09782 12.3384 9.13655 11.9065 10.0015 11.2119C9.30293 10.6516 8.73827 9.9362 8.3503 9.11991C7.96232 8.30362 7.76119 7.40782 7.76213 6.50034V6.50037Z" fill="#EB001B"/>
<path d="M19.4868 6.50036C19.4867 7.6246 19.1772 8.72616 18.5934 9.6791C18.0097 10.632 17.1754 11.3979 16.1858 11.8892C15.1962 12.3805 14.0914 12.5774 12.9975 12.4573C11.9036 12.3372 10.8649 11.905 10 11.2102C10.6981 10.6496 11.2624 9.93427 11.6505 9.11825C12.0386 8.30222 12.2402 7.40679 12.2402 6.49952C12.2402 5.59224 12.0386 4.69681 11.6505 3.88078C11.2624 3.06476 10.6981 2.34945 10 1.78884C10.8649 1.09399 11.9036 0.661826 12.9975 0.541751C14.0914 0.421675 15.1963 0.618532 16.1858 1.10982C17.1754 1.60111 18.0097 2.367 18.5934 3.31995C19.1772 4.2729 19.4867 5.37445 19.4868 6.4987V6.50036Z" fill="#F79E1B"/>
</g>
<defs>
<clipPath id="clip0_6910_229368">
<rect width="19" height="12" fill="white" transform="translate(0.5 0.5)"/>
</clipPath>
</defs>
</svg>
