<svg width="38" height="13" viewBox="0 0 38 13" fill="none" xmlns="http://www.w3.org/2000/svg">
<path d="M24.5996 0.5C21.9726 0.5 19.6248 1.86316 19.6248 4.38112C19.6248 7.26907 23.7885 7.46852 23.7885 8.91954C23.7885 9.53049 23.0893 10.0773 21.8944 10.0773C20.1993 10.0773 18.9322 9.31325 18.9322 9.31325L18.39 11.8546C18.39 11.8546 19.8496 12.5 21.7874 12.5C24.6596 12.5 26.92 11.0701 26.92 8.50877C26.92 5.45696 22.7389 5.26345 22.7389 3.91697C22.7389 3.43837 23.313 2.91416 24.5041 2.91416C25.8481 2.91416 26.9444 3.46988 26.9444 3.46988L27.4752 1.01568C27.4752 1.01568 26.2819 0.5 24.5993 0.5H24.5996ZM0.563704 0.685363L0.5 1.05572C0.5 1.05572 1.60519 1.25813 2.60074 1.66222C3.88259 2.12526 3.9737 2.39515 4.18963 3.23224L6.54185 12.3087H9.69519L14.553 0.685363H11.407L8.28556 8.58811L7.01185 1.88911C6.89519 1.12245 6.30333 0.684992 5.57926 0.684992H0.564074L0.563704 0.685363ZM15.8181 0.685363L13.3504 12.3087H16.3504L18.8093 0.685363H15.8181ZM32.55 0.685363C31.8267 0.685363 31.4433 1.07314 31.1622 1.75046L26.767 12.3087H29.913L30.5215 10.5489H34.3541L34.7241 12.3087H37.5L35.0785 0.685363H32.55ZM32.9593 3.82577L33.8919 8.18736H31.3937L32.9596 3.82577H32.9593Z" fill="#1434CB"/>
</svg>
