<svg viewBox="0 0 24 24" xmlns="http://www.w3.org/2000/svg">
   <path
      d="M6.69141 19.3447C5.07422 19.3447 4.30957 18.5801 4.30957 16.9629V15.082C4.30957 14.915 4.26563 14.792 4.14258 14.6689L2.81543 13.333C1.67285 12.1904 1.66406 11.1182 2.81543 9.97559L4.14258 8.63965C4.26563 8.5166 4.30957 8.39355 4.30957 8.22656V6.3457C4.30957 4.71094 5.06543 3.96387 6.69141 3.96387H8.57227C8.73926 3.96387 8.8623 3.91113 8.98535 3.79687L10.3213 2.46973C11.4639 1.31836 12.5361 1.30957 13.6787 2.46094L15.0146 3.79687C15.1377 3.91992 15.2607 3.96387 15.4365 3.96387L17.3174 3.96387C18.9346 3.96387 19.6904 4.72852 19.6904 6.3457V8.22656C19.6904 8.39355 19.7344 8.50781 19.8662 8.63965L21.1934 9.97559C22.3359 11.1182 22.3447 12.1904 21.1934 13.333L19.8662 14.6689C19.7432 14.792 19.6904 14.915 19.6904 15.082V16.9629C19.6904 18.5801 18.9258 19.3447 17.3174 19.3447H15.4365C15.2607 19.3447 15.1465 19.3887 15.0146 19.5117L13.6787 20.8389C12.5361 21.9814 11.4639 21.9902 10.3213 20.8389L8.98535 19.5117C8.8623 19.3887 8.73926 19.3447 8.57227 19.3447H6.69141ZM11.0244 15.9873C11.3584 15.9873 11.6396 15.8291 11.833 15.5215L15.9551 9.11426C16.0781 8.9209 16.1836 8.70117 16.1836 8.49902C16.1836 8.0332 15.7793 7.72559 15.3398 7.72559C15.0674 7.72559 14.8213 7.88379 14.6279 8.19141L10.998 14.001L9.30176 11.8564C9.07324 11.5664 8.8623 11.4697 8.58984 11.4697C8.1416 11.4697 7.78125 11.8301 7.78125 12.2783C7.78125 12.5068 7.86035 12.709 8.01855 12.9111L10.1719 15.5303C10.4268 15.8467 10.6904 15.9873 11.0244 15.9873Z"
      fill="#48BB78"
      stroke="none"
   />
</svg>